<svg width="578" height="242" fill="none" xmlns="http://www.w3.org/2000/svg"><path d="M120.475 93.658c-.265.032-.589-.147-.972-.538-.382-.39-.581-.786-.596-1.187-.03-.534.027-1.313.172-2.337.146-1.025.322-2.07.53-3.136.207-1.066.407-1.912.601-2.54l.18-1.432c.08-.446.129-.737.147-.874.083-.144.19-.51.321-1.096.164-.59.28-1.158.349-1.704.034-.272.107-.785.218-1.537.14-.789.299-1.698.478-2.726.211-1.033.408-2.047.59-3.043.216-1 .396-1.877.54-2.633a63.46 63.46 0 00.273-1.493c.217-.43.37-.834.459-1.214.088-.38.141-.638.158-.774.183-.157.279-.336.288-.538.005-.236 0-.42-.016-.552a.542.542 0 01.101-.416c.121-.115.173-.239.157-.371a.674.674 0 00.194-.477c.006-.235.081-.446.227-.631l.146-.874 2.923-.402a29.75 29.75 0 01-.118 1.525c-.065.579-.288 1.378-.669 2.397a11.396 11.396 0 01-.381 1.859c-.135.553-.175.91-.122 1.072-.059.075-.168.423-.328 1.047-.127.62-.287 1.377-.482 2.274a78.911 78.911 0 01-.533 2.683 63.661 63.661 0 01-.47 2.373 22.482 22.482 0 01-.254 1.239c-.201.561-.405 1.375-.613 2.44-.207 1.066-.536 2.516-.987 4.35-.201.561-.437 1.395-.706 2.502a45.388 45.388 0 00-.548 2.987 71.259 71.259 0 01-.471 2.776c-.069.545-.151.84-.246.886-.092.078-.272.116-.54.115zm-3.163-29.634c-.922.144-1.623.178-2.103.102-.446-.081-.634-.394-.566-.94a1.4 1.4 0 01.538-.97c.307-.24.769-.446 1.386-.62.356-.11.809-.25 1.36-.416a84.22 84.22 0 001.652-.501c1.076-.264 1.956-.487 2.639-.67.716-.187 1.451-.36 2.204-.517.753-.158 1.705-.34 2.855-.545a132.88 132.88 0 012.415-.442l1.03-.224c.1-.012.451-.02 1.055-.026.604-.006 1.259 0 1.966.015.707.016 1.234.07 1.58.162.782.074 1.355.24 1.722.498.4.254.7.655.9 1.201.147.386.177.634.09.745-.092.078-.262.2-.51.363-.734.324-1.282.507-1.646.551-.365.044-.788.01-1.271-.099a2.829 2.829 0 00-.65-.375c-.214-.108-.59-.164-1.128-.166-.508-.04-1.312-.027-2.412.038-.915.21-1.72.358-2.415.441-.695.084-1.033.209-1.013.374l-2.911.501-2.402.541c-.327.073-.785.178-1.372.316-.592.105-1.165.225-1.72.358-.558.101-.983.203-1.273.305zm23.77 25.946c-1.336-.78-2.199-1.397-2.59-1.854-.395-.49-.669-1.094-.823-1.814-.137-.588-.235-1.399-.292-2.433a85.287 85.287 0 01-.017-3.07c.013-1.009.039-1.767.079-2.276.145-.185.186-.408.121-.669l-.054-.447c-.053-.161.011-.605.192-1.332.177-.76.314-1.716.41-2.87.423-2.065.853-3.795 1.29-5.19.465-1.433.938-2.665 1.418-3.697a36.47 36.47 0 011.471-2.846c1.189-1.553 2.156-2.727 2.9-3.521a11.182 11.182 0 012.565-2.122 13.994 13.994 0 011.723-1.164c.535-.3.994-.388 1.378-.267 1.901.175 3.383.769 4.445 1.782 1.058.981 1.941 2.604 2.65 4.869.407 1.428.699 2.736.875 3.923.206 1.15.262 2.319.17 3.505-.096 1.153-.377 2.446-.843 3.878-.432 1.429-1.085 3.12-1.958 5.07-.884 2.424-1.952 4.567-3.205 6.43-1.22 1.858-2.534 3.36-3.941 4.502-1.369 1.172-2.758 1.91-4.165 2.214-1.374.3-2.64.1-3.799-.6zm3.004-1.822a6.54 6.54 0 002.101-.957c.651-.448 1.315-1.065 1.993-1.852a44.952 44.952 0 002.253-3.04 86.073 86.073 0 001.786-2.734c.479-.762.859-1.513 1.139-2.252.314-.743.576-1.63.788-2.663.244-1.037.503-2.377.775-4.021a42.49 42.49 0 00.297-2.554c.053-.678.062-1.3.027-1.867a20.65 20.65 0 00-.245-2.035l-.352-2.929a6.81 6.81 0 00-.556-1.696c-.275-.604-.562-1.04-.863-1.306-.374-.324-.868-.517-1.479-.577-.616-.094-1.268.068-1.956.487-.377.213-.844.655-1.402 1.327a28.149 28.149 0 00-1.746 2.224 43.468 43.468 0 00-1.705 2.572 33.075 33.075 0 00-1.233 2.314c-.292.64-.424 1.075-.397 1.307l-.019.254c.02.166-.027.339-.139.52-.375.516-.755 1.4-1.141 2.656a44.093 44.093 0 00-.95 4.244 56.31 56.31 0 00-.654 4.61c-.123 1.493-.151 2.789-.086 3.889.041.901.082 1.517.121 1.849.04.33.138.587.295.77.152.15.407.454.764.915.239.307.6.516 1.083.625.516.106 1.016.08 1.501-.08zm39.876-2.631c-.088.11-.313.188-.677.232a2.54 2.54 0 01-1.073-.123c-.384-.121-.682-.37-.895-.748-.177-.348-.174-.885.007-1.612a135.26 135.26 0 002.039-9.008 2525.03 2525.03 0 011.735-9.022c.198-.863.415-1.846.652-2.95.233-1.135.432-2.267.599-3.395.199-1.132.301-2.101.305-2.907.022-.372.061-.746.116-1.122a6.46 6.46 0 00.074-1.067c.017-.136.005-.235-.036-.297-.008-.067-.08-.108-.217-.125-.764-.21-1.485-.208-2.164.008-.683.183-1.335.211-1.954.084-.174-.046-.575-.032-1.204.044-.595.072-1.288.172-2.079.3-.757.125-1.481.246-2.172.363-.658.112-1.136.187-1.434.223-.364.043-.556.117-.577.22.012.1-.164.17-.528.215-.224.933-.48 1.87-.77 2.812l-.77 2.812a55.546 55.546 0 01-.593 2.186c-.181.727-.43 1.445-.748 2.155-.054.107-.165.44-.333.997a56.004 56.004 0 01-.448 1.716 21.873 21.873 0 01-.304 1.245c-.39 1.222-.762 2.459-1.115 3.71l-.96 3.741a75.74 75.74 0 00-.93 3.99 89.358 89.358 0 01-.825 4.027c-.088.38-.154.808-.198 1.283-.014.438-.082.85-.204 1.233-.147.454-.452.71-.915.765-.46.089-.883.056-1.271-.099-.458-.18-.769-.394-.934-.643-.16-.216-.204-.58-.131-1.092.267-1.409.584-2.958.952-4.647a218.77 218.77 0 011.245-5.136c.467-1.7.91-3.181 1.329-4.44.424-1.226.779-2.46 1.066-3.704a70.03 70.03 0 011.053-3.803c.361-1.185.747-2.44 1.158-3.765.408-1.359.707-2.637.899-3.835a.815.815 0 00-.048-.397c-.02-.166-.112-.238-.278-.219a2.15 2.15 0 00-.534.166 2.629 2.629 0 00-.528.214c-.381.18-.793.247-1.235.2a8.99 8.99 0 00-1.216-.056c-.366-.258-.65-.66-.85-1.207-.2-.547-.208-1.033-.024-1.458.104-.247.272-.385.504-.413l3.723-.448c.53-.064.884-.19 1.063-.38l.48-.611c.145-.186.41-.218.794-.096.591.164 1.298.18 2.121.047.819-.166 1.519-.35 2.099-.554a.817.817 0 01.242-.08l.298-.036 4.368-.525.894-.108c.265-.032.57-.001.917.091.277.068.796.056 1.557-.036a30.66 30.66 0 012.445-.193c.835-.034 1.436.079 1.803.337.251.137.476.329.673.573.227.208.372.443.437.703.004.033-.035.407-.117 1.122a162.73 162.73 0 01-.346 2.56 162.645 162.645 0 01-.976 5.707c-.115.72-.201 1.116-.259 1.19.014.401-.056.796-.211 1.183a4.86 4.86 0 00-.309 1.196 36.401 36.401 0 01-.573 3.191l-.722 3.21a16.547 16.547 0 00-.351 2.106 20.797 20.797 0 01-.35 2.107 117.902 117.902 0 01-.907 4.189 56.998 56.998 0 00-.757 4.17 2.68 2.68 0 01-.246.886c-.101.28-.218.563-.351.848zm22.924-5.68c-.647-.358-.989-.686-1.025-.984-.156-.182-.317-.264-.482-.244-.096.045-.207-.042-.334-.262-.094-.224-.192-.48-.294-.77-.073-.327-.101-.559-.084-.695.101-.28.281-.454.542-.519a.98.98 0 01.757.01c.277.067.447.232.512.492.098.257.372.442.823.556.483.11 1.086.104 1.811-.016.922-.145 1.854-.492 2.795-1.042a12.732 12.732 0 002.633-1.978c.814-.77 1.444-1.534 1.889-2.292.176-.492.318-1.13.425-1.915.107-.785.158-1.48.152-2.083-.005-.604-.091-.895-.256-.876l-.141-.335a3.556 3.556 0 00-.289-.72c-.225-.477-.665-.928-1.32-1.353-.66-.458-1.285-.769-1.875-.933-.24-.038-.676-.036-1.309.007a6.808 6.808 0 00-1.638.197c-.526.097-1.006.155-1.44.173l-.601.022c-.17-.013-.434-.116-.793-.307a9.006 9.006 0 01-.933-.643c-.297-.233-.455-.433-.475-.598.038-.24.16-.624.365-1.152a33.06 33.06 0 01.734-1.85c.318-.71.658-1.373 1.02-1.987.359-.647.713-1.194 1.062-1.639.862-1.211 1.889-2.157 3.083-2.838a8.818 8.818 0 013.882-1.222c.964-.083 1.652-.082 2.065.003.442.047.894.312 1.355.794.32.431.486.831.496 1.199.011.368-.091.632-.307.792-.216.16-.534.165-.955.015-.499-.242-1.159-.28-1.978-.115a12.75 12.75 0 00-2.472.801c-.663.348-1.356.868-2.079 1.56-.693.654-1.101 1.173-1.223 1.557-.12.115-.207.226-.262.333-.021.104-.099.147-.236.13l-.125.216a.48.48 0 00-.107.365 6.086 6.086 0 00-.294.489c-.025.07-.112.047-.26-.07l.018.15c.012.099.009.217-.008.353-.005.236.035.432.122.59.115.12.491.176 1.127.166.844.033 1.489.09 1.935.17.442.048 1.106.27 1.994.667.99.418 1.82 1.04 2.49 1.866.666.793 1.164 1.723 1.494 2.791a9.42 9.42 0 01.5 3.314c-.012.74-.044 1.315-.095 1.724-.052.41-.267.99-.647 1.74a13.35 13.35 0 01-2.439 3.164 15.262 15.262 0 01-3.199 2.298c-1.139.574-2.253.943-3.341 1.107-1.056.16-1.977.037-2.765-.372zm32.547-3.814a1.46 1.46 0 01-1.009-.432 3.095 3.095 0 00-.952-.792c-.043-.365-.03-.954.04-1.768.099-.851.233-1.69.402-2.516.165-.86.309-1.48.43-1.865.029-.876.145-1.73.347-2.56a17.86 17.86 0 00.514-2.428c.086-.682.159-1.329.22-1.94.093-.616.189-1.215.287-1.797.114-.45.161-.758.141-.924-.024-.198-.009-.351.045-.459.084-.144.312-.34.685-.586.38.089.721.132 1.023.13.331-.04.619-.16.863-.356.03-.038.278-.067.745-.09l1.638-.197a13.3 13.3 0 001.335-.211 3.663 3.663 0 011.358-.012c.446.08.917.09 1.414.031a12.15 12.15 0 011.833.585c.565.234 1.023.549 1.372.943.379.357.59.852.632 1.485a11.75 11.75 0 00.086 1.551 2.972 2.972 0 01-.218 1.537c.007.335-.093.901-.299 1.698a57.33 57.33 0 00-.613 2.44c-.169.827-.255 1.509-.258 2.046-.005.236-.076.48-.214.73a1 1 0 00-.065.714c.073.327.073.746 0 1.259-.043.475-.165.859-.365 1.152-.258.366-.606.543-1.044.528a2.554 2.554 0 01-1.214-.458c-.337-.295-.514-.643-.528-1.045a25.387 25.387 0 01-.124-1.445 44.83 44.83 0 00-.036-1.557c.204-.26.294-.489.27-.687l.016-.707c.214-.73.406-1.644.577-2.739.199-1.132.338-2.206.418-3.223.079-1.016.026-1.732-.158-2.146-.529.064-1.22.18-2.073.35-.856.137-1.645.282-2.365.436-.691.116-1.069.179-1.136.187a.628.628 0 00-.317.29c-.088.11-.125.216-.113.315a10.757 10.757 0 01-.403 2.516 11.837 11.837 0 00-.458 2.473c-.005.236-.073.647-.204 1.233a91.379 91.379 0 01-.48 1.87 42.752 42.752 0 00-.418 1.965c-.127.62-.169 1.111-.125 1.475a2.853 2.853 0 00-.202.83c-.031.306-.018.69.038 1.154-.001.269-.112.467-.332.594-.219.127-.555.268-1.006.423zm19.229 7.608c-.366.312-.781.346-1.248.1-.432-.25-.784-.661-1.054-1.233-.271-.572-.33-1.203-.178-1.893.043-.206.102-.55.179-1.028.08-.447.117-.837.111-1.172.005-.236.056-.645.154-1.227.102-.55.22-1.101.355-1.654.168-.558.304-.96.409-1.208.159-.355.245-.751.26-1.19.047-.442.057-.779.029-1.01.038-.24.089-.514.153-.824.096-.314.201-.562.313-.743.035-.273.1-.566.197-.88a4 4 0 01.345-.897c.038-.24.054-.527.047-.862.027-.34.104-.533.232-.582a1.6 1.6 0 00.002-.403 3.96 3.96 0 01.133-.57c.023-.372.108-.92.256-1.643.148-.722.338-1.518.569-2.385.249-1.003.305-1.933.168-2.79-.108-.893-.421-1.41-.942-1.548-.28-.1-.468-.263-.562-.487a1.126 1.126 0 01.004-.806c.1-.28.277-.486.53-.618a1.85 1.85 0 01.925-.262c.368-.01.691.018.967.085.273.034.397.087.372.157.02.165.114.255.284.268.054-.107.2-.008.439.3.267.27.524.591.77.964.247.374.38.643.4.808-.05.14-.074.228-.07.26l.199-.023.516-.314c.34-.242.695-.503 1.064-.783.399-.316.656-.549.773-.697l.236-.13c.186-.122.338-.258.454-.406.63-.345 1.336-.48 2.117-.406.814.07 1.479.292 1.994.666.761.748 1.188 1.503 1.279 2.264.125.757.025 1.743-.298 2.957-.047.173-.162.472-.346.897-.155.388-.311.76-.47 1.115l-.244.482c-.618 1.283-1.392 2.383-2.322 3.301a25.957 25.957 0 01-2.877 2.461 4.522 4.522 0 01-.977.672 5.593 5.593 0 01-.87.306c-.264.032-.45.02-.558-.034-.395-.22-.794-.743-1.195-1.568l-.342 1.35c-.084.413-.135.688-.152.825-.005.235-.015.438-.028.607a.63.63 0 01-.206.377l-.026.205c-.017.136-.109.349-.276.638-.215 1-.414 1.862-.595 2.59a76.18 76.18 0 00-.424 1.914 24.868 24.868 0 00-.23 1.437c.041.902-.035 1.8-.23 2.697-.19.93-.362 1.454-.515 1.573zm4.205-14.859c.124-.082.384-.298.778-.647a58.68 58.68 0 001.402-1.327c.507-.531.968-1.023 1.383-1.476.449-.457.744-.795.886-1.013.229-.33.439-.674.631-1.033.188-.392.322-.81.403-1.257.067-.277.147-.588.24-.935.092-.347.17-.676.234-.985.1-.281.118-.552.053-.813a1.017 1.017 0 00-.388-.708c-.136-.018-.521.13-1.155.44-.638.28-1.324.714-2.059 1.306a7.38 7.38 0 00-1.864 2.088c-.587.977-.989 1.965-1.204 2.965-.183.995-.218 1.822-.105 2.48.146.654.401.959.765.915zm25.165 2.412c-.371-.291-.756-.698-1.155-1.221a8.777 8.777 0 01-1.039-1.94c-.098-.257-.175-.617-.23-1.08-.023-.467-.063-.798-.12-.993a2.91 2.91 0 01-.407.804c-.17.256-.345.478-.524.668-.116.148-.382.449-.798.902-.419.42-.847.773-1.282 1.06-1.009.827-1.873 1.317-2.593 1.47-.687.15-1.393-.134-2.117-.853-.581-.366-1.02-.8-1.315-1.302-.262-.505-.35-1.234-.263-2.184a19.05 19.05 0 01.09-3.435c.13-1.158.497-2.713 1.101-4.665.532-1.44.942-2.497 1.23-3.17.285-.706.469-1.13.552-1.275.477-.225.892-.258 1.247-.1.351.126.587.416.709.872.239.307.273.873.104 1.7-.136.822-.432 1.848-.889 3.078a70.025 70.025 0 00-.884 3.53c-.229 1.17-.329 2.155-.299 2.958.029.802.285 1.258.769 1.368.317.13.824.018 1.521-.335.729-.356 1.493-1.12 2.292-2.29.833-1.174 1.566-2.89 2.201-5.15.185-.693.314-1.296.387-1.809a9.236 9.236 0 00.039-1.767c-.114-.39-.139-.739-.076-1.048.093-.347.324-.66.693-.94.112-.181.277-.352.492-.512.212-.194.361-.212.447-.054l.788-.145c.129-.05.221.023.278.218.087.158.22.293.402.405.4.254.576.888.53 1.9-.046 1.013-.342 2.459-.888 4.337-.465 1.433-.772 2.51-.92 3.233a9.14 9.14 0 00-.103 2.078 4.19 4.19 0 00.551 1.646c.295.501.717.937 1.265 1.308.392.188.622.429.691.723a3.5 3.5 0 01.175 1.036c-.03.306-.199.578-.506.816a2.126 2.126 0 01-1.013.374 1.873 1.873 0 01-1.133-.216zm15.114-2.927a.888.888 0 00-.409-.051 9.642 9.642 0 00-.459-.046c-.999-.215-1.608-.813-1.827-1.794-.223-1.014-.182-2.21.122-3.59a25.95 25.95 0 011.371-4.093l-.248.03c-.716 1.026-1.436 1.884-2.158 2.576a9.458 9.458 0 01-2.47 1.657c-1.403-.503-2.376-1.192-2.918-2.067-.545-.908-.622-2.107-.231-3.598a38.46 38.46 0 01.944-3.035c.348-1.015.75-2.003 1.205-2.965.227-.06.457-.105.689-.133l.683-.183c.392.188.692.454.902.798.238.307.445.635.621.983a8.34 8.34 0 01-.666 1.994 10.671 10.671 0 00-.722 1.95c-.131.587-.238.952-.322 1.096a2.29 2.29 0 00-.151.421l-.154 1.228c.512.072 1.061-.111 1.646-.55.585-.44 1.158-.98 1.719-1.618.561-.638 1.05-1.184 1.465-1.637.353-.411.759-.947 1.217-1.606.487-.697.961-1.358 1.423-1.985.491-.663.936-1.153 1.334-1.47.479.077.787.124.923.141a.88.88 0 01.427.2c.075.059.169.148.285.269.115.12.269.286.462.498.128 1.06-.028 2.001-.465 2.826-.438.825-.905 1.687-1.402 2.586-.354.68-.733 1.582-1.135 2.705s-.691 2.064-.869 2.824a7.385 7.385 0 01-.152.824 7.39 7.39 0 01-.153.824c-.092.347-.098.582-.016.707.083.124.125.338.128.64-.043.206-.005.52.113.942.118.423.208.748.269.975-.154.12-.324.24-.511.364-.19.09-.36.211-.51.363zm21.281-1.955c-1.14-.266-2.073-.91-2.801-1.93-.731-1.053-1.243-2.1-1.535-3.139-.034.004-.125.083-.274.235-.121.115-.266.3-.437.556l-1.529 1.946a18.467 18.467 0 01-1.969 2.05c-.668.584-1.337.883-2.007.897a34.485 34.485 0 01-.91-.445l-.878-.6a3.77 3.77 0 01-.395-.355 5.993 5.993 0 01-.252-.423c-.484-.949-.788-1.802-.912-2.56a7.936 7.936 0 01-.033-2.362c.136-.822.295-1.731.478-2.727.021-.103.087-.53.198-1.283.144-.755.309-1.615.496-2.577.186-.963.368-1.824.545-2.584.21-.764.374-1.22.49-1.368l.298-.036c.128-.049.242-.08.341-.092.331-.04.594.047.787.258.156.183.34.312.55.388.244.07.425.183.544.337.206.311.175 1.036-.09 2.176-.27 1.107-.555 2.367-.855 3.78a36.925 36.925 0 00-.644 3.854c-.151 1.26-.044 2.288.32 3.084.232-.028.522-.264.872-.71.378-.481.673-.819.885-1.012.307-.239.692-.671 1.153-1.297.491-.664.966-1.325 1.424-1.985.453-.692.76-1.216.919-1.57.108-.215.263-.603.464-1.164.197-.595.39-1.222.579-1.883.218-.698.376-1.338.474-1.92.131-.587.166-.994.105-1.222-.073-.327-.07-.579.01-.756a1.93 1.93 0 01.53-.618l.546-.066c.198-.024.382-.029.552-.016.226.208.467.397.723.568.255.17.513.358.772.562.242.609.244 1.464.007 2.567a87.78 87.78 0 00-.68 3.557 18.116 18.116 0 00-.247 3.807c.048 1.236.508 2.272 1.381 3.107.659-.382 1.155-.727 1.487-1.035.361-.346.706-.69 1.034-1.03a8.496 8.496 0 011.271-1.161c.355.159.651.526.888 1.102.237.576.377 1.046.421 1.41l-.361.345a.755.755 0 00-.212.328c-.147.454-.493.932-1.037 1.434a8.798 8.798 0 01-1.761 1.27c-.634.31-1.209.413-1.725.308zm20.903-19.789c.431-.32.901-.46 1.41-.421.504.006.91.176 1.219.508.338.295.439.72.304 1.273.042-.207-.024-.064-.2.427-.147.454-.344 1.048-.591 1.783-.215.73-.416 1.427-.606 2.087-.159.624-.267.99-.321 1.096l.018.15c.53-.064.864.063 1.003.382.168.282.26.624.274 1.025-.389.114-.656.264-.802.449a1.27 1.27 0 01-.615.326c-.1.012-.209.075-.33.19a.63.63 0 00-.206.378c-.021.103-.073.512-.155 1.227-.053.678-.13 1.426-.233 2.244-.074.781-.154 1.378-.238 1.791a1.203 1.203 0 01-.32.694 4.813 4.813 0 01-.367.295c-.694-.185-1.16-.296-1.4-.335a3.135 3.135 0 01-.644-.325 2.497 2.497 0 01-.083-.695c-.003-.302.038-.66.123-1.072.105-.517.182-.996.23-1.438.076-.48.131-1.14.164-1.984-.141-.05-.422-.017-.844.102-.393.08-.818.182-1.273.304-.455.122-.844.236-1.167.342-.29.102-.421.134-.392.097-.157.086-.465.174-.925.262-.43.052-.879.09-1.346.112a6.322 6.322 0 01-.967-.085l-.28.185c.007.335-.083.849-.268 1.543-.189.66-.25 1.272-.182 1.834a8.79 8.79 0 01-.043 1.315c-.048.442-.06.897-.038 1.364.055.732-.09 1.203-.434 1.412-.311.206-.838.151-1.581-.162a4.548 4.548 0 01-.538-.288l-.5-.393.334-3.918c.077-.48.141-.923.192-1.332.048-.443.114-.87.198-1.283.178-.76.336-1.535.476-2.324.173-.793.386-1.54.637-2.242l.089-.514c.089-.38.19-.795.304-1.245.109-.484.198-.863.265-1.14.068-.277.078-.329.032-.155.076-.21.179-.61.31-1.196.126-.62.241-1.204.343-1.753.13-.587.194-.896.19-.93.042-.206.126-.35.25-.432a.809.809 0 01.479-.21c.558-.1 1.037-.023 1.437.23.396.222.635.529.715.922-.009.203-.003.387.016.552a.712.712 0 01-.051.41l-1.823 6.614.048.397c.355.16.838.134 1.451-.074.642-.245 1.129-.387 1.46-.427.161-.053.538-.132 1.13-.237a34.188 34.188 0 011.781-.264c.595-.072.912-.093.949-.064.245-1.037.464-2.003.658-2.9.191-.929.495-1.889.913-2.88.025-.07.065-.292.121-.668.088-.38.168-.692.24-.936zm21.136 16.494c-1.034.057-1.668-.051-1.902-.325a1.923 1.923 0 01-.362-.914c.106-.516.23-1.018.373-1.505a5.686 5.686 0 00.317-1.549 31.399 31.399 0 01.359-2.46c.169-.826.349-1.839.541-3.037.225-1.202.466-2.406.724-3.612a71.99 71.99 0 01.696-3.005c.173-.793.31-1.464.412-2.013a74.9 74.9 0 01.411-1.61 33.21 33.21 0 00.43-1.866c.114-.45.213-.881.298-1.294l.241-1.339c.114-.45.213-.882.298-1.295.114-.45.211-.898.291-1.344.273-.805.5-1.571.681-2.298.214-.73.387-1.524.519-2.379.097-.314.054-.527-.127-.64-.148-.116-.248-.39-.3-.82-.081-.393-.015-.686.196-.88.241-.23.566-.319.975-.267.476.043 1.131.048 1.966.015.869-.038 1.65-.098 2.345-.182.724-.12 1.118-.201 1.18-.242.157-.086.691-.251 1.602-.495a126.6 126.6 0 013.31-.952c1.3-.358 2.635-.703 4.005-1.036 1.403-.337 2.643-.637 3.719-.9a2.77 2.77 0 011.043-.126c.372.022.727.047 1.066.073.438.014.896.194 1.374.54.478.345.685.807.62 1.386-.088.38-.346.612-.772.697-.43.052-1.017.055-1.761.01-.067.008-.117.149-.151.421a48.39 48.39 0 01-.135.973 5.565 5.565 0 01-.21 1.184c-.171.256-.349.73-.534 1.424-.152.69-.312 1.448-.482 2.274-.169.826-.296 1.58-.382 2.262-.086.681-.113 1.155-.081 1.42a7.624 7.624 0 00-.706 2.502c-.062.88-.18 1.717-.353 2.51-.017.136-.094.615-.23 1.438-.107.785-.244 1.741-.41 2.87l-.5 3.383c-.17 1.095-.309 2.035-.416 2.82-.107.785-.154 1.227-.142 1.326.046.666.045 1.355-.004 2.066-.015.706 0 1.393.047 2.059.049.128.079.242.091.341.008.066-.05.14-.175.223-.237.263-.669.433-1.298.508-.633.043-1.044-.025-1.233-.204l-.432-.653a1.417 1.417 0 01-.188-.733 26.576 26.576 0 01.013-2.821c.054-.947.095-1.858.124-2.735.062-.88.167-1.682.315-2.405.148-.722.268-1.123.359-1.201l.519-3.638c.245-1.037.383-1.842.414-2.417.028-.608.058-1.199.089-1.773.065-.579.209-1.335.433-2.268.231-.867.396-1.727.495-2.578.128-.888.258-1.76.391-2.615a25.75 25.75 0 01.444-2.169c.156-.656.272-1.224.349-1.704.109-.483.128-.888.055-1.215-.72.154-1.389.318-2.005.493-.584.171-1.201.346-1.851.525-.621.142-1.387.335-2.297.579a38.97 38.97 0 00-2.192.616c-.911.244-1.756.48-2.534.707-.749.191-1.223.299-1.422.323a1.604 1.604 0 00-.572.27c-.153.119-.22.261-.2.427a85.68 85.68 0 00-1.075 3.201 51.022 51.022 0 00-.895 3.029 21.227 21.227 0 00-.458 2.472c-.05.14-.143.487-.278 1.04-.135.554-.293 1.194-.474 1.921a318.578 318.578 0 00-.872 3.63c-.06.343-.083.43-.07.26a103.287 103.287 0 01-.787 3.923c-.19.929-.353 1.67-.488 2.224a41.367 41.367 0 00-.329 1.45c-.085.413-.159.908-.224 1.487-.135.553-.235 1.12-.299 1.698l-.194 1.735c-.014.17-.041.358-.084.564-.009.203-.025.625-.049 1.265a1.5 1.5 0 01-.425.656c-.145.185-.402.283-.77.294zm32.474-4.058c-1.336-.78-2.2-1.397-2.59-1.854-.395-.49-.669-1.094-.823-1.814-.138-.588-.235-1.4-.293-2.433a85.264 85.264 0 01-.016-3.07c.012-1.009.039-1.767.078-2.276.146-.185.186-.408.121-.669l-.054-.447c-.053-.161.012-.605.193-1.332.177-.76.314-1.717.41-2.87.423-2.065.853-3.795 1.289-5.19.466-1.433.939-2.665 1.419-3.697.48-1.031.97-1.98 1.47-2.846 1.19-1.553 2.157-2.727 2.9-3.521a11.182 11.182 0 012.565-2.122 14.075 14.075 0 011.724-1.164c.534-.3.994-.388 1.378-.267 1.901.175 3.382.768 4.444 1.782 1.058.98 1.942 2.604 2.651 4.869.407 1.428.698 2.736.875 3.923a13.81 13.81 0 01.17 3.505c-.097 1.153-.378 2.446-.843 3.878-.433 1.429-1.085 3.119-1.959 5.07-.883 2.423-1.952 4.566-3.205 6.43-1.22 1.858-2.533 3.36-3.94 4.502-1.37 1.172-2.758 1.91-4.165 2.214-1.375.3-2.641.1-3.799-.6zm3.003-1.822a6.52 6.52 0 002.101-.958c.651-.447 1.316-1.064 1.993-1.85a44.28 44.28 0 002.253-3.042 86.357 86.357 0 001.787-2.733c.479-.762.858-1.513 1.139-2.252.313-.742.576-1.63.787-2.663.245-1.036.503-2.377.775-4.021a41.81 41.81 0 00.298-2.554c.052-.678.061-1.3.027-1.867a20.98 20.98 0 00-.245-2.035l-.352-2.929a6.811 6.811 0 00-.557-1.695c-.274-.605-.562-1.04-.862-1.307-.375-.324-.868-.517-1.48-.577-.615-.094-1.267.068-1.955.487-.378.213-.845.655-1.402 1.327a28.38 28.38 0 00-1.747 2.224 43.97 43.97 0 00-1.705 2.572 33.18 33.18 0 00-1.232 2.314c-.293.64-.425 1.075-.397 1.307l-.02.254c.02.166-.026.339-.139.52-.374.515-.755 1.4-1.141 2.656a44.396 44.396 0 00-.95 4.243 56.307 56.307 0 00-.654 4.612c-.122 1.492-.151 2.788-.086 3.888.042.901.082 1.517.122 1.848.04.331.138.588.294.77.152.15.407.455.765.916.238.307.599.515 1.082.625a2.88 2.88 0 001.501-.08zm33.925-1.865c-.55.167-1.005.154-1.364-.037-.355-.16-.674-.44-.957-.842a14.319 14.319 0 00-.9-1.201c.268.001.449-.172.542-.519.121-.384.121-.669-.003-.855a18.44 18.44 0 00.3-1.698c.102-.55.187-1.097.255-1.643a9.609 9.609 0 01.349-1.704c.164-.59.281-1.158.349-1.703.098-.583.198-1.149.3-1.698.102-.55.22-1.101.355-1.655.26-.904.467-1.7.619-2.39.152-.69.345-1.452.581-2.286.268-.838.678-1.895 1.23-3.17l-.193.074c-.373 1.085-.772 1.956-1.196 2.611a17.302 17.302 0 01-1.199 1.756 13.948 13.948 0 00-1.149 1.75l-.612.778c-.266.3-.527.5-.784.598a1.261 1.261 0 00-.28.185l-.175.222a6.254 6.254 0 01-1.095.938c-.378.213-.809.4-1.293.558a3.95 3.95 0 00-.578.221 1.007 1.007 0 01-.54.115l-2.516-.402a5.449 5.449 0 01-2.568-1.252 8.677 8.677 0 01-1.271-1.358 2.808 2.808 0 01-.513-1.751 3.374 3.374 0 00-.07-1 1.75 1.75 0 01.135-.972c-.028-.232.03-.726.174-1.482s.322-1.65.534-2.683c.211-1.032.441-2.05.69-3.054.248-1.004.478-1.887.688-2.651.21-.764.372-1.237.484-1.418-.123-.187-.158-.334-.103-.44a3.17 3.17 0 01.311-.34c.15-.153.184-.291.101-.416-.049-.128-.031-.264.052-.409.2-.292.34-.662.421-1.108.113-.45.246-.886.396-1.307.151-.42.37-.699.655-.834.388.155.795.324 1.22.508.421.15.753.396.995.737.197.244.27.571.219.98a12.497 12.497 0 01-.681 2.298 66.037 66.037 0 00-.779 2.31 17.697 17.697 0 00-.556 2.081c-.152.69-.321 1.382-.506 2.075a41.615 41.615 0 00-.458 2.473 14.737 14.737 0 01-.607 2.49c.118.422.16.904.124 1.446-.04.508-.029 1.01.03 1.507.093.492.343.899.751 1.219.934.223 1.794.12 2.582-.31a8.972 8.972 0 002.166-1.671 83.002 83.002 0 011.695-1.816 8.463 8.463 0 001.548-2.2c.376-.784.82-1.56 1.332-2.326a33.9 33.9 0 00.899-1.317c.312-.474.536-.988.671-1.541.713-1.328 1.249-2.45 1.609-3.367.389-.953.657-1.657.804-2.11.344-.21.644-.649.899-1.317.251-.702.489-1.234.714-1.597a.895.895 0 01.219-.278c.124-.082.232-.163.323-.24.454.146.975.285 1.561.416.587.13.978.453 1.174.967.041.062-.04.223-.244.482-.171.256-.281.454-.331.594a9.221 9.221 0 00-.133.57c-.01.202-.037.39-.084.564a207.7 207.7 0 01-.642 2.192c-.24.801-.628 2.04-1.165 3.716-.05.14-.144.336-.282.588a5.02 5.02 0 00-.226.631c-.14.79-.348 1.57-.625 2.342-.247.735-.474 1.5-.68 2.298a114.37 114.37 0 01-.783 3.116 177.269 177.269 0 01-.79 3.066 16.544 16.544 0 00-.351 2.107 6.738 6.738 0 01-.418 1.964c-.147.454-.29 1.076-.431 1.864a48.62 48.62 0 00-.364 2.411 44.599 44.599 0 00-.214 1.99c-.013.17-.077.48-.19.93-.081.446-.064.729.051.85a2.222 2.222 0 00-.15.42c-.01.203-.029.323-.058.36zm20.978-2.373c-1.323.16-2.525.22-3.604.182-1.042-.009-2.033-.293-2.973-.851-1.117-.638-1.832-1.559-2.145-2.764-.284-1.241-.253-3.075.094-5.5.065-.847.16-1.597.283-2.25.156-.657.317-.995.482-1.015.013-.17.035-.407.065-.713.027-.339.047-.727.062-1.165.093-.616.157-1.06.192-1.333.03-.306.133-.57.307-.792.092-.079.182-.308.27-.688a9.1 9.1 0 01.165-.724l.008-.354a3.71 3.71 0 01.14-.923c.397-.887.58-1.463.548-1.728.05-.14.159-.355.325-.643.2-.293.34-.663.421-1.109a102.194 102.194 0 001.889-4.81c.474-1.366.739-2.372.795-3.016.122-.384.233-.717.334-.997.129-.318.294-.623.494-.916-.086-.157.024-.355.331-.594.307-.238.745-.509 1.313-.812.568-.304 1.189-.58 1.864-.829a12.349 12.349 0 012.099-.555c.183-.156.601-.307 1.255-.453a25.56 25.56 0 012.371-.386 28.965 28.965 0 012.494-.199c.728-.088 1.319-.058 1.773.089l1.362.44c.186.146.325.33.419.554.128.22.22.427.277.622l.079.242c.02.165-.431.32-1.354.465-.923.145-1.93.283-3.022.414a20.39 20.39 0 00-3.489.722c-1.101.334-1.834.523-2.198.566a6.818 6.818 0 01-1.211.398l-.491.11c-.066.007-.249.298-.549.871a61.151 61.151 0 00-.927 1.925c-.318.71-.606 1.382-.865 2.017-.231.599-.34.948-.328 1.047.04.331-.048.711-.265 1.14-.217.429-.476.93-.776 1.503-.28.47-.447.893-.502 1.27-.06.342.067.562.381.659a30.49 30.49 0 012.099-.555 84.65 84.65 0 012.7-.577c.915-.21 1.621-.346 2.117-.405.543-.234 1.002-.322 1.378-.267.376.055.653.123.83.202.405.019.702.117.892.296.185.146.271.303.258.473.02.165-.08.311-.3.438-.174.223-.643.514-1.405.875-.763.36-1.658.736-2.685 1.128-1.027.393-2.073.77-3.137 1.133-1.035.326-1.925.601-2.67.825-.746.224-1.187.327-1.323.31-.254-.44-.401-.405-.441.104-.01.47-.259 1.474-.745 3.01-.265.871-.5 1.705-.707 2.502-.177.76-.315 1.566-.414 2.417-.07.814-.142 1.746-.218 2.796-.124.922-.102 1.658.065 2.208.196.514.853.955 1.972 1.324.678.053 1.561-.003 2.649-.167 1.121-.169 2.371-.52 3.751-1.056a11.224 11.224 0 011.536-1.04 16.76 16.76 0 001.027-.678 4.22 4.22 0 00.732-.19c.353-.142.595-.222.727-.238.221-.396.53-.617.927-.665.066-.008.231.106.495.343.292.2.573.435.84.705.268.27.391.457.37.56.039.33-.285.706-.973 1.124-.688.418-1.82 1.058-3.395 1.92-.784.463-1.428.826-1.934 1.088a6.313 6.313 0 01-1.392.57c-.451.155-1.057.279-1.819.37zm44.059-4.595c-.338-.026-.619-.127-.842-.302-.185-.145-.345-.495-.478-1.05-.197-.514-.37-1.4-.522-2.657a63.033 63.033 0 01-.346-4.138 431.801 431.801 0 00-.148-4.162c.113-.45.126-.905.037-1.364-.089-.46-.174-.752-.257-.876l-.071-.596c.001-.269.06-.477.176-.625l-.119-.993a4.565 4.565 0 01-.02-1.005c.129-.318.201-.696.216-1.134.047-.442.037-.81-.032-1.104.076-.48.144-.89.204-1.233.055-.376.075-.63.059-.763a3.791 3.791 0 01-.133-.689 2.41 2.41 0 00-.189-.732c.11-.484.185-1.114.226-1.89.037-.811.05-1.535.041-2.171l.029-1.011-.468.711a63.12 63.12 0 00-1.137 1.849 58.487 58.487 0 00-1.532 2.753 76.678 76.678 0 01-2.029 4.071 78.575 78.575 0 00-1.633 3.168 21.273 21.273 0 00-1.28 3.175c.003.302-.146.74-.446 1.313-.305.54-.619 1.132-.945 1.776-.243.768-.515 1.304-.814 1.608-.27.268-.614.477-1.032.628-.977.252-1.771-.072-2.383-.972-.612-.9-1.167-2.58-1.664-5.037-.294-.77-.542-1.58-.745-2.429-.17-.852-.304-1.407-.402-1.664a10.87 10.87 0 00-.086-1.55c-.038-.6-.1-1.113-.185-1.54l-.083-.694-.344.494c-.2.293-.41.637-.631 1.033.015.401-.02.808-.105 1.221-.084.413-.168.692-.252.836-.129.318-.304.96-.523 1.927a35.309 35.309 0 01-.752 2.96c-.238 1.372-.448 2.421-.629 3.148-.148.723-.279 1.31-.392 1.76-.118.417-.25.852-.397 1.306-.147.455-.323 1.08-.53 1.877a26.304 26.304 0 00-.587 2.236c-.14.79-.281 1.293-.422 1.512l-.377 1.052a10.894 10.894 0 00-.473 1.517c-.351.983-.683 1.577-.994 1.782-.311.205-.829.083-1.555-.367-.664-.222-1.012-.6-1.043-1.134-.026-.5.188-1.23.643-2.192.181-.727.495-1.604.943-2.631a43.181 43.181 0 001.047-2.594c-.049-.128.064-.73.337-1.803.274-1.074.577-2.32.911-3.736.374-1.354.706-2.636.997-3.846.32-1.248.581-2.286.784-3.116.198-.864.308-1.347.329-1.45a.89.89 0 01.051-.41c.051-.14.124-.367.221-.68.038-.24.118-.552.24-.936.117-.417.199-.712.246-.885.137-.252.242-.5.313-.743.101-.28.11-.483.028-.608-.045-.095-.02-.165.075-.21l.193-.074c.132-.016.19-.09.174-.222a.661.661 0 01.102-.415c.014-.439.076-.9.186-1.383.106-.516.223-.799.351-.848.128-.049.187-.123.175-.222-.016-.132.028-.322.133-.57a2.128 2.128 0 01-.078-.645c.042-.207.059-.343.051-.41.138-.25.265-.45.382-.6.116-.148.216-.294.299-.438l.127-.62a4.39 4.39 0 01.371-1.102 8.07 8.07 0 01.171-.675l.313-.743c.105-.248.182-.441.232-.582.18-.458.504-.698.971-.72.468-.024 1.053.242 1.758.795.326.196.554.42.685.673.16.216.184.414.072.595l-.143.068c-.066.008-.089.095-.07.26l.116.54c.073.327.069.714-.012 1.16a71.33 71.33 0 00-.347 2.56 104.49 104.49 0 01-.189 2.188c-.032.575-.04.928-.024 1.06.016.133.015.267-.002.404-.017.136-.108.214-.274.234l-.075.21a.54.54 0 00-.064.31c.198.245.297.653.299 1.224-.003.537-.02 1.093-.052 1.668.058 1.033.176 2.16.357 3.381.18 1.22.374 2.272.581 3.153.24.878.448 1.356.626 1.436.132-.016.356-.245.673-.685.312-.474.646-1.186 1.002-2.135a46.73 46.73 0 001.077-2.346c.268-.57.512-1.052.733-1.448.217-.429.463-.895.738-1.398.304-.54.721-1.262 1.25-2.165a20.44 20.44 0 011.308-2.524c.483-.73.799-1.17.949-1.323.257-.098.421-.269.492-.512l.151-.421c-.123-.187-.08-.528.129-1.023.209-.495.52-1.12.933-1.875.441-.792.907-1.67 1.395-2.635.475-.796.893-1.367 1.254-1.713.395-.35.796-.498 1.205-.447.406.019.864.199 1.375.54.396.221.715.502.957.842.239.307.374.593.405.857.065.261.003.437-.188.527-.128.049-.191.09-.187.123.033-.004.124.052.272.169l-.051.409c-.001.268-.005.655-.012 1.16-.1.28-.152.823-.156 1.63-.008.773-.054 1.5-.14 2.182a20.29 20.29 0 00-.139 1.78 26.452 26.452 0 01-.087 1.37c-.042.206-.081.58-.117 1.122-.039.508-.064.998-.075 1.47a211.97 211.97 0 00-.037 2.622c.025 1.038.034 2.095.029 3.17a618.683 618.683 0 00-.007 2.87c-.004.807-.025 1.33-.063 1.57l.048 1.656c.055.732.115 1.514.182 2.345.099.827.211 1.62.336 2.377.158.753.312 1.339.463 1.757.117.691.204 1.134.261 1.328.057.195.062.379.016.552-.258.367-.516.6-.773.698-.223.094-.597.055-1.122-.117zm15.711-1.991c-.45-.114-.904-.26-1.362-.44-.421-.151-.746-.481-.975-.991.005-.236.106-.516.301-.842.229-.33.437-.556.624-.68.368-.01.674-.114.919-.311.241-.23.465-.46.673-.686.15-.152.42-.42.81-.802.419-.42.822-.838 1.209-1.254.386-.415.59-.675.611-.778.047-.174.254-.4.624-.68.365-.312.62-.561.766-.746.233-.297.433-.59.599-.878.196-.326.394-.635.594-.928-.248-.104-.547-.22-.898-.345a2.448 2.448 0 01-.761-.462 4.6 4.6 0 01-1.374-1.8 62.37 62.37 0 01-.833-2.316c-.232-.812-.551-1.512-.958-2.1a3.058 3.058 0 01-.361-.914 1.761 1.761 0 00-.418-.957 10.737 10.737 0 00-.538-1.547 26.885 26.885 0 00-.656-1.684c-.204-.58-.402-1.11-.594-1.59-.43-1.056-.744-1.992-.942-2.808a85.049 85.049 0 00-.75-2.88 10.37 10.37 0 00-.268-.976 1.538 1.538 0 01-.014-.955 1.843 1.843 0 01-.263-.925 5.026 5.026 0 00-.119-.993 17783.132 17783.132 0 01-.185-1.539l-.096-.794c-.048-.397.057-.645.314-.743.289-.102.626-.092 1.01.03.413.084.799.222 1.158.414.388.155.658.307.81.457l.457.448c-.109.484-.111 1.172-.003 2.066.103.86.259 1.731.465 2.613l.505 2.104c.049.129.084.276.104.441.053.162.073.327.059.497a.542.542 0 01-.075.21.83.83 0 00.074.193c.205.31.327.632.367.963.069.294.159.619.269.975.306.87.645 1.735 1.017 2.597.368.828.739 1.674 1.111 2.535.368.829.705 1.678 1.011 2.548.25.675.501 1.366.754 2.075.253.708.535 1.379.846 2.013.09.19.197.379.32.566.152.15.321.297.507.442.256-.098.389-.248.399-.45.038-.24.111-.467.22-.682.288-.672.614-1.316.976-1.93.396-.619.721-1.262.977-1.93l.777-1.907c.293-.64.567-1.294.822-1.962a60.212 60.212 0 001.756-5.5c.563-2.015 1.06-4.022 1.491-6.02.46-2.037.854-3.93 1.18-5.682l.907-.412c.306.03.657.156 1.053.377.396.221.73.483 1.001.786.271.303.361.628.268.975-.088.38-.236.969-.442 1.766l-.551 2.534a97.73 97.73 0 00-.508 2.478c-.148.723-.223 1.219-.224 1.488a7.75 7.75 0 00-.791 2.21c-.14.789-.303 1.53-.488 2.224a26.517 26.517 0 01-1.201 3.418c-.393.92-.783 1.857-1.172 2.81a112.31 112.31 0 01-1.217 2.866 32.83 32.83 0 01-1.389 2.685l-.576 1.077a16.98 16.98 0 00-.525 1.07 6.143 6.143 0 01-.931 1.472 4.62 4.62 0 00-.87 1.565.761.761 0 01-.125.216l-.174.223c-.843.806-1.684 1.63-2.523 2.469-.84.84-1.66 1.694-2.462 2.562-.536.568-.984.89-1.344.968-.323.106-.576.237-.759.393zm-393.631 87.895a15.4 15.4 0 00-.793-.307l-.742-.314a7.686 7.686 0 01-.594-.331c-.771-.545-1.316-1.168-1.635-1.868a6.31 6.31 0 01-.461-2.161c-.018-.703.01-1.31.082-1.823.069-.545.092-.917.068-1.116a1.174 1.174 0 01.059-.762l.302-.842c.456-1.23.883-2.289 1.279-3.176.426-.924 1.068-2.008 1.926-3.253.178-.189.342-.36.492-.512.179-.19.363-.33.554-.42l1.243.707a.897.897 0 01.308.466c.053.162.048.398-.016.707-.038.24-.093.482-.164.725-.042.207-.12.401-.232.582a6.389 6.389 0 00-1.126 1.949c-.255.668-.525 1.355-.809 2.061a.945.945 0 01-.258.786c-.212.194-.314.458-.308.793.028.231.023.467-.015.707-.039.239-.075.496-.109.768-.168.558-.206 1.083-.113 1.575.093.492.171 1.003.235 1.533.28.1.522.155.725.165.198-.024.443-.222.734-.592.594-.643.998-1.195 1.211-1.657.246-.466.426-.924.54-1.374.113-.45.285-.975.515-1.573.264-.603.459-1.348.588-2.236.128-.889.196-1.719.203-2.492.004-.807-.06-1.336-.191-1.589-.053-.161-.06-.362-.022-.602.039-.239-.089-.459-.381-.659.116-.148.153-.404.109-.768a7.019 7.019 0 00-.237-1.13c-.114-.389-.247-.659-.399-.808a248.662 248.662 0 01-.549-3.308 47.81 47.81 0 01-.237-2.389 27.55 27.55 0 01.015-1.966c.021-.103.18-.458.476-1.065.326-.643.634-1.15.925-1.521.503-.564 1.218-1.036 2.146-1.416.957-.418 1.787-.635 2.49-.652-.029.037.172.029.602-.022.463-.056.974-.134 1.533-.235.558-.101.968-.184 1.229-.249l.77-.294c.257-.098.678-.367 1.263-.807.245-.197.454-.272.627-.226l1.478.98c.079.931-.07 1.654-.444 2.169-.378.482-1.172.863-2.381 1.143l-.645.077a1.669 1.669 0 00-.689.133.782.782 0 01-.546.066c-.14-.05-.343-.059-.608-.028-.364.044-.738.14-1.124.287a3.176 3.176 0 01-1.247.099c-1.151.475-2.024 1.033-2.618 1.675-.594.642-.814 1.609-.659 2.9.28 1.208.577 2.28.891 3.216.347.932.59 1.977.73 3.136.102.289.214.528.337.714.124.187.1.408-.071.664a10.6 10.6 0 01.517 2.204c.084.695.048 1.236-.107 1.624-.038.24-.036.676.007 1.309.071.595-.018 1.244-.27 1.946a40.176 40.176 0 01-1.831 4.45 11.075 11.075 0 01-2.664 3.393c-.216.16-.485.293-.808.399-.29.102-.659.247-1.106.435zm15.26-2.339c-.43.052-.787.011-1.072-.123a18.793 18.793 0 01-.977-.587c-.708-.587-1.231-1.162-1.567-1.726-.341-.597-.495-1.182-.464-1.757.068-.277.071-.529.01-.756l-.048-.398c-.185-.145-.247-.238-.184-.279.058-.075.112-.182.162-.322.199-.024.243-.214.133-.57-.098-.257-.035-.852.188-1.785.224-.934.536-1.827.937-2.681.159-.355.405-.821.738-1.399.33-.61.694-1.208 1.094-1.793.428-.622.822-1.123 1.179-1.502.744-.794 1.41-1.395 1.999-1.801a8.345 8.345 0 011.946-.99c.708-.253 1.194-.395 1.459-.427.298-.036.727.181 1.287.651.801.239 1.395.571 1.782.994.419.42.733 1.07.939 1.952.219.981.274 2.132.164 3.455-.08 1.285-.669 2.951-1.766 4.997-.684 1.291-1.337 2.276-1.961 2.955a20.277 20.277 0 01-2.279 1.986c-.639.547-1.226.971-1.761 1.27-.538.266-1.184.478-1.938.636zm4.133-5.835c.687-.99 1.214-1.909 1.582-2.759.401-.854.743-1.919 1.026-3.196.088-.38.117-.836.087-1.37a7.812 7.812 0 00-.235-1.533c-.093-.492-.243-.76-.449-.802-.425-.184-.913-.192-1.464-.025-.554.134-1.129.522-1.723 1.164-.922.984-1.687 2.167-2.293 3.549-.609 1.349-1.181 2.879-1.714 4.588-.353 1.251-.353 2.225-.001 2.921.381.659 1.024.834 1.926.524.932-.348 2.018-1.368 3.258-3.061zm8.056 4.167a2.003 2.003 0 00-.775-.158 34.929 34.929 0 00-.756-.01 5.536 5.536 0 01-.679-.624 3.521 3.521 0 01-.406-.857.781.781 0 01.034-.558 5.16 5.16 0 01.244-.483c.099-.012.217-.009.353.008l.397-.048c.511-.498.952-1.021 1.323-1.569.399-.585.78-1.185 1.143-1.799.387-.685.726-1.363 1.014-2.036.284-.706.499-1.437.643-2.193.063-.309.093-.615.091-.917-.007-.335.04-.643.14-.923.151-.421.252-.836.304-1.246.08-.446.163-.875.248-1.288-.509-.04-.897-.06-1.166-.062a1.765 1.765 0 01-.687-.269c-.219-.142-.53-.356-.934-.644-.088-.459-.079-.796.03-1.01.104-.248.397-.468.877-.66.191-.09.384-.163.578-.22a1.84 1.84 0 01.584-.171c.36-.077.722-.138 1.086-.181a13.92 13.92 0 011.148-.088c.269.001.539.019.812.053l.818.103c.31.064.624.16.942.29.313.096.625.176.935.24.236.005.461.062.675.17.215.109.448.232.699.37.64.292 1.159.7 1.557 1.222a3.33 3.33 0 01.712 1.728 9.108 9.108 0 01-.101 2.933 39.825 39.825 0 01-.319 1.952c-.09.649-.196 1.299-.319 1.952-.08.446-.163.876-.248 1.289a7.608 7.608 0 00-.148 1.277c-.023.372-.026.758-.012 1.159.015.401.015.821.001 1.259l-.386.147a8.163 8.163 0 00-.379.197c-.38-.089-.776-.175-1.189-.26-.417-.117-.741-.431-.97-.941l-.024-.198c.022-.104.024-.221.008-.354l-.036-.298-.035-.297c-.006-.604.024-1.195.088-1.774.061-.611.157-1.21.288-1.797.185-.694.322-1.365.412-2.014.086-.681.174-1.347.264-1.995.063-.31.094-.616.091-.918.026-.339.038-.659.035-.961-.01-.368-.143-.772-.397-1.211a3.691 3.691 0 00-1.114-.47 4.572 4.572 0 00-1.234-.205c-.038.24-.124.502-.258.787a.7.7 0 00-.013.304c.012.099-.014.169-.076.21a.956.956 0 00-.331.594c-.009.203-.017.422-.022.657-.013.17-.043.341-.089.515a3.402 3.402 0 01-.189.526c-.116.148-.177.34-.182.576a35.06 35.06 0 00-.022.657 7.039 7.039 0 01-.174 1.482 17.61 17.61 0 01-.46 1.616 5.495 5.495 0 00-.357.799c-.105.247-.207.511-.308.792a1.113 1.113 0 01-.151.421 1.176 1.176 0 00-.2.427c-.126.351-.266.72-.421 1.108a4.633 4.633 0 01-.587.977 50.76 50.76 0 00-1.13 1.496 6.64 6.64 0 01-1.29 1.414zm19.62-2.209a7.114 7.114 0 00-1.408.018 4.358 4.358 0 01-1.159-.011c-.347-.093-.673-.289-.977-.588a2.922 2.922 0 01-.938-1.096 5.17 5.17 0 01-.445-1.608c-.132-1.092-.097-2.339.104-3.739.23-1.438.528-2.867.894-4.288.366-1.42.73-2.723 1.091-3.908s.62-2.106.776-2.763c-.11-.356-.018-.568.275-.637a3.213 3.213 0 011.105-.032c.405.018.677.053.818.103.226.208.455.432.685.673.226.208.374.458.443.752.106.323.063.664-.129 1.023-.158.355-.323.66-.494.916-.287.403-.569.991-.845 1.763a27.75 27.75 0 00-.788 2.663 40.669 40.669 0 00-.553 2.937 39.1 39.1 0 00-.323 2.759c-.037.81-.009 1.461.084 1.954a6.187 6.187 0 002.81-.087 6.23 6.23 0 002.375-1.192c.701-.588 1.212-1.22 1.534-1.897.376-.783.445-1.463.208-2.039-.208-.613-.796-.895-1.764-.845-.5.026-.961.099-1.384.216-.422.118-.861.238-1.316.36a3.47 3.47 0 01-.58-.635 2.124 2.124 0 01-.27-.572c-.085-.426.038-.793.371-1.102a3.895 3.895 0 011.262-.807c.514-.196.973-.285 1.378-.266.674.02 1.362.155 2.064.406.734.248 1.345.577 1.831.989.296.233.549.521.759.865.238.307.396.641.472 1.001.232.811.305 1.558.22 2.24a5.03 5.03 0 01-.635 1.839c-.526.936-1.4 1.763-2.623 2.481-1.19.714-2.303 1.368-3.339 1.963-.331.04-.598.055-.8.046-.174-.047-.437.002-.789.145zm13.263-2.2a13.644 13.644 0 00-1.311-.85 4.362 4.362 0 01-.969-.941c-.25-.406-.471-.984-.662-1.733a7.093 7.093 0 01-.103-1.7 8.202 8.202 0 01.261-1.592c.21-.764.439-1.514.687-2.248.247-.735.492-1.487.736-2.254.306-1.078.662-2.027 1.067-2.848.401-.854.833-1.309 1.296-1.365.567-.035.988.116 1.264.452.304.3.705.704 1.203 1.215a3.954 3.954 0 01-.228 1.035 4.869 4.869 0 01-.494.916 6.655 6.655 0 00-.919 1.571 7.929 7.929 0 00-.498 1.721l-.516 1.573c-.176.491-.333.997-.472 1.517-.464 1.164-.6 1.852-.406 2.064.193.212.564.083 1.112-.386.581-.473 1.173-1.131 1.776-1.976.52-.701.926-1.236 1.217-1.607.291-.371.562-.773.812-1.206.087-.111.283-.437.587-.977.334-.577.665-1.171.995-1.781a21.37 21.37 0 01.794-1.355c.225-.363.416-.721.575-1.076a7.93 7.93 0 00.365-1.152c.027-.339.133-.57.32-.693.215-.16.493-.227.832-.201a9.21 9.21 0 011.076.576c.359.191.688.555.987 1.089.206.311.201.832-.013 1.563-.181.727-.412 1.46-.692 2.199a9.453 9.453 0 00-.474 1.92 55.901 55.901 0 01-.214 1.99c-.044.475.119.993.489 1.553.63-.345 1.09-.702 1.381-1.073.321-.408.606-.828.856-1.261.283-.437.669-.853 1.159-1.248.118-.417.328-.761.631-1.033.333-.308.539-.685.62-1.132l1.661-2.516c.229-.33.417-.722.563-1.176.176-.491.362-.899.558-1.225.225-.363.492-.513.802-.449 1.07.24 1.832.854 2.286 1.84.052.43-.044 1.164-.289 2.2a18.62 18.62 0 00-.398 2.969c-.032.575-.028 1.162.01 1.761.068.563.22 1.132.458 1.708.288.167.625.177 1.01.029.415-.184.787-.296 1.118-.335.305.299.47.698.497 1.199.027.5.021.87-.018 1.11-.278.201-.557.386-.839.554a2.447 2.447 0 01-.981.219c-.509-.04-.87-.114-1.085-.222a2.584 2.584 0 01-.605-.431c-.161-.216-.422-.436-.785-.661-.585-.4-1.021-.952-1.307-1.656a16.541 16.541 0 01-.616-2.192c-.137-.017-.336.141-.598.475a14.87 14.87 0 00-.899 1.317c-.341.511-.726 1.078-1.155 1.7-.4.585-.851 1.16-1.354 1.724a4.709 4.709 0 01-1.096.938c-.41.217-.938.297-1.582.24a3.537 3.537 0 01-1.156-.817 3.34 3.34 0 00-1.119-.923 15.42 15.42 0 00-.516-.946 10.99 10.99 0 01-.368-.963 8.382 8.382 0 01-.256-.875 1.389 1.389 0 01.091-.918c-.207-.042-.406.116-.598.475-.196.326-.417.722-.663 1.188-.25.433-.57.841-.96 1.223-.478.494-.877.945-1.197 1.353l-.961 1.224c-.32.407-.717.875-1.191 1.402l-1.589.191zm41.193-4.15c-1.14-.266-2.074-.909-2.801-1.929-.731-1.054-1.243-2.1-1.536-3.139-.033.004-.124.082-.274.234-.12.115-.266.301-.436.556l-1.529 1.947a18.503 18.503 0 01-1.969 2.05c-.668.584-1.337.882-2.007.896a34.871 34.871 0 01-.91-.445l-.878-.599a3.871 3.871 0 01-.395-.355 6.234 6.234 0 01-.252-.423c-.484-.949-.788-1.803-.913-2.56a7.969 7.969 0 01-.032-2.363c.136-.822.295-1.731.478-2.726.021-.104.087-.531.198-1.283.144-.756.309-1.615.496-2.578.186-.962.368-1.824.545-2.583.21-.764.374-1.22.49-1.369l.298-.036c.128-.049.242-.079.341-.091.331-.04.593.046.787.258.156.182.339.311.55.387.244.071.425.184.544.337.205.311.175 1.037-.091 2.177a133.99 133.99 0 00-.854 3.779 36.924 36.924 0 00-.644 3.854c-.151 1.261-.044 2.289.32 3.084.232-.028.522-.264.872-.709.378-.482.673-.82.885-1.013.307-.238.692-.671 1.153-1.297a81.22 81.22 0 001.424-1.984c.453-.693.76-1.216.918-1.571.109-.215.264-.603.465-1.164.197-.594.39-1.222.579-1.883.218-.697.376-1.338.474-1.92.131-.587.166-.994.105-1.221-.073-.327-.07-.579.01-.757.108-.214.285-.42.53-.618l.546-.065c.198-.024.382-.03.552-.016.226.207.467.397.723.567.255.171.513.358.772.562.242.609.244 1.465.007 2.568a85.885 85.885 0 00-.68 3.556 18.123 18.123 0 00-.247 3.807c.048 1.237.508 2.272 1.381 3.107.659-.381 1.155-.726 1.487-1.035a33.56 33.56 0 001.034-1.031 8.56 8.56 0 011.271-1.16c.355.159.651.526.888 1.102.237.576.377 1.046.421 1.41l-.361.346a.753.753 0 00-.212.327c-.147.454-.493.932-1.037 1.434a8.878 8.878 0 01-1.761 1.27c-.634.311-1.209.414-1.725.308zm20.276-2.389a3.952 3.952 0 00-.613-.077l-.62-.127a2.625 2.625 0 00-.613-.077c-.387-.424-.587-.971-.601-1.64-.017-.703.046-1.433.19-2.189.178-.76.34-1.501.488-2.224.181-.727.259-1.34.232-1.841-.049-.128-.103-.155-.161-.081-.062.041-.089.095-.081.161-.2.292-.509.514-.927.665-.419.151-.806.282-1.162.392-.617.175-1.232.366-1.844.574-.613.208-1.208.431-1.783.668a7.454 7.454 0 01-.378-.206 1.899 1.899 0 00-.328-.213c-.231.028-.404.267-.518.717-.113.45-.199.998-.255 1.642-.061.612-.124 1.207-.188 1.786-.036.541-.089.934-.161 1.177-.521.13-.9.193-1.136.187-.202-.009-.595-.062-1.177-.16-.309-.332-.5-.662-.572-.989a4.579 4.579 0 01.017-1.11c.074-.781.133-1.409.176-1.884.077-.48.22-1.101.431-1.865.121-.384.228-.75.321-1.096a2.86 2.86 0 00.105-1.222 2.84 2.84 0 00.414-1.158c.052-.409.12-.82.205-1.233.366-1.42.654-2.513.864-3.277.24-.801.4-1.424.48-1.87.081-.446.116-.853.105-1.222-.022-.467.231-.732.761-.796.331-.04.694.051 1.09.272.392.188.709.452.951.792.243.34.305.718.187 1.136-.067.276-.181.726-.341 1.35a84.858 84.858 0 01-.468 1.97c-.152.69-.308 1.346-.468 1.97a12.08 12.08 0 01-.347 1.301.734.734 0 01-.157.371c-.091.078-.127.2-.107.366.252.137.64.158 1.166.061.554-.134.94-.281 1.155-.441a6518.509 6518.509 0 002.929-.353c.532.238.967.639 1.303 1.203.156-.657.371-1.522.645-2.595.27-1.107.525-2.195.765-3.265.241-1.07.362-1.874.365-2.411.03-.306.131-.587.302-.842.17-.256.363-.464.579-.624.491.176.962.321 1.412.435.479.076.823.421 1.031 1.034.003.302-.027.608-.091.917l-.202.83c-.216 1-.502 2.109-.859 3.327a54.798 54.798 0 00-.972 3.642 20.062 20.062 0 00-.45 3.378c.012.099-.031.44-.129 1.023a23.402 23.402 0 01-.249 1.692c-.069.545-.118.836-.147.873.028.232-.012.455-.121.67-.112.181-.26.35-.443.506zm14.871-2.544c-.406.25-.892.392-1.459.427-.567.035-1.35-.056-2.349-.271-.066.008-.223-.041-.471-.145a7.02 7.02 0 01-.705-.419 3.686 3.686 0 01-.586-.685c-.621-.697-.972-1.797-1.051-3.298-.08-1.501.168-3.344.745-5.528.172-.525.443-1.195.815-2.012.405-.821.801-1.574 1.189-2.258.417-.722.718-1.144.905-1.268l.522-.264c.348-.176.786-.447 1.313-.812.157-.086.331-.175.522-.265.223-.094.449-.171.677-.232a1.8 1.8 0 01.595-.072c.666-.046 1.375.12 2.125.5.78.343 1.438.784 1.973 1.324.531.507.739.985.626 1.435.008.067-.076.211-.25.433-.146.186-.323.392-.53.618a3.492 3.492 0 00-.437.556c-.142.219-.363.329-.665.332-.269-.001-.533-.104-.793-.308-.23-.24-.386-.557-.467-.951-.098-.256-.376-.475-.834-.655l-.637-.275c-.265.031-.616.325-1.053.882a12.755 12.755 0 00-1.187 1.855 8.666 8.666 0 00-1.282 2.319c-.334.846-.59 1.649-.767 2.409l-.318 1.549c-.092.347-.053.812.118 1.396.171.584.331.934.479 1.051.14.05.473.027.999-.07a28.966 28.966 0 001.961-.438 44.934 44.934 0 002.181-.715c.708-.253 1.282-.507 1.721-.761.581-.473 1.099-.77 1.555-.892.455-.122.802-.164 1.042-.126.38.089.617.245.711.469.094.223.043.498-.153.824-.199.292-.563.621-1.089.987a8.867 8.867 0 00-1.333 1.067c-.361.345-.532.601-.512.766-.132.016-.275.084-.429.203-.124.082-.238.113-.341.092-.066.008-.325.089-.776.244-.452.155-.918.329-1.398.521-.448.188-.748.341-.902.461zm12.822-2.701a4.217 4.217 0 01-1.1-.774c-.346-.362-.555-.84-.626-1.436-.04-.331-.042-.901-.005-1.711.037-.811.112-1.726.224-2.747s.232-1.975.36-2.863c.26-.636.469-1.265.629-1.889.16-.624.232-1.002.216-1.134.019-.405.046-.878.081-1.42.069-.545.144-1.041.224-1.487.081-.446.15-.707.209-.78.145-.186.332-.31.559-.37a.878.878 0 01.707.016c.277.067.501.258.674.573.411.353.651.811.719 1.374.064.53-.023 1.346-.259 2.449a24.833 24.833 0 00-.613 2.44 97.83 97.83 0 00-.496 2.578c-.111.752-.167 1.262-.168 1.531l-.957.417c.499-.597.962-1.207 1.391-1.829.425-.655.733-1.163.925-1.521.471-.829.875-1.516 1.213-2.06a46.04 46.04 0 011.411-2.083c.57-.841 1.16-1.382 1.769-1.623.638-.278 1.139-.44 1.503-.483.744.044 1.369.355 1.875.932.535.54.94 1.398 1.216 2.574.055.463.072 1.015.048 1.656l.014.955.669-1.138c.479-.763 1.132-1.614 1.959-2.552.573-.539 1.154-.878 1.741-1.016.584-.171 1.137-.036 1.661.405.916.36 1.564 1.004 1.944 1.931.376.895.586 2.079.629 3.551.004.872.065 1.52.183 1.942.114.389.261.774.441 1.155.281.101.364.376.251.826-.118.417-.293.64-.524.668-.331.04-.72.019-1.166-.061a3.11 3.11 0 01-1.17-.514c-.338-.295-.54-.724-.608-1.287l-.37-3.078c-.088-.728-.192-1.32-.314-1.775-.089-.459-.206-.731-.35-.814-.388-.155-.892.124-1.511.836-.619.713-1.263 1.646-1.929 2.801a44.392 44.392 0 00-1.84 3.545c-.505 1.102-.831 1.745-.977 1.931-.116.148-.37.128-.762-.06-.756-.144-1.257-.403-1.504-.776-.217-.41-.291-.888-.222-1.433.097-.583.204-1.368.321-2.356.149-.991.286-1.948.41-2.869.12-.955.189-1.635.208-2.04-.165-.248-.406-.303-.725-.164-.29.102-.587.289-.89.56-.365.313-.785.867-1.26 1.662-.475.796-.953 1.71-1.433 2.741a60.192 60.192 0 01-1.014 2.036 51.457 51.457 0 01-1 1.732c-.309.507-.581.892-.818 1.156-.376.784-.642 1.219-.8 1.305-.158.086-.482.041-.973-.135zm24.37-8.32c-.031-.534-.011-1.208.059-2.022.07-.814.127-1.593.172-2.337.078-.748.066-1.267-.036-1.557a2.847 2.847 0 00-.501-.393l-.544-.338c.023-.372.049-.71.079-1.016.064-.31.282-.588.655-.835l.366.108.286-.135c.091-.079.168-.138.23-.18.259-.635.479-1.316.661-2.043.177-.76.327-1.466.45-2.119.098-.582.268-1.258.511-2.025.244-.768.503-1.404.778-1.907a7.18 7.18 0 00.407-.804l.302-.842c.226-.632.562-1.327 1.008-2.086.442-.791.939-1.54 1.492-2.244.583-.742 1.135-1.312 1.658-1.71.519-.432.975-.688 1.368-.77.389-.113.896-.224 1.521-.333.355.159.792.442 1.311.85.552.403.852.803.9 1.2l.131 1.093c.044.364.001.704-.129 1.022.061.228.075.478.04.75-.038.24-.091.499-.158.775a3.566 3.566 0 01-.095.465l-.04.508a46.876 46.876 0 01-1.343 3.486 13.52 13.52 0 01-1.364 2.48 23.785 23.785 0 01-1.796 2.231c-.682.753-1.515 1.643-2.5 2.668a3.73 3.73 0 011.591.664c.474.313.768.798.88 1.456.02.165.026.349.016.552.024.198.065.395.122.589.118.423.201.832.248 1.23.077.36.156.736.237 1.129.114.39.172.869.173 1.44.002.571-.007 1.058-.025 1.463-.017.137-.057.226-.119.267-.033.004-.04.088-.02.254.064.529.004 1.007-.18 1.432-.184.425-.379.901-.584 1.429a1.684 1.684 0 01-.343.495c-.154.119-.287.27-.399.451-.483.729-1.016 1.18-1.6 1.351-.551.167-1.195.395-1.932.685l-.088.112c-.362-.225-.63-.361-.804-.407-.14-.051-.4-.12-.78-.209-.155-.451-.443-.886-.863-1.306-.386-.423-.643-.879-.768-1.368a4.656 4.656 0 01-.128-.639.804.804 0 00-.276-.622c.212-.193.221-.396.028-.607-.194-.212-.203-.429-.028-.652l-.024-.198a.387.387 0 00.032-.155 1.489 1.489 0 01-.136-.286 2.562 2.562 0 01-.109-.49zm4.672 3.668c.702-.857 1.138-1.698 1.307-2.524.166-.86.197-1.72.093-2.58a75.08 75.08 0 00-.291-2.836 1.339 1.339 0 00-.159-.484.684.684 0 01-.004-.453c-.176-.348-.356-.73-.54-1.143a2.535 2.535 0 00-.888-1.102 2.487 2.487 0 00-.592.524c-.145.185-.327.493-.544.922-.125.351-.217.983-.275 1.896-.025.91-.005 1.914.06 3.015a22.57 22.57 0 00.359 2.978c.21.915.487 1.536.828 1.864l.646-.077zm3.33-24.221a21.713 21.713 0 00-2.476 4.528 25.492 25.492 0 00-1.468 4.96l.582.233 2.237-2.334c.091-.078.264-.317.518-.717.254-.4.489-.814.706-1.243.246-.467.38-.751.401-.854.27-.268.516-.734.739-1.399.255-.668.469-1.399.642-2.192a17.6 17.6 0 00.327-2.306c.078-.748.062-1.3-.048-1.656l-.33.191c-.279.47-.574.942-.887 1.416-.316.441-.63.898-.943 1.373zm10.869 25.836c-.427.085-.778.094-1.055.027a18.589 18.589 0 01-1.058-.427c-.796-.475-1.41-.972-1.842-1.491-.402-.556-.621-1.117-.655-1.684.03-.305-.002-.57-.096-.794l-.091-.341c-.219-.142-.297-.233-.235-.274a.636.636 0 00.113-.316c.257-.098.268-.284.034-.558-.131-.253-.153-.855-.066-1.805.116-.988.306-1.917.571-2.788.122-.384.295-.892.522-1.523.259-.636.551-1.275.877-1.919.321-.677.626-1.217.913-1.62.628-.916 1.2-1.605 1.715-2.07a8.16 8.16 0 011.86-1.282c.63-.344 1.092-.55 1.386-.62.294-.069.731.08 1.313.447.822.136 1.457.395 1.906.778.478.345.885.934 1.22 1.767.38.927.6 2.06.66 3.395.089 1.299-.272 3.038-1.084 5.217-.474 1.366-.985 2.418-1.534 3.156a22.613 22.613 0 01-1.934 2.347c-.565.606-1.094 1.089-1.588 1.451-.494.361-1.111.67-1.852.927zm3.26-6.385c.543-1.072.946-2.044 1.211-2.915.293-.908.478-2.022.555-3.34.022-.372-.015-.821-.112-1.347a7.198 7.198 0 00-.433-1.509c-.155-.451-.334-.681-.537-.69-.45-.114-.93-.057-1.439.173-.514.196-1.045.663-1.594 1.4-.483.73-.907 1.536-1.271 2.419-.33.88-.618 1.837-.862 2.874a51.5 51.5 0 00-.661 3.302c-.179 1.298-.047 2.255.396 2.873.477.615 1.142.702 1.996.264.85-.472 1.767-1.639 2.751-3.504zm36.427 5.69c-.591-.164-.955-.405-1.094-.724-.14-.319-.146-.789-.019-1.408.127-.62.263-1.442.409-2.467.063-.309.121-.803.174-1.481.049-.711.108-1.474.178-2.288l.283-2.25c.086-.681.181-1.146.286-1.394l1.713-7.105 2.485-11.58c.046-1.013.218-1.957.515-2.832.298-.875.382-1.573.252-2.095-.032-.265.124-.502.468-.71.345-.21.75-.326 1.218-.349.467-.022.836.118 1.108.42.259.205.457.45.592.735.135.286.154.72.056 1.303l-1.31 4.186-.521 2.783a40.559 40.559 0 00-.553 2.937 30.562 30.562 0 01-.609 2.893 34.155 34.155 0 00-.896 3.432c-.279 1.31-.651 2.965-1.115 4.968-.189.661-.361 1.605-.515 2.832a137.288 137.288 0 00-.414 3.676c-.126 1.19-.264 2.13-.416 2.82.084.426.047.817-.111 1.172a2.976 2.976 0 00-.099 1.27c.057.195-.017.422-.22.682a1.631 1.631 0 01-.791.548c-.319.139-.67.148-1.054.026zm-6.879-13.223c-1.514.25-2.863.06-4.047-.57-1.15-.634-1.876-1.504-2.177-2.61-.15-.686-.214-1.501-.193-2.444.05-.98.12-1.928.211-2.845.12-.955.217-1.688.29-2.2.013-.17.083-.565.21-1.184.123-.653.254-1.374.394-2.163l.444-2.168c.16-.624.251-.987.272-1.09.779-2.176 1.283-3.848 1.512-5.017a108.9 108.9 0 00.547-2.987c.001-.269.167-.423.498-.463.464-.055.945.038 1.444.28.499.242.89.564 1.174.967.312.365.373.727.181 1.086a33.703 33.703 0 00-.673 1.944l-.742 2.204a23.96 23.96 0 01-.629 1.89l-1.186 4.372c-.156.657-.292 1.479-.408 2.466-.083.984-.238 1.792-.464 2.423-.001.269-.073.647-.216 1.134-.11.483-.201.981-.274 1.493-.043.476.039.885.249 1.23.385.692.801 1.078 1.247 1.159.479.077 1.033.077 1.662.001.927-.111 1.936-.518 3.026-1.22a25.181 25.181 0 003.212-2.602 47.727 47.727 0 002.954-3.075c.886-1.013 1.572-1.868 2.059-2.564l1.138 1.928c-.159.355-.558.94-1.199 1.755a40.73 40.73 0 01-2.3 2.644 63.802 63.802 0 01-2.935 2.82A26.987 26.987 0 01350.921 96c-.933.616-1.731.963-2.393 1.043zm21.613 8.681c-1.336-.78-2.2-1.398-2.59-1.854-.395-.49-.669-1.095-.823-1.815-.138-.588-.235-1.398-.293-2.432a85.264 85.264 0 01-.016-3.07c.012-1.01.039-1.768.078-2.276.146-.185.186-.409.121-.67l-.054-.446c-.053-.162.012-.606.193-1.332.177-.76.314-1.717.41-2.87.423-2.065.853-3.796 1.289-5.191.466-1.433.939-2.665 1.419-3.696.48-1.032.97-1.98 1.47-2.846 1.19-1.553 2.157-2.727 2.9-3.522a11.18 11.18 0 012.565-2.121 14.077 14.077 0 011.724-1.165c.534-.299.994-.388 1.378-.266 1.901.174 3.382.768 4.444 1.782 1.058.98 1.942 2.603 2.651 4.868.407 1.428.698 2.736.875 3.924a13.81 13.81 0 01.17 3.505c-.097 1.153-.378 2.446-.843 3.878-.433 1.429-1.085 3.119-1.959 5.07-.883 2.423-1.952 4.566-3.205 6.43-1.22 1.858-2.533 3.359-3.94 4.502-1.37 1.172-2.758 1.91-4.165 2.213-1.375.3-2.641.1-3.799-.6zm3.003-1.822c.75-.191 1.45-.51 2.101-.958.651-.447 1.316-1.065 1.993-1.851a44.359 44.359 0 002.253-3.041 86.473 86.473 0 001.787-2.733c.479-.763.858-1.513 1.139-2.252.313-.743.576-1.63.787-2.663.245-1.037.503-2.377.775-4.022a41.79 41.79 0 00.298-2.553c.052-.678.061-1.3.027-1.867a20.98 20.98 0 00-.245-2.035l-.352-2.93a6.812 6.812 0 00-.557-1.695c-.274-.605-.562-1.04-.862-1.306-.375-.325-.868-.517-1.48-.578-.615-.094-1.267.069-1.955.487-.378.214-.845.656-1.402 1.327a28.402 28.402 0 00-1.747 2.225 43.936 43.936 0 00-1.705 2.572c-.5.866-.911 1.637-1.232 2.314-.293.64-.425 1.075-.397 1.306l-.02.255c.02.165-.026.339-.139.52-.374.515-.755 1.4-1.141 2.655a44.396 44.396 0 00-.95 4.244 56.305 56.305 0 00-.654 4.611c-.122 1.492-.151 2.788-.086 3.888.042.902.082 1.518.122 1.849.04.331.138.588.294.77.152.15.407.455.765.916.238.307.599.515 1.082.625a2.877 2.877 0 001.501-.08zm39.876-2.632c-.087.111-.313.189-.677.233a2.529 2.529 0 01-1.072-.123 1.544 1.544 0 01-.896-.748c-.176-.348-.174-.886.008-1.613a135.267 135.267 0 002.038-9.008c.577-3.024 1.155-6.03 1.735-9.022.198-.863.416-1.846.652-2.949a61.51 61.51 0 00.599-3.395c.2-1.132.301-2.102.305-2.908.022-.372.061-.746.117-1.122.055-.376.08-.731.073-1.066.017-.136.005-.236-.036-.298-.008-.066-.08-.108-.216-.125-.764-.21-1.486-.207-2.165.009-.683.183-1.334.21-1.954.084-.173-.047-.574-.032-1.203.044-.596.071-1.289.171-2.079.3-.757.125-1.481.245-2.172.362a32.59 32.59 0 01-1.434.223c-.364.044-.557.117-.578.22.012.1-.164.172-.528.215-.223.934-.48 1.871-.77 2.812l-.769 2.812a55.546 55.546 0 01-.593 2.187 12.953 12.953 0 01-.748 2.155c-.054.107-.166.44-.334.997a53.32 53.32 0 01-.448 1.715 23.049 23.049 0 01-.303 1.246 113.52 113.52 0 00-1.115 3.71l-.96 3.74a75.744 75.744 0 00-.93 3.99 89.358 89.358 0 01-.825 4.028c-.089.38-.155.807-.198 1.283a4.61 4.61 0 01-.204 1.233c-.147.454-.452.709-.916.765a2.24 2.24 0 01-1.271-.099c-.458-.18-.769-.395-.933-.643-.16-.216-.204-.58-.131-1.093.267-1.408.584-2.957.951-4.647.397-1.726.812-3.438 1.246-5.135.467-1.701.91-3.181 1.329-4.44a36.667 36.667 0 001.065-3.704 70.03 70.03 0 011.053-3.803c.362-1.185.748-2.44 1.159-3.766a29.74 29.74 0 00.898-3.834.803.803 0 00-.047-.398c-.02-.165-.113-.238-.278-.218a2.151 2.151 0 00-.535.165c-.194.057-.37.129-.528.215-.381.18-.793.246-1.235.199a8.991 8.991 0 00-1.215-.056c-.367-.258-.65-.66-.85-1.207-.2-.546-.208-1.032-.025-1.457.105-.248.273-.385.505-.413l3.723-.448c.529-.064.883-.19 1.062-.38l.48-.612c.146-.185.411-.217.795-.095.59.164 1.297.18 2.121.047a15.77 15.77 0 002.098-.555.827.827 0 01.243-.08l.297-.035 4.369-.526.893-.107c.265-.032.571-.002.918.09.277.068.796.056 1.557-.035a30.81 30.81 0 012.444-.194c.835-.033 1.437.08 1.803.337.252.138.476.33.674.574.226.208.372.442.437.703.004.033-.035.407-.117 1.122a177.32 177.32 0 01-.347 2.56c-.149.991-.313 2.001-.491 3.03a174.44 174.44 0 01-.484 2.677c-.115.719-.202 1.115-.26 1.19a2.87 2.87 0 01-.21 1.183 4.815 4.815 0 00-.309 1.196 37.155 37.155 0 01-.573 3.19l-.722 3.21a16.547 16.547 0 00-.351 2.107 20.798 20.798 0 01-.351 2.107 117.911 117.911 0 01-.906 4.188 56.984 56.984 0 00-.758 4.17c-.03.306-.112.602-.245.886a9.585 9.585 0 01-.352.848zm21.1-5.358a1.462 1.462 0 01-1.009-.433 3.079 3.079 0 00-.951-.792c-.044-.364-.031-.953.039-1.767.099-.852.233-1.69.402-2.516.165-.86.309-1.481.431-1.865.028-.877.144-1.73.346-2.56.236-.834.407-1.644.514-2.428.086-.682.159-1.33.22-1.94.094-.616.189-1.215.287-1.798.114-.45.161-.758.141-.923-.024-.199-.009-.352.045-.459.084-.144.312-.34.685-.586.38.089.721.132 1.023.129.331-.04.619-.159.864-.356.029-.037.277-.067.744-.09l1.639-.197c.595-.071 1.04-.142 1.334-.21a3.661 3.661 0 011.358-.013c.446.08.918.091 1.414.031a12.19 12.19 0 011.833.586c.565.234 1.023.548 1.372.943.379.357.59.852.632 1.485a11.91 11.91 0 00.086 1.55 2.971 2.971 0 01-.218 1.538c.007.335-.093.9-.299 1.698a58.92 58.92 0 00-.613 2.44c-.169.826-.255 1.508-.257 2.046a1.6 1.6 0 01-.215.73 1 1 0 00-.065.713c.073.327.073.747 0 1.26-.043.475-.165.859-.365 1.151-.258.367-.606.543-1.044.529a2.546 2.546 0 01-1.213-.459c-.338-.295-.514-.643-.529-1.044a25.395 25.395 0 01-.124-1.446 44.824 44.824 0 00-.036-1.556c.204-.26.294-.489.27-.688l.016-.706c.214-.731.406-1.644.577-2.739.199-1.132.339-2.206.418-3.223.079-1.017.026-1.732-.158-2.147-.529.064-1.22.18-2.073.35-.856.137-1.644.282-2.365.436a52.73 52.73 0 01-1.135.187.626.626 0 00-.318.29c-.087.111-.125.217-.113.316a10.808 10.808 0 01-.402 2.516 11.71 11.71 0 00-.458 2.472c-.006.236-.074.647-.205 1.234a79.956 79.956 0 01-.48 1.87 42.748 42.748 0 00-.418 1.964c-.127.62-.168 1.112-.125 1.476a2.853 2.853 0 00-.202.83c-.03.306-.018.69.038 1.154-.001.268-.112.466-.331.593-.22.128-.556.269-1.007.424zm16.978-1.892a2 2 0 00-.774-.158 44.152 44.152 0 00-.757-.01 5.525 5.525 0 01-.679-.623 3.54 3.54 0 01-.406-.858.787.787 0 01.034-.558c.079-.178.161-.338.244-.483a1.46 1.46 0 01.353.008l.398-.048c.51-.498.951-1.02 1.322-1.569a32.62 32.62 0 001.143-1.8c.388-.684.726-1.362 1.014-2.035.284-.706.499-1.436.643-2.192.063-.31.094-.616.091-.918a2.55 2.55 0 01.141-.923c.15-.421.251-.836.303-1.245.081-.447.163-.876.248-1.29a17.35 17.35 0 00-1.166-.06 1.768 1.768 0 01-.687-.27c-.218-.142-.53-.356-.933-.643-.089-.46-.08-.797.029-1.011.104-.248.397-.468.877-.66.191-.09.384-.163.578-.22.191-.09.385-.147.584-.171.36-.077.722-.138 1.086-.181a13.88 13.88 0 011.148-.088c.269.001.539.019.812.053.273.035.546.07.818.103.31.064.624.16.942.29.313.097.625.177.935.24.236.005.461.062.675.17.215.11.448.232.699.37.64.292 1.159.7 1.557 1.223.395.49.632 1.065.712 1.727a9.137 9.137 0 01-.1 2.933c-.09.649-.197 1.3-.32 1.952-.089.649-.196 1.3-.319 1.952a51.5 51.5 0 01-.248 1.289 7.618 7.618 0 00-.148 1.277c-.023.372-.026.758-.012 1.16.015.4.015.82.001 1.258l-.386.148a8.01 8.01 0 00-.379.196c-.38-.088-.776-.175-1.189-.26-.417-.117-.74-.43-.97-.94l-.023-.2c.021-.102.023-.22.007-.353l-.035-.297-.036-.298c-.006-.604.024-1.195.089-1.774.06-.611.156-1.21.287-1.797.185-.694.323-1.365.412-2.014.086-.681.174-1.346.264-1.995.063-.31.094-.616.091-.918.026-.339.038-.659.035-.96-.01-.369-.143-.773-.397-1.212a3.71 3.71 0 00-1.114-.47 4.564 4.564 0 00-1.234-.204c-.038.24-.124.501-.257.786a.682.682 0 00-.014.304c.012.1-.013.17-.076.21a.958.958 0 00-.331.594 35.04 35.04 0 00-.022.657c-.013.17-.043.341-.089.515a3.506 3.506 0 01-.188.526c-.117.148-.178.34-.183.576-.009.203-.016.422-.022.657a7.032 7.032 0 01-.174 1.482 17.61 17.61 0 01-.46 1.616 5.478 5.478 0 00-.357.799c-.105.247-.207.511-.308.792a1.113 1.113 0 01-.151.421 1.174 1.174 0 00-.2.427c-.126.35-.266.72-.421 1.108-.158.355-.354.68-.587.977a50.76 50.76 0 00-1.13 1.496 6.633 6.633 0 01-1.29 1.414zm18.595-2.035c-.43.051-.787.01-1.072-.123a18.51 18.51 0 01-.977-.588c-.708-.586-1.231-1.161-1.567-1.725-.341-.597-.495-1.183-.464-1.757.068-.277.071-.529.01-.757l-.048-.397c-.185-.145-.247-.239-.184-.28.058-.074.112-.181.162-.322.199-.023.243-.213.133-.57-.098-.256-.035-.851.188-1.785.224-.933.536-1.827.937-2.68.159-.356.405-.822.738-1.399.33-.61.694-1.208 1.094-1.793a12.75 12.75 0 011.179-1.502c.744-.794 1.41-1.395 1.999-1.802a8.362 8.362 0 011.946-.99c.708-.252 1.194-.395 1.459-.427.298-.035.727.182 1.287.652.801.239 1.395.57 1.782.994.419.42.733 1.07.939 1.952.219.98.274 2.132.164 3.455-.08 1.285-.669 2.95-1.766 4.996-.684 1.291-1.337 2.276-1.961 2.956a20.258 20.258 0 01-2.279 1.986c-.639.547-1.226.97-1.761 1.27-.538.266-1.184.478-1.938.636zm4.133-5.836c.687-.989 1.214-1.908 1.582-2.758.401-.854.743-1.92 1.026-3.196.088-.38.117-.836.087-1.37a7.798 7.798 0 00-.235-1.533c-.093-.492-.243-.76-.449-.802-.425-.184-.913-.192-1.464-.025-.554.133-1.129.522-1.723 1.164-.922.984-1.687 2.167-2.293 3.549-.609 1.35-1.181 2.878-1.714 4.588-.353 1.25-.353 2.224-.001 2.92.381.66 1.024.834 1.926.524.932-.347 2.018-1.367 3.258-3.06zm9.067 4.399c-.165.02-.357-.041-.576-.183a2.481 2.481 0 01-.524-.591 3.102 3.102 0 01-.344-.765c-.02-.165.154-.539.52-1.12.396-.618.91-1.368 1.542-2.25.633-.882 1.282-1.766 1.948-2.652l1.854-2.59-1.181-2.275a36.06 36.06 0 00-.792-1.567c-.275-.605-.524-1.145-.75-1.622-.196-.513-.304-.853-.324-1.018-.176-.349-.265-.673-.268-.975-.007-.335.032-.575.115-.72-.065-.26.118-.416.548-.468.43-.052.792.022 1.084.222.273.034.547.22.823.556.271.303.517.676.739 1.12.25.406.451.818.602 1.237.012.099.093.358.244.776.18.381.358.746.535 1.094l.55 1.646.993-1.379c.199-.292.418-.57.655-.834.27-.267.397-.467.381-.6.132-.015.344-.209.635-.58.287-.403.635-.865 1.042-1.384a8.3 8.3 0 011.235-1.458c.452-.424.745-.643.877-.66.36-.076.732.08 1.114.47.379.358.615.783.708 1.276.028.231-.214.73-.727 1.497-.512.767-1.312 1.652-2.4 2.656-.664.617-1.173 1.131-1.526 1.543-.353.412-.889.98-1.608 1.704a78.463 78.463 0 001.842 2.75c.599.8 1.311 1.555 2.135 2.261.404.287.773.562 1.106.824l.55.387c.129-.049.271.018.427.2.186.146.278.353.277.622.127.22.118.422-.028.608a1.25 1.25 0 01-.461.357c-.19.09-.313.189-.367.296a1.077 1.077 0 01-.657-.022c-.182-.112-.318-.13-.409-.051-.125.082-.511-.056-1.158-.415a11.86 11.86 0 01-1.823-1.342c-.26-.203-.602-.532-1.025-.984-.395-.49-.745-.884-1.049-1.183a15.578 15.578 0 00-.759-.866 4.56 4.56 0 01-.469-.548c-.116.148-.405.536-.867 1.162a80.52 80.52 0 00-1.779 2.38 163.68 163.68 0 01-2.283 2.792c-.353.412-.662.634-.927.666zm22.967-4.073c-.679.216-1.12.32-1.322.31-.174-.046-.463-.212-.866-.5a4.59 4.59 0 01-1.46-.831 4.44 4.44 0 01-.894-1.152c-.188-.447-.284-.822-.286-1.124-.04-1.17.092-2.445.396-3.824.304-1.38.713-2.722 1.228-4.026.514-1.304 1.1-2.432 1.758-3.384.687-.989 1.378-1.66 2.074-2.012.631-.344 1.247-.52 1.851-.525.604-.005 1.072.257 1.404.788.612.9.57 1.526-.126 1.879-.1.011-.209.075-.33.19-.124.082-.179.19-.163.322.141.05.507.023 1.098-.082a16.898 16.898 0 001.752-.513c.609-.24 1.002-.456 1.181-.645.187-.123.33-.191.429-.203.099-.012.351-.009.757.01.582.098.887.262.915.494a.668.668 0 00.197.38.48.48 0 00.365.106c.236.005.221.158-.045.459-.233.297-.653.716-1.259 1.26-.581.472-.946.785-1.096.937-.12.115-.109.349.034.7.341.598.445 1.324.313 2.18-.133.854-.445 1.748-.937 2.68a13.693 13.693 0 01-1.891 2.695 15.18 15.18 0 01-2.454 2.21c-.867.607-1.741 1.015-2.623 1.221zm-1.107-2.082c.133-.016.356-.11.671-.282l.747-.493c.116-.148.264-.317.443-.507.207-.226.375-.364.504-.413.132-.016.292-.085.478-.208.183-.157.434-.439.755-.847a31.12 31.12 0 001.23-1.91c.575-.808 1.008-1.532 1.3-2.171.289-.673.318-1.264.089-1.773-.049-.129-.158-.2-.328-.213a2.402 2.402 0 01-.576-.182 1.93 1.93 0 01-.973-.135 30.03 30.03 0 01-1.032-.631l-.914-.898-.742.946c-.466.593-.933 1.455-1.402 2.586a23.031 23.031 0 00-1.057 3.35c-.27 1.107-.4 1.979-.39 2.615.026.5.149.822.367.963.219.142.495.21.83.203zM124.177 188.898l-.497.059c-.194.057-.392-.053-.594-.331-.152-.15-.264-.388-.337-.715-.04-.331-.029-.936.033-1.817.098-.582.162-1.161.194-1.735.036-.542.037-.945.006-1.21-.016-.132-.015-.401.003-.806.056-.376.074-.647.054-.812.133-.285.222-.665.265-1.14a5.994 5.994 0 000-1.259c-.048-.397.107-.785.464-1.164a4.297 4.297 0 01.03-1.011c.084-.413.119-.685.103-.818.043-.475.161-1.312.353-2.51.22-1.235.489-2.627.807-4.176.35-1.553.688-3.071 1.013-4.554.325-1.483.627-2.744.904-3.785.286-.974.455-1.8.508-2.478.082-.715.103-1.238.063-1.569-.016-.132.005-.236.063-.31.055-.107.182-.307.381-.6.292-.37.561-.504.809-.399.28.101.619.261 1.014.482.317.399.543.741.678 1.027.168.282.23.795.185 1.539.06.496.029.936-.093 1.32a6.393 6.393 0 01-.345.898c-.113.181-.138.251-.076.21 1.282-.792 2.433-1.266 3.455-1.423 1.051-.193 1.95-.117 2.697.23.776.31 1.39.806 1.841 1.491.452.684.735 1.506.851 2.466.048.397.023.887-.075 1.469a7.556 7.556 0 01-.466 1.567c-.18.458-.358.799-.532 1.021-.133.016-.251.148-.356.395a6.554 6.554 0 00-.313.743c-.225.363-.61.795-1.153 1.297a11.25 11.25 0 01-1.569 1.196c-.535.299-.94.415-1.217.348l-.143.067c-.066.008-.089.095-.069.261.008.066-.239.247-.741.542-.506.262-1.094.534-1.765.817-.675.249-1.277.405-1.807.469-.695.083-1.207.011-1.537-.218a2.906 2.906 0 00-.212.327.8.8 0 00-.058.36c.024.198-.013.589-.111 1.172a11.877 11.877 0 01-.311 1.598c-.139.52-.291.791-.456.81l-.082.161c-.054.108-.005.236.147.386l.016.552c.048.397.005.738-.128 1.022.031.265.03.668-.006 1.21-.036.541-.104.952-.204 1.233.048.397.027.786-.061 1.165-.052.41-.144.622-.276.638-.129.049-.187.258-.177.626.015.401.032.684.052.849.067.832-.021 1.497-.263 1.996-.243.499-.562.773-.959.821zm4.012-17.303c.264-.032.797-.214 1.596-.545.8-.331 1.61-.714 2.43-1.149.85-.471 1.468-.915 1.855-1.331.769-.864 1.327-1.804 1.675-2.82.377-1.052.23-1.992-.44-2.817-.32-.432-.822-.556-1.505-.373-.687.149-1.417.506-2.188 1.069a11.597 11.597 0 00-2.124 2.018 7.44 7.44 0 00-.901 1.72 15.67 15.67 0 00-.617 1.988c-.123.652-.175 1.196-.157 1.63.019.434.144.637.376.61zm18.228 1.684c-.389.114-.827.1-1.315-.043a3.953 3.953 0 01-1.342-.695c-.375-.324-.636-.678-.783-1.064-.216-.679-.237-1.549-.062-2.611.203-1.099.533-2.263.99-3.493a32.807 32.807 0 011.672-3.676c.663-1.188 1.361-2.229 2.093-3.122.76-.931 1.487-1.59 2.179-1.975.336-.275.6-.458.79-.548.22-.127.45-.172.689-.134.273.035.674.154 1.202.36.479.076.845.183 1.096.321.252.137.589.433 1.013.885.325.465.583.937.775 1.418.192.48.376 1.029.551 1.646.364.795.529 1.329.495 1.602-.039.24-.116.434-.233.582-.225.363-.271.536-.138.52l-.026.205c.012.099-.035.273-.139.52a16.442 16.442 0 00-.271 2.349c-.008.774.084 1.4.276 1.881.353.696.884 1.069 1.595 1.117.711.049 1.387-.334 2.027-1.15.332-.308.652-.582.959-.82.303-.272.471-.275.502-.01l.167.131a.62.62 0 00.36.057c.165-.02.272.034.321.163.083.124.104.306.066.546-.009.202-.08.446-.214.731-.437.556-.645.917-.625 1.082l-.175.223c-.087.111-.249.298-.486.562-.552.435-1.291.709-2.218.82-.894.108-1.611.01-2.151-.295-.54-.304-1.063-.745-1.569-1.322-.473-.581-.803-1.095-.991-1.542l-.308-.467-1.326 1.116a12.47 12.47 0 01-1.066 1.186c-.358.379-.595.642-.711.791a1.717 1.717 0 01-.306.389.48.48 0 01-.329.191 396.641 396.641 0 00-.497.059c.016.133-.129.318-.436.557a4.226 4.226 0 01-1.033.627 3.455 3.455 0 01-1.068.33zm-.819-2.621c.199-.023.528-.214.989-.572a50.631 50.631 0 001.6-1.351 15.866 15.866 0 001.582-1.499c.478-.494.802-.869.973-1.124l.567-.723c.259-.367.489-.68.693-.94.658-.952 1.074-1.959 1.248-3.021.171-1.095.038-1.918-.398-2.47-.176-.348-.365-.527-.568-.536-.202-.009-.602.157-1.199.497-.369.279-.812.786-1.328 1.52a39.369 39.369 0 00-1.568 2.454 36.053 36.053 0 00-1.476 2.797 24.88 24.88 0 00-1.092 2.649c-.272.805-.383 1.423-.331 1.853a.616.616 0 00.141.335l.167.131zm17.321-7.623a19.03 19.03 0 00-.253 3.757c.077 1.199.321 2.245.73 3.135a4.074 4.074 0 001.939 1.882c.392.188.796.341 1.213.459.413.084.833.084 1.259-.001.45.114.9-.058 1.348-.514.478-.494.992-1.244 1.542-2.251.58-1.043 1.181-2.324 1.804-3.843.102-.549.206-1.082.312-1.598a31.37 31.37 0 00.355-1.655c.189-.66.309-1.195.361-1.604.051-.409.037-.945-.043-1.607l-.024-.198c.026-.07.034-.139.026-.205.015-.438.07-.814.167-1.128.125-.351.078-.748-.144-1.191.072-.244.044-.61-.081-1.098a7.92 7.92 0 00-.434-1.509c-.163-.518-.308-.886-.435-1.106a4.874 4.874 0 00-.433-1.509 75.76 75.76 0 00-.67-1.38c-.144-.084-.208-.193-.191-.33a.56.56 0 00-.097-.391c-.366-.527-.857-1.122-1.474-1.787-.621-.697-1.096-1.295-1.424-1.792a.89.89 0 01.466-.308l.683-.183a6.21 6.21 0 00.572-.27c.311-.206.816-.334 1.515-.384a11.15 11.15 0 012.109-.052c.707.015 1.236.086 1.587.212.173.046.342.059.508.039.165-.02.316-.021.453-.004.211-.193.325-.509.339-.947.044-.475.084-.833.123-1.073a98.477 98.477 0 01-.993-1.139c-.235-.274-.718-.384-1.45-.329l-1.203.044a4.794 4.794 0 00-1.186.193c-.198.024-.588.138-1.167.342-.551.167-1.1.35-1.646.55-.547.2-.916.345-1.106.435-.444.222-.883.476-1.319.763-.406.251-.831.486-1.274.708-.319.139-.477.359-.475.661.003.302.086.577.251.826.234.274.502.544.802.81.297.233.579.484.846.754.268.27.646.762 1.135 1.475.517.677.971 1.378 1.361 2.103.389.725.541 1.294.457 1.707a5.652 5.652 0 00-1.005.021 3.156 3.156 0 00-.937.163c-.677.518-1.336 1.319-1.977 2.403-.642 1.085-1.214 2.328-1.717 3.732a28.46 28.46 0 00-1.105 4.212zm2.757 3.244c.004-.806.12-1.794.349-2.963a26.87 26.87 0 01.891-3.481c.398-1.156.844-2.049 1.339-2.679.233-.297.498-.749.794-1.355.296-.606.441-1.077.435-1.412.556.437.91 1.15 1.063 2.138.181.952.235 1.953.159 3.003-.046 1.013-.167 1.816-.364 2.411-.072.243-.139.52-.203.83l-.103.818a39.565 39.565 0 00-.902 2.123 21.348 21.348 0 01-.691 1.795c-.267.57-.667 1.289-1.201 2.159a6.317 6.317 0 00-.55-.387 5.912 5.912 0 00-.55-.387 24.541 24.541 0 01-.404-1.261 15.39 15.39 0 01-.062-1.352zm14.937 3.793c-.43.052-.788.011-1.072-.123a17.355 17.355 0 01-.977-.587c-.709-.587-1.231-1.162-1.568-1.725-.34-.597-.495-1.183-.463-1.758.067-.276.071-.529.01-.756l-.048-.397c-.185-.146-.247-.239-.185-.28.058-.075.113-.182.163-.322.199-.024.243-.214.133-.57-.098-.257-.036-.852.188-1.785.223-.934.536-1.827.936-2.681.159-.355.405-.821.739-1.399.329-.61.694-1.208 1.093-1.793.429-.622.822-1.123 1.179-1.502.744-.794 1.411-1.395 2-1.801a8.318 8.318 0 011.945-.99c.708-.253 1.195-.395 1.46-.427.297-.036.726.181 1.287.651.801.239 1.394.571 1.781.994.42.42.733 1.07.94 1.952.219.981.273 2.132.164 3.455-.081 1.285-.669 2.951-1.766 4.997-.684 1.291-1.338 2.276-1.961 2.955a20.38 20.38 0 01-2.279 1.987c-.639.546-1.226.97-1.761 1.269-.539.266-1.185.478-1.938.636zm4.133-5.835c.686-.99 1.214-1.909 1.581-2.759.401-.854.743-1.919 1.026-3.195.089-.38.118-.837.087-1.371a7.812 7.812 0 00-.235-1.533c-.093-.492-.242-.759-.449-.802-.425-.184-.913-.192-1.463-.025-.555.134-1.129.522-1.724 1.164-.922.984-1.686 2.167-2.292 3.549-.61 1.349-1.181 2.879-1.714 4.588-.353 1.251-.354 2.225-.001 2.921.381.659 1.023.834 1.926.524.932-.348 2.018-1.368 3.258-3.061zm12.073 2.173a4.238 4.238 0 01-1.101-.774c-.345-.361-.554-.84-.626-1.435-.039-.331-.041-.902-.004-1.712.037-.81.111-1.726.223-2.747.113-1.02.233-1.975.361-2.863.259-.636.469-1.265.629-1.889.16-.623.232-1.001.216-1.134.018-.405.045-.878.081-1.42.069-.545.143-1.041.224-1.487.081-.446.15-.706.208-.78.146-.186.332-.309.56-.37a.877.877 0 01.707.016c.277.067.501.258.673.573.412.354.652.812.72 1.374.063.53-.023 1.346-.26 2.449a25.44 25.44 0 00-.613 2.441c-.19.929-.355 1.788-.495 2.577-.111.752-.167 1.263-.169 1.531l-.957.418c.499-.598.963-1.207 1.392-1.83.425-.655.733-1.162.925-1.521.471-.829.875-1.515 1.212-2.06.367-.581.837-1.275 1.412-2.083.57-.841 1.16-1.382 1.768-1.623.638-.278 1.139-.439 1.504-.483.744.045 1.368.356 1.874.933.535.54.941 1.397 1.216 2.573.056.463.072 1.015.049 1.656l.014.955.669-1.138c.479-.763 1.132-1.613 1.959-2.552.573-.539 1.153-.878 1.741-1.015.584-.171 1.137-.037 1.66.404.916.36 1.565 1.004 1.945 1.932.376.895.586 2.078.628 3.55.005.872.066 1.52.184 1.942.114.389.261.774.441 1.156.281.1.364.376.25.826-.117.417-.292.639-.524.667-.331.04-.719.019-1.165-.061a3.11 3.11 0 01-1.17-.514c-.338-.295-.541-.724-.608-1.287l-.37-3.078c-.088-.728-.193-1.319-.315-1.775-.089-.459-.205-.73-.349-.814-.388-.155-.892.124-1.511.837-.62.712-1.263 1.646-1.93 2.8a44.056 44.056 0 00-1.839 3.545c-.506 1.102-.831 1.745-.977 1.931-.116.148-.37.128-.762-.06-.756-.144-1.258-.402-1.504-.776-.217-.41-.291-.888-.223-1.433.098-.583.205-1.368.321-2.355.15-.992.286-1.949.411-2.87.12-.954.189-1.634.207-2.039-.164-.249-.405-.304-.724-.165-.29.102-.587.289-.89.56-.365.313-.785.867-1.26 1.663a30.31 30.31 0 00-1.433 2.74c-.322.677-.66 1.356-1.014 2.036a48.783 48.783 0 01-1.001 1.732c-.308.507-.581.892-.817 1.156-.376.784-.643 1.219-.8 1.305-.158.086-.482.041-.973-.135zm29.784-2.576c-.257.098-.601.173-1.031.225a9.522 9.522 0 01-1.16-.012c-.309-.063-.47-.144-.482-.244-.02-.165-.113-.238-.278-.218l-.272-.169c-.149-.116-.38-.223-.693-.319a2.717 2.717 0 01-.626-1.436c-.068-.562-.025-1.457.13-2.685 0-.839.199-1.836.597-2.992a29.145 29.145 0 011.623-3.67 27.417 27.417 0 012.106-3.427c.782-1.034 1.511-1.81 2.187-2.327.408-.52.941-.835 1.599-.948a3.475 3.475 0 011.94.22c.351.125.713.35 1.088.675.375.324.737.683 1.087 1.077.349.395.649.795.9 1.202.143.352.232.677.268.974.065.261.105.592.119.993.048.397.07.999.067 1.805a19.377 19.377 0 00-.185 2.238c.005.873.045 1.623.12 2.252.01.637.13 1.076.36 1.317.264.237.597.213.999-.07.373-.247.744-.375 1.112-.386.364-.044.657.022.88.197.255.17.407.454.455.851.047.397-.101.835-.447 1.313-.316.441-.738.844-1.264 1.21-.498.328-.995.522-1.492.582-.364.044-.737-.129-1.12-.52a8.516 8.516 0 01-1.09-1.531 140.92 140.92 0 01-.873-1.808l-.435-1.106-1.89 2.292a23.55 23.55 0 01-1.135 1.446c-.353.412-.57.706-.649.884-.13.317-.408.653-.836 1.007-.394.349-.954.719-1.679 1.108zm-.204-2.947c.523-.398 1.111-.956 1.763-1.672a32.789 32.789 0 001.878-2.392 26.35 26.35 0 001.475-2.393c.471-.829.815-1.592 1.034-2.29a9.9 9.9 0 00.418-1.964 4.508 4.508 0 00-.783-1.064c-.349-.394-.642-.594-.878-.599-.728.087-1.45.644-2.166 1.67a36.584 36.584 0 00-1.98 3.21 9.67 9.67 0 00-.451.86c-.188.392-.378.767-.57 1.126l-.325.644c-.083.144-.236.548-.458 1.213-.193.628-.385 1.272-.574 1.932-.193.628-.277 1.041-.253 1.239.023.199.066.412.127.64.094.224.277.353.55.387.273.034.67-.148 1.193-.547zm21.367-7.153a48.904 48.904 0 01-1.011 4.151 20.23 20.23 0 00-.758 4.17c-.005.236-.051.409-.138.52-.088.111-.243.214-.467.308-.572.27-.988.304-1.247.1a20.132 20.132 0 00-1.007-.836 4.295 4.295 0 01-.255-1.279c.015-.438.097-.867.248-1.288.302-.842.554-1.679.756-2.509.202-.83.386-1.674.551-2.534a22.715 22.715 0 00-.709-.871l-.616-.933c.197-.595.385-.987.564-1.176.212-.193.676-.383 1.392-.57.246-.466.451-1.129.617-1.988.198-.863.376-1.758.533-2.683.111-.752.228-1.454.351-2.107.152-.69.316-1.28.492-1.772.209-.495.452-.843.73-1.044.302-.003.707.015 1.216.055.508.039.801.239.877.599.106.323.119.842.037 1.557a36.96 36.96 0 01-.377 2.312 86.343 86.343 0 01-.52 2.379l-.348 1.704 1.787-.215a7.874 7.874 0 001.763-.414 7.528 7.528 0 011.167-.342c.394-.081.805-.147 1.235-.199l-.61 3.297a6.42 6.42 0 00-.788.145 2.147 2.147 0 00-.727.238c-.663.349-1.413.54-2.248.573-.835.033-1.665.251-2.49.652zm14.026-11.508c.855.133 1.507.39 1.956.772.449.383.839.974 1.17 1.773.626 1.57.808 3.227.548 4.97a15.602 15.602 0 01-1.567 4.973c-.818 1.576-1.775 2.967-2.872 4.173a14.073 14.073 0 01-1.583 1.5 4.82 4.82 0 01-1.858.878c-.658.113-1.362-.021-2.113-.4-.54-.305-1.08-.743-1.619-1.316-.543-.607-.835-1.226-.878-1.859a3.383 3.383 0 00-.016-.552 1.902 1.902 0 00-.171-.584c-.14-.05-.217-.125-.228-.224.017-.136.052-.258.107-.365.161-.053.217-.144.168-.272a1.529 1.529 0 00-.135-.286c-.131-.253-.166-.685-.105-1.297.056-.645.148-1.277.275-1.897l.335-1.4a23.125 23.125 0 011.268-3.274 13.476 13.476 0 011.912-2.95 9.373 9.373 0 012.707-2.189c.597-.34 1.043-.545 1.337-.614.29-.102.744.045 1.362.44zm-.945 12.654c.554-.973.97-1.98 1.248-3.021.311-1.044.483-2.123.517-3.235.067-1.116-.073-2.005-.422-2.668-.352-.697-.845-1.023-1.477-.981-.633.043-1.372.601-2.216 1.677-.491.663-.925 1.521-1.302 2.574a22.543 22.543 0 00-.926 3.183 50.932 50.932 0 00-.565 2.838c-.073.512-.068 1.116.016 1.811.113.658.357 1.149.731 1.473.408.32.985.234 1.732-.259.593-.373 1.102-.888 1.526-1.543.425-.655.804-1.272 1.138-1.849zm10.466 2.568a4.238 4.238 0 01-1.101-.774c-.345-.361-.554-.84-.626-1.435-.039-.331-.041-.902-.004-1.712.037-.81.111-1.726.224-2.746.112-1.021.232-1.976.36-2.864.259-.636.469-1.265.629-1.889.16-.623.232-1.001.216-1.134.019-.405.046-.878.081-1.419.069-.546.143-1.042.224-1.488.081-.446.15-.706.208-.78.146-.186.333-.309.56-.37a.877.877 0 01.707.016c.277.067.501.259.673.574.412.353.652.811.72 1.373.063.53-.023 1.346-.26 2.449a25.44 25.44 0 00-.613 2.441c-.19.929-.355 1.788-.495 2.577-.111.752-.167 1.263-.169 1.531l-.957.418c.499-.598.963-1.207 1.392-1.83.425-.655.733-1.162.925-1.521.471-.829.875-1.515 1.212-2.06.367-.581.837-1.275 1.412-2.083.57-.841 1.16-1.382 1.769-1.623.638-.278 1.139-.439 1.503-.483.744.045 1.369.356 1.874.933.535.54.941 1.398 1.217 2.573.055.463.071 1.015.048 1.656l.014.955.669-1.138c.479-.762 1.132-1.613 1.959-2.552.573-.539 1.153-.877 1.741-1.015.584-.171 1.137-.036 1.66.404.917.36 1.565 1.004 1.945 1.932.376.895.586 2.078.628 3.55.005.873.066 1.52.184 1.942.114.389.261.775.441 1.156.281.1.364.376.25.826-.117.417-.292.639-.524.667-.331.04-.719.02-1.165-.061a3.11 3.11 0 01-1.17-.514c-.338-.295-.54-.724-.608-1.287l-.37-3.077c-.088-.729-.193-1.32-.315-1.776-.088-.459-.205-.73-.349-.814-.388-.154-.892.124-1.511.837-.62.712-1.263 1.646-1.93 2.8a44.553 44.553 0 00-1.839 3.545c-.506 1.102-.831 1.745-.977 1.931-.116.148-.37.128-.762-.059-.756-.145-1.257-.403-1.504-.776-.217-.411-.291-.889-.223-1.434.098-.583.205-1.368.321-2.355.15-.992.286-1.948.411-2.87.12-.954.189-1.634.208-2.039-.165-.249-.406-.304-.725-.165-.29.102-.587.289-.89.56-.365.313-.785.867-1.26 1.663a30.336 30.336 0 00-1.433 2.741c-.322.676-.66 1.355-1.014 2.035a48.783 48.783 0 01-1.001 1.732c-.308.507-.58.893-.817 1.156-.376.784-.643 1.219-.8 1.305-.158.086-.482.041-.973-.135zM94.29 126.431a1.5 1.5 0 11.42 2.97l-.42-2.97zM19.613 237.42a1.5 1.5 0 01-2.119.11L7.47 228.488a1.5 1.5 0 012.009-2.228l8.91 8.037 8.038-8.911a1.5 1.5 0 112.228 2.01l-9.042 10.024zM94.71 129.401c-39.758 5.644-58.407 32.208-67.168 57.567-4.386 12.693-6.274 25.048-7.064 34.24a143.442 143.442 0 00-.536 11.029c-.01 1.321.004 2.353.02 3.051a55.558 55.558 0 00.032.99l.002.048v.011l.001.002-1.498.077c-1.498.077-1.498.076-1.498.075v-.005L17 236.47l-.003-.057-.009-.219a57.922 57.922 0 01-.025-.835c-.017-.728-.031-1.791-.02-3.146.021-2.708.144-6.581.546-11.262.804-9.354 2.728-21.968 7.217-34.963 8.989-26.015 28.34-53.702 69.582-59.557l.422 2.97z" fill="#00E8AD"/></svg>