<svg width="182" height="143" fill="none" xmlns="http://www.w3.org/2000/svg"><path d="M51.664 46.475c-.13.027-.285-.05-.464-.233-.178-.182-.266-.375-.264-.578-.002-.269.045-.667.14-1.192.096-.526.208-1.064.335-1.613.127-.55.246-.987.355-1.313l.123-.734c.05-.23.081-.38.093-.45.044-.076.105-.266.184-.569.094-.306.165-.6.211-.879.024-.14.072-.402.144-.788l.3-1.403c.128-.533.248-1.056.362-1.568a64.703 64.703 0 00.497-2.127 3.22 3.22 0 00.253-.635c.053-.196.085-.33.097-.4a.443.443 0 00.154-.284c.008-.12.01-.213.005-.28a.308.308 0 01.06-.214c.061-.064.09-.128.085-.195a.397.397 0 00.107-.25c.008-.12.05-.23.126-.33l.093-.449 1.442-.324c-.018.206-.05.466-.094.778-.046.297-.174.711-.385 1.244a6.58 6.58 0 01-.231.959c-.08.286-.108.47-.086.549-.03.04-.092.221-.186.544-.077.32-.174.711-.29 1.174-.1.459-.21.92-.326 1.383-.1.46-.196.867-.287 1.223-.076.336-.127.55-.154.64a10.04 10.04 0 00-.359 1.263 54.746 54.746 0 01-.588 2.247c-.112.293-.247.726-.406 1.298a26.55 26.55 0 00-.34 1.538 39.653 39.653 0 01-.297 1.428c-.047.28-.094.433-.142.46-.046.043-.136.07-.267.08zm-.843-14.904c-.456.111-.8.157-1.033.138-.217-.023-.302-.174-.255-.453a.837.837 0 01.287-.515c.156-.133.387-.257.694-.372l.677-.266c.29-.111.564-.218.822-.322.533-.178.97-.328 1.31-.449.355-.124.72-.242 1.092-.353.373-.11.844-.242 1.413-.394.47-.131.869-.239 1.194-.323l.51-.157c.05-.01.222-.029.518-.056.297-.028.618-.052.964-.073.346-.021.603-.016.77.017.382.005.66.066.833.182.19.112.328.303.413.572.063.19.071.314.026.374a3.466 3.466 0 01-.26.206c-.366.194-.64.31-.82.347a1.757 1.757 0 01-.62.002 1.161 1.161 0 00-.31-.164c-.102-.046-.285-.059-.548-.038-.249 0-.643.04-1.184.119-.454.145-.852.252-1.194.323-.343.071-.511.148-.506.232l-1.439.374-1.19.373c-.163.05-.39.123-.68.217-.293.077-.577.161-.852.252a4.637 4.637 0 00-.632.207zm11.034 12.185c-.637-.34-1.045-.618-1.226-.834-.182-.232-.302-.528-.36-.887-.053-.292-.082-.7-.085-1.222.013-.525.035-1.044.065-1.556.03-.513.061-.899.093-1.158.076-.1.1-.215.075-.345l-.016-.224c-.022-.08.02-.308.127-.684.105-.393.194-.884.27-1.473a31.11 31.11 0 01.755-2.686c.263-.746.524-1.39.784-1.934.26-.543.523-1.044.79-1.504.62-.837 1.121-1.473 1.505-1.906.382-.45.819-.845 1.308-1.182.313-.267.604-.488.873-.662.27-.174.496-.238.682-.192.928.01 1.64.25 2.136.722.496.453.89 1.24 1.183 2.36.166.708.277 1.36.336 1.955a7.15 7.15 0 010 1.77c-.076.59-.244 1.257-.507 2.003-.246.743-.606 1.627-1.081 2.653-.491 1.266-1.066 2.397-1.725 3.394-.642.993-1.322 1.808-2.04 2.446-.699.651-1.397 1.083-2.094 1.294-.681.21-1.297.16-1.848-.148zm1.516-1.048a3.68 3.68 0 001.053-.572 6.41 6.41 0 001.02-1.021c.35-.444.743-.989 1.178-1.636.39-.587.703-1.073.941-1.46.253-.406.457-.803.612-1.19.172-.389.322-.85.45-1.383.145-.536.304-1.227.476-2.072.096-.526.165-.962.207-1.308a7.21 7.21 0 00.058-.948 10.586 10.586 0 00-.072-1.022l-.102-1.472a3.166 3.166 0 00-.233-.837c-.12-.296-.25-.505-.391-.627-.176-.15-.413-.227-.712-.232-.3-.023-.623.087-.97.327-.19.124-.43.367-.719.731-.29.347-.594.747-.91 1.2a26.66 26.66 0 00-.897 1.376c-.266.46-.486.868-.66 1.224-.158.337-.233.563-.225.68l-.016.13a.458.458 0 01-.08.269c-.196.277-.404.741-.623 1.394a25.12 25.12 0 00-.567 2.192c-.176.796-.32 1.584-.431 2.366a15.01 15.01 0 00-.135 1.977c-.001.455.004.766.015.932.012.167.054.293.126.38.071.069.189.213.353.432.11.146.282.237.516.273.25.032.496-.002.738-.103zm19.612-2.976c-.046.06-.158.109-.338.146a1.17 1.17 0 01-.522-.018.635.635 0 01-.422-.343c-.078-.17-.064-.442.043-.818.455-1.545.86-3.096 1.214-4.654.355-1.558.71-3.108 1.066-4.649.118-.446.248-.954.39-1.523a34.97 34.97 0 00.375-1.747 9.66 9.66 0 00.22-1.488c.02-.19.047-.38.083-.574.037-.193.057-.374.062-.544.011-.07.008-.12-.01-.15-.003-.033-.038-.05-.104-.054a1.802 1.802 0 00-1.061.094c-.34.12-.66.162-.96.123-.084-.017-.281.007-.591.072-.294.06-.636.14-1.027.238-.374.094-.732.185-1.073.273a16.81 16.81 0 01-.708.172c-.18.037-.276.082-.289.135.004.05-.085.094-.264.13-.132.484-.28.97-.444 1.46l-.445 1.457c-.106.377-.22.755-.343 1.134a7.63 7.63 0 01-.418 1.124c-.03.057-.092.23-.187.52-.08.286-.167.582-.261.889-.078.303-.138.517-.179.644-.22.636-.432 1.279-.635 1.928l-.56 1.937c-.2.683-.384 1.37-.551 2.063-.15.689-.318 1.381-.5 2.077a5.307 5.307 0 00-.129.659 2.55 2.55 0 01-.13.634c-.082.236-.238.378-.466.426a1.038 1.038 0 01-.62.002c-.221-.073-.369-.169-.443-.288-.074-.103-.086-.286-.038-.549.164-.725.357-1.524.577-2.397.236-.892.48-1.777.733-2.656.27-.883.522-1.652.758-2.308.237-.64.44-1.28.61-1.922.186-.663.389-1.32.608-1.973.205-.616.425-1.269.658-1.958.232-.706.41-1.367.532-1.983a.41.41 0 00-.014-.2c-.006-.082-.05-.116-.13-.099a1.16 1.16 0 00-.267.106 1.48 1.48 0 00-.264.13 1.162 1.162 0 01-.61.152 4.245 4.245 0 00-.595.022c-.173-.115-.302-.308-.387-.577a1.004 1.004 0 01.022-.738c.058-.13.143-.207.258-.23l1.836-.381c.26-.054.437-.133.53-.236l.25-.33c.075-.1.206-.128.391-.082.286.06.632.038 1.039-.063.405-.118.753-.24 1.042-.368a.45.45 0 01.12-.05l.147-.03 2.155-.447.44-.091c.13-.027.28-.025.448.008.134.023.389-.005.764-.082.392-.082.793-.148 1.203-.2.41-.05.702-.018.876.098a.92.92 0 01.316.263.609.609 0 01.198.339c.001.016-.027.208-.084.574-.059.35-.136.787-.231 1.313a94.734 94.734 0 01-.614 2.936c-.074.369-.126.573-.157.613a1.616 1.616 0 01-.13.61c-.086.203-.146.41-.181.619-.095.542-.214 1.09-.357 1.642l-.43 1.658c-.093.34-.167.7-.223 1.084a11.63 11.63 0 01-.223 1.083c-.165.709-.347 1.43-.544 2.162a32.005 32.005 0 00-.47 2.147 1.57 1.57 0 01-.143.46c-.055.146-.12.294-.192.444zm11.374-3.824c-.308-.156-.468-.308-.478-.458-.073-.086-.15-.12-.231-.104-.048.027-.1-.013-.157-.119a6.362 6.362 0 01-.126-.379 1.188 1.188 0 01-.025-.349.448.448 0 01.278-.285.469.469 0 01.371-.026c.134.023.214.099.24.228.041.127.171.21.39.248.234.036.53.009.888-.082.455-.112.92-.326 1.395-.644.49-.32.937-.691 1.338-1.112.417-.424.744-.837.981-1.24.098-.257.183-.586.254-.99.071-.402.113-.756.124-1.062.012-.306-.023-.45-.104-.434l-.062-.164a1.64 1.64 0 00-.124-.354c-.099-.233-.304-.443-.615-.632a2.619 2.619 0 00-.897-.396c-.116-.01-.33.01-.641.057a3.44 3.44 0 00-.808.168c-.26.07-.497.12-.71.147l-.296.036c-.082 0-.21-.041-.38-.124a3.708 3.708 0 01-.443-.288c-.14-.105-.213-.2-.219-.283.025-.123.094-.323.207-.6a19.4 19.4 0 01.404-.969c.173-.373.355-.723.548-1.05.19-.343.377-.634.56-.874a5.793 5.793 0 011.579-1.567 4.766 4.766 0 011.932-.78c.474-.082.812-.11 1.012-.084.216.006.431.122.645.348.147.205.219.401.215.588-.003.186-.06.324-.169.414-.11.09-.266.106-.469.047-.239-.103-.561-.095-.967.023-.39.114-.8.284-1.231.508a5.539 5.539 0 00-1.056.877c-.356.36-.568.64-.637.84a.78.78 0 00-.136.18c-.013.053-.053.079-.12.075l-.066.115a.276.276 0 00-.061.19 3.664 3.664 0 00-.156.26c-.014.037-.056.029-.126-.024l.006.074a.78.78 0 01-.013.18.565.565 0 00.046.294c.053.057.236.07.549.038.412-.018.727-.015.944.007.216.006.536.091.961.256.476.172.868.453 1.177.844.308.375.529.827.666 1.355.152.525.208 1.079.165 1.66a8.997 8.997 0 01-.087.88c-.035.209-.155.512-.359.908a8.11 8.11 0 01-1.272 1.706c-.51.51-1.051.943-1.623 1.298a6.065 6.065 0 01-1.664.699c-.521.125-.97.1-1.346-.075zm16.048-3.275a.62.62 0 01-.485-.178 1.252 1.252 0 00-.447-.363c-.013-.182.008-.482.061-.898.069-.436.155-.867.258-1.293.101-.443.186-.764.255-.964a6.94 6.94 0 01.231-1.313c.136-.432.239-.85.31-1.253.059-.35.11-.68.154-.993.061-.316.122-.624.184-.924.067-.233.097-.391.091-.474a.44.44 0 01.034-.235c.044-.076.16-.185.349-.325.184.03.351.037.499.023a.927.927 0 00.432-.216c.015-.02.137-.045.367-.076l.808-.168c.293-.06.513-.114.659-.161.227-.064.449-.085.666-.063.217.023.448.009.692-.042.319.052.613.126.885.222a1.5 1.5 0 01.65.421c.178.166.269.409.275.728a5.86 5.86 0 00.005.783 1.66 1.66 0 01-.144.789c-.005.17-.067.46-.187.874a32.92 32.92 0 00-.359 1.263 5.95 5.95 0 00-.175 1.049.913.913 0 01-.123.38.55.55 0 00-.049.363c.028.163.018.376-.03.64a1.39 1.39 0 01-.206.599c-.135.196-.31.3-.525.31a1.087 1.087 0 01-.584-.182.634.634 0 01-.234-.508c-.014-.2-.022-.442-.026-.728.012-.306.018-.57.02-.789.106-.14.155-.26.148-.36l.025-.359c.122-.38.239-.85.348-1.413.125-.582.219-1.133.282-1.652.063-.52.055-.88-.026-1.083-.261.055-.602.142-1.024.263-.424.105-.813.21-1.17.319-.342.087-.529.134-.561.141a.372.372 0 00-.163.16c-.046.06-.067.115-.063.165a6.02 6.02 0 01-.257 1.293 6.56 6.56 0 00-.284 1.273c-.008.12-.051.332-.13.634-.079.287-.172.61-.28.97a24.54 24.54 0 00-.252 1.013c-.077.32-.109.57-.096.754-.057.13-.097.273-.119.43a2.88 2.88 0 00-.009.583.38.38 0 01-.177.315c-.11.073-.278.159-.503.256zm9.245 3.068c-.187.174-.391.208-.614.102-.206-.109-.369-.303-.487-.582-.119-.279-.133-.596-.042-.953.026-.106.063-.283.112-.529.05-.23.078-.43.082-.599.008-.12.043-.33.105-.629.063-.283.134-.567.214-.854.095-.29.172-.5.229-.63a1.8 1.8 0 00.156-.613c.034-.227.047-.398.038-.514.025-.123.056-.265.095-.425.055-.163.112-.293.171-.39.024-.14.063-.29.118-.454.053-.18.117-.336.19-.47.025-.123.04-.269.044-.439.021-.173.064-.274.128-.304a.834.834 0 00.01-.205 2.29 2.29 0 01.079-.295c.02-.19.075-.47.165-.843.09-.373.202-.784.336-1.234.146-.52.195-.993.149-1.422-.031-.449-.173-.698-.425-.747-.135-.04-.223-.114-.264-.224a.595.595 0 01.021-.409.651.651 0 01.275-.335.986.986 0 01.46-.171c.18-.02.338-.02.472.003.133.006.192.028.178.064.006.084.05.125.133.125.029-.057.099-.012.208.134.125.126.243.278.355.457.112.18.171.31.176.394a.504.504 0 00-.04.135l.098-.02.261-.18c.172-.138.352-.285.54-.442a3.17 3.17 0 00.395-.385l.119-.076a1.14 1.14 0 00.233-.225c.317-.2.666-.298 1.047-.293.398.002.718.087.962.256.355.348.546.714.573 1.096.043.379-.029.883-.217 1.512-.027.09-.091.247-.191.47a18.51 18.51 0 01-.257.585l-.131.255a7.152 7.152 0 01-1.218 1.77c-.478.504-.967.96-1.469 1.367a2.66 2.66 0 01-.495.38 3.039 3.039 0 01-.433.192c-.131.027-.222.029-.273.006-.189-.096-.372-.345-.549-.747l-.199.7a7.6 7.6 0 00-.095.424c-.008.12-.018.223-.028.31a.377.377 0 01-.11.2l-.018.104c-.011.07-.062.181-.15.335-.13.516-.248.962-.354 1.338-.105.393-.189.722-.254.989-.063.283-.112.529-.147.739-.001.455-.06.914-.177 1.377-.115.48-.212.753-.29.82zm2.417-7.711c.063-.047.195-.167.397-.36.217-.214.456-.458.718-.732.262-.29.5-.558.714-.805.231-.25.384-.434.458-.55.12-.177.232-.36.334-.55a2.84 2.84 0 00.228-.655c.04-.143.086-.304.14-.484.054-.18.1-.35.138-.51a.75.75 0 00.046-.414.448.448 0 00-.173-.343c-.067-.004-.259.087-.577.27-.32.168-.667.417-1.041.748a4.485 4.485 0 00-.964 1.136 5.784 5.784 0 00-.661 1.553c-.113.513-.15.934-.11 1.263.055.326.173.47.353.433zm12.279.188a2.743 2.743 0 01-.536-.572 3.813 3.813 0 01-.464-.941 2.29 2.29 0 01-.087-.539 2.38 2.38 0 00-.035-.499 1.756 1.756 0 01-.218.425c-.09.137-.181.257-.273.36-.061.08-.198.244-.413.49-.216.23-.434.428-.654.591-.514.461-.95.745-1.306.853-.341.104-.68-.01-1.018-.346a1.593 1.593 0 01-.613-.606c-.117-.246-.143-.612-.077-1.097a10.17 10.17 0 01.126-1.747c.091-.593.308-1.396.651-2.412.295-.753.522-1.306.679-1.659a9.02 9.02 0 01.301-.67c.239-.133.444-.167.614-.101.169.05.278.187.327.413.109.146.113.432.01.858-.086.423-.256.955-.509 1.598a40.21 40.21 0 00-.518 1.828c-.14.602-.213 1.107-.218 1.512-.004.406.11.627.345.663.152.052.404-.025.753-.232.366-.211.759-.63 1.179-1.257.436-.63.837-1.53 1.202-2.703.107-.36.185-.67.233-.934a4.87 4.87 0 00.061-.898 1.133 1.133 0 01-.012-.529c.054-.18.175-.348.362-.505.06-.096.144-.19.254-.28.108-.107.182-.122.22-.046l.39-.106c.064-.03.108.003.131.1a.46.46 0 00.187.188c.19.113.262.427.215.943-.047.515-.226 1.261-.539 2.237-.262.745-.439 1.305-.529 1.678-.073.37-.106.722-.099 1.058.02.299.097.57.23.812.133.242.329.446.589.612.188.079.295.192.322.338.043.143.063.316.061.519-.022.156-.112.301-.268.435-.141.113-.309.19-.505.23a.842.842 0 01-.551-.062zm7.48-2.107a.407.407 0 00-.199-.01 4.51 4.51 0 00-.224-.003c-.485-.069-.769-.347-.853-.835-.085-.506-.037-1.115.145-1.827.199-.716.455-1.427.77-2.133l-.122.025c-.376.55-.749 1.016-1.119 1.396a5.57 5.57 0 01-1.251.942c-.676-.197-1.136-.506-1.381-.928-.246-.438-.255-1.043-.027-1.816.161-.54.339-1.065.535-1.578.195-.53.415-1.048.661-1.554.113-.04.227-.072.341-.096l.34-.12c.187.078.328.2.423.367a2.6 2.6 0 01.281.473 4.92 4.92 0 01-.374 1.039c-.16.32-.294.66-.401 1.019-.078.303-.14.493-.184.57a1.31 1.31 0 00-.084.22l-.105.628c.25.016.523-.1.82-.347.298-.247.591-.544.882-.89.29-.348.542-.645.757-.892.183-.223.395-.512.635-.865.255-.373.504-.728.745-1.065.257-.357.486-.624.689-.8.233.018.383.03.45.033a.37.37 0 01.204.084c.035.026.079.068.133.124.054.056.125.134.215.234a2.627 2.627 0 01-.296 1.453c-.234.436-.484.893-.749 1.37-.19.36-.397.832-.621 1.418a15.424 15.424 0 00-.493 1.469 4.21 4.21 0 01-.095.424c-.023.14-.055.281-.094.424-.054.18-.062.3-.025.36s.053.166.047.319c-.025.107-.014.264.033.474l.109.483a5 5 0 01-.259.206 1.04 1.04 0 00-.259.205zm10.48-1.868c-.553-.088-.995-.376-1.327-.863a4.696 4.696 0 01-.678-1.53.611.611 0 00-.14.13 2.044 2.044 0 00-.227.3l-.796 1.051c-.32.404-.658.777-1.015 1.121-.341.324-.676.503-1.005.537a13.471 13.471 0 01-.435-.188l-.417-.268a1.642 1.642 0 01-.185-.164 2.53 2.53 0 01-.113-.204c-.215-.462-.343-.882-.386-1.26a4.157 4.157 0 01.04-1.198c.086-.423.186-.89.299-1.403.013-.053.056-.273.128-.66l.305-1.327c.114-.496.224-.94.329-1.334.121-.396.212-.634.273-.714l.147-.03c.064-.03.12-.05.169-.06.164-.035.29-.002.38.098a.527.527 0 00.26.173.424.424 0 01.259.15c.093.149.061.518-.097 1.107a78.631 78.631 0 00-.509 1.952 20.92 20.92 0 00-.408 1.983c-.104.645-.076 1.162.084 1.55.114-.023.262-.155.444-.395.197-.26.35-.443.458-.55.156-.134.355-.369.597-.706.256-.356.505-.712.745-1.065a7.8 7.8 0 00.488-.835c.058-.113.143-.316.255-.61.111-.309.221-.635.329-.978.124-.363.217-.694.278-.994.079-.303.106-.51.081-.624-.028-.163-.02-.29.023-.384a1.17 1.17 0 01.275-.335l.269-.056c.098-.02.188-.03.271-.031.106.096.219.182.341.258.121.076.243.16.365.254.104.299.084.733-.058 1.302-.142.569-.282 1.18-.418 1.832a9.723 9.723 0 00-.212 1.942c-.006.625.195 1.131.602 1.52.333-.221.584-.417.754-.587.186-.19.363-.379.532-.566.168-.203.385-.417.65-.64.171.066.307.24.409.522.103.282.161.515.173.698l-.185.19a.453.453 0 00-.112.175c-.083.236-.264.493-.542.77a5.267 5.267 0 01-.894.717c-.318.184-.603.26-.853.227zm10.72-10.9c.219-.18.453-.27.701-.271.248-.018.443.052.586.207.159.136.198.347.119.634.026-.107-.011-.032-.109.225-.082.236-.193.546-.332.929-.123.38-.238.74-.346 1.083a5.254 5.254 0 01-.184.57l.005.075c.261-.054.422-.003.483.153.075.136.112.305.11.508-.194.074-.329.16-.404.261a.733.733 0 01-.31.19.355.355 0 00-.166.11.37.37 0 00-.11.2c-.013.054-.048.264-.105.63-.042.346-.098.729-.169 1.148-.054.4-.108.705-.159.918a.712.712 0 01-.173.365 2.998 2.998 0 01-.187.166 7.698 7.698 0 00-.679-.113 1.285 1.285 0 01-.307-.139 1.207 1.207 0 01-.025-.349 2.91 2.91 0 01.086-.549c.064-.266.113-.512.147-.739.049-.246.092-.584.128-1.013-.067-.02-.206.01-.416.086a11.17 11.17 0 00-.631.207c-.226.08-.42.154-.581.221-.144.064-.209.086-.194.066-.079.05-.233.107-.46.171a9.411 9.411 0 01-.663.112c-.214.011-.371.01-.472-.003l-.141.105c-.005.17-.061.434-.168.794a2.524 2.524 0 00-.133.938c-.002.22-.019.443-.053.67a4.663 4.663 0 00-.051.693c.009.369-.073.614-.247.734-.157.117-.414.111-.771-.017a1.87 1.87 0 01-.257-.124l-.236-.179.258-2.002c.049-.246.091-.474.126-.683.034-.227.076-.446.128-.66.105-.392.201-.792.288-1.198.104-.41.226-.797.366-1.163l.056-.265c.053-.197.112-.411.179-.644a53.073 53.073 0 01.177-.67c.042-.11.102-.316.18-.619.077-.32.147-.62.21-.903.078-.303.117-.463.115-.48a.389.389 0 01.133-.23.455.455 0 01.24-.125c.276-.074.509-.055.699.057a.569.569 0 01.329.438 1.776 1.776 0 00-.005.28.402.402 0 01-.035.21l-1.052 3.43.014.2c.17.066.408.033.713-.097.321-.151.563-.244.726-.277.08-.034.267-.09.559-.167.309-.08.602-.15.88-.207.294-.061.449-.085.467-.072.144-.536.275-1.035.392-1.498.115-.48.287-.979.516-1.498a3.12 3.12 0 00.075-.345c.053-.196.099-.358.14-.484zM50.862 67.363c-.508.072-.816.043-.924-.087a.879.879 0 01-.156-.448c.064-.266.137-.526.219-.78.098-.256.162-.522.192-.798a17.453 17.453 0 01.235-1.263 41 41 0 00.338-1.563c.139-.619.286-1.24.441-1.862.155-.623.293-1.14.413-1.553.104-.41.187-.756.25-1.039.08-.286.16-.564.24-.834.08-.27.166-.59.256-.963.066-.234.125-.457.176-.67l.151-.689c.067-.233.125-.456.177-.669.066-.233.125-.464.175-.694.153-.42.282-.817.388-1.194.123-.38.227-.789.312-1.228.055-.163.039-.27-.047-.32-.07-.052-.113-.187-.128-.403-.03-.196.009-.347.117-.454a.604.604 0 01.485-.176c.232.002.553-.022.963-.074a15.35 15.35 0 001.154-.188c.358-.091.553-.148.584-.172.08-.05.345-.156.798-.317a72.455 72.455 0 013.634-1.31c.695-.228 1.31-.431 1.844-.61a1.42 1.42 0 01.514-.106 29.3 29.3 0 01.521-.007c.215-.01.435.062.661.218.226.155.317.381.271.677a.528.528 0 01-.395.386c-.212.044-.5.07-.864.078-.033.006-.06.08-.084.22-.023.14-.053.306-.09.498a3.16 3.16 0 01-.13.61c-.09.136-.189.384-.296.744-.091.356-.188.747-.29 1.173-.104.427-.184.814-.242 1.164-.059.35-.083.59-.074.723a4.409 4.409 0 00-.406 1.299c-.051.45-.13.878-.233 1.288-.012.07-.06.316-.147.739-.071.402-.161.893-.27 1.472l-.325 1.738c-.11.562-.2 1.045-.272 1.447-.071.403-.105.63-.101.68.007.335-.01.684-.051 1.047-.025.36-.034.707-.027 1.043a.7.7 0 01.037.17c.002.033-.028.073-.091.12-.123.143-.339.247-.649.311-.311.048-.511.03-.6-.053l-.195-.313a.68.68 0 01-.075-.364c0-.473.024-.95.073-1.432.05-.483.091-.947.127-1.393.051-.449.122-.86.212-1.233.09-.373.158-.58.204-.624l.342-1.867c.144-.536.231-.95.26-1.243.029-.31.057-.61.087-.904.045-.296.134-.685.266-1.168.134-.45.235-.892.304-1.328.084-.456.169-.904.254-1.343.086-.423.176-.796.27-1.119.092-.34.162-.632.211-.878.066-.25.084-.456.056-.62-.356.108-.688.22-.995.334-.29.11-.596.224-.92.342-.307.097-.687.227-1.14.388-.274.09-.638.225-1.089.403a60.84 60.84 0 00-1.259.463 8.222 8.222 0 01-.705.222.906.906 0 00-.286.16c-.078.067-.114.142-.109.226-.21.549-.41 1.105-.603 1.668-.194.546-.364 1.07-.511 1.573-.132.483-.227.907-.284 1.273a8.286 8.286 0 00-.161.54l-.278.994a111.298 111.298 0 00-.515 1.877c-.037.177-.05.221-.04.135-.19.849-.349 1.523-.48 2.022-.115.48-.213.862-.292 1.149-.08.286-.145.536-.196.749-.051.213-.1.467-.145.763a7.59 7.59 0 00-.188.874l-.136.889a2.61 2.61 0 01-.054.29c-.01.102-.028.317-.055.643a.914.914 0 01-.224.35c-.076.1-.204.16-.385.181zm16.018-3.395c-.637-.34-1.045-.618-1.226-.834-.181-.232-.301-.528-.36-.887-.053-.292-.082-.7-.085-1.222.013-.525.035-1.044.065-1.557.03-.512.062-.898.093-1.157a.412.412 0 00.075-.345l-.015-.224c-.022-.08.02-.308.126-.684.105-.393.195-.884.27-1.473.256-1.065.508-1.96.756-2.687.262-.746.523-1.39.783-1.933.26-.543.523-1.045.79-1.505.62-.836 1.122-1.472 1.505-1.906.383-.45.819-.844 1.308-1.181.313-.267.604-.488.873-.662.27-.174.497-.238.682-.192.928.01 1.64.25 2.136.721.496.454.89 1.241 1.183 2.361.166.708.278 1.36.336 1.955a7.145 7.145 0 010 1.77c-.075.59-.244 1.257-.507 2.003-.246.743-.606 1.627-1.08 2.653-.492 1.265-1.067 2.397-1.726 3.393-.642.994-1.322 1.81-2.04 2.447-.699.651-1.397 1.082-2.094 1.294-.68.209-1.297.16-1.848-.148zm1.516-1.048a3.678 3.678 0 001.053-.572c.33-.254.67-.595 1.021-1.022.35-.443.742-.988 1.177-1.635.39-.587.703-1.073.941-1.46.253-.407.458-.803.613-1.19.171-.39.32-.85.45-1.383.144-.536.303-1.227.475-2.072.096-.526.165-.962.207-1.308.042-.346.061-.662.058-.948a10.588 10.588 0 00-.071-1.023l-.103-1.47a3.17 3.17 0 00-.232-.838c-.12-.296-.25-.505-.392-.627-.176-.15-.413-.227-.712-.233-.3-.022-.623.087-.97.328-.19.124-.43.367-.719.73-.29.348-.593.748-.91 1.201a28.33 28.33 0 00-.897 1.375c-.266.46-.485.869-.66 1.225-.158.337-.233.563-.225.68l-.016.129a.458.458 0 01-.08.27c-.196.276-.404.741-.623 1.394a25.2 25.2 0 00-.567 2.192c-.176.795-.32 1.584-.43 2.366-.097.762-.142 1.42-.136 1.976-.001.456.004.767.016.933.011.166.053.293.125.379.071.07.19.214.353.433.11.146.282.237.516.272.25.033.497-.001.738-.102zm16.676-2.342c-.274.107-.496.12-.668.037a.978.978 0 01-.449-.388 6.095 6.095 0 00-.412-.572c.131-.01.224-.106.278-.285.069-.2.075-.345.02-.434.077-.303.14-.595.186-.874.063-.283.118-.564.165-.844.046-.296.116-.59.212-.879.094-.306.165-.599.212-.879.061-.3.124-.59.187-.873.063-.283.134-.568.213-.854.15-.47.27-.882.36-1.239.092-.356.205-.75.34-1.183.152-.436.378-.99.68-1.659l-.097.045c-.209.567-.425 1.025-.649 1.375-.208.346-.417.66-.63.94a8.57 8.57 0 00-.605.935l-.318.42c-.138.163-.27.275-.399.336a.74.74 0 00-.142.105l-.09.12a3.76 3.76 0 01-.56.52c-.19.124-.406.236-.647.337a2.184 2.184 0 00-.289.136.527.527 0 01-.267.08l-1.224-.1a2.27 2.27 0 01-1.23-.53 3.582 3.582 0 01-.59-.636 1.33 1.33 0 01-.21-.868 1.73 1.73 0 00-.01-.504.973.973 0 01.09-.499c-.009-.116.032-.37.12-.758.089-.39.197-.851.326-1.384a43.54 43.54 0 01.411-1.578c.146-.519.28-.977.4-1.373.122-.396.213-.643.272-.74-.056-.089-.07-.162-.04-.219a2.1 2.1 0 01.16-.185c.078-.083.098-.155.06-.215-.02-.063-.009-.133.035-.21a1.66 1.66 0 00.233-.579 8.31 8.31 0 01.226-.679c.084-.22.198-.37.34-.45.187.062.383.132.587.207.202.06.36.17.47.333.09.116.119.28.084.489-.09.39-.219.787-.389 1.193-.154.403-.3.805-.437 1.204a10.28 10.28 0 00-.322 1.079c-.091.356-.19.714-.298 1.074-.104.41-.198.834-.283 1.273-.086.44-.205.869-.358 1.288.048.21.057.452.026.728a4 4 0 00-.02.764.853.853 0 00.338.587 1.77 1.77 0 001.273-.263 5.31 5.31 0 001.102-.937c.337-.39.629-.72.875-.99.338-.374.608-.768.811-1.181.203-.413.44-.825.709-1.235.165-.236.323-.471.472-.705.164-.253.286-.523.366-.81.381-.702.67-1.294.87-1.773.213-.5.36-.868.444-1.104.173-.12.33-.356.472-.706.14-.366.27-.646.388-.839a.54.54 0 01.114-.15c.063-.047.118-.092.164-.135.22.056.471.105.755.147.285.042.47.19.553.442.019.03-.025.115-.131.255-.09.136-.149.241-.177.315-.027.09-.053.188-.079.294-.01.103-.027.2-.054.29-.109.343-.231.722-.368 1.139-.136.416-.356 1.06-.66 1.933a2.71 2.71 0 01-.151.31c-.058.13-.1.24-.126.33a8.3 8.3 0 01-.363 1.213c-.138.383-.268.78-.388 1.194a63.258 63.258 0 01-.459 1.612c-.145.52-.299 1.05-.46 1.589-.092.34-.166.7-.222 1.083-.041.363-.125.7-.252 1.014a8.386 8.386 0 00-.256.963c-.087.406-.166.82-.236 1.239-.07.419-.121.758-.153 1.018a3.81 3.81 0 01-.115.48c-.05.229-.049.372.005.428a1.3 1.3 0 00-.084.22.488.488 0 01-.037.185zm10.342-2.067c-.653.135-1.244.215-1.772.24a2.54 2.54 0 01-1.437-.31c-.532-.277-.861-.715-.986-1.313-.109-.618-.05-1.55.178-2.794.052-.433.116-.817.192-1.154.093-.34.18-.517.261-.534.01-.087.027-.208.05-.365.02-.173.04-.37.057-.594.06-.316.103-.544.126-.684a.88.88 0 01.17-.414c.046-.044.096-.163.148-.36.052-.213.085-.338.099-.374l.012-.18c.007-.136.037-.294.09-.474.217-.467.32-.766.31-.9.028-.073.087-.186.175-.34.105-.156.183-.35.233-.579a61.05 61.05 0 001.041-2.518c.265-.712.419-1.233.462-1.563.069-.2.131-.373.187-.52.072-.166.16-.328.265-.484-.039-.077.02-.182.176-.315.157-.134.377-.29.663-.467.286-.177.597-.342.934-.497.353-.157.7-.28 1.042-.367.093-.087.302-.181.626-.282.34-.104.731-.202 1.172-.293.44-.092.849-.16 1.227-.204.359-.074.648-.084.867-.028l.658.167a.577.577 0 01.192.264c.057.106.097.208.121.304l.033.12c.006.083-.219.18-.675.291a43.58 43.58 0 01-1.492.335c-.604.125-1.18.295-1.727.51-.548.214-.912.34-1.092.377a3.744 3.744 0 01-.603.252l-.243.076c-.032.006-.13.161-.29.465-.146.283-.313.621-.5 1.014-.173.373-.33.726-.473 1.06-.127.313-.189.494-.186.544.012.166-.04.363-.157.59-.117.226-.255.49-.416.794-.148.25-.24.471-.277.664-.037.177.02.283.171.319.258-.104.606-.226 1.043-.368.453-.144.9-.279 1.337-.403.454-.145.803-.243 1.048-.293.271-.141.499-.205.682-.192.183.012.317.035.402.068.198-.007.341.03.43.113.087.067.126.143.115.23.006.083-.046.161-.157.235-.091.12-.328.287-.71.5-.382.215-.83.443-1.343.684-.513.241-1.035.476-1.565.704-.516.208-.959.384-1.33.528-.37.145-.588.215-.655.212-.114-.212-.187-.189-.218.07-.017.24-.163.76-.438 1.559-.15.453-.286.885-.406 1.298-.105.393-.192.808-.26 1.243a90.82 90.82 0 00-.174 1.428c-.083.472-.09.845-.022 1.117.084.253.396.45.936.591.33-.001.765-.066 1.302-.194.554-.132 1.175-.362 1.864-.69.281-.244.54-.44.779-.591.236-.167.41-.296.519-.386.082-.017.203-.06.364-.126a1.86 1.86 0 01.362-.151c.118-.21.274-.335.47-.376.033-.007.11.045.234.154.139.09.27.197.395.323s.181.215.168.269c.012.166-.156.37-.503.61-.348.24-.918.612-1.71 1.114-.396.267-.72.478-.975.632-.238.15-.47.265-.696.346a4.782 4.782 0 01-.9.263zm21.71-4.145a.65.65 0 01-.406-.118c-.087-.066-.157-.238-.21-.513-.084-.253-.148-.695-.192-1.327a31.986 31.986 0 01-.071-2.085c.013-.762.022-1.464.027-2.105.066-.234.083-.465.051-.694-.033-.23-.068-.374-.105-.434a88.52 88.52 0 01-.021-.3.574.574 0 01.102-.324l-.035-.499a2.422 2.422 0 01.014-.508 1.87 1.87 0 00.133-.585c.034-.226.037-.412.011-.558a57.8 57.8 0 01.129-.634c.036-.194.052-.323.047-.39a1.834 1.834 0 01-.048-.344 1.18 1.18 0 00-.075-.364c.065-.25.117-.572.155-.968.038-.413.062-.78.072-1.103l.039-.514-.247.38c-.149.233-.349.562-.601.985-.252.423-.525.91-.817 1.46a46.269 46.269 0 01-1.092 2.148c-.323.59-.615 1.148-.876 1.675a12.61 12.61 0 00-.704 1.663c-.006.154-.089.382-.25.685-.162.287-.331.6-.505.94-.138.4-.284.682-.438.85a1.62 1.62 0 01-.521.36c-.485.168-.867.036-1.145-.395-.279-.431-.51-1.26-.695-2.487a9.112 9.112 0 01-.308-1.202c-.063-.425-.115-.7-.157-.827.017-.24.015-.5-.005-.783a5.819 5.819 0 00-.054-.774l-.024-.349-.18.265a8.31 8.31 0 00-.335.55 2.795 2.795 0 01-.08.624 1.799 1.799 0 01-.144.435c-.071.166-.172.5-.302.999-.116.479-.262.99-.44 1.533a26.79 26.79 0 01-.383 1.623c-.09.372-.168.675-.235.908-.067.217-.142.443-.225.68-.083.236-.185.56-.305.973-.123.363-.237.75-.341 1.16-.088.405-.169.666-.243.783l-.21.55c-.113.276-.203.54-.268.789-.196.513-.373.828-.53.945-.157.117-.409.076-.754-.122-.32-.086-.481-.263-.484-.533-.001-.252.122-.632.368-1.138.106-.377.281-.835.525-1.374.243-.54.435-.993.575-1.36-.021-.062.049-.372.209-.928.159-.556.338-1.2.535-1.932.216-.703.41-1.367.581-1.993.187-.646.34-1.184.459-1.613.118-.446.183-.696.196-.75a.484.484 0 01.035-.209c.028-.073.069-.191.124-.354a3.8 3.8 0 01.14-.485c.068-.216.115-.37.142-.46a2.25 2.25 0 00.171-.39c.056-.146.066-.249.028-.309-.02-.046-.006-.083.042-.11l.096-.045c.066-.013.096-.053.091-.12a.387.387 0 01.06-.214 4.05 4.05 0 01.124-.71c.064-.266.129-.414.193-.444.064-.03.094-.07.091-.12-.005-.066.021-.165.078-.295a1.064 1.064 0 01-.022-.324.96.96 0 00.035-.21 2.6 2.6 0 01.201-.32c.061-.08.113-.158.157-.234l.077-.32a2.57 2.57 0 01.209-.575c.025-.106.058-.223.099-.35l.172-.389c.057-.13.099-.231.127-.305.1-.24.264-.375.494-.405.229-.031.51.08.842.331.155.086.262.19.32.313.074.103.081.203.021.3l-.072.04c-.032.006-.046.051-.04.134l.044.27c.028.163.017.359-.034.589-.085.439-.162.877-.231 1.313-.052.432-.101.805-.145 1.117a4.756 4.756 0 00-.037.54.836.836 0 01-.011.204c-.011.07-.058.113-.139.13l-.042.11a.3.3 0 00-.039.16c.091.116.13.319.117.608-.014.273-.036.556-.065.849.003.522.035 1.089.094 1.7.059.612.129 1.138.209 1.576.097.436.188.67.273.703.065-.014.181-.139.346-.376.165-.253.346-.628.543-1.124.261-.526.456-.938.584-1.234.145-.3.276-.555.394-.765.116-.226.248-.473.395-.74.162-.286.384-.67.665-1.15.229-.502.463-.947.701-1.334.254-.39.42-.627.497-.71a.458.458 0 00.254-.28l.084-.22c-.056-.09-.027-.264.087-.524.114-.26.282-.59.502-.99.236-.42.485-.884.747-1.394.252-.424.471-.73.656-.92.202-.194.402-.286.602-.277.198-.007.418.065.66.217.189.096.339.225.45.388a.803.803 0 01.178.418c.026.13-.009.222-.105.275-.064.03-.096.054-.094.07.016-.003.059.022.129.075l-.035.21c-.007.136-.018.332-.034.588-.056.147-.094.425-.115.834a10.36 10.36 0 01-.121 1.113c-.047.28-.084.582-.11.908-.029.31-.054.542-.076.699a5.188 5.188 0 00-.084.574c-.031.26-.055.509-.072.748-.024.36-.051.804-.081 1.333a60.546 60.546 0 01-.061 1.606c-.028.546-.052 1.032-.072 1.458a6.96 6.96 0 01-.069.798l-.016.838.033 1.183c.029.415.065.813.108 1.192.06.375.121.666.185.872.041.346.073.567.096.663a.519.519 0 01-.005.28c-.135.196-.267.325-.395.385-.112.057-.294.053-.547-.013zm7.75-1.657a4.855 4.855 0 01-.658-.167c-.203-.06-.354-.213-.454-.462.008-.12.064-.267.168-.44.12-.177.227-.3.321-.37a.815.815 0 00.459-.196c.123-.127.239-.252.346-.376.077-.083.216-.23.416-.44.216-.23.423-.459.623-.686.199-.227.305-.367.318-.42.027-.09.134-.213.322-.37a3.48 3.48 0 00.393-.41c.122-.16.227-.317.315-.47a11.7 11.7 0 01.313-.496 7.156 7.156 0 00-.431-.138.993.993 0 01-.362-.203 1.93 1.93 0 01-.631-.856 27.81 27.81 0 01-.353-1.142 3.176 3.176 0 00-.419-1.026 1.398 1.398 0 01-.156-.448.793.793 0 00-.182-.469 4.878 4.878 0 00-.227-.762 12.33 12.33 0 00-.281-.827 19.482 19.482 0 00-.253-.783 9.448 9.448 0 01-.395-1.385 40.07 40.07 0 00-.299-1.431 5.012 5.012 0 00-.108-.484.81.81 0 01.016-.484.88.88 0 01-.107-.458 2.502 2.502 0 00-.035-.5l-.027-.398-.027-.374-.027-.4c-.014-.199.043-.329.171-.39a.752.752 0 01.495-.026c.2.026.386.08.558.163.186.063.315.129.386.198l.213.209c-.065.25-.082.599-.051 1.048.03.432.086.868.166 1.306l.197 1.047a.859.859 0 01.04.22.63.63 0 01.018.25.327.327 0 01-.042.11.355.355 0 00.031.094c.093.15.146.307.158.473.026.146.062.308.108.484.129.428.275.854.437 1.275.16.406.322.82.484 1.241.16.405.305.822.435 1.25.106.333.212.674.319 1.023.107.349.23.677.367.986.04.093.088.184.144.274.071.07.15.138.237.204.128-.06.197-.142.207-.245.024-.123.066-.242.124-.355a9.94 9.94 0 01.525-1.02c.208-.33.383-.67.524-1.02l.427-.998c.159-.337.309-.68.45-1.03a34.97 34.97 0 00.992-2.862 59.29 59.29 0 00.875-3.116c.274-1.052.512-2.029.714-2.93l.455-.247c.149.003.318.052.507.148s.346.215.472.358a.48.48 0 01.108.483c-.052.197-.139.501-.259.914l-.33 1.308c-.117.463-.22.89-.309 1.279-.089.372-.138.627-.145.763a4.57 4.57 0 00-.441 1.154c-.087.406-.185.79-.292 1.149a15.55 15.55 0 01-.67 1.783c-.215.483-.429.974-.642 1.474a67.17 67.17 0 01-.665 1.504c-.231.486-.479.96-.745 1.42l-.308.57c-.103.19-.197.378-.284.564-.129.28-.293.542-.491.785s-.353.52-.464.83a.481.481 0 01-.066.115l-.091.12c-.433.444-.865.896-1.296 1.356-.432.46-.854.928-1.268 1.402-.277.31-.504.492-.682.546a1.272 1.272 0 00-.381.23zM53.354 87.39a6.48 6.48 0 00-.381-.123l-.357-.128a3.215 3.215 0 01-.283-.144c-.365-.245-.617-.538-.757-.88a3.071 3.071 0 01-.174-1.078 5.98 5.98 0 01.084-.928c.046-.28.066-.47.06-.569a.64.64 0 01.047-.39l.168-.439a31.6 31.6 0 01.703-1.663c.23-.487.571-1.063 1.022-1.73.092-.104.176-.197.253-.28.092-.104.186-.182.282-.236l.592.307c.07.053.117.128.14.224.022.08.014.2-.024.36a3.353 3.353 0 01-.098.374 1.048 1.048 0 01-.128.305 3.853 3.853 0 00-.598 1.035c-.142.35-.29.71-.447 1.079a.548.548 0 01-.145.41.58.58 0 00-.17.414c.009.117 0 .236-.024.36a13.14 13.14 0 00-.072.394c-.095.29-.127.557-.093.803s.06.502.079.769c.135.039.252.057.351.053.098-.02.223-.13.374-.33.307-.35.518-.647.634-.89.131-.247.23-.487.297-.72.066-.233.163-.506.29-.82.144-.316.258-.702.342-1.158.084-.456.137-.88.16-1.273.02-.409.002-.675-.056-.798a.67.67 0 01.003-.304c.025-.123-.032-.23-.171-.319.06-.08.084-.211.072-.394a3.41 3.41 0 00-.09-.564c-.046-.192-.105-.323-.176-.393-.079-.658-.142-1.21-.19-1.656a24.988 24.988 0 01-.06-1.202c.009-.356.027-.689.055-.998.013-.053.1-.24.26-.56.174-.34.337-.61.489-.81.26-.306.622-.575 1.086-.806.48-.252.891-.396 1.236-.434-.015.02.084.008.296-.036.228-.047.48-.108.757-.182.276-.074.479-.133.608-.177l.385-.18c.128-.06.341-.215.638-.462.125-.11.23-.157.314-.14l.7.436c.017.47-.073.842-.27 1.119-.196.26-.594.486-1.194.677l-.318.066a.863.863 0 00-.34.096.392.392 0 01-.27.056.656.656 0 00-.297.01 2.57 2.57 0 00-.558.192 1.582 1.582 0 01-.614.102c-.576.288-1.017.608-1.324.958-.306.35-.437.85-.392 1.498.109.601.228 1.133.36 1.595.148.459.242.979.283 1.56.043.144.092.26.148.35.056.089.04.202-.05.339a5.1 5.1 0 01.2 1.097c.025.349-.006.625-.09.828-.025.123-.035.345-.029.664.021.3-.038.632-.178.998-.321.86-.656 1.637-1.005 2.334a6.71 6.71 0 01-1.387 1.83 1.61 1.61 0 01-.405.236c-.145.064-.33.153-.553.266zm7.538-1.814c-.213.043-.387.037-.523-.019a7.475 7.475 0 01-.465-.257c-.334-.269-.576-.539-.728-.811a1.516 1.516 0 01-.185-.873.801.801 0 00.023-.384l-.014-.2c-.087-.066-.115-.11-.084-.134.03-.04.06-.096.088-.17.098-.02.124-.118.079-.294-.042-.127.003-.431.135-.914a8.17 8.17 0 01.523-1.398 9.76 9.76 0 01.395-.74c.176-.323.37-.642.579-.955.225-.334.43-.604.614-.81.384-.434.725-.766 1.023-.997.299-.23.624-.424.978-.582.353-.157.595-.25.725-.277.147-.03.352.062.616.278.387.088.67.232.85.43.195.196.333.513.413.952.084.489.084 1.07-.002 1.746-.07.656-.398 1.525-.985 2.608-.366.683-.71 1.21-1.032 1.58-.323.354-.711.72-1.165 1.102a6.63 6.63 0 01-.893.716 4.44 4.44 0 01-.965.403zm2.165-3.131c.36-.53.64-1.018.841-1.465.217-.45.41-1.004.58-1.663.052-.196.077-.43.075-.699a3.866 3.866 0 00-.079-.768c-.033-.246-.1-.375-.2-.388-.204-.076-.444-.06-.717.047-.276.09-.567.311-.873.662a7.54 7.54 0 00-1.209 1.895c-.331.71-.648 1.509-.95 2.398-.203.649-.226 1.143-.07 1.482.171.318.482.38.932.186.465-.214 1.022-.777 1.67-1.687zm3.85 1.783a.887.887 0 00-.376-.049c-.116.007-.24.016-.37.026a2.285 2.285 0 01-.319-.288 1.592 1.592 0 01-.178-.418.423.423 0 01.03-.285c.043-.093.087-.178.13-.255a.698.698 0 01.174-.01l.196-.04c.262-.274.49-.558.685-.851.21-.314.411-.634.604-.96.206-.363.388-.722.546-1.075.156-.37.278-.749.367-1.139.039-.16.06-.316.067-.469a1.43 1.43 0 01.09-.474c.085-.22.144-.434.18-.644.05-.23.1-.451.152-.664-.249 0-.439.006-.57.017a.75.75 0 01-.33-.109 11.694 11.694 0 01-.443-.288c-.033-.23-.02-.4.038-.514.058-.13.206-.253.446-.37a2.19 2.19 0 01.289-.136.992.992 0 01.29-.11 6.218 6.218 0 011.102-.23c.132-.01.264-.012.397-.006l.398.019c.15.02.302.055.455.108.152.036.302.064.453.084a.682.682 0 01.327.058c.102.046.214.1.334.159.306.122.55.307.734.556.182.232.284.515.307.847a4.878 4.878 0 01-.119 1.492c-.06.333-.127.667-.203 1.004a32.345 32.345 0 01-.355 1.668 4.189 4.189 0 00-.104.653c-.02.19-.03.386-.033.589a9.63 9.63 0 01-.03.639l-.192.09a4.294 4.294 0 00-.191.116c-.184-.03-.377-.057-.577-.083-.202-.043-.353-.189-.453-.438l-.007-.1a.588.588 0 00.013-.18l-.01-.149-.011-.15a7.94 7.94 0 01.086-.903c.044-.313.105-.62.183-.923.108-.36.191-.706.25-1.039.06-.35.118-.69.178-1.023.038-.16.06-.317.066-.47a5.57 5.57 0 00.04-.489 1.22 1.22 0 00-.165-.598 1.56 1.56 0 00-.535-.192 2.059 2.059 0 00-.6-.053c-.025.123-.073.26-.145.41a.376.376 0 00-.014.154c.003.05-.01.087-.042.11a.573.573 0 00-.177.315c-.01.103-.018.215-.026.334-.01.087-.03.175-.056.265-.027.09-.062.181-.105.275a.546.546 0 00-.104.3c-.009.103-.018.214-.026.334a3.907 3.907 0 01-.12.758c-.066.25-.154.53-.265.84a3.331 3.331 0 00-.194.42 9.04 9.04 0 00-.17.414.66.66 0 01-.084.22.7.7 0 00-.108.225c-.07.183-.148.376-.233.58a2.82 2.82 0 01-.311.519c-.197.26-.394.529-.59.805-.18.274-.402.53-.666.77zm9.672-1.928c-.249 0-.479.023-.691.067-.196.04-.385.054-.568.042a.91.91 0 01-.465-.258 1.216 1.216 0 01-.434-.518 2.464 2.464 0 01-.18-.797c-.038-.549.009-1.183.14-1.901.148-.74.328-1.477.541-2.212.214-.736.423-1.412.629-2.028.205-.616.354-1.094.446-1.434-.046-.176.005-.287.15-.334.162-.05.343-.071.542-.062.199-.007.332-.001.4.018.105.097.212.201.319.314a.63.63 0 01.2.363c.043.16.014.335-.088.524a3.756 3.756 0 01-.264.485c-.15.217-.303.527-.457.93a16.06 16.06 0 00-.45 1.383 22.815 22.815 0 00-.565 2.926c-.038.412-.04.742-.006.988.468.055.927.001 1.38-.16a3.53 3.53 0 001.192-.702c.358-.328.624-.67.798-1.026.203-.413.253-.76.15-1.043-.087-.302-.368-.421-.844-.356-.246.034-.474.09-.684.167-.21.077-.427.156-.653.236a1.444 1.444 0 01-.27-.298.94.94 0 01-.118-.279c-.032-.213.037-.404.208-.575.185-.19.398-.343.638-.46.257-.121.484-.185.682-.193.33-.017.664.023 1.002.122.354.095.645.237.874.426.14.106.257.242.351.408.11.146.18.308.208.488.095.402.113.778.054 1.127-.06.333-.178.653-.355.96-.28.496-.728.951-1.345 1.366-.6.411-1.162.789-1.684 1.133a2.503 2.503 0 01-.394.056c-.084-.016-.214.02-.39.107zm6.554-1.662a5.545 5.545 0 00-.622-.377 1.78 1.78 0 01-.453-.438c-.113-.196-.207-.48-.283-.852a3.656 3.656 0 01-.01-.858c.03-.276.086-.55.166-.819.122-.396.252-.786.39-1.169.14-.383.278-.774.415-1.173.176-.56.373-1.056.592-1.49.216-.449.44-.698.668-.745.278-.04.481.018.608.178.142.139.33.328.561.566a2.262 2.262 0 01-.136.535 3.06 3.06 0 01-.264.485c-.198.26-.36.538-.489.834a4.574 4.574 0 00-.285.895l-.29.819c-.098.256-.187.52-.268.789-.255.61-.338.964-.249 1.063.09.1.275.02.555-.241.296-.264.602-.622.918-1.076.272-.377.483-.665.635-.865.152-.2.294-.415.427-.645.045-.06.15-.233.311-.52.177-.307.354-.621.53-.945.191-.343.332-.583.422-.72.119-.193.221-.383.308-.57.085-.203.154-.402.206-.599.021-.173.079-.294.173-.365a.631.631 0 01.413-.136c.17.066.342.149.514.248.171.082.324.253.458.512.093.15.078.414-.044.794-.106.376-.237.757-.392 1.144-.126.33-.219.66-.278.993-.043.33-.094.67-.153 1.019-.032.242.035.498.203.767.317-.2.552-.4.703-.6.167-.221.317-.446.45-.676.149-.233.348-.46.598-.68.067-.217.179-.4.334-.55.17-.17.28-.37.33-.6l.875-1.345c.12-.177.222-.384.304-.62a4.16 4.16 0 01.303-.645c.12-.193.254-.28.404-.26.519.078.878.357 1.077.839.015.216-.05.592-.194 1.128a10.28 10.28 0 00-.267 1.523c-.029.293-.041.59-.037.893.02.283.081.565.184.848.137.072.302.063.495-.027a2.14 2.14 0 01.556-.217c.142.14.214.336.215.588 0 .253-.011.441-.035.564a6.62 6.62 0 01-.425.316 1.3 1.3 0 01-.487.151c-.248.001-.423-.022-.526-.068a1.051 1.051 0 01-.287-.193 1.152 1.152 0 00-.368-.303 1.5 1.5 0 01-.602-.787 7.89 7.89 0 01-.25-1.086c-.066-.003-.167.085-.304.265-.136.18-.294.415-.472.705-.18.274-.382.577-.607.91-.21.314-.445.624-.705.93a2.831 2.831 0 01-.56.521c-.206.127-.466.19-.781.188a1.446 1.446 0 01-.547-.368 1.367 1.367 0 00-.526-.422 6.78 6.78 0 00-.231-.458 5.018 5.018 0 01-.157-.474 3.996 3.996 0 01-.105-.433.76.76 0 01.066-.47c-.1-.012-.201.076-.304.266a15.16 15.16 0 00-.353.63 3.5 3.5 0 01-.5.66c-.246.27-.453.516-.62.736l-.5.66c-.167.22-.372.474-.617.76l-.784.163zm20.294-3.8c-.552-.089-.994-.377-1.327-.864a4.697 4.697 0 01-.678-1.53.618.618 0 00-.139.13 2.104 2.104 0 00-.228.3l-.796 1.051a11.2 11.2 0 01-1.014 1.121c-.342.324-.677.503-1.006.537a14.58 14.58 0 01-.435-.188l-.416-.268a1.529 1.529 0 01-.185-.164 2.538 2.538 0 01-.114-.204c-.214-.462-.343-.882-.386-1.26a4.18 4.18 0 01.04-1.198c.087-.423.187-.89.3-1.403.013-.054.055-.273.128-.66.088-.389.19-.831.304-1.327.115-.496.224-.94.33-1.334.12-.396.212-.634.272-.714l.147-.03a.76.76 0 01.17-.06c.163-.035.29-.002.38.098a.52.52 0 00.26.173.424.424 0 01.258.15c.094.148.062.518-.096 1.107a75.472 75.472 0 00-.51 1.953c-.169.659-.305 1.32-.407 1.981-.104.646-.076 1.163.083 1.552.115-.024.263-.156.445-.396.197-.26.35-.443.458-.55.156-.134.355-.369.596-.706.257-.356.505-.712.745-1.065a7.59 7.59 0 00.488-.835c.059-.113.144-.316.256-.61.111-.309.22-.635.329-.978a8.5 8.5 0 00.278-.994c.078-.303.105-.51.081-.624-.028-.163-.021-.29.022-.384.059-.114.15-.225.275-.335l.269-.056c.098-.02.189-.03.271-.031.106.096.22.182.341.258.121.076.243.16.366.253.103.3.084.733-.058 1.303-.143.569-.282 1.18-.419 1.832a9.871 9.871 0 00-.212 1.942c-.006.625.195 1.132.603 1.52a5.12 5.12 0 00.754-.587c.185-.19.362-.379.531-.566.168-.203.385-.417.651-.64.17.066.306.24.409.522.102.282.16.515.173.698l-.186.19a.463.463 0 00-.111.175c-.083.237-.264.493-.543.77a5.217 5.217 0 01-.893.717c-.319.184-.603.26-.854.227zm9.998-2.047c-.1-.013-.2-.018-.299-.014l-.301-.04a1.198 1.198 0 00-.299-.013c-.179-.199-.264-.468-.255-.807.009-.356.057-.729.146-1.118a48.7 48.7 0 00.292-1.149c.106-.376.159-.69.158-.943-.021-.064-.047-.075-.077-.035-.032.023-.046.052-.044.085a1.083 1.083 0 01-.47.376c-.209.093-.402.176-.579.246a19.735 19.735 0 00-1.808.78 2.78 2.78 0 01-.18-.09.841.841 0 00-.156-.094c-.114.024-.205.152-.271.385a5.971 5.971 0 00-.165.844 64.51 64.51 0 01-.135.913c-.03.277-.066.478-.106.604-.259.088-.446.135-.562.142a5.57 5.57 0 01-.573-.033.954.954 0 01-.257-.478c-.012-.166 0-.354.035-.564.055-.4.099-.72.131-.963.049-.246.135-.568.256-.964.069-.2.13-.39.184-.57.069-.2.095-.407.08-.623.119-.194.196-.395.231-.605.035-.21.078-.42.13-.634.213-.736.381-1.302.502-1.698.137-.416.23-.739.28-.969.05-.23.077-.437.081-.623 0-.237.13-.382.391-.436a.796.796 0 01.528.093c.188.08.337.2.448.363.111.162.132.352.065.568-.04.144-.107.377-.2.7-.078.302-.17.642-.276 1.018-.092.356-.184.696-.277 1.019a6.801 6.801 0 01-.201.674.45.45 0 01-.086.195c-.047.043-.067.107-.061.19.12.06.31.054.57-.017.275-.09.467-.181.577-.271l.71-.148.734-.152c.255.1.459.285.61.557.092-.34.218-.787.378-1.344.159-.572.31-1.135.454-1.687.143-.553.222-.966.236-1.238a1.06 1.06 0 01.168-.44c.09-.137.189-.25.299-.34.237.069.464.123.682.162.233.02.393.18.481.482-.006.153-.029.31-.067.47l-.119.429a27.14 27.14 0 01-.501 1.723 31.47 31.47 0 00-.563 1.888c-.155.622-.256 1.2-.301 1.732.003.05-.026.224-.088.524-.045.296-.1.586-.163.869-.046.28-.077.429-.092.449a.64.64 0 01-.076.344 1.32 1.32 0 01-.229.276zm7.351-1.903a1.665 1.665 0 01-.725.277c-.279.04-.661.027-1.145-.041-.033.006-.109-.011-.228-.054a2.835 2.835 0 01-.335-.184 1.508 1.508 0 01-.271-.323c-.288-.328-.434-.872-.437-1.63-.003-.758.162-1.704.497-2.836.097-.273.246-.624.448-1.054.218-.433.431-.831.637-1.194.222-.384.38-.61.474-.68l.262-.156c.175-.104.396-.26.663-.466.079-.05.167-.102.262-.156.112-.057.225-.105.338-.146a.904.904 0 01.294-.06c.327-.052.67.004 1.029.166.375.141.686.338.936.59.248.235.339.47.272.703.003.033-.042.11-.133.23-.075.1-.167.211-.274.335a2.215 2.215 0 00-.228.3.42.42 0 01-.334.196.55.55 0 01-.381-.124.838.838 0 01-.206-.463c-.042-.126-.173-.226-.393-.298l-.306-.114c-.131.027-.31.19-.537.49a7.836 7.836 0 00-.626.99 5.23 5.23 0 00-.684 1.23 9.955 9.955 0 00-.434 1.254l-.193.8c-.054.179-.045.413.024.703.07.289.14.46.21.513.068.02.231-.006.491-.077.277-.074.601-.175.973-.303.37-.144.732-.295 1.086-.452a6.1 6.1 0 00.862-.457c.296-.264.557-.436.783-.517.226-.08.398-.116.514-.106.184.03.297.099.338.208.04.11.009.251-.095.425-.105.156-.291.338-.558.545a5.264 5.264 0 00-.678.596c-.186.19-.276.327-.27.41a.506.506 0 00-.215.12c-.063.048-.119.068-.169.061a4.117 4.117 0 00-.387.156c-.225.097-.457.205-.698.322a2.65 2.65 0 00-.453.27zm6.351-1.898a1.712 1.712 0 01-.521-.347c-.161-.17-.252-.404-.273-.703a6.518 6.518 0 01.039-.868c.037-.413.096-.88.175-1.403.08-.522.161-1.011.245-1.467.143-.333.26-.661.354-.984.093-.323.137-.518.133-.585.019-.206.043-.447.073-.723.047-.28.096-.534.146-.764.05-.23.09-.364.121-.405a.6.6 0 01.283-.21.42.42 0 01.346-.021c.134.023.24.11.316.263a.909.909 0 01.32.668c.019.266-.043.683-.185 1.252a14.16 14.16 0 00-.359 1.264c-.116.48-.217.922-.305 1.328a7.366 7.366 0 00-.119.784l-.479.25c.259-.323.501-.651.726-.984.224-.35.387-.62.49-.81.25-.44.465-.805.643-1.095.194-.31.441-.682.742-1.115.3-.45.602-.749.906-.896.319-.168.569-.27.748-.307.364-.008.663.124.897.396.25.252.428.67.535 1.255a5.65 5.65 0 01-.016.838l-.016.484.355-.605c.253-.406.594-.865 1.022-1.375.294-.297.586-.493.878-.587a.761.761 0 01.804.137c.44.145.743.445.907.9.163.439.238 1.03.223 1.775-.018.443-.004.769.044.978.046.193.109.382.189.568.135.04.169.176.103.409-.068.216-.159.337-.273.36-.163.034-.353.04-.57.017a1.294 1.294 0 01-.561-.213c-.159-.135-.248-.345-.268-.627l-.108-1.546a6.563 6.563 0 00-.111-.888c-.033-.23-.084-.362-.152-.399-.187-.062-.441.1-.761.487-.321.387-.658.887-1.013 1.5a27.201 27.201 0 00-.987 1.874c-.274.58-.449.92-.524 1.02-.061.08-.185.08-.373.001-.367-.042-.607-.153-.718-.332-.097-.199-.122-.438-.075-.718.061-.3.133-.702.213-1.208.097-.51.187-1 .27-1.473.082-.489.132-.837.151-1.043-.075-.12-.192-.137-.352-.054a1.6 1.6 0 00-.449.321c-.187.174-.406.472-.658.895-.252.424-.508.907-.768 1.45a38.91 38.91 0 01-.546 1.075c-.191.343-.368.65-.532.92-.163.27-.306.476-.428.62-.203.413-.344.644-.423.694-.08.05-.238.041-.474-.028zm12.146-5.224c-.002-.27.024-.612.077-1.028.054-.416.101-.814.141-1.193.056-.383.062-.645.019-.788a1.18 1.18 0 00-.236-.18l-.259-.148c.02-.19.041-.362.063-.519.039-.16.153-.31.341-.45l.177.04.143-.081c.047-.044.086-.077.118-.1.142-.333.266-.688.372-1.064.105-.393.196-.758.272-1.094a8.4 8.4 0 01.299-1.048c.137-.4.28-.733.427-1 .088-.153.161-.295.218-.425l.168-.44c.126-.329.308-.695.544-1.099.236-.42.498-.82.786-1.2.303-.4.588-.712.853-.936.265-.24.495-.389.689-.446.194-.074.445-.151.754-.232.17.066.378.192.622.377.261.182.399.373.413.572l.038.549c.013.183-.016.358-.087.524.024.113.025.24.001.38a5.163 5.163 0 01-.096.399c-.012.07-.031.15-.058.24l-.031.259c-.265.713-.512 1.32-.742 1.824a8.159 8.159 0 01-.728 1.314c-.255.373-.567.775-.934 1.206-.352.41-.782.895-1.289 1.456.283.026.538.116.764.272.225.139.357.373.397.702.006.083.004.176-.005.28a1.7 1.7 0 00.045.293c.048.21.078.414.092.614l.089.563c.047.193.064.434.051.723-.013.29-.029.538-.047.744-.012.07-.034.117-.065.14-.017.003-.022.046-.016.13a1.49 1.49 0 01-.123.733c-.1.224-.207.473-.32.75a1.021 1.021 0 01-.18.265 1.018 1.018 0 00-.206.245c-.254.39-.527.64-.817.751-.274.108-.595.25-.964.428l-.045.06a1.469 1.469 0 00-.385-.174 3.599 3.599 0 00-.377-.073 1.485 1.485 0 00-.392-.627 1.404 1.404 0 01-.344-.663 2.328 2.328 0 01-.047-.319.363.363 0 00-.121-.304c.109-.107.118-.21.028-.31-.089-.099-.089-.209.002-.329a3.345 3.345 0 00-.007-.1.198.198 0 00.019-.08.73.73 0 01-.059-.139 1.255 1.255 0 01-.042-.244zm2.203 1.669c.365-.464.599-.909.701-1.335.102-.443.137-.88.107-1.312-.015-.453-.04-.928-.075-1.427a.6.6 0 00-.066-.24.36.36 0 01.009-.229 11.578 11.578 0 01-.238-.558 1.058 1.058 0 00-.409-.522 1.45 1.45 0 00-.302.29c-.076.1-.172.264-.289.49-.07.183-.13.508-.18.974a18.66 18.66 0 00-.043 1.526c.005.54.04 1.038.105 1.497.081.455.202.76.362.912l.318-.066zm2.211-12.426c-.512.73-.952 1.53-1.322 2.4a14.79 14.79 0 00-.838 2.577l.279.094 1.153-1.276c.047-.044.137-.172.271-.386.134-.213.26-.433.376-.66.132-.246.204-.396.217-.45.139-.146.271-.393.396-.739.141-.35.263-.73.367-1.139.103-.426.174-.82.215-1.183.056-.382.062-.662.016-.838l-.166.11c-.148.25-.304.502-.469.755-.165.237-.33.482-.495.735zm4.711 12.661c-.211.06-.383.08-.517.057a7.622 7.622 0 01-.509-.173c-.379-.208-.668-.435-.867-.68a1.461 1.461 0 01-.281-.828.827.827 0 00-.028-.399l-.037-.17c-.104-.062-.14-.105-.108-.129a.38.38 0 00.063-.165c.128-.06.138-.155.029-.284-.058-.123-.054-.427.011-.913.081-.506.196-.985.347-1.438.069-.2.166-.465.292-.794.142-.334.301-.67.476-1.01.174-.356.336-.643.486-.86.33-.49.627-.863.89-1.12.279-.277.593-.52.943-.727.317-.2.549-.324.694-.371.146-.047.357.01.633.172.4.035.705.14.916.316.226.156.412.438.556.846.164.456.245 1.02.243 1.696.012.655-.206 1.552-.657 2.691-.265.713-.54 1.268-.827 1.664a13.83 13.83 0 01-1.004 1.271 7.13 7.13 0 01-.813.801 4.005 4.005 0 01-.931.547zm1.751-3.374a10.81 10.81 0 00.663-1.529c.166-.472.283-1.045.352-1.717a2.91 2.91 0 00-.022-.678 3.364 3.364 0 00-.177-.748c-.065-.223-.147-.332-.246-.328-.218-.04-.455.01-.71.147-.256.12-.528.379-.815.776a8.42 8.42 0 00-.68 1.28c-.184.459-.347.957-.492 1.493a29.17 29.17 0 00-.403 1.702c-.119.666-.077 1.146.126 1.442.219.292.543.309.972.051.428-.274.905-.904 1.432-1.89zm-89.611 44.882c-.286-.059-.459-.166-.52-.322-.06-.157-.052-.394.025-.714.077-.32.164-.742.26-1.268a7.39 7.39 0 00.12-.759c.041-.363.088-.752.142-1.168l.193-1.153c.058-.349.116-.589.173-.719l1.01-3.675 1.495-5.977a5.737 5.737 0 01.32-1.458c.167-.456.225-.814.173-1.073-.009-.133.073-.26.247-.38s.376-.196.605-.227c.23-.03.408.025.533.168a.846.846 0 01.273.348c.06.14.058.36-.004.659l-.742 2.177-.322 1.433c-.13.5-.244 1.004-.341 1.513-.098.493-.22.99-.367 1.493a19.65 19.65 0 00-.522 1.778c-.168.676-.39 1.531-.665 2.567-.109.343-.215.829-.32 1.458a77.923 77.923 0 00-.291 1.881c-.09.609-.18 1.092-.272 1.448.032.213.004.413-.082.599-.069.2-.095.416-.079.649.023.096-.018.215-.124.355a.954.954 0 01-.4.31.709.709 0 01-.518.057zm-3.056-6.425c-.749.188-1.406.147-1.971-.123-.549-.275-.884-.686-1.005-1.234a5.382 5.382 0 01-.036-1.232c.047-.5.105-.984.171-1.453.082-.489.147-.865.195-1.128.01-.086.054-.29.131-.61.076-.335.158-.706.245-1.112l.27-1.119c.093-.323.146-.511.159-.564.434-1.136.72-2.005.86-2.608.14-.602.254-1.115.34-1.537.008-.137.093-.222.256-.256.228-.047.462-.02.7.083.24.102.424.25.553.442.145.172.166.354.063.544a19.56 19.56 0 00-.376 1.014l-.416 1.148c-.123.38-.24.708-.354.985l-.686 2.267c-.092.34-.178.762-.26 1.268-.063.502-.158.919-.284 1.248a2.492 2.492 0 01-.133.584c-.066.25-.122.506-.17.769-.033.243-.002.448.092.614.173.335.367.514.584.537.233.019.505-.004.815-.068.457-.095.961-.343 1.512-.744a15.05 15.05 0 001.637-1.452 29.13 29.13 0 001.522-1.682c.458-.55.815-1.012 1.07-1.385l.513.931c-.087.186-.297.5-.63.94-.318.42-.715.899-1.191 1.436-.477.52-.979 1.038-1.506 1.552-.51.51-1.002.949-1.473 1.317-.472.351-.871.56-1.198.628zm10.388 3.514c-.637-.34-1.045-.618-1.226-.834-.182-.232-.302-.528-.36-.887-.053-.292-.082-.699-.085-1.222.013-.525.035-1.044.065-1.556.03-.513.061-.899.093-1.158.076-.1.1-.215.075-.345l-.015-.224c-.023-.08.02-.308.126-.684.105-.393.194-.884.27-1.473a31.01 31.01 0 01.755-2.686c.263-.746.524-1.39.784-1.934.26-.543.523-1.044.79-1.504.62-.837 1.121-1.473 1.505-1.906a6.72 6.72 0 011.308-1.182c.313-.267.604-.488.873-.662.27-.174.496-.237.682-.192.928.01 1.64.25 2.136.722.496.454.89 1.24 1.183 2.36.166.708.278 1.36.336 1.955a7.145 7.145 0 010 1.77c-.076.59-.244 1.257-.507 2.003-.246.743-.606 1.627-1.081 2.653-.491 1.266-1.066 2.397-1.725 3.394-.642.993-1.322 1.808-2.04 2.446-.699.651-1.397 1.083-2.094 1.295-.681.208-1.297.159-1.848-.149zm1.516-1.048a3.66 3.66 0 001.053-.572 6.41 6.41 0 001.02-1.021c.35-.444.743-.989 1.178-1.636.39-.586.703-1.073.941-1.46.253-.406.457-.803.612-1.19.172-.389.322-.85.45-1.383.145-.536.304-1.226.476-2.072.096-.526.165-.962.207-1.308.042-.346.061-.662.058-.948a10.588 10.588 0 00-.072-1.022l-.102-1.472a3.166 3.166 0 00-.233-.837c-.12-.296-.25-.505-.391-.627-.176-.15-.413-.227-.712-.232-.3-.023-.623.087-.97.327-.19.124-.43.367-.719.731-.29.347-.593.747-.91 1.2a26.5 26.5 0 00-.897 1.376c-.266.46-.486.868-.66 1.224-.158.337-.233.563-.225.68l-.016.13a.458.458 0 01-.08.269c-.196.277-.404.741-.623 1.394a25.2 25.2 0 00-.567 2.192c-.176.796-.32 1.584-.431 2.366a15.01 15.01 0 00-.135 1.977c-.001.455.004.766.015.932.012.167.054.293.126.379.071.07.189.214.353.433.11.146.282.237.516.273.25.032.496-.002.738-.103zm19.612-2.976c-.046.06-.158.109-.338.146a1.165 1.165 0 01-.522-.018.634.634 0 01-.422-.343c-.078-.169-.063-.442.043-.818a76.55 76.55 0 001.214-4.654c.355-1.558.71-3.108 1.066-4.649.118-.446.248-.953.39-1.523a34.83 34.83 0 00.375-1.747 9.66 9.66 0 00.22-1.488c.02-.19.047-.38.083-.574.037-.193.057-.374.062-.544.011-.07.008-.12-.01-.15-.003-.032-.038-.05-.104-.054a1.802 1.802 0 00-1.061.094c-.34.12-.66.162-.96.123-.084-.017-.281.007-.591.072-.294.06-.636.14-1.027.238-.374.094-.732.185-1.073.273-.326.084-.562.141-.708.172-.18.037-.276.082-.289.135.004.05-.085.094-.264.13-.132.484-.28.97-.444 1.46l-.445 1.458c-.106.376-.22.754-.343 1.133a7.63 7.63 0 01-.418 1.124c-.03.057-.092.23-.187.52-.08.286-.167.582-.261.889a12.95 12.95 0 01-.179.644c-.22.636-.432 1.279-.635 1.928l-.56 1.938c-.2.682-.384 1.37-.551 2.062-.15.689-.318 1.381-.5 2.077a5.285 5.285 0 00-.129.659 2.48 2.48 0 01-.13.634c-.082.236-.238.378-.466.426a1.041 1.041 0 01-.62.002c-.221-.073-.369-.169-.443-.288-.074-.103-.086-.286-.038-.549.164-.725.357-1.524.577-2.396.236-.893.48-1.778.733-2.657.27-.882.522-1.652.758-2.308.237-.639.44-1.28.61-1.922.186-.663.389-1.32.608-1.973.205-.616.425-1.269.658-1.958.232-.706.41-1.367.532-1.983a.409.409 0 00-.014-.2c-.006-.082-.05-.115-.13-.099a1.152 1.152 0 00-.267.106c-.097.037-.184.08-.264.13a1.161 1.161 0 01-.61.153 4.26 4.26 0 00-.595.022c-.173-.116-.302-.309-.387-.578-.085-.269-.078-.515.022-.738.058-.13.143-.207.258-.23l1.836-.381c.26-.054.437-.133.53-.237l.25-.33c.075-.1.206-.127.391-.08.286.058.632.037 1.039-.064.405-.118.753-.24 1.042-.368a.444.444 0 01.12-.05l.147-.03 2.155-.447.44-.091c.13-.027.28-.025.448.008.134.023.389-.005.764-.082a15.27 15.27 0 011.203-.2c.41-.05.702-.018.876.098a.92.92 0 01.316.263.608.608 0 01.198.339c.001.016-.027.208-.084.574-.058.35-.136.787-.231 1.313a94.444 94.444 0 01-.614 2.936c-.074.369-.126.573-.157.613a1.615 1.615 0 01-.13.61c-.086.203-.146.41-.181.619-.095.542-.214 1.09-.357 1.642l-.43 1.658c-.093.34-.167.7-.223 1.084-.057.366-.131.727-.222 1.083-.166.709-.348 1.43-.545 2.162a31.991 31.991 0 00-.47 2.147 1.55 1.55 0 01-.142.459c-.056.147-.12.295-.193.445zm10.472-3.587a.617.617 0 01-.484-.178 1.26 1.26 0 00-.448-.362c-.012-.183.008-.483.062-.899.069-.435.155-.866.257-1.293.102-.442.187-.764.256-.963a6.94 6.94 0 01.231-1.313c.135-.433.239-.85.31-1.254.058-.349.11-.68.154-.993.06-.316.122-.624.184-.924.066-.233.097-.39.091-.474a.45.45 0 01.033-.234c.044-.077.161-.186.35-.326.184.03.35.037.498.023a.93.93 0 00.432-.216c.015-.02.138-.045.367-.076l.808-.167a6.78 6.78 0 00.659-.162c.228-.064.45-.085.667-.062.216.022.447.008.692-.042.318.052.613.126.885.221.271.096.488.236.65.422.177.166.268.408.274.727-.015.257-.013.518.005.784.019.266-.029.528-.143.788-.005.17-.067.461-.188.874-.121.396-.241.817-.358 1.264a6.062 6.062 0 00-.176 1.048.925.925 0 01-.122.38.543.543 0 00-.049.364c.028.163.018.376-.03.639a1.418 1.418 0 01-.206.599c-.136.197-.311.3-.525.311a1.085 1.085 0 01-.584-.183.628.628 0 01-.234-.508c-.014-.2-.023-.442-.026-.728.012-.306.018-.569.019-.788.106-.14.156-.26.149-.36l.025-.36c.122-.379.238-.85.348-1.412.125-.583.219-1.134.282-1.653.063-.519.054-.88-.026-1.082-.261.054-.603.141-1.025.263-.423.104-.813.21-1.17.318a29.3 29.3 0 01-.561.141.382.382 0 00-.163.16c-.045.06-.066.116-.063.166-.036.429-.122.86-.257 1.293a6.71 6.71 0 00-.284 1.273 4.14 4.14 0 01-.129.634c-.079.286-.173.61-.28.969-.092.34-.176.677-.252 1.013-.077.32-.109.571-.097.754-.057.13-.096.273-.119.43a2.818 2.818 0 00-.008.583.38.38 0 01-.177.315 3.39 3.39 0 01-.504.256zm8.369-1.658a.89.89 0 00-.376-.049c-.115.008-.239.016-.371.027a2.317 2.317 0 01-.318-.289 1.597 1.597 0 01-.178-.418.426.426 0 01.03-.285c.043-.093.087-.178.131-.255a.704.704 0 01.173-.01l.196-.04c.262-.274.491-.558.686-.851.21-.314.411-.633.603-.96.207-.363.388-.722.546-1.075.156-.37.279-.749.367-1.138.039-.16.061-.316.067-.47.005-.17.035-.327.091-.474a3.43 3.43 0 00.179-.644c.05-.23.1-.451.152-.664a8.19 8.19 0 00-.57.017.75.75 0 01-.331-.109 12.13 12.13 0 01-.442-.288c-.032-.229-.02-.4.039-.514.057-.13.205-.253.446-.37.095-.054.191-.1.288-.136.096-.054.193-.09.29-.11a6.364 6.364 0 011.102-.23c.132-.01.264-.012.397-.005l.399.018c.15.02.301.056.454.108.152.036.303.064.453.084a.686.686 0 01.327.058c.103.047.214.1.334.159.306.122.551.307.734.556.182.232.284.515.308.847a4.866 4.866 0 01-.12 1.492c-.059.333-.127.668-.203 1.004a33.046 33.046 0 01-.355 1.668 4.168 4.168 0 00-.104.653c-.019.19-.031.386-.033.59a9.056 9.056 0 01-.03.638l-.192.09a4.805 4.805 0 00-.191.116c-.184-.03-.376-.057-.577-.083-.201-.043-.352-.189-.452-.438a3.345 3.345 0 01-.007-.1c.012-.053.016-.113.012-.179l-.011-.15-.01-.15c.012-.305.04-.606.086-.903.044-.312.106-.62.184-.923.107-.36.19-.706.25-1.039.058-.35.117-.69.177-1.023.038-.16.061-.316.066-.47.021-.172.035-.335.041-.488a1.229 1.229 0 00-.166-.599 1.566 1.566 0 00-.535-.192 2.058 2.058 0 00-.6-.053 1.73 1.73 0 01-.145.41c-.014.036-.019.088-.014.154.003.05-.011.087-.042.11a.579.579 0 00-.177.315 16.69 16.69 0 00-.026.334 1.633 1.633 0 01-.056.265c-.027.09-.062.181-.105.275a.542.542 0 00-.103.3c-.01.103-.018.214-.027.334a3.92 3.92 0 01-.12.759c-.066.25-.154.529-.265.839a3.397 3.397 0 00-.194.42 9.53 9.53 0 00-.17.414.632.632 0 01-.084.22.716.716 0 00-.108.225c-.07.183-.148.376-.233.58-.086.186-.19.36-.311.52-.197.26-.394.528-.59.804-.179.274-.401.53-.666.771zm9.165-1.798c-.212.044-.386.038-.523-.018a7.48 7.48 0 01-.465-.258c-.333-.268-.575-.538-.727-.81a1.523 1.523 0 01-.185-.873.804.804 0 00.023-.384l-.014-.2c-.087-.066-.115-.111-.084-.134.03-.04.06-.097.088-.17.097-.02.124-.119.078-.295-.042-.126.003-.43.135-.913a8.17 8.17 0 01.523-1.4c.087-.186.218-.432.396-.739.176-.323.369-.641.579-.955.225-.333.429-.603.614-.81.383-.434.724-.766 1.023-.996.298-.23.624-.425.977-.582.354-.158.595-.25.726-.277.147-.03.352.062.615.277.387.088.671.232.85.431.196.196.334.513.414.952.084.488.083 1.07-.002 1.746-.07.655-.399 1.525-.985 2.608-.366.683-.71 1.21-1.032 1.58-.323.353-.711.72-1.165 1.101a6.564 6.564 0 01-.894.717 4.43 4.43 0 01-.965.402zm2.166-3.13c.36-.53.64-1.019.841-1.465.217-.45.41-1.004.579-1.663a2.63 2.63 0 00.076-.7 3.902 3.902 0 00-.079-.767c-.034-.246-.101-.376-.201-.389-.204-.076-.443-.06-.717.048-.275.09-.566.31-.872.661a7.53 7.53 0 00-1.209 1.895c-.331.71-.648 1.509-.95 2.398-.203.65-.227 1.143-.071 1.482.172.319.482.38.932.186.466-.214 1.022-.776 1.671-1.686zm4.34 1.858c-.082.017-.175-.006-.278-.07a1.005 1.005 0 01-.243-.278 1.363 1.363 0 01-.15-.373c-.006-.083.088-.28.281-.59.209-.33.479-.732.81-1.205.331-.474.671-.949 1.018-1.425l.971-1.39-.524-1.106a16.043 16.043 0 00-.352-.763c-.12-.295-.229-.56-.328-.792-.084-.252-.129-.42-.135-.503a1.056 1.056 0 01-.108-.484c.005-.17.029-.293.074-.37-.026-.129.067-.216.279-.26.213-.044.388-.02.527.069.133.006.263.088.39.248.125.142.237.321.335.537.113.196.202.397.266.603.003.05.037.178.101.384.079.186.158.363.236.533l.23.812.52-.74c.105-.157.219-.307.341-.45.139-.147.206-.254.201-.32.066-.014.174-.12.326-.32.15-.217.331-.466.543-.746.21-.313.424-.576.641-.79.232-.234.38-.357.446-.37.178-.055.356.01.535.192.177.166.282.371.316.617.008.117-.123.38-.392.79-.269.41-.683.892-1.24 1.446-.34.34-.602.623-.785.846-.183.223-.46.534-.829.93.299.495.578.935.837 1.32.275.381.606.735.993 1.06.191.128.365.252.522.372l.261.173c.064-.03.132-.002.204.085.088.066.128.167.121.303a.267.267 0 01-.028.31.757.757 0 01-.234.2.454.454 0 00-.188.165.51.51 0 01-.321.017c-.087-.05-.153-.053-.2-.01-.063.047-.248-.007-.557-.163a4.81 4.81 0 01-.862-.605 4.048 4.048 0 01-.479-.458 5.828 5.828 0 00-.486-.557 6.337 6.337 0 00-.351-.408 1.799 1.799 0 01-.217-.258c-.061.08-.212.288-.453.625-.243.32-.552.747-.929 1.28-.592.764-.988 1.267-1.186 1.511-.183.224-.34.349-.47.376zm11.357-3.011c-.338.137-.557.208-.656.211-.084-.016-.222-.089-.413-.218a1.9 1.9 0 01-.696-.362 1.851 1.851 0 01-.41-.547 1.48 1.48 0 01-.114-.558 8.48 8.48 0 01.286-1.957c.182-.712.415-1.41.698-2.093s.598-1.279.943-1.79c.36-.53.715-.898 1.065-1.105.317-.2.624-.315.92-.343a.65.65 0 01.669.342c.279.432.243.751-.107.959a.356.356 0 00-.166.11c-.063.047-.092.103-.087.17.067.02.248-.01.54-.087.292-.094.582-.205.871-.332.304-.148.502-.273.595-.376a.643.643 0 01.215-.12c.049-.011.172-.02.37-.027.284.026.429.097.437.213a.295.295 0 00.088.184c.052.04.111.053.176.04.116-.007.105.07-.033.234-.121.16-.337.39-.647.69-.296.265-.483.438-.56.522-.062.063-.062.181 0 .354.153.289.186.653.101 1.092a5 5 0 01-.523 1.399 8.265 8.265 0 01-.992 1.445 9.15 9.15 0 01-1.255 1.222c-.44.344-.878.587-1.315.728zm-.493-1.011c.065-.014.177-.07.336-.171l.377-.28c.061-.08.137-.173.229-.276.108-.123.193-.2.257-.23a.65.65 0 00.24-.126c.093-.087.223-.24.39-.46.166-.237.382-.577.649-1.02.301-.434.531-.819.689-1.155.158-.353.186-.654.086-.903-.021-.064-.073-.095-.155-.095a1.021 1.021 0 01-.278-.069.88.88 0 01-.474-.028 11.146 11.146 0 01-.491-.278l-.427-.417-.387.51c-.242.32-.492.777-.748 1.37a13.38 13.38 0 00-.599 1.743c-.158.572-.243 1.02-.254 1.343.002.252.054.41.158.473a.633.633 0 00.402.069zM54.06 135.54l-.245.051c-.097.037-.191-.011-.283-.144-.071-.069-.12-.186-.149-.348-.011-.167.008-.474.06-.924.062-.299.107-.595.137-.888.03-.276.04-.481.031-.614a3.233 3.233 0 01.021-.409c.036-.193.052-.331.046-.414a1.99 1.99 0 00.157-.59 3.17 3.17 0 00.03-.638c-.014-.2.072-.403.256-.61-.01-.133.003-.304.038-.514.052-.213.075-.353.07-.419.033-.243.11-.672.233-1.288.138-.636.303-1.353.496-2.152.209-.802.41-1.586.605-2.352a50.53 50.53 0 01.534-1.957c.163-.507.266-.933.308-1.279.057-.366.08-.632.069-.798a.23.23 0 01.038-.16c.03-.057.096-.163.201-.32.152-.2.287-.279.406-.236.135.04.297.107.486.203.146.189.248.353.308.493.075.136.093.394.054.773a1.7 1.7 0 01-.078.674c-.069.2-.132.356-.19.469-.06.097-.074.134-.042.11.647-.454 1.223-.742 1.727-.864.52-.141.96-.139 1.317.006.373.125.662.352.867.68.205.329.325.734.358 1.216.014.2-.01.449-.072.749a4.383 4.383 0 01-.266.814c-.099.24-.194.42-.285.54-.065.013-.126.085-.183.215a3.823 3.823 0 00-.172.39c-.119.193-.318.428-.596.705-.264.257-.53.481-.798.672-.27.173-.47.249-.605.226l-.072.04c-.032.007-.046.052-.04.135.002.033-.123.135-.376.306a13.76 13.76 0 01-.885.487 4.307 4.307 0 01-.897.312c-.343.071-.592.055-.748-.047-.03.04-.068.098-.112.175a.448.448 0 00-.037.185c.007.099-.02.299-.082.598a6.74 6.74 0 01-.19.824c-.081.27-.163.413-.244.43l-.044.085c-.029.057-.008.12.063.19l-.005.279c.014.199-.016.374-.088.524.01.133-.001.338-.031.614-.03.276-.074.487-.13.634.014.199-.005.397-.058.594-.035.209-.085.321-.15.335-.064.03-.098.138-.102.324-.002.203 0 .346.005.429.013.419-.046.76-.176 1.024-.131.263-.294.415-.49.455zm2.38-8.943c.13-.027.396-.141.796-.342.4-.201.806-.429 1.219-.683.427-.274.741-.525.94-.751.398-.471.694-.971.89-1.5.209-.55.16-1.02-.15-1.412-.146-.205-.389-.248-.728-.127-.34.104-.707.315-1.098.633a6.996 6.996 0 00-1.09 1.111c-.18.257-.342.56-.483.91a9.183 9.183 0 00-.35 1.033 4.047 4.047 0 00-.116.834c0 .22.056.317.17.294zm8.896.104a1.104 1.104 0 01-.643.033 1.647 1.647 0 01-.642-.298 1.134 1.134 0 01-.358-.507c-.09-.336-.08-.777.032-1.322.126-.566.315-1.171.568-1.813.269-.663.571-1.308.908-1.934.354-.63.72-1.187 1.1-1.67.396-.504.768-.868 1.117-1.092a2.46 2.46 0 01.4-.31.522.522 0 01.341-.096c.133.006.326.05.58.132.233.019.41.059.53.118.12.06.279.195.476.408.148.222.263.451.346.687.082.236.16.507.23.812.16.389.228.653.205.793a.737.737 0 01-.128.305c-.12.193-.146.283-.08.269l-.018.105c.003.05-.023.14-.08.27-.09.389-.152.79-.19 1.203-.022.392.008.707.09.943.157.338.409.505.756.501.347-.005.688-.227 1.021-.667.17-.17.334-.322.49-.456.155-.15.237-.159.247-.026l.078.06c.052.023.11.028.175.014.082-.017.133.007.154.07.037.059.044.151.02.274-.01.103-.051.23-.123.38-.228.3-.338.491-.333.574l-.09.12c-.046.061-.13.162-.252.306-.282.243-.65.413-1.108.507-.44.092-.79.071-1.047-.061a2.485 2.485 0 01-.737-.606c-.218-.275-.368-.523-.45-.742l-.14-.224-.676.621c-.167.22-.35.435-.551.646-.184.206-.307.35-.368.43a1.096 1.096 0 01-.159.21.273.273 0 01-.166.11l-.171.036-.074.015c.005.066-.07.166-.227.3-.14.13-.314.251-.521.361a1.867 1.867 0 01-.532.211zm-.339-1.296c.098-.02.264-.13.499-.331.25-.22.522-.47.817-.751a9.5 9.5 0 00.811-.826c.246-.27.414-.473.504-.61l.295-.39c.136-.197.256-.365.362-.505.346-.51.574-1.038.684-1.584.11-.563.065-.975-.135-1.237-.079-.169-.167-.252-.266-.249-.1.004-.3.105-.6.302-.188.157-.417.432-.687.825a21.974 21.974 0 00-1.618 2.79c-.247.506-.446.969-.599 1.389-.153.419-.221.737-.206.953a.278.278 0 00.06.165l.08.059zm8.674-4.58a10.276 10.276 0 00-.213 1.917c.009.605.103 1.125.282 1.56.195.415.497.707.906.875.188.079.382.14.584.183.2.026.406.008.617-.052.218.039.442-.067.673-.317.246-.27.516-.672.81-1.205.31-.553.635-1.228.976-2.024.063-.283.127-.557.191-.824.08-.286.15-.571.214-.854a6.4 6.4 0 00.215-.829c.035-.209.04-.48.018-.813a19.751 19.751 0 01-.007-.1.24.24 0 00.017-.104c.018-.223.054-.416.109-.58.07-.183.056-.382-.042-.598.04-.127.036-.311-.014-.554a3.76 3.76 0 00-.176-.748 2.775 2.775 0 00-.187-.543 2.297 2.297 0 00-.177-.747 31.404 31.404 0 00-.295-.673c-.069-.036-.097-.089-.086-.159a.273.273 0 00-.038-.195 6.969 6.969 0 00-.68-.846 6.937 6.937 0 01-.655-.85.52.52 0 01.236-.176l.339-.121c.112-.057.208-.11.287-.16.157-.117.408-.203.752-.257a5.48 5.48 0 011.035-.114c.346-.021.604-.007.773.043a.629.629 0 00.248-.001.898.898 0 01.222-.021c.108-.107.171-.272.189-.495.033-.243.061-.426.086-.549a52.46 52.46 0 01-.46-.537c-.108-.129-.343-.165-.703-.107l-.59.072a2.47 2.47 0 00-.587.146c-.098.021-.291.094-.58.222a16.436 16.436 0 00-1.373.613 7.608 7.608 0 00-.664.441 9.51 9.51 0 01-.642.412c-.16.083-.243.202-.249.355a.705.705 0 00.103.409c.109.129.233.255.374.377.14.106.273.222.397.348.125.126.299.36.521.702.238.322.444.659.617 1.011.174.352.235.634.184.847a2.685 2.685 0 00-.494.052c-.131.01-.286.051-.463.121-.344.291-.686.724-1.027 1.301a12.9 12.9 0 00-.93 1.964c-.265.712-.48 1.44-.643 2.182zm1.275 1.532c.02-.409.101-.915.241-1.517.14-.619.312-1.22.52-1.803.223-.603.463-1.074.72-1.414.122-.16.263-.4.422-.72.16-.32.242-.565.247-.735.262.199.419.546.47 1.042.066.475.069.981.007 1.516-.047.516-.126.929-.237 1.238-.04.127-.08.27-.119.43l-.07.419c-.201.43-.366.801-.493 1.114-.11.31-.238.623-.381.94-.145.299-.358.681-.64 1.144a2.406 2.406 0 00-.261-.173 2.288 2.288 0 00-.26-.174c-.088-.303-.144-.51-.168-.623a7.705 7.705 0 01.002-.684zm7.232 1.31c-.212.044-.387.038-.523-.018a8.071 8.071 0 01-.465-.258c-.333-.268-.576-.539-.727-.811a1.515 1.515 0 01-.185-.872.801.801 0 00.022-.384l-.013-.2c-.088-.066-.116-.111-.084-.134.03-.04.06-.097.087-.17.098-.021.124-.119.079-.295-.042-.126.003-.431.135-.913.132-.483.306-.949.523-1.399.086-.187.218-.433.395-.74.176-.323.37-.641.58-.955a7.84 7.84 0 01.613-.81c.384-.434.725-.766 1.023-.996a4.75 4.75 0 01.978-.582c.353-.158.595-.25.725-.277.147-.031.353.062.616.277.387.088.67.232.85.431.195.196.333.513.414.952.084.488.083 1.07-.002 1.746-.07.655-.399 1.524-.986 2.607-.366.683-.71 1.21-1.032 1.58-.323.354-.71.721-1.164 1.102a6.63 6.63 0 01-.894.717 4.44 4.44 0 01-.965.402zm2.165-3.131c.36-.53.64-1.018.841-1.464.218-.45.41-1.004.58-1.664a2.67 2.67 0 00.075-.698 3.866 3.866 0 00-.078-.768c-.034-.246-.101-.376-.201-.389-.204-.076-.443-.06-.717.048-.275.09-.566.311-.873.661a7.541 7.541 0 00-1.209 1.895c-.33.71-.647 1.509-.95 2.398-.203.649-.226 1.143-.07 1.482.171.319.482.381.932.186.465-.214 1.022-.776 1.67-1.687zm5.867.606a1.727 1.727 0 01-.52-.347c-.162-.169-.253-.403-.273-.703-.012-.166 0-.455.038-.868.038-.412.096-.88.175-1.402.08-.523.162-1.012.246-1.468.142-.333.26-.661.353-.984.093-.323.138-.518.133-.584.019-.207.043-.448.074-.724.046-.28.095-.534.145-.764.05-.229.09-.364.12-.404a.612.612 0 01.284-.211.419.419 0 01.346-.021c.134.023.24.111.317.263.193.163.3.385.32.668.018.266-.044.683-.186 1.253-.124.363-.243.784-.359 1.263-.115.48-.217.922-.305 1.328a7.28 7.28 0 00-.119.784l-.479.251c.26-.323.501-.652.726-.985.224-.35.387-.62.49-.81.25-.44.465-.805.644-1.095.193-.31.44-.682.741-1.115.3-.45.602-.749.906-.896.32-.168.57-.27.749-.307.363-.008.662.124.897.396.249.252.427.67.534 1.255.017.233.011.513-.016.839l-.016.484.356-.605c.252-.407.593-.865 1.021-1.376.294-.297.586-.492.878-.586a.76.76 0 01.804.136c.44.145.743.445.907.9.163.439.238 1.031.224 1.776-.019.442-.005.768.043.977.047.193.11.383.189.569.135.039.169.175.103.408-.068.217-.159.337-.273.36-.163.034-.353.04-.57.017a1.298 1.298 0 01-.561-.212c-.159-.136-.248-.345-.268-.628l-.108-1.546a6.487 6.487 0 00-.111-.888c-.033-.229-.084-.362-.152-.399-.187-.062-.44.1-.761.487-.32.387-.658.887-1.013 1.5a26.7 26.7 0 00-.986 1.874c-.274.58-.45.92-.525 1.02-.06.08-.185.08-.373.001-.367-.042-.606-.152-.718-.332-.097-.199-.122-.438-.075-.718.062-.299.133-.702.213-1.208.097-.509.187-1 .27-1.472.082-.49.132-.837.15-1.044-.074-.119-.19-.137-.35-.053-.145.063-.295.17-.45.32-.187.174-.406.473-.658.896a18.21 18.21 0 00-.768 1.449 35.12 35.12 0 01-.546 1.075c-.19.343-.368.65-.531.92-.163.27-.306.476-.429.62-.203.413-.344.644-.423.695-.08.05-.237.04-.474-.029zm14.663-2.532c-.128.06-.298.112-.51.156a4.828 4.828 0 01-.568.042c-.151-.019-.228-.054-.231-.104-.006-.083-.05-.116-.131-.099l-.13-.075a.91.91 0 00-.332-.133 1.229 1.229 0 01-.272-.703c-.02-.282.022-.738.128-1.367.019-.426.141-.94.364-1.543.238-.623.532-1.266.883-1.929s.723-1.271 1.114-1.825c.408-.557.785-.98 1.128-1.271.213-.28.481-.462.807-.546.325-.085.64-.074.946.031.169.05.341.149.517.298a4.7 4.7 0 01.507.502c.162.186.299.377.412.572.062.173.098.334.109.484.025.13.037.296.035.499.013.199.01.504-.011.913a10.46 10.46 0 00-.144 1.143c-.019.442-.017.821.005 1.137-.01.323.038.541.145.653.124.11.287.084.491-.076.189-.141.374-.221.555-.242.179-.037.321-.016.426.064.122.076.189.214.203.413.014.2-.069.428-.25.685a3.123 3.123 0 01-.649.665c-.252.187-.5.306-.745.357-.18.037-.358-.035-.537-.218a3.618 3.618 0 01-.498-.731 68.07 68.07 0 01-.384-.882l-.187-.543-.981 1.24a14.34 14.34 0 01-.592.781c-.183.223-.296.382-.339.475-.071.166-.216.348-.434.545a5.252 5.252 0 01-.85.632zm-.029-1.487c.266-.224.567-.531.904-.921.336-.407.662-.837.978-1.291.315-.47.575-.895.78-1.274a7.12 7.12 0 00.562-1.205c.123-.363.207-.7.252-1.013a1.894 1.894 0 00-.359-.508c-.162-.186-.3-.275-.416-.268-.359.074-.726.387-1.101.937-.361.53-.71 1.1-1.048 1.71-.06.096-.14.248-.242.454-.101.207-.203.405-.306.595l-.175.34c-.044.077-.129.288-.253.635-.11.326-.219.66-.328 1.003-.109.327-.161.54-.154.64.007.099.023.206.048.319.04.109.127.167.26.173.133.007.332-.102.598-.326zm10.646-4.508a28.099 28.099 0 01-.595 2.147 11.4 11.4 0 00-.471 2.147.506.506 0 01-.08.27.686.686 0 01-.236.175c-.287.161-.492.195-.614.102a8.793 8.793 0 00-.474-.383 2.102 2.102 0 01-.094-.638c.017-.223.068-.444.152-.664.168-.44.312-.874.431-1.304.119-.429.229-.865.33-1.308a9.465 9.465 0 00-.326-.413l-.28-.448c.111-.31.212-.516.304-.62.109-.106.341-.222.696-.346.132-.247.249-.591.35-1.034.118-.446.227-.907.326-1.383.072-.386.146-.747.222-1.084.091-.356.186-.662.284-.919.114-.259.242-.446.383-.56a7.39 7.39 0 01.594-.022c.249 0 .387.089.416.268.045.16.038.423-.019.789a19.9 19.9 0 01-.24 1.188c-.103.426-.206.835-.311 1.228l-.212.879.881-.183a4.1 4.1 0 00.874-.282c.193-.09.386-.164.581-.221.195-.058.398-.108.61-.152l-.378 1.697a3.413 3.413 0 00-.39.106 1.172 1.172 0 00-.362.151 2.76 2.76 0 01-1.116.383c-.41.052-.822.196-1.236.434zm7.151-6.416c.417.032.73.136.941.311.211.176.388.46.531.852.269.77.319 1.603.15 2.499a9.088 9.088 0 01-.887 2.587 11.88 11.88 0 01-1.508 2.235 8.516 8.516 0 01-.811.826 2.733 2.733 0 01-.933.522c-.325.085-.667.046-1.026-.116a2.831 2.831 0 01-.762-.601c-.252-.285-.38-.587-.386-.907a1.77 1.77 0 00.005-.279.88.88 0 00-.07-.289c-.067-.02-.103-.055-.106-.105a.617.617 0 01.061-.189c.08-.034.11-.082.089-.145a.72.72 0 00-.059-.14c-.059-.123-.066-.341-.021-.653.043-.33.103-.654.18-.974l.198-.724c.191-.579.425-1.151.7-1.714a8.18 8.18 0 011.007-1.575 5.629 5.629 0 011.38-1.222c.301-.197.524-.319.67-.366.145-.064.364-.008.657.167zm-.765 6.459a7.555 7.555 0 00.684-1.584 7.128 7.128 0 00.331-1.663c.059-.569.011-1.014-.143-1.336-.157-.339-.39-.485-.701-.437-.312.048-.687.362-1.127.942-.256.357-.49.81-.7 1.359a13.236 13.236 0 00-.53 1.654c-.143.552-.258 1.04-.345 1.462a3.793 3.793 0 00-.035.919c.04.329.148.568.323.717.193.146.478.078.856-.203.299-.213.561-.495.785-.845.224-.35.424-.679.602-.985zm5.069.872a1.738 1.738 0 01-.521-.347c-.161-.17-.251-.404-.272-.703-.012-.166.001-.456.038-.868.038-.413.096-.88.176-1.403.079-.522.161-1.011.245-1.467.142-.333.26-.661.353-.984.094-.323.138-.518.133-.585a45.9 45.9 0 01.074-.723c.047-.28.095-.534.145-.764.05-.23.091-.365.121-.405.076-.1.17-.17.283-.21a.42.42 0 01.347-.021c.134.023.239.11.316.263.193.162.3.385.32.668.018.266-.044.683-.186 1.252-.124.363-.243.785-.359 1.264a56.12 56.12 0 00-.304 1.328 7.081 7.081 0 00-.119.784l-.48.251c.259-.324.501-.652.726-.986.224-.35.387-.62.49-.809.251-.44.465-.805.644-1.095.193-.31.441-.682.741-1.115.3-.45.602-.749.906-.896.32-.168.569-.27.749-.307.364-.008.662.124.897.396.249.252.427.67.534 1.255.017.233.011.512-.016.838l-.015.484.355-.605c.253-.406.593-.865 1.021-1.375.294-.297.587-.493.878-.587a.761.761 0 01.804.137c.441.145.743.445.908.9.163.439.237 1.03.223 1.775-.019.443-.004.769.043.978.047.193.11.382.189.568.135.04.17.176.103.409-.068.216-.159.336-.273.36-.163.034-.353.04-.57.017a1.303 1.303 0 01-.561-.213c-.159-.135-.248-.345-.267-.627l-.108-1.547a6.545 6.545 0 00-.112-.887c-.033-.23-.083-.362-.152-.399-.187-.062-.44.1-.761.487-.32.387-.658.887-1.013 1.5a26.776 26.776 0 00-.986 1.874c-.274.58-.449.92-.525 1.02-.061.08-.185.08-.372.001-.368-.042-.607-.153-.719-.332-.097-.199-.122-.438-.075-.718.062-.3.133-.702.214-1.208.097-.509.186-1 .269-1.473.082-.489.132-.837.151-1.043-.075-.119-.192-.137-.351-.054a1.589 1.589 0 00-.45.321c-.186.174-.406.472-.658.895a18.77 18.77 0 00-.767 1.45 37.5 37.5 0 01-.546 1.074c-.192.344-.369.65-.532.92-.163.27-.306.477-.429.62-.203.413-.344.645-.423.695-.079.05-.237.041-.474-.028zM44.862 66.658c.318.07.594.522.615 1.008.02.486-.22.822-.54.751l-.075-1.76zm-31.323 70.031c-.138.388-.484.458-.772.156l-4.688-4.909c-.288-.301-.409-.86-.27-1.247.139-.388.484-.458.772-.157l4.168 4.364 2.01-5.617c.139-.388.484-.458.772-.157.288.301.409.86.27 1.248l-2.262 6.319zm31.399-68.272c-12.17-2.715-20.157.195-25.325 5.978-5.17 5.786-7.581 14.516-8.486 23.648-.906 9.139-.299 18.637.54 25.869.42 3.613.895 6.65 1.266 8.782a115.847 115.847 0 00.586 3.124l.035.163.008.04.002.009v.002l-.546.111c-.546.111-.546.11-.546.109v-.003l-.003-.013-.01-.046-.037-.177a118.608 118.608 0 01-.604-3.214 161.334 161.334 0 01-1.289-8.943c-.852-7.342-1.477-17.048-.547-26.43.93-9.387 3.422-18.492 8.83-24.544 5.412-6.054 13.68-8.983 26.05-6.224l.076 1.76z" fill="#00E8AD"/></svg>