<svg width="300" height="86" fill="none" xmlns="http://www.w3.org/2000/svg"><path d="M47.186 58.845l-.097-.047a2.065 2.065 0 00-.246-.027 1.264 1.264 0 00-.302.011 1.003 1.003 0 01-.756-.44 1.182 1.182 0 01-.208-.85c.069-.09.105-.267.11-.53a4.337 4.337 0 00-.027-.633 3.14 3.14 0 00.104-.347c.01-.082.032-.287.067-.615.014-.345.049-.824.106-1.438l.237-2.03c.103-.721.2-1.411.292-2.07.091-.658.177-1.215.256-1.67.098-.458.173-.72.225-.788l-.012-.089-.033-.238-.007-.271a1.9 1.9 0 01.208-.695c.05-.229.086-.476.11-.742.024-.266.03-.438.02-.517.066-.11.142-.363.23-.759.104-.418.2-.825.286-1.22.076-.334.158-.688.248-1.064.11-.378.197-.703.26-.974l.126-.411-.016-.119-.004-.03c.068-.09.202-.512.401-1.266a118.1 118.1 0 01.892-3 8.14 8.14 0 01.224-.575c.091-.215.132-.362.121-.44a.41.41 0 01.388-.266.967.967 0 01.56.105c.214.092.385.24.514.444l.362.435-.776 2.287a23.91 23.91 0 00-.595 1.626c-.136.483-.199.764-.188.843l-.113.5c-.075.334-.162.729-.261 1.187-.099.457-.184.873-.254 1.246a13.855 13.855 0 01-.416 1.601c-.124.421-.18.671-.17.75-.005-.04.209-.099.642-.179.433-.08.986-.165 1.66-.258l2.05-.281a66.2 66.2 0 011.87-.287c.551-.096.924-.178 1.116-.245l1.526-.36.59-3.2a80.826 80.826 0 01.755-4.222c.192-.955.362-1.554.511-1.797.148-.242.342-.38.58-.412.059-.008.14 0 .245.026a.707.707 0 01.347.104.455.455 0 01.275.235c.267.185.41.418.429.698.038.278-.07.666-.325 1.165a9.551 9.551 0 00-.563 1.864 24.494 24.494 0 01-.327 1.59c.033.237.03.44-.008.606-.04.147-.095.266-.163.356-.034.045-.093.204-.177.478-.083.274-.157.547-.22.818-.065.271-.093.436-.084.496.019.139.012.311-.02.517-.033.207-.083.355-.151.445a34.83 34.83 0 00-.146.928 102.1 102.1 0 00-.243 1.76 52.197 52.197 0 01-.308 1.95 27.932 27.932 0 01-.332 1.56c.02.138-.006.323-.075.555a1.23 1.23 0 00-.076.555l-.175.933c-.07.373-.098.609-.084.708a47.2 47.2 0 01-.136 1.442c-.034.489-.067.907-.1 1.255a6.519 6.519 0 00-.004.637c-.069.09-.186.116-.353.078a60.063 60.063 0 00-.593-.13c-.406-.166-.667-.373-.781-.62-.092-.23-.06-.587.095-1.073.077-.172.143-.575.198-1.208.072-.656.145-1.302.219-1.938.078-.313.153-.727.224-1.242l.204-1.602c.065-.554.123-1.017.173-1.387.048-.39.089-.607.123-.652a167.2 167.2 0 01-.04-.298c-.046-.034-.297-.03-.756.013a15 15 0 00-1.698.203c-.674.093-1.374.209-2.102.35-.71.117-1.348.255-1.912.413l-.743.102-.654.09-.564.078-.208.028-.123.653c-.07.373-.149.828-.237 1.365-.09.517-.188 1.055-.294 1.615a46.434 46.434 0 00-.22 1.483c-.042.43-.071.737-.086.92-.03.368-.078.83-.144 1.383a28.57 28.57 0 01-.192 1.692c-.06.594-.121 1.107-.183 1.54-.042.429-.075.706-.098.83zM67.82 52.44a2.64 2.64 0 01-1.37.824 3.13 3.13 0 01-1.609-.022 3.204 3.204 0 01-1.424-.894 3.39 3.39 0 01-.858-1.397c-.177-.56-.289-1.302-.335-2.225-.046-.78.096-1.587.426-2.42a9.4 9.4 0 011.286-2.327c.55-.701 1.116-1.213 1.698-1.535.27-.239.505-.362.706-.37.218-.03.547-.054.989-.075.464-.003.813.04 1.047.129.254.086.464.219.63.398.338.257.577.526.716.81.138.264.225.535.263.812-.02.447-.243 1.023-.672 1.727-.411.683-.996 1.278-1.754 1.786a4.19 4.19 0 01-1.402.374c-.518.05-.962-.02-1.331-.211-.398-.107-.642-.043-.73.191-.093.215-.134.725-.124 1.531.024.764.16 1.31.406 1.64.244.31.539.471.884.484.407.025.722.043.946.052.24-.013.515-.141.825-.386.29-.241.473-.377.55-.408a.698.698 0 00.162-.144l.333-.439c.12-.158.215-.272.286-.342a.373.373 0 01.252-.156c.099-.013.195.024.287.112a.93.93 0 00.263.146c.198-.027.254.086.167.34-.066.252-.235.567-.506.948-.273.36-.61.71-1.007 1.047zm-.893-6.297c.205-.13.414-.3.627-.51.21-.231.38-.467.509-.706.146-.263.208-.473.186-.632-.038-.277-.198-.487-.48-.63-.285-.163-.675-.14-1.171.07-.21.09-.438.272-.682.548a7.07 7.07 0 00-.701.853c-.2.31-.364.585-.493.825-.109.237-.14.372-.095.407.073.09.252.147.537.168.283.002.592-.03.926-.097.354-.069.633-.168.837-.297zm6.221 5.14a2.534 2.534 0 01-.667-.452c-.211-.214-.341-.499-.39-.855-.027-.199-.034-.54-.02-1.027.015-.487.05-1.037.108-1.65.057-.614.12-1.188.188-1.722.15-.384.269-.764.359-1.14.09-.375.129-.602.118-.682.007-.243.019-.527.035-.852.035-.328.075-.626.12-.895.043-.268.082-.425.117-.47a.62.62 0 01.332-.227.527.527 0 01.424.002c.167.038.303.15.41.337.25.208.398.48.445.817.043.317 0 .808-.132 1.472-.124.42-.239.91-.344 1.47-.105.56-.195 1.077-.272 1.552a8.221 8.221 0 00-.086.92l-.57.26c.294-.363.566-.734.817-1.111.249-.398.429-.705.54-.923.275-.502.51-.918.707-1.247.215-.353.49-.774.826-1.265.334-.51.683-.84 1.046-.99.38-.174.679-.276.897-.306.446.02.824.2 1.133.541.327.319.578.83.755 1.532.038.277.053.608.045.993l.018.573.39-.69c.28-.462.664-.98 1.15-1.55.339-.33.684-.539 1.035-.627.349-.109.682-.033 1 .226.553.206.948.586 1.186 1.139.234.533.371 1.241.412 2.124.01.523.054.91.128 1.163.073.232.165.462.277.689.169.057.222.222.158.493-.067.251-.17.386-.308.405a2.383 2.383 0 01-.7-.024 1.858 1.858 0 01-.707-.297c-.205-.174-.33-.429-.377-.766L83.5 46.38a7.904 7.904 0 00-.206-1.061c-.058-.275-.13-.437-.218-.485-.234-.09-.534.083-.898.517-.365.433-.741 1-1.13 1.7a26.584 26.584 0 00-1.069 2.144c-.292.666-.481 1.056-.567 1.168-.068.09-.22.081-.458-.028-.455-.078-.758-.229-.91-.45-.134-.244-.183-.53-.147-.858.053-.35.11-.822.17-1.416.08-.596.152-1.172.217-1.726.063-.574.098-.982.105-1.225-.101-.148-.246-.179-.436-.092-.173.064-.35.18-.529.345-.216.191-.462.528-.74 1.01a18.27 18.27 0 00-.832 1.659c-.186.409-.382.82-.588 1.231a29.88 29.88 0 01-.583 1.05 4.79 4.79 0 01-.48.701c-.217.474-.373.738-.467.791-.093.053-.288.03-.585-.071zm13.265 2.056c-.198.027-.33.025-.394-.007-.042-.014-.113-.085-.211-.213a.687.687 0 01.04-.37c.066-.11.159-.243.278-.4.171-.226.365-.505.582-.838.22-.312.418-.632.596-.96.197-.33.332-.59.407-.782.05-.23.084-.496.102-.802.039-.308.073-.645.104-1.013l-.057-.416c0-.142.035-.257.104-.348.12-.157.23-.233.332-.227.121.004.237.109.346.316.129.204.243.522.342.952.14.425.194.822.163 1.19-.03.367-.12.823-.267 1.368-.02.144-.12.37-.3.677-.18.308-.363.595-.549.863-.185.268-.307.406-.367.414a.37.37 0 00-.2.088c-.051.067-.11.146-.18.236-.068.09-.181.146-.34.168a3.958 3.958 0 01-.53.103zm14.251-4.38c-.592.102-1.044.043-1.357-.177-.315-.24-.476-.6-.481-1.084a.998.998 0 01.38-.325c.133-.059.335-.056.606.007.229.05.452.06.67.03.218-.03.43-.1.638-.21a.469.469 0 01.318-.103c.139-.02.275-.058.408-.117a9.5 9.5 0 00.95-.585c.389-.255.774-.54 1.154-.855a5.02 5.02 0 00.893-1c.034-.046.077-.173.129-.382.05-.228.059-.381.028-.458-.198.028-.509.11-.934.25a18.56 18.56 0 00-.901.275c-.408.117-.732.11-.972-.018-.239-.129-.464-.37-.674-.725-.081-.15-.079-.282.006-.395a2.5 2.5 0 00.232-.516c.136-.039.264-.066.383-.083a.542.542 0 01.398.036c.13.063.229.05.297-.04.089-.093.196-.118.323-.075.125.023.284.011.48-.036.195-.047.617-.135 1.266-.264a1.11 1.11 0 00.263-.067.366.366 0 00.176-.266c.049-.229.057-.462.025-.7a15.597 15.597 0 00-.214-1.121c-.165-.32-.304-.524-.417-.61a1.615 1.615 0 00-.431-.273c-.622.025-1.104.121-1.444.289-.343.148-.562.32-.656.514a2.048 2.048 0 01-.924.55c-.312.084-.5.039-.564-.134a2.06 2.06 0 00-.154-.463 3.479 3.479 0 01-.141-.587c-.027-.198.009-.303.108-.317.231-.375.394-.66.489-.855.091-.214.362-.372.813-.474.558-.198 1.048-.306 1.469-.324a3.499 3.499 0 011.226.105c.226.03.515.151.868.365.352.214.584.435.696.662.11.065.254.237.434.515.196.256.427.76.691 1.51.001.747-.038 1.419-.118 2.015a8.866 8.866 0 01-.341 1.712c-.164.568-.328.994-.491 1.28-.165.264-.368.554-.607.87a52.267 52.267 0 00-1.654 1.408c-.341.31-.616.518-.823.628-.207.109-.499.19-.875.241a1.982 1.982 0 01-.808.293c-.28.018-.559.046-.836.084zm9.839-2.804a2.53 2.53 0 01-.668-.454c-.211-.213-.341-.498-.389-.855-.028-.198-.034-.54-.02-1.027.014-.486.05-1.036.107-1.65.057-.613.12-1.187.188-1.721.15-.384.269-.764.359-1.14.09-.375.129-.603.119-.682.007-.243.018-.527.034-.853.036-.328.076-.626.12-.894.044-.269.083-.425.117-.47a.622.622 0 01.332-.228.529.529 0 01.425.002c.166.038.303.15.409.338.251.208.399.48.445.817.044.317 0 .807-.131 1.471-.124.421-.239.911-.344 1.47a59.23 59.23 0 00-.272 1.552c-.059.453-.088.76-.086.92l-.57.26c.293-.363.566-.733.817-1.11.248-.398.428-.706.54-.923.274-.502.51-.918.707-1.248.214-.352.489-.773.826-1.264.334-.51.682-.84 1.045-.991.38-.174.679-.275.897-.305.447.02.825.2 1.134.54.326.32.578.83.755 1.532.038.278.053.609.045.993l.018.573.39-.69c.28-.462.663-.979 1.15-1.55.339-.33.683-.538 1.035-.627.348-.108.681-.033 1 .226a2.01 2.01 0 011.185 1.14c.235.533.372 1.24.412 2.123.011.524.054.911.129 1.164.072.232.164.462.276.688.169.058.222.222.158.494-.066.25-.169.386-.307.405a2.38 2.38 0 01-.7-.025 1.86 1.86 0 01-.707-.297c-.205-.173-.331-.428-.377-.765l-.253-1.843a7.736 7.736 0 00-.206-1.062c-.058-.275-.13-.436-.218-.485-.234-.089-.533.084-.898.517-.364.434-.741 1-1.13 1.7-.388.7-.745 1.414-1.068 2.145-.293.666-.482 1.055-.567 1.168-.069.09-.221.08-.458-.028-.455-.079-.758-.229-.91-.45-.134-.244-.183-.53-.147-.858.053-.35.109-.823.169-1.416.08-.597.152-1.172.218-1.726.063-.574.097-.983.105-1.226-.101-.147-.247-.178-.437-.091a1.622 1.622 0 00-.528.345c-.216.19-.463.528-.74 1.01a18.328 18.328 0 00-.832 1.659c-.187.409-.383.82-.589 1.231-.209.392-.403.742-.583 1.049-.18.307-.34.541-.479.702-.218.474-.373.737-.467.79-.094.054-.289.03-.585-.07zm16.94-1.297c-.257.035-.472.014-.644-.063-.153-.08-.35-.194-.592-.343-.431-.344-.75-.684-.957-1.019-.21-.355-.309-.704-.296-1.05a.904.904 0 00-.001-.453l-.033-.238c-.112-.086-.15-.141-.113-.166a.712.712 0 00.094-.195c.119-.016.144-.13.074-.343-.061-.153-.029-.511.096-1.073a8.3 8.3 0 01.535-1.618c.092-.215.235-.497.429-.846.192-.37.405-.732.639-1.087.251-.378.482-.682.692-.913.439-.484.832-.851 1.182-1.101.349-.25.735-.454 1.157-.613.423-.16.713-.25.871-.271.179-.025.438.101.779.377.483.136.842.329 1.078.58.256.247.451.634.583 1.16.141.587.185 1.277.133 2.072-.036.772-.373 1.777-1.011 3.015-.397.782-.78 1.38-1.147 1.793-.37.394-.819.799-1.348 1.215a6.752 6.752 0 01-1.043.779 4.895 4.895 0 01-1.157.401zm2.422-3.542c.402-.6.71-1.158.922-1.671.232-.517.426-1.16.584-1.928a2.93 2.93 0 00.038-.823 4.61 4.61 0 00-.156-.917c-.06-.294-.152-.453-.277-.477-.257-.106-.549-.106-.878 0-.331.086-.672.324-1.022.716a7.455 7.455 0 00-1.341 2.152 24.33 24.33 0 00-.983 2.77c-.2.754-.19 1.338.028 1.752.235.392.622.49 1.161.295.555-.218 1.197-.84 1.924-1.87zm20.472.52a2.389 2.389 0 00-.369-.04l-.373-.07a1.574 1.574 0 00-.369-.04c-.236-.251-.362-.577-.376-.979a6.15 6.15 0 01.092-1.315c.099-.457.189-.904.271-1.339.102-.438.142-.807.121-1.107-.031-.076-.063-.092-.097-.047-.037.025-.053.058-.048.097-.117.178-.3.314-.549.41-.25.094-.481.176-.693.246-.368.11-.735.232-1.101.363-.366.13-.72.27-1.063.418a4.501 4.501 0 01-.228-.12 1.2 1.2 0 00-.199-.124c-.139.02-.24.164-.304.435a6.412 6.412 0 00-.137.988c-.031.368-.062.726-.095 1.073a3.643 3.643 0 01-.085.708c-.312.084-.538.125-.68.124a7.308 7.308 0 01-.708-.084c-.188-.197-.306-.393-.353-.588a2.741 2.741 0 010-.666l.087-1.132c.041-.289.121-.663.24-1.123.069-.232.13-.452.182-.661a1.73 1.73 0 00.051-.734c.131-.22.21-.453.237-.699.027-.246.064-.493.111-.742.205-.856.368-1.514.486-1.974.136-.483.226-.86.27-1.128a3.56 3.56 0 00.051-.733c-.018-.28.131-.442.448-.486.198-.027.417.024.657.152.237.11.429.264.578.466.149.202.19.428.124.68-.038.166-.102.437-.192.813-.073.353-.16.749-.261 1.187-.085.415-.172.81-.262 1.186a7.093 7.093 0 01-.195.784.44.44 0 01-.091.224c-.054.048-.074.122-.06.22.152.08.385.09.7.026.331-.086.561-.178.689-.276l.861-.119.892-.122c.322.137.586.373.794.708.087-.395.207-.916.361-1.563.151-.667.293-1.322.427-1.967.134-.644.199-1.127.195-1.45a1.09 1.09 0 01.173-.508c.1-.155.213-.282.341-.38.297.1.58.183.852.247.288.04.497.244.628.61.005.18-.01.365-.045.551l-.114.5c-.119.602-.28 1.27-.482 2.004a32.244 32.244 0 00-.547 2.195 12.044 12.044 0 00-.237 2.031c.008.06-.014.265-.067.615a14.62 14.62 0 01-.133 1.018c-.036.328-.063.503-.08.525a.69.69 0 01-.066.403 1.28 1.28 0 01-.26.308zm7.587-.618c-.872.12-1.63-.11-2.274-.687-.647-.598-1.029-1.394-1.145-2.387-.058-.719-.024-1.5.103-2.346a12.76 12.76 0 01.685-2.516c.31-.83.674-1.566 1.09-2.21.417-.642.876-1.119 1.379-1.43a3.41 3.41 0 01.591-.323c.23-.093.464-.155.702-.188a2.19 2.19 0 01.699.025c.246.027.454.07.623.127.356.092.637.225.842.399.206.174.406.46.602.856.111.368.177.632.199.79.022.159.005.403-.051.734-.14.746-.363 1.403-.669 1.97-.306.566-.751 1.072-1.337 1.515a2.12 2.12 0 01-.532.316 3.355 3.355 0 01-1.803.096 2.125 2.125 0 01-.956-.565l-.24-.21-.057.25a15.81 15.81 0 00-.272 1.552 5.99 5.99 0 00.022 1.269c.033.238.084.463.153.675.09.21.195.387.316.532.095.108.236.18.423.215.203.012.414.003.632-.027l.416-.057c.156-.041.299-.101.429-.18.321-.165.571-.33.75-.496.199-.169.397-.348.593-.536l.111-.076-.03.004a5.94 5.94 0 00.575-.442l.273-.22c.079-.01.152-.07.217-.18.148-.102.35-.099.607.007.277.103.43.264.46.482-.007.102-.074.273-.203.512a4.87 4.87 0 01-.457.639c-.154.202-.289.322-.406.358a1.184 1.184 0 01-.191.147.646.646 0 00-.222.152l.03-.004c-.146.262-.308.405-.486.43l-.238.033c-.06.15-.296.343-.708.581a3.76 3.76 0 01-1.245.414zm.442-6.723c.357-.049.65-.19.881-.424.247-.256.452-.526.615-.811.323-.59.48-1.136.472-1.64.009-.526-.099-.874-.325-1.045a.746.746 0 00-.339-.044c-.082-.01-.246.044-.493.158-.173.064-.4.247-.682.548a12.63 12.63 0 00-.833.993 8.977 8.977 0 00-.574.896l-.301.677c.151-.081.295-.131.434-.15.156-.042.246-.044.272-.007.024.178.077.342.158.493.098.128.202.224.312.29a.69.69 0 00.403.066zm15.264 3.476c-.232.072-.495.068-.789-.013a2.374 2.374 0 01-.812-.403 1.61 1.61 0 01-.48-.63c-.136-.406-.157-.928-.063-1.567.111-.661.298-1.363.559-2.105.279-.766.602-1.506.968-2.223.386-.719.794-1.35 1.224-1.894.447-.566.877-.968 1.288-1.206.199-.17.355-.281.469-.337a.61.61 0 01.412-.087c.164.018.405.085.724.203.288.041.509.102.661.182.152.08.358.254.616.521.2.275.359.556.479.843.12.286.236.613.347.982.226.473.33.792.312.956a.744.744 0 01-.133.352c-.132.22-.158.324-.078.313l-.014.123c.008.06-.018.164-.078.314a9.914 9.914 0 00-.14 1.412c.003.464.065.839.185 1.125.218.414.54.632.967.654.427.023.829-.214 1.205-.71.196-.188.385-.356.567-.502.179-.166.28-.17.302-.01l.101.076a.37.37 0 00.216.03c.099-.013.164.019.195.095.05.074.065.183.044.327a1.177 1.177 0 01-.121.44c-.256.339-.378.557-.364.657l-.103.135a7.975 7.975 0 01-.286.342c-.327.267-.768.438-1.322.514-.535.074-.966.022-1.294-.155a3.662 3.662 0 01-.954-.777c-.289-.344-.492-.65-.61-.916l-.189-.277-.785.683a7.414 7.414 0 01-.627.722 8.334 8.334 0 00-.419.482 1.033 1.033 0 01-.18.236.286.286 0 01-.195.118l-.208.029-.09.012c.011.08-.074.192-.256.338a2.536 2.536 0 01-.613.387c-.227.112-.44.181-.638.209zm-.517-1.564c.119-.017.315-.135.588-.354.29-.241.605-.517.946-.826a9.51 9.51 0 00.935-.916c.281-.3.472-.529.572-.684l.334-.44c.151-.222.286-.412.406-.57a4.428 4.428 0 00.719-1.825c.091-.658.004-1.151-.263-1.478-.109-.207-.224-.312-.346-.316-.122-.003-.36.1-.715.31-.218.172-.479.48-.781.925-.286.423-.591.92-.917 1.489a21.597 21.597 0 00-.858 1.692 14.994 14.994 0 00-.629 1.6c-.155.486-.215.858-.18 1.116a.37.37 0 00.088.2l.101.077zm11.118.441a2.297 2.297 0 01-.499-.325c-.116-.105-.178-.268-.188-.489a8.415 8.415 0 01.052-.946 8 8 0 01.163-1.022c.01-.364.031-.73.061-1.098a3.43 3.43 0 01.337-1.076 74.67 74.67 0 00.543-2.89c.173-.953.422-2.077.749-3.374a2.41 2.41 0 01.203-.512c.083-.133.155-.264.218-.394.009-.082.063-.13.163-.143a.693.693 0 01.394.006.625.625 0 01.355.164c.077-.031.204.083.38.341.197.256.286.466.268.63.011.079.006.19-.014.335a1.397 1.397 0 01-.126.41 1.42 1.42 0 00-.189.39 10.2 10.2 0 01-.279.614c-.122.581-.227 1.07-.314 1.466-.087.395-.197.845-.33 1.347-.112.218-.184.5-.217.848a69.11 69.11 0 01-.104 1.013c-.09.376-.174.72-.252 1.034-.058.31-.082.506-.071.585-.079.455-.128.906-.148 1.353a3.629 3.629 0 01-.236 1.153c.021.3-.041.51-.186.63-.125.119-.369.102-.733-.05zm7.168-.5c-.322.004-.568-.023-.738-.08a19.597 19.597 0 01-.977-.502c-.27-.205-.647-.527-1.131-.965a36.728 36.728 0 01-1.464-1.404c-.495-.517-.908-.955-1.24-1.313l.995-1.802c.301.281.55.55.746.806.197.255.351.426.464.511a51.86 51.86 0 011.294 1.488c.334.378.628.681.881.909a5.6 5.6 0 00.777.59c.285.162.63.327 1.037.493a.774.774 0 01.203.154c.07.07.106.187.108.348-.05.23-.12.38-.211.453-.074.05-.322.155-.744.314zm-5.684-4.579c-.165-.32-.171-.663-.019-1.027.169-.386.373-.667.611-.84.06-.15.127-.25.201-.301.091-.073.141-.15.15-.233.029-.084.113-.207.253-.367.159-.163.3-.314.422-.452a24.974 24.974 0 002.039-1.915c.336-.35.618-.65.845-.904.248-.256.397-.418.449-.485a.383.383 0 01.217-.181c.114-.056.265-.057.454-.002.246.027.418.104.516.232.096.108.168.34.217.697.089.21.033.46-.17.75-.185.268-.485.581-.901.941-.144.121-.342.3-.592.536a11.6 11.6 0 00-.607.658 8.765 8.765 0 00-.567.502 6.966 6.966 0 00-.61.63c-.145.12-.329.327-.551.62a3.058 3.058 0 01-.699.64c-.553.682-.926 1.057-1.118 1.123-.193.067-.373-.14-.54-.622zm8.402 1.602a3.257 3.257 0 01.085-.708c.061-.291.123-.572.187-.843.064-.272.11-.45.139-.534.175-.489.33-.984.463-1.487.15-.525.26-1.045.331-1.56l.123-.652c.078-.314.146-.626.204-.937.076-.333.104-.57.085-.708.002-.283.067-.544.196-.784a1.36 1.36 0 01.592-.536c.224.01.422.054.594.13.172.078.334.157.486.237.135.102.201.285.196.548a7.515 7.515 0 01-.103 1.014 8.086 8.086 0 01-.27 1.127c-.118.46-.247.922-.385 1.385-.122.44-.214.797-.278 1.068a69.896 69.896 0 00-.41 1.873 29.791 29.791 0 01-.323 1.62c-.047.248.08.432.379.553.353.072.735.06 1.145-.036.408-.117.792-.26 1.153-.431.377-.193.685-.377.923-.55.239-.175.356-.282.35-.322.001-.14.008-.313.02-.517.032-.206.097-.548.193-1.026.116-.48.27-1.198.462-2.153l.07-.373a15.3 15.3 0 01.187-.843c.076-.333.137-.624.184-.873l.065-.403c-.07-.515-.024-.986.14-1.412.161-.446.372-.747.633-.904.156-.042.305-.062.446-.062a.616.616 0 01.381.13c.178.117.345.235.503.355.158.12.264.307.319.561-.06.15-.096.327-.109.53a1.309 1.309 0 01-.169.538 6.383 6.383 0 00-.223.576.95.95 0 00-.02.518l-.509 2.038c-.087.395-.195.854-.326 1.377-.11.52-.184.863-.222 1.03l.964-.254c.258-.035.507-.06.748-.072.237-.033.518.03.843.187.059-.008.118.054.177.187.076.111.145.253.209.426.084.17.156.322.214.455-.021.285-.108.681-.261 1.187a49.32 49.32 0 01-.488 1.52c-.173.508-.32.912-.44 1.211-.06.15-.132.29-.215.423l-.24.457c-.169.387-.394.59-.674.608-.28.018-.553-.136-.82-.463-.03-.218-.023-.532.022-.942.068-.393.112-.661.132-.805.012-.063.074-.273.186-.632.115-.338.229-.687.341-1.046.113-.358.161-.597.145-.716.006-.102-.025-.178-.092-.23-.068-.05-.139-.051-.212 0-.06.007-.22.09-.481.247l-.724.463c-.244.134-.416.208-.515.222a9.45 9.45 0 01-1.09.664c-.266.118-.646.29-1.14.52-1.027.162-1.753.241-2.178.239-.427-.023-.792-.114-1.097-.274-.372-.211-.649-.466-.831-.764a2.53 2.53 0 01-.297-.837l-.073-.535zm20.281-.06a4.05 4.05 0 01-.704-.72 5.242 5.242 0 01-.643-1.154 2.866 2.866 0 01-.149-.646 2.89 2.89 0 00-.081-.594 1.77 1.77 0 01-.236.487c-.1.155-.203.29-.308.405-.069.09-.225.273-.47.55a4.989 4.989 0 01-.759.649c-.597.505-1.111.808-1.541.908-.411.096-.837-.067-1.278-.491a2.326 2.326 0 01-.802-.768c-.162-.3-.222-.737-.179-1.308a11.341 11.341 0 01.02-2.062c.066-.695.271-1.632.615-2.81.305-.87.54-1.507.707-1.913.163-.427.269-.683.318-.77.284-.14.533-.165.747-.073.212.072.356.244.434.515.146.182.172.522.079 1.02-.074.494-.241 1.112-.503 1.855a43.16 43.16 0 00-.496 2.127c-.126.704-.176 1.296-.15 1.777.025.481.184.752.475.813.191.075.495.003.909-.216.434-.22.885-.686 1.353-1.397.487-.713.911-1.75 1.269-3.111.104-.418.176-.781.214-1.09.036-.328.038-.681.007-1.06a1.296 1.296 0 01-.056-.628c.052-.21.187-.4.406-.571.066-.11.163-.214.29-.313.126-.118.215-.13.268-.036l.471-.095c.077-.03.133.012.169.128a.67.67 0 00.245.239c.242.148.355.527.337 1.135-.018.608-.181 1.478-.49 2.61-.265.865-.439 1.514-.521 1.95a5.546 5.546 0 00-.041 1.247c.049.356.165.684.347.982.182.298.439.555.772.772.237.109.377.25.421.426.064.173.103.38.116.62-.016.184-.114.35-.296.495a1.278 1.278 0 01-.604.235 1.124 1.124 0 01-.682-.119zm8.797-11.625c.034.097.054.316.06.659.024.32.028.642.012.967.001.303-.012.506-.038.61a5.598 5.598 0 00-.206 1.15 4.615 4.615 0 01-.198 1.208 4.974 4.974 0 00-1.066-.49 11.43 11.43 0 01-1.092-.456c-.22-.13-.39-.269-.511-.414a1.308 1.308 0 01-.192-.519c-.021-.3.029-.6.149-.898.121-.3.285-.574.493-.825a2.83 2.83 0 01.64-.633c.204-.129.516-.212.935-.25.438-.04.777-.076 1.014-.108zm.398 10.423c.205-.129.361-.241.469-.337.105-.115.147-.323.127-.623a2.6 2.6 0 01.045-.551.956.956 0 00-.018-.573c.09-.376.184-.944.282-1.704a39.09 39.09 0 00.294-2.493 39.52 39.52 0 00.201-2.51c.033-.793.024-1.377-.028-1.753-.054-.397-.185-.692-.393-.885-.209-.194-.492-.346-.85-.459l-.744.102a9.709 9.709 0 01-.747.073 3.542 3.542 0 00-1.091.21 35.65 35.65 0 01-1.079.3.266.266 0 00-.115.046.464.464 0 00-.107.105c-.293.222-.52.405-.682.548a2.979 2.979 0 00-.397.418 1.595 1.595 0 00-.301.677c-.027.246-.094.639-.202 1.179-.049.229-.06.442-.033.64.047.196.115.398.204.608.224.454.44.777.648.97.205.175.46.341.765.502.167.037.335.085.504.142.167.038.323.077.47.117-.287.262-.655.595-1.104 1-.452.385-.889.738-1.309 1.058-.42.32-.754.537-1.001.652-.21.09-.395.206-.558.35-.142.14-.269.319-.38.536.103.309.242.592.419.85.194.237.47.34.83.31.039-.005.204-.128.494-.37.31-.244.655-.524 1.036-.839.378-.334.721-.634 1.028-.898.324-.287.531-.466.622-.54.071-.07.242-.224.512-.463a7.19 7.19 0 01.759-.65c.128-.098.24-.164.336-.197.096-.034.159-.022.187.035a46.742 46.742 0 01-.215 1.967 6.394 6.394 0 00.086 1.957c.172.077.345.164.52.261l.516.232zm2.835 2.003c-.198.028-.33.025-.395-.006-.042-.014-.112-.086-.211-.213a.686.686 0 01.041-.37 4.38 4.38 0 01.278-.4c.171-.226.365-.505.582-.838a9.83 9.83 0 00.595-.96c.197-.33.333-.59.407-.782.05-.23.084-.496.103-.802.038-.308.073-.646.103-1.013a102.62 102.62 0 01-.057-.416.562.562 0 01.104-.348c.12-.158.23-.233.332-.227.122.003.237.109.346.316.129.204.243.522.343.952.138.425.193.821.162 1.189-.03.368-.119.824-.266 1.369-.021.144-.121.37-.301.677-.18.308-.363.595-.548.863-.186.268-.308.406-.368.414a.368.368 0 00-.199.088l-.18.236c-.068.09-.182.146-.34.168a3.942 3.942 0 01-.531.103zM78.332 78.27c-.592.101-1.044.042-1.357-.177-.315-.24-.476-.601-.481-1.085a.999.999 0 01.38-.325c.132-.058.335-.056.606.008.229.05.452.06.67.03.218-.03.43-.1.637-.21a.47.47 0 01.32-.104 1.52 1.52 0 00.407-.117c.264-.137.58-.332.95-.584.389-.255.773-.54 1.154-.855.379-.335.676-.668.893-1 .034-.046.077-.173.13-.382.049-.229.058-.382.027-.458-.198.027-.51.11-.934.25a17.71 17.71 0 00-.901.275c-.408.116-.732.11-.972-.018-.24-.129-.464-.37-.674-.725-.082-.15-.08-.282.006-.395.083-.133.16-.305.232-.516a2.76 2.76 0 01.383-.083.543.543 0 01.398.036c.13.063.229.05.297-.04.088-.094.196-.118.323-.075.125.023.284.011.48-.036.195-.047.617-.135 1.266-.265.099-.013.186-.035.263-.066a.364.364 0 00.175-.267c.05-.228.058-.462.026-.7a15.431 15.431 0 00-.214-1.12c-.165-.321-.304-.524-.417-.61a1.614 1.614 0 00-.431-.274c-.622.025-1.104.122-1.444.29-.343.148-.562.319-.656.514a2.042 2.042 0 01-.924.55c-.312.084-.5.039-.564-.134a2.08 2.08 0 00-.154-.463 3.377 3.377 0 01-.14-.587c-.028-.198.008-.304.107-.317.231-.375.394-.66.489-.855.091-.214.362-.373.813-.475.558-.198 1.048-.305 1.47-.323a3.497 3.497 0 011.225.104c.226.03.515.152.868.366.352.214.584.434.696.661.11.066.254.238.434.516.196.256.427.759.691 1.51.001.747-.038 1.418-.118 2.015a8.926 8.926 0 01-.34 1.712c-.165.568-.329.994-.492 1.279-.165.265-.368.555-.607.87a52.904 52.904 0 00-1.654 1.409c-.342.309-.616.518-.823.627-.207.11-.499.19-.875.242a1.98 1.98 0 01-.808.292c-.28.019-.559.047-.836.085zm9.839-2.805a2.534 2.534 0 01-.668-.453c-.21-.213-.34-.498-.39-.855-.027-.198-.033-.54-.019-1.027.014-.486.05-1.036.107-1.65.057-.613.12-1.187.188-1.722.15-.383.27-.763.359-1.139.09-.376.13-.603.118-.682.008-.244.02-.528.035-.853a17.2 17.2 0 01.12-.895c.044-.268.083-.425.117-.47a.62.62 0 01.332-.227.527.527 0 01.425.002c.166.038.303.15.41.338.25.207.398.48.444.817.044.317 0 .807-.131 1.471-.124.42-.239.911-.344 1.47a59.47 59.47 0 00-.272 1.552c-.06.452-.088.759-.086.92l-.57.26c.293-.363.566-.734.817-1.111.248-.398.428-.705.54-.922.274-.502.51-.918.707-1.248.214-.353.49-.774.826-1.264.334-.51.682-.84 1.045-.992.38-.173.68-.275.897-.305.447.02.825.2 1.134.541.326.319.578.83.755 1.532.038.277.053.608.045.993l.018.573.39-.69c.28-.462.663-.979 1.15-1.55.338-.33.683-.538 1.035-.627.348-.109.681-.033 1 .226a2.01 2.01 0 011.185 1.14c.235.532.372 1.24.412 2.123.011.523.054.911.129 1.163.072.233.164.462.276.69.169.057.222.221.158.492-.066.252-.169.387-.307.406a2.386 2.386 0 01-.7-.025 1.859 1.859 0 01-.707-.297c-.206-.173-.331-.429-.377-.766l-.253-1.842a7.909 7.909 0 00-.206-1.062c-.058-.275-.13-.437-.218-.485-.234-.09-.533.083-.898.517-.364.433-.74 1-1.13 1.7a26.43 26.43 0 00-1.068 2.145c-.293.666-.482 1.055-.567 1.168-.069.09-.221.08-.458-.028-.455-.08-.758-.23-.91-.45-.134-.245-.183-.53-.148-.859.053-.35.11-.822.17-1.416.08-.596.152-1.171.218-1.725.063-.574.097-.983.105-1.226-.102-.148-.247-.178-.437-.092-.173.064-.349.18-.528.345-.216.192-.463.528-.74 1.01a18.28 18.28 0 00-.832 1.66c-.187.408-.383.819-.589 1.23a29.88 29.88 0 01-.583 1.05 4.74 4.74 0 01-.48.701c-.217.474-.372.738-.466.791-.094.053-.289.03-.585-.07zm16.94-1.296c-.257.035-.472.014-.644-.063-.153-.08-.35-.195-.592-.343-.431-.344-.75-.684-.957-1.02-.211-.354-.309-.704-.296-1.049a.904.904 0 00-.001-.454l-.033-.238c-.112-.085-.15-.14-.113-.166a.71.71 0 00.094-.194c.119-.017.144-.131.074-.344-.061-.153-.029-.51.096-1.072a8.296 8.296 0 01.535-1.618 9.85 9.85 0 01.429-.847c.192-.37.405-.732.639-1.087.251-.377.481-.681.692-.912.438-.484.832-.851 1.182-1.101.349-.25.735-.454 1.157-.613.422-.16.713-.25.871-.271.179-.025.438.1.779.377.483.136.842.329 1.078.579.256.247.451.634.583 1.161.141.587.185 1.277.133 2.072-.036.772-.373 1.777-1.011 3.015-.397.781-.78 1.379-1.147 1.793-.37.394-.819.799-1.348 1.214a6.71 6.71 0 01-1.044.78c-.32.165-.706.298-1.156.4zm2.422-3.543a9.8 9.8 0 00.922-1.67c.232-.517.426-1.16.584-1.928a2.93 2.93 0 00.038-.823 4.613 4.613 0 00-.156-.917c-.06-.295-.153-.454-.277-.477-.257-.106-.549-.106-.878 0-.331.085-.672.324-1.022.715a7.458 7.458 0 00-1.341 2.153c-.352.815-.68 1.738-.983 2.77-.2.753-.19 1.337.028 1.752.235.391.622.49 1.161.294.555-.217 1.197-.84 1.924-1.869zm20.722-.302a1.703 1.703 0 01-.728-.233 1.442 1.442 0 01-.506-.597 1.301 1.301 0 01-.105-.772c.052-.35.097-.69.133-1.018.053-.35.077-.687.073-1.01-.004-.18.03-.447.103-.8.09-.376.175-.782.257-1.217.082-.435.098-.831.049-1.188a1.976 1.976 0 00-.174-.612.74.74 0 00-.418-.396 3.021 3.021 0 00-1.22-.287 38.824 38.824 0 01-1.218-.045c-.042-.014-.181.005-.416.057-.215.05-.403.076-.564.078l-.089.678a7.76 7.76 0 00-.059.674c-.047.25-.098.539-.154.87-.055.33-.102.65-.141.958-.051.511-.09.89-.117 1.136-.027.246-.064.493-.11.742a19.85 19.85 0 01-.177 1.145 8.171 8.171 0 00-.071.585c-.015.183-.06.371-.135.563a.497.497 0 00-.031.216l.029.209a.69.69 0 01-.066.402 1.021 1.021 0 01-.201.3 1.06 1.06 0 01-.277.19 1.65 1.65 0 00-.307.193c-.219-.131-.379-.26-.477-.388a4.12 4.12 0 00-.426-.457 71.32 71.32 0 00.132-1.471c.056-.472.103-.872.138-1.2.053-.35.104-.57.153-.657.082-.133.111-.369.084-.708a3.464 3.464 0 01.134-1.018 1.184 1.184 0 01.007-.607l.157-.627c.089-.375.119-.753.087-1.132-.015-.402-.008-.796.019-1.184.197-.188.353-.3.469-.337.113-.055.298-.111.552-.166l.036-.187c.008-.082.019-.154.03-.216.288-.261.689-.428 1.204-.498.515-.071.951-.06 1.306.032a.5.5 0 00.153.01.823.823 0 01.183.005c.2-.008.448.03.741.11.291.06.576.153.856.276.279.123.498.245.655.364.468.32.804.708 1.007 1.164.224.454.37.928.438 1.424.075.696.05 1.396-.076 2.1a40.058 40.058 0 00-.286 1.674c-.024.266-.034.49-.029.67.025.179.087.342.188.49.101.147.235.31.4.49-.006.101-.065.26-.176.478-.095.195-.221.303-.38.325a.491.491 0 00-.336.197.74.74 0 01-.303.223zm7.844-1.107c-.405.137-.669.203-.79.2-.105-.027-.28-.124-.525-.292a2.758 2.758 0 01-.884-.484 2.675 2.675 0 01-.547-.682c-.117-.267-.178-.49-.183-.671-.036-.702.031-1.468.2-2.299.169-.83.401-1.64.697-2.427.296-.788.636-1.47 1.022-2.048.402-.6.81-1.01 1.224-1.228.375-.213.743-.324 1.105-.334.362-.01.646.144.85.459.376.534.357.91-.057 1.128-.06.008-.125.048-.196.118-.074.05-.105.115-.094.194.084.03.304.01.658-.06.351-.088.699-.197 1.045-.325.363-.15.597-.284.702-.4a.69.69 0 01.256-.125c.059-.008.21-.009.454-.002.35.053.535.149.554.287a.4.4 0 00.121.226.289.289 0 00.221.06c.141.001.134.093-.023.276-.137.18-.384.437-.743.769-.344.289-.56.48-.648.573-.071.07-.062.21.027.42.21.355.28.79.209 1.304-.071.514-.249 1.054-.535 1.618a8.23 8.23 0 01-1.108 1.636c-.436.504-.92.954-1.451 1.35-.514.373-1.034.626-1.561.76zm-.685-1.238c.08-.011.213-.07.4-.176l.443-.303c.069-.09.156-.193.261-.309.122-.138.222-.222.298-.253a.7.7 0 00.285-.13c.108-.095.256-.267.444-.515a18.2 18.2 0 00.72-1.159 8.15 8.15 0 00.758-1.315c.167-.406.179-.761.036-1.065-.03-.076-.097-.118-.198-.124a1.443 1.443 0 01-.348-.104 1.156 1.156 0 01-.585-.07c-.174-.098-.383-.22-.625-.369l-.557-.53-.436.576c-.274.36-.546.882-.816 1.565-.252.66-.453 1.334-.601 2.02-.151.667-.22 1.192-.208 1.574.02.3.097.49.23.574.132.082.299.12.499.113zm12.371-.003a1.863 1.863 0 01-.872.27c-.339.027-.81-.02-1.412-.138-.039.005-.134-.022-.283-.082a4.117 4.117 0 01-.427-.245 2.207 2.207 0 01-.359-.405c-.379-.412-.6-1.068-.663-1.968-.063-.9.068-2.008.393-3.324.098-.316.254-.721.469-1.215.235-.497.465-.952.691-1.367.243-.437.42-.694.531-.77l.31-.163c.207-.11.467-.276.78-.5.093-.054.197-.109.31-.164a3.02 3.02 0 01.404-.147 1.08 1.08 0 01.357-.049c.399-.034.825.058 1.279.279.472.197.87.456 1.197.774.323.299.453.584.389.855.006.04-.043.127-.146.262a6.35 6.35 0 01-.311.376 2.108 2.108 0 00-.257.338c-.083.133-.215.201-.396.206a.771.771 0 01-.478-.177 1.137 1.137 0 01-.29-.565c-.061-.153-.23-.282-.506-.385l-.386-.16c-.158.023-.366.203-.622.54-.24.316-.471.691-.694 1.125a5.202 5.202 0 00-.746 1.405c-.193.511-.338.995-.437 1.453l-.175.932c-.052.21-.024.488.084.837.108.348.208.557.298.625.084.029.284.012.598-.052.334-.066.725-.16 1.173-.282.445-.142.878-.292 1.3-.451a6.382 6.382 0 001.026-.474c.344-.29.652-.473.923-.55.272-.078.481-.107.625-.086.228.049.372.14.431.273.058.134.031.3-.084.496-.117.178-.331.38-.644.604-.295.202-.558.42-.788.653-.214.211-.314.366-.3.465a.54.54 0 00-.255.126c-.074.05-.142.07-.204.058a4.64 4.64 0 00-.464.155c-.269.097-.547.206-.833.326-.267.118-.445.213-.536.286zm7.665-1.75a2.53 2.53 0 01-.668-.453c-.211-.213-.341-.498-.39-.855-.027-.198-.033-.54-.019-1.026.014-.487.05-1.037.107-1.65.057-.614.12-1.188.188-1.722.149-.384.269-.764.359-1.14.09-.375.129-.602.118-.682.007-.243.019-.527.035-.852.036-.328.076-.627.12-.895.044-.269.083-.425.117-.47a.619.619 0 01.332-.228.526.526 0 01.424.003c.167.037.304.15.41.337.251.208.399.48.445.817.043.317 0 .808-.132 1.472-.124.42-.238.91-.343 1.47a59.23 59.23 0 00-.272 1.552c-.059.452-.088.758-.086.92l-.57.26c.293-.364.565-.734.817-1.112.248-.397.428-.704.539-.922.275-.502.511-.918.708-1.248.214-.352.489-.773.826-1.264.334-.51.682-.84 1.045-.991.38-.173.679-.275.897-.305.447.02.825.2 1.134.54.326.32.578.83.755 1.532.038.278.053.609.045.993l.018.573.39-.69c.28-.461.663-.978 1.15-1.55.338-.33.683-.538 1.034-.627.349-.108.682-.033 1 .227.553.206.949.586 1.186 1.139.234.533.372 1.24.412 2.124.011.523.054.91.129 1.163.072.232.164.462.276.689.169.057.222.221.158.493-.066.251-.169.386-.308.405a2.378 2.378 0 01-.699-.025 1.853 1.853 0 01-.707-.296c-.206-.174-.331-.43-.378-.766l-.252-1.843a7.89 7.89 0 00-.206-1.062c-.058-.274-.13-.436-.218-.485-.234-.088-.533.084-.898.517-.364.434-.741 1-1.13 1.7-.388.7-.745 1.414-1.069 2.145-.292.666-.481 1.055-.566 1.168-.069.09-.221.081-.458-.028-.455-.079-.758-.229-.91-.45-.134-.244-.183-.53-.148-.858.053-.35.11-.823.17-1.416.08-.597.152-1.172.218-1.726.062-.574.097-.982.104-1.226-.101-.147-.246-.178-.436-.091-.173.064-.349.18-.528.345-.216.191-.463.528-.74 1.01a18.319 18.319 0 00-.833 1.659c-.186.409-.382.82-.588 1.231-.209.392-.403.742-.583 1.05a4.85 4.85 0 01-.479.701c-.218.474-.374.738-.467.79-.094.054-.289.03-.585-.07zm17.347-1.08c-.255.056-.465.065-.632.027-.169-.057-.382-.14-.639-.245-.482-.277-.855-.57-1.119-.876-.247-.33-.384-.664-.41-1.004a.97.97 0 00-.066-.475l-.058-.204c-.132-.083-.18-.137-.143-.162a.383.383 0 00.065-.19c.153-.062.158-.174.014-.336-.081-.15-.1-.511-.057-1.082.06-.594.165-1.153.315-1.679.069-.231.169-.538.298-.919.149-.384.319-.77.508-1.16.186-.409.363-.736.531-.981.368-.555.705-.975 1.009-1.259a4.893 4.893 0 011.103-.787c.375-.213.65-.342.825-.386.176-.044.44.04.792.254.495.074.879.223 1.152.448.29.202.54.552.749 1.048.237.553.38 1.23.429 2.03.066.779-.133 1.825-.599 3.141-.271.825-.567 1.46-.889 1.909-.303.445-.682.92-1.137 1.428a6.965 6.965 0 01-.939.885c-.292.222-.66.414-1.102.576zm1.894-3.863c.314-.648.547-1.236.697-1.76.167-.549.267-1.219.3-2.01a3.423 3.423 0 00-.08-.807 4.322 4.322 0 00-.275-.901c-.097-.27-.207-.406-.328-.41-.272-.063-.559-.023-.862.12-.306.122-.621.407-.943.855a8.565 8.565 0 00-.738 1.464c-.19.531-.353 1.109-.489 1.733a30.743 30.743 0 00-.364 1.988c-.095.78-.007 1.353.266 1.72.292.364.692.41 1.2.138.505-.291 1.043-1.001 1.616-2.13zm6.062 2.802c-.238.032-.45.031-.637-.004a1.2 1.2 0 01-.427-.244l-.294-.383a3.907 3.907 0 01-.278-.477 1.17 1.17 0 01.203-.512c.117-.178.304-.214.56-.108.04-.005.082.01.127.043.045.035.1.067.165.099.687-.438 1.222-.955 1.604-1.553.4-.62.772-1.297 1.115-2.03a3.908 3.908 0 01-1.075-.337c-.347-.175-.606-.371-.778-.59a2.871 2.871 0 01-.541-1.076c-.119-.428-.201-.659-.246-.693.124-.421.187-.773.189-1.056.021-.285.064-.564.127-.835.062-.29.206-.634.435-1.029.18-.307.412-.601.697-.883.281-.3.56-.55.835-.75.276-.2.483-.309.622-.328.229.05.435.011.62-.115a.702.702 0 01.59-.111.879.879 0 00.212 0c.077-.03.136-.038.179-.024.509.031.963.11 1.364.237.401.126.694.42.878.878-.042.43-.094.861-.156 1.294-.045.41-.149.828-.313 1.254-.147.404-.29.827-.432 1.27-.124.421-.3.83-.529 1.224l.084.17.823.038c.342-.006.523-.01.543-.014.226.03.428.103.606.22.194.095.402.207.621.339a.483.483 0 01.033.237 1.018 1.018 0 01-.082.284c-.159.466-.325.943-.501 1.432-.178.468-.345.945-.5 1.431-.052.21-.088.466-.106.772a2.55 2.55 0 01-.14.746 3.328 3.328 0 01-.312.376c-.037.025-.078.02-.123-.014s-.157-.039-.335-.014c-.286-.022-.495-.145-.626-.369a1.408 1.408 0 00-.231-.362.591.591 0 01-.087-.412c.023-.124.048-.238.074-.343a1.63 1.63 0 01.104-.347c.115-.339.21-.675.286-1.008.075-.334.162-.659.26-.975a.448.448 0 00.074-.343l-.208.028a10.823 10.823 0 00-.424-.002 2.946 2.946 0 00-.488-.024 8.369 8.369 0 01-.32.317c-.128.098-.217.261-.266.49a6.675 6.675 0 00-.514.889 4.939 4.939 0 01-.544.892l-.667.879c-.203.29-.435.584-.697.883-.392.377-.777.591-1.153.643zm2.72-6.672c.096-.034.218-.172.367-.414.166-.265.328-.55.489-.855.177-.327.328-.62.454-.88.124-.279.191-.45.203-.512.005.04.033-.055.082-.284.049-.229.103-.498.162-.81.078-.313.149-.605.213-.876.063-.272.094-.417.091-.437-.282-.143-.502-.203-.661-.182a1.712 1.712 0 00-.548.197c-.706.298-1.264.718-1.675 1.26-.413.52-.678 1.162-.796 1.925-.066.696.051 1.255.351 1.678.318.4.74.464 1.268.19zm14.829 4.08a2.363 2.363 0 00-.369-.04l-.373-.07a1.572 1.572 0 00-.369-.04c-.236-.25-.361-.576-.376-.978-.017-.422.014-.86.093-1.315a51 51 0 00.27-1.34c.102-.437.142-.806.121-1.106-.03-.076-.063-.092-.097-.047-.037.025-.053.058-.047.097-.117.178-.3.314-.55.409a15.3 15.3 0 01-.693.246c-.368.111-.735.233-1.101.364-.365.13-.72.27-1.063.418a4.512 4.512 0 01-.228-.12 1.2 1.2 0 00-.199-.124c-.139.019-.24.164-.304.435a6.5 6.5 0 00-.137.988c-.03.368-.062.725-.095 1.073-.016.325-.044.561-.085.708-.311.083-.538.125-.679.124a7.26 7.26 0 01-.708-.085c-.189-.196-.306-.392-.353-.587a2.737 2.737 0 01-.001-.666l.087-1.133c.042-.288.122-.662.24-1.123.07-.231.13-.452.182-.66.07-.232.086-.477.051-.734.132-.22.211-.453.238-.7a9.27 9.27 0 01.11-.741c.206-.856.368-1.514.487-1.975.135-.483.225-.858.269-1.127.044-.268.061-.513.051-.734-.018-.28.131-.441.448-.485.198-.027.417.023.657.152.237.109.43.264.579.466a.766.766 0 01.123.68 86.02 86.02 0 01-.192.813 44.18 44.18 0 01-.261 1.186c-.084.416-.172.811-.261 1.187a7.05 7.05 0 01-.196.784.448.448 0 01-.09.224c-.054.048-.074.121-.061.22.152.08.386.089.7.025.331-.085.561-.177.689-.276l.862-.118.891-.123c.322.138.587.374.794.71.087-.396.207-.918.361-1.565.151-.666.293-1.322.427-1.966.134-.644.199-1.127.195-1.45a1.1 1.1 0 01.173-.508c.1-.155.214-.282.342-.38.296.1.58.183.851.246.288.041.498.245.628.61.005.181-.01.365-.045.552l-.113.5c-.12.602-.281 1.27-.483 2.004a32.85 32.85 0 00-.547 2.195 12.043 12.043 0 00-.237 2.031c.008.06-.014.264-.067.615a14.04 14.04 0 01-.133 1.017c-.036.328-.062.504-.079.526a.697.697 0 01-.066.403c-.066.11-.153.213-.261.308zm6.174-1.21a5.406 5.406 0 00-.581-.042 2.325 2.325 0 01-.683-.119c-.194-.094-.304-.23-.328-.409a2.499 2.499 0 01-.027-.42.711.711 0 01.189-.39.229.229 0 00.017-.092c-.003-.02.004-.041.022-.064a.607.607 0 00-.096-.26c-.051-.073-.065-.172-.041-.296.049-.23.084-.416.105-.56a1.73 1.73 0 00.008-.607l-.017-.119a.327.327 0 01.01-.152c.099-.458.166-.922.203-1.39a6.02 6.02 0 01.267-1.37c.167-.548.382-1.264.644-2.148.26-.903.47-1.73.63-2.478.049-.23.119-.38.21-.453a.544.544 0 01.374-.142c.241-.013.498.093.771.318.27.205.477.389.62.55-.146.404-.323.883-.53 1.436-.19.53-.371 1.05-.544 1.558-.155.486-.262.884-.32 1.195.28-.018.607-.063.98-.134a5.725 5.725 0 011.159-.16 5.7 5.7 0 001.16-.159c.331-.086.701-.187 1.109-.303.058-.311.111-.662.158-1.052.068-.393.134-.795.198-1.208a6.35 6.35 0 01.355-1.17c.152-.363.364-.655.637-.874.153-.061.272-.078.357-.049a1.1 1.1 0 01.351.133c.285.163.495.296.63.399.152.08.218.192.197.336-.02.144-.118.39-.292.736a2.27 2.27 0 00-.192.814 1.704 1.704 0 01-.229.758c-.034.045-.089.235-.164.568-.076.333-.162.739-.258 1.216l-.288 1.433-.253 1.246c-.053.35-.076.555-.067.615.015.26.012.533-.009.819-.025.265-.018.537.02.814.022.159-.011.285-.099.377a.545.545 0 01-.315.135 1.729 1.729 0 01-.674-.06 3.326 3.326 0 01-.572-.193.729.729 0 01-.249-.27 5.303 5.303 0 01-.138-.343c.051-.512.126-.997.225-1.455.116-.48.211-.967.284-1.462a.528.528 0 00.027-.246.528.528 0 00-.092-.23 8.419 8.419 0 00-1.999.215c-.666.151-1.323.292-1.971.422-.086.112-.172.366-.259.762-.07.373-.128.764-.173 1.174-.047.39-.087.689-.119.895.039.136.046.337.022.602a5.76 5.76 0 01-.132.806c-.067.251-.143.433-.228.546zm13.263-2.004c-.154.062-.359.11-.616.145a5.81 5.81 0 01-.696.005c-.187-.035-.284-.082-.292-.142-.014-.099-.07-.141-.169-.128l-.165-.098a1.32 1.32 0 00-.419-.185 1.642 1.642 0 01-.39-.855c-.046-.337-.028-.874.052-1.612-.008-.504.101-1.104.329-1.801.244-.72.557-1.46.937-2.219.381-.758.791-1.45 1.23-2.076.459-.628.889-1.101 1.29-1.419.239-.315.555-.51.949-.584a2.09 2.09 0 011.166.112c.212.072.432.203.66.394.228.19.448.403.662.636.214.233.397.47.552.711.089.21.146.404.17.583.042.155.069.354.082.594.032.238.051.599.057 1.082-.05.37-.08.819-.088 1.345.011.523.042.973.094 1.35.012.382.088.644.228.786.161.14.36.122.599-.052.221-.152.442-.233.663-.243.218-.03.395.007.53.11.155.1.249.268.281.506.033.238-.052.502-.255.792a3.078 3.078 0 01-.746.738 2.08 2.08 0 01-.889.364c-.218.03-.444-.07-.677-.3a5.112 5.112 0 01-.67-.908 83.182 83.182 0 01-.541-1.076l-.272-.66-1.111 1.395a14.1 14.1 0 01-.667.879c-.208.25-.334.43-.38.537-.075.192-.239.396-.492.612-.233.214-.565.441-.996.682zm-.151-1.766a8.397 8.397 0 001.041-1.02c.381-.457.749-.941 1.103-1.454.351-.533.638-1.017.861-1.451.274-.502.473-.963.597-1.384.124-.421.202-.815.232-1.183a2.708 2.708 0 00-.48-.63c-.213-.233-.391-.35-.532-.351-.436.06-.864.401-1.283 1.024-.403.6-.788 1.249-1.157 1.945-.066.11-.153.284-.262.52a18.31 18.31 0 01-.33.682l-.189.39c-.049.087-.137.331-.263.732-.11.379-.218.767-.325 1.165-.11.379-.157.627-.14.746.016.119.043.246.082.382.059.134.17.21.334.227.164.018.401-.095.711-.34zm16.186-10.792c.276.103.464.219.562.347.096.108.285.314.569.618l-.068.827c-.013.345-.038.681-.074 1.01a3.703 3.703 0 01-.14.745c.078.272.064.688-.041 1.248l-.281 1.704c-.103.58-.177 1.144-.222 1.696-.046.551-.002 1.02.131 1.405a1.224 1.224 0 00-.158.173.454.454 0 01-.157.173.83.83 0 01-.71.128 1.175 1.175 0 01-.634-.428c-.174-.239-.25-.5-.228-.786.024-.266.07-.666.138-1.2.065-.554.134-1.16.206-1.815.071-.656.136-1.29.193-1.904l.141-1.624c.039-.45.05-.744.031-.883-.025-.178-.177-.258-.457-.24a2.594 2.594 0 00-.858.148c-.292.08-.485.148-.578.2a2.888 2.888 0 00-.939.887 4.322 4.322 0 00-.537 1.164c-.124.42-.237.85-.338 1.288.036.116.061.223.074.322.011.08.063.163.156.252.118.125.28.203.486.236.207.032.422.053.645.063.223.01.42.043.589.1a.498.498 0 00.153.01.266.266 0 01.115-.046c.059-.008.114.024.164.098.172.219.298.403.379.554.081.15.042.378-.118.682-.45.405-.89.799-1.322 1.181a13.82 13.82 0 00-1.251 1.262c-.119.158-.273.29-.46.396-.17.084-.314.215-.431.392-.1.155-.221.303-.363.444a3.31 3.31 0 00-.367.414 2.31 2.31 0 01-.21.24c-.074.051-.165.043-.275-.022-.3.02-.536-.078-.707-.297a3.154 3.154 0 01-.445-.817c.18-.307.475-.66.884-1.06.407-.42.864-.845 1.369-1.278a28.017 28.017 0 011.471-1.201c-.521.03-.932-.024-1.234-.164a8.23 8.23 0 01-.824-.493 1.667 1.667 0 01-.478-1.054 3.862 3.862 0 01.161-1.264c.121-.44.252-.812.392-1.114.034-.045.049-.087.043-.127a.371.371 0 01.047-.097c.196-.491.369-.848.52-1.07.171-.226.455-.507.853-.845.145-.12.304-.213.477-.277a2.61 2.61 0 01.519-.192c.193-.067.457-.124.794-.17a8.763 8.763 0 011.019-.08c.339-.026.604-.012.793.043.144.02.28.053.407.096a.77.77 0 00.424.002zm10.021 7.072a3.195 3.195 0 01.085-.708c.061-.29.123-.572.187-.843s.11-.45.139-.534c.175-.488.329-.984.462-1.486a11.17 11.17 0 00.332-1.56l.122-.653c.079-.313.147-.626.205-.936.076-.334.104-.57.085-.709a1.66 1.66 0 01.195-.783c.149-.243.346-.421.593-.536.224.01.421.053.593.13.172.078.335.156.487.236.135.103.201.286.196.549a8.233 8.233 0 01-.373 2.14c-.118.46-.247.923-.385 1.386-.122.44-.214.796-.278 1.068a69.81 69.81 0 00-.41 1.873 29.784 29.784 0 01-.323 1.619c-.047.248.079.433.379.553.353.073.735.06 1.145-.036.408-.116.792-.26 1.152-.43a6.92 6.92 0 00.924-.551c.239-.174.355-.281.35-.32.001-.142.007-.315.02-.519.032-.206.096-.548.193-1.025.115-.48.27-1.198.462-2.153l.07-.373c.046-.249.109-.53.187-.843.076-.334.137-.625.183-.873l.066-.403c-.07-.515-.024-.986.14-1.412.161-.446.372-.748.633-.905a1.69 1.69 0 01.446-.061c.141 0 .268.044.381.13.177.116.345.235.503.354.157.12.264.307.319.562a1.69 1.69 0 00-.109.53 1.324 1.324 0 01-.169.538 6.682 6.682 0 00-.224.575.96.96 0 00-.02.518l-.508 2.038c-.087.396-.196.855-.326 1.377-.11.52-.185.863-.222 1.03l.964-.253c.258-.036.507-.06.747-.073.238-.032.519.03.843.187.06-.008.119.055.178.188.075.11.145.252.209.425.084.17.155.322.214.456-.021.285-.109.68-.261 1.186a46.697 46.697 0 01-.489 1.52c-.172.509-.319.913-.439 1.212-.061.15-.132.29-.215.423l-.24.457c-.169.386-.394.589-.674.607-.28.018-.554-.136-.82-.463-.03-.218-.023-.532.022-.941.067-.393.111-.662.132-.806.012-.062.074-.272.186-.631.115-.339.229-.688.341-1.046.113-.359.161-.597.144-.716.007-.102-.024-.179-.092-.23-.067-.051-.138-.052-.212-.001-.059.008-.219.09-.481.247-.241.155-.482.31-.723.463-.244.135-.416.209-.515.222a9.447 9.447 0 01-1.09.665c-.267.117-.647.29-1.14.52-1.028.161-1.754.24-2.178.238-.427-.022-.792-.113-1.097-.273-.372-.211-.649-.466-.831-.764-.163-.3-.261-.58-.297-.837l-.073-.536zm18.274-.783a2.638 2.638 0 01-1.371.824 3.133 3.133 0 01-1.608-.021 3.206 3.206 0 01-1.424-.895 3.385 3.385 0 01-.858-1.396c-.177-.561-.289-1.303-.335-2.225-.046-.781.096-1.588.426-2.42a9.391 9.391 0 011.286-2.327c.55-.701 1.116-1.213 1.697-1.535.271-.24.506-.362.707-.37.218-.03.547-.055.989-.075.464-.003.813.04 1.047.129.254.086.464.219.63.398.338.256.577.526.716.81.137.264.225.534.263.812-.02.446-.244 1.022-.672 1.727-.411.682-.996 1.277-1.754 1.785a4.187 4.187 0 01-1.402.375c-.518.05-.962-.02-1.331-.211-.398-.107-.642-.044-.731.19-.092.215-.133.726-.123 1.532.024.764.159 1.31.406 1.64.244.31.539.47.884.484.407.025.722.042.946.052.24-.013.515-.142.825-.386.29-.242.473-.378.55-.408a.735.735 0 00.162-.144l.333-.44a3.67 3.67 0 01.286-.342.374.374 0 01.252-.155c.099-.014.195.024.287.112.09.068.178.117.263.145.198-.027.254.087.167.34-.066.252-.235.568-.506.948a6.63 6.63 0 01-1.007 1.047zm-.893-6.297c.205-.129.413-.299.627-.51.21-.23.38-.466.509-.706.146-.262.208-.472.186-.63-.038-.278-.198-.488-.48-.631-.285-.163-.675-.14-1.171.07-.21.089-.438.272-.682.547a6.96 6.96 0 00-.701.854c-.2.31-.364.585-.493.824-.109.237-.141.373-.096.407.073.091.253.147.538.169.283.001.592-.031.926-.097.354-.069.633-.168.837-.297zm12.677 5.406a2.376 2.376 0 00-.369-.04l-.373-.07a1.568 1.568 0 00-.369-.04c-.236-.25-.361-.577-.376-.978-.017-.422.013-.86.092-1.315.099-.458.189-.904.271-1.34.102-.437.142-.806.121-1.106-.031-.077-.063-.093-.097-.047-.037.025-.053.057-.047.097-.117.177-.301.314-.55.408-.249.095-.48.178-.693.247-.368.111-.735.232-1.101.363-.366.131-.72.27-1.063.419a4.501 4.501 0 01-.228-.12 1.2 1.2 0 00-.199-.124c-.139.019-.24.164-.304.435s-.109.6-.137.988c-.03.367-.062.725-.095 1.073a3.643 3.643 0 01-.085.708c-.312.083-.538.124-.68.123a7.308 7.308 0 01-.708-.084c-.188-.196-.306-.392-.352-.588a2.688 2.688 0 01-.001-.666l.087-1.132c.042-.288.121-.663.24-1.123.069-.232.13-.452.182-.661.069-.232.086-.476.051-.734.131-.22.211-.453.237-.699.027-.245.064-.493.111-.741.206-.856.368-1.515.486-1.975.136-.483.226-.859.27-1.127a3.57 3.57 0 00.051-.734c-.018-.28.131-.442.448-.485.198-.028.417.023.657.152.237.108.43.264.578.465.149.202.19.428.124.68-.038.166-.102.438-.192.813-.072.354-.16.75-.261 1.187-.085.415-.172.81-.262 1.187a6.87 6.87 0 01-.195.784.448.448 0 01-.09.224c-.054.048-.075.121-.061.22.152.08.386.089.7.025.331-.086.561-.178.689-.276l.862-.118.891-.123c.322.138.586.374.794.709.087-.396.207-.917.361-1.564.151-.667.293-1.322.427-1.966.134-.645.199-1.128.195-1.45a1.09 1.09 0 01.173-.509c.1-.154.214-.281.341-.38.297.101.581.183.852.247.288.041.497.245.628.61.005.181-.01.365-.045.552l-.114.5c-.119.601-.28 1.27-.482 2.004a32.846 32.846 0 00-.547 2.195 12.044 12.044 0 00-.237 2.03c.008.06-.014.265-.067.616a14.62 14.62 0 01-.133 1.017c-.036.328-.063.503-.08.526a.69.69 0 01-.066.403 1.3 1.3 0 01-.26.308zm7.13-1.524c-.153.061-.358.11-.616.145-.26.015-.492.017-.696.005-.186-.035-.284-.083-.292-.142-.013-.1-.07-.142-.169-.128l-.165-.099a1.306 1.306 0 00-.419-.184 1.633 1.633 0 01-.389-.855c-.046-.337-.029-.875.052-1.612-.009-.504.101-1.104.328-1.802.245-.72.557-1.46.938-2.218.38-.759.79-1.451 1.23-2.077.459-.628.888-1.1 1.289-1.418a1.5 1.5 0 01.949-.585 2.088 2.088 0 011.166.113c.212.071.432.203.66.393.228.191.449.403.662.636.214.233.398.47.552.712.089.21.146.404.171.582.041.156.068.354.081.594.033.238.052.6.057 1.083-.05.37-.079.818-.088 1.344.011.524.042.974.094 1.35.012.382.088.644.229.786.16.14.36.122.598-.052.222-.151.443-.232.664-.242.217-.03.394.006.529.109.155.1.249.269.282.506.032.238-.053.502-.255.792a3.102 3.102 0 01-.747.739 2.076 2.076 0 01-.889.364c-.218.03-.443-.07-.677-.3a5.113 5.113 0 01-.669-.908 73.075 73.075 0 01-.541-1.076l-.272-.66-1.111 1.395c-.22.312-.442.605-.667.879-.208.25-.335.429-.381.536-.075.192-.238.396-.491.613-.234.214-.566.44-.997.682zm-.151-1.766c.31-.245.657-.585 1.041-1.021a19.6 19.6 0 001.103-1.454c.351-.532.638-1.016.861-1.45a7.11 7.11 0 00.598-1.385 5.98 5.98 0 00.232-1.182 2.767 2.767 0 00-.48-.63c-.214-.234-.392-.35-.533-.352-.436.06-.864.402-1.283 1.025-.402.6-.788 1.248-1.157 1.945-.065.11-.153.283-.261.52-.109.237-.219.465-.331.682l-.189.389c-.049.087-.136.332-.263.733-.11.378-.218.766-.325 1.165-.11.378-.156.627-.14.746.016.119.044.246.083.382.058.133.17.209.333.227.164.017.401-.096.711-.34zm11.863-4.112c-.542.175-.945-.042-1.21-.652s-.335-1.488-.209-2.636c.086-.254.154-.495.203-.724.047-.249.061-.443.042-.581.044-.269.102-.58.175-.933.09-.375.184-.721.282-1.038.095-.336.165-.557.211-.665.08-.01.149-.09.21-.24a.72.72 0 00.091-.437 1.902 1.902 0 01.016-.547c.052-.21.112-.359.181-.449a.605.605 0 01.074-.343c.063-.13.089-.234.078-.314a.373.373 0 01.031-.216.289.289 0 00.061-.22c.135-.342.299-.839.492-1.491.21-.675.407-1.378.589-2.11.202-.734.366-1.382.491-1.945.125-.562.179-.902.163-1.021a.766.766 0 01.129-.381c.069-.09.185-.127.349-.109a.398.398 0 01.225-.122.999.999 0 01.234-.062l.105.107c.091.068.216.172.376.311a.736.736 0 01.333.44c.044.175.082.381.115.62.032.379-.049.824-.241 1.335-.192.51-.408 1.075-.646 1.693-.147.404-.296.788-.448 1.152-.132.361-.193.581-.182.66.011.08-.013.204-.07.374-.058.17-.12.38-.186.63-.092.215-.188.47-.289.767l-.28.826c-.07.232-.1.377-.092.437a1.164 1.164 0 01-.057.25.526.526 0 01-.116.258c-.079.01-.12.077-.124.199l.02.148c.011.08-.012.275-.071.585a6.202 6.202 0 01-.277 1.068c-.233 1.102-.385 1.98-.457 2.637a10.182 10.182 0 00-.081 1.616c.025.48.023.764-.005.848-.009.082-.088.174-.235.275zm-.954 4.976c-.357.19-.665.303-.923.339-.24.012-.524-.07-.851-.247-.425-.305-.603-.644-.533-1.017.087-.396.364-.807.83-1.234.327-.267.569-.422.724-.463.176-.044.453-.012.831.098.646.295.961.675.944 1.142.003.464-.338.924-1.022 1.382zM41.05 75.041a.9.9 0 10-.33-1.77l.33 1.77zM18.324 15.137a.9.9 0 00-1.187-.461l-7.411 3.265a.9.9 0 10.726 1.647l6.588-2.902 2.904 6.59a.9.9 0 001.647-.726l-3.268-7.413zM40.72 73.271c-14.072 2.619-23.18 2.315-28.782.028-2.773-1.133-4.673-2.745-5.913-4.731-1.247-1.996-1.867-4.434-1.968-7.271-.202-5.71 1.703-12.837 4.525-20.719 2.823-7.883 6.486-16.323 9.757-24.752l-1.678-.652c-3.229 8.32-6.946 16.9-9.774 24.797C4.06 47.867 2.043 55.279 2.258 61.36c.109 3.056.782 5.826 2.24 8.16 1.465 2.346 3.68 4.188 6.76 5.445 6.105 2.492 15.65 2.708 29.792.076l-.33-1.77z" fill="#00E8AD"/></svg>