<svg width="529" height="142" fill="none" xmlns="http://www.w3.org/2000/svg"><path d="M107.166 97.395l-.162-.08a3.476 3.476 0 00-.41-.044 2.102 2.102 0 00-.502.019c-.546-.06-.967-.305-1.262-.736-.29-.397-.405-.87-.345-1.416.114-.15.174-.445.182-.883a7.282 7.282 0 00-.044-1.054c.096-.282.154-.475.173-.579l.112-1.024a47.12 47.12 0 01.176-2.396l.394-3.385c.171-1.201.333-2.35.486-3.448.152-1.098.294-2.026.425-2.784.165-.763.29-1.2.376-1.313l-.021-.149-.054-.396-.012-.453c.021-.339.136-.725.346-1.157.082-.382.144-.794.184-1.237.04-.443.051-.73.033-.862.109-.183.237-.605.382-1.264.173-.697.333-1.375.478-2.034.126-.555.263-1.146.413-1.772.183-.63.327-1.172.433-1.624l.209-.685-.027-.198-.007-.05c.114-.15.337-.853.67-2.11.361-1.295.855-2.96 1.484-4.998.096-.282.221-.602.374-.96.152-.357.22-.602.202-.734.129-.287.344-.434.646-.442.297-.04.608.018.932.175.357.153.644.4.859.74l.604.725-1.295 3.811c-.401.997-.732 1.9-.991 2.71-.226.805-.33 1.273-.312 1.405l-.188.834c-.126.555-.271 1.214-.435 1.977a75.016 75.016 0 00-.422 2.077c-.223 1.073-.454 1.963-.694 2.669-.207.7-.301 1.118-.283 1.25-.009-.066.348-.166 1.07-.298a63.935 63.935 0 012.767-.43l3.418-.469c1.184-.196 2.222-.355 3.114-.477.92-.16 1.541-.296 1.862-.407l2.542-.601.984-5.333c.138-.961.33-2.132.579-3.511.248-1.38.474-2.555.677-3.525.32-1.592.604-2.59.851-2.994.248-.404.569-.633.966-.687.099-.014.235.001.41.045.202.005.395.063.579.172a.759.759 0 01.457.392c.446.309.684.697.715 1.164.063.462-.117 1.11-.542 1.941-.406.964-.718 2-.936 3.106a41.313 41.313 0 01-.545 2.649c.054.396.05.733-.013 1.011a1.749 1.749 0 01-.272.592c-.057.076-.155.341-.295.798-.139.456-.262.91-.368 1.362-.106.453-.152.728-.139.827a3.03 3.03 0 01-.033.863c-.054.343-.138.59-.252.74-.039.208-.119.724-.242 1.548-.122.824-.257 1.801-.405 2.932a85.993 85.993 0 01-.513 3.25 47.654 47.654 0 01-.552 2.6c.031.23-.01.539-.126.925-.12.353-.161.661-.125.925l-.292 1.554c-.116.622-.163 1.015-.141 1.18a79.622 79.622 0 01-.225 2.403 86.427 86.427 0 01-.168 2.093c-.017.608-.019.961-.006 1.06-.114.15-.309.194-.587.131-.278-.063-.608-.135-.989-.218-.677-.277-1.111-.62-1.302-1.032-.154-.383-.101-.979.158-1.788.129-.287.239-.958.33-2.014.119-1.093.241-2.17.364-3.23.131-.522.255-1.212.373-2.069l.34-2.67c.109-.924.205-1.695.289-2.312.079-.65.147-1.012.204-1.087a72.318 72.318 0 00-.048-.347l-.02-.149c-.075-.057-.495-.05-1.259.021-.769.039-1.712.151-2.83.338a65.902 65.902 0 00-3.504.582 30.094 30.094 0 00-3.186.689l-1.238.17-1.09.149-.941.13c-.231.03-.347.047-.347.047l-.204 1.087c-.117.622-.248 1.38-.395 2.275-.151.862-.314 1.76-.489 2.691-.146.895-.268 1.72-.367 2.473-.07.716-.118 1.228-.143 1.534-.051.613-.13 1.38-.239 2.304a48.052 48.052 0 01-.32 2.82c-.1.989-.201 1.844-.304 2.565-.07.716-.125 1.177-.164 1.385zm34.392-10.672a4.4 4.4 0 01-2.285 1.373 5.216 5.216 0 01-2.679-.036 5.343 5.343 0 01-2.375-1.491 5.64 5.64 0 01-1.429-2.328c-.297-.935-.483-2.17-.559-3.708-.078-1.302.158-2.646.708-4.034a15.658 15.658 0 012.143-3.877c.917-1.168 1.859-2.021 2.829-2.558.45-.398.842-.603 1.177-.615.363-.05.913-.092 1.648-.126.774-.005 1.355.067 1.746.215a2.5 2.5 0 011.05.664c.563.427.961.877 1.194 1.35.229.44.375.89.438 1.353-.032.745-.405 1.704-1.119 2.879-.685 1.137-1.66 2.128-2.923 2.975-.695.33-1.474.538-2.337.623-.863.085-1.603-.033-2.218-.352-.664-.178-1.07-.072-1.219.318-.152.358-.221 1.208-.205 2.552.04 1.273.266 2.184.678 2.733.407.516.898.785 1.473.808.679.041 1.204.07 1.577.086.4-.021.859-.235 1.375-.643.483-.402.788-.63.916-.68.123-.084.213-.164.27-.24l.556-.732c.199-.262.358-.453.477-.57a.62.62 0 01.418-.259c.165-.023.325.04.48.187.15.114.296.194.437.242.33-.045.424.144.28.568-.111.419-.392.945-.843 1.579-.456.6-1.016 1.182-1.679 1.744zm-1.49-10.495a6.265 6.265 0 001.045-.85 5.87 5.87 0 00.848-1.176c.243-.437.346-.787.31-1.052-.064-.462-.331-.812-.801-1.05-.474-.272-1.125-.233-1.952.116-.35.149-.728.453-1.136.913-.413.426-.802.9-1.168 1.421-.333.517-.607.975-.821 1.375-.181.395-.234.62-.159.678.121.151.42.245.896.28.472.003.986-.05 1.543-.16.589-.115 1.055-.28 1.395-.495zm10.371 8.57a4.224 4.224 0 01-1.113-.755c-.352-.356-.568-.83-.65-1.425-.045-.33-.056-.9-.033-1.711.024-.811.083-1.728.178-2.75a88.8 88.8 0 01.313-2.87c.249-.639.448-1.272.598-1.898.15-.626.215-1.005.197-1.137.012-.406.031-.88.058-1.421.059-.547.126-1.044.199-1.491.073-.448.138-.709.195-.784.143-.188.327-.314.554-.379a.878.878 0 01.707.004c.278.063.505.25.683.563.417.346.665.8.742 1.362.072.528-.001 1.345-.219 2.452a24.827 24.827 0 00-.572 2.45 99.992 99.992 0 00-.453 2.586c-.099.754-.147 1.265-.143 1.534l-.95.433c.489-.606.942-1.223 1.361-1.852.414-.663.713-1.175.899-1.537.458-.836.85-1.53 1.179-2.08.357-.587.815-1.289 1.376-2.106.557-.85 1.137-1.4 1.742-1.652.633-.288 1.132-.458 1.495-.508.744.033 1.375.333 1.89.902.544.531.963 1.382 1.258 2.553a10.7 10.7 0 01.076 1.655l.03.955.65-1.15c.466-.77 1.105-1.631 1.916-2.584.565-.548 1.139-.896 1.725-1.044.58-.18 1.136-.055 1.666.377.922.345 1.581.978 1.977 1.9.391.888.62 2.068.687 3.539.019.872.09 1.518.215 1.939.121.387.274.77.461 1.148.282.096.37.37.264.822-.111.418-.282.644-.513.675-.331.046-.719.032-1.167-.041a3.102 3.102 0 01-1.178-.495c-.342-.29-.552-.715-.629-1.276l-.421-3.072c-.1-.726-.214-1.316-.344-1.77-.096-.457-.217-.727-.363-.807-.391-.149-.889.138-1.497.86-.607.723-1.235 1.667-1.883 2.833a44.296 44.296 0 00-1.78 3.575c-.488 1.11-.802 1.759-.945 1.946-.114.15-.368.135-.763-.046-.758-.132-1.264-.382-1.516-.751-.224-.407-.306-.884-.247-1.43.088-.584.182-1.37.282-2.36.133-.994.254-1.953.363-2.876.104-.957.162-1.637.174-2.043-.168-.246-.411-.297-.728-.152-.288.106-.581.298-.88.575-.36.318-.771.88-1.232 1.683a30.346 30.346 0 00-1.388 2.764c-.31.681-.637 1.366-.98 2.052a51.665 51.665 0 01-.971 1.748c-.3.512-.567.902-.799 1.17-.363.79-.622 1.229-.778 1.317-.156.09-.481.05-.975-.118zm22.11 3.429c-.33.045-.55.041-.658-.011-.07-.024-.187-.143-.351-.356a1.137 1.137 0 01.067-.614c.109-.184.264-.407.463-.67.285-.375.608-.84.97-1.394a16.51 16.51 0 00.992-1.6c.328-.55.554-.984.679-1.304.082-.382.139-.827.17-1.336.064-.513.121-1.076.172-1.689l-.095-.693a.938.938 0 01.173-.58c.199-.262.384-.388.553-.378.203.006.395.181.577.527.215.34.406.87.571 1.587.232.708.323 1.369.272 1.981-.051.613-.199 1.373-.444 2.282-.035.24-.202.616-.501 1.128-.3.513-.605.992-.914 1.438-.309.446-.513.676-.612.69a.615.615 0 00-.333.146l-.299.394c-.114.15-.303.244-.567.28a6.609 6.609 0 01-.885.172zm23.751-7.295c-.987.17-1.74.07-2.262-.295-.525-.4-.793-1.002-.803-1.808.2-.263.411-.443.633-.54.222-.099.559-.094 1.011.012.381.082.754.098 1.117.049a3.2 3.2 0 001.062-.348.788.788 0 01.532-.174 2.54 2.54 0 00.68-.194c.439-.229.967-.553 1.582-.974.648-.425 1.29-.9 1.924-1.425.63-.557 1.126-1.113 1.488-1.667.057-.075.128-.287.215-.635.083-.382.098-.636.047-.764-.33.046-.85.184-1.558.416-.68.194-1.181.347-1.502.458-.68.194-1.219.184-1.619-.03-.399-.215-.774-.618-1.124-1.209-.136-.25-.132-.47.01-.657.138-.221.267-.508.387-.86.227-.066.439-.112.637-.139a.907.907 0 01.665.06c.216.106.381.083.495-.067.147-.155.326-.197.538-.125.207.04.474.02.799-.059a71.717 71.717 0 012.11-.44c.165-.023.312-.06.439-.111.156-.089.254-.237.293-.444a3.33 3.33 0 00.041-1.166 25.479 25.479 0 00-.357-1.87c-.275-.534-.506-.872-.694-1.014a2.69 2.69 0 00-.719-.457c-1.037.041-1.839.202-2.407.482-.572.246-.936.532-1.094.856-.474.469-.987.775-1.539.918-.519.138-.833.064-.939-.225-.023-.165-.109-.422-.258-.772a5.737 5.737 0 01-.235-.977c-.045-.33.015-.507.18-.53.386-.624.657-1.099.814-1.423.153-.358.605-.621 1.355-.792.931-.33 1.747-.508 2.45-.537a5.829 5.829 0 012.043.174c.376.049.858.252 1.446.609.587.357.974.724 1.16 1.102.184.11.425.396.724.86.327.426.712 1.265 1.152 2.517a25.042 25.042 0 01-.195 3.358c-.1.989-.289 1.94-.568 2.853-.274.946-.546 1.656-.818 2.131-.276.442-.613.925-1.012 1.451-1.269 1.049-2.188 1.83-2.757 2.346-.568.516-1.025.864-1.371 1.046-.345.182-.831.316-1.458.402-.403.257-.851.42-1.347.488-.467.03-.931.077-1.393.14zm16.398-4.671a4.221 4.221 0 01-1.113-.756c-.352-.355-.568-.83-.65-1.425-.045-.33-.056-.9-.033-1.711.024-.81.083-1.727.178-2.75.096-1.022.2-1.979.314-2.869.248-.64.447-1.273.597-1.899.15-.626.215-1.005.197-1.137.012-.405.031-.88.058-1.421.059-.547.126-1.044.199-1.491.073-.447.138-.709.195-.784a1.04 1.04 0 01.554-.379.878.878 0 01.707.004c.278.063.506.25.683.563.418.346.665.8.742 1.362.072.528-.001 1.346-.219 2.452a25.122 25.122 0 00-.572 2.45 99.992 99.992 0 00-.453 2.586c-.099.754-.146 1.265-.143 1.534l-.95.433c.489-.605.942-1.223 1.361-1.852.414-.663.714-1.175.899-1.537.458-.836.85-1.53 1.179-2.079a47.27 47.27 0 011.376-2.107c.557-.85 1.137-1.4 1.742-1.651.633-.29 1.132-.458 1.495-.508.745.032 1.375.333 1.89.901.544.531.963 1.382 1.258 2.553a10.7 10.7 0 01.076 1.655l.03.955.65-1.15c.466-.77 1.105-1.631 1.917-2.584.564-.548 1.138-.896 1.724-1.043.581-.181 1.136-.055 1.666.377.922.344 1.581.977 1.977 1.899.391.888.62 2.068.687 3.54.019.871.09 1.518.215 1.938.121.387.274.77.461 1.148.282.096.37.37.264.822-.111.419-.282.644-.513.676-.33.045-.719.031-1.167-.042a3.103 3.103 0 01-1.178-.495c-.342-.29-.552-.715-.629-1.276l-.421-3.071c-.1-.727-.214-1.317-.344-1.77-.096-.458-.217-.727-.363-.808-.39-.149-.889.139-1.497.861-.607.723-1.235 1.667-1.883 2.832a44.282 44.282 0 00-1.78 3.575c-.487 1.11-.802 1.759-.945 1.947-.114.15-.368.134-.763-.047-.758-.132-1.264-.382-1.516-.751-.224-.407-.306-.883-.247-1.43.088-.584.182-1.37.282-2.36.133-.994.254-1.953.363-2.876.104-.956.162-1.637.174-2.043-.168-.246-.411-.296-.727-.152-.289.107-.582.298-.881.575-.36.318-.771.88-1.232 1.683a30.36 30.36 0 00-1.388 2.764c-.31.682-.637 1.366-.98 2.052a51.763 51.763 0 01-.971 1.748c-.3.513-.566.902-.799 1.17-.363.79-.622 1.229-.778 1.318-.156.088-.481.049-.975-.119zm28.235-2.156c-.43.059-.788.024-1.075-.105a18.658 18.658 0 01-.986-.571c-.718-.575-1.25-1.141-1.596-1.7-.35-.59-.514-1.174-.492-1.749.063-.277.062-.53-.003-.756l-.054-.397c-.188-.142-.251-.234-.19-.276.057-.076.11-.184.158-.325.198-.027.239-.218.123-.572-.102-.255-.049-.851.159-1.788.208-.937.505-1.836.892-2.696a15.9 15.9 0 01.715-1.41c.319-.616.674-1.22 1.063-1.812.419-.629.803-1.136 1.154-1.52.731-.807 1.387-1.419 1.969-1.835a8.374 8.374 0 011.93-1.022c.703-.264 1.188-.415 1.452-.451.297-.04.729.169 1.297.63.805.225 1.404.547 1.798.964.427.413.751 1.058.972 1.936.235.977.309 2.128.221 3.452-.059 1.287-.62 2.962-1.683 5.025-.662 1.302-1.3 2.298-1.912 2.988a20.296 20.296 0 01-2.245 2.024c-.631.557-1.211.99-1.74 1.298-.534.275-1.177.498-1.927.668zm4.035-5.903c.67-1 1.182-1.928 1.536-2.784.387-.861.711-1.932.973-3.212.082-.382.103-.839.064-1.372a7.81 7.81 0 00-.26-1.529c-.101-.49-.255-.755-.462-.794-.428-.177-.916-.178-1.464-.001-.553.143-1.12.54-1.704 1.192-.906 1-1.65 2.195-2.233 3.587-.588 1.359-1.134 2.897-1.638 4.615-.333 1.257-.317 2.23.047 2.92.392.654 1.037.817 1.935.493.926-.363 1.994-1.401 3.206-3.115zm34.121.872a3.959 3.959 0 00-.615-.067l-.621-.116a2.623 2.623 0 00-.615-.068c-.394-.416-.603-.96-.627-1.63-.029-.702.022-1.432.154-2.19a86.23 86.23 0 00.45-2.233c.17-.73.237-1.344.202-1.844-.051-.128-.105-.154-.162-.079-.062.042-.088.096-.079.163-.195.295-.5.522-.916.68-.416.158-.801.295-1.155.411-.614.185-1.226.387-1.835.605-.609.218-1.2.45-1.772.697a7.669 7.669 0 01-.38-.2 2.006 2.006 0 00-.331-.207c-.232.032-.4.273-.507.725a10.654 10.654 0 00-.228 1.647c-.051.612-.103 1.208-.159 1.788-.026.542-.073.935-.141 1.18-.519.139-.896.207-1.132.206-.203-.006-.596-.053-1.18-.141-.314-.327-.51-.654-.589-.98-.045-.33-.045-.7-.001-1.11.061-.782.11-1.41.145-1.887.069-.48.202-1.104.4-1.871.115-.386.216-.753.303-1.102.115-.386.144-.793.085-1.223.219-.366.35-.754.395-1.164.045-.41.106-.822.184-1.236.343-1.427.613-2.524.81-3.291.226-.805.376-1.431.449-1.879.073-.447.102-.855.085-1.222-.03-.467.219-.737.747-.81.33-.045.695.04 1.095.254.394.182.716.44.964.776.248.337.316.714.206 1.133-.063.278-.169.73-.319 1.356a82.463 82.463 0 01-.435 1.977 59.396 59.396 0 01-.436 1.978c-.121.588-.229 1.024-.325 1.306a.739.739 0 01-.151.374c-.09.08-.124.202-.101.367.254.134.643.148 1.167.042.552-.143.935-.296 1.148-.46l1.436-.197 1.486-.204c.536.23.977.623 1.323 1.181.145-.659.346-1.528.602-2.605.251-1.112.488-2.204.711-3.278.223-1.073.331-1.879.325-2.416.025-.306.121-.589.287-.847.167-.258.356-.47.569-.633.495.168.968.305 1.419.41.481.07.83.408 1.048 1.018.008.302-.017.608-.075.919l-.189.833a47.57 47.57 0 01-.804 3.34 54.734 54.734 0 00-.911 3.658 20.097 20.097 0 00-.394 3.385c.014.099-.024.44-.112 1.024-.055.58-.129 1.145-.221 1.696-.06.547-.104.839-.133.876.032.232-.005.455-.109.672a2.2 2.2 0 01-.435.513zm12.646-1.027c-1.453.199-2.716-.183-3.79-1.146-1.079-.996-1.715-2.322-1.909-3.977-.097-1.199-.04-2.502.171-3.91a21.17 21.17 0 011.141-4.194c.517-1.383 1.122-2.61 1.816-3.68.695-1.072 1.46-1.867 2.298-2.385.307-.21.636-.39.986-.539a4.92 4.92 0 011.168-.312c.363-.05.752-.036 1.167.042.41.045.756.115 1.038.211.593.154 1.061.376 1.403.666.343.29.677.765 1.004 1.427.185.614.295 1.053.332 1.317.036.264.008.672-.085 1.223-.233 1.243-.605 2.337-1.115 3.281-.509.945-1.252 1.787-2.227 2.526a3.549 3.549 0 01-.887.526 5.6 5.6 0 01-3.006.16 3.542 3.542 0 01-1.593-.943l-.401-.348-.094.416a26.552 26.552 0 00-.453 2.586 9.954 9.954 0 00.038 2.114c.054.397.139.772.255 1.126.149.35.324.645.525.887.16.18.395.3.705.357.34.021.691.007 1.054-.043l.694-.095c.259-.07.498-.17.716-.3.534-.275.95-.551 1.249-.828.331-.28.661-.578.988-.892l.184-.126-.049.006a9.71 9.71 0 00.958-.737l.455-.365c.132-.018.253-.119.362-.302.246-.168.583-.164 1.011.013.461.172.717.44.767.803-.011.17-.123.454-.337.854a8.07 8.07 0 01-.763 1.063c-.256.338-.481.538-.675.598-.029.037-.135.12-.32.245-.189.094-.312.178-.369.253l.05-.007c-.243.437-.513.676-.81.717l-.397.054c-.1.25-.493.573-1.179.97a6.265 6.265 0 01-2.076.688zm.735-11.204c.594-.082 1.084-.317 1.468-.706a6.859 6.859 0 001.026-1.352c.538-.982.8-1.893.786-2.732.014-.877-.167-1.458-.542-1.742a1.243 1.243 0 00-.565-.074c-.137-.015-.411.073-.822.264-.288.107-.667.41-1.137.913a21.1 21.1 0 00-1.388 1.654 14.975 14.975 0 00-.956 1.493l-.501 1.129a2.14 2.14 0 01.723-.25c.259-.07.41-.074.452-.012.041.297.129.57.264.821.164.213.338.375.521.484.216.105.44.142.671.11zm25.443 5.797c-.388.12-.826.113-1.315-.021a3.959 3.959 0 01-1.354-.673c-.38-.318-.647-.668-.801-1.05-.227-.676-.262-1.546-.105-2.61.185-1.103.496-2.272.932-3.51a32.578 32.578 0 011.612-3.703 21.351 21.351 0 012.04-3.157c.745-.943 1.461-1.613 2.146-2.01.332-.28.592-.468.781-.561a1.02 1.02 0 01.687-.145c.273.03.676.143 1.207.34.481.068.848.17 1.102.303.254.133.596.422 1.027.868.332.46.598.927.799 1.404.2.478.392 1.023.577 1.637.378.79.551 1.32.522 1.594a1.25 1.25 0 01-.223.586c-.219.366-.262.54-.13.522l-.022.205c.013.1-.03.274-.131.523a16.57 16.57 0 00-.232 2.353c.005.773.108 1.399.308 1.876.363.69.901 1.054 1.613 1.09.711.038 1.381-.357 2.008-1.183.327-.314.642-.593.945-.836.298-.277.466-.283.502-.018l.169.128c.108.052.228.07.36.051.165-.022.273.03.325.158.084.123.109.304.074.544-.006.203-.073.448-.202.735-.427.563-.63.927-.607 1.092l-.171.226c-.085.112-.244.302-.477.57-.545.445-1.279.73-2.204.857-.892.122-1.61.036-2.155-.26-.545-.295-1.076-.727-1.591-1.295-.482-.573-.821-1.082-1.017-1.526l-.315-.462-1.308 1.139a12.23 12.23 0 01-1.046 1.203c-.351.384-.584.652-.698.802a1.7 1.7 0 01-.299.394.478.478 0 01-.326.196l-.347.048-.148.02c.018.133-.125.32-.428.564-.27.239-.611.453-1.022.644a3.503 3.503 0 01-1.062.348zm-.863-2.607c.199-.027.525-.223.98-.588a50.43 50.43 0 001.577-1.377 15.83 15.83 0 001.557-1.526c.47-.502.788-.882.954-1.14l.556-.733a22.2 22.2 0 01.677-.95c.642-.963 1.041-1.977 1.198-3.041.152-1.098.006-1.92-.439-2.464-.182-.345-.374-.52-.577-.526-.202-.006-.599.166-1.191.516-.364.286-.798.8-1.302 1.542a39.066 39.066 0 00-1.527 2.48 35.645 35.645 0 00-1.43 2.82c-.44.97-.789 1.858-1.048 2.668-.259.809-.359 1.428-.3 1.858a.62.62 0 00.146.333l.169.128zm18.531.74c-.362-.187-.64-.367-.832-.543-.192-.175-.297-.447-.313-.815a14.17 14.17 0 01.086-1.576c.055-.58.146-1.147.271-1.703.018-.608.052-1.218.103-1.83a5.63 5.63 0 01.561-1.793c.344-1.663.645-3.268.904-4.818.287-1.587.703-3.46 1.248-5.622.115-.386.228-.67.337-.853a7.1 7.1 0 00.364-.656c.015-.136.105-.216.27-.239.194-.06.413-.056.658.011.24.034.438.125.592.272.128-.051.339.139.634.57.327.425.476.775.446 1.048.018.132.01.319-.024.559a2.29 2.29 0 01-.209.684c-.114.15-.219.367-.315.65-.1.249-.255.59-.465 1.022-.204.97-.378 1.785-.523 2.444a55.105 55.105 0 01-.55 2.245c-.186.362-.306.833-.362 1.413-.055.579-.112 1.142-.172 1.688-.149.627-.289 1.201-.419 1.724-.098.517-.137.843-.119.975a17.52 17.52 0 00-.246 2.254 6.057 6.057 0 01-.393 1.921c.035.5-.068.85-.31 1.052-.208.197-.616.169-1.222-.085zm11.947-.832c-.537.007-.947-.038-1.229-.134-.287-.129-.83-.407-1.629-.836-.451-.342-1.079-.878-1.886-1.609-.807-.73-1.62-1.51-2.441-2.34a200.925 200.925 0 01-2.066-2.19l1.657-3.003c.502.47.917.918 1.244 1.344.328.426.585.71.773.853a84.02 84.02 0 012.157 2.48c.558.63 1.047 1.135 1.47 1.514.422.38.854.707 1.295.983.475.272 1.051.546 1.728.823.108.053.221.138.338.257.117.118.177.312.181.58-.083.382-.2.633-.351.755-.123.084-.537.259-1.241.523zm-9.475-7.633c-.275-.534-.286-1.105-.032-1.712.281-.644.621-1.11 1.019-1.4.1-.25.212-.417.335-.501.151-.122.235-.251.249-.388.048-.14.189-.345.421-.613.266-.271.5-.522.704-.752.484-.403 1.024-.88 1.621-1.434a52.037 52.037 0 001.777-1.757 62.174 62.174 0 001.409-1.506c.412-.426.661-.696.747-.809a.641.641 0 01.362-.302c.189-.093.442-.094.757-.002.41.044.697.173.86.386.16.18.28.567.362 1.162.148.35.054.766-.283 1.25-.309.446-.809.969-1.501 1.568a22.85 22.85 0 00-.988.893c-.384.389-.721.755-1.01 1.097-.213.164-.528.443-.945.836-.389.357-.728.706-1.017 1.048-.242.202-.548.546-.918 1.035-.375.455-.764.81-1.166 1.068-.921 1.136-1.542 1.759-1.863 1.87-.321.112-.621-.234-.9-1.037zm14.005 2.672c-.008-.302.039-.695.141-1.18.102-.485.206-.953.312-1.405.106-.453.183-.749.231-.89.292-.814.549-1.64.771-2.478.25-.875.434-1.742.552-2.599l.204-1.088c.13-.522.244-1.043.341-1.56.126-.556.173-.95.141-1.18a2.76 2.76 0 01.325-1.307 2.26 2.26 0 01.988-.892c.373.016.702.088.989.217.287.13.557.26.811.394.225.17.335.475.327.914a12.619 12.619 0 01-.172 1.689c-.068.48-.218 1.106-.449 1.878a60.67 60.67 0 01-.642 2.309 53.254 53.254 0 00-.463 1.78 120.87 120.87 0 00-.682 3.12 51.403 51.403 0 01-.538 2.699c-.078.414.132.722.631.923.589.12 1.225.1 1.91-.06.679-.194 1.32-.434 1.92-.718a11.596 11.596 0 001.539-.917c.398-.29.592-.469.583-.535.002-.235.013-.523.033-.862.054-.344.161-.914.321-1.71.193-.8.45-1.996.77-3.587l.116-.622c.078-.414.182-.883.312-1.405.126-.556.228-1.04.306-1.455l.109-.672c-.117-.858-.04-1.643.233-2.353.268-.743.62-1.246 1.055-1.507.26-.07.507-.103.743-.102.236.001.447.073.635.216.296.195.575.392.838.591.263.2.44.512.532.937a2.81 2.81 0 00-.181.883 2.215 2.215 0 01-.281.896c-.129.287-.253.607-.373.96-.092.315-.103.602-.033.862l-.847 3.396c-.145.66-.326 1.425-.543 2.296-.184.866-.307 1.438-.37 1.716l1.607-.422c.43-.06.845-.1 1.245-.12.397-.055.865.049 1.406.311.099-.013.197.09.295.313.126.184.243.42.35.709.14.284.258.537.356.759-.036.476-.181 1.135-.435 1.977a78.601 78.601 0 01-.814 2.534 39.63 39.63 0 01-.732 2.018 4.55 4.55 0 01-.358.705l-.4.762c-.282.644-.656.981-1.123 1.012-.467.03-.923-.227-1.367-.772-.05-.363-.038-.886.037-1.57.112-.654.185-1.101.219-1.341.02-.104.123-.455.31-1.052a74.83 74.83 0 00.569-1.744c.187-.597.267-.995.24-1.193.01-.17-.041-.297-.154-.383-.112-.086-.23-.086-.353-.002-.099.014-.366.151-.801.413l-1.207.77c-.407.225-.692.348-.858.37-.738.506-1.343.875-1.816 1.108-.444.195-1.078.484-1.9.866-1.713.268-2.923.4-3.63.397-.711-.037-1.321-.19-1.829-.456-.62-.352-1.082-.777-1.385-1.273-.271-.502-.436-.967-.495-1.396l-.122-.892zm33.803-.093c-.376-.285-.767-.686-1.174-1.202a8.734 8.734 0 01-1.071-1.922c-.103-.255-.186-.614-.249-1.076-.03-.467-.076-.798-.136-.991a2.912 2.912 0 01-.393.81 5.186 5.186 0 01-.513.677c-.114.15-.375.455-.783.915a8.251 8.251 0 01-1.265 1.081c-.995.843-1.851 1.348-2.568 1.513-.685.161-1.395-.111-2.131-.818-.587-.357-1.033-.783-1.336-1.28-.271-.501-.371-1.228-.299-2.18a18.931 18.931 0 01.033-3.436c.11-1.16.451-2.72 1.023-4.683.508-1.449.901-2.512 1.178-3.189.273-.71.449-1.138.53-1.284.473-.233.888-.273 1.246-.12.353.12.594.406.723.86.244.303.288.868.132 1.697-.122.825-.402 1.855-.838 3.093a72.104 72.104 0 00-.826 3.545c-.209 1.172-.292 2.16-.25 2.961.043.802.307 1.254.792 1.355.32.125.825.005 1.515-.359.723-.368 1.475-1.144 2.255-2.328.813-1.188 1.518-2.916 2.115-5.185.173-.697.292-1.302.357-1.816a9.273 9.273 0 00.009-1.767c-.12-.388-.151-.737-.093-1.047.087-.349.313-.666.677-.951a1.91 1.91 0 01.484-.52c.209-.198.357-.218.446-.062l.786-.158c.127-.051.221.02.281.214.089.156.225.288.408.398.404.247.592.878.563 1.891-.03 1.013-.302 2.464-.817 4.351-.442 1.44-.731 2.523-.867 3.248a9.144 9.144 0 00-.068 2.079c.082.594.274 1.14.578 1.636.303.497.732.926 1.287 1.287.395.182.629.419.703.712.107.288.171.632.192 1.033-.025.306-.19.581-.493.825a2.12 2.12 0 01-1.006.39 1.877 1.877 0 01-1.137-.197zm14.66-19.372c.055.16.089.526.1 1.097.039.533.045 1.07.019 1.612.002.505-.019.844-.062 1.018a9.265 9.265 0 00-.344 1.915 7.658 7.658 0 01-.329 2.013c-.479-.304-1.072-.577-1.777-.816a19.06 19.06 0 01-1.82-.76c-.367-.219-.651-.449-.852-.69a2.203 2.203 0 01-.321-.865c-.035-.5.048-1 .249-1.498s.475-.956.821-1.374c.342-.45.698-.802 1.067-1.055.34-.215.86-.353 1.558-.415a40.154 40.154 0 001.691-.182zm.666 17.37c.341-.214.601-.401.781-.56.175-.193.246-.539.211-1.039a4.303 4.303 0 01.076-.919c.086-.348.076-.666-.03-.954.149-.627.305-1.573.468-2.84.196-1.272.359-2.657.49-4.155.164-1.503.276-2.898.335-4.185.054-1.32.039-2.293-.047-2.92-.091-.66-.31-1.152-.657-1.475-.347-.322-.819-.577-1.417-.764l-1.238.17a16.31 16.31 0 01-1.246.12c-.57.01-1.176.128-1.819.35a60.59 60.59 0 01-1.799.5.444.444 0 00-.191.076.775.775 0 00-.178.176c-.487.37-.866.674-1.136.913a4.84 4.84 0 00-.662.696 2.66 2.66 0 00-.501 1.128c-.045.41-.157 1.065-.336 1.964a3.062 3.062 0 00-.056 1.068c.078.325.192.663.341 1.013.373.756.733 1.296 1.08 1.618.342.29.767.568 1.275.835.278.063.558.142.84.238.278.063.539.128.784.195-.479.436-1.092.99-1.841 1.666a51.017 51.017 0 01-2.181 1.762c-.7.534-1.256.896-1.667 1.087-.35.149-.66.343-.93.581a3.463 3.463 0 00-.634.895c.171.515.404.987.699 1.418.323.393.784.566 1.383.517.066-.009.34-.215.824-.618.516-.407 1.091-.873 1.726-1.397.63-.558 1.201-1.056 1.712-1.497.54-.477.886-.777 1.038-.899.118-.117.402-.375.853-.773.445-.431.867-.792 1.264-1.082.213-.164.4-.273.561-.329.16-.056.264-.036.311.058a76.309 76.309 0 01-.358 3.28c-.12 1.092-.071 2.18.144 3.26.287.129.576.274.867.436l.861.387zm4.725 3.34c-.331.045-.55.042-.658-.01-.07-.025-.188-.143-.351-.356a1.137 1.137 0 01.067-.615c.109-.183.264-.407.463-.67.285-.375.608-.84.97-1.394a16.26 16.26 0 00.991-1.6c.329-.55.555-.984.679-1.304a9.02 9.02 0 00.171-1.336 41.73 41.73 0 00.172-1.688l-.095-.694a.938.938 0 01.173-.579c.199-.263.384-.389.553-.379.203.006.395.182.577.527.215.34.405.87.571 1.587.232.709.322 1.369.272 1.982-.051.612-.199 1.373-.444 2.281-.035.24-.202.616-.502 1.129-.3.512-.604.99-.913 1.437-.309.446-.513.676-.612.69a.616.616 0 00-.333.146l-.299.394c-.114.15-.303.244-.567.28a6.61 6.61 0 01-.885.172zm-246.873 73.219c-.986.169-1.74.071-2.261-.295-.526-.399-.793-1.002-.803-1.808.199-.263.41-.443.632-.541.222-.098.559-.093 1.011.013.382.082.754.098 1.117.049.364-.05.718-.166 1.063-.348a.784.784 0 01.531-.174c.231-.031.458-.096.68-.194.44-.228.967-.553 1.583-.974.648-.425 1.289-.9 1.924-1.425.63-.557 1.126-1.113 1.487-1.667.057-.075.129-.287.216-.635.082-.382.098-.636.047-.764-.331.046-.85.184-1.558.416-.68.194-1.181.347-1.502.458-.68.194-1.22.184-1.619-.03-.4-.215-.775-.617-1.125-1.209-.135-.25-.132-.469.011-.657a4.19 4.19 0 00.387-.861c.226-.064.439-.11.637-.138a.908.908 0 01.664.061c.216.105.381.082.495-.068.147-.155.327-.196.539-.124.207.038.473.019.799-.06a71.88 71.88 0 012.11-.44 1.89 1.89 0 00.439-.111c.156-.089.253-.237.292-.444.082-.381.096-.77.042-1.166a25.898 25.898 0 00-.357-1.869c-.275-.534-.507-.873-.695-1.015a2.674 2.674 0 00-.718-.457c-1.038.041-1.84.202-2.407.482-.572.246-.937.532-1.094.856-.474.469-.987.775-1.54.918-.519.138-.832.064-.939-.225-.022-.165-.108-.422-.257-.772a5.643 5.643 0 01-.235-.977c-.045-.33.015-.507.18-.529.385-.625.656-1.1.814-1.424.153-.358.604-.621 1.355-.792.93-.329 1.747-.508 2.45-.537a5.83 5.83 0 012.042.174c.377.049.859.252 1.446.609.588.357.974.724 1.161 1.102.183.11.424.396.723.86.328.426.712 1.265 1.153 2.517a25.21 25.21 0 01-.196 3.358c-.099.989-.289 1.94-.567 2.853-.274.946-.547 1.656-.818 2.131-.276.442-.614.925-1.013 1.451-1.269 1.049-2.188 1.831-2.756 2.346-.569.516-1.026.864-1.371 1.046-.345.182-.831.316-1.459.402-.402.257-.851.42-1.346.488-.467.03-.932.077-1.394.14zm16.398-4.671a4.203 4.203 0 01-1.113-.756c-.351-.355-.568-.83-.649-1.425-.046-.33-.057-.9-.033-1.711.023-.811.083-1.727.178-2.75.095-1.022.2-1.979.313-2.869.249-.64.448-1.273.598-1.899.149-.626.215-1.005.197-1.137.012-.405.031-.879.057-1.421.06-.547.126-1.044.2-1.491.073-.447.138-.709.195-.784a1.03 1.03 0 01.554-.378.878.878 0 01.707.003c.278.063.505.251.683.563.417.346.664.8.741 1.362.073.528 0 1.346-.218 2.452a25.059 25.059 0 00-.573 2.451 99.9 99.9 0 00-.453 2.585c-.098.754-.146 1.265-.143 1.534l-.95.433c.489-.605.943-1.223 1.361-1.852.414-.662.714-1.175.9-1.537.457-.836.85-1.529 1.178-2.079.357-.587.816-1.289 1.377-2.107.556-.85 1.137-1.4 1.742-1.651.633-.289 1.131-.458 1.495-.508.744.032 1.374.333 1.89.901.543.531.963 1.382 1.258 2.553.063.462.089 1.014.076 1.655l.03.955.65-1.149c.466-.771 1.105-1.632 1.916-2.584.564-.549 1.139-.897 1.724-1.044.581-.181 1.137-.055 1.667.377.922.344 1.581.977 1.976 1.899.391.888.62 2.068.688 3.539.018.872.09 1.519.215 1.939.12.387.274.77.46 1.148.283.096.371.37.264.822-.11.419-.281.644-.513.676-.33.045-.719.031-1.166-.042a3.106 3.106 0 01-1.178-.495c-.343-.289-.552-.715-.629-1.276l-.422-3.071c-.099-.727-.214-1.317-.343-1.77-.097-.458-.218-.727-.363-.808-.391-.148-.89.139-1.497.861-.608.723-1.235 1.667-1.883 2.832a44.389 44.389 0 00-1.781 3.575c-.487 1.11-.802 1.759-.944 1.947-.114.15-.369.134-.763-.047-.759-.132-1.264-.382-1.517-.751-.224-.407-.306-.883-.246-1.43a51.27 51.27 0 00.282-2.36c.133-.994.254-1.953.362-2.876.105-.956.163-1.637.175-2.043-.169-.246-.411-.296-.728-.152-.288.107-.581.298-.88.575-.36.318-.771.879-1.233 1.683a30.573 30.573 0 00-1.387 2.764c-.31.682-.637 1.366-.98 2.052a49.133 49.133 0 01-.972 1.748c-.3.513-.566.902-.798 1.17-.363.79-.622 1.229-.778 1.318-.157.088-.482.049-.976-.119zm28.235-2.156c-.429.059-.787.024-1.074-.105a18.12 18.12 0 01-.987-.571c-.718-.575-1.25-1.141-1.595-1.699-.351-.591-.515-1.175-.493-1.75.063-.277.062-.53-.002-.756l-.055-.396c-.188-.143-.251-.235-.189-.277.057-.075.109-.184.157-.325.198-.027.24-.218.124-.572-.103-.255-.05-.851.158-1.788.208-.937.505-1.836.892-2.696.153-.357.391-.828.715-1.41.32-.616.674-1.22 1.064-1.812.418-.629.803-1.136 1.154-1.52.731-.807 1.387-1.419 1.969-1.835a8.371 8.371 0 011.929-1.022c.704-.264 1.188-.415 1.452-.451.298-.041.73.169 1.298.63.805.226 1.404.547 1.798.964.426.413.75 1.058.972 1.936.235.977.308 2.128.221 3.452-.059 1.287-.62 2.962-1.683 5.025-.663 1.302-1.3 2.298-1.912 2.988a20.383 20.383 0 01-2.246 2.024c-.63.557-1.21.99-1.74 1.298-.534.275-1.176.498-1.927.668zm4.036-5.903c.67-1 1.182-1.928 1.536-2.784.386-.861.71-1.932.972-3.212.083-.382.104-.839.065-1.372a7.743 7.743 0 00-.261-1.529c-.101-.49-.255-.755-.462-.794-.428-.177-.916-.177-1.464-.001-.552.143-1.12.54-1.703 1.192-.906.999-1.651 2.195-2.234 3.587-.587 1.359-1.133 2.897-1.638 4.615-.332 1.257-.316 2.231.047 2.921.393.653 1.038.817 1.935.492.926-.363 1.995-1.401 3.207-3.115zm34.539-.497a2.829 2.829 0 01-1.214-.389 2.403 2.403 0 01-.843-.994 2.166 2.166 0 01-.177-1.288c.088-.584.162-1.15.222-1.696.088-.584.129-1.145.122-1.682-.007-.302.049-.747.17-1.336.15-.626.293-1.302.429-2.027.136-.725.163-1.385.082-1.979a3.327 3.327 0 00-.291-1.02 1.231 1.231 0 00-.697-.662 5.045 5.045 0 00-2.034-.478 64.289 64.289 0 01-2.029-.075c-.07-.024-.301.008-.693.095a4.479 4.479 0 01-.941.129l-.148 1.131c-.049.377-.082.751-.098 1.123-.078.415-.163.898-.256 1.449a37.454 37.454 0 00-.235 1.596c-.085.853-.15 1.485-.195 1.894-.044.41-.106.822-.183 1.237-.045.41-.143 1.046-.294 1.907-.054.344-.093.669-.119.976-.025.306-.1.619-.224.939a.813.813 0 00-.052.36l.048.347c.032.231-.005.455-.11.671a1.682 1.682 0 01-.335.5 1.742 1.742 0 01-.461.316c-.189.093-.36.2-.511.322-.367-.219-.632-.435-.796-.648a6.836 6.836 0 00-.71-.76c.085-.853.158-1.671.219-2.453.094-.787.171-1.453.231-2 .088-.584.172-.949.253-1.094.138-.221.185-.614.141-1.18a5.769 5.769 0 01.222-1.696 1.972 1.972 0 01.013-1.011l.26-1.045c.15-.627.198-1.256.145-1.888a18.435 18.435 0 01.032-1.972c.327-.314.588-.501.781-.562.189-.093.496-.185.921-.277l.058-.311c.015-.137.033-.257.052-.36.479-.436 1.147-.713 2.006-.83.858-.118 1.584-.1 2.177.054.104.02.189.025.255.016.066-.01.167-.007.304.008.335-.012.747.05 1.236.184.485.102.961.255 1.426.461.466.205.83.407 1.093.607.779.532 1.339 1.179 1.679 1.94.373.756.616 1.547.729 2.373.125 1.16.084 2.327-.126 3.499a67.398 67.398 0 00-.475 2.791c-.04.443-.056.815-.049 1.117.041.297.146.568.314.815.168.246.391.518.667.816-.01.17-.108.436-.294.798-.158.324-.368.505-.633.541a.813.813 0 00-.56.329c-.114.15-.282.274-.504.372zm13.072-1.843c-.675.227-1.114.338-1.317.332-.174-.044-.465-.206-.874-.486a4.618 4.618 0 01-1.473-.807 4.44 4.44 0 01-.913-1.137c-.195-.444-.297-.817-.305-1.119-.059-1.169.052-2.446.333-3.83a26.45 26.45 0 011.161-4.046c.493-1.312 1.06-2.45 1.702-3.413.67-1 1.351-1.682 2.041-2.046.624-.355 1.238-.54 1.842-.555.603-.016 1.075.24 1.417.764.626.89.595 1.517-.096 1.88-.099.014-.208.08-.326.197-.123.084-.176.192-.158.324.142.048.507.015 1.097-.1a16.891 16.891 0 001.743-.541c.604-.252.995-.473 1.17-.666.185-.126.326-.196.426-.21.099-.013.351-.014.756-.002.584.088.892.248.924.479a.665.665 0 00.203.376.476.476 0 00.367.1c.236.002.223.155-.038.46-.228.301-.641.727-1.238 1.28-.573.483-.933.801-1.08.956-.118.117-.103.35.046.7.35.591.466 1.316.348 2.173-.118.857-.415 1.756-.892 2.696a13.65 13.65 0 01-1.846 2.726c-.726.84-1.532 1.59-2.417 2.249-.857.623-1.724 1.044-2.603 1.266zm-1.141-2.064c.133-.018.355-.116.667-.294l.738-.505c.114-.15.259-.321.434-.513.204-.23.37-.371.498-.422.132-.018.29-.09.475-.216.18-.16.426-.446.74-.859.309-.446.708-1.09 1.199-1.931.56-.817.982-1.547 1.264-2.192.277-.677.297-1.268.059-1.774-.051-.128-.162-.197-.331-.207a2.41 2.41 0 01-.579-.173c-.33.045-.655.006-.975-.119a28.026 28.026 0 01-1.043-.614l-.929-.882-.726.958c-.456.601-.909 1.47-1.359 2.609a22.847 22.847 0 00-1.001 3.367c-.252 1.111-.367 1.985-.347 2.621.034.5.162.819.383.957s.499.201.833.189zm20.618-.002c-.402.257-.886.408-1.452.452-.566.044-1.35-.034-2.353-.233-.066.01-.224-.036-.473-.137a6.604 6.604 0 01-.712-.407 3.658 3.658 0 01-.597-.675c-.633-.687-1.001-1.78-1.106-3.28-.105-1.5.113-3.346.653-5.54.163-.527.424-1.202.782-2.025a44.32 44.32 0 011.152-2.277c.404-.729.699-1.156.884-1.283l.517-.272c.345-.182.778-.46 1.299-.835.156-.088.329-.18.518-.273.222-.097.446-.178.673-.243.227-.065.425-.092.594-.082.665-.057 1.376.098 2.133.465.786.33 1.45.76 1.994 1.29.539.499.756.974.65 1.426.009.066-.072.212-.243.437a10.61 10.61 0 01-.52.626 3.52 3.52 0 00-.427.564c-.138.22-.358.335-.66.342-.269.004-.534-.095-.797-.294-.235-.237-.395-.551-.483-.943-.102-.255-.384-.469-.845-.641l-.642-.266c-.264.037-.61.337-1.037.9-.399.525-.785 1.15-1.156 1.874a8.657 8.657 0 00-1.244 2.341c-.32.851-.563 1.658-.728 2.421l-.291 1.554c-.087.349-.04.813.141 1.394.18.581.345.928.496 1.042.141.048.473.019.997-.086.557-.11 1.209-.267 1.955-.47a45.5 45.5 0 002.168-.751c.703-.265 1.273-.528 1.708-.79.573-.482 1.086-.788 1.54-.918.453-.129.8-.177 1.04-.142.381.082.621.234.719.456.097.222.051.498-.139.827-.195.296-.553.631-1.074 1.005-.492.337-.93.7-1.314 1.089-.356.351-.522.61-.499.775-.132.018-.274.088-.426.209-.123.085-.236.117-.34.098-.066.009-.323.094-.772.257a29.46 29.46 0 00-1.389.544c-.444.195-.742.354-.894.475zm12.775-2.912a4.26 4.26 0 01-1.113-.756c-.351-.356-.568-.831-.649-1.425-.045-.33-.056-.901-.033-1.711.023-.811.083-1.728.178-2.75.095-1.022.2-1.979.313-2.87.249-.639.448-1.272.598-1.898.149-.626.215-1.005.197-1.137.012-.406.031-.88.058-1.421.059-.547.126-1.044.199-1.491.073-.448.138-.709.195-.784.143-.188.327-.314.554-.379a.878.878 0 01.707.004c.278.063.505.25.683.563.417.346.665.8.742 1.362.072.528-.001 1.345-.219 2.452a25.095 25.095 0 00-.573 2.45c-.175.933-.326 1.795-.453 2.586-.098.754-.146 1.265-.143 1.534l-.949.433c.488-.606.942-1.223 1.361-1.852.413-.663.713-1.175.899-1.537a63.6 63.6 0 011.179-2.08c.356-.586.815-1.289 1.376-2.106.556-.85 1.137-1.4 1.742-1.652.633-.288 1.131-.458 1.495-.508.744.033 1.374.333 1.89.902.544.531.963 1.382 1.258 2.553a10.7 10.7 0 01.076 1.655l.03.955.65-1.15c.466-.77 1.105-1.631 1.916-2.584.564-.548 1.139-.896 1.724-1.044.581-.18 1.137-.055 1.667.377.922.345 1.581.978 1.976 1.9.391.888.621 2.068.688 3.539.018.872.09 1.518.215 1.939.121.387.274.77.46 1.148.283.096.371.37.264.822-.11.418-.281.644-.512.675-.331.046-.72.032-1.167-.041a3.106 3.106 0 01-1.178-.495c-.343-.289-.552-.715-.629-1.276l-.421-3.072c-.1-.726-.215-1.316-.344-1.77-.097-.457-.218-.727-.363-.807-.391-.149-.89.138-1.497.86-.608.723-1.235 1.667-1.883 2.833a44.555 44.555 0 00-1.781 3.575c-.487 1.11-.801 1.759-.944 1.946-.114.151-.368.135-.763-.046-.759-.132-1.264-.382-1.516-.751-.224-.407-.307-.884-.247-1.43a51.27 51.27 0 00.282-2.36c.133-.994.254-1.953.363-2.876.104-.957.162-1.637.174-2.043-.169-.246-.411-.297-.728-.152-.288.106-.581.298-.88.575-.36.318-.771.88-1.233 1.683a30.573 30.573 0 00-1.387 2.764c-.31.682-.637 1.366-.98 2.052a50.033 50.033 0 01-.972 1.748c-.3.512-.566.902-.798 1.169-.363.79-.622 1.23-.778 1.318-.156.089-.481.05-.976-.118zm28.914-1.795c-.425.092-.776.106-1.054.043a17.714 17.714 0 01-1.065-.409c-.804-.461-1.426-.948-1.866-1.46-.412-.549-.639-1.106-.683-1.672.025-.307-.011-.571-.109-.793l-.097-.34c-.221-.138-.301-.228-.239-.27a.634.634 0 00.108-.317c.255-.103.263-.289.024-.559-.135-.251-.167-.852-.096-1.804.1-.989.275-1.921.525-2.797.115-.386.281-.896.497-1.531.248-.64.53-1.284.845-1.933.31-.682.605-1.227.886-1.636.613-.925 1.173-1.624 1.68-2.098a8.173 8.173 0 011.839-1.312c.624-.354 1.083-.569 1.376-.642.292-.074.732.067 1.32.424.824.123 1.464.371 1.919.746.483.338.9.92 1.249 1.747.395.921.634 2.05.716 3.384.111 1.297-.222 3.042-.998 5.234-.451 1.374-.945 2.434-1.482 3.181a22.617 22.617 0 01-1.894 2.379c-.555.615-1.076 1.107-1.564 1.476-.488.37-1.1.69-1.837.959zm3.155-6.438c.524-1.082.912-2.06 1.162-2.935.278-.913.445-2.03.499-3.35.017-.372-.028-.82-.134-1.344a7.146 7.146 0 00-.458-1.501c-.162-.45-.345-.676-.548-.682-.451-.106-.93-.04-1.436.197-.51.204-1.034.68-1.571 1.426a14.095 14.095 0 00-1.23 2.44 23.438 23.438 0 00-.815 2.888 52.43 52.43 0 00-.606 3.313c-.158 1.3-.01 2.255.444 2.866.487.606 1.154.683 2 .23.842-.485 1.739-1.668 2.693-3.548zm10.105 4.67c-.396.054-.75.052-1.061-.006a1.992 1.992 0 01-.712-.407l-.491-.639a6.515 6.515 0 01-.462-.795c.03-.273.142-.558.337-.853.195-.296.506-.356.934-.179.066-.009.137.015.212.072.075.057.167.112.275.164 1.145-.729 2.036-1.591 2.673-2.587a28.817 28.817 0 001.858-3.384 6.525 6.525 0 01-1.793-.561c-.579-.291-1.01-.619-1.296-.984-.403-.483-.703-1.08-.902-1.794-.199-.713-.336-1.098-.411-1.155.207-.7.312-1.287.314-1.758.036-.477.107-.94.213-1.392.102-.485.343-1.057.724-1.715.3-.512.687-1.002 1.161-1.471a9.775 9.775 0 011.393-1.25c.459-.333.804-.515 1.035-.547a1.28 1.28 0 001.034-.192 1.17 1.17 0 01.984-.185c.136.015.254.015.353.002.128-.051.227-.065.297-.04.849.051 1.607.182 2.275.394.668.21 1.156.7 1.463 1.465-.07.716-.157 1.434-.26 2.155a8.322 8.322 0 01-.521 2.09 55.955 55.955 0 00-.719 2.117 9.267 9.267 0 01-.881 2.039l.14.284c.372.016.829.037 1.371.064.571-.011.873-.019.906-.023.376.049.713.171 1.009.366.324.157.669.345 1.036.564.051.128.069.26.054.397-.015.136-.06.294-.137.473a143.25 143.25 0 01-.833 2.385c-.297.78-.575 1.576-.834 2.385a7.227 7.227 0 00-.177 1.286c-.031.509-.109.924-.233 1.244-.257.338-.43.546-.52.626-.061.042-.13.035-.205-.022-.075-.057-.261-.065-.558-.025-.476-.035-.824-.24-1.043-.614a2.322 2.322 0 00-.386-.603c-.126-.184-.174-.413-.145-.687a9.6 9.6 0 01.124-.572c.039-.207.096-.4.173-.579.192-.564.35-1.124.476-1.68.126-.555.27-1.097.433-1.624.114-.15.155-.34.124-.572l-.347.048a17.691 17.691 0 00-.707-.004 4.903 4.903 0 00-.813-.04c-.147.155-.325.33-.533.527-.213.164-.361.437-.443.818-.309.446-.595.94-.857 1.48a8.123 8.123 0 01-.907 1.487l-1.111 1.465c-.337.483-.724.974-1.161 1.471-.654.628-1.295.985-1.922 1.071zm4.531-11.119c.161-.055.365-.285.612-.69.276-.44.548-.915.814-1.423a36.64 36.64 0 00.758-1.467c.205-.465.318-.75.337-.853.009.066.055-.092.137-.473.083-.382.172-.831.27-1.35.13-.522.248-1.01.354-1.461.106-.452.157-.695.153-.728-.47-.238-.837-.339-1.102-.303-.264.036-.568.146-.914.327-1.176.498-2.106 1.198-2.79 2.099-.689.868-1.131 1.938-1.327 3.21-.11 1.159.085 2.091.586 2.796.529.668 1.233.773 2.112.316zm24.718 6.805a3.946 3.946 0 00-.615-.067l-.621-.117a2.69 2.69 0 00-.615-.067c-.394-.417-.603-.96-.627-1.63a10.35 10.35 0 01.153-2.19 81.97 81.97 0 00.451-2.233c.169-.73.236-1.344.202-1.844-.052-.128-.106-.154-.163-.079-.061.042-.087.096-.078.162-.195.296-.501.523-.916.681a26.33 26.33 0 01-1.155.41c-.614.186-1.226.388-1.835.606-.609.218-1.2.45-1.772.697a8.206 8.206 0 01-.381-.2 1.96 1.96 0 00-.331-.207c-.231.032-.4.273-.506.725a10.654 10.654 0 00-.228 1.647c-.051.612-.104 1.208-.159 1.788-.026.542-.073.935-.141 1.18-.519.138-.897.207-1.132.206-.203-.006-.596-.053-1.18-.141-.314-.327-.511-.654-.589-.98-.045-.33-.046-.7-.001-1.11.061-.782.11-1.41.145-1.887.069-.48.202-1.104.4-1.871.115-.386.216-.754.303-1.102.115-.386.143-.793.084-1.223a2.85 2.85 0 00.396-1.164c.045-.41.106-.822.184-1.237.342-1.426.612-2.523.81-3.29.226-.805.376-1.431.449-1.879.073-.447.101-.855.085-1.222-.031-.467.218-.737.747-.81.33-.045.695.04 1.094.254.395.181.717.44.965.776s.316.714.205 1.133c-.062.278-.169.73-.318 1.356a82.624 82.624 0 01-.436 1.977c-.14.692-.285 1.352-.435 1.978-.121.588-.23 1.024-.326 1.306a.737.737 0 01-.15.374c-.09.08-.124.202-.101.367.254.133.642.148 1.166.042.553-.143.935-.296 1.148-.46l1.437-.197 1.486-.204c.536.23.977.623 1.323 1.181.145-.659.345-1.528.601-2.606.252-1.11.489-2.203.712-3.277.223-1.073.331-1.879.324-2.416a1.83 1.83 0 01.288-.847c.166-.259.356-.47.569-.633.494.167.967.304 1.419.41.481.07.83.408 1.048 1.018.008.302-.017.608-.076.919l-.188.833a47.568 47.568 0 01-.804 3.34 54.737 54.737 0 00-.911 3.658 20.097 20.097 0 00-.394 3.385c.013.099-.024.44-.112 1.024-.055.58-.129 1.145-.222 1.696-.059.547-.103.839-.132.876.032.231-.005.455-.11.671a2.155 2.155 0 01-.434.514zm10.29-2.017a9.018 9.018 0 00-.969-.069 3.863 3.863 0 01-1.137-.197c-.324-.157-.507-.385-.548-.682a4.31 4.31 0 01-.045-.7c.034-.24.139-.457.315-.649a.392.392 0 00.029-.155c-.005-.033.007-.069.036-.106a.999.999 0 00-.16-.432c-.085-.123-.107-.288-.068-.496.082-.381.14-.692.175-.932.062-.278.067-.615.012-1.011l-.027-.198a.564.564 0 01.016-.255c.164-.763.277-1.535.338-2.317.061-.782.209-1.543.444-2.282.279-.913.637-2.106 1.074-3.579a61.424 61.424 0 001.048-4.13c.083-.382.2-.634.351-.755a.905.905 0 01.624-.237c.4-.021.828.155 1.284.53.45.342.795.648 1.034.918-.244.673-.539 1.47-.883 2.392-.316.885-.618 1.75-.906 2.597-.259.81-.437 1.474-.534 1.992a13.27 13.27 0 001.634-.225 9.543 9.543 0 011.932-.264 9.49 9.49 0 001.932-.265 77.887 77.887 0 001.849-.506c.097-.518.185-1.102.264-1.752.112-.655.222-1.326.33-2.014.14-.692.337-1.341.59-1.948.254-.607.608-1.093 1.062-1.458.255-.102.453-.13.595-.081.136.014.331.089.585.222.475.271.825.493 1.05.663.254.134.364.32.329.561-.034.24-.197.65-.487 1.228a3.762 3.762 0 00-.319 1.356 2.844 2.844 0 01-.382 1.263c-.057.075-.148.39-.274.946a86.229 86.229 0 00-.429 2.027l-.48 2.388c-.16.795-.3 1.487-.421 2.076-.089.584-.126.926-.112 1.025.026.434.021.888-.015 1.364-.04.443-.029.896.035 1.358.036.265-.019.474-.166.629-.119.117-.294.191-.525.223-.33.045-.705.013-1.124-.098-.419-.111-.736-.219-.952-.324-.146-.08-.284-.23-.415-.448a7.424 7.424 0 01-.23-.574 21.6 21.6 0 01.374-2.423c.193-.8.351-1.613.473-2.437a.889.889 0 00.045-.41.887.887 0 00-.153-.382 14.045 14.045 0 00-3.333.356c-1.109.253-2.204.487-3.285.703-.142.187-.286.61-.431 1.27a25.339 25.339 0 00-.287 1.957c-.079.65-.146 1.147-.199 1.49.064.227.077.562.036 1.005-.04.443-.113.89-.219 1.343-.111.418-.238.722-.38.91zm22.105-3.334c-.255.103-.597.183-1.027.242-.434.026-.82.029-1.159.008-.311-.059-.473-.137-.487-.236-.023-.166-.117-.237-.282-.214l-.275-.164c-.15-.114-.383-.217-.698-.308a2.725 2.725 0 01-.649-1.425c-.077-.562-.049-1.457.085-2.687-.014-.839.169-1.84.548-3.002a29.2 29.2 0 011.562-3.697 27.316 27.316 0 012.049-3.46c.764-1.047 1.481-1.835 2.148-2.364.399-.526.927-.85 1.583-.974a3.482 3.482 0 011.943.188c.353.12.72.339 1.1.657.38.318.748.67 1.104 1.06.356.388.663.783.92 1.186.148.35.243.673.284.97.069.26.115.59.136.99.054.397.086.998.096 1.804a19.228 19.228 0 00-.147 2.241c.019.872.071 1.622.157 2.25.02.636.147 1.073.382 1.31.267.232.599.203.997-.087.369-.252.738-.387 1.105-.403.364-.05.658.01.883.181.259.167.415.448.469.844.055.397-.087.837-.424 1.32a5.11 5.11 0 01-1.245 1.23c-.492.338-.986.54-1.481.608-.363.05-.739-.118-1.128-.502a8.491 8.491 0 01-1.116-1.512c-.322-.629-.623-1.227-.902-1.794l-.454-1.099-1.851 2.323a23.91 23.91 0 01-1.112 1.465c-.346.418-.558.716-.634.894-.124.32-.397.66-.819 1.021-.389.356-.942.735-1.661 1.136zm-.252-2.943c.516-.407 1.094-.974 1.735-1.701a32.877 32.877 0 001.838-2.422 26.594 26.594 0 001.435-2.418c.457-.836.789-1.605.995-2.306a9.816 9.816 0 00.386-1.971 4.515 4.515 0 00-.8-1.051c-.356-.389-.652-.584-.888-.585-.726.1-1.439.668-2.138 1.706-.67 1-1.312 2.081-1.927 3.242-.11.184-.255.473-.436.868a29.48 29.48 0 01-.551 1.135l-.315.649c-.081.145-.227.552-.438 1.22-.183.631-.363 1.279-.541 1.942-.183.63-.261 1.045-.234 1.243a4.7 4.7 0 00.138.638c.098.222.283.348.557.377.273.03.668-.158 1.184-.566zm26.975-17.981c.461.172.774.365.937.578.16.18.476.523.949 1.03l-.114 1.379a23.733 23.733 0 01-.122 1.682c-.06.546-.137.96-.233 1.243.129.453.106 1.146-.069 2.079-.146.894-.302 1.841-.468 2.84a30.736 30.736 0 00-.37 2.826c-.075.919-.002 1.7.221 2.342a2.02 2.02 0 00-.264.288.75.75 0 01-.263.289 1.38 1.38 0 01-1.182.212 1.955 1.955 0 01-1.057-.713 1.916 1.916 0 01-.381-1.31c.04-.443.117-1.11.23-2 .109-.923.223-1.931.343-3.025.119-1.093.226-2.15.321-3.173l.235-2.707c.065-.749.082-1.239.051-1.47-.041-.297-.295-.43-.762-.4-.438-.008-.915.075-1.43.246-.486.134-.807.245-.963.334a4.795 4.795 0 00-1.564 1.476 7.213 7.213 0 00-.895 1.94 37.322 37.322 0 00-.564 2.146c.061.194.102.373.125.538.018.132.104.272.259.42.197.208.467.339.811.393.344.053.702.088 1.074.105.372.016.7.072.982.168.104.02.189.024.255.015a.44.44 0 01.191-.076c.099-.014.191.04.275.164.285.364.496.672.631.923.135.25.07.63-.197 1.137-.749.675-1.483 1.33-2.203 1.968a23.066 23.066 0 00-2.084 2.102c-.2.263-.455.483-.767.66-.284.14-.523.358-.718.654a4.353 4.353 0 01-.606.74 5.685 5.685 0 00-.612.689c-.113.15-.23.284-.348.4-.123.085-.276.072-.46-.037-.5.035-.892-.13-1.178-.495a5.277 5.277 0 01-.742-1.361c.3-.513.791-1.102 1.474-1.767a33.819 33.819 0 012.282-2.13 45.27 45.27 0 012.451-2.001c-.868.051-1.554-.04-2.057-.274a13.78 13.78 0 01-1.374-.82c-.469-.475-.734-1.06-.796-1.759a6.479 6.479 0 01.266-2.105c.202-.735.42-1.353.654-1.856.057-.076.081-.146.072-.212a.569.569 0 01.079-.162c.325-.819.613-1.413.865-1.784.285-.376.759-.845 1.423-1.407.241-.201.506-.355.794-.462a4.31 4.31 0 01.865-.32c.321-.112.762-.206 1.323-.283a14.547 14.547 0 011.698-.132c.566-.044 1.007-.02 1.322.071.24.035.466.088.678.16.245.067.481.068.707.004zm16.705 11.79c-.008-.302.039-.696.141-1.18.102-.486.206-.954.312-1.406.106-.452.183-.749.231-.89.292-.814.549-1.64.771-2.477.25-.876.434-1.742.552-2.6l.204-1.087c.13-.523.244-1.043.341-1.561.126-.556.173-.949.141-1.18a2.76 2.76 0 01.325-1.306c.248-.405.577-.702.988-.893.373.016.702.089.989.218.287.129.557.26.811.393.225.171.334.476.327.914a12.622 12.622 0 01-.172 1.69c-.069.48-.218 1.106-.449 1.878a62.581 62.581 0 01-.642 2.308 53.259 53.259 0 00-.463 1.78c-.212.903-.44 1.944-.682 3.121a51.36 51.36 0 01-.538 2.698c-.078.415.132.722.631.923.588.121 1.225.101 1.909-.06.68-.194 1.32-.433 1.921-.717a11.618 11.618 0 001.539-.918c.398-.29.592-.468.583-.534.002-.236.013-.523.033-.863.054-.343.161-.913.321-1.71.193-.8.45-1.995.77-3.587l.116-.621c.078-.415.182-.883.312-1.406.126-.555.228-1.04.306-1.455l.109-.671c-.117-.859-.04-1.643.233-2.353.268-.744.62-1.246 1.055-1.508a2.84 2.84 0 01.743-.102c.235.002.447.074.635.216.296.195.575.392.838.592.263.2.44.511.532.936-.1.25-.161.544-.181.883a2.216 2.216 0 01-.281.896 10.63 10.63 0 00-.373.96c-.092.315-.103.603-.033.862l-.847 3.397a85.87 85.87 0 01-.543 2.295c-.184.866-.308 1.438-.37 1.716l1.607-.422c.429-.059.845-.099 1.245-.12.397-.055.865.05 1.406.312.099-.014.197.09.295.312.126.185.243.421.35.71.139.283.258.536.356.758-.036.476-.181 1.135-.435 1.978a78.601 78.601 0 01-.814 2.534 39.63 39.63 0 01-.732 2.018 4.55 4.55 0 01-.358.705l-.4.761c-.282.645-.656.982-1.123 1.012-.467.03-.923-.226-1.367-.771-.05-.363-.038-.887.037-1.57a56.59 56.59 0 00.219-1.342c.02-.103.123-.454.31-1.052a78.06 78.06 0 00.569-1.743c.187-.598.267-.996.24-1.194.01-.17-.041-.297-.154-.383-.112-.085-.23-.086-.353-.002-.099.014-.366.152-.802.413l-1.206.771c-.407.224-.693.347-.858.37-.738.505-1.343.874-1.816 1.107-.444.196-1.078.484-1.9.866-1.713.269-2.923.401-3.63.397-.711-.037-1.321-.189-1.829-.456-.62-.352-1.082-.776-1.386-1.273-.27-.501-.435-.967-.494-1.396l-.122-.891zm30.458-1.3a4.4 4.4 0 01-2.285 1.373 5.22 5.22 0 01-2.68-.037 5.34 5.34 0 01-2.374-1.491 5.653 5.653 0 01-1.43-2.327c-.296-.935-.483-2.171-.559-3.709-.077-1.301.159-2.646.709-4.033a15.626 15.626 0 012.143-3.878c.916-1.168 1.859-2.02 2.829-2.558.45-.398.842-.603 1.177-.615.363-.05.913-.092 1.648-.125.773-.005 1.355.066 1.745.215.424.143.774.364 1.05.663.564.427.962.877 1.195 1.35.228.44.374.891.438 1.353-.033.745-.406 1.705-1.119 2.88-.686 1.136-1.66 2.128-2.923 2.974-.695.33-1.474.538-2.337.623-.864.085-1.603-.032-2.219-.352-.664-.178-1.07-.072-1.218.319-.153.357-.221 1.208-.205 2.551.04 1.273.266 2.184.678 2.734.407.516.898.785 1.473.807.678.041 1.204.07 1.576.086.401-.02.86-.235 1.376-.642.483-.403.788-.63.916-.681.123-.084.213-.164.27-.24l.555-.731c.2-.263.359-.453.477-.57a.623.623 0 01.419-.26c.165-.022.325.04.48.187.15.114.296.195.437.243.33-.046.423.144.28.567-.111.419-.392.945-.844 1.58-.456.6-1.015 1.181-1.678 1.743zm-1.49-10.495a6.22 6.22 0 001.044-.85c.351-.385.634-.777.848-1.176.243-.438.347-.788.31-1.052-.063-.463-.33-.813-.8-1.051-.475-.272-1.125-.233-1.952.116-.35.149-.729.453-1.137.913-.412.427-.801.9-1.167 1.422-.333.516-.607.974-.821 1.374-.182.395-.235.62-.16.678.122.151.421.245.897.28a7.77 7.77 0 001.542-.16c.59-.115 1.055-.28 1.396-.495zm21.13 9.012a3.946 3.946 0 00-.615-.067l-.621-.117a2.628 2.628 0 00-.615-.067c-.394-.417-.603-.96-.627-1.63-.029-.702.022-1.432.153-2.19a81.97 81.97 0 00.451-2.233c.169-.73.237-1.344.202-1.844-.051-.128-.106-.154-.163-.079-.061.042-.087.096-.078.162-.195.296-.501.523-.916.681-.416.158-.801.295-1.155.41-.614.186-1.226.388-1.835.606-.609.218-1.2.45-1.772.697a7.669 7.669 0 01-.38-.2 1.978 1.978 0 00-.332-.207c-.231.032-.399.273-.506.725a10.654 10.654 0 00-.228 1.647c-.051.612-.104 1.208-.159 1.788-.026.542-.073.935-.141 1.18-.519.138-.897.207-1.132.206-.203-.006-.596-.053-1.18-.141-.314-.327-.511-.654-.589-.98-.045-.33-.045-.7-.001-1.11.061-.782.11-1.41.145-1.887.069-.48.202-1.104.4-1.871.115-.386.216-.753.303-1.102.115-.386.143-.793.085-1.223.218-.366.35-.754.395-1.164a16.3 16.3 0 01.184-1.237c.342-1.426.613-2.523.81-3.29.226-.805.376-1.431.449-1.879.073-.447.102-.855.085-1.222-.031-.467.218-.737.747-.81.33-.045.695.04 1.094.254.395.181.717.44.965.776.248.337.316.714.206 1.133-.063.278-.17.73-.319 1.356a78.101 78.101 0 01-.436 1.977c-.14.692-.285 1.352-.435 1.978-.121.588-.23 1.024-.325 1.306a.747.747 0 01-.151.374c-.09.08-.124.202-.101.367.254.134.643.148 1.166.042.553-.143.935-.296 1.149-.46l1.436-.197 1.486-.204c.536.23.977.623 1.323 1.181.145-.659.346-1.528.601-2.606.252-1.11.489-2.203.712-3.277.223-1.073.331-1.879.325-2.416.025-.306.121-.589.287-.847a2.47 2.47 0 01.569-.633c.494.167.967.305 1.419.41.481.07.83.408 1.048 1.018.008.302-.017.608-.076.919l-.188.833a47.57 47.57 0 01-.804 3.34 54.734 54.734 0 00-.911 3.658 20.097 20.097 0 00-.394 3.385c.014.099-.024.44-.112 1.024-.055.58-.129 1.145-.222 1.696-.059.547-.103.839-.132.876.032.231-.005.455-.11.671a2.173 2.173 0 01-.434.514zm11.884-2.538c-.255.102-.597.183-1.027.242-.434.026-.82.028-1.159.008-.311-.059-.473-.137-.487-.237-.023-.165-.117-.236-.282-.213l-.275-.164c-.15-.114-.383-.217-.698-.308a2.726 2.726 0 01-.65-1.425c-.076-.562-.048-1.457.086-2.687-.014-.84.169-1.84.547-3.002.408-1.2.929-2.432 1.563-3.697a27.316 27.316 0 012.049-3.46c.764-1.047 1.481-1.835 2.148-2.364.399-.526.927-.85 1.583-.974a3.482 3.482 0 011.943.188c.353.12.72.339 1.1.656.38.318.748.672 1.104 1.06.356.389.663.784.92 1.186.148.35.243.673.284.97.069.26.115.59.136.991.054.397.086.998.096 1.804a19.23 19.23 0 00-.147 2.24c.019.873.071 1.623.157 2.25.02.637.147 1.074.382 1.31.267.233.599.204.997-.086.369-.252.738-.387 1.105-.404.364-.05.658.011.883.182.259.167.415.448.469.844.055.396-.087.837-.424 1.32-.309.446-.724.856-1.245 1.23-.492.337-.986.54-1.481.608-.363.05-.739-.118-1.129-.502a8.54 8.54 0 01-1.115-1.512c-.322-.629-.623-1.227-.902-1.794l-.454-1.099-1.851 2.323c-.366.521-.737 1.01-1.112 1.465-.346.417-.558.715-.634.894-.125.32-.397.66-.819 1.021-.389.356-.942.735-1.661 1.136zm-.252-2.943c.516-.407 1.094-.974 1.735-1.701a32.879 32.879 0 001.838-2.422 26.335 26.335 0 001.434-2.418c.458-.836.79-1.605.996-2.307a9.816 9.816 0 00.386-1.97 4.516 4.516 0 00-.8-1.051c-.356-.389-.652-.584-.888-.585-.726.1-1.439.668-2.138 1.706-.67 1-1.313 2.081-1.927 3.242-.11.183-.255.473-.436.867-.182.395-.365.774-.551 1.136l-.315.649c-.081.145-.227.552-.438 1.22a99.07 99.07 0 00-.541 1.942c-.183.63-.261 1.045-.234 1.243.027.198.073.41.138.637.098.222.283.348.557.378.273.03.668-.159 1.184-.566zm19.771-6.85c-.902.292-1.574-.07-2.016-1.086-.443-1.016-.559-2.48-.351-4.393.144-.423.257-.826.34-1.207.077-.414.1-.737.069-.968.073-.448.17-.966.291-1.555.15-.626.306-1.202.47-1.73.158-.56.276-.929.352-1.108.132-.018.249-.151.349-.4.133-.254.184-.497.153-.728a3.132 3.132 0 01.026-.912c.087-.348.187-.598.301-.748-.023-.165.019-.356.124-.572.104-.216.148-.39.13-.523a.621.621 0 01.051-.36.478.478 0 00.101-.367c.225-.57.498-1.397.82-2.484a62.96 62.96 0 00.982-3.516 67.47 67.47 0 00.817-3.241c.208-.937.298-1.505.271-1.703.03-.273.102-.485.216-.635.114-.15.308-.21.581-.18a.664.664 0 01.376-.204 1.63 1.63 0 01.389-.104l.176.178c.15.114.359.287.626.52.296.195.481.439.555.731.074.293.138.637.192 1.034.053.632-.081 1.373-.401 2.225-.321.851-.68 1.792-1.077 2.822a43.736 43.736 0 01-.746 1.92c-.22.602-.321.969-.303 1.1.018.133-.021.34-.117.623-.096.282-.199.632-.31 1.051-.153.358-.313.784-.481 1.278l-.467 1.376c-.115.386-.166.628-.153.727a1.955 1.955 0 01-.094.417.885.885 0 01-.193.43c-.132.018-.201.129-.207.331l.034.248c.018.132-.022.457-.119.975-.069.48-.223 1.074-.462 1.78-.388 1.836-.641 3.3-.76 4.394-.124 1.06-.169 1.957-.136 2.693.043.801.04 1.273-.008 1.414-.015.137-.145.29-.391.458zm-1.588 8.293c-.596.317-1.109.505-1.538.564-.401.022-.874-.115-1.419-.41-.709-.51-1.005-1.074-.888-1.696.145-.659.606-1.345 1.383-2.057.545-.445.947-.702 1.206-.77.293-.075.755-.02 1.385.163 1.077.491 1.602 1.126 1.574 1.903.005.774-.563 1.541-1.703 2.303zM171.662 37.595a1.5 1.5 0 11-1.613 2.53l1.613-2.53zM3.34 54.491a1.5 1.5 0 01-1.331-1.652L3.45 39.417a1.5 1.5 0 112.983.32L5.152 51.67l11.931 1.282a1.5 1.5 0 01-.32 2.983L3.34 54.491zm166.709-14.366c-41.32-26.352-82.658-22.881-113.768-12.769-15.559 5.057-28.534 11.77-37.62 17.22a164.789 164.789 0 00-10.532 6.852c-1.212.86-2.14 1.55-2.761 2.022a60.1 60.1 0 00-.925.716l-.002.002L3.5 53a82.566 82.566 0 01-.94-1.17c.002 0 .003-.002.005-.003l.013-.01.05-.04.19-.15c.167-.13.413-.321.736-.567.645-.49 1.599-1.198 2.839-2.079 2.48-1.76 6.11-4.209 10.724-6.977 9.227-5.535 22.41-12.357 38.237-17.501 31.66-10.291 74-13.89 116.308 13.092l-1.613 2.53z" fill="#00E8AD"/></svg>