<svg width="628" height="170" fill="none" xmlns="http://www.w3.org/2000/svg"><path d="M139.096 106.023a38.48 38.48 0 00-.907-.847 2.107 2.107 0 01-.586-.685 1.435 1.435 0 01-.09-.745c.008.066.05-.14.127-.619.081-.446.162-1.027.244-1.742.119-.686.19-1.349.214-1.99l.396-3.824c-.161-.216-.174-.466-.04-.751.162-.322.342-.645.537-.971l3.261-.946c.513-.196 1.067-.616 1.661-1.258a17.742 17.742 0 001.759-2.125c.545-.77.985-1.445 1.318-2.022.942-1.658 1.708-3.244 2.298-4.759a39.386 39.386 0 001.548-4.718 72.72 72.72 0 001.19-5.18l1.269-6.195c.266-.3.423-.807.472-1.518.049-.71.053-1.231.013-1.562-.314-.097-.566-.1-.756-.01-.191.09-.423.118-.695.084a2.367 2.367 0 01-1.285-1.054c-.263-.506-.354-.982-.273-1.428a1.06 1.06 0 01.552-.016 4.69 4.69 0 00.751-.04 6.39 6.39 0 001.03-.225c.323-.106.826-.25 1.509-.433a85.52 85.52 0 001.901-.531c.616-.175.97-.301 1.062-.38 1.374-.3 2.586-.546 3.637-.74a55.39 55.39 0 013.104-.574 49.057 49.057 0 013.215-.488 2.606 2.606 0 011.598.312c.537.27.876.583 1.019.935.077.36.047 1.085-.09 2.176a96.406 96.406 0 01-.589 3.898 173.63 173.63 0 01-.884 4.79 97.732 97.732 0 01-1.127 4.87 86.238 86.238 0 01-1.104 4.212 36.1 36.1 0 01-.633 2.694c-.223.934-.459 1.902-.708 2.906a18.713 18.713 0 01-.299 1.698c-.102.55-.213 1.167-.331 1.853.094.223.213.377.357.46.14.05.422.017.844-.101.841-.27 1.34-.447 1.497-.533.187-.123.367-.296.542-.518.029-.037.126-.066.292-.086a1.11 1.11 0 01.508.04c.723.148 1.294.431 1.714.851.416.386.64.712.672.977.061 1.067-.064 2.257-.376 3.57a27.068 27.068 0 01-1.135 3.964 102.875 102.875 0 01-1.288 3.529c-.08.446-.119.686-.115.719a.214.214 0 01.024.199c.008.066-.126.351-.401.854-.174.222-.437.271-.788.145a3.577 3.577 0 01-.983-.637 11.342 11.342 0 01-.624-.58 2.236 2.236 0 01-.137-1.142c.051-.409.203-.964.454-1.666a194.49 194.49 0 001.444-3.9c.453-1.263.712-2.319.778-3.166l-.395-.355c-.121.115-.525.248-1.212.397-.691.117-1.464.244-2.321.38-.823.133-1.547.254-2.172.362l-.894.108c-.181-.112-.338-.16-.47-.145-.104-.021-.348.042-.733.189l-3.116.476-.595.071c-.17-.013-.35.025-.54.115-.646.213-1.151.34-1.515.384-.335.007-.861.104-1.577.29a24.28 24.28 0 00-.981.22c-.588.137-1.291.289-2.111.455-.786.161-1.57.34-2.353.535a51.95 51.95 0 00-1.912.431c-.492.093-.705.135-.639.127-.794.096-1.343.28-1.646.55a2.39 2.39 0 01-1.082.635 167.07 167.07 0 00-.569 3.644 166.062 166.062 0 01-.406 3.322c-.091.917-.147 1.428-.168 1.531a.947.947 0 01-.276.638c-.142.218-.436.421-.884.609zm8.706-14.292a37.036 37.036 0 002.172-.362 364.846 364.846 0 006.884-1.382 99.328 99.328 0 012.893-.65c.786-.162 1.211-.263 1.273-.304.087-.95.201-1.82.341-2.61a56.63 56.63 0 01.525-2.33c.21-.763.406-1.508.587-2.235.033-.004.134-.285.302-.842.164-.59.345-1.318.543-2.18l.683-2.702c.223-.933.409-1.761.557-2.484l.373-1.505a362.12 362.12 0 001.477-6.977c.406-1.929.626-3.45.66-4.561-.575-.032-1.323.025-2.246.17-.893.107-1.833.253-2.818.439-.984.186-1.897.413-2.738.682-.807.265-1.447.527-1.92.785l-.662 2.446c-.046.174-.171.81-.375 1.909-.17 1.095-.439 2.487-.807 4.176a107.007 107.007 0 01-1.253 5.49 101.517 101.517 0 01-1.714 5.846 39.252 39.252 0 01-2.183 5.299c-.781 1.604-1.632 2.898-2.554 3.882zm31.147-1.33c-.431.052-.788.011-1.073-.122a18.51 18.51 0 01-.977-.588c-.708-.586-1.231-1.161-1.567-1.725-.341-.597-.495-1.182-.463-1.757a1.52 1.52 0 00.009-.757l-.048-.397c-.185-.145-.246-.239-.184-.28.058-.074.112-.181.162-.322.199-.023.243-.213.133-.57-.098-.256-.035-.851.188-1.785.224-.933.536-1.827.937-2.68.159-.356.405-.822.738-1.399.33-.61.694-1.208 1.094-1.793.429-.623.822-1.123 1.179-1.502.744-.794 1.41-1.395 1.999-1.802a8.359 8.359 0 011.946-.99c.708-.252 1.194-.395 1.459-.427.298-.035.727.182 1.287.651.801.24 1.395.571 1.782.995.419.42.733 1.07.939 1.952.219.98.274 2.132.164 3.455-.08 1.285-.669 2.95-1.765 4.996-.685 1.291-1.338 2.276-1.962 2.956a20.258 20.258 0 01-2.279 1.986c-.639.547-1.226.97-1.761 1.27-.538.266-1.184.478-1.937.636zm4.132-5.835c.687-.989 1.214-1.909 1.582-2.758.401-.855.743-1.92 1.026-3.196.088-.38.117-.837.087-1.37a7.798 7.798 0 00-.235-1.533c-.093-.492-.243-.76-.449-.802-.425-.184-.913-.192-1.464-.025-.554.133-1.129.521-1.723 1.164-.922.984-1.687 2.167-2.292 3.549-.61 1.35-1.182 2.878-1.715 4.588-.353 1.25-.353 2.224-.001 2.92.382.66 1.024.834 1.926.524.932-.347 2.018-1.367 3.258-3.06zm15.378 3.69c-.94.28-1.823.337-2.649.168a4.248 4.248 0 01-2.109-1.207c-.547-.64-.884-1.489-1.012-2.548-.219-.98-.24-2.136-.064-3.467.171-1.363.492-2.745.961-4.144.503-1.404 1.077-2.631 1.723-3.682a32.847 32.847 0 011.723-2.424c.582-.741 1.124-1.26 1.626-1.555a4.218 4.218 0 011.249-.503 7.228 7.228 0 011.03-.224c.546.068 1.138.249 1.778.541.668.255 1.026.582 1.074.979l.117.137.161.081c.199-.024.39.172.574.586.218.41.377.895.477 1.453.097.526.068.983-.087 1.37a4.315 4.315 0 01-.498 1.722c-.275.503-.545.77-.809.803a1.65 1.65 0 00-.392.097c-.099.012-.139.1-.119.266.02.166-.071.244-.274.235-.169-.013-.363-.09-.582-.232a1.947 1.947 0 01-.53-.642c-.02-.165.012-.454.097-.868.085-.413.155-.941.212-1.586.087-.95-.001-1.544-.265-1.781-.267-.27-.716-.233-1.346.111-.771.563-1.488 1.304-2.15 2.223-.628.915-1.177 2.072-1.647 3.472-.473 1.366-.841 3.055-1.102 5.068-.107.785-.111 1.457-.01 2.015.134.555.253.843.356.864.479.076 1.112.034 1.898-.128.783-.195 1.344-.413 1.684-.656a18.699 18.699 0 001.662-1.257c.606-.543 1.135-1.027 1.588-1.45.153-.12.332-.309.536-.568.204-.26.43-.472.679-.636.217-.429.421-.688.611-.778.191-.09.485-.16.882-.207.272.034.533.103.78.208.248.105.413.219.495.343.115.12.079.243-.107.366-.133.016-.209.075-.231.178l.012.1c.082.124-.033.423-.345.897-.283.437-.66.936-1.129 1.496-.47.56-.931 1.052-1.384 1.476-.424.387-.735.592-.933.616-.331.04-.485.159-.461.357.008.066-.22.262-.685.586-.431.32-.945.651-1.542.992-.564.336-1.072.582-1.523.737zm13.47-2.93a3.29 3.29 0 01-.358-.46 1.65 1.65 0 01-.159-.485.822.822 0 00-.079-.242c-.012-.1-.084-.141-.217-.125-.111-.088-.091-.476.061-1.166.182-.727.417-1.56.707-2.502a91.46 91.46 0 01.98-2.737c.36-.916.659-1.64.897-2.173a.596.596 0 00.25-.433c.042-.206.03-.305-.036-.297l.194-.477c.159-.355.282-.588.37-.7a6.32 6.32 0 00.428-1.46c.073-.513.056-.93-.05-1.254-.152-.15-.307-.181-.465-.095l-.236.13a5.72 5.72 0 00-.572.27 2.283 2.283 0 00-.609.375c-.698.621-1.181.93-1.45.93-.272-.035-.622-.429-1.048-1.183-.177-.349-.258-.607-.245-.777.013-.17.124-.367.332-.594.236-.263.467-.442.69-.536.22-.127.39-.248.511-.364.336-.275.614-.476.833-.603a5.72 5.72 0 01.572-.27c.829-.369 1.551-.506 2.167-.412.615.093 1.114.47 1.495 1.129.531.507.841 1.124.928 1.852.084.695-.05 1.534-.402 2.516l-.407.805c-.126.35-.139.52-.04.508.133-.016.268-.15.405-.401.084-.144.258-.367.524-.667.266-.301.449-.457.548-.47l.094-.06c.095-.046.129-.184.101-.416l.262-.334.18-.172c.133-.016.363-.195.691-.537.358-.378.775-.815 1.253-1.309.332-.308.647-.48.945-.516.733-.324 1.375-.149 1.926.523.584.669.946 1.582 1.085 2.74l-.72 2.806 1.525-2.399c.166-.288.337-.544.512-.766.208-.227.386-.416.536-.569.038-.24.121-.383.25-.433l.192-.073.1-.012c.062-.041.087-.111.075-.21.15-.153.318-.29.504-.414.183-.156.3-.304.35-.445.535-.299 1.044-.394 1.527-.284.479.077.926.443 1.34 1.098.28.369.454.7.523.995.069.293.139.738.211 1.334-.007.504-.025.91-.055 1.215-.002.269-.001.554.002.856.003.302.003.722 0 1.259-.1.28-.149.572-.146.874l.101.844c.052.43.104.726.157.887.049.129.19.179.421.151.452-.155 1.053-.462 1.803-.922.78-.497 1.346-.95 1.699-1.363.441-.523.843-.806 1.208-.85.393-.08.663.071.81.457.082.124.002.436-.24.935-.209.495-.47.98-.782 1.454-.279.47-.502.715-.667.735-.099.012-.203.125-.312.34a1.675 1.675 0 01-.399.45c-.204.26-.409.503-.617.73a.96.96 0 01-.659.38c-.133.017-.292.086-.479.21a1.61 1.61 0 01-.584.17c-.319.14-.837.151-1.556.036-.686-.118-1.172-.53-1.458-1.234-.176-.348-.362-.914-.557-1.696a8.965 8.965 0 01-.249-2.488c.061-.612.078-1.168.051-1.668-.026-.5-.002-.856.074-1.066l-.084-.695c-.048-.398-.121-.59-.221-.578-.132.016-.417.302-.853.858a52.8 52.8 0 00-1.473 1.99 69.804 69.804 0 00-1.612 2.51c-.533.87-.96 1.644-1.282 2.32a5.78 5.78 0 00-.633 1.436c-.168.558-.298.875-.389.953-.2.293-.477.36-.832.201-.322-.162-.641-.443-.957-.841a2.577 2.577 0 01-.258-.473 2.103 2.103 0 01-.078-.645c.03-.306.094-.75.192-1.333.131-.586.3-1.412.508-2.478.228-1.17.421-2.216.579-3.142l.279-1.444c-.016-.132-.248.03-.697.487a32.07 32.07 0 00-1.57 1.6c-.254.4-.685 1.005-1.292 1.816-.608.812-1.269 1.731-1.985 2.757a42.034 42.034 0 00-2.031 3.216c-.796 1.472-1.375 2.381-1.736 2.727-.328.341-.702.303-1.122-.117zm33.273-3.6c-.257.098-.6.173-1.03.225a9.711 9.711 0 01-1.16-.012c-.31-.063-.471-.145-.483-.244-.02-.165-.112-.238-.278-.218l-.272-.169c-.148-.117-.379-.223-.693-.32a2.731 2.731 0 01-.626-1.435c-.068-.563-.024-1.458.13-2.685 0-.84.199-1.837.597-2.992a29.356 29.356 0 011.623-3.67 27.351 27.351 0 012.106-3.427c.782-1.034 1.512-1.81 2.188-2.328.408-.519.94-.835 1.598-.947a3.483 3.483 0 011.94.22c.351.125.714.35 1.089.674.374.325.737.684 1.086 1.078.35.395.65.795.9 1.201.143.352.233.677.269.975.064.261.104.592.119.993.048.397.07.999.066 1.805a19.39 19.39 0 00-.184 2.238c.004.873.044 1.623.12 2.252.009.637.129 1.076.36 1.316.263.237.596.214.998-.07.374-.246.744-.374 1.112-.385.364-.044.658.022.88.196.256.171.407.455.455.852.048.397-.101.835-.446 1.313a5.142 5.142 0 01-1.265 1.21c-.497.328-.995.522-1.491.582-.364.044-.737-.13-1.12-.52a8.537 8.537 0 01-1.091-1.53c-.311-.635-.602-1.238-.872-1.81l-.435-1.105-1.89 2.292a23.88 23.88 0 01-1.135 1.446c-.354.411-.57.706-.649.883-.13.318-.409.654-.836 1.008-.395.35-.954.719-1.68 1.108zm-.203-2.947c.523-.398 1.11-.956 1.763-1.672a32.703 32.703 0 001.877-2.392c.6-.878 1.091-1.675 1.475-2.393.471-.829.816-1.592 1.034-2.29a9.845 9.845 0 00.418-1.964 4.535 4.535 0 00-.782-1.064c-.35-.394-.642-.594-.878-.6-.728.088-1.45.645-2.166 1.671a36.49 36.49 0 00-1.981 3.21 9.79 9.79 0 00-.45.86c-.188.392-.378.767-.57 1.126l-.325.643c-.084.145-.237.55-.459 1.214a100.24 100.24 0 00-.573 1.932c-.193.628-.278 1.04-.254 1.24.024.198.066.41.127.639.094.223.278.352.551.387.272.034.67-.148 1.193-.547zm18.122-.216a4.21 4.21 0 01-1.1-.774c-.346-.361-.555-.84-.626-1.436-.04-.33-.042-.901-.005-1.711.037-.81.112-1.726.224-2.747.112-1.02.232-1.975.36-2.863.26-.636.469-1.265.629-1.889.16-.623.232-1.001.216-1.134.019-.405.046-.878.081-1.42a29.34 29.34 0 01.224-1.487c.081-.446.15-.706.209-.78.145-.186.332-.309.56-.37a.876.876 0 01.706.016c.277.067.502.258.674.573.412.354.651.812.719 1.374.064.53-.023 1.346-.259 2.449a24.88 24.88 0 00-.613 2.44c-.191.93-.356 1.79-.496 2.578-.111.752-.167 1.262-.168 1.531l-.957.418a24.54 24.54 0 001.391-1.83 22.91 22.91 0 00.925-1.521c.471-.829.875-1.516 1.213-2.06a46.04 46.04 0 011.411-2.083c.57-.841 1.16-1.382 1.769-1.623.638-.278 1.139-.44 1.503-.483.744.045 1.369.356 1.875.933.535.54.94 1.397 1.216 2.573.056.463.072 1.015.048 1.656l.014.955.669-1.138c.479-.763 1.132-1.613 1.959-2.552.573-.54 1.154-.878 1.741-1.016.584-.17 1.138-.035 1.661.405.916.36 1.564 1.004 1.944 1.932.377.895.586 2.078.629 3.55.004.872.065 1.52.183 1.942.114.39.261.774.441 1.156.281.1.364.376.251.826-.118.417-.293.64-.524.667-.331.04-.72.02-1.166-.061a3.102 3.102 0 01-1.17-.514c-.337-.295-.54-.724-.608-1.287l-.37-3.078c-.088-.728-.192-1.32-.314-1.775-.089-.46-.206-.73-.35-.814-.388-.155-.892.124-1.511.837-.619.712-1.262 1.646-1.929 2.8a44.345 44.345 0 00-1.84 3.545c-.505 1.102-.831 1.745-.976 1.93-.117.149-.371.13-.763-.059-.756-.144-1.257-.402-1.503-.776-.218-.41-.292-.888-.223-1.433.098-.583.205-1.368.321-2.356.149-.991.286-1.948.41-2.869.12-.954.189-1.634.208-2.04-.164-.248-.406-.303-.725-.164-.29.102-.586.289-.889.56-.366.313-.786.867-1.261 1.663a30.31 30.31 0 00-1.433 2.74 60.087 60.087 0 01-1.014 2.036 49.407 49.407 0 01-1 1.732c-.309.507-.581.892-.818 1.156-.376.784-.642 1.219-.8 1.305-.157.086-.482.041-.973-.135zm30.716-1.53c-.426.085-.778.094-1.055.026-.28-.1-.633-.242-1.058-.426-.796-.475-1.41-.972-1.841-1.49-.403-.557-.622-1.118-.656-1.685.03-.305-.002-.57-.096-.794a99.567 99.567 0 01-.091-.341c-.219-.142-.297-.233-.235-.274a.625.625 0 00.113-.316c.257-.098.268-.284.034-.558-.131-.253-.153-.855-.066-1.805.116-.988.307-1.917.571-2.788.122-.384.296-.892.522-1.523.259-.636.552-1.276.877-1.919.321-.677.626-1.217.913-1.62.628-.916 1.2-1.606 1.715-2.07a8.158 8.158 0 011.86-1.282c.63-.344 1.092-.55 1.386-.62.294-.069.732.08 1.313.447.822.136 1.458.395 1.906.778.478.345.885.934 1.22 1.766.38.928.601 2.06.66 3.396.09 1.299-.272 3.038-1.084 5.217-.474 1.366-.985 2.418-1.534 3.156a22.615 22.615 0 01-1.934 2.347c-.565.606-1.094 1.089-1.588 1.45-.493.362-1.111.671-1.852.928zm3.26-6.385c.543-1.072.946-2.044 1.211-2.915.294-.908.479-2.022.555-3.34.022-.372-.015-.821-.112-1.347a7.14 7.14 0 00-.433-1.509c-.155-.451-.334-.681-.536-.69-.451-.114-.93-.057-1.44.172-.514.197-1.045.663-1.594 1.401-.483.73-.907 1.536-1.27 2.419a23.33 23.33 0 00-.863 2.874 51.605 51.605 0 00-.661 3.302c-.179 1.298-.047 2.255.396 2.873.477.614 1.143.702 1.996.264.85-.472 1.767-1.64 2.751-3.504zm17.562 3.427c-.313-.096-.629-.21-.947-.34-.285-.133-.529-.355-.735-.666-.312-.365-.519-.827-.62-1.386a50.82 50.82 0 01-.195-2.041c-.016-.133.016-.422.097-.868s.174-.927.28-1.444c.135-.553.246-1.02.335-1.4.084-.413.125-.636.121-.67a2.17 2.17 0 00-.802.45l-.636.58c-.291.37-.698.755-1.221 1.154a9.193 9.193 0 01-1.449.93c-.315.172-.784.178-1.408.018-.594-.197-1.052-.511-1.372-.943a8.461 8.461 0 01-.326-.615l-.183-.683c-.264-1.076-.209-2.157.164-3.243.294-.908.606-1.802.936-2.681.327-.912.639-1.806.937-2.681.133-.285.269-.553.407-.804.133-.285.217-.564.252-.837.021-.103.102-.264.244-.482.141-.219.311-.34.51-.364.368-.01.709.033 1.023.129.343.06.652.257.927.593.227.208.358.461.394.759.031.265-.065.578-.29.941a25.712 25.712 0 00-1.409 2.94 119.23 119.23 0 00-1.093 3.052 5.11 5.11 0 00-.234.985 2.26 2.26 0 00.075 1.049c.497-.06 1.14-.44 1.928-1.139a58.037 58.037 0 002.474-2.463c.864-.91 1.624-1.706 2.281-2.39a9.568 9.568 0 001.711-2.522c.133-.285.308-.507.524-.667.212-.194.514-.33.907-.412.103.021.244.072.421.151.178.08.37.14.576.183.213.377.4.673.56.89.194.21.288.435.282.67-.005.236-.195.611-.569 1.126-.162.053-.409.368-.742.946a18.737 18.737 0 00-.989 1.83 14.8 14.8 0 00-.714 1.598c-.08.177-.19.375-.332.593a4.675 4.675 0 00-.325.644l-1.337 4.794c.003.302-.007.639-.03 1.01-.026.34.039.6.195.783a2.21 2.21 0 00.683-.183c.191-.09.366-.027.527.189.229.51.357.88.385 1.112.057.194-.129.603-.557 1.225-.404.552-.951.752-1.641.6zm20.133-2.22a3.94 3.94 0 00-.613-.078l-.62-.127a2.62 2.62 0 00-.614-.077c-.386-.423-.586-.97-.6-1.64-.017-.703.046-1.432.19-2.188.177-.76.34-1.502.488-2.225.181-.726.258-1.34.232-1.84-.049-.129-.103-.156-.161-.082-.062.041-.089.095-.081.161-.2.293-.509.515-.928.666-.418.15-.805.281-1.161.391a38.08 38.08 0 00-1.845.575 30.11 30.11 0 00-1.783.667 7.978 7.978 0 01-.377-.206 1.983 1.983 0 00-.328-.212c-.231.028-.404.266-.518.717-.114.45-.199.997-.256 1.642-.06.612-.123 1.207-.188 1.785-.035.542-.089.934-.16 1.178-.522.13-.9.192-1.136.187-.202-.01-.595-.063-1.178-.16-.308-.333-.499-.663-.572-.99-.04-.33-.034-.7.018-1.11.074-.78.132-1.409.176-1.884.077-.48.22-1.1.43-1.865a25.4 25.4 0 00.322-1.096c.121-.384.156-.791.105-1.221.225-.363.363-.749.414-1.158.052-.41.12-.82.204-1.233.367-1.42.655-2.513.865-3.277.24-.801.4-1.425.48-1.87.081-.447.116-.854.105-1.222-.023-.467.231-.733.76-.797.331-.04.695.051 1.091.272.392.188.709.452.951.792s.305.719.187 1.136c-.067.277-.181.727-.341 1.35a84.134 84.134 0 01-.468 1.97c-.152.69-.308 1.347-.468 1.97a12.01 12.01 0 01-.347 1.301.743.743 0 01-.157.371c-.091.079-.127.2-.107.366.251.138.64.158 1.165.061.555-.134.94-.28 1.156-.441l1.44-.173 1.489-.18c.532.239.967.64 1.303 1.204.156-.657.371-1.522.645-2.596.269-1.107.524-2.195.765-3.265.241-1.07.362-1.873.365-2.41a1.82 1.82 0 01.301-.843c.171-.255.364-.463.58-.623.491.176.962.32 1.412.434.479.077.823.421 1.031 1.034.003.302-.028.608-.091.918l-.202.83a47.84 47.84 0 01-.859 3.326 54.771 54.771 0 00-.972 3.642 20.064 20.064 0 00-.45 3.378c.012.1-.031.44-.129 1.023a23.873 23.873 0 01-.249 1.692c-.069.545-.118.837-.147.874.028.231-.013.454-.121.669a2.19 2.19 0 01-.443.507zm11.214-1.55c-.431.05-.788.01-1.073-.124a18.579 18.579 0 01-.977-.587c-.708-.587-1.231-1.161-1.567-1.725-.34-.597-.495-1.183-.463-1.758.067-.276.07-.529.009-.756l-.047-.397c-.186-.146-.247-.24-.185-.28a1.19 1.19 0 00.163-.322c.198-.024.242-.214.132-.57-.098-.257-.035-.852.189-1.785.223-.934.535-1.827.936-2.681.159-.355.405-.821.738-1.398.33-.61.694-1.209 1.094-1.794.429-.622.822-1.123 1.179-1.502.744-.794 1.41-1.395 1.999-1.801a8.358 8.358 0 011.946-.99c.708-.253 1.195-.395 1.459-.427.298-.036.727.181 1.287.65.801.24 1.395.572 1.782.995.42.42.733 1.07.94 1.952.218.98.273 2.133.164 3.455-.081 1.286-.669 2.951-1.766 4.997-.684 1.29-1.338 2.276-1.961 2.955a20.347 20.347 0 01-2.279 1.987c-.64.547-1.227.97-1.761 1.27-.539.265-1.185.477-1.938.635zm4.132-5.836c.687-.99 1.214-1.909 1.582-2.759.401-.854.743-1.92 1.026-3.195.088-.38.117-.837.087-1.37a7.797 7.797 0 00-.235-1.534c-.093-.492-.243-.76-.449-.802-.425-.183-.913-.192-1.464-.025-.554.134-1.129.522-1.723 1.164-.922.984-1.686 2.167-2.292 3.55-.61 1.349-1.182 2.878-1.715 4.587-.353 1.251-.353 2.225-.001 2.921.382.66 1.024.834 1.927.524.931-.347 2.017-1.368 3.257-3.061zm24.096.727a4.21 4.21 0 01-1.1-.774c-.346-.361-.555-.84-.626-1.436-.04-.33-.042-.901-.005-1.711.037-.81.112-1.726.224-2.747a85.6 85.6 0 01.36-2.863c.26-.636.469-1.265.629-1.889.16-.624.232-1.002.216-1.134.019-.405.046-.878.081-1.42.069-.545.144-1.041.224-1.487.081-.446.15-.706.209-.78.145-.186.332-.31.559-.37a.878.878 0 01.707.015c.277.068.502.26.674.574.412.354.651.812.719 1.374.064.53-.023 1.346-.259 2.449a24.873 24.873 0 00-.613 2.44 97.35 97.35 0 00-.496 2.578c-.111.752-.167 1.262-.168 1.531l-.957.417c.499-.597.962-1.207 1.391-1.829a22.88 22.88 0 00.925-1.521c.471-.83.875-1.516 1.213-2.06a46.04 46.04 0 011.411-2.083c.57-.841 1.16-1.382 1.769-1.623.638-.279 1.139-.44 1.503-.483.744.044 1.369.355 1.875.932.535.54.94 1.398 1.216 2.574a10.7 10.7 0 01.048 1.656l.014.955.669-1.138c.479-.763 1.132-1.614 1.959-2.553.573-.538 1.154-.877 1.741-1.015.584-.17 1.138-.036 1.661.405.916.36 1.564 1.004 1.944 1.931.376.895.586 2.079.629 3.55.004.873.065 1.52.183 1.943.114.389.261.774.441 1.155.281.1.364.376.251.826-.118.417-.293.64-.524.668-.331.04-.72.02-1.166-.062a3.103 3.103 0 01-1.17-.513c-.337-.295-.54-.724-.608-1.287l-.37-3.078c-.088-.728-.192-1.32-.314-1.775-.089-.46-.206-.73-.35-.814-.388-.155-.892.124-1.511.836-.619.713-1.262 1.646-1.929 2.8a44.36 44.36 0 00-1.84 3.546c-.505 1.102-.831 1.745-.976 1.93-.117.149-.371.129-.763-.059-.756-.144-1.257-.403-1.503-.776-.218-.41-.292-.888-.223-1.433.097-.583.204-1.368.321-2.356.149-.991.286-1.948.41-2.87.12-.954.189-1.634.208-2.039-.164-.248-.406-.303-.725-.164-.29.102-.586.288-.89.56-.365.313-.785.867-1.26 1.662-.475.796-.953 1.71-1.433 2.741a60.18 60.18 0 01-1.014 2.036 51.05 51.05 0 01-1 1.732c-.309.507-.581.892-.818 1.156-.376.784-.642 1.219-.8 1.305-.157.086-.482.04-.973-.135zm30.723-3.142c-.679.216-1.12.32-1.322.31-.174-.046-.462-.213-.866-.5a4.593 4.593 0 01-1.46-.832 4.443 4.443 0 01-.894-1.151c-.188-.448-.283-.822-.286-1.124-.04-1.17.092-2.445.396-3.825.304-1.38.713-2.721 1.228-4.025.514-1.304 1.1-2.432 1.758-3.385.687-.989 1.378-1.66 2.075-2.012.63-.344 1.247-.52 1.85-.525.604-.005 1.072.258 1.404.788.612.9.57 1.527-.126 1.879-.099.012-.209.075-.33.19-.124.083-.178.19-.162.322.14.05.506.023 1.098-.081a16.954 16.954 0 001.751-.513c.609-.241 1.003-.456 1.181-.646.187-.123.33-.19.429-.203.099-.011.352-.008.757.01.582.098.887.263.915.494a.667.667 0 00.197.38.478.478 0 00.365.107c.236.005.221.158-.045.458-.233.297-.653.717-1.259 1.26-.581.473-.946.785-1.096.937-.12.116-.109.35.034.701.341.597.445 1.323.313 2.178-.132.856-.445 1.75-.937 2.682a13.653 13.653 0 01-1.891 2.695 15.18 15.18 0 01-2.454 2.209c-.867.608-1.741 1.015-2.623 1.222zm-1.107-2.083c.133-.016.357-.11.672-.282l.746-.493c.116-.148.264-.317.443-.506.207-.227.376-.364.504-.413.132-.017.292-.086.478-.21.183-.156.435-.438.755-.845a31.24 31.24 0 001.23-1.911c.575-.808 1.008-1.531 1.3-2.17.289-.673.318-1.264.089-1.774-.049-.128-.158-.2-.327-.212a2.38 2.38 0 01-.576-.183 1.926 1.926 0 01-.973-.135 29.157 29.157 0 01-1.033-.63l-.914-.898-.742.945c-.466.593-.933 1.455-1.401 2.586a22.91 22.91 0 00-1.058 3.35c-.27 1.107-.4 1.979-.39 2.616.026.5.149.821.367.963.219.141.496.209.83.202zm10.494 2.666c-.14-.05-.338-.161-.593-.332a8.752 8.752 0 01-.618-.53l-.278-.218a.567.567 0 00-.223-.175c-.028-.231.002-.403.089-.514.121-.115.239-.247.356-.395.108-.215.311-.34.609-.376.298-.036.52-.146.665-.332a239.14 239.14 0 001.676-1.561 6.82 6.82 0 001.391-1.83 39.89 39.89 0 001.134-2.301 202.5 202.5 0 001.071-2.395c.105-.248.27-.687.496-1.319a84.04 84.04 0 00.635-1.839c.226-.632.342-1.065.347-1.3-.31-.064-.601-.113-.874-.147a5.86 5.86 0 00-.724-.165 17.486 17.486 0 01-.592-.735c-.045-.095-.1-.407-.163-.937-.048-.397.137-.671.555-.822.932-.347 1.758-.598 2.478-.751a12.73 12.73 0 002.186-.666c.448-.188 1.004-.306 1.67-.352a6.2 6.2 0 012.04.208c.314.096.582.232.804.406.223.175.432.385.63.63.502.544.778 1.03.83 1.461.085.426.118.842.1 1.247-.019.405.085.846.31 1.322-.124.922-.26 1.744-.408 2.467-.152.69-.292 1.344-.419 1.964a97.915 97.915 0 00-.355 1.654 12.712 12.712 0 00-.218 1.537 14.55 14.55 0 01-.305 1.649 9.306 9.306 0 00-.25 1.691c-.014.439-.175.777-.482 1.015a7.097 7.097 0 01-.927.666c-.128.049-.364.044-.707-.016a3.372 3.372 0 01-.91-.444 2.67 2.67 0 01-.218-.981 4.312 4.312 0 01.091-.918c.067-.277.178-.894.331-1.853l.517-3.235c.192-1.198.377-2.311.555-3.34a53.13 53.13 0 00.345-2.156c.102-.55.104-.953.006-1.21a4.988 4.988 0 00-.239-.726c-.727-.182-1.216-.207-1.469-.075a9.773 9.773 0 01-.87.306 1.675 1.675 0 00-.482 1.014 33.975 33.975 0 01-.669 2.398 23.36 23.36 0 01-.51 1.622c-.179.458-.386.97-.621 1.535a86.814 86.814 0 00-.779 2.31 7.526 7.526 0 01-.796 1.758 12.95 12.95 0 00-.802 1.707l-.462.761c.033-.004-.084.145-.35.445l-.798.902-.349.445-1.396 1.376c-.149.153-.422.253-.82.3l-1.241.15zm22.573-3.471a5.284 5.284 0 00-1.32-.093 2.065 2.065 0 01-1.263-.453 4.548 4.548 0 01-1.172-1.37 3.317 3.317 0 01-.315-1.775 3.96 3.96 0 00.024-1.06 2.31 2.31 0 01.123-1.072 3.154 3.154 0 01.128-1.023l.278-1.04c.164-.591.295-1.178.393-1.76.131-.587.297-1.16.498-1.722a42.807 42.807 0 011.23-3.17c.48-1.031.89-2.087 1.23-3.17.101-.28.23-.463.387-.55.187-.123.379-.196.578-.22a2.27 2.27 0 01.812.053c.277.068.518.123.725.165.135.286.314.516.536.69.223.176.323.449.3.82-.383.719-.749 1.45-1.095 2.198-.318.71-.633 1.435-.947 2.178a60.48 60.48 0 00-.841 2.216 8.246 8.246 0 00-.355 1.655 8.246 8.246 0 01-.355 1.654 7.128 7.128 0 00-.293 1.748 15.966 15.966 0 01-.194 1.735c-.014.17.006.335.059.497.082.124.21.21.384.256.443-.222.889-.426 1.336-.614a3.446 3.446 0 001.163-.795 19.816 19.816 0 001.422-1.581c.345-.478.602-.996.77-1.553.164-.59.242-1.339.233-2.244a1.002 1.002 0 00-.115-.54 1.249 1.249 0 00-.358-.46 6.844 6.844 0 01-.897-.346 2.475 2.475 0 01-.624-.58c-.131-.253-.167-.55-.107-.893.076-.48.301-.842.674-1.089.407-.25.794-.38 1.162-.391.07.025.124.052.161.081.07.025.126.069.167.131.28.1.567.25.86.45.288.167.542.322.76.463.176.348.406.723.69 1.126.283.402.479 1.05.586 1.944.223 1.853-.092 3.419-.946 4.696-.82 1.274-1.973 2.437-3.458 3.488-.216.16-.452.29-.709.388a1.288 1.288 0 00-.609.375c-.037-.029-.184.005-.441.104-.261.065-.52.146-.776.244a3.251 3.251 0 00-.479.209zM447.6 57.73c-.359-.192-.633-.378-.822-.556-.19-.179-.29-.452-.301-.82.007-.505.044-1.03.113-1.575.065-.579.165-1.145.3-1.698.027-.608.071-1.217.132-1.829.094-.616.291-1.21.591-1.783.372-1.657.7-3.257.984-4.802.313-1.582.76-3.449 1.34-5.6.122-.384.239-.667.352-.848a7.3 7.3 0 00.375-.65c.017-.136.108-.214.274-.234a1.16 1.16 0 01.657.021c.24.039.436.133.588.282.128-.049.336.144.624.58.32.431.463.783.429 1.056.016.133.005.319-.034.558-.038.24-.112.467-.22.681a2.324 2.324 0 00-.325.644c-.105.247-.266.586-.483 1.015a245.11 245.11 0 01-.563 2.434 56.583 56.583 0 01-.587 2.236c-.192.36-.32.828-.385 1.407-.065.578-.131 1.14-.2 1.685-.16.624-.309 1.196-.448 1.716-.106.517-.151.841-.135.973a17.736 17.736 0 00-.283 2.25c-.049.711-.19 1.35-.425 1.915.027.5-.082.849-.327 1.046-.212.194-.619.159-1.221-.105zm11.96-.634c-.538-.002-.947-.054-1.227-.154-.285-.134-.823-.422-1.615-.863-.445-.35-1.065-.896-1.859-1.64a61.454 61.454 0 01-2.402-2.38c-.81-.877-1.487-1.618-2.03-2.224l1.707-2.975c.494.478.901.932 1.222 1.364.32.431.573.72.758.866a84.907 84.907 0 012.116 2.515c.547.64 1.028 1.152 1.444 1.538.416.387.842.722 1.279 1.005.47.279 1.042.563 1.714.851.107.054.219.142.334.262.115.12.172.315.171.584-.089.38-.21.63-.363.749-.125.082-.541.25-1.249.502zm-9.347-7.789c-.267-.539-.268-1.11-.005-1.712.292-.64.64-1.1 1.042-1.384.105-.248.219-.412.344-.495.153-.119.238-.247.256-.383.05-.14.193-.342.43-.606.27-.267.509-.514.717-.74a42 42 0 001.644-1.407 52.258 52.258 0 001.806-1.728 63.68 63.68 0 001.434-1.482c.419-.42.672-.685.76-.796a.64.64 0 01.367-.296c.191-.09.443-.087.757.01.409.05.693.184.854.4.156.183.27.572.342 1.168.143.352.042.767-.304 1.245-.316.44-.825.955-1.526 1.543-.245.198-.579.49-1.003.876-.39.383-.733.743-1.028 1.08-.216.161-.536.434-.959.821-.395.35-.739.693-1.034 1.031-.245.197-.557.537-.935 1.02-.383.448-.777.798-1.184 1.048-.939 1.12-1.571 1.733-1.893 1.84-.323.105-.617-.245-.882-1.053zm20.28 6.474c-.427.085-.778.094-1.055.026-.28-.1-.633-.242-1.058-.426-.796-.475-1.41-.972-1.842-1.491-.402-.556-.621-1.117-.655-1.684.03-.306-.002-.57-.096-.794a99.567 99.567 0 01-.091-.342c-.219-.141-.297-.233-.235-.274a.625.625 0 00.113-.315c.257-.098.268-.284.034-.558-.131-.253-.153-.855-.066-1.805a15.97 15.97 0 01.571-2.789c.122-.383.296-.891.522-1.523.259-.635.551-1.275.877-1.918.321-.677.626-1.217.913-1.62.628-.916 1.2-1.606 1.715-2.07a8.16 8.16 0 011.86-1.282c.63-.344 1.092-.551 1.386-.62.294-.069.732.08 1.313.447.822.136 1.457.395 1.906.777.478.346.885.935 1.22 1.767.38.928.6 2.06.66 3.396.09 1.298-.272 3.037-1.084 5.217-.474 1.366-.985 2.418-1.534 3.155a22.615 22.615 0 01-1.934 2.348c-.565.605-1.094 1.089-1.588 1.45-.494.362-1.111.671-1.852.928zm3.26-6.385c.543-1.072.946-2.044 1.211-2.916.293-.908.478-2.021.555-3.34.022-.372-.015-.82-.112-1.346a7.198 7.198 0 00-.433-1.509c-.155-.451-.334-.682-.536-.69-.451-.115-.93-.057-1.44.172-.514.196-1.045.663-1.594 1.4-.483.73-.907 1.537-1.27 2.42a23.347 23.347 0 00-.863 2.873 51.587 51.587 0 00-.661 3.303c-.179 1.297-.047 2.255.396 2.873.477.614 1.142.702 1.996.264.85-.472 1.767-1.64 2.751-3.504zM17.109 168.995a5.596 5.596 0 01-2.133-.147c-.727-.181-1.424-.533-2.092-1.057-.385-.693-.658-1.147-.818-1.362-.19-.179-.523-.441-1.001-.786-.02-.166.008-.488.085-.968.08-.446.233-.85.458-1.213a11.962 11.962 0 012.263-2.538c.918-.749 2.01-1.434 3.278-2.057a3.41 3.41 0 00.467-.308c.19-.09.368-.145.534-.165.165-.019.253-.131.262-.333.042-.207.19-.241.44-.104.158-.086.28-.184.368-.296.087-.111.25-.147.49-.109l.529-.215c.385-.147.816-.333 1.292-.558.48-.192.895-.376 1.243-.552l.578-.221a25.857 25.857 0 00-.285-2.786c-.115-.96-.466-1.639-1.051-2.039a4.448 4.448 0 01-.944-1.145 13.622 13.622 0 00-.824-1.412c.03-.306.116-.568.258-.787.141-.218.353-.411.635-.58.593-.373 1.299-.928 2.116-1.664a28.73 28.73 0 002.55-2.674 18.909 18.909 0 002.185-3.184c.383-.717.473-1.366.27-1.946-.172-.584-.795-.878-1.87-.883-.662.08-1.378.401-2.15.964-.776.53-1.564 1.229-2.366 2.098-.506.262-.893.258-1.16-.012a4.25 4.25 0 01-.678-1.026 2.22 2.22 0 01.284-.991c.163-.322.344-.629.544-.922.233-.297.43-.606.593-.928.25-.164.465-.324.648-.48.178-.19.376-.364.591-.525a2.53 2.53 0 01.56-.369 1.77 1.77 0 01.677-.233c.199-.024.393-.081.584-.171a1.44 1.44 0 01.627-.226c1.564-.121 2.86.327 3.889 1.345s1.56 2.079 1.591 3.183c.066 1.1-.326 2.59-1.174 4.472-.238.532-.67 1.121-1.298 1.768a28.304 28.304 0 01-1.938 1.895c-.664.617-1.254 1.158-1.768 1.622-.52.432-.822.704-.91.815.342.328.73.903 1.165 1.723.43.788.796 1.6 1.098 2.436.34.866.456 1.557.35 2.073.34.027.75-.056 1.23-.248.517-.163.925-.263 1.223-.298.334.262.665.507.995.736.33.229.512.492.548.79.09.191.063.379-.083.564-.113.182-.25.299-.411.352-.422.118-.966.2-1.632.246a4.399 4.399 0 00-1.894.581 12.47 12.47 0 00-.917 2.427c-.228.9-.552 1.829-.974 2.786-.418.99-1.132 2.033-2.142 3.128-.357.379-.735.727-1.134 1.043-.394.35-.724.54-.988.572-.51.229-1.007.424-1.491.583-.452.155-.91.26-1.373.316zm-2.44-2.275c.008.066.258.053.75-.04.464-.056 1.017-.206 1.659-.451a6.052 6.052 0 001.759-.867 6.541 6.541 0 001.515-1.642c.4-.586.776-1.219 1.131-1.899.134-.285.263-.603.389-.953a4.79 4.79 0 00.284-.991c-.264-.237-.642-.175-1.136.187-.494.361-1.089.718-1.785 1.07-.73.357-1.608.865-2.637 1.526-.991.69-1.728 1.4-2.211 2.13a5.154 5.154 0 01-1.048 1.334c.193.212.397.372.612.481.214.108.454.147.718.115zm19.225-16.615a1.504 1.504 0 00-.568-.536c-.218-.142-.336-.279-.351-.411a1.65 1.65 0 00-.098-.392.62.62 0 00-.252-.422c-.19-.179-.227-.628-.112-1.347.111-.752.337-1.669.677-2.75a44.086 44.086 0 011.238-3.523 5.75 5.75 0 00.669-1.138c.212-.462.377-.768.494-.916a.479.479 0 01.107-.365c.083-.145.191-.225.323-.241l-.035-.298c-.02-.165.095-.464.345-.897a19.7 19.7 0 011.036-1.434c.404-.552.828-1.073 1.272-1.563.441-.523.815-.904 1.122-1.143.64-.546 1.317-.913 2.033-1.1.75-.191 1.415-.103 1.996.263l.556.437.89.699c.363.225.727.466 1.094.724l2.034 1.417-.595 2.59c-.27 1.376-.247 2.548.07 3.517.352.965.786 1.785 1.304 2.462.21.344.582.651 1.118.923.57.267 1.09.406 1.561.416.269.001.529.071.78.209.252.137.4.388.444.752.04.331.005.604-.103.818-.109.215-.325.375-.648.481-1.076.264-2.134.122-3.173-.424-1.006-.551-1.998-1.539-2.975-2.966-.157-.183-.383-.525-.678-1.026-.266-.539-.426-.889-.479-1.051-.112.182-.323.526-.631 1.033-.312.474-.556.822-.73 1.045-2.063 2.665-3.906 4.515-5.527 5.55-1.592.997-2.995 1.199-4.208.607zm1.453-2.995c.028.231.375.189 1.042-.126.697-.352 1.419-.909 2.166-1.67a50.012 50.012 0 002.994-3.584c1.019-1.297 1.816-2.484 2.392-3.561l.877-1.918c-.423-.722-.849-1.191-1.277-1.408-.4-.254-.733-.365-.997-.333-.43.052-1.028.526-1.793 1.424-.732.894-1.498 2.06-2.299 3.5a39.695 39.695 0 00-2.204 4.697 32.995 32.995 0 00-.661 2.043l-.24.936zm20.65 1.897c-.276-.068-.581-.233-.915-.495a4.547 4.547 0 01-.882-1.052c-.25-.406-.397-.791-.441-1.155.121-.384.26-1.039.418-1.964.154-.959.357-2.058.61-3.297.222-.396.369-.85.441-1.362l.286-1.394a47.84 47.84 0 00.698-2.149c.26-.904.505-1.807.732-2.707.257-.937.481-1.72.674-2.347.261-.905.413-1.46.455-1.666.038-.24.066-.428.083-.564-.032-.265.008-.488.12-.67.11-.214.23-.329.362-.345a.62.62 0 01.423-.253c.195-.057.358-.093.49-.109.365-.044.709.167 1.033.631.32.432.505.846.553 1.243.047.397-.034.978-.244 1.742a29.198 29.198 0 01-.68 2.297 107.6 107.6 0 00-.605 2.088c-.164.59-.19.929-.08 1.016l.66-.381a10.06 10.06 0 001.375-1.122c.34-.243.708-.539 1.102-.888.395-.35.775-.681 1.14-.994.361-.345.67-.567.927-.665a15.27 15.27 0 011.151-.894c.399-.317.656-.549.773-.697.53-.333.934-.465 1.21-.398.31.064.638.276.984.637.416.387.528.759.336 1.118-.196.326-.692.805-1.489 1.438-.643.514-1.425 1.129-2.347 1.844-.888.711-1.684 1.344-2.39 1.899-.672.551-1.052.882-1.14.993l.487.697c.325.465.643.879.956 1.245.328.497.67.96 1.023 1.387.383.391.584.669.604.834.348.663.749 1.203 1.202 1.618.449.383.93.61 1.442.683a2.674 2.674 0 001.564-.39c.63-.344 1.1-.485 1.41-.421.343.059.604.28.785.661.164.249.22.443.17.584-.02.103-.206.377-.555.822-.553.704-1.151 1.179-1.793 1.424-.609.241-1.194.261-1.755.06-.331.04-.728-.046-1.19-.259-.466-.246-1.053-.663-1.762-1.249-.675-.59-1.531-1.427-2.568-2.511-.016-.132-.104-.307-.264-.522a5.169 5.169 0 00-.437-.703 7.977 7.977 0 00-.598-.784l-.358-.461a.338.338 0 00-.129-.236 1.317 1.317 0 00-.24-.324 7.062 7.062 0 00-.302-.417c-.55-.101-.918.044-1.106.436-.188.391-.39.802-.608 1.231-.113.45-.255 1.088-.424 1.914-.14.789-.249 1.558-.327 2.306-.045.744-.018 1.244.08 1.501.064.53.025.904-.117 1.122-.145.185-.483.31-1.012.374zm17.033-3.359c-.24.231-.615.326-1.124.286a10.369 10.369 0 01-1.227-.154 5.738 5.738 0 01-.252-.423 3.466 3.466 0 01-.203-.429l-.159-.484a.988.988 0 00-.153-.435c.087-.111.158-.221.212-.328.088-.111.177-.206.268-.284l.546-.066.546-.065a.912.912 0 00.362-.346.617.617 0 01.466-.308c.673-.551 1.297-1.364 1.872-2.441a28.865 28.865 0 001.685-3.577 46.349 46.349 0 001.407-3.795c.419-1.259.763-2.308 1.031-3.146a47.3 47.3 0 01-.017-.149c-.005-.033-.025-.064-.062-.093-.224.094-.464.19-.72.288a3.51 3.51 0 00-.771.294.585.585 0 01-.137.118.582.582 0 00-.137.117c-.328.341-.798.482-1.41.421-.578-.064-1.01-.298-1.293-.7a3.161 3.161 0 00-.24-.324 8.521 8.521 0 00-.29-.318c.096-.313.261-.619.494-.915.262-.334.554-.554.877-.66.87-.306 1.73-.56 2.578-.763a12.18 12.18 0 012.668-.422 9.276 9.276 0 012.703.279c.17.014.323.029.459.046.136.017.276.067.42.151a7.92 7.92 0 011.255.806c.257.17.465.363.625.579.16.216.275.471.344.765.106.323.18.666.224 1.03.077.36.104.726.082 1.098-.066.848-.211 1.872-.436 3.074a132.678 132.678 0 01-.541 3.037 235.89 235.89 0 00-.625 3.6 138.728 138.728 0 00-.491 3.03c-.415.185-.83.218-1.247.1a2.905 2.905 0 01-1.132-.619 4.749 4.749 0 01-.354-1.267 2.72 2.72 0 01.192-1.332c.176-.492.27-1.107.282-1.847.011-.74.157-1.345.436-1.815a.81.81 0 00.057-.36c-.023-.198-.003-.587.062-1.165.097-.583.204-1.234.319-1.953.11-.751.211-1.452.3-2.101a14.97 14.97 0 00.225-1.487.78.78 0 00-.066-.546 2.803 2.803 0 01-.115-.54c-.28-.101-.673-.154-1.178-.161-.471-.01-.766.193-.883.61-.025.07-.048.157-.07.26a.444.444 0 01-.025.205 11.134 11.134 0 01-.806 2.514c-.339.813-.61 1.903-.815 3.271a4.163 4.163 0 01-.321 1.096 6.85 6.85 0 00-.328 1.047c.004.033-.008.068-.037.105.004.033-.01.068-.038.105.004.033-.009.068-.038.106a9.534 9.534 0 00-.532 1.02c-.13.318-.274.654-.432 1.009-.451.995-1.093 1.945-1.924 2.85a48.385 48.385 0 01-2.368 2.501zm33.355-17.559c.467.816.653 1.801.557 2.954-.097 1.153-.408 2.332-.935 3.537a18.968 18.968 0 01-1.808 3.39c-.682 1.023-1.391 1.83-2.126 2.422-.734.592-1.374.853-1.92.785a1.772 1.772 0 00-.514-.09.903.903 0 01-.433-.25 5.474 5.474 0 01-.42-.554 1.662 1.662 0 01-.132-.689c-.01-.636.083-1.403.277-2.299.194-.897.47-1.819.825-2.769a18.18 18.18 0 011.284-2.722 15.06 15.06 0 011.58-2.356c.59-.675 1.205-1.152 1.843-1.43.41-.218.739-.274.986-.169.244.071.556.151.936.24zm-10.196 9.435c-.246.466-.36.782-.34.947a.48.48 0 00.191.33c.107.054.117.271.028.651-.08.446-.041.912.118 1.396.192.481.465.935.818 1.362.432.519.936.945 1.514 1.278.577.334 1.127.436 1.648.306a5.948 5.948 0 001.733-.662c2.223-1.342 4.027-2.952 5.412-4.831 1.415-1.916 2.32-4.157 2.717-6.723a2.585 2.585 0 00-.02-1.004 2.03 2.03 0 01.128-1.023l-.03-.248-.035-.298c-.288-.436-.474-.866-.559-1.293a3.362 3.362 0 00-.403-1.261c-.184-.414-.627-.747-1.329-.998a8.123 8.123 0 01-1.225-.558 2.07 2.07 0 00-1.289-.247c-1.49.179-2.778.77-3.866 1.774-1.055 1-1.97 2.184-2.745 3.553a35.257 35.257 0 00-1.897 3.905l-1.49.179-1.44.173c-.036-.029-.072-.041-.105-.037a.554.554 0 00-.16-.082c-.015-.401.056-.93.212-1.586a26.17 26.17 0 01.704-2.1c.28-.738.534-1.424.76-2.055a86.09 86.09 0 00.571-1.529 1.97 1.97 0 00-.753-.816 8.969 8.969 0 00-.933-.643 1.057 1.057 0 00-.725-.165c-.26.065-.469.291-.623.679-.126.351-.248.735-.365 1.152-.089.38-.222.665-.401.854.003.302-.048.577-.153.824a27.71 27.71 0 00-1.57 5.376 66.45 66.45 0 00-.69 4.717c-.1.851-.17 1.799-.212 2.845-.013 1.009-.125 1.895-.335 2.659.16.216.283.403.37.56.082.125.248.256.5.393a1.87 1.87 0 01.763.06c.276.067.549.101.818.103.17.013.33-.04.484-.159a.518.518 0 00.238-.533c-.055-.463-.09-1.164-.102-2.103.017-.975.065-1.971.145-2.988.075-1.05.186-1.936.334-2.659l1.589-.191 1.588-.191c.082.124.15.267.203.428.086.158.156.317.209.479zm26.638 2.939c-.314-.096-.63-.209-.947-.339-.285-.134-.53-.356-.735-.667-.313-.365-.519-.827-.62-1.386a49.118 49.118 0 01-.195-2.041c-.016-.133.016-.422.097-.868.08-.446.173-.927.279-1.444.135-.553.247-1.02.335-1.4.085-.413.125-.636.121-.669-.323.106-.59.256-.802.449l-.635.58c-.291.371-.698.755-1.221 1.154a9.244 9.244 0 01-1.449.93c-.315.172-.785.178-1.408.018-.595-.197-1.052-.511-1.373-.943a8.402 8.402 0 01-.325-.615l-.183-.683c-.264-1.076-.21-2.157.163-3.243a60.43 60.43 0 01.937-2.681c.327-.912.639-1.806.936-2.681.134-.285.27-.553.407-.804.134-.285.218-.564.252-.836.021-.104.103-.265.244-.483.142-.219.312-.34.511-.364.368-.01.708.033 1.022.129.343.06.652.257.928.594.226.207.357.46.393.758.032.265-.065.579-.289.941a25.508 25.508 0 00-1.409 2.94 117.92 117.92 0 00-1.094 3.052c-.1.281-.178.609-.234.985-.055.376-.03.726.076 1.049.496-.06 1.139-.44 1.928-1.139a57.63 57.63 0 002.473-2.463c.865-.91 1.625-1.706 2.281-2.389a9.564 9.564 0 001.711-2.523c.134-.285.309-.507.524-.667.212-.194.515-.331.908-.412.103.022.243.072.421.151.177.08.369.14.576.183.213.377.4.673.56.889.193.212.287.436.282.671-.005.236-.195.611-.57 1.126-.161.053-.408.369-.742.946a18.666 18.666 0 00-.988 1.831 14.598 14.598 0 00-.715 1.597c-.079.177-.19.375-.331.594a4.62 4.62 0 00-.326.643l-1.337 4.794a14.8 14.8 0 01-.029 1.011c-.026.339.039.6.195.782.265-.032.492-.093.683-.183.19-.09.366-.027.526.189.229.509.358.88.386 1.112.057.194-.129.603-.558 1.225-.404.552-.95.752-1.64.6zm20.701-1.684c-.311.205-.704.151-1.178-.161s-.807-.574-1.001-.786c-.345-.361-.626-.881-.842-1.56-.216-.68-.352-1.251-.408-1.714-.103-.861-.229-1.349-.378-1.465-.115-.121-.316.021-.603.425-.258.366-.649.884-1.173 1.551-.233.297-.621.696-1.165 1.198s-1.113.939-1.706 1.313c-.593.373-1.104.586-1.535.638-.301.002-.619-.127-.953-.389a5.83 5.83 0 01-.914-.898 10.837 10.837 0 01-.566-.939c-.225-.476-.339-1.285-.342-2.426.026-1.178.138-2.484.334-3.918.226-1.471.51-2.882.851-4.232.37-1.388.77-2.527 1.2-3.418.459-.928.954-1.424 1.483-1.488.364-.043.671.138.922.544.279.369.501.679.665.927.206.311.281.521.227.628-.021.103-.132.301-.332.594-.225.362-.471.963-.74 1.801a69.956 69.956 0 00-.837 2.669 67.834 67.834 0 00-.682 2.701 46.108 46.108 0 00-.419 1.964c-.034.273-.089.649-.166 1.128-.044.475-.033.843.032 1.104.004.033.03.114.079.242.046.095.184.129.416.101.728-.087 1.42-.473 2.076-1.156.686-.72 1.333-1.621 1.942-2.701a35.34 35.34 0 001.758-3.384c.53-1.172 1.017-2.288 1.46-3.349a50.843 50.843 0 011.247-2.618c.35-.713.656-1.102.917-1.167.227-.061.496-.06.806.003a2.2 2.2 0 01.886.246c.251.138.378.358.381.659a33.999 33.999 0 01-.997 3.847 70.424 70.424 0 00-1.153 3.815 18.759 18.759 0 00-.539 3.892 5.082 5.082 0 00.43 2.316 5.668 5.668 0 001.485 1.886c.371.291.376.609.015.955-.362.345-.689.553-.983.622zm6.2-2.66a3.329 3.329 0 01-.358-.461 1.645 1.645 0 01-.159-.484.79.79 0 00-.079-.242c-.012-.1-.084-.141-.217-.125-.111-.088-.09-.476.062-1.166.181-.727.416-1.561.706-2.502.323-.946.649-1.858.98-2.737.36-.916.659-1.64.897-2.173a.595.595 0 00.25-.433c.042-.206.03-.305-.036-.297l.195-.477c.158-.355.281-.588.369-.699a6.3 6.3 0 00.428-1.462c.073-.512.056-.93-.05-1.253-.152-.149-.307-.181-.464-.095l-.237.129a6.22 6.22 0 00-.572.27c-.223.094-.426.22-.609.376-.698.621-1.181.931-1.449.93-.273-.035-.623-.429-1.049-1.184-.176-.348-.258-.606-.245-.776.014-.169.124-.367.332-.594.237-.263.467-.442.691-.536.219-.127.389-.248.51-.364.336-.275.614-.476.834-.604.253-.131.443-.221.572-.27.828-.368 1.55-.505 2.166-.411.615.093 1.114.47 1.495 1.129.531.507.841 1.124.928 1.852.084.695-.05 1.534-.402 2.516l-.407.805c-.125.351-.139.52-.039.508.132-.016.267-.149.405-.401.083-.144.258-.367.524-.667.266-.301.448-.457.548-.469l.093-.062c.095-.045.129-.183.101-.415l.262-.334.181-.172c.132-.016.362-.195.691-.537.357-.378.774-.815 1.252-1.309.332-.308.647-.48.945-.516.734-.324 1.376-.149 1.927.523.584.669.945 1.582 1.085 2.74l-.72 2.806 1.524-2.399c.167-.288.337-.544.512-.766.208-.227.387-.416.536-.568.038-.24.122-.384.25-.433l.193-.074.099-.012c.062-.041.087-.111.075-.21.15-.153.318-.29.505-.414.182-.156.299-.304.349-.445.535-.299 1.044-.394 1.527-.284.479.077.926.443 1.341 1.098.279.369.453.701.522.994.069.294.139.739.211 1.335a14.76 14.76 0 01-.055 1.215c-.001.269-.001.554.002.856.003.302.003.721.001 1.259-.101.281-.15.572-.147.874l.101.844c.052.43.105.726.158.887.049.129.189.179.421.151.451-.155 1.052-.462 1.802-.922.78-.497 1.346-.951 1.7-1.363.44-.523.843-.806 1.207-.85.393-.081.663.071.81.457.082.124.002.436-.24.935-.209.495-.47.98-.782 1.454-.279.47-.501.715-.667.735-.099.012-.203.125-.311.339a1.698 1.698 0 01-.399.451c-.204.26-.41.503-.618.729a.958.958 0 01-.659.382c-.132.016-.292.085-.478.208a1.628 1.628 0 01-.584.171c-.319.139-.838.151-1.557.036-.686-.119-1.172-.53-1.458-1.234-.176-.348-.362-.914-.556-1.696a8.964 8.964 0 01-.249-2.488c.06-.612.077-1.168.051-1.668-.027-.5-.003-.856.073-1.066l-.084-.695c-.048-.398-.121-.59-.22-.578-.133.016-.417.302-.854.858a52.525 52.525 0 00-1.473 1.99 71.432 71.432 0 00-1.612 2.511c-.533.869-.96 1.643-1.282 2.319-.254.4-.465.879-.633 1.436-.168.558-.297.875-.389.953-.199.293-.477.36-.832.201-.321-.162-.64-.443-.957-.841a2.604 2.604 0 01-.258-.473 2.102 2.102 0 01-.078-.645c.031-.306.095-.75.192-1.333.131-.586.3-1.412.508-2.478.229-1.169.422-2.216.579-3.142l.279-1.444c-.015-.132-.248.03-.696.487-.453.424-.976.957-1.571 1.599-.254.4-.684 1.006-1.292 1.818-.607.811-1.269 1.73-1.985 2.756a42.114 42.114 0 00-2.03 3.216c-.797 1.472-1.376 2.381-1.737 2.727-.328.341-.702.303-1.122-.117zm33.103-2.925a7.186 7.186 0 00-1.408.019 4.407 4.407 0 01-1.16-.012c-.347-.093-.672-.288-.977-.588a2.924 2.924 0 01-.937-1.095 5.185 5.185 0 01-.446-1.609c-.131-1.092-.096-2.338.104-3.739.23-1.438.528-2.867.895-4.287a93.49 93.49 0 011.091-3.909 49.04 49.04 0 00.775-2.762c-.11-.356-.018-.569.276-.638a3.234 3.234 0 011.104-.032c.405.019.678.053.818.103.227.208.455.432.686.673.226.208.374.459.443.753.106.323.063.664-.129 1.022-.159.355-.324.66-.494.916-.287.404-.569.992-.846 1.764a27.595 27.595 0 00-.787 2.663c-.22.966-.404 1.945-.553 2.937-.15.991-.257 1.911-.323 2.758-.037.81-.009 1.462.084 1.954a6.188 6.188 0 002.81-.086c.91-.244 1.702-.641 2.374-1.192.702-.588 1.213-1.221 1.535-1.897.375-.784.445-1.464.208-2.04-.209-.612-.796-.894-1.764-.845-.5.027-.962.099-1.384.217-.422.118-.861.238-1.317.36a3.545 3.545 0 01-.58-.636 2.118 2.118 0 01-.27-.571c-.085-.427.039-.794.371-1.103a3.913 3.913 0 011.263-.806c.514-.196.973-.285 1.378-.267.674.02 1.362.155 2.063.407.735.247 1.345.577 1.831.988.297.233.55.522.759.866.239.307.396.64.473 1 .232.812.305 1.558.219 2.24a5.012 5.012 0 01-.635 1.839c-.525.936-1.399 1.763-2.622 2.481-1.19.714-2.303 1.368-3.34 1.963-.33.04-.597.055-.8.046-.173-.046-.436.002-.788.145zm28.197-2.888c-.095.045-.333.023-.713-.066a19.549 19.549 0 01-1.263-.452 6.302 6.302 0 01-1.033-.631c-.304-.299-.592-.6-.864-.903a2.578 2.578 0 01-.447-1.206 4.269 4.269 0 01-.582-1.491 26.547 26.547 0 00-.247-1.632c-.133-.823-.052-1.689.242-2.597a31.49 31.49 0 01.704-2.1c.11-.483.369-1.118.778-1.906a14.92 14.92 0 011.667-2.467c.674-.82 1.4-1.478 2.18-1.974a10.62 10.62 0 011.511-.837c.538-.266 1.188-.311 1.948-.134.376.056.656.156.842.302.185.146.387.289.605.431.241-.231.399-.736.473-1.518.103-.818.111-1.725.025-2.722a12.29 12.29 0 00-.502-2.911c-.248-.944-.62-1.671-1.118-2.182-.926-.997-1.889-1.603-2.888-1.818-1-.216-2.08.015-3.241.692-.417-.118-.819-.388-1.205-.812-.354-.427-.492-.881-.416-1.36a6.46 6.46 0 01.91-.814 3.53 3.53 0 011.137-.59 10.15 10.15 0 011.366-.366c.493-.093 1.022-.023 1.587.212 1.789.355 3.175.994 4.159 1.917 1.013.885 1.77 2.019 2.272 3.403.503 1.383.898 2.997 1.187 4.842.13.522.205 1 .223 1.434.048.397.08 1.082.096 2.053-.279.47-.35.999-.212 1.587a2.618 2.618 0 01-.007 1.612c.034.567-.042 1.046-.23 1.438-.188.392-.262.754-.222 1.085a24.056 24.056 0 01-1.848 5.157c-.801 1.708-1.778 3.219-2.929 4.532-1.151 1.314-2.466 2.244-3.945 2.792zm-.686-3.191c.347.092.827-.1 1.441-.577.611-.509 1.221-1.154 1.833-1.932a18.233 18.233 0 001.486-2.294c.138-.252.307-.658.508-1.22.234-.565.438-1.11.609-1.634.206-.528.317-.861.334-.997.198-.863.27-1.661.216-2.393-.026-.769-.168-1.256-.428-1.459-.416-.387-1.023-.414-1.823-.083a7.44 7.44 0 00-2.146 1.416c-.482.461-.898 1.048-1.248 1.762a18.035 18.035 0 01-1.033 1.887.672.672 0 01-.126.619 6.327 6.327 0 01-.387.551c-.331.879-.519 1.69-.564 2.434-.048.711-.063 1.149-.043 1.315.064.529.212 1.065.445 1.608.233.543.542.875.926.997zm16.743.806c-.43.051-.788.01-1.072-.123a18.106 18.106 0 01-.977-.588c-.709-.586-1.231-1.161-1.568-1.725-.34-.597-.495-1.182-.463-1.757a1.52 1.52 0 00.01-.757l-.048-.397c-.185-.145-.247-.239-.185-.28.058-.074.113-.181.163-.321.199-.024.243-.214.133-.57-.098-.257-.036-.852.188-1.786.223-.933.536-1.827.936-2.681.159-.354.405-.821.739-1.398.329-.61.694-1.208 1.093-1.793.429-.623.822-1.123 1.179-1.502.744-.794 1.411-1.395 2-1.802a8.353 8.353 0 011.945-.989c.708-.253 1.195-.396 1.46-.427.298-.036.726.181 1.287.651.801.239 1.394.57 1.781.994.42.419.733 1.07.94 1.952.219.98.273 2.132.164 3.455-.081 1.285-.669 2.951-1.766 4.996-.684 1.291-1.338 2.276-1.961 2.956a20.277 20.277 0 01-2.279 1.986c-.639.547-1.226.97-1.761 1.27-.539.266-1.185.478-1.938.636zm4.133-5.836c.686-.989 1.214-1.908 1.581-2.758.401-.854.743-1.92 1.026-3.196.089-.38.118-.836.087-1.37a7.715 7.715 0 00-.235-1.533c-.092-.492-.242-.76-.449-.802-.425-.184-.913-.192-1.463-.025-.555.133-1.129.522-1.723 1.164-.923.984-1.687 2.167-2.293 3.549-.61 1.349-1.181 2.878-1.714 4.588-.353 1.251-.354 2.224-.001 2.921.381.659 1.023.833 1.926.523.932-.347 2.018-1.367 3.258-3.061zm12.131 4.332c-.763.361-1.457.31-2.083-.152a8.08 8.08 0 00-.594-.331.963.963 0 01-.457-.449c-.004-.033.003-.252.022-.657.047-.443.097-.868.148-1.277.081-.446.136-.688.165-.725.423-1.226.716-2.42.878-3.581.159-1.194.266-2.399.321-3.614.049-.711.1-1.539.154-2.486.087-.951.155-1.781.204-2.492l.123-1.073.139-.52c.046-.173.076-.345.089-.514.452-.424 1.054-.866 1.805-1.325.746-.493 1.444-.694 2.092-.605.088-.111.266-.166.534-.165l.844-.101c.298-.036.491-.109.578-.221.207.043.575.032 1.104-.032l1.688-.203c.596-.071 1.028-.107 1.297-.105.495.209.819.388.971.537.152.15.422.437.808.86.011.368-.071.663-.246.886-.178.189-.448.322-.808.399l-.893.108a3.547 3.547 0 00-.844.101 48.854 48.854 0 00-4.047.688c-.724.121-1.328.261-1.813.42.011.368.024.753.038 1.154a3.4 3.4 0 01-.166 1.128c-.056.376-.124.921-.206 1.636a44.539 44.539 0 01-.307 2.051c-.09.649-.2 1.132-.33 1.45a1.673 1.673 0 00-.202.83 3.466 3.466 0 01-.103.818c-.088.38-.172.944-.25 1.692a88.367 88.367 0 01-.172 2.338 27.83 27.83 0 01-.184 2.238c-.056.644-.156 1.076-.297 1.294zm16.8-3.632c-.679.216-1.12.319-1.323.31-.173-.046-.462-.213-.865-.5a4.598 4.598 0 01-1.46-.832 4.439 4.439 0 01-.894-1.151c-.188-.448-.284-.822-.286-1.124-.041-1.17.091-2.445.396-3.825a26.429 26.429 0 011.228-4.025c.514-1.305 1.1-2.433 1.758-3.385.687-.989 1.378-1.659 2.074-2.012.63-.344 1.247-.519 1.851-.525.604-.005 1.072.258 1.404.788.612.9.57 1.527-.126 1.879-.1.012-.21.075-.33.191-.124.082-.179.189-.163.321.141.051.507.023 1.098-.081a16.95 16.95 0 001.752-.513c.609-.241 1.002-.457 1.181-.646.187-.123.33-.191.429-.203.099-.012.351-.008.756.01.583.098.888.263.916.494a.663.663 0 00.197.379.477.477 0 00.365.108c.236.005.221.158-.045.458-.233.297-.653.717-1.259 1.26-.581.472-.946.785-1.096.937-.12.115-.109.349.034.701.341.597.445 1.323.313 2.178-.133.856-.445 1.749-.937 2.682a13.67 13.67 0 01-1.892 2.695 15.16 15.16 0 01-2.453 2.209c-.867.608-1.741 1.015-2.623 1.222zm-1.107-2.083c.133-.016.356-.11.671-.282l.747-.493c.116-.148.264-.317.442-.506.208-.227.376-.365.505-.414.132-.016.292-.085.478-.208.183-.157.434-.439.755-.846.316-.441.726-1.078 1.23-1.911.574-.808 1.008-1.531 1.3-2.171.289-.672.318-1.264.089-1.773-.049-.129-.158-.199-.328-.213a2.414 2.414 0 01-.576-.182 1.922 1.922 0 01-.973-.135 29.66 29.66 0 01-1.032-.631l-.914-.897-.743.945c-.465.593-.932 1.455-1.401 2.586a23.035 23.035 0 00-1.057 3.35c-.27 1.107-.4 1.979-.391 2.616.027.5.15.821.368.963.219.141.495.209.83.202zm17.573-14.906c.367-.85.665-1.725.892-2.625.261-.904.592-1.783.993-2.637.296-.607.578-1.195.845-1.764.3-.573.566-1.16.796-1.758a.382.382 0 00.031-.155.608.608 0 01.082-.16c.374-.516.802-1.004 1.284-1.464.478-.494.906-.982 1.284-1.464a2.66 2.66 0 01.636-.58c.245-.198.493-.362.746-.493.158-.086.327-.073.509.04.214.108.333.262.357.46.092.761-.038 1.633-.39 2.616-.352.982-.759 1.786-1.221 2.413a15.84 15.84 0 00-.806 1.255 9.77 9.77 0 01-.756 1.249c-.312.474-.794 1.069-1.447 1.786a27.136 27.136 0 01-2.025 2.006c-.697.621-1.301 1.046-1.81 1.275zm1.661 2.923c.01.368.12.724.33 1.068.209.344.439.72.689 1.126.25.406.44.87.57 1.392.163.517.189 1.152.078 1.904-.08.446-.19.929-.329 1.45-.139.52-.284.991-.434 1.412-.051.14-.188.392-.413.754-.196.326-.408.654-.637.984a7.692 7.692 0 01-.425.655c-.117.148-.299.17-.546.066-.248-.105-.413-.219-.495-.344-.209-.344-.411-.907-.606-1.689-.199-.816-.305-1.424-.32-1.825-.003-.302-.011-.788-.024-1.458-.014-.67.002-1.377.047-2.121.044-.744.118-1.39.219-1.94.131-.586.338-.964.62-1.132.311-.205.64-.396.988-.572.345-.209.676-.383.995-.523a4.27 4.27 0 001.481-1.084 8.839 8.839 0 011.463-1.234 5.672 5.672 0 011.072-1.136 5.22 5.22 0 001.066-1.186c.171-.255.329-.476.475-.661.178-.19.372-.397.579-.624a1.37 1.37 0 00.419-.705c.101-.281.292-.505.574-.673.038-.24.134-.419.288-.538a1.06 1.06 0 00.287-.539c.143-.487.342-.93.596-1.33.283-.437.479-.897.589-1.38a42.49 42.49 0 01.512-2.026c.243-.768.167-1.397-.227-1.887-.514-.643-1.109-1.125-1.786-1.447-.647-.358-1.068-.643-1.261-.855-.074-.058-.144-.084-.211-.076l-.21-.075c-.058.074-.156.103-.292.085a.464.464 0 00-.298.036c-.508-.04-1.04.142-1.596.545-.527.365-.973.705-1.338 1.017-1.436 1.18-2.654 2.636-3.655 4.368a28.867 28.867 0 00-2.474 5.384 48.271 48.271 0 00-1.452 5.513 5.31 5.31 0 01-.677.232c-.195.057-.406.116-.634.177a3.562 3.562 0 01-.095.465l-.139.52c.198.245.378.492.543.741.197.245.438.434.723.567-.198.595-.325 1.349-.383 2.262-.025.91 0 1.813.074 2.711.075.897.152 1.677.231 2.339.02.166.071.31.153.435.116.12.167.265.153.435-.014.438.13.941.434 1.509a7.5 7.5 0 001.134 1.475c.453.415.828.605 1.126.569.397-.047.845.05 1.345.292.532.238.999.215 1.401-.068.249-.164.488-.277.715-.338a2.95 2.95 0 00.709-.387c.336-.276.7-.739 1.092-1.391.425-.655.731-1.179.919-1.571a6.215 6.215 0 00.579-1.882c.086-.682.19-1.349.313-2.002.114-.45.106-.936-.024-1.458-.097-.525-.122-.875-.076-1.048a4.996 4.996 0 00-.238-.727 20.287 20.287 0 00-.289-.72 2.983 2.983 0 00-.665-.928 19.078 19.078 0 01-.715-.921l-1.017-.079a4.38 4.38 0 00-.967-.085 4.655 4.655 0 01-.336.141l-.297.036zm14.492 11.753c-.427.085-.778.094-1.055.026a18.47 18.47 0 01-1.058-.426c-.796-.475-1.41-.972-1.842-1.491-.402-.556-.621-1.117-.655-1.684.03-.306-.002-.57-.096-.794l-.091-.342c-.219-.141-.297-.233-.235-.274a.632.632 0 00.113-.315c.257-.098.268-.284.034-.558-.131-.253-.153-.855-.066-1.805.116-.988.306-1.917.571-2.789.121-.384.295-.891.522-1.523.259-.635.551-1.275.877-1.918.321-.677.626-1.217.913-1.621.628-.915 1.2-1.605 1.715-2.07a8.144 8.144 0 011.86-1.281c.63-.344 1.092-.551 1.386-.62.294-.069.731.08 1.313.446.822.137 1.457.396 1.906.778.478.346.885.935 1.22 1.767.38.928.6 2.06.66 3.396.089 1.298-.272 3.037-1.084 5.217-.474 1.366-.985 2.418-1.534 3.155a22.64 22.64 0 01-1.934 2.348c-.565.605-1.094 1.089-1.588 1.45-.494.362-1.111.671-1.852.928zm3.26-6.385c.543-1.073.946-2.044 1.211-2.916.293-.908.478-2.021.555-3.34.022-.372-.015-.821-.112-1.346a7.184 7.184 0 00-.433-1.509c-.155-.451-.334-.682-.537-.691-.45-.114-.93-.056-1.439.173-.514.196-1.045.663-1.594 1.401a14.09 14.09 0 00-1.271 2.419 23.7 23.7 0 00-.863 2.873 52.394 52.394 0 00-.66 3.303c-.179 1.297-.047 2.255.396 2.873.477.614 1.142.702 1.996.264.85-.472 1.767-1.64 2.751-3.504zm8.664 16.533l-.496.06c-.195.057-.393-.053-.594-.331-.153-.15-.265-.388-.338-.715-.04-.331-.029-.937.033-1.817.098-.583.163-1.161.194-1.736.036-.541.038-.944.006-1.209-.016-.132-.015-.401.004-.806.055-.376.073-.647.053-.812.134-.285.222-.665.266-1.14a6.056 6.056 0 00-.001-1.259c-.047-.397.107-.785.465-1.164-.032-.265-.022-.602.029-1.011.085-.413.119-.686.103-.818.044-.475.161-1.312.353-2.51.221-1.235.49-2.627.807-4.176.35-1.553.688-3.071 1.013-4.554.325-1.483.627-2.744.905-3.785.285-.974.454-1.801.507-2.478.082-.715.103-1.238.063-1.57-.016-.132.005-.235.064-.309.054-.107.181-.307.381-.6.291-.37.56-.504.808-.4a7.08 7.08 0 011.015.483c.316.398.542.74.677 1.027.168.281.23.794.185 1.538.06.497.029.937-.093 1.321a6.153 6.153 0 01-.345.898c-.112.181-.138.251-.075.21 1.281-.792 2.433-1.266 3.454-1.423 1.052-.193 1.95-.117 2.697.23a3.86 3.86 0 011.841 1.491c.452.684.736 1.506.851 2.466.048.397.023.887-.075 1.469a7.556 7.556 0 01-.466 1.567c-.18.458-.357.798-.532 1.021-.132.016-.251.148-.355.395a6.547 6.547 0 00-.314.743c-.225.363-.609.795-1.153 1.297-.515.465-1.038.863-1.569 1.196-.534.299-.94.415-1.217.348l-.143.067c-.066.008-.089.095-.069.26.008.067-.239.247-.741.543-.505.262-1.094.534-1.765.816-.675.249-1.277.406-1.807.47-.695.083-1.207.011-1.537-.218a2.906 2.906 0 00-.212.327.827.827 0 00-.058.36c.024.198-.013.589-.11 1.171a12.02 12.02 0 01-.312 1.599c-.139.52-.291.79-.456.81l-.082.161c-.054.107-.005.236.148.385l.016.552c.047.398.004.738-.129 1.023.032.265.03.668-.006 1.209-.035.542-.103.953-.204 1.234.048.397.027.785-.061 1.165-.052.409-.144.622-.276.638-.128.049-.187.257-.177.625.015.402.032.685.052.85.067.832-.021 1.497-.263 1.996-.242.499-.562.773-.959.82zm4.012-17.303c.265-.031.797-.213 1.596-.544.8-.331 1.61-.714 2.431-1.149.849-.471 1.467-.915 1.854-1.331.769-.864 1.327-1.804 1.675-2.82.377-1.053.23-1.992-.44-2.818-.32-.431-.822-.555-1.505-.372-.687.149-1.416.506-2.188 1.069a11.563 11.563 0 00-2.124 2.018 7.479 7.479 0 00-.901 1.72 15.835 15.835 0 00-.617 1.988c-.123.652-.175 1.196-.156 1.63.018.434.143.637.375.609zm39.417.244a3.952 3.952 0 00-.613-.077l-.62-.127a2.634 2.634 0 00-.614-.077c-.386-.424-.586-.971-.6-1.64-.017-.703.046-1.433.19-2.189.177-.76.34-1.501.488-2.224.181-.727.258-1.34.232-1.841-.049-.128-.103-.155-.161-.081-.062.041-.089.095-.082.161-.199.292-.508.514-.927.665a26.28 26.28 0 01-1.161.392c-.617.175-1.232.366-1.845.574-.613.208-1.207.431-1.783.668a7.932 7.932 0 01-.377-.206 1.937 1.937 0 00-.328-.213c-.232.028-.404.267-.518.717-.114.45-.199.998-.256 1.642-.06.612-.123 1.207-.188 1.786-.035.541-.089.934-.16 1.177-.522.13-.9.193-1.136.187-.203-.009-.595-.062-1.178-.16-.308-.332-.499-.662-.572-.989a4.532 4.532 0 01.018-1.11c.074-.781.132-1.409.176-1.885.077-.479.22-1.1.43-1.864a25.4 25.4 0 00.322-1.096c.121-.384.156-.792.104-1.222.225-.363.364-.749.415-1.158.052-.409.12-.82.204-1.233.367-1.42.655-2.513.865-3.277.239-.8.399-1.424.48-1.87.081-.446.116-.853.105-1.222-.023-.467.231-.732.76-.796.331-.04.695.05 1.091.272.391.188.709.451.951.792.242.34.305.718.187 1.135-.067.277-.181.727-.341 1.35a84.133 84.133 0 01-.468 1.971c-.152.69-.308 1.346-.468 1.97a12.08 12.08 0 01-.347 1.301.752.752 0 01-.157.371c-.091.078-.127.2-.107.365.251.138.64.158 1.165.062.555-.134.94-.281 1.156-.441l1.44-.174 1.489-.179c.532.238.966.639 1.303 1.203.156-.657.371-1.522.644-2.595.27-1.107.525-2.196.766-3.265.241-1.07.362-1.874.365-2.411a1.82 1.82 0 01.301-.842c.171-.256.364-.464.58-.624.491.176.962.32 1.412.435.479.076.823.421 1.031 1.034.003.302-.028.608-.091.917l-.203.83c-.215 1-.501 2.109-.858 3.327a54.798 54.798 0 00-.972 3.642 20.062 20.062 0 00-.45 3.378c.012.099-.031.44-.129 1.023a23.967 23.967 0 01-.25 1.692c-.068.545-.117.836-.146.873.028.232-.013.455-.121.67-.113.181-.26.35-.443.506zm8.01-2.223a1.515 1.515 0 00-.568-.536c-.218-.141-.335-.278-.351-.411a1.66 1.66 0 00-.098-.391.625.625 0 00-.252-.423c-.189-.178-.227-.627-.112-1.346.111-.752.337-1.669.677-2.75a43.89 43.89 0 011.238-3.523c.233-.297.456-.676.669-1.138.213-.463.377-.768.494-.916a.48.48 0 01.107-.365c.083-.145.191-.225.323-.24l-.035-.299c-.02-.165.095-.464.345-.897.283-.437.628-.915 1.036-1.434a19.15 19.15 0 011.272-1.564c.441-.523.815-.903 1.122-1.142.639-.547 1.317-.913 2.033-1.1.749-.191 1.415-.103 1.996.263l.556.437.89.698c.363.226.727.467 1.094.725l2.034 1.417-.595 2.59c-.271 1.375-.247 2.548.071 3.517.351.965.785 1.785 1.303 2.461.209.345.582.652 1.118.924.57.267 1.09.406 1.561.416.269.001.529.071.781.208.251.138.399.389.443.753.04.331.005.603-.103.818-.109.214-.325.375-.647.481-1.077.263-2.134.122-3.174-.424-1.006-.551-1.998-1.539-2.975-2.966-.157-.183-.382-.525-.678-1.027-.266-.538-.426-.888-.479-1.05-.112.182-.323.526-.631 1.033-.312.474-.556.822-.73 1.045-2.063 2.665-3.906 4.515-5.527 5.549-1.592.998-2.995 1.2-4.208.607zm1.453-2.995c.028.232.375.19 1.043-.125.696-.352 1.418-.909 2.165-1.671a49.773 49.773 0 002.994-3.583c1.019-1.297 1.816-2.485 2.392-3.561l.877-1.919c-.423-.72-.848-1.19-1.277-1.407-.4-.254-.733-.365-.997-.333-.431.051-1.028.526-1.793 1.424-.732.894-1.498 2.06-2.299 3.5a39.636 39.636 0 00-2.204 4.697 32.266 32.266 0 00-.661 2.043l-.24.935zm37.093-1.742c-.679.216-1.12.319-1.322.31-.174-.047-.463-.213-.866-.5a4.617 4.617 0 01-1.46-.832 4.426 4.426 0 01-.894-1.152c-.188-.447-.284-.822-.286-1.123-.04-1.171.092-2.446.396-3.825.304-1.38.713-2.721 1.228-4.025.514-1.305 1.1-2.433 1.758-3.385.687-.989 1.378-1.66 2.074-2.012.631-.344 1.247-.52 1.851-.525.604-.005 1.072.257 1.404.788.612.9.57 1.526-.126 1.879-.1.012-.209.075-.33.19-.124.083-.179.19-.163.322.141.05.507.023 1.098-.082a16.898 16.898 0 001.752-.512c.609-.242 1.002-.457 1.181-.646.187-.123.33-.19.429-.203.099-.012.351-.008.756.01.583.098.888.262.916.494a.667.667 0 00.197.38.48.48 0 00.365.106c.236.006.221.159-.045.46-.233.296-.653.715-1.259 1.258-.581.473-.946.786-1.096.938-.12.115-.109.349.034.701.341.597.445 1.323.313 2.178-.133.856-.445 1.75-.937 2.681a13.647 13.647 0 01-1.892 2.696 15.16 15.16 0 01-2.453 2.209c-.867.607-1.741 1.015-2.623 1.222zm-1.107-2.083c.133-.016.356-.11.671-.282l.747-.493c.116-.148.264-.317.443-.507.207-.226.375-.364.504-.413.132-.016.292-.085.478-.208.183-.157.434-.439.755-.847a30.81 30.81 0 001.23-1.91c.575-.808 1.008-1.532 1.3-2.171.289-.673.318-1.264.089-1.773-.049-.129-.158-.2-.328-.213a2.406 2.406 0 01-.576-.182 1.927 1.927 0 01-.973-.135 29.222 29.222 0 01-1.032-.631l-.914-.897-.743.945c-.465.593-.932 1.455-1.401 2.586a23.033 23.033 0 00-1.057 3.35c-.27 1.107-.4 1.979-.39 2.616.026.5.149.821.367.963.219.141.495.209.83.202zm12.657 2.002c-.165.02-.357-.041-.576-.182a2.487 2.487 0 01-.524-.592 3.06 3.06 0 01-.344-.764c-.02-.166.153-.539.52-1.12a52.44 52.44 0 011.542-2.251c.633-.881 1.282-1.765 1.947-2.651l1.854-2.59-1.18-2.275a35.052 35.052 0 00-.793-1.567c-.274-.605-.524-1.146-.749-1.622-.196-.514-.304-.853-.324-1.019-.176-.348-.265-.673-.268-.975-.007-.335.031-.574.115-.719-.065-.26.117-.416.548-.468.43-.052.791.022 1.084.222.273.034.547.22.822.555.272.304.518.677.739 1.12.251.407.451.819.602 1.237.012.1.094.358.245.777.18.38.358.746.534 1.094l.551 1.646.992-1.379c.2-.292.418-.57.655-.834.27-.267.397-.467.381-.6.133-.016.345-.21.636-.58a36.35 36.35 0 011.042-1.384 8.254 8.254 0 011.235-1.458c.452-.424.745-.644.877-.66.36-.077.731.08 1.114.47.379.358.615.783.707 1.275.028.232-.214.731-.726 1.498-.512.766-1.312 1.652-2.4 2.655-.664.617-1.173 1.132-1.526 1.544-.354.412-.89.98-1.608 1.704a78.548 78.548 0 001.841 2.75 14.22 14.22 0 002.136 2.261c.403.287.772.562 1.106.824l.55.387c.128-.049.271.018.427.2.185.146.278.353.276.622.127.219.118.422-.027.607a1.25 1.25 0 01-.461.358c-.191.09-.313.189-.367.296a1.073 1.073 0 01-.657-.022c-.182-.112-.318-.129-.41-.051-.124.082-.51-.056-1.157-.415a11.852 11.852 0 01-1.824-1.342c-.259-.204-.601-.532-1.025-.984-.394-.49-.744-.885-1.048-1.184a15.656 15.656 0 00-.759-.865 4.472 4.472 0 01-.469-.548 63.79 63.79 0 00-.868 1.162 82.338 82.338 0 00-1.778 2.379 163.858 163.858 0 01-2.283 2.793c-.353.412-.662.634-.927.665zm17.383 9.794l-.496.06c-.195.057-.393-.054-.594-.331-.153-.15-.265-.388-.338-.715-.04-.331-.029-.937.033-1.817.098-.583.163-1.161.194-1.736.036-.541.038-.944.006-1.209-.016-.133-.015-.401.003-.806.056-.376.074-.647.054-.813.133-.284.222-.664.266-1.139a6.056 6.056 0 00-.001-1.259c-.048-.398.107-.785.465-1.164-.032-.265-.022-.602.029-1.011.085-.413.119-.686.103-.818.044-.475.161-1.312.353-2.51.22-1.235.489-2.628.807-4.177.35-1.552.688-3.07 1.013-4.553a89.14 89.14 0 01.904-3.785c.286-.975.455-1.8.508-2.479.082-.715.103-1.238.063-1.568-.016-.133.005-.236.064-.31.054-.107.181-.307.381-.6.291-.37.56-.504.808-.4.28.101.619.262 1.015.483.316.398.542.74.677 1.026.168.282.23.795.185 1.54.06.496.029.936-.093 1.32a6.125 6.125 0 01-.345.897c-.112.182-.138.252-.075.21 1.281-.791 2.432-1.265 3.454-1.422 1.051-.194 1.95-.117 2.697.23.776.31 1.39.806 1.841 1.49.452.685.736 1.507.851 2.466.048.398.023.887-.075 1.47a7.57 7.57 0 01-.466 1.567c-.18.458-.357.798-.532 1.02-.132.017-.251.148-.355.396a6.528 6.528 0 00-.314.743c-.225.362-.609.795-1.153 1.297-.515.465-1.038.863-1.569 1.196-.534.299-.94.415-1.217.348l-.143.067c-.066.008-.089.095-.069.26.008.066-.239.247-.741.543-.505.262-1.094.534-1.765.816-.675.249-1.277.406-1.807.469-.695.084-1.207.011-1.537-.218a3.034 3.034 0 00-.212.328.81.81 0 00-.058.36c.024.198-.013.589-.11 1.171a12.02 12.02 0 01-.312 1.599c-.139.52-.291.79-.456.81l-.082.161c-.054.107-.005.236.147.385l.017.552c.047.397.004.738-.129 1.023.032.265.03.668-.006 1.209-.035.542-.103.953-.204 1.233.048.398.027.786-.061 1.166-.052.409-.144.622-.276.638-.128.049-.187.257-.177.625.015.401.032.685.052.85.067.831-.021 1.497-.263 1.996-.242.499-.562.772-.959.82zm4.012-17.303c.265-.032.797-.213 1.596-.544.8-.332 1.61-.714 2.431-1.149.849-.471 1.467-.915 1.854-1.33.769-.866 1.327-1.806 1.675-2.821.377-1.053.23-1.992-.44-2.818-.32-.431-.822-.556-1.505-.373-.687.15-1.416.506-2.188 1.07a11.608 11.608 0 00-2.124 2.017 7.447 7.447 0 00-.901 1.72 15.885 15.885 0 00-.617 1.988c-.123.653-.175 1.197-.157 1.63.019.435.144.638.376.61zm18.228 1.685c-.389.114-.827.1-1.314-.043a3.967 3.967 0 01-1.343-.695c-.375-.324-.636-.679-.783-1.064-.216-.68-.236-1.55-.062-2.611a21.07 21.07 0 01.99-3.493 32.693 32.693 0 011.673-3.677c.663-1.187 1.36-2.228 2.092-3.122.761-.93 1.487-1.589 2.18-1.974.336-.276.599-.459.79-.549a1.02 1.02 0 01.689-.133c.272.034.673.154 1.201.36.479.076.845.183 1.096.32.252.138.59.433 1.013.886.325.464.583.937.775 1.418.192.48.376 1.029.551 1.645.364.796.529 1.33.495 1.603-.039.24-.116.433-.232.582-.225.362-.272.536-.139.52l-.026.205c.012.099-.034.272-.139.52a16.587 16.587 0 00-.271 2.35c-.008.772.084 1.4.276 1.88.353.696.884 1.068 1.595 1.117.711.049 1.387-.335 2.027-1.15.333-.309.652-.582.959-.82.303-.272.471-.275.503-.01l.166.13a.62.62 0 00.36.058c.165-.02.273.034.322.162.082.125.104.307.065.546-.009.203-.08.447-.214.731-.437.556-.645.917-.625 1.083l-.175.222c-.087.111-.249.299-.486.562-.552.436-1.291.71-2.218.821-.893.108-1.61.01-2.151-.295-.54-.305-1.063-.745-1.569-1.322-.473-.581-.803-1.095-.991-1.543l-.308-.466-1.326 1.116c-.32.408-.676.803-1.066 1.186-.357.379-.594.642-.711.79a1.717 1.717 0 01-.306.39.479.479 0 01-.329.19l-.348.042-.149.018c.016.132-.129.318-.436.556a4.196 4.196 0 01-1.033.628 3.51 3.51 0 01-1.068.33zm-.819-2.62c.199-.025.528-.215.989-.573a50.55 50.55 0 001.6-1.35c.61-.51 1.138-1.01 1.582-1.5.478-.495.802-.87.973-1.125l.568-.723c.258-.367.489-.68.692-.94.658-.951 1.074-1.958 1.249-3.02.17-1.095.037-1.918-.398-2.47-.177-.348-.366-.527-.568-.536-.203-.01-.603.156-1.2.497-.369.28-.812.786-1.328 1.52a40.003 40.003 0 00-1.568 2.454 36.004 36.004 0 00-1.476 2.796 25.112 25.112 0 00-1.092 2.65c-.272.805-.382 1.422-.331 1.853a.618.618 0 00.141.335l.167.131zm30.346.176a3.94 3.94 0 00-.613-.078l-.62-.126a2.619 2.619 0 00-.613-.078c-.387-.423-.587-.97-.601-1.64-.017-.703.046-1.432.19-2.188.178-.76.34-1.501.488-2.224.181-.727.259-1.34.232-1.841-.049-.129-.103-.156-.161-.081-.062.04-.089.094-.081.16-.2.293-.509.515-.927.666-.419.15-.806.281-1.162.391a38.08 38.08 0 00-1.845.575 29.68 29.68 0 00-1.783.668 7.978 7.978 0 01-.377-.207 1.942 1.942 0 00-.328-.212c-.231.028-.404.267-.518.717-.113.45-.199.997-.255 1.642-.061.612-.124 1.207-.188 1.785-.036.542-.09.934-.161 1.178-.522.13-.9.192-1.136.187-.202-.01-.595-.063-1.177-.16-.309-.333-.5-.662-.573-.99-.039-.33-.034-.7.018-1.11.074-.78.133-1.409.176-1.884.077-.48.22-1.1.43-1.865.122-.384.229-.749.322-1.096a2.87 2.87 0 00.105-1.221c.225-.363.363-.749.414-1.158.052-.409.12-.82.205-1.233.366-1.42.654-2.513.864-3.277.24-.8.4-1.425.48-1.87.081-.447.116-.854.105-1.222-.022-.467.231-.733.761-.796.331-.04.694.05 1.09.271.392.188.709.452.951.792.243.34.305.72.187 1.136-.067.277-.181.727-.341 1.35a84.134 84.134 0 01-.468 1.97c-.152.69-.308 1.347-.468 1.97a12.02 12.02 0 01-.347 1.301.743.743 0 01-.157.372c-.091.078-.127.2-.107.365.252.138.64.158 1.166.061.554-.133.939-.28 1.155-.44l1.44-.174 1.489-.18c.532.239.967.64 1.303 1.204.156-.657.371-1.522.645-2.596.269-1.107.525-2.195.765-3.265.241-1.07.362-1.873.365-2.41a1.82 1.82 0 01.301-.842c.171-.256.364-.464.58-.624.491.176.962.32 1.412.434.479.077.823.422 1.031 1.035a4.38 4.38 0 01-.091.917l-.202.83a47.84 47.84 0 01-.859 3.326 54.771 54.771 0 00-.972 3.643 20.064 20.064 0 00-.45 3.378c.012.099-.031.44-.129 1.022a23.873 23.873 0 01-.249 1.692c-.069.546-.118.837-.147.874.028.232-.012.455-.121.67-.112.18-.26.35-.443.506zm8.024 9.61c-.766.327-1.639.466-2.619.416-.943-.021-1.787-.205-2.534-.551-.78-.343-1.251-.773-1.414-1.291-.057-.194-.017-.417.121-.669.104-.247.266-.435.486-.562.191-.09.381-.046.57.133.285.134.788.274 1.511.422.727.182 1.511.138 2.351-.131.742-.257 1.433-.794 2.073-1.609.674-.82 1.204-1.572 1.592-2.257.217-.429.578-1.194 1.083-2.296a71.356 71.356 0 001.53-3.608c.544-1.341.984-2.57 1.32-3.684.067-.277.145-.605.234-.985.088-.38.218-.698.389-.953.151-.421.272-.805.365-1.152.121-.384.191-.644.208-.78.013-.17.122-.519.327-1.047a31.56 31.56 0 00.566-1.58 236.8 236.8 0 01.482-2.273c.215-1 .453-1.817.712-2.453.305-.808.546-1.459.722-1.95.205-.528.451-.86.737-.995.27-.267.454-.407.553-.42.133-.015.393.054.781.21.445.349.741.716.888 1.101.143.352.149.821.018 1.408-.102.55-.345 1.317-.73 2.304-.169.826-.379 1.59-.631 2.291-.222.665-.404 1.107-.545 1.325-.118.417-.263.888-.435 1.412-.143.487-.273.94-.391 1.356a66.221 66.221 0 01-1.15 3.412c-.331.88-.62 1.686-.867 2.421a37.765 37.765 0 00-.75 2.558 130.935 130.935 0 01-1.816 3.744 28.04 28.04 0 01-1.858 3.396 28.95 28.95 0 01-1.115 1.192c-.449.457-.918.882-1.408 1.277-.457.391-.909.68-1.356.868zm5.268-12.72c-.504-.007-1.036-.245-1.596-.715a6.72 6.72 0 01-1.295-1.556c-.337-.564-.488-.982-.454-1.255l-.047-.397-.018-.149c-.199.024-.411-.202-.636-.679-.192-.48-.369-1.114-.531-1.9a55.744 55.744 0 01-.453-2.514 30.832 30.832 0 01-.206-2.544 8.032 8.032 0 00-.022-1.86 20.48 20.48 0 01-.147-1.644c-.097-.526-.089-.88.023-1.06.109-.215.223-.38.344-.495.878-.509 1.521-.334 1.926.523.434.821.712 2.433.833 4.835.093 1.332.253 2.656.478 3.972.226 1.316.547 2.452.964 3.409.451.953.979 1.578 1.585 1.874.248.105.386.273.414.504.027.232-.009.488-.109.769a1.887 1.887 0 01-.475.661c-.182.156-.375.23-.578.22zm13.029-42.387a1.5 1.5 0 002.604 1.49l-2.604-1.49zm125.169-25.467a1.5 1.5 0 00.976-1.884l-4.083-12.867a1.5 1.5 0 10-2.859.907l3.629 11.438-11.438 3.63A1.5 1.5 0 00614 31.37l12.867-4.083zM504.302 54.245c19.838-34.68 50.036-41.457 75.449-39.565 12.732.948 24.238 4.078 32.57 6.978a131.497 131.497 0 019.841 3.862 89.27 89.27 0 012.658 1.223 52.176 52.176 0 01.852.42l.041.021.009.005h.002l.69-1.331c.69-1.332.689-1.332.688-1.333l-.004-.002-.014-.007a93.392 93.392 0 00-3.709-1.74 134.281 134.281 0 00-10.068-3.951c-8.493-2.957-20.264-6.164-33.333-7.137-26.19-1.95-57.698 5.094-78.276 41.067l2.604 1.49z" fill="#00E8AD"/></svg>