<svg width="1360" height="395" fill="none" xmlns="http://www.w3.org/2000/svg"><g filter="url(#filter0_i_168_437)"><path d="M0 40c0-14.001 0-21.002 2.725-26.35A25 25 0 0113.65 2.725C18.998 0 26 0 40 0h1280c14 0 21 0 26.35 2.725a25.048 25.048 0 0110.93 10.925C1360 18.998 1360 26 1360 40v315c0 14.001 0 21.002-2.72 26.35a25.048 25.048 0 01-10.93 10.925C1341 395 1334 395 1320 395H40c-14.001 0-21.002 0-26.35-2.725A25 25 0 012.725 381.35C0 376.002 0 369.001 0 355V40z" fill="#201D54"/><path d="M0 40c0-14.001 0-21.002 2.725-26.35A25 25 0 0113.65 2.725C18.998 0 26 0 40 0h1280c14 0 21 0 26.35 2.725a25.048 25.048 0 0110.93 10.925C1360 18.998 1360 26 1360 40v315c0 14.001 0 21.002-2.72 26.35a25.048 25.048 0 01-10.93 10.925C1341 395 1334 395 1320 395H40c-14.001 0-21.002 0-26.35-2.725A25 25 0 012.725 381.35C0 376.002 0 369.001 0 355V40z" fill="url(#paint0_radial_168_437)" fill-opacity=".4"/></g><path d="M1 40c0-7.017 0-12.22.337-16.338.336-4.107 1-7.048 2.279-9.558A24 24 0 0114.104 3.616c2.51-1.279 5.45-1.943 9.558-2.279C27.78 1.001 32.981 1 40 1h1280c7.02 0 12.22 0 16.34.337 4.11.336 7.05 1 9.56 2.279a24.007 24.007 0 0110.48 10.488c1.28 2.51 1.95 5.45 2.28 9.558.34 4.118.34 9.32.34 16.338v315c0 7.017 0 12.22-.34 16.339-.33 4.106-1 7.047-2.28 9.557a24.005 24.005 0 01-10.48 10.488c-2.51 1.279-5.45 1.943-9.56 2.279-4.12.336-9.32.337-16.34.337H40c-7.017 0-12.22-.001-16.338-.337-4.107-.336-7.048-1-9.558-2.279a23.999 23.999 0 01-10.488-10.488c-1.279-2.51-1.943-5.451-2.279-9.557C1.001 367.22 1 362.017 1 355V40z" stroke="url(#paint1_linear_168_437)" stroke-width="2"/><defs><radialGradient id="paint0_radial_168_437" cx="0" cy="0" r="1" gradientUnits="userSpaceOnUse" gradientTransform="matrix(0 197.5 -674.221 0 680 197.5)"><stop stop-color="#2F2B72"/><stop offset="1" stop-color="#302C74" stop-opacity="0"/></radialGradient><linearGradient id="paint1_linear_168_437" x1="680" y1="0" x2="680" y2="395" gradientUnits="userSpaceOnUse"><stop stop-color="#00E8AD"/><stop offset="1" stop-color="#fff" stop-opacity="0"/></linearGradient><filter id="filter0_i_168_437" x="0" y="0" width="1360" height="410" filterUnits="userSpaceOnUse" color-interpolation-filters="sRGB"><feFlood flood-opacity="0" result="BackgroundImageFix"/><feBlend in="SourceGraphic" in2="BackgroundImageFix" result="shape"/><feColorMatrix in="SourceAlpha" values="0 0 0 0 0 0 0 0 0 0 0 0 0 0 0 0 0 0 127 0" result="hardAlpha"/><feOffset dy="15"/><feGaussianBlur stdDeviation="19"/><feComposite in2="hardAlpha" operator="arithmetic" k2="-1" k3="1"/><feColorMatrix values="0 0 0 0 1 0 0 0 0 1 0 0 0 0 1 0 0 0 0.25 0"/><feBlend in2="shape" result="effect1_innerShadow_168_437"/></filter></defs></svg>