<svg width="266" height="104" fill="none" xmlns="http://www.w3.org/2000/svg"><path d="M85.048 71.771c-.17-.164-.322-.305-.454-.424a1.057 1.057 0 01-.293-.342.715.715 0 01-.045-.373c.004.033.025-.07.064-.31.04-.222.08-.513.122-.87a7.38 7.38 0 00.107-.995l.198-1.912c-.08-.108-.087-.233-.02-.376.081-.16.17-.322.269-.485l1.63-.473c.257-.099.533-.308.83-.63.314-.322.607-.677.88-1.062s.492-.722.659-1.01c.471-.83.854-1.623 1.149-2.38.31-.776.567-1.562.774-2.36.22-.815.419-1.678.595-2.589l.634-3.098c.133-.15.212-.403.236-.758a4.62 4.62 0 00.007-.782c-.157-.048-.283-.05-.378-.005a.621.621 0 01-.348.042c-.28-.1-.495-.276-.642-.527-.132-.253-.177-.49-.137-.714a.535.535 0 01.276-.008c.102.005.227-.002.376-.02.149-.018.32-.055.515-.112.161-.053.413-.125.754-.217.342-.091.659-.18.95-.265.31-.088.486-.151.532-.19.687-.15 1.293-.273 1.819-.37a27.46 27.46 0 011.551-.287 24.544 24.544 0 011.608-.244 1.3 1.3 0 01.799.156c.268.135.438.291.51.467.038.18.023.543-.046 1.088a47.255 47.255 0 01-.294 1.95 87.95 87.95 0 01-.442 2.394c-.17.827-.357 1.638-.563 2.435-.19.795-.374 1.497-.553 2.106-.082.43-.188.879-.316 1.348-.112.466-.23.95-.354 1.452a9.192 9.192 0 01-.15.85c-.05.274-.106.583-.165.926a.458.458 0 00.178.23c.07.025.211.008.422-.05.42-.135.67-.224.749-.267a1.15 1.15 0 00.27-.26c.015-.018.064-.032.147-.042a.557.557 0 01.254.02c.361.074.647.216.857.425.208.194.32.356.336.489.03.533-.032 1.128-.188 1.785a13.533 13.533 0 01-.568 1.982 50.304 50.304 0 01-.644 1.764 3.92 3.92 0 00-.057.36c.02.031.025.064.012.1.004.032-.063.175-.2.426-.088.111-.22.136-.395.073a1.791 1.791 0 01-.491-.319 5.87 5.87 0 01-.312-.29 1.12 1.12 0 01-.069-.57c.026-.205.102-.483.227-.834.256-.668.496-1.318.723-1.95.226-.631.355-1.159.388-1.583l-.197-.177c-.06.057-.262.124-.606.199-.345.058-.732.121-1.16.19-.412.066-.774.126-1.087.18l-.446.054c-.091-.056-.17-.08-.236-.072-.051-.01-.174.02-.366.094l-1.558.238-.298.036a.534.534 0 00-.27.057 4.25 4.25 0 01-.757.192c-.168.004-.43.052-.789.146-.033.004-.196.04-.49.109s-.646.145-1.055.228c-.394.08-.786.17-1.177.267-.376.079-.695.15-.956.216a3.998 3.998 0 00-.32.063c-.397.048-.671.14-.823.276-.15.152-.33.258-.54.317-.099.582-.193 1.19-.285 1.822a81.1 81.1 0 01-.203 1.66c-.046.46-.074.715-.084.766a.469.469 0 01-.138.319c-.071.11-.218.21-.442.305zm4.353-7.146a18.56 18.56 0 001.086-.181 193.26 193.26 0 003.442-.691 49.973 49.973 0 011.447-.325c.393-.081.605-.132.636-.152.043-.476.1-.91.17-1.305.085-.413.172-.801.263-1.165.105-.382.203-.754.294-1.118.016-.002.066-.142.15-.42.082-.296.173-.66.272-1.091l.341-1.35c.112-.467.205-.881.279-1.243.09-.363.153-.614.186-.752.304-1.38.55-2.543.739-3.489.203-.964.313-1.724.33-2.28-.287-.016-.662.012-1.123.084-.447.054-.916.128-1.409.22a11.6 11.6 0 00-1.369.341 5.884 5.884 0 00-.96.393l-.331 1.223a23.19 23.19 0 00-.188.954c-.085.548-.22 1.244-.403 2.088a53.73 53.73 0 01-.627 2.745c-.252.97-.538 1.945-.857 2.923-.32.962-.684 1.845-1.091 2.65-.39.802-.816 1.449-1.277 1.94zm15.573-.665a.985.985 0 01-.536-.061 9.074 9.074 0 01-.489-.294c-.354-.293-.615-.58-.783-.863-.17-.298-.248-.591-.232-.878a.76.76 0 00.005-.379l-.024-.198c-.093-.073-.123-.12-.092-.14a.582.582 0 00.081-.161c.099-.012.122-.107.067-.285-.049-.128-.018-.426.094-.893.111-.466.267-.913.468-1.34.079-.178.202-.41.369-.7.165-.304.347-.603.547-.896.214-.311.411-.561.589-.75.372-.398.705-.698 1-.902a4.17 4.17 0 01.973-.494c.354-.127.597-.198.729-.214.149-.018.364.09.644.325.4.12.697.286.891.498.21.21.366.535.47.975.109.491.136 1.067.082 1.728-.041.643-.335 1.476-.883 2.498-.342.646-.669 1.139-.981 1.478-.314.323-.693.654-1.139.993-.32.274-.614.485-.881.635a4.07 4.07 0 01-.969.318zm2.066-2.918a8.05 8.05 0 00.791-1.379c.201-.427.372-.96.513-1.598.044-.19.059-.418.044-.685a3.934 3.934 0 00-.118-.766c-.046-.246-.121-.38-.224-.401-.213-.092-.457-.096-.732-.013-.277.067-.565.261-.862.582a6.219 6.219 0 00-1.146 1.775 20.038 20.038 0 00-.857 2.293c-.177.626-.177 1.113-.001 1.461.191.33.512.417.964.262.466-.174 1.008-.684 1.628-1.53zm7.689 1.845c-.47.14-.911.169-1.324.084a2.125 2.125 0 01-1.055-.603c-.273-.32-.442-.745-.506-1.274-.109-.49-.12-1.068-.032-1.734.086-.681.246-1.372.481-2.072a9.915 9.915 0 01.861-1.84c.284-.438.571-.842.862-1.212.291-.371.562-.63.813-.778a2.11 2.11 0 01.624-.252 3.62 3.62 0 01.515-.112c.273.034.569.125.889.27.334.129.514.292.537.49l.059.069.081.04c.099-.012.194.086.287.293.108.205.188.448.238.727.048.263.034.491-.043.685a2.19 2.19 0 01-.249.86c-.138.253-.273.386-.405.402a.811.811 0 00-.196.049c-.05.006-.069.05-.059.133.009.083-.036.122-.137.117a.647.647 0 01-.291-.116.97.97 0 01-.266-.32c-.01-.083.007-.228.049-.434.042-.207.078-.471.106-.794.043-.475-.001-.772-.132-.89-.134-.135-.359-.117-.674.055a4.897 4.897 0 00-1.074 1.112c-.315.457-.589 1.036-.824 1.736-.237.683-.421 1.527-.551 2.533a3.27 3.27 0 00-.005 1.008c.067.278.126.422.178.432.239.038.556.017.949-.064.391-.097.672-.206.842-.328a9.35 9.35 0 00.831-.628c.303-.272.567-.514.794-.725.077-.06.166-.155.268-.284.102-.13.215-.236.339-.318.109-.215.211-.345.306-.39.095-.044.242-.079.441-.103.136.017.266.052.39.104.124.053.206.11.247.172.058.06.04.121-.053.183-.066.008-.105.037-.115.089l.006.05c.041.062-.017.212-.173.449a7.85 7.85 0 01-.565.747 8.35 8.35 0 01-.692.738c-.211.194-.367.296-.466.308-.166.02-.242.08-.23.179.004.033-.111.13-.343.293-.216.16-.473.325-.771.496a4.155 4.155 0 01-.762.368zm6.735-1.465a1.726 1.726 0 01-.179-.23.822.822 0 01-.079-.242.4.4 0 00-.04-.121c-.006-.05-.042-.07-.108-.063-.056-.044-.045-.238.031-.583.09-.363.208-.78.353-1.25.161-.474.324-.93.49-1.37.18-.457.329-.82.448-1.086a.295.295 0 00.125-.216c.021-.103.015-.153-.018-.149l.098-.238c.079-.178.14-.294.184-.35.105-.247.176-.491.214-.73.037-.257.028-.466-.025-.627-.076-.075-.153-.09-.232-.048l-.118.065a3.03 3.03 0 00-.286.135c-.112.047-.213.11-.305.188-.349.31-.59.465-.724.465-.137-.018-.312-.215-.525-.592-.088-.174-.129-.303-.122-.388.007-.085.062-.184.166-.297.118-.132.233-.221.345-.268a1.34 1.34 0 00.255-.182c.168-.138.307-.238.417-.302.127-.066.222-.11.286-.135.414-.184.775-.253 1.083-.206.308.047.557.235.748.565.266.253.42.562.464.926.042.347-.025.767-.201 1.258l-.204.402c-.062.176-.069.26-.019.254.066-.008.133-.075.202-.2.042-.072.129-.184.262-.334.133-.15.224-.228.274-.234l.047-.031c.047-.023.064-.092.05-.208l.131-.166.091-.087c.066-.008.181-.097.345-.268.179-.19.387-.408.626-.655.166-.154.324-.24.473-.258.367-.162.688-.074.963.262.292.334.473.79.543 1.37l-.36 1.403.762-1.2a3.14 3.14 0 01.256-.383c.104-.113.193-.208.268-.284.019-.12.061-.192.125-.217l.096-.036.05-.006c.031-.02.043-.056.037-.105a1.51 1.51 0 01.253-.207.565.565 0 00.174-.222c.268-.15.522-.198.764-.143.239.039.463.222.67.55.14.184.227.35.261.496.035.147.07.37.106.668a7.34 7.34 0 01-.028.607l.001.428c.002.151.002.361.001.63-.051.14-.075.286-.074.437l.051.422c.026.215.052.363.079.443.024.065.094.09.21.076.226-.078.526-.231.901-.461.39-.248.673-.476.85-.682.22-.261.422-.403.604-.425.196-.04.331.036.405.228.041.063.001.219-.12.468a4.54 4.54 0 01-.391.727c-.14.235-.251.358-.334.368-.049.006-.101.062-.155.17a.857.857 0 01-.2.225c-.102.13-.205.251-.309.364a.479.479 0 01-.329.191.587.587 0 00-.239.104.817.817 0 01-.292.086c-.16.07-.419.075-.779.018-.343-.06-.586-.265-.729-.617-.088-.174-.181-.457-.278-.848a4.482 4.482 0 01-.124-1.244c.03-.306.038-.584.025-.834-.013-.25-.001-.428.037-.534l-.042-.347c-.024-.199-.061-.295-.11-.289-.067.008-.209.151-.427.43-.204.259-.45.59-.737.994-.27.402-.539.82-.806 1.256-.266.434-.48.821-.641 1.16-.127.2-.232.439-.316.717-.084.279-.149.438-.195.477-.099.146-.238.18-.416.1a1.513 1.513 0 01-.478-.42 1.233 1.233 0 01-.129-.237 1.022 1.022 0 01-.039-.322c.015-.153.047-.375.096-.667.065-.293.15-.706.254-1.239.114-.584.211-1.108.289-1.57l.14-.723c-.008-.066-.124.015-.348.244-.227.212-.488.478-.786.8-.127.2-.342.502-.646.908a53.33 53.33 0 00-.992 1.378c-.358.514-.696 1.05-1.015 1.608-.399.736-.688 1.19-.869 1.364-.164.17-.351.151-.561-.059zm16.637-1.8c-.128.05-.3.087-.515.113a4.97 4.97 0 01-.58-.006c-.155-.032-.235-.073-.241-.122-.01-.083-.057-.12-.139-.11l-.137-.084a1.09 1.09 0 00-.346-.16 1.362 1.362 0 01-.313-.717c-.034-.282-.012-.729.065-1.343 0-.42.099-.918.299-1.496a14.63 14.63 0 01.811-1.835c.328-.627.679-1.198 1.053-1.713.391-.517.756-.905 1.094-1.164.204-.26.47-.418.799-.474.329-.056.652-.02.97.11.175.063.357.175.544.337.188.163.369.342.544.54.174.197.324.397.449.6.072.176.117.339.135.487.032.13.052.296.059.497.024.198.035.5.033.902-.046.308-.077.681-.092 1.12.003.435.022.81.06 1.125.005.319.065.538.18.659.132.118.298.106.5-.035a1.06 1.06 0 01.556-.193c.182-.022.328.01.439.098.128.085.204.227.228.426.024.198-.051.417-.223.656a2.57 2.57 0 01-.633.605 1.724 1.724 0 01-.745.291c-.182.022-.369-.065-.56-.26a4.27 4.27 0 01-.545-.765 75.792 75.792 0 01-.437-.904l-.217-.553-.945 1.146c-.187.257-.377.498-.568.723-.176.206-.285.353-.324.442-.065.158-.204.326-.418.503a4.47 4.47 0 01-.84.554zm-.102-1.473c.262-.2.555-.478.882-.836.324-.375.637-.774.939-1.196.299-.439.545-.838.737-1.197a5.98 5.98 0 00.517-1.145c.109-.349.179-.676.209-.982a2.253 2.253 0 00-.391-.532c-.175-.197-.321-.297-.439-.3-.364.044-.725.323-1.083.836-.344.494-.674 1.03-.991 1.605-.056.09-.131.234-.225.43-.094.196-.189.383-.285.563l-.162.321c-.042.073-.118.275-.23.607-.096.314-.192.636-.286.966-.097.314-.139.52-.127.62.012.1.033.206.064.32.047.111.138.176.275.193.136.017.335-.074.596-.273zm9.061-.108a2.112 2.112 0 01-.55-.387c-.173-.18-.277-.42-.313-.718-.02-.166-.02-.45-.002-.856.018-.405.056-.863.112-1.373s.116-.988.18-1.432c.13-.318.235-.632.315-.944.08-.312.116-.5.108-.567.009-.203.022-.44.04-.71.034-.273.072-.52.112-.744.04-.223.075-.353.104-.39a.518.518 0 01.28-.185.44.44 0 01.354.008c.138.034.25.13.336.287.206.177.326.406.36.687.032.265-.011.673-.13 1.224-.109.349-.211.756-.306 1.22-.095.465-.178.895-.248 1.29a6.363 6.363 0 00-.084.765l-.479.209c.25-.3.482-.604.696-.915.212-.328.367-.581.462-.76.236-.415.438-.758.607-1.03.183-.291.418-.639.705-1.042.286-.42.58-.691.885-.812.319-.139.569-.22.751-.241.372.022.685.178.938.466.267.27.47.699.608 1.287.028.231.036.507.024.828l.007.477.334-.569c.24-.381.566-.806.98-1.276.287-.27.577-.438.871-.508.291-.085.568-.017.83.203.458.18.782.502.972.966.188.447.293 1.039.314 1.775.002.436.033.76.092.97.057.195.13.388.221.579.14.05.182.188.125.413-.059.208-.146.32-.262.333-.166.02-.36.01-.583-.03a1.545 1.545 0 01-.585-.257c-.169-.148-.27-.362-.304-.644l-.185-1.538a6.615 6.615 0 00-.157-.888c-.045-.23-.103-.366-.175-.407-.194-.078-.446.062-.756.418-.309.356-.631.823-.964 1.4-.334.578-.64 1.169-.92 1.773-.253.55-.416.872-.488.965-.059.074-.186.064-.382-.03-.378-.072-.628-.2-.751-.388a1.183 1.183 0 01-.112-.716c.049-.292.103-.684.161-1.178.074-.496.143-.974.205-1.435.06-.477.095-.817.104-1.02-.082-.124-.203-.151-.363-.082a1.349 1.349 0 00-.444.28c-.183.157-.393.434-.631.832-.237.398-.476.854-.716 1.37-.161.338-.33.678-.507 1.018a24.71 24.71 0 01-.5.866 4.02 4.02 0 01-.409.578c-.188.392-.321.61-.4.652-.079.043-.241.02-.487-.067zm15.358-.765a1.247 1.247 0 01-.527.013 9.052 9.052 0 01-.529-.213c-.398-.238-.705-.486-.921-.746-.201-.278-.31-.558-.328-.841a.8.8 0 00-.048-.398l-.045-.17c-.109-.071-.149-.117-.117-.137a.313.313 0 00.056-.158c.129-.05.134-.142.017-.28-.066-.126-.077-.426-.033-.902.058-.494.153-.958.285-1.394.061-.192.148-.446.261-.761.13-.318.276-.638.439-.96.161-.338.313-.608.456-.81.315-.457.6-.802.858-1.035.272-.25.582-.464.93-.64.315-.173.546-.276.693-.31.147-.035.366.04.656.223.411.068.729.197.954.389.239.172.442.467.609.883.191.464.301 1.03.331 1.698.044.65-.137 1.519-.543 2.608-.236.683-.492 1.21-.767 1.578-.258.367-.58.758-.966 1.174a5.849 5.849 0 01-.795.725c-.246.18-.555.335-.926.464zm1.631-3.193a9.224 9.224 0 00.605-1.457c.147-.454.239-1.011.277-1.67a2.827 2.827 0 00-.055-.674 3.629 3.629 0 00-.217-.754c-.078-.226-.167-.341-.268-.346-.225-.056-.465-.028-.72.087-.257.098-.523.331-.797.7a7.013 7.013 0 00-.635 1.21c-.166.44-.309.918-.432 1.437a26.158 26.158 0 00-.33 1.65c-.09.65-.024 1.128.198 1.438.239.306.571.35.998.131.425-.236.883-.82 1.376-1.752zm8.781 1.714a5.65 5.65 0 01-.474-.17.91.91 0 01-.368-.333 1.442 1.442 0 01-.31-.693 26.483 26.483 0 01-.097-1.02c-.008-.067.008-.212.048-.435.041-.223.087-.464.14-.722.068-.276.123-.51.168-.7.042-.206.062-.318.06-.334a1.093 1.093 0 00-.401.224l-.317.29a3.375 3.375 0 01-.611.577c-.261.2-.503.355-.725.465-.157.086-.392.09-.703.01a1.36 1.36 0 01-.687-.472 4.448 4.448 0 01-.163-.308l-.091-.341a2.82 2.82 0 01.082-1.622c.147-.454.303-.9.468-1.34.163-.456.32-.903.468-1.34.067-.143.135-.277.204-.403.067-.142.109-.282.126-.418a.82.82 0 01.122-.241c.071-.11.156-.17.255-.182a1.57 1.57 0 01.511.064c.172.03.326.129.464.297a.6.6 0 01.197.38c.016.132-.033.288-.145.47-.263.468-.498.958-.705 1.47-.19.51-.372 1.018-.546 1.526-.051.14-.09.304-.117.492-.028.188-.015.363.038.525.248-.03.569-.22.964-.57.392-.366.804-.776 1.236-1.231.432-.455.813-.853 1.141-1.195.343-.36.628-.78.855-1.261a.86.86 0 01.262-.334.942.942 0 01.454-.206c.052.011.122.036.21.076.089.04.185.07.288.091.107.189.2.337.281.445a.481.481 0 01.141.335c-.003.118-.098.306-.285.563-.081.027-.205.184-.371.473a9.367 9.367 0 00-.495.916 7.6 7.6 0 00-.357.798 2.235 2.235 0 01-.165.297c-.057.09-.111.198-.163.322l-.669 2.397c.002.15-.003.32-.014.505-.014.17.019.3.097.391.132-.016.246-.046.342-.091.095-.045.183-.014.263.094.114.255.179.44.192.556.029.097-.064.302-.278.613-.202.276-.476.376-.82.3zm10.066-1.11a1.982 1.982 0 00-.307-.04l-.31-.063a1.308 1.308 0 00-.306-.038c-.194-.212-.294-.485-.301-.82a5.206 5.206 0 01.095-1.094c.089-.38.17-.751.244-1.112.091-.364.13-.67.116-.92-.024-.065-.051-.079-.08-.042-.031.02-.045.048-.041.08a.914.914 0 01-.463.334c-.21.075-.403.14-.581.195a19.24 19.24 0 00-.922.288c-.307.104-.604.215-.892.333a4.14 4.14 0 01-.189-.103.957.957 0 00-.164-.106c-.115.014-.202.133-.259.359a5.378 5.378 0 00-.127.82c-.031.306-.062.604-.094.893a3.02 3.02 0 01-.081.59c-.26.064-.45.095-.568.093a6.06 6.06 0 01-.588-.08 1.081 1.081 0 01-.286-.495c-.02-.166-.017-.35.008-.555.037-.39.067-.705.088-.942.039-.24.11-.55.216-.933.06-.192.114-.374.16-.548.061-.192.079-.395.053-.61.112-.182.181-.375.207-.58.026-.204.06-.41.102-.616.183-.71.327-1.256.432-1.638.12-.4.2-.713.24-.936a2.95 2.95 0 00.053-.61c-.011-.234.115-.367.38-.398.166-.02.347.025.545.135.196.094.355.226.476.396s.152.36.093.568c-.033.139-.09.364-.17.675-.066.294-.144.622-.234.985-.076.345-.154.674-.234.985a5.79 5.79 0 01-.174.65.362.362 0 01-.078.187c-.046.039-.064.1-.054.182.126.069.32.08.583.03.277-.066.47-.14.578-.22l.72-.086.744-.09c.266.12.484.32.652.602.078-.329.185-.761.322-1.298a91.35 91.35 0 00.383-1.633c.12-.535.181-.936.182-1.205a.911.911 0 01.151-.421 1.23 1.23 0 01.29-.312c.245.088.481.16.706.217.239.039.411.211.515.517a2.14 2.14 0 01-.045.46l-.101.414c-.108.5-.251 1.054-.43 1.663-.18.593-.342 1.2-.486 1.822a10.031 10.031 0 00-.225 1.688c.006.05-.015.22-.064.512-.032.29-.074.571-.125.846-.034.273-.059.418-.073.437a.569.569 0 01-.061.334c-.056.091-.13.175-.221.254zm5.607-.776c-.215.026-.394.006-.536-.061a9.062 9.062 0 01-.489-.294c-.354-.293-.615-.58-.784-.862-.17-.299-.247-.592-.231-.879a.771.771 0 00.005-.378l-.024-.199c-.093-.073-.124-.12-.093-.14a.58.58 0 00.082-.16c.099-.013.121-.108.066-.286-.049-.128-.018-.426.094-.892a6.97 6.97 0 01.468-1.34c.08-.178.203-.411.37-.7.164-.305.347-.604.546-.897.215-.31.411-.561.59-.75.372-.398.705-.698.999-.901.295-.204.619-.368.973-.495s.598-.198.73-.214c.149-.018.363.09.644.326.4.12.697.285.89.497.21.21.367.535.47.976.11.49.137 1.066.082 1.727-.04.643-.334 1.476-.883 2.499-.342.645-.669 1.138-.98 1.477-.314.323-.694.654-1.14.994a5.591 5.591 0 01-.88.634 4.1 4.1 0 01-.969.318zm2.066-2.917c.343-.495.607-.955.791-1.38.2-.427.371-.96.513-1.597a2.43 2.43 0 00.043-.686 3.864 3.864 0 00-.117-.766c-.047-.246-.121-.38-.225-.401-.212-.092-.456-.096-.731-.013-.278.067-.565.261-.862.582a6.216 6.216 0 00-1.146 1.775 20.13 20.13 0 00-.857 2.294c-.177.625-.177 1.112-.001 1.46.191.33.512.417.963.262.466-.173 1.009-.684 1.629-1.53zm12.048.363a2.113 2.113 0 01-.55-.387c-.173-.18-.277-.42-.313-.718-.02-.165-.021-.45-.003-.855.019-.406.056-.863.112-1.374.056-.51.116-.987.181-1.431.129-.318.234-.633.314-.945.08-.311.116-.5.108-.567.009-.202.023-.439.041-.71.034-.272.071-.52.112-.743.04-.223.075-.354.104-.39a.513.513 0 01.28-.185.438.438 0 01.353.008c.138.033.251.129.337.286.206.177.326.406.359.687.032.265-.011.673-.129 1.225-.109.348-.212.755-.307 1.22a50.63 50.63 0 00-.248 1.289 6.826 6.826 0 00-.084.765l-.478.209c.249-.299.481-.604.695-.915.213-.328.367-.581.463-.76.235-.415.438-.758.606-1.03.183-.29.419-.638.706-1.042.285-.42.58-.69.884-.811.319-.14.57-.22.752-.242.372.023.684.178.937.466.268.27.47.7.608 1.287.028.232.036.508.024.828l.007.478.335-.57a10.3 10.3 0 01.979-1.276c.287-.269.577-.438.871-.507.292-.086.569-.018.83.202.458.18.782.502.972.966.189.447.293 1.04.315 1.775.002.436.032.76.091.971.057.195.131.387.221.578.14.05.182.188.125.413-.059.209-.146.32-.262.334-.165.02-.36.01-.583-.031a1.558 1.558 0 01-.585-.257c-.168-.148-.27-.362-.304-.643l-.185-1.54a6.459 6.459 0 00-.157-.887c-.044-.23-.103-.365-.175-.407-.194-.077-.445.062-.755.418-.31.357-.631.823-.965 1.4-.333.578-.64 1.169-.92 1.773-.252.551-.415.873-.488.965-.058.075-.185.065-.381-.03-.378-.071-.629-.2-.752-.387a1.175 1.175 0 01-.111-.717c.049-.291.102-.684.16-1.178.075-.495.143-.974.205-1.434.06-.478.095-.817.104-1.02-.082-.125-.203-.152-.362-.082a1.36 1.36 0 00-.445.28c-.183.156-.393.433-.63.831-.238.398-.476.855-.717 1.37-.16.339-.329.678-.507 1.018-.179.324-.346.613-.5.866-.154.254-.29.446-.409.578-.188.392-.321.61-.4.653-.078.043-.241.02-.486-.068zm15.361-1.57c-.339.107-.56.159-.661.154-.087-.023-.231-.106-.433-.25-.28-.1-.524-.239-.73-.416a2.24 2.24 0 01-.447-.575 1.565 1.565 0 01-.143-.562 7.7 7.7 0 01.198-1.913c.152-.69.357-1.36.614-2.012a8.464 8.464 0 01.879-1.693c.344-.494.69-.83 1.038-1.006.315-.172.623-.26.925-.262a.775.775 0 01.702.394c.306.45.285.763-.063.94-.05.005-.105.037-.165.095-.062.04-.089.094-.081.16.07.026.253.012.549-.04.294-.07.585-.155.875-.257.305-.12.502-.228.591-.323a.575.575 0 01.214-.101c.05-.006.176-.004.379.005.291.049.444.131.457.247.008.066.041.13.099.19a.239.239 0 00.183.053c.117.003.11.08-.023.23a5.678 5.678 0 01-.63.63c-.29.236-.473.392-.547.468-.061.058-.055.174.017.35.17.299.222.662.156 1.09a4.292 4.292 0 01-.468 1.34 6.896 6.896 0 01-.946 1.348 7.59 7.59 0 01-1.227 1.104 3.807 3.807 0 01-1.312.611zm-.553-1.042c.066-.008.178-.055.336-.141l.373-.247c.058-.074.132-.158.221-.253.104-.113.188-.182.252-.206a.592.592 0 00.24-.105c.091-.078.217-.219.377-.423.158-.22.363-.539.615-.955.287-.404.504-.766.65-1.086.144-.336.159-.632.044-.886-.024-.064-.079-.1-.163-.106a1.175 1.175 0 01-.288-.092.964.964 0 01-.487-.067 15.176 15.176 0 01-.516-.316l-.457-.448-.371.472c-.233.297-.467.728-.701 1.293a11.576 11.576 0 00-.529 1.675c-.134.554-.2.99-.195 1.308.014.25.075.41.184.482.109.07.248.104.415.1zm5.247 1.333a1.541 1.541 0 01-.297-.166 4.658 4.658 0 01-.309-.265l-.139-.11a.282.282 0 00-.111-.087c-.014-.116.001-.201.045-.257a1.82 1.82 0 00.177-.197c.055-.108.156-.17.305-.188a.474.474 0 00.333-.166c.272-.251.551-.511.837-.78.287-.27.519-.575.696-.915.192-.36.381-.743.567-1.151.186-.409.364-.808.535-1.198.053-.124.135-.343.248-.66.114-.315.219-.622.318-.919.113-.316.171-.532.173-.65a5.756 5.756 0 00-.436-.074 2.954 2.954 0 00-.363-.082 9.241 9.241 0 01-.296-.367c-.022-.048-.05-.204-.081-.469-.024-.198.068-.335.278-.41a8.937 8.937 0 011.239-.377c.376-.078.74-.19 1.093-.332a2.64 2.64 0 01.835-.176c.332-.024.672.011 1.019.104.157.048.291.116.402.203.112.087.217.192.315.315.251.272.39.515.415.73.043.213.06.421.05.624-.009.202.043.423.155.661-.062.46-.13.872-.204 1.233a61.84 61.84 0 00-.209.982 44.56 44.56 0 00-.177.827 6.08 6.08 0 00-.109.769 7.625 7.625 0 01-.153.824 4.61 4.61 0 00-.125.846.634.634 0 01-.241.507 3.55 3.55 0 01-.464.333c-.064.025-.182.022-.353-.008a1.679 1.679 0 01-.455-.222 1.345 1.345 0 01-.109-.49 2.206 2.206 0 01.045-.46c.034-.138.089-.446.166-.925l.258-1.618c.096-.6.189-1.156.278-1.67.089-.514.147-.874.172-1.078.051-.275.052-.477.003-.605a2.438 2.438 0 00-.119-.364c-.363-.09-.608-.102-.735-.037a4.85 4.85 0 01-.435.153.843.843 0 00-.241.508c-.124.501-.235.9-.334 1.198a11.69 11.69 0 01-.255.811c-.09.23-.193.485-.31.768-.101.28-.231.666-.39 1.155a3.763 3.763 0 01-.398.879c-.152.27-.286.554-.401.854l-.231.38c.016-.002-.042.072-.175.222l-.399.451-.175.223-.697.688c-.075.076-.212.126-.41.15l-.621.075zm11.286-1.736a2.64 2.64 0 00-.66-.046 1.033 1.033 0 01-.631-.227 2.267 2.267 0 01-.586-.684 1.654 1.654 0 01-.158-.888 1.98 1.98 0 00.012-.53 1.156 1.156 0 01.062-.536 1.564 1.564 0 01.064-.512l.139-.52a8.65 8.65 0 00.196-.88 7.41 7.41 0 01.249-.86c.187-.544.392-1.072.615-1.585.24-.516.445-1.044.615-1.585.051-.14.115-.232.194-.275a.665.665 0 01.289-.11c.132-.017.268-.008.406.026s.259.061.362.082a.948.948 0 00.268.346c.112.087.162.224.151.41-.192.358-.375.725-.548 1.098-.159.355-.317.718-.473 1.09a27.95 27.95 0 00-.421 1.108 4.158 4.158 0 00-.178.827 4.089 4.089 0 01-.177.827c-.084.278-.133.57-.147.873a7.86 7.86 0 01-.097.868.652.652 0 00.03.248.316.316 0 00.192.129c.221-.111.444-.213.668-.307a1.73 1.73 0 00.582-.398 9.76 9.76 0 00.71-.79 2.59 2.59 0 00.385-.777c.082-.295.121-.67.117-1.122a.502.502 0 00-.058-.27.627.627 0 00-.178-.23 3.41 3.41 0 01-.449-.173 1.24 1.24 0 01-.312-.29.687.687 0 01-.054-.446.763.763 0 01.338-.545c.203-.125.396-.19.58-.195a.303.303 0 01.081.04.16.16 0 01.083.066c.141.05.284.125.43.225.144.083.271.16.381.231.088.174.202.362.344.563.142.201.24.525.293.972.112.927-.046 1.71-.473 2.348-.41.637-.986 1.219-1.729 1.744a1.46 1.46 0 01-.354.194.649.649 0 00-.305.188c-.018-.015-.092.002-.22.051a3.319 3.319 0 00-.628.227zm5.342-.718a1.905 1.905 0 01-.411-.278c-.095-.09-.145-.226-.15-.41.003-.252.022-.515.056-.787a6.59 6.59 0 01.15-.85c.013-.303.035-.608.066-.914.047-.307.145-.605.295-.891.186-.828.35-1.629.492-2.401.157-.791.38-1.725.671-2.8a1.95 1.95 0 01.175-.424c.071-.11.133-.218.188-.325.008-.068.054-.107.137-.117a.577.577 0 01.328.01c.12.02.218.067.294.141.064-.024.168.072.312.29.16.216.232.392.215.528.008.066.002.16-.017.28-.019.12-.056.233-.11.34a1.162 1.162 0 00-.163.322 8.834 8.834 0 01-.241.507c-.11.483-.204.89-.282 1.218a27.37 27.37 0 01-.293 1.117c-.096.18-.16.414-.193.703-.032.29-.065.57-.1.843-.08.312-.154.598-.224.858-.053.259-.075.42-.067.487a8.96 8.96 0 00-.142 1.125 3.022 3.022 0 01-.212.957c.013.25-.041.425-.164.523-.105.097-.309.08-.61-.052zm5.98-.317c-.269 0-.474-.026-.614-.077-.142-.067-.411-.21-.807-.431a15.17 15.17 0 01-.93-.82 31.44 31.44 0 01-1.201-1.19c-.405-.439-.743-.809-1.015-1.112l.854-1.488c.247.24.45.467.611.682.16.216.286.36.379.433.448.517.801.936 1.058 1.258.273.32.514.576.722.769.208.193.421.36.639.502.236.14.521.282.857.426.054.027.11.07.167.13.058.061.086.158.086.293-.045.19-.105.314-.182.374-.062.041-.27.125-.624.252zm-4.674-3.894c-.133-.27-.134-.555-.002-.856.146-.32.32-.55.521-.692.052-.124.109-.207.172-.248.076-.06.119-.123.128-.191.025-.07.097-.171.215-.303.135-.134.254-.257.358-.37a20.97 20.97 0 001.725-1.568c.285-.286.524-.533.717-.74.21-.21.337-.343.38-.399a.321.321 0 01.184-.148c.095-.045.221-.043.378.005.205.026.347.093.427.2.078.092.135.286.171.584.072.176.021.384-.152.623-.158.22-.412.477-.763.771a12.53 12.53 0 00-.501.438 9.566 9.566 0 00-.514.54c-.108.08-.268.218-.48.41a5.85 5.85 0 00-.517.516 3.324 3.324 0 00-.467.51 2.567 2.567 0 01-.592.524c-.47.56-.785.867-.947.92-.161.053-.308-.123-.441-.526zm10.14 3.237a1.246 1.246 0 01-.527.013 9.197 9.197 0 01-.529-.213c-.398-.238-.705-.486-.921-.746-.201-.278-.311-.558-.328-.842a.812.812 0 00-.048-.397l-.045-.17c-.11-.071-.149-.117-.118-.138a.313.313 0 00.057-.157c.128-.05.134-.142.017-.28-.066-.126-.077-.427-.033-.902.058-.494.153-.958.285-1.394.061-.192.148-.446.261-.762.13-.317.276-.637.439-.959.161-.338.313-.608.456-.81.315-.458.6-.803.858-1.035.272-.251.582-.465.93-.64.315-.173.546-.276.693-.31.147-.035.366.04.656.222.411.069.729.198.954.39.239.172.442.467.609.883.191.464.301 1.03.331 1.698.044.649-.137 1.518-.543 2.608-.237.683-.492 1.21-.767 1.578-.258.367-.58.758-.967 1.174a5.79 5.79 0 01-.794.725c-.246.18-.555.335-.926.464zm1.631-3.193a9.217 9.217 0 00.605-1.458c.147-.454.239-1.01.277-1.67a2.833 2.833 0 00-.056-.673c-.05-.28-.122-.53-.216-.754-.078-.226-.167-.341-.268-.346-.225-.057-.465-.028-.72.087-.257.098-.523.331-.797.7a7.02 7.02 0 00-.635 1.21c-.166.44-.31.918-.432 1.436a26.176 26.176 0 00-.33 1.652c-.09.648-.024 1.127.198 1.436.238.307.571.351.998.132.425-.236.883-.82 1.376-1.752zM23.994 102.76c-.364.044-.719.02-1.066-.073a2.786 2.786 0 01-1.046-.529 7.584 7.584 0 00-.409-.681 5.644 5.644 0 00-.5-.393c-.01-.083.004-.244.042-.483a1.72 1.72 0 01.23-.607 5.983 5.983 0 011.13-1.27 8.532 8.532 0 011.64-1.028 1.75 1.75 0 00.233-.153.873.873 0 01.267-.083c.083-.01.127-.066.131-.167.021-.103.095-.12.22-.052a.585.585 0 00.184-.147c.044-.056.126-.074.245-.055l.264-.107c.193-.074.409-.167.647-.28.24-.096.447-.188.621-.276l.29-.11c-.021-.45-.069-.915-.143-1.393-.058-.48-.233-.82-.526-1.02a2.223 2.223 0 01-.472-.572 6.803 6.803 0 00-.412-.706.87.87 0 01.13-.393.946.946 0 01.317-.29 8.268 8.268 0 001.058-.833c.423-.386.848-.832 1.274-1.337a9.456 9.456 0 001.093-1.591c.192-.36.237-.684.135-.974-.086-.291-.397-.439-.935-.441-.33.04-.689.2-1.075.482a7.06 7.06 0 00-1.183 1.049c-.253.13-.446.129-.58-.006a2.126 2.126 0 01-.339-.513c.012-.186.059-.352.142-.496.082-.16.172-.314.272-.46a2.82 2.82 0 00.297-.464c.124-.083.232-.163.323-.24a2.19 2.19 0 01.296-.263 1.29 1.29 0 01.28-.185.883.883 0 01.339-.116c.1-.012.196-.04.292-.086a.717.717 0 01.313-.113c.782-.06 1.43.164 1.945.673.514.509.78 1.04.795 1.591.033.55-.163 1.296-.587 2.236-.119.266-.335.561-.649.884-.297.321-.62.637-.969.948-.332.308-.627.579-.884.811-.26.216-.41.352-.455.407.171.164.365.452.582.862.216.394.399.8.55 1.218.17.433.228.778.175 1.037.17.013.374-.029.615-.125.258-.081.462-.13.611-.149.167.131.333.254.498.368.165.115.256.246.274.395.045.096.031.19-.042.282a.388.388 0 01-.205.176c-.211.06-.483.1-.816.124a2.2 2.2 0 00-.948.29c-.19.375-.342.78-.458 1.213-.114.45-.276.915-.487 1.393-.209.496-.566 1.017-1.07 1.564-.18.19-.368.364-.568.522-.197.175-.362.27-.494.286a7.385 7.385 0 01-.745.291 3.31 3.31 0 01-.687.158zm-1.22-1.137c.005.033.13.026.376-.02a3.59 3.59 0 00.83-.226 3.03 3.03 0 00.879-.433 3.26 3.26 0 00.757-.821c.2-.293.388-.61.566-.95.067-.142.131-.3.194-.476.065-.16.112-.324.142-.496-.132-.118-.321-.087-.568.094-.247.18-.544.359-.892.535a13.46 13.46 0 00-1.319.763c-.495.345-.864.7-1.105 1.065a2.609 2.609 0 01-.524.667c.096.106.198.186.305.24a.618.618 0 00.36.058zm9.613-8.308a.756.756 0 00-.284-.268c-.109-.07-.168-.14-.176-.205a.824.824 0 00-.048-.196.311.311 0 00-.126-.211c-.095-.09-.114-.314-.056-.674.055-.376.168-.834.338-1.375a22.05 22.05 0 01.619-1.761c.116-.149.228-.338.334-.57.107-.23.19-.383.248-.457a.24.24 0 01.053-.183c.042-.072.096-.112.162-.12l-.018-.149c-.01-.083.048-.232.173-.449.141-.218.314-.457.518-.717.201-.276.413-.536.636-.781.22-.262.407-.452.56-.571a2.55 2.55 0 011.017-.55c.375-.096.707-.052.998.131l.278.218.445.35c.181.112.364.233.547.362l1.017.709-.297 1.294c-.136.688-.124 1.274.035 1.759.175.482.393.892.652 1.23.104.173.29.327.559.462.285.134.545.203.78.209.135 0 .265.035.39.104.126.068.2.194.222.376a.71.71 0 01-.052.409c-.054.107-.162.187-.323.24-.538.132-1.067.062-1.587-.212-.503-.275-.999-.77-1.487-1.483a4.041 4.041 0 01-.34-.513 5.466 5.466 0 01-.239-.525l-.315.516a8.382 8.382 0 01-.365.523c-1.032 1.333-1.953 2.258-2.764 2.775-.796.498-1.497.6-2.104.303zm.727-1.497c.014.115.187.095.52-.063.349-.176.71-.455 1.084-.835a24.909 24.909 0 001.497-1.792c.51-.649.908-1.242 1.195-1.78l.44-.96c-.212-.36-.425-.595-.64-.704-.2-.127-.366-.182-.498-.166-.215.026-.514.263-.896.712-.366.447-.75 1.03-1.15 1.75-.4.72-.767 1.502-1.102 2.348-.126.351-.236.692-.33 1.022l-.12.468zm10.325.948a1.251 1.251 0 01-.458-.247 2.28 2.28 0 01-.44-.526 1.444 1.444 0 01-.221-.578c.06-.192.13-.52.209-.982.076-.48.178-1.029.305-1.648.11-.198.184-.425.22-.681l.143-.697c.1-.281.217-.64.35-1.075.13-.452.252-.903.365-1.353.129-.469.24-.86.337-1.174.13-.452.206-.73.228-.833.019-.12.033-.214.041-.282a.504.504 0 01.06-.334c.055-.108.115-.165.181-.173a.31.31 0 01.212-.127 1.57 1.57 0 01.245-.054c.182-.022.354.083.516.315.16.216.253.423.277.622.023.199-.017.489-.122.87-.09.364-.204.747-.34 1.15-.12.4-.221.748-.303 1.043-.082.295-.095.465-.04.508l.33-.19c.218-.144.447-.331.688-.561.17-.122.354-.27.55-.444.198-.175.388-.34.57-.497.181-.173.336-.284.464-.333.183-.156.375-.305.576-.447.2-.158.328-.274.386-.348.265-.166.467-.233.606-.2.154.033.318.139.491.32.208.193.264.379.168.558-.098.163-.346.403-.744.72-.322.256-.713.564-1.174.921-.444.356-.842.672-1.195.95-.336.275-.526.44-.57.496l.244.349c.162.232.321.44.478.622.164.249.334.48.511.694.192.195.292.334.302.417.174.332.375.601.601.809.225.191.465.305.721.341.27.018.532-.047.782-.194.315-.173.55-.243.705-.211.172.03.302.14.392.33.083.125.111.222.086.292-.01.052-.103.189-.278.411-.276.353-.575.59-.896.713-.305.12-.597.13-.878.03-.165.02-.364-.024-.595-.13-.233-.123-.526-.331-.88-.625a21.114 21.114 0 01-1.285-1.255.616.616 0 00-.132-.261 2.589 2.589 0 00-.218-.352 3.991 3.991 0 00-.3-.392l-.178-.23a.17.17 0 00-.065-.118.649.649 0 00-.12-.162 3.427 3.427 0 00-.151-.209c-.275-.05-.459.022-.553.218-.094.196-.195.401-.304.616-.056.225-.127.544-.212.957-.07.395-.124.779-.163 1.153-.023.372-.01.622.04.75.032.265.012.452-.059.561-.072.093-.241.155-.506.187zm8.516-1.68c-.12.116-.307.164-.562.144a5.175 5.175 0 01-.613-.077 2.993 2.993 0 01-.127-.212 1.78 1.78 0 01-.1-.214l-.08-.242a.498.498 0 00-.077-.218.992.992 0 00.106-.164 1 1 0 01.134-.142l.273-.032.273-.033a.454.454 0 00.181-.173.308.308 0 01.233-.154c.337-.276.649-.682.936-1.22.305-.54.585-1.137.843-1.789a23.21 23.21 0 00.703-1.898c.21-.63.382-1.153.516-1.573l-.01-.074c-.001-.016-.011-.032-.03-.047a9.987 9.987 0 01-.36.144c-.13.033-.259.082-.385.148a.29.29 0 01-.069.058.292.292 0 00-.068.059c-.164.17-.4.24-.705.21-.29-.032-.505-.149-.647-.35a1.618 1.618 0 00-.12-.162 3.942 3.942 0 00-.145-.159c.048-.156.13-.309.247-.457a.936.936 0 01.439-.33c.435-.153.864-.28 1.288-.382.44-.12.884-.19 1.335-.21.45-.021.901.025 1.351.139.085.007.161.014.23.023a.563.563 0 01.21.075 4.063 4.063 0 01.628.403c.128.085.232.182.312.29.08.108.137.235.172.382.052.162.09.333.112.515.038.18.052.364.04.55-.032.423-.105.936-.217 1.537a66.44 66.44 0 01-.27 1.518 102.29 102.29 0 00-.313 1.8c-.09.514-.171 1.02-.246 1.515a.894.894 0 01-.623.05 1.449 1.449 0 01-.566-.31 2.375 2.375 0 01-.177-.633 1.361 1.361 0 01.096-.666c.088-.246.135-.554.14-.924.006-.37.079-.672.219-.907a.403.403 0 00.028-.18c-.012-.1-.001-.294.031-.583.049-.291.102-.617.16-.976.055-.376.105-.726.15-1.05.062-.327.099-.575.112-.744a.39.39 0 00-.033-.273 1.4 1.4 0 01-.057-.27 1.884 1.884 0 00-.59-.08c-.235-.006-.382.096-.44.305a.966.966 0 00-.036.13.222.222 0 01-.012.102c-.083.43-.217.849-.403 1.257-.17.406-.306.952-.408 1.635a2.115 2.115 0 01-.16.549c-.065.158-.12.333-.164.523.002.016-.005.034-.019.052.002.017-.004.035-.019.053.002.017-.004.034-.019.053a4.757 4.757 0 00-.266.51c-.065.159-.137.327-.216.505a5.434 5.434 0 01-.962 1.425c-.399.45-.793.867-1.184 1.25zm16.678-8.779c.233.409.326.9.278 1.477a5.567 5.567 0 01-.467 1.769 9.511 9.511 0 01-.904 1.695c-.342.511-.696.915-1.063 1.21-.367.297-.687.427-.96.393a.89.89 0 00-.257-.044.455.455 0 01-.217-.126 2.797 2.797 0 01-.21-.276.831.831 0 01-.066-.345 5.194 5.194 0 01.139-1.15c.097-.448.234-.91.412-1.384a9.11 9.11 0 01.642-1.361 7.56 7.56 0 01.79-1.178c.295-.338.602-.576.921-.715.206-.109.37-.137.494-.085.122.036.278.076.468.12zm-5.098 4.718c-.123.233-.18.39-.17.474a.24.24 0 00.095.164c.054.027.059.136.014.326-.04.223-.02.456.06.698.095.24.232.467.408.68.216.26.468.473.757.64.289.167.564.218.824.153a2.97 2.97 0 00.867-.331c1.111-.671 2.013-1.476 2.706-2.416.707-.958 1.16-2.078 1.358-3.36.03-.172.026-.34-.01-.503-.022-.182 0-.353.064-.512a64.06 64.06 0 00-.015-.124l-.017-.149a1.825 1.825 0 01-.28-.646 1.674 1.674 0 00-.201-.63c-.093-.208-.314-.374-.665-.5a4.071 4.071 0 01-.612-.279 1.037 1.037 0 00-.645-.123 3.375 3.375 0 00-1.933.887 7.562 7.562 0 00-1.372 1.776c-.374.666-.69 1.317-.949 1.953l-.745.09-.72.086a.072.072 0 00-.052-.019.292.292 0 00-.08-.04c-.008-.201.027-.466.105-.794.095-.33.212-.68.353-1.05.14-.369.267-.711.38-1.027.127-.334.222-.59.285-.765a.983.983 0 00-.376-.408 4.558 4.558 0 00-.467-.321.53.53 0 00-.362-.083c-.13.033-.235.146-.312.34a8.815 8.815 0 00-.183.576c-.044.19-.11.332-.2.427.002.15-.024.288-.076.412a13.876 13.876 0 00-.785 2.688 33.248 33.248 0 00-.346 2.358c-.05.426-.084.9-.105 1.423a5.293 5.293 0 01-.168 1.33c.08.107.142.2.185.28a.704.704 0 00.25.196.942.942 0 01.382.03c.138.033.274.05.409.051a.343.343 0 00.242-.08.259.259 0 00.119-.266 10.79 10.79 0 01-.051-1.051c.008-.488.032-.986.072-1.494.038-.525.093-.968.167-1.33l.795-.095.794-.096a.89.89 0 01.101.215c.043.078.078.158.105.239zm13.319 1.47a5.682 5.682 0 01-.474-.17.904.904 0 01-.367-.334 1.433 1.433 0 01-.31-.693 25.012 25.012 0 01-.098-1.02c-.008-.066.008-.211.048-.434s.087-.464.14-.722c.068-.277.124-.51.168-.7.042-.207.062-.318.06-.335a1.09 1.09 0 00-.4.225l-.318.29a3.376 3.376 0 01-.61.577 4.63 4.63 0 01-.725.465c-.158.086-.393.089-.704.009a1.356 1.356 0 01-.687-.472 4.22 4.22 0 01-.163-.307l-.091-.342a2.824 2.824 0 01.082-1.621c.147-.454.303-.901.468-1.34.163-.457.32-.904.468-1.341.067-.142.135-.277.204-.402.067-.143.109-.282.126-.418a.843.843 0 01.122-.242c.07-.109.156-.17.255-.181.184-.006.354.016.511.064.172.03.326.129.464.297.113.103.179.23.197.379.016.132-.033.29-.145.47-.263.469-.498.959-.704 1.47a58.96 58.96 0 00-.547 1.526c-.05.14-.09.305-.117.493-.028.188-.015.363.038.524.248-.03.57-.22.964-.57.392-.365.804-.776 1.236-1.23.433-.456.813-.854 1.14-1.195.344-.36.629-.781.856-1.262a.862.862 0 01.262-.333.943.943 0 01.454-.206c.052.01.122.036.21.076.09.04.185.07.288.09.107.19.2.338.28.445a.476.476 0 01.142.336c-.003.118-.098.305-.285.563-.08.026-.205.184-.371.473a9.4 9.4 0 00-.495.915 7.352 7.352 0 00-.357.799c-.04.088-.095.187-.165.297a2.33 2.33 0 00-.163.321l-.669 2.397c.002.151-.003.32-.014.506-.014.17.019.3.097.39.132-.015.246-.046.342-.09.095-.046.183-.014.263.094.114.255.179.44.192.556.029.097-.064.301-.278.612-.202.276-.475.376-.82.3zm10.35-.843c-.155.103-.352.076-.589-.08a2.792 2.792 0 01-.5-.393c-.173-.18-.313-.44-.421-.78a4.836 4.836 0 01-.204-.857c-.052-.43-.115-.675-.19-.733-.057-.06-.157.01-.3.213-.13.183-.325.442-.587.775a5.773 5.773 0 01-.583.6c-.272.25-.556.469-.853.656-.296.187-.552.293-.767.319-.151.001-.31-.064-.477-.195a2.925 2.925 0 01-.457-.448 5.417 5.417 0 01-.283-.47c-.112-.238-.17-.643-.17-1.213.012-.59.068-1.242.166-1.96.113-.735.255-1.44.426-2.115.185-.694.385-1.264.6-1.71.23-.463.477-.711.741-.743.182-.022.336.069.461.272.14.185.25.34.333.463.103.156.14.26.113.314-.01.052-.066.15-.166.297-.112.181-.235.482-.37.9a35.35 35.35 0 00-.418 1.335 33.624 33.624 0 00-.55 2.333c-.018.136-.046.324-.084.564-.022.237-.016.421.016.552a.753.753 0 00.04.12c.022.049.092.065.207.051.365-.043.71-.236 1.039-.578.343-.36.666-.81.97-1.35.321-.542.614-1.106.88-1.692.265-.586.508-1.144.73-1.675.238-.532.446-.968.623-1.308.175-.357.328-.552.459-.584a.882.882 0 01.403.002c.17.013.317.054.443.122.125.07.189.18.19.33a16.963 16.963 0 01-.499 1.923c-.21.63-.401 1.266-.576 1.908a9.385 9.385 0 00-.27 1.946c-.018.405.054.791.215 1.158.179.364.426.679.743.943.186.145.188.304.007.477-.18.173-.344.277-.49.311zm3.1-1.33a1.654 1.654 0 01-.179-.23.825.825 0 01-.08-.242.412.412 0 00-.039-.121c-.006-.05-.042-.07-.108-.063-.056-.043-.045-.238.03-.583.091-.363.209-.78.354-1.25.161-.473.324-.93.49-1.37.18-.457.33-.82.448-1.085a.298.298 0 00.125-.217c.021-.103.015-.153-.018-.149l.097-.238c.08-.178.141-.294.185-.35.105-.247.176-.49.214-.73.037-.257.028-.466-.025-.627-.076-.075-.153-.09-.232-.048l-.118.065c-.064.025-.16.07-.286.135a1.15 1.15 0 00-.305.188c-.349.31-.59.465-.725.465-.136-.017-.31-.215-.524-.592-.088-.174-.129-.303-.122-.388.006-.085.062-.184.166-.297.118-.132.233-.221.345-.268.11-.064.195-.124.255-.182.168-.138.307-.238.417-.302.126-.066.222-.11.286-.135.414-.184.775-.253 1.083-.206.308.047.557.235.748.565.265.253.42.562.464.926.042.348-.025.767-.201 1.258l-.204.402c-.063.176-.07.26-.02.254.067-.007.134-.074.203-.2.042-.072.129-.184.262-.334.133-.15.224-.228.274-.234l.047-.031c.047-.023.064-.092.05-.208l.131-.166.09-.087c.067-.008.182-.097.346-.268.179-.19.387-.407.626-.654.166-.155.324-.24.473-.259.367-.161.688-.074.963.262.292.334.473.79.542 1.37l-.36 1.403.763-1.2c.083-.144.168-.272.256-.383.104-.113.193-.208.268-.284.019-.12.06-.192.125-.216l.096-.037.05-.006c.03-.02.043-.056.037-.105.075-.076.16-.145.253-.207a.566.566 0 00.174-.222c.268-.15.522-.197.764-.143.24.039.463.222.67.55.14.184.227.35.261.497.035.146.07.369.106.667a7.343 7.343 0 01-.028.607l.001.428c.002.151.002.361 0 .63-.05.14-.074.286-.073.437l.051.422c.026.215.052.363.078.443.025.065.095.09.211.076.226-.078.526-.231.901-.461.39-.248.673-.476.85-.681.22-.262.422-.404.604-.426.196-.04.331.036.405.229.041.062.001.218-.12.467a4.54 4.54 0 01-.391.727c-.14.235-.251.358-.334.368-.049.006-.101.062-.156.17a.834.834 0 01-.199.225c-.102.13-.205.251-.309.364a.479.479 0 01-.329.191.59.59 0 00-.24.105.805.805 0 01-.291.085c-.16.07-.419.076-.779.018-.343-.06-.586-.265-.729-.617-.088-.174-.18-.457-.278-.848a4.49 4.49 0 01-.125-1.244c.03-.306.04-.584.026-.834-.013-.25-.001-.428.037-.533l-.042-.348c-.024-.198-.06-.295-.11-.289-.067.008-.209.151-.427.43-.204.259-.45.59-.737.994-.27.402-.539.82-.806 1.256-.266.435-.48.821-.64 1.16a2.86 2.86 0 00-.317.717c-.084.28-.149.438-.195.477-.1.146-.238.18-.416.1a1.507 1.507 0 01-.478-.42 1.283 1.283 0 01-.13-.237 1.047 1.047 0 01-.038-.322c.015-.153.047-.375.096-.667a75.101 75.101 0 00.544-2.809l.139-.722c-.008-.067-.124.014-.349.243a15.77 15.77 0 00-.785.8c-.127.2-.342.502-.646.908a53.61 53.61 0 00-.992 1.378 20.954 20.954 0 00-1.015 1.608c-.399.737-.688 1.191-.869 1.364-.164.17-.35.151-.56-.059zm16.552-1.462a3.578 3.578 0 00-.704.01 2.174 2.174 0 01-.58-.007 1.109 1.109 0 01-.489-.293 1.468 1.468 0 01-.469-.548 2.617 2.617 0 01-.222-.805c-.066-.546-.049-1.169.052-1.87a23.41 23.41 0 01.447-2.143c.183-.71.365-1.362.546-1.954.18-.593.309-1.053.387-1.381-.055-.178-.009-.284.138-.319.164-.036.348-.042.552-.016.203.01.339.026.409.051.114.104.228.217.343.337a.73.73 0 01.222.376c.053.162.031.332-.065.511-.079.178-.162.33-.247.458-.144.202-.284.496-.423.882-.138.386-.269.83-.393 1.332a20.274 20.274 0 00-.438 2.847c-.019.406-.005.731.042.977.481.094.949.08 1.404-.043a3.11 3.11 0 001.188-.596c.351-.294.606-.61.767-.948.188-.392.223-.732.104-1.02-.104-.306-.398-.447-.882-.423a3.2 3.2 0 00-.692.109c-.211.059-.43.119-.658.18a1.72 1.72 0 01-.29-.318 1.032 1.032 0 01-.135-.286.56.56 0 01.185-.551 1.95 1.95 0 01.632-.403c.256-.098.486-.143.689-.133.337.01.68.077 1.031.203.368.123.673.288.916.494.148.116.275.26.379.433.119.153.198.32.237.5.116.406.152.779.109 1.12a2.52 2.52 0 01-.317.92c-.263.467-.7.881-1.311 1.24-.595.357-1.152.684-1.67.981-.166.02-.299.028-.4.023-.087-.023-.218.001-.394.073zm14.098-1.444c-.047.022-.166.011-.356-.033a9.975 9.975 0 01-.632-.226 3.172 3.172 0 01-.516-.316c-.153-.15-.297-.3-.432-.451a1.287 1.287 0 01-.224-.603 2.12 2.12 0 01-.291-.746 13.677 13.677 0 00-.123-.816 2.76 2.76 0 01.12-1.298c.145-.471.263-.82.353-1.05.054-.242.184-.56.388-.953.219-.413.497-.824.834-1.234.337-.41.7-.739 1.09-.987.249-.164.501-.303.755-.418.27-.133.595-.156.974-.067.188.028.329.078.422.15.092.074.193.145.302.216.121-.115.2-.368.236-.758.052-.41.056-.863.013-1.362a6.118 6.118 0 00-.251-1.455c-.124-.472-.31-.836-.559-1.091-.463-.498-.944-.801-1.444-.91-.5-.107-1.04.008-1.62.347-.209-.059-.41-.194-.603-.406-.177-.214-.246-.44-.208-.68.119-.132.27-.268.455-.407.185-.14.374-.238.569-.295.225-.078.453-.139.683-.183.246-.047.51-.011.793.106.894.178 1.588.497 2.08.958.506.443.885 1.01 1.136 1.702.251.691.449 1.498.593 2.421.065.26.102.5.112.717.024.199.04.54.048 1.026-.14.236-.175.5-.106.794.083.275.082.544-.004.806.017.283-.021.523-.115.719a.982.982 0 00-.111.542 11.973 11.973 0 01-.924 2.579c-.4.854-.889 1.61-1.464 2.266-.576.657-1.234 1.122-1.973 1.396zm-.343-1.596c.174.047.414-.05.721-.288.305-.255.61-.577.916-.966a9.08 9.08 0 00.743-1.147 4.62 4.62 0 00.254-.61c.117-.283.219-.555.305-.817.102-.264.158-.43.167-.499a4 4 0 00.107-1.196c-.012-.385-.083-.628-.213-.73-.208-.193-.512-.207-.912-.041a3.72 3.72 0 00-1.073.708c-.241.23-.449.524-.624.88a9.139 9.139 0 01-.516.944.337.337 0 01-.064.31c-.056.09-.12.182-.193.275-.165.44-.259.846-.282 1.218-.024.355-.031.574-.021.657.032.264.106.533.222.804.117.271.271.437.463.498zm8.372.403c-.215.026-.394.006-.536-.061a9.009 9.009 0 01-.489-.294c-.354-.293-.615-.58-.784-.862-.17-.299-.247-.592-.231-.88a.771.771 0 00.005-.377l-.024-.199c-.093-.073-.124-.12-.093-.14a.58.58 0 00.082-.16c.099-.013.121-.108.066-.286-.049-.128-.018-.426.094-.892.112-.467.268-.914.468-1.341.08-.177.203-.41.37-.7.164-.304.347-.603.546-.896.215-.311.411-.561.59-.75.372-.398.705-.698.999-.901a4.19 4.19 0 01.973-.495c.354-.127.598-.198.73-.214.149-.018.363.09.643.326.401.12.698.285.891.497.21.21.367.535.47.976.11.49.137 1.066.082 1.727-.04.643-.334 1.476-.883 2.498-.342.646-.669 1.139-.98 1.478-.314.323-.694.654-1.14.993a5.591 5.591 0 01-.88.635 4.1 4.1 0 01-.969.318zm2.066-2.918c.343-.494.607-.954.791-1.379.2-.427.371-.96.513-1.597a2.43 2.43 0 00.043-.686 3.864 3.864 0 00-.117-.766c-.047-.246-.121-.38-.225-.401-.212-.092-.456-.096-.731-.013-.278.067-.565.261-.862.582a6.219 6.219 0 00-1.146 1.775 19.988 19.988 0 00-.857 2.294c-.177.625-.177 1.112-.001 1.46.191.33.512.417.963.262.466-.174 1.009-.684 1.629-1.53zm6.066 2.166c-.382.18-.729.155-1.042-.076a4.039 4.039 0 00-.297-.165.482.482 0 01-.228-.225 5.118 5.118 0 01.011-.328c.023-.221.048-.434.074-.639.04-.223.068-.344.082-.362.212-.613.358-1.21.439-1.79.08-.598.133-1.2.161-1.808.024-.355.05-.77.077-1.243.043-.475.077-.89.102-1.246l.061-.536.069-.26c.024-.087.039-.172.045-.257.226-.212.527-.433.902-.663.374-.246.722-.347 1.047-.302.043-.055.133-.083.267-.082l.422-.051c.149-.018.245-.055.289-.11.103.02.287.015.552-.017l.844-.101c.298-.036.514-.053.648-.053.248.105.409.194.486.27.076.074.21.217.404.429a.668.668 0 01-.123.443c-.089.094-.224.161-.404.2l-.447.053a1.799 1.799 0 00-.422.05 24.431 24.431 0 00-2.023.344 6.466 6.466 0 00-.907.21l.019.578c.006.184-.022.372-.083.564-.028.188-.062.46-.103.818-.043.34-.094.683-.154 1.025-.044.325-.099.566-.164.725a.825.825 0 00-.101.415 1.772 1.772 0 01-.052.41c-.044.19-.086.471-.125.846-.022.371-.051.761-.086 1.168a13.98 13.98 0 01-.092 1.12c-.028.322-.078.537-.148.647zm8.4-1.816c-.34.108-.56.16-.662.155-.086-.023-.231-.106-.433-.25a2.29 2.29 0 01-.729-.416 2.2 2.2 0 01-.447-.575c-.094-.224-.142-.411-.144-.562a7.698 7.698 0 01.198-1.913c.152-.69.357-1.36.614-2.012a8.415 8.415 0 01.88-1.692c.343-.495.689-.83 1.037-1.007.315-.172.623-.26.925-.262a.775.775 0 01.702.394c.306.45.285.763-.063.94-.05.005-.105.037-.165.095-.062.04-.089.094-.081.16.07.026.253.012.549-.04a8.45 8.45 0 00.876-.257c.304-.12.501-.228.59-.323a.573.573 0 01.215-.101c.049-.006.175-.004.378.005.291.049.444.131.458.247a.33.33 0 00.098.19.241.241 0 00.183.053c.118.003.11.08-.023.23-.116.148-.326.358-.629.63a8.562 8.562 0 00-.548.468c-.06.058-.055.174.017.35.17.299.222.662.156 1.09a4.292 4.292 0 01-.468 1.34 6.848 6.848 0 01-.946 1.348 7.59 7.59 0 01-1.227 1.104 3.804 3.804 0 01-1.311.611zm-.554-1.041c.066-.008.178-.055.336-.141l.373-.247a3.79 3.79 0 01.221-.253c.104-.113.188-.182.253-.207a.593.593 0 00.239-.104c.091-.078.217-.219.377-.423.158-.22.363-.539.615-.955.287-.404.504-.766.65-1.086.144-.336.159-.631.045-.886-.025-.064-.079-.1-.164-.106a1.201 1.201 0 01-.288-.092.964.964 0 01-.487-.067 14.994 14.994 0 01-.516-.316l-.457-.448-.371.472c-.233.297-.467.728-.701 1.293a11.452 11.452 0 00-.528 1.675c-.135.554-.2.99-.196 1.308.014.25.075.41.184.482.109.07.248.104.415.1zm8.786-7.453c.184-.425.333-.863.447-1.313.13-.452.295-.891.496-1.318.148-.304.289-.597.423-.882.15-.287.282-.58.397-.879a.185.185 0 00.016-.077.291.291 0 01.041-.08c.187-.258.401-.502.642-.733.239-.247.453-.49.642-.732a1.36 1.36 0 01.318-.29c.122-.098.247-.18.373-.246.079-.043.164-.037.254.02.108.054.167.13.179.23.046.38-.019.816-.195 1.308-.176.49-.379.893-.61 1.206a7.77 7.77 0 00-.403.628 4.996 4.996 0 01-.378.624 7.781 7.781 0 01-.724.893c-.326.358-.663.693-1.012 1.003-.349.31-.651.523-.906.638zm.831 1.461c.005.184.06.362.165.534.105.172.219.36.345.563.125.203.22.435.285.696.081.259.094.576.039.952a9.179 9.179 0 01-.165.725c-.069.26-.142.496-.217.706-.025.07-.094.196-.206.378a9.28 9.28 0 01-.319.491 3.975 3.975 0 01-.212.328c-.059.074-.15.085-.273.033-.124-.053-.207-.11-.248-.172-.104-.172-.205-.454-.303-.845-.099-.408-.153-.712-.16-.912a57.508 57.508 0 00-.012-.729c-.007-.335.001-.688.023-1.06.023-.372.06-.696.11-.97.066-.294.169-.482.31-.567a5.02 5.02 0 01.494-.286 4.13 4.13 0 01.498-.26 2.16 2.16 0 00.74-.543c.239-.247.483-.453.732-.617.158-.22.337-.41.536-.568.214-.177.391-.375.533-.593a5.14 5.14 0 01.237-.33l.29-.313a.688.688 0 00.209-.352.636.636 0 01.287-.337.404.404 0 01.144-.269.525.525 0 00.144-.269c.071-.244.17-.465.297-.665.142-.219.24-.449.295-.69.066-.294.151-.631.256-1.013.122-.384.084-.699-.113-.944a2.533 2.533 0 00-.893-.723c-.324-.18-.534-.322-.631-.428-.037-.029-.072-.041-.105-.037l-.105-.038c-.029.037-.078.051-.146.043a.23.23 0 00-.149.018c-.254-.02-.52.07-.798.272a8.237 8.237 0 00-.669.508 7.915 7.915 0 00-1.828 2.184c-.502.85-.914 1.747-1.237 2.692a24.344 24.344 0 00-.726 2.757 2.622 2.622 0 01-.339.116c-.097.029-.202.058-.316.089a1.88 1.88 0 01-.048.232l-.069.26c.098.122.189.246.271.37.099.123.219.217.361.284-.098.297-.162.674-.191 1.131-.012.455 0 .907.037 1.355.037.45.076.839.116 1.17.01.083.035.155.076.217.058.06.083.133.077.218-.007.219.065.47.217.754.168.282.357.528.567.738.226.207.414.302.563.284.198-.023.422.025.672.146.266.12.5.108.701-.034a1.23 1.23 0 01.357-.169c.129-.049.247-.113.355-.193.168-.138.35-.37.546-.695.212-.328.365-.59.459-.786.148-.303.245-.617.29-.941.043-.341.095-.675.156-1.001a1.48 1.48 0 00-.012-.729c-.048-.263-.061-.437-.038-.524a2.433 2.433 0 00-.119-.364 11.762 11.762 0 00-.144-.36 1.51 1.51 0 00-.333-.464 9.242 9.242 0 01-.357-.46l-.509-.04a2.188 2.188 0 00-.483-.042 2.48 2.48 0 01-.168.07l-.149.018zm7.246 5.877a1.248 1.248 0 01-.527.013 9.124 9.124 0 01-.53-.213c-.397-.238-.704-.486-.92-.746-.201-.278-.311-.558-.328-.842a.812.812 0 00-.048-.397l-.046-.17c-.109-.071-.148-.117-.117-.138a.322.322 0 00.057-.157c.128-.05.134-.142.017-.28-.066-.126-.077-.427-.033-.902.058-.494.153-.958.285-1.394.061-.192.148-.446.261-.762.13-.317.276-.637.439-.959a5.41 5.41 0 01.456-.81c.314-.458.6-.803.858-1.035.272-.25.582-.464.93-.64.315-.173.546-.276.693-.31.147-.035.365.04.656.223.411.068.729.197.953.388.239.173.443.468.61.884.19.464.3 1.03.33 1.698.045.649-.136 1.519-.542 2.608-.237.683-.492 1.21-.767 1.578-.258.367-.58.758-.967 1.174a5.782 5.782 0 01-.794.725 3.5 3.5 0 01-.926.464zm1.63-3.193a9.217 9.217 0 00.605-1.457c.147-.455.24-1.011.278-1.67a2.834 2.834 0 00-.056-.674 3.57 3.57 0 00-.216-.754c-.078-.226-.167-.341-.269-.346-.225-.056-.465-.028-.719.087-.257.098-.523.331-.798.7a7.087 7.087 0 00-.635 1.21c-.165.44-.309.918-.431 1.436a26.147 26.147 0 00-.33 1.652c-.09.648-.024 1.127.198 1.436.238.308.571.351.998.132.425-.236.883-.82 1.375-1.752zm4.332 8.267l-.248.03c-.097.028-.196-.027-.297-.166-.076-.075-.132-.194-.169-.357-.02-.166-.014-.468.017-.909a7.86 7.86 0 00.097-.868c.018-.27.018-.472.003-.604-.008-.066-.008-.2.001-.403.028-.188.037-.324.027-.406.067-.143.111-.333.133-.57a2.997 2.997 0 000-.63c-.024-.198.053-.392.232-.582a2.12 2.12 0 01.015-.505c.042-.207.059-.343.051-.41.022-.237.081-.655.177-1.254.11-.618.244-1.314.403-2.088.175-.777.344-1.536.507-2.277.162-.742.313-1.372.452-1.893.143-.487.227-.9.254-1.239.041-.357.051-.619.031-.784-.008-.066.003-.118.032-.155.027-.054.091-.154.191-.3.145-.185.28-.252.404-.2.14.05.309.13.507.241.158.2.271.37.339.514.084.14.115.397.092.769.03.248.015.468-.046.66a3.17 3.17 0 01-.173.45c-.056.09-.069.125-.038.104.641-.396 1.217-.633 1.728-.711.525-.097.975-.059 1.348.115.388.154.695.403.921.745.226.342.367.753.425 1.233a2.63 2.63 0 01-.037.735 3.813 3.813 0 01-.233.783c-.09.23-.179.4-.266.51-.067.009-.126.075-.178.198a3.256 3.256 0 00-.157.372c-.112.181-.304.397-.576.648a5.66 5.66 0 01-.785.598c-.267.15-.47.208-.608.174l-.072.034c-.033.004-.044.047-.034.13.004.033-.12.123-.371.271a12.15 12.15 0 01-.882.409 4.058 4.058 0 01-.904.234c-.347.042-.603.006-.768-.109a1.388 1.388 0 00-.106.164.391.391 0 00-.029.18c.012.099-.007.294-.056.586a6.02 6.02 0 01-.155.799c-.07.26-.146.395-.228.405l-.041.08c-.027.054-.003.118.073.193l.008.276a.924.924 0 01-.064.511c.016.133.015.334-.003.605a2.42 2.42 0 01-.102.617c.024.198.014.392-.03.583-.026.204-.072.31-.138.318-.065.025-.094.129-.089.313.008.2.016.342.026.425.034.416-.01.748-.131.998-.121.25-.281.386-.48.41zm2.006-8.651c.133-.016.399-.107.798-.273.4-.165.805-.357 1.215-.574.425-.236.734-.458.928-.666.384-.432.663-.902.837-1.41.189-.526.115-.995-.22-1.408-.16-.216-.411-.278-.752-.187-.344.075-.709.253-1.094.535-.386.281-.74.617-1.062 1.009a3.743 3.743 0 00-.451.86c-.128.334-.23.665-.308.994a3.688 3.688 0 00-.079.815c.01.217.072.319.188.304zm19.709.121a1.986 1.986 0 00-.307-.038l-.31-.064a1.317 1.317 0 00-.307-.038c-.193-.212-.293-.485-.3-.82a5.14 5.14 0 01.095-1.094c.089-.38.17-.751.244-1.113.091-.363.129-.67.116-.92-.025-.064-.051-.078-.08-.04-.032.02-.045.047-.041.08a.917.917 0 01-.464.332c-.209.076-.402.141-.58.196-.309.088-.616.183-.923.287-.306.104-.603.216-.891.334a3.669 3.669 0 01-.189-.103.991.991 0 00-.164-.106c-.116.014-.202.133-.259.358a5.37 5.37 0 00-.128.822c-.03.305-.061.603-.094.892a3.01 3.01 0 01-.08.589c-.261.065-.45.096-.568.094a6.119 6.119 0 01-.589-.08 1.1 1.1 0 01-.286-.495c-.02-.166-.017-.35.009-.555l.088-.942c.038-.24.11-.55.215-.933.061-.192.115-.375.161-.548.061-.192.078-.395.052-.61.113-.182.182-.375.208-.58.025-.204.06-.41.102-.616.183-.71.327-1.256.432-1.638.12-.4.2-.713.24-.936a2.95 2.95 0 00.053-.61c-.012-.234.115-.367.38-.399.165-.02.347.026.545.136.196.094.354.226.476.396.121.17.152.36.093.568-.034.138-.09.364-.17.675-.066.293-.144.622-.234.985-.076.345-.154.674-.234.985-.066.293-.124.51-.174.65a.38.38 0 01-.078.186c-.046.04-.064.1-.054.183.126.069.32.08.583.03.277-.066.47-.14.578-.22l.719-.086.745-.09c.266.119.483.32.652.601.078-.328.185-.76.322-1.297.135-.554.262-1.098.383-1.633.12-.535.181-.936.182-1.205a.9.9 0 01.151-.421 1.23 1.23 0 01.29-.312c.245.088.481.16.706.217.239.038.411.21.515.517a2.26 2.26 0 01-.045.459l-.102.415a23.65 23.65 0 01-.429 1.663c-.181.593-.343 1.2-.486 1.821a10.031 10.031 0 00-.225 1.69c.006.049-.015.22-.064.51-.033.29-.074.572-.125.847-.034.272-.059.418-.073.436a.584.584 0 01-.061.335c-.056.09-.13.175-.221.253zm4.005-1.111a.755.755 0 00-.284-.268c-.109-.07-.168-.14-.176-.205a.801.801 0 00-.049-.196.311.311 0 00-.126-.211c-.095-.09-.113-.314-.056-.674a9.42 9.42 0 01.338-1.375 22.03 22.03 0 01.62-1.761c.116-.149.227-.338.334-.57.106-.23.189-.383.247-.457a.239.239 0 01.054-.183c.041-.072.095-.112.161-.12l-.018-.149c-.009-.083.048-.232.173-.449a9.93 9.93 0 01.518-.717c.202-.276.414-.536.636-.781.221-.262.408-.452.561-.572.32-.273.659-.456 1.017-.55.374-.095.707-.051.998.132l.278.218.445.35c.181.112.363.233.547.362l1.017.708-.298 1.295c-.135.688-.124 1.274.035 1.759.176.482.393.892.652 1.23.105.173.291.326.559.462.285.134.545.203.781.208a.825.825 0 01.39.104c.126.07.2.195.222.377a.72.72 0 01-.052.409c-.054.107-.162.187-.324.24-.538.132-1.067.061-1.586-.212-.503-.275-.999-.77-1.488-1.483a4.093 4.093 0 01-.339-.513 5.309 5.309 0 01-.239-.525l-.316.516a8.528 8.528 0 01-.365.523c-1.032 1.332-1.953 2.257-2.763 2.775-.796.498-1.498.6-2.104.303zm.726-1.497c.014.115.188.094.521-.063.349-.176.71-.455 1.083-.835a24.91 24.91 0 001.497-1.792c.51-.649.908-1.242 1.196-1.78l.439-.96c-.212-.36-.425-.595-.639-.704-.2-.127-.366-.182-.499-.166-.215.026-.513.263-.896.712-.366.447-.749 1.03-1.149 1.75s-.768 1.502-1.103 2.348c-.125.351-.235.692-.33 1.022l-.12.468zm18.547-.872c-.34.108-.56.16-.662.155-.086-.023-.231-.106-.433-.25a2.29 2.29 0 01-.729-.416 2.199 2.199 0 01-.447-.575c-.094-.224-.142-.411-.144-.562a7.699 7.699 0 01.198-1.913c.152-.69.357-1.36.614-2.012a8.417 8.417 0 01.88-1.693c.343-.494.689-.83 1.037-1.006.315-.172.623-.26.925-.262a.775.775 0 01.702.394c.306.45.285.763-.063.94-.05.005-.105.037-.165.095-.062.04-.089.094-.081.16.07.026.253.012.549-.04.294-.07.586-.155.875-.257.305-.12.502-.228.591-.323a.573.573 0 01.215-.101c.049-.006.175-.004.378.005.291.049.444.131.458.247a.33.33 0 00.098.19.241.241 0 00.183.053c.118.003.11.08-.023.23-.116.148-.326.358-.629.63a8.562 8.562 0 00-.548.468c-.06.058-.055.174.017.35.17.299.222.662.156 1.09a4.291 4.291 0 01-.468 1.34 6.848 6.848 0 01-.946 1.348c-.37.413-.779.782-1.227 1.104a3.804 3.804 0 01-1.311.611zm-.554-1.041c.066-.008.178-.055.336-.141l.373-.247a3.79 3.79 0 01.221-.253c.104-.113.188-.182.253-.207a.594.594 0 00.239-.104c.091-.078.217-.219.377-.423.158-.22.363-.539.615-.955.287-.404.504-.766.65-1.086.144-.336.159-.631.045-.886-.025-.064-.079-.1-.164-.106a1.201 1.201 0 01-.288-.092.965.965 0 01-.487-.067 15.176 15.176 0 01-.516-.316l-.457-.448-.371.472c-.233.297-.467.728-.701 1.293a11.452 11.452 0 00-.528 1.675c-.135.554-.2.99-.196 1.308.014.25.075.41.184.482.109.07.248.104.415.1zm6.329 1.001c-.083.01-.179-.02-.288-.091a1.254 1.254 0 01-.263-.296 1.527 1.527 0 01-.171-.382c-.01-.083.076-.27.26-.56.197-.31.454-.684.771-1.125.316-.441.64-.883.973-1.326l.927-1.295-.59-1.138a18.06 18.06 0 00-.396-.783 51.025 51.025 0 00-.375-.811c-.098-.257-.152-.427-.162-.51a1.106 1.106 0 01-.134-.487c-.003-.167.016-.287.058-.36-.033-.13.058-.208.273-.234a.77.77 0 01.543.111c.136.017.273.11.411.278.135.152.259.338.369.56.125.203.226.41.301.619.006.05.047.178.123.388.09.19.179.373.267.547l.275.823.496-.69c.1-.146.209-.285.328-.417.135-.133.198-.233.19-.3.067-.007.172-.104.318-.29.144-.201.317-.432.521-.692.2-.292.406-.535.617-.729.227-.212.373-.322.439-.33.18-.038.366.04.557.236.19.178.307.39.354.637.014.116-.107.365-.363.749-.256.383-.656.826-1.2 1.328-.332.308-.587.565-.764.771-.176.206-.444.49-.804.852.331.515.638.973.921 1.375.3.4.656.777 1.068 1.13.202.144.386.282.553.413l.275.193c.064-.024.136.01.214.1a.373.373 0 01.138.311c.063.11.059.211-.014.304a.628.628 0 01-.23.179c-.096.045-.157.094-.184.148a.54.54 0 01-.329-.011c-.09-.056-.158-.065-.204-.026-.062.041-.255-.028-.579-.207a5.954 5.954 0 01-.912-.671 5.113 5.113 0 01-.512-.492 7.002 7.002 0 00-.525-.592 7.42 7.42 0 00-.379-.433 2.26 2.26 0 01-.234-.274c-.059.074-.203.268-.434.581-.233.297-.529.693-.889 1.19a86.57 86.57 0 01-1.142 1.396c-.176.206-.331.317-.463.333zm8.691 4.897l-.248.03c-.097.028-.196-.027-.297-.166-.076-.075-.132-.194-.169-.357-.02-.166-.014-.469.017-.909a7.86 7.86 0 00.097-.868c.018-.27.018-.472.003-.604-.008-.066-.008-.2.001-.403.028-.188.037-.324.027-.406.067-.143.111-.333.133-.57a2.997 2.997 0 000-.63c-.024-.198.053-.392.232-.582a2.12 2.12 0 01.015-.505c.042-.207.059-.343.051-.41.022-.237.081-.655.177-1.254.11-.618.244-1.314.403-2.088.175-.777.344-1.536.507-2.277.162-.742.313-1.373.452-1.893.143-.487.227-.9.254-1.239.041-.357.051-.619.031-.784-.008-.067.003-.118.032-.155.027-.054.091-.154.19-.3.146-.185.281-.252.405-.2.14.05.309.13.507.241.158.2.271.37.339.514.084.14.115.397.092.769.03.248.015.468-.046.66a3.17 3.17 0 01-.173.449c-.056.09-.069.126-.038.105.641-.396 1.217-.633 1.728-.711.525-.097.975-.059 1.348.115.388.154.695.403.921.745.226.342.367.753.425 1.233a2.63 2.63 0 01-.037.735 3.813 3.813 0 01-.233.783c-.09.23-.179.4-.266.51-.067.009-.126.075-.178.198a3.256 3.256 0 00-.157.372c-.112.181-.305.397-.576.648a5.65 5.65 0 01-.785.598c-.267.15-.47.208-.608.174l-.072.034c-.033.004-.044.047-.034.13.004.033-.12.123-.371.271a12.37 12.37 0 01-.882.408 4.058 4.058 0 01-.904.235c-.347.042-.603.005-.768-.109a1.388 1.388 0 00-.106.164.391.391 0 00-.029.18c.012.099-.007.294-.056.585-.034.273-.086.54-.155.8-.07.26-.146.395-.228.405l-.041.08c-.027.054-.003.118.073.193l.008.276a.924.924 0 01-.064.511c.016.133.015.334-.003.605a2.42 2.42 0 01-.102.617 1.67 1.67 0 01-.03.582c-.026.205-.072.311-.138.32-.065.024-.094.128-.089.312.008.2.016.342.026.425.034.416-.01.748-.131.998-.122.25-.281.386-.48.41zm2.006-8.652c.132-.016.399-.106.798-.272.4-.165.805-.357 1.215-.574.425-.236.734-.458.928-.666.384-.432.663-.902.837-1.41.189-.526.115-.996-.22-1.409-.16-.215-.411-.277-.752-.186-.344.075-.709.253-1.094.535-.386.28-.74.617-1.062 1.009a3.743 3.743 0 00-.451.86c-.128.334-.23.665-.308.993a3.688 3.688 0 00-.079.816c.01.217.072.318.188.304zm9.114.843c-.194.057-.413.05-.657-.022a1.977 1.977 0 01-.671-.347 1.343 1.343 0 01-.392-.532c-.108-.34-.118-.775-.031-1.306.102-.55.267-1.131.495-1.746a16.62 16.62 0 01.836-1.839c.332-.593.681-1.114 1.047-1.56.38-.466.743-.795 1.089-.988.168-.138.3-.229.395-.274a.51.51 0 01.345-.067c.136.018.337.077.601.18.239.038.422.092.548.16.126.07.294.217.506.443.163.233.292.469.388.71a8.3 8.3 0 01.275.822c.182.398.265.665.248.801a.623.623 0 01-.117.291c-.112.182-.135.268-.069.26l-.013.103c.006.05-.017.136-.069.26a8.22 8.22 0 00-.136 1.174c-.004.387.042.7.138.94.177.349.442.535.798.56.355.024.693-.168 1.013-.576a7.03 7.03 0 01.48-.41c.151-.136.235-.137.251-.005l.083.066a.31.31 0 00.18.028c.083-.01.136.017.161.082.041.062.052.153.033.273-.005.1-.04.223-.107.365-.219.278-.323.459-.313.541l-.087.111a6.84 6.84 0 01-.243.282c-.276.217-.646.354-1.109.41-.447.054-.806.004-1.076-.148a3.055 3.055 0 01-.784-.66c-.237-.291-.402-.548-.496-.772l-.154-.233-.663.558c-.16.204-.338.401-.533.593a6.77 6.77 0 00-.355.395.886.886 0 01-.153.195.241.241 0 01-.165.095 57.6 57.6 0 01-.174.02l-.074.01c.008.066-.065.159-.218.278-.137.117-.31.222-.517.314-.19.09-.368.145-.534.165zm-.409-1.31c.099-.013.264-.108.494-.287.245-.197.512-.422.8-.675.305-.255.569-.505.791-.75.239-.247.401-.434.487-.562l.283-.362c.129-.183.245-.34.347-.47.329-.475.537-.979.624-1.51.085-.547.019-.959-.199-1.235-.088-.174-.183-.263-.284-.268-.101-.004-.301.078-.6.249-.184.14-.406.393-.664.76a18.352 18.352 0 00-1.522 2.626c-.228.48-.409.921-.546 1.324-.136.402-.191.711-.165.926a.308.308 0 00.07.168l.084.065zm15.173.088a1.982 1.982 0 00-.307-.039l-.31-.063a1.31 1.31 0 00-.307-.039c-.193-.212-.293-.485-.3-.82a5.206 5.206 0 01.095-1.094c.089-.38.17-.75.244-1.112.091-.364.129-.67.116-.92-.024-.065-.051-.078-.08-.041-.031.02-.045.047-.041.08a.913.913 0 01-.464.333c-.209.075-.402.14-.58.196a18.51 18.51 0 00-.923.287c-.306.104-.603.215-.891.334a3.669 3.669 0 01-.189-.104.964.964 0 00-.164-.106c-.116.014-.202.134-.259.359a5.37 5.37 0 00-.128.82c-.03.307-.061.604-.094.894-.017.27-.044.466-.08.588-.261.065-.45.096-.568.094a6.108 6.108 0 01-.589-.08 1.1 1.1 0 01-.286-.495c-.02-.165-.017-.35.009-.555l.088-.942c.039-.24.11-.55.215-.933.061-.191.115-.374.161-.548.061-.192.078-.395.053-.61.112-.182.181-.375.207-.58.026-.204.06-.41.102-.616.183-.71.327-1.256.432-1.638.12-.4.2-.712.24-.936a2.95 2.95 0 00.053-.61c-.012-.234.115-.367.38-.398.165-.02.347.025.545.136.196.093.355.225.476.395s.152.36.093.568a48 48 0 01-.17.676c-.066.293-.144.621-.234.985-.076.345-.154.673-.234.985-.066.293-.124.51-.174.65a.38.38 0 01-.078.186c-.046.039-.064.1-.054.182.126.07.32.08.583.031.277-.067.47-.14.578-.22.248-.03.488-.06.72-.087l.744-.09c.266.12.483.32.652.602.078-.329.185-.761.322-1.298.135-.553.262-1.098.383-1.633.12-.534.181-.936.182-1.205a.91.91 0 01.151-.42c.085-.129.182-.233.29-.313.245.088.481.16.706.218.239.038.411.21.515.517.002.15-.014.303-.045.458l-.102.415c-.107.5-.25 1.055-.429 1.664-.18.592-.342 1.2-.486 1.82a10.031 10.031 0 00-.225 1.69c.006.05-.015.22-.064.511-.033.29-.074.571-.125.846-.034.273-.059.418-.073.437a.577.577 0 01-.061.334c-.056.091-.13.176-.221.254zm4.012 4.805c-.384.163-.82.233-1.31.208a3.147 3.147 0 01-1.267-.276c-.39-.171-.626-.386-.707-.645-.028-.097-.008-.209.06-.335a.574.574 0 01.244-.28c.095-.046.19-.023.285.066.142.067.394.137.755.211.364.09.756.069 1.176-.066.37-.128.716-.397 1.036-.804a8.13 8.13 0 00.796-1.129c.109-.214.289-.597.542-1.147a35.7 35.7 0 00.765-1.805c.272-.67.492-1.284.66-1.842l.117-.492c.044-.19.109-.35.194-.477.075-.21.136-.402.183-.576.06-.192.095-.322.104-.39.006-.085.061-.26.163-.523.103-.264.197-.528.283-.79.053-.258.133-.637.241-1.137.108-.5.226-.908.356-1.226.153-.404.273-.73.361-.975.103-.264.225-.43.368-.498.135-.133.228-.203.277-.21.067-.007.197.028.391.105.222.175.37.358.444.55.071.177.074.412.009.705-.051.275-.173.659-.365 1.152-.085.413-.19.795-.316 1.146-.111.332-.202.553-.273.662-.058.208-.131.444-.217.706-.071.243-.136.47-.195.678-.218.698-.41 1.266-.576 1.706-.165.44-.309.843-.433 1.21a18.9 18.9 0 00-.375 1.28c-.307.657-.61 1.281-.908 1.871-.28.605-.589 1.17-.929 1.698a13.61 13.61 0 01-.558.596 8.102 8.102 0 01-.703.639c-.229.195-.455.34-.678.434zm2.634-6.36c-.252-.004-.518-.123-.799-.357a3.37 3.37 0 01-.647-.779c-.168-.282-.244-.49-.227-.627l-.024-.199-.009-.074c-.099.012-.205-.101-.317-.34a5.768 5.768 0 01-.266-.95 27.196 27.196 0 01-.226-1.257c-.054-.446-.088-.87-.103-1.271a4.1 4.1 0 00-.011-.93 10.282 10.282 0 01-.074-.823c-.048-.263-.045-.44.012-.53a.907.907 0 01.171-.247c.44-.255.761-.167.964.261.217.41.356 1.217.416 2.418.047.666.126 1.328.239 1.986.113.658.274 1.226.482 1.704.225.477.49.79.793.937.124.053.193.137.206.252a.845.845 0 01-.054.385.935.935 0 01-.237.33.41.41 0 01-.289.11zM68.769 63.2a.75.75 0 00-.537-1.4l.537 1.4zM29.745 1.413a.75.75 0 00-.832-.658l-6.704.782a.75.75 0 10.173 1.49l5.96-.695.695 5.96a.75.75 0 001.49-.174l-.782-6.705zM68.232 61.8c-14.738 5.65-33.29 1.824-43.693-8.946-5.181-5.364-8.344-12.45-8.024-20.982.32-8.545 4.14-18.615 13.073-29.906l-1.176-.931c-9.067 11.459-13.06 21.826-13.396 30.781-.336 8.969 3 16.445 8.444 22.08 10.848 11.23 30.046 15.155 45.31 9.304l-.537-1.4z" fill="#00E8AD"/></svg>