<svg width="397" height="182" fill="none" xmlns="http://www.w3.org/2000/svg"><path d="M130.346 70.062c-1.336-.78-2.2-1.398-2.59-1.854-.395-.49-.669-1.095-.823-1.815-.138-.588-.235-1.398-.293-2.432a85.26 85.26 0 01-.016-3.07c.012-1.01.039-1.768.078-2.276.146-.185.186-.409.121-.67l-.054-.446c-.053-.162.012-.606.193-1.333.177-.76.314-1.716.41-2.87.423-2.064.853-3.795 1.289-5.19.466-1.433.939-2.665 1.419-3.696.48-1.032.97-1.98 1.47-2.846 1.19-1.553 2.157-2.727 2.901-3.522a11.153 11.153 0 012.564-2.121 14.066 14.066 0 011.724-1.164c.534-.3.994-.389 1.378-.267 1.901.174 3.382.768 4.444 1.782 1.058.98 1.942 2.603 2.651 4.868.407 1.428.698 2.736.875 3.924a13.81 13.81 0 01.17 3.505c-.097 1.153-.378 2.445-.843 3.878-.433 1.428-1.085 3.119-1.959 5.07-.883 2.423-1.952 4.566-3.205 6.429-1.22 1.86-2.533 3.36-3.94 4.503-1.37 1.172-2.758 1.91-4.165 2.213-1.375.3-2.641.1-3.799-.6zm3.003-1.822a6.52 6.52 0 002.101-.958c.651-.447 1.316-1.065 1.993-1.851a44.276 44.276 0 002.253-3.041 86.46 86.46 0 001.787-2.733c.479-.763.858-1.513 1.139-2.252.313-.743.576-1.63.787-2.663.245-1.037.503-2.377.775-4.022a41.79 41.79 0 00.298-2.553c.052-.678.061-1.3.027-1.867-.039-.6-.12-1.278-.245-2.035l-.352-2.93a6.811 6.811 0 00-.557-1.695c-.274-.605-.562-1.04-.862-1.306-.375-.325-.868-.517-1.48-.578-.615-.093-1.267.069-1.955.487-.378.214-.845.656-1.402 1.327a28.384 28.384 0 00-1.747 2.225 43.933 43.933 0 00-1.705 2.572c-.5.866-.911 1.637-1.232 2.314-.293.64-.425 1.075-.397 1.306l-.02.255c.02.165-.026.339-.139.52-.374.515-.754 1.4-1.141 2.655a44.398 44.398 0 00-.95 4.244 56.305 56.305 0 00-.654 4.611c-.122 1.492-.151 2.788-.086 3.888.042.902.082 1.518.122 1.849.04.331.138.588.294.77.152.15.407.455.765.916.238.307.599.515 1.082.625a2.88 2.88 0 001.501-.08zm20.047-4.426a4.232 4.232 0 01-1.101-.774c-.345-.361-.554-.84-.626-1.436-.039-.33-.041-.901-.004-1.712.037-.81.111-1.725.223-2.746.113-1.02.233-1.975.361-2.863.259-.636.469-1.266.629-1.889.16-.624.232-1.002.216-1.134a65.7 65.7 0 01.081-1.42c.069-.545.143-1.041.224-1.487.081-.446.15-.706.208-.78.146-.186.332-.31.56-.37a.879.879 0 01.707.015c.277.068.501.26.673.574.412.353.652.811.72 1.374.063.53-.023 1.346-.26 2.449a25.455 25.455 0 00-.613 2.44c-.19.93-.355 1.789-.495 2.578-.111.752-.167 1.262-.169 1.531l-.957.417a24.87 24.87 0 001.392-1.829 22.88 22.88 0 00.925-1.521 63.85 63.85 0 011.212-2.06c.367-.581.837-1.276 1.412-2.083.57-.841 1.16-1.382 1.768-1.623.638-.279 1.139-.44 1.504-.483.744.044 1.368.355 1.874.932.535.54.941 1.398 1.216 2.574.056.463.072 1.015.049 1.656l.014.955.669-1.138c.479-.763 1.132-1.614 1.959-2.553.573-.538 1.153-.877 1.741-1.015.584-.17 1.137-.036 1.66.405.916.36 1.565 1.004 1.945 1.931.376.895.586 2.079.628 3.55.005.873.066 1.52.184 1.943.114.389.261.774.441 1.155.281.1.364.376.25.826-.117.417-.292.64-.524.668-.331.04-.719.02-1.165-.062a3.103 3.103 0 01-1.17-.513c-.338-.295-.541-.724-.608-1.287l-.37-3.078c-.088-.728-.193-1.32-.315-1.775-.089-.46-.205-.73-.349-.814-.388-.155-.892.124-1.511.836-.62.713-1.263 1.646-1.93 2.8a44.024 44.024 0 00-1.839 3.546c-.506 1.102-.831 1.745-.977 1.93-.116.149-.371.129-.762-.059-.756-.144-1.258-.403-1.504-.776-.217-.41-.291-.888-.223-1.434.098-.582.205-1.367.321-2.355.15-.991.286-1.948.41-2.87.121-.954.19-1.634.208-2.039-.164-.248-.405-.303-.724-.164-.29.102-.587.288-.89.56-.365.313-.785.867-1.26 1.662-.475.796-.953 1.71-1.433 2.741-.322.677-.66 1.355-1.014 2.036a49.316 49.316 0 01-1.001 1.732c-.308.507-.581.892-.817 1.156-.376.784-.643 1.218-.8 1.305-.158.086-.482.04-.973-.135zm24.527-.735c-.277-.067-.582-.232-.916-.494a4.599 4.599 0 01-.882-1.052c-.25-.407-.397-.792-.441-1.156.122-.384.261-1.038.419-1.964.153-.958.356-2.057.61-3.296.221-.396.368-.85.441-1.363l.285-1.394a47.07 47.07 0 00.698-2.149 82.44 82.44 0 00.732-2.706c.257-.938.482-1.72.675-2.348.26-.904.412-1.46.454-1.666.038-.24.066-.428.083-.564-.032-.265.009-.488.121-.67.109-.214.229-.329.362-.345a.62.62 0 01.422-.252c.195-.057.359-.094.491-.11.364-.043.708.167 1.033.632.32.431.504.845.552 1.242.048.398-.033.978-.244 1.742a29.398 29.398 0 01-.68 2.298c-.239.8-.441 1.497-.605 2.087-.164.59-.19.93-.079 1.017l.659-.382a9.975 9.975 0 001.376-1.122c.34-.242.707-.538 1.102-.888.394-.35.774-.68 1.139-.993.361-.346.67-.568.927-.666.366-.312.749-.61 1.152-.894.398-.316.655-.549.772-.697.531-.332.934-.465 1.211-.398.31.064.638.276.983.638.416.386.528.759.336 1.117-.196.326-.692.806-1.489 1.439-.643.514-1.425 1.128-2.346 1.843a381.46 381.46 0 01-2.391 1.9c-.672.55-1.052.881-1.139.992l.487.697c.324.465.643.88.955 1.245.329.498.67.96 1.023 1.388.383.39.584.668.604.834.348.663.749 1.202 1.202 1.618.449.382.93.61 1.442.682a2.684 2.684 0 001.565-.39c.63-.344 1.099-.484 1.409-.42.343.059.605.28.785.66.164.25.221.444.171.584-.021.103-.207.377-.556.822-.553.705-1.151 1.18-1.793 1.425-.609.24-1.194.26-1.755.06-.331.04-.728-.047-1.19-.26-.466-.246-1.053-.662-1.761-1.248-.676-.59-1.532-1.428-2.569-2.512-.016-.132-.104-.306-.264-.522a5.17 5.17 0 00-.437-.703 7.994 7.994 0 00-.598-.784l-.358-.46a.336.336 0 00-.129-.237 1.303 1.303 0 00-.24-.323 6.824 6.824 0 00-.302-.417c-.549-.102-.918.043-1.106.435-.188.392-.39.802-.607 1.231-.114.45-.255 1.088-.425 1.915a32.48 32.48 0 00-.327 2.305c-.044.744-.018 1.245.08 1.501.064.53.025.904-.117 1.122-.145.186-.483.31-1.012.374zm16.713 9.472a2.928 2.928 0 01-.805-.407 3.006 3.006 0 01-.741-.717c-.197-.245-.308-.466-.332-.665-.023-.198-.004-.738.058-1.618.066-.848.157-1.9.275-3.156.154-1.227.321-2.49.501-3.787.217-1.268.449-2.404.698-3.408.046-.173.196-.745.448-1.715.282-1.008.523-2.212.724-3.613.161-.892.391-1.91.69-3.054.299-1.144.614-2.29.946-3.438.328-1.18.589-2.22.784-3.115.194-.897.359-1.622.493-2.175.164-.59.255-.954.272-1.09.042-.207.122-.384.238-.533.146-.185.295-.337.449-.456.149-.153.272-.251.367-.296.576-.237 1.119-.051 1.629.56.201.277.276.62.224 1.03-.051.409-.173.927-.367 1.555l-.228 1.034 1.74-.612c.298-.036.664-.063 1.098-.082.463-.055.91-.11 1.34-.16.43-.053.749-.057.955-.015.799-.063 1.363.02 1.692.25.363.225.686.538.97.94.185.146.411.354.679.624.263.237.428.486.493.746.2.547.273 1.16.221 1.837a6.991 6.991 0 01-.369 1.958 6.454 6.454 0 01-.883 1.87 6.991 6.991 0 01-1.241 1.407 5.67 5.67 0 00-.84.555l-.373.246c-.013.17-.345.478-.997.926a21.36 21.36 0 01-2.269 1.23c-.858.405-1.612.697-2.261.876-.228.06-.555.134-.981.219-.427.084-.764.075-1.011-.03-.372-.022-.624-.026-.757-.01-.132.016-.19.09-.174.223-.025.07-.174.793-.445 2.169a87.382 87.382 0 00-.784 4.777c-.398 1.996-.728 3.58-.99 4.753a50.402 50.402 0 01-.633 2.695c-.13.586-.234.984-.309 1.195-.071.244-.136.403-.194.477zm4.001-19.065c.123.187.446.215.967.085.551-.167 1.189-.445 1.914-.834a29.94 29.94 0 002.202-1.373c.709-.522 1.286-1.028 1.731-1.518.629-.915 1.133-1.747 1.513-2.498.375-.784.384-1.272.025-1.464-.428-.486-1.136-.652-2.125-.5-.989.153-2.164.714-3.524 1.683-.539.267-.937.583-1.195.95-.229.33-.415.738-.558 1.225-.143.488-.323 1.08-.542 1.778-.21.764-.343 1.334-.398 1.71-.056.376-.059.628-.01.756zm24.272 3.778c-1.09.433-1.866.678-2.329.734-.464.055-.988-.116-1.573-.516-.186-.146-.305-.3-.358-.46-.057-.195-.154-.301-.29-.318-.061-.228-.066-.412-.016-.552.079-.178.277-.353.592-.525.532.238 1.171.245 1.916.021a6.642 6.642 0 002.132-1.112c.706-.555 1.236-1.173 1.59-1.853.567-.874.99-1.68 1.27-2.42.277-.771.398-1.44.363-2.007-.04-.331-.117-.557-.232-.677-.086-.158-.282-.386-.586-.685-.572.27-1.09.568-1.555.892-.431.32-.778.648-1.04.981a53.817 53.817 0 00-2.088 2.316 14.943 14.943 0 00-1.199 1.756c-.301.573-.678 1.34-1.134 2.302-.224.363-.443.64-.655.834a.992.992 0 01-.615.326c.179.65-.005 1.075-.552 1.275-.748-.078-1.303-.23-1.666-.454-.367-.258-.534-.81-.501-1.652.077-.48.144-1.042.2-1.686.053-.678.136-1.242.25-1.692a479.969 479.969 0 001.404-5.91c.43-1.73.835-2.971 1.214-3.722l.752-2.96c.567-.035 1.011.029 1.332.191.318.13.716.502 1.192 1.116.02.165-.088.665-.323 1.5a80.037 80.037 0 01-.776 2.762 146.34 146.34 0 01-.807 2.917l-.486 1.821c-.088.38.003.302.274-.234.304-.54.858-1.245 1.66-2.114a7.67 7.67 0 011.445-1.382 14.568 14.568 0 011.481-1.085c.439-.254.806-.416 1.1-.485.294-.069.505-.128.633-.177.828-.1 1.515.036 2.064.407.544.337.947.759 1.209 1.264.296.502.463.918.503 1.25.163.517.291 1.022.384 1.514.122.456.148.956.08 1.502-.068.276-.206.662-.415 1.157a15.383 15.383 0 01-.77 1.553 4.375 4.375 0 01-1.054 1.286 7.904 7.904 0 01-1.078 1.086c-.457.39-.948.769-1.475 1.134a8.24 8.24 0 01-1.467.781zm10.421-.448c-.604.006-1.122-.117-1.555-.367-.404-.287-.727-.735-.968-1.344a5.644 5.644 0 01.014-1.563c.105-.516.18-1.012.224-1.487.074-.78.214-1.57.42-2.367.206-.797.379-1.59.519-2.38.143-.486.255-.953.336-1.4l.242-1.338a78.78 78.78 0 01.311-1.598l.317-1.55a8.85 8.85 0 00.137-1.375c.043-.476.07-.949.081-1.42.316-.441.693-.654 1.131-.64.472.01 1.08.323 1.826.939.213.377.339.731.379 1.062.036.298-.009.622-.135.973a34.63 34.63 0 00-.384 1.406c-.127.62-.271 1.241-.431 1.865a77.645 77.645 0 00-.291 1.344c-.023.372-.133.99-.331 1.853-.166.86-.343 1.754-.534 2.683a25.973 25.973 0 00-.394 2.163 9.014 9.014 0 00-.274 1.493 26.984 26.984 0 00-.089 1.773c.102.29.083.544-.059.763a1.902 1.902 0 01-.492.512zm8.442-3.634a4.21 4.21 0 01-1.1-.774c-.346-.361-.555-.84-.626-1.436-.04-.33-.042-.901-.005-1.711.037-.81.112-1.726.224-2.747.112-1.02.232-1.975.36-2.863.26-.636.469-1.265.629-1.889.16-.624.232-1.002.216-1.134.019-.405.046-.878.081-1.42a29.34 29.34 0 01.224-1.487c.081-.446.15-.706.209-.78.145-.186.332-.31.56-.37a.876.876 0 01.706.016c.277.067.502.258.674.573.412.354.651.812.719 1.374.064.53-.023 1.346-.259 2.449a24.88 24.88 0 00-.613 2.44 97.83 97.83 0 00-.496 2.578c-.111.752-.167 1.262-.168 1.531l-.957.417c.499-.597.962-1.207 1.391-1.829a22.91 22.91 0 00.925-1.521c.471-.83.875-1.516 1.213-2.06a46.04 46.04 0 011.411-2.083c.57-.841 1.16-1.382 1.769-1.623.638-.279 1.139-.44 1.503-.483.744.044 1.369.355 1.875.932.535.54.94 1.398 1.216 2.574a10.7 10.7 0 01.048 1.656l.014.955.669-1.138c.479-.763 1.132-1.614 1.959-2.552.573-.54 1.154-.878 1.741-1.016.584-.17 1.138-.036 1.661.405.916.36 1.564 1.004 1.944 1.931.376.895.586 2.079.629 3.55.004.873.065 1.52.183 1.943.114.389.261.774.441 1.155.281.1.364.376.251.826-.118.418-.293.64-.524.668-.331.04-.72.02-1.166-.061a3.102 3.102 0 01-1.17-.514c-.337-.296-.54-.724-.608-1.287l-.37-3.078c-.088-.728-.192-1.32-.314-1.775-.089-.46-.206-.73-.35-.814-.388-.155-.892.124-1.511.836-.619.713-1.262 1.646-1.929 2.8a44.345 44.345 0 00-1.84 3.546c-.505 1.102-.831 1.745-.976 1.93-.117.149-.371.129-.763-.059-.756-.144-1.257-.403-1.503-.776-.218-.41-.292-.888-.223-1.434.098-.582.205-1.367.321-2.355.149-.991.286-1.948.41-2.87.12-.954.189-1.634.208-2.039-.164-.248-.406-.303-.725-.164-.29.102-.586.288-.889.56-.366.313-.786.867-1.261 1.662-.475.796-.953 1.71-1.433 2.741a60.087 60.087 0 01-1.014 2.036 51.05 51.05 0 01-1 1.732c-.309.507-.581.892-.818 1.156-.376.784-.642 1.218-.8 1.305-.157.086-.482.04-.973-.135zm28.267-1.688c-.43.051-.788.01-1.073-.123a18.51 18.51 0 01-.977-.588c-.708-.586-1.231-1.161-1.567-1.725-.34-.597-.495-1.183-.463-1.757a1.52 1.52 0 00.009-.757l-.047-.397c-.186-.145-.247-.239-.185-.28a1.19 1.19 0 00.163-.322c.198-.023.243-.213.133-.57-.098-.256-.036-.851.188-1.785.223-.933.535-1.827.936-2.68.159-.356.405-.822.738-1.399.33-.61.694-1.208 1.094-1.793.429-.623.822-1.123 1.179-1.502.744-.794 1.41-1.395 1.999-1.802a8.358 8.358 0 011.946-.99c.708-.252 1.195-.395 1.459-.427.298-.035.727.182 1.287.651.801.24 1.395.571 1.782.995.42.42.733 1.07.94 1.951.218.981.273 2.133.164 3.456-.081 1.285-.669 2.95-1.766 4.996-.684 1.291-1.338 2.276-1.961 2.956a20.347 20.347 0 01-2.279 1.986c-.64.547-1.227.97-1.761 1.27-.539.266-1.185.478-1.938.636zm4.132-5.836c.687-.989 1.214-1.909 1.582-2.758.401-.855.743-1.92 1.026-3.196.088-.38.117-.837.087-1.37a7.797 7.797 0 00-.235-1.533c-.093-.492-.242-.76-.449-.802-.425-.184-.913-.193-1.463-.026-.555.134-1.13.522-1.724 1.165-.922.984-1.686 2.167-2.292 3.549-.61 1.35-1.182 2.878-1.715 4.588-.353 1.25-.353 2.224-.001 2.92.382.66 1.024.834 1.927.524.932-.347 2.017-1.367 3.257-3.06zm22.464-4.465c-.03-.533-.011-1.207.059-2.021.07-.815.127-1.594.172-2.338.078-.748.066-1.267-.036-1.556a2.837 2.837 0 00-.501-.393l-.544-.338c.023-.372.049-.71.079-1.017.064-.31.282-.587.655-.834l.366.107.286-.135c.091-.078.168-.138.23-.179.259-.635.48-1.316.661-2.043.177-.76.327-1.466.45-2.12.098-.582.268-1.257.512-2.025.243-.768.502-1.403.777-1.906a7.18 7.18 0 00.407-.805l.302-.842c.226-.631.562-1.326 1.008-2.085a17.08 17.08 0 011.493-2.244c.582-.742 1.134-1.312 1.657-1.71.519-.432.975-.689 1.368-.77.389-.114.896-.225 1.521-.334.355.16.792.442 1.311.85.552.404.852.804.9 1.201l.131 1.092a2.02 2.02 0 01-.129 1.023c.061.227.075.478.04.75-.038.24-.091.498-.158.775a3.559 3.559 0 01-.095.465l-.04.508a46.472 46.472 0 01-1.343 3.485c-.393.92-.848 1.747-1.364 2.481a23.785 23.785 0 01-1.796 2.23c-.682.754-1.515 1.643-2.499 2.668.582.098 1.112.32 1.59.665.474.312.768.797.88 1.455.02.166.026.35.017.552.023.199.064.395.121.59a8.1 8.1 0 01.248 1.23c.077.36.156.736.237 1.129.114.39.172.869.173 1.44a31.07 31.07 0 01-.025 1.463c-.017.136-.057.225-.119.266-.033.004-.04.089-.02.254.064.53.004 1.007-.18 1.432-.184.425-.379.902-.584 1.43a1.674 1.674 0 01-.343.495 1.69 1.69 0 00-.399.45c-.483.73-1.016 1.18-1.6 1.351a25.95 25.95 0 00-1.932.686l-.087.111c-.363-.225-.631-.36-.805-.407-.14-.05-.4-.12-.78-.208-.155-.451-.443-.887-.862-1.306-.387-.424-.643-.88-.769-1.368a4.633 4.633 0 01-.128-.64.8.8 0 00-.276-.621c.212-.193.221-.396.028-.608-.194-.211-.203-.429-.028-.651l-.024-.199a.387.387 0 00.032-.155 1.553 1.553 0 01-.135-.285 2.553 2.553 0 01-.11-.49zm4.672 3.668c.702-.856 1.138-1.698 1.308-2.524a8.31 8.31 0 00.092-2.58 75.125 75.125 0 00-.291-2.835 1.304 1.304 0 00-.159-.484.683.683 0 01-.004-.453c-.176-.348-.356-.73-.54-1.144a2.535 2.535 0 00-.888-1.102c-.249.165-.446.34-.592.525-.145.185-.327.492-.544.921-.125.351-.217.983-.275 1.897a35.09 35.09 0 00.06 3.014c.062 1.067.181 2.06.359 2.979.211.914.487 1.536.828 1.864l.646-.078zm3.331-24.22a21.668 21.668 0 00-2.477 4.527 25.492 25.492 0 00-1.468 4.961l.582.232 2.237-2.334c.091-.078.264-.317.518-.716.254-.4.49-.815.707-1.244.246-.466.379-.75.4-.854.27-.267.516-.733.739-1.398.255-.669.469-1.4.642-2.193.17-.826.279-1.594.327-2.305.078-.748.062-1.3-.048-1.656l-.329.19c-.28.47-.575.943-.888 1.417-.316.44-.63.898-.942 1.372zm10.673 26.313c-1.456.175-2.713-.228-3.771-1.209-1.062-1.013-1.676-2.35-1.842-4.008-.077-1.2.001-2.502.235-3.906a21.194 21.194 0 011.21-4.175c.54-1.374 1.166-2.59 1.878-3.65.711-1.06 1.49-1.841 2.336-2.346.311-.205.643-.38.995-.523a4.926 4.926 0 011.173-.292 3.636 3.636 0 011.166.062c.409.051.754.127 1.035.227.59.165 1.054.394 1.392.69.337.294.664.775.979 1.442.175.617.279 1.058.31 1.323.032.265-.003.672-.104 1.221-.254 1.24-.644 2.327-1.169 3.263-.525.936-1.282 1.766-2.269 2.489a3.536 3.536 0 01-.896.51 5.6 5.6 0 01-3.008.11 3.548 3.548 0 01-1.577-.968l-.395-.355-.101.415a26.396 26.396 0 00-.496 2.578 9.924 9.924 0 00.003 2.114c.047.397.126.774.236 1.13.143.352.314.65.511.896.156.182.389.305.699.369.339.026.69.017 1.054-.026l.695-.084c.261-.065.501-.161.721-.288.539-.266.96-.535 1.263-.807.336-.275.67-.567 1.002-.876l.187-.123-.05.006c.374-.246.697-.487.971-.721l.461-.358c.132-.016.255-.114.367-.296.249-.164.586-.154 1.011.03.458.18.709.452.753.816-.014.17-.131.452-.352.848a8.026 8.026 0 01-.78 1.05c-.262.334-.49.53-.685.586-.029.038-.137.118-.323.24-.191.09-.315.173-.373.247l.049-.006c-.25.433-.524.668-.822.703l-.397.048c-.104.248-.503.564-1.195.95a6.266 6.266 0 01-2.087.654zm.92-11.19c.596-.072 1.089-.3 1.479-.682a6.84 6.84 0 001.049-1.335c.554-.973.831-1.88.831-2.718.029-.877-.142-1.46-.513-1.752a1.246 1.246 0 00-.564-.083c-.136-.017-.412.066-.826.25-.29.103-.674.4-1.152.895a21.174 21.174 0 00-1.415 1.63c-.433.59-.759 1.082-.98 1.478l-.52 1.12a2.14 2.14 0 01.726-.239c.261-.064.412-.066.453-.004.036.298.119.574.251.826.16.216.331.38.512.493.215.108.438.148.669.12zm13.83 8.962a.683.683 0 00-.453.004 2.314 2.314 0 01-.453.004c-1.283-.618-2.187-1.432-2.711-2.443-.492-1.016-.712-2.147-.661-3.396.052-1.248.237-2.496.557-3.743l.492-1.772a5.079 5.079 0 01.858-1.664c.168-.557.497-1.168.988-1.831a14.473 14.473 0 011.64-1.86c.635-.58 1.203-1.017 1.705-1.312.278-.202.576-.372.895-.51.315-.173.612-.36.89-.561a5.1 5.1 0 011.104-.032c.306.03.568.116.786.258.215.108.408.32.58.635.169.282.316.667.442 1.155-.191.09-.442.238-.753.444a6.37 6.37 0 01-.796.498c-1.931.971-3.363 2.184-4.296 3.64-.9 1.45-1.669 3.155-2.306 5.111a4.617 4.617 0 00-.268 1.543c.027.5.021 1.005-.019 1.514.001.57.208 1.032.62 1.385.23.241.559.32.985.234a4.832 4.832 0 001.292-.558c.44-.254.716-.472.828-.654.121-.115.225-.228.312-.34a3.75 3.75 0 00.355-.394c1.078-1.372 1.882-3.198 2.413-5.478a61.629 61.629 0 001.311-7.107l.119-1.525c.081-.715.132-1.41.152-2.084.019-.673-.02-1.139-.118-1.395a1.559 1.559 0 00-.264-.523c-.123-.186-.112-.372.034-.558-.153-.15-.343-.479-.573-.988-.229-.51-.39-.877-.484-1.1-.418-.957-1.02-1.64-1.808-2.05a5.383 5.383 0 00-2.59-.594 7.284 7.284 0 00-2.75.583c-.19.09-.383.163-.578.22a1.888 1.888 0 00-.583.171c-.451-.113-.797-.34-1.039-.68-.242-.34-.411-.623-.505-.846-.04-.331-.022-.602.054-.813.108-.214.254-.4.436-.556.216-.16.452-.29.709-.387a5.14 5.14 0 011.162-.392c.422-.118.724-.255.907-.411.479.077.951.087 1.414.031a3.3 3.3 0 011.426.131 14.57 14.57 0 001.92.474c.612.06 1.191.41 1.738 1.05.316.398.677.741 1.08 1.028a3.88 3.88 0 011.081 1.029l.862 1.306c.403.556.61 1.018.62 1.386.792 1.281 1.191 2.643 1.197 4.086.002 1.41-.162 2.84-.491 4.29a95.061 95.061 0 00-.857 4.182c-.005.235-.093.48-.264.736s-.223.514-.158.775a177.404 177.404 0 01-1.32 3.684 15.134 15.134 0 01-1.665 3.323c-.683 1.022-1.617 1.906-2.803 2.653-.216.16-.608.392-1.175.696-.539.266-.947.366-1.223.298zm21.378-4.032a4.395 4.395 0 01-2.307 1.335 5.221 5.221 0 01-2.679-.08 5.34 5.34 0 01-2.349-1.531 5.654 5.654 0 01-1.391-2.35c-.281-.94-.447-2.18-.497-3.718-.056-1.303.202-2.643.775-4.022a15.648 15.648 0 012.207-3.84c.935-1.154 1.892-1.99 2.87-2.511.457-.391.853-.59 1.188-.596a19.67 19.67 0 011.65-.098c.773.007 1.354.089 1.741.243.422.151.768.378 1.039.681.556.437.947.893 1.172 1.37.221.443.36.897.416 1.36-.045.744-.434 1.697-1.167 2.86-.704 1.125-1.695 2.1-2.972 2.926-.7.32-1.482.514-2.347.584-.864.07-1.602-.059-2.212-.388-.661-.19-1.068-.09-1.223.298-.159.355-.241 1.204-.248 2.548.019 1.273.23 2.188.633 2.744.398.523.885.8 1.459.832.678.052 1.203.09 1.575.112.401-.014.863-.221 1.386-.62.49-.394.799-.616.927-.665.125-.082.216-.16.274-.235l.568-.722c.204-.26.366-.447.486-.563a.624.624 0 01.423-.252c.165-.02.324.045.477.194.148.117.292.2.433.25.331-.04.421.151.27.572-.118.417-.408.94-.869 1.565a11.087 11.087 0 01-1.708 1.717zm-1.315-10.519a6.253 6.253 0 001.058-.832c.357-.379.646-.766.867-1.162.25-.433.359-.782.328-1.046-.056-.464-.317-.818-.783-1.065-.47-.279-1.122-.25-1.954.084-.352.143-.736.442-1.152.894-.419.42-.816.888-1.191 1.403a20.55 20.55 0 00-.843 1.36c-.188.392-.245.617-.171.675.119.154.417.252.892.296.471.01.986-.035 1.545-.136.592-.104 1.059-.261 1.404-.47zm-1.858-10a3.219 3.219 0 01-.697-.771c-.176-.349-.256-.59-.239-.727.046-.174.124-.502.234-.985.139-.52.312-.894.52-1.12.091-.078.179-.19.262-.334.113-.181.233-.297.361-.346.366-.312.726-.39 1.081-.23.384.121.69.437.919.947.354.427.503.829.447 1.205-.059.343-.27.821-.633 1.436-.416.721-.819 1.14-1.208 1.253-.39.114-.739.005-1.047-.327zm6.354-.764a3.239 3.239 0 01-.697-.772c-.176-.348-.256-.59-.239-.727.047-.173.125-.501.234-.985.139-.52.313-.893.52-1.12.092-.078.179-.19.262-.333.113-.182.233-.297.362-.346.365-.313.725-.39 1.08-.23.384.121.69.437.92.946.353.428.502.83.447 1.205-.06.343-.271.822-.633 1.436-.417.722-.82 1.14-1.209 1.254-.389.114-.738.005-1.047-.328zm24.174 19.603c-.351-.125-.619-.261-.804-.407-.189-.178-.497-.36-.922-.543a22.14 22.14 0 00-.614-1.337 4.402 4.402 0 01-.322-1.421c.002-.27-.082-.544-.25-.826-.139-.32-.157-.603-.052-.85-.13-.522-.195-1.202-.195-2.042-.004-.872.03-1.699.104-2.48.07-.814.118-1.39.145-1.73-.115-.12-.225-.19-.328-.212-.07-.025-.163.037-.28.185-.291.37-.566.74-.824 1.106-.258.367-.53.752-.817 1.156a5.65 5.65 0 01-.399.451c-.154.12-.217.295-.189.526l-1.5 2.598c-.101.28-.307.658-.62 1.132-.283.437-.49.949-.621 1.535-.038.24-.13.453-.276.638l-.448.457c-.45-.114-.746-.196-.886-.246-.14-.05-.412-.22-.816-.506-.371-.291-.638-.561-.803-.81a1.408 1.408 0 01-.206-.882l-.251-2.085a35.22 35.22 0 00-.317-2.63c-.103-.861-.241-1.449-.413-1.764-.36.077-.603.156-.727.238-.125.083-.266.301-.425.656.029-.037-.092.212-.363.749-.242.499-.582 1.16-1.02 1.986-.409.788-.816 1.592-1.221 2.413a61.268 61.268 0 00-1.014 2.035c-.238.533-.342.78-.313.743-.2.293-.365.598-.494.916a25.43 25.43 0 00-.284.99c-.118.418-.268.705-.451.86-.186.124-.372.113-.558-.033a19.064 19.064 0 00-.903-.395 27.69 27.69 0 01-.749-.363 6.867 6.867 0 01-.431-.653 6.34 6.34 0 01-.257-.876c.245-.197.415-.318.511-.363.091-.078.16-.204.206-.378.597-1.18 1.114-2.182 1.552-3.007.434-.858.803-1.557 1.107-2.097.305-.54.54-.954.707-1.243.163-.322.255-.534.276-.638.126-.35.286-.689.482-1.015.229-.33.439-.673.631-1.032.021-.104.159-.355.413-.755.25-.433.517-.868.8-1.305.283-.437.487-.696.611-.779a.808.808 0 00.3-.438l.226-.632c.031-.306.154-.539.369-.699.216-.16.56-.235 1.031-.225.293.2.62.412.983.637.359.192.736.399 1.132.62.007.335.032.684.076 1.048.077.36.277.907.6 1.64-.051.41.015.82.199 1.235.184.415.232.812.143 1.192.052.43.189.732.412.907.251.138.579-.07.982-.622a32.95 32.95 0 011.63-2.361 72.798 72.798 0 011.866-2.491l1.616-2.058c.466-.593.74-.962.823-1.106.047-.174.153-.27.318-.29a.785.785 0 01.558.034c.599.23 1.005.399 1.219.507.215.109.526.323.934.644.387.423.486.83.298 1.223-.092.347-.209.914-.349 1.704-.111.752-.228 1.588-.352 2.51-.092.917-.172 1.783-.242 2.597a20.074 20.074 0 00-.033 1.817c.046.666.097 1.365.151 2.097.051.699.188 1.421.412 2.166.388.994.534 1.648.438 1.962-.068.277-.375.515-.922.715zm-242.08 71.426c-.728.088-1.278.12-1.65.098-.372-.022-.665-.088-.88-.196a7.05 7.05 0 01-.76-.463 8.153 8.153 0 00-.598-.784 4.52 4.52 0 00-.575-.586c-.192-.48-.335-1.118-.431-1.912a19.543 19.543 0 01-.013-2.617c.087-.951.249-1.843.484-2.677.101-.281.185-.559.252-.836l.101-.415c-.02-.166.131-.587.453-1.263.354-.68.738-1.398 1.151-2.153.446-.759.816-1.307 1.111-1.645.2-.292.514-.615.941-.969.461-.358.865-.624 1.213-.8.348-.177.698-.336 1.05-.48.386-.147.826-.25 1.323-.31a2.865 2.865 0 011.326.143c.421.15.844.452 1.268.905.667.524 1.07 1.08 1.207 1.668.167.55.221 1.132.16 1.743-.086.682-.239 1.22-.46 1.617-.225.363-.505.547-.84.554-.335.007-.746-.196-1.232-.607-.164-.25-.256-.456-.276-.622-.024-.198.009-.488.097-.867.077-.48.019-.96-.173-1.44-.192-.48-.437-.703-.735-.667-.43.052-.886.308-1.368.769-.452.424-.91.949-1.371 1.575-.2.293-.481.746-.844 1.36a21.12 21.12 0 00-.976 1.931 14.402 14.402 0 00-.772 1.956 202.991 202.991 0 01-.577 2.739l-.179 1.028a.884.884 0 00.147.385.48.48 0 01.191.33c.048.397.317.684.809.86.391.187.838.268 1.338.241.496-.059 1.089-.298 1.777-.717a6.417 6.417 0 001.364-1.222c.445-.49.912-.932 1.401-1.327.337-.275.594-.507.773-.697.211-.193.325-.224.341-.091.016.132.074.192.173.18.099-.011.207-.092.324-.24.166-.289.362-.48.585-.574.22-.127.415-.184.584-.171.199-.024.304.014.316.113-.031.306.065.546.288.721.016.132-.012.32-.083.564a1.27 1.27 0 01-.238.532 5.206 5.206 0 01-.65.884 17.66 17.66 0 01-.748.896l-.361.345c-.137-.017-.265.032-.385.147l-.306.39a4.72 4.72 0 01-.679.635c-.22.128-.396.199-.528.215a2.42 2.42 0 01-.516.314c-.096.045-.135.134-.119.266a2.72 2.72 0 01-1.158.844c-.451.155-1.14.289-2.067.4zm16.279-17.721c.368-.85.666-1.725.893-2.626.261-.904.591-1.783.992-2.637.296-.606.578-1.194.846-1.764.3-.573.565-1.159.795-1.757a.387.387 0 00.032-.155.582.582 0 01.081-.161 10.92 10.92 0 011.285-1.464 19 19 0 001.284-1.464c.175-.222.387-.416.635-.58a4.49 4.49 0 01.747-.492c.157-.087.327-.073.508.04.215.108.334.261.358.46.091.76-.039 1.633-.391 2.615-.351.983-.758 1.787-1.22 2.413a15.84 15.84 0 00-.806 1.255 9.764 9.764 0 01-.756 1.25c-.312.474-.795 1.069-1.447 1.785a27.468 27.468 0 01-2.025 2.007c-.698.62-1.301 1.046-1.811 1.275zm1.661 2.922c.011.368.121.724.33 1.069.209.344.439.719.69 1.125.25.407.44.87.57 1.392.163.518.189 1.153.078 1.904-.081.447-.19.93-.329 1.45-.139.521-.284.991-.435 1.412-.05.141-.188.392-.413.755-.195.326-.408.653-.637.983a7.591 7.591 0 01-.424.655c-.117.149-.299.171-.547.066-.247-.104-.412-.219-.494-.343-.209-.344-.411-.908-.606-1.69-.199-.815-.306-1.424-.321-1.825-.002-.302-.01-.787-.024-1.457a26.62 26.62 0 01.047-2.121c.045-.744.118-1.39.22-1.94.131-.587.337-.964.619-1.132.311-.206.641-.396.989-.573.344-.209.676-.383.995-.522a4.293 4.293 0 001.481-1.085 8.776 8.776 0 011.463-1.233c.316-.441.674-.82 1.072-1.136a5.234 5.234 0 001.066-1.186c.171-.256.329-.476.474-.662.179-.189.372-.397.58-.623.212-.194.351-.429.419-.705.1-.281.291-.506.573-.674.039-.24.135-.419.288-.538a1.05 1.05 0 00.288-.538 5.18 5.18 0 01.595-1.33c.283-.438.48-.898.59-1.381.131-.587.301-1.262.511-2.026.244-.768.168-1.396-.227-1.886-.513-.643-1.109-1.126-1.785-1.447-.648-.359-1.068-.644-1.261-.856-.075-.058-.145-.083-.211-.075l-.21-.076c-.059.075-.156.103-.292.086a.462.462 0 00-.298.036c-.509-.04-1.041.142-1.597.544-.526.366-.972.705-1.338 1.017-1.436 1.18-2.654 2.636-3.654 4.368a28.947 28.947 0 00-2.475 5.384 48.683 48.683 0 00-1.452 5.513 5.208 5.208 0 01-.677.233c-.194.057-.405.116-.633.177a3.559 3.559 0 01-.095.464l-.139.52c.197.246.378.492.542.741.197.245.438.434.723.568-.197.594-.324 1.348-.382 2.262-.025.909-.001 1.813.074 2.71.074.898.151 1.678.231 2.34.02.165.071.31.153.434a.544.544 0 01.153.435c-.014.438.13.941.433 1.509a7.511 7.511 0 001.135 1.475c.453.416.828.606 1.126.57.397-.048.845.049 1.344.291.532.239 1 .216 1.402-.068a2.48 2.48 0 01.715-.337c.257-.098.493-.228.709-.388.336-.275.7-.739 1.091-1.39.425-.656.731-1.179.919-1.571.297-.607.49-1.234.58-1.883.085-.682.19-1.349.313-2.002.113-.45.105-.936-.024-1.457-.097-.526-.123-.875-.076-1.049a4.988 4.988 0 00-.239-.726 23.422 23.422 0 00-.288-.721 2.998 2.998 0 00-.665-.927 19.969 19.969 0 01-.716-.921l-1.016-.08a4.362 4.362 0 00-.967-.085 5.122 5.122 0 01-.336.142l-.298.035zm12.85 11.498c-.43.052-.788.011-1.072-.123a17.688 17.688 0 01-.978-.587c-.708-.587-1.231-1.162-1.567-1.726-.34-.596-.495-1.182-.463-1.757.067-.276.071-.529.01-.756l-.048-.397c-.186-.146-.247-.239-.185-.28a1.21 1.21 0 00.163-.322c.198-.024.243-.214.133-.57-.098-.257-.036-.852.188-1.785.223-.934.535-1.827.936-2.681.159-.355.405-.821.739-1.399.329-.61.693-1.208 1.093-1.793.429-.622.822-1.123 1.179-1.502.744-.794 1.41-1.395 1.999-1.801a8.359 8.359 0 011.946-.99c.708-.253 1.195-.395 1.459-.427.298-.036.727.181 1.287.65.801.24 1.395.572 1.782.995.42.42.733 1.07.94 1.952.219.98.273 2.132.164 3.455-.081 1.285-.669 2.951-1.766 4.997-.684 1.291-1.338 2.276-1.961 2.955a20.367 20.367 0 01-2.279 1.986c-.64.547-1.227.971-1.761 1.27-.539.266-1.185.478-1.938.636zm4.132-5.835c.687-.99 1.214-1.91 1.582-2.76.401-.853.743-1.918 1.026-3.194.089-.38.118-.837.087-1.37a7.798 7.798 0 00-.235-1.534c-.093-.492-.242-.76-.449-.802-.425-.184-.913-.192-1.463-.025-.555.134-1.129.522-1.724 1.164-.922.984-1.686 2.167-2.292 3.55-.61 1.348-1.181 2.878-1.714 4.587-.354 1.251-.354 2.225-.002 2.921.382.659 1.024.834 1.927.524.932-.348 2.018-1.368 3.257-3.061zm21.401 3.418c-.216.16-.536.148-.961-.036-.392-.187-.798-.491-1.218-.911a4.385 4.385 0 01-.652-1.231c-.122-.455-.232-1.096-.332-1.924-.046-.666-.131-1.092-.254-1.278-.091-.191-.269-.136-.535.165-.27.267-.725.809-1.365 1.624-.728.927-1.445 1.668-2.15 2.223-.673.551-1.242.838-1.71.86-.231.028-.51-.056-.836-.252a5.608 5.608 0 01-.858-.853 10.096 10.096 0 01-.739-1.12c-.286-.704-.431-1.627-.434-2.768.026-1.178.146-2.418.359-3.72.212-1.3.483-2.542.811-3.723.361-1.185.748-2.155 1.161-2.91.445-.758.867-1.161 1.264-1.21.265-.031.512.073.743.314.263.237.545.623.844 1.158.16.216.234.408.221.578.02.165-.089.38-.326.643-.25.433-.526 1.07-.827 1.913a51.032 51.032 0 00-.782 2.712 64.33 64.33 0 00-.571 2.789c-.161.892-.258 1.625-.289 2.2-.036.541.013.804.145.788.463-.056.988-.303 1.573-.743a11.04 11.04 0 001.713-1.666 13.667 13.667 0 001.562-2.505c.463-.895.92-1.84 1.371-2.834.351-.714.71-1.496 1.078-2.346.401-.854.647-1.454.74-1.8.36-.917.637-1.538.833-1.864.192-.359.448-.608.767-.747l.446-.053.249-.03c.202.009.452.13.748.363.281.1.446.215.495.343.045.096.077.226.097.392-.092.346-.248.869-.466 1.566a90.961 90.961 0 01-.428 1.462 570.18 570.18 0 01-1.379 4.447 19.058 19.058 0 00-.789 4.325 8.555 8.555 0 00.147 1.644c.138.588.289 1.006.453 1.255.124.186.267.404.431.653.194.212.4.388.618.53.322.163.397.372.227.627a2.094 2.094 0 01-.624.68c-.281.168-.472.258-.571.27zm-3.124-20.524c-1.01.256-1.906.062-2.689-.583-.783-.644-1.442-1.656-1.977-3.035a2.947 2.947 0 01-.183-.684c.006-.235.048-.442.127-.62.051-.14.171-.255.362-.345.186-.123.35-.16.49-.11.483.11.84.286 1.07.527.26.204.445.484.555.84.086.157.139.319.159.484.053.162.077.226.073.193.229.51.488.847.777 1.014.289.167.684.102 1.185-.193.535-.3 1.049-.63 1.543-.991.527-.366.979-.79 1.358-1.271.32-.408.628-.781.923-1.119.328-.341.638-.698.929-1.068l.044-.056c.12-.115.282-.168.484-.159.203.01.325.045.366.107.259.204.403.422.431.653l.089.745-.037.105c.09.19-.03.591-.359 1.202a5.61 5.61 0 01-1.168 1.6c-.419.42-.876.811-1.369 1.173a25.67 25.67 0 01-1.537 1.04 2 2 0 01-.715.338 6.092 6.092 0 00-.931.213zm27.34 17.46a15.699 15.699 0 00-.792-.308l-.743-.314a7.686 7.686 0 01-.594-.331c-.771-.545-1.316-1.168-1.635-1.868a6.303 6.303 0 01-.461-2.16 11.1 11.1 0 01.083-1.823c.068-.546.091-.918.067-1.116a1.182 1.182 0 01.059-.763l.302-.842c.456-1.23.883-2.288 1.28-3.176.426-.924 1.067-2.008 1.925-3.253.178-.19.343-.36.492-.512.179-.19.363-.33.554-.42l1.243.707a.891.891 0 01.308.467c.053.161.048.397-.015.707a6.08 6.08 0 01-.165.724c-.042.207-.12.4-.232.582a6.392 6.392 0 00-1.126 1.949 121.58 121.58 0 01-.809 2.061.946.946 0 01-.258.787c-.212.193-.314.457-.308.792.028.232.023.467-.015.707-.039.24-.075.496-.109.768-.168.558-.206 1.083-.113 1.575a23.5 23.5 0 01.235 1.533c.281.1.522.156.725.165.198-.024.443-.222.734-.592.594-.642.998-1.195 1.211-1.657.246-.466.426-.924.54-1.374.113-.45.285-.975.516-1.573.263-.602.459-1.348.587-2.236.128-.888.196-1.72.203-2.492.004-.806-.059-1.336-.191-1.589-.053-.161-.06-.362-.022-.602.039-.24-.088-.459-.381-.659.116-.148.153-.404.109-.768a7.02 7.02 0 00-.237-1.13c-.114-.39-.247-.658-.399-.808a246.488 246.488 0 01-.549-3.308 47.77 47.77 0 01-.237-2.389 27.545 27.545 0 01.015-1.966c.021-.103.18-.458.476-1.064.326-.644.634-1.151.925-1.522.503-.564 1.219-1.036 2.146-1.416.957-.417 1.787-.635 2.49-.652-.029.037.172.03.602-.022.463-.056.974-.134 1.533-.235.559-.1.968-.184 1.229-.249l.77-.294c.257-.098.678-.367 1.263-.806.245-.198.454-.273.628-.227l1.477.98c.079.931-.069 1.654-.444 2.17-.378.481-1.172.862-2.38 1.142l-.646.077a1.667 1.667 0 00-.689.134.78.78 0 01-.546.065c-.14-.05-.343-.06-.608-.027a4.696 4.696 0 00-1.123.286c-.39.114-.805.147-1.247.1-1.152.474-2.025 1.032-2.619 1.674-.594.643-.814 1.61-.659 2.9.28 1.208.577 2.28.891 3.216.347.932.59 1.977.73 3.136.102.29.214.528.338.715.123.186.099.407-.072.663.257.741.43 1.476.517 2.204.084.695.048 1.236-.107 1.624-.038.24-.036.676.007 1.309.071.595-.018 1.244-.27 1.946a40.196 40.196 0 01-1.831 4.45 11.07 11.07 0 01-2.664 3.393c-.216.16-.485.293-.808.399-.29.102-.659.247-1.106.436zm23.777-2.71c-.37-.291-.755-.698-1.154-1.22a8.779 8.779 0 01-1.039-1.94c-.098-.257-.175-.617-.23-1.08-.023-.468-.063-.799-.12-.994a2.91 2.91 0 01-.407.805c-.17.255-.345.478-.524.667-.116.148-.382.449-.798.902-.419.42-.847.773-1.282 1.06-1.009.827-1.873 1.317-2.593 1.47-.687.15-1.393-.134-2.117-.852-.582-.367-1.02-.8-1.315-1.303-.263-.505-.35-1.233-.263-2.184a19.052 19.052 0 01.09-3.435c.13-1.157.497-2.712 1.101-4.665.532-1.44.942-2.497 1.23-3.17.285-.705.468-1.13.552-1.275.476-.225.892-.258 1.247-.1.351.126.587.417.709.872.238.307.273.874.104 1.7-.136.822-.433 1.848-.889 3.078a70.08 70.08 0 00-.884 3.531c-.229 1.17-.329 2.155-.299 2.957.029.802.285 1.258.768 1.368.318.13.825.018 1.521-.334.73-.356 1.494-1.12 2.293-2.29.833-1.175 1.566-2.892 2.201-5.15a15.84 15.84 0 00.387-1.81 9.317 9.317 0 00.039-1.767c-.114-.389-.139-.738-.076-1.048.093-.347.324-.66.693-.94.112-.181.276-.352.492-.512.212-.193.361-.211.447-.054l.788-.145c.129-.049.221.024.278.218.086.158.22.293.402.405.399.254.576.888.53 1.9-.046 1.013-.342 2.459-.888 4.338-.466 1.432-.772 2.51-.92 3.233a9.083 9.083 0 00-.103 2.077c.072.596.255 1.144.55 1.646.296.502.718.938 1.266 1.308.392.188.622.429.691.723.102.29.16.635.175 1.036-.03.306-.199.578-.506.817a2.13 2.13 0 01-1.013.373 1.877 1.877 0 01-1.134-.216zm7.075 12.293a1.665 1.665 0 00-.923-.141c-.331.04-.637.01-.918-.091-.491-.176-1.06-.443-1.708-.801-.614-.363-1.034-.783-1.259-1.259a.544.544 0 01-.079-.242c-.008-.066-.031-.114-.068-.143a.779.779 0 00-.234-.274.48.48 0 01-.229-.224 2.054 2.054 0 01-.177-.634 3.634 3.634 0 01-.121-.59 2.118 2.118 0 00-.27-.571c.104-.248.192-.494.264-.737.038-.24.109-.483.214-.731l.484-.159c.133-.016.263-.048.391-.097.394-.081.657.156.791.71.167.551.373 1.147.618 1.789.192.481.461.902.807 1.263.378.357.934.509 1.666.454a2.846 2.846 0 002.039-1.051c.565-.605 1.013-1.347 1.344-2.226.33-.88.564-1.73.7-2.552.05-.141.084-.279.101-.415l.051-.409c.055-.108.09-.229.108-.366-.036-.298-.012-.653.073-1.066.121-.384.179-.744.172-1.078a22.34 22.34 0 01.071-1.923 3.327 3.327 0 00-.376-1.868l-.097-.391a67.289 67.289 0 01-.201-.832 10.284 10.284 0 01-.109-.49 5.704 5.704 0 01-.71-.872 3.07 3.07 0 00-.715-.922 3.974 3.974 0 00-.127-.639l-.078-.645a.896.896 0 00.219-.278.483.483 0 01.274-.235 13.505 13.505 0 002.656-1.78 11.383 11.383 0 002.071-2.465 8.031 8.031 0 001.105-2.953c.055-.376.078-.748.067-1.116a3.096 3.096 0 00-.231-1.08c-.288-.167-.576-.183-.862-.047-1.213.515-2.099 1.108-2.656 1.78a10.055 10.055 0 00-1.3 2.17c-.347.747-.84 1.528-1.481 2.344-.259-.204-.503-.275-.731-.214-.198.024-.423-.033-.675-.17a4.95 4.95 0 01-.395-.356l-.493-.747c.258-.366.413-.754.465-1.163.08-.447.218-.832.414-1.158.454-.693.864-1.33 1.231-1.91.366-.582.886-1.148 1.558-1.7a8.651 8.651 0 012.252-1.378 5.519 5.519 0 012.519-.404c.848.066 1.617.46 2.308 1.183a3.903 3.903 0 011.198 2.424c.145.923.093 1.886-.156 2.89a10.72 10.72 0 01-1.166 2.86c-.559.94-1.22 1.724-1.983 2.353a45.55 45.55 0 00-2.268 2.086c.34.866.681 1.748 1.024 2.647.339.865.533 1.782.583 2.75a36.44 36.44 0 01-.041 3.429 15.115 15.115 0 01-.424 3.173 12.432 12.432 0 01-1.105 2.954c-.493.932-1.175 1.82-2.047 2.663a4.595 4.595 0 01-1.679 1.109c-.609.241-1.191.428-1.746.562zm17.21-16.272a9.02 9.02 0 00-.968-.085 3.856 3.856 0 01-1.133-.216c-.322-.163-.501-.393-.537-.691a4.315 4.315 0 01-.034-.701c.039-.24.147-.454.326-.643a.382.382 0 00.031-.155c-.004-.033.009-.069.038-.106a.995.995 0 00-.153-.434c-.082-.125-.102-.29-.06-.497.089-.38.152-.69.191-.93.067-.276.077-.613.029-1.01l-.024-.199a.557.557 0 01.02-.254c.177-.76.303-1.53.377-2.311.074-.781.234-1.54.482-2.274.293-.908.671-2.095 1.132-3.56a61.7 61.7 0 001.117-4.114c.089-.38.21-.63.363-.749a.906.906 0 01.628-.226c.401-.015.826.17 1.275.552.445.349.784.66 1.019.935-.256.668-.563 1.46-.923 2.377-.331.879-.647 1.74-.948 2.582-.273.805-.462 1.465-.568 1.981a13.507 13.507 0 001.638-.197 9.526 9.526 0 011.936-.232 9.502 9.502 0 001.937-.233 78.325 78.325 0 001.856-.475c.106-.517.204-1.1.293-1.748.123-.653.244-1.322.363-2.008.152-.69.36-1.336.623-1.938.263-.602.625-1.082 1.086-1.44.257-.098.455-.122.596-.072.136.017.33.095.582.232.47.28.816.507 1.038.681.252.138.358.326.32.566-.038.24-.207.646-.508 1.22a3.786 3.786 0 00-.341 1.35 2.847 2.847 0 01-.403 1.257c-.058.074-.154.388-.289.941a86.642 86.642 0 00-.462 2.02l-.52 2.38c-.173.792-.325 1.482-.456 2.068-.098.583-.141.924-.129 1.023.019.434.006.889-.037 1.364a5.95 5.95 0 00.012 1.359c.032.264-.027.473-.176.625-.121.115-.297.187-.529.215-.33.04-.704 0-1.122-.117-.417-.118-.732-.23-.947-.34-.144-.083-.28-.234-.407-.454a7.878 7.878 0 01-.221-.578 21.49 21.49 0 01.415-2.417c.206-.797.377-1.606.513-2.428a.877.877 0 00.052-.41.89.89 0 00-.147-.385 14.046 14.046 0 00-3.338.301 123.3 123.3 0 01-3.296.649c-.146.185-.297.606-.453 1.263a25.84 25.84 0 00-.319 1.952c-.09.648-.164 1.144-.224 1.487.061.228.068.563.02 1.005a9.571 9.571 0 01-.242 1.338c-.117.418-.249.719-.394.904zm22.894-1.445c-1.456.175-2.713-.227-3.771-1.208-1.062-1.014-1.676-2.35-1.842-4.009-.077-1.2.001-2.501.235-3.906a21.193 21.193 0 011.21-4.174c.54-1.374 1.165-2.591 1.877-3.65.712-1.06 1.491-1.842 2.337-2.346.311-.206.642-.38.995-.523a4.93 4.93 0 011.173-.292 3.636 3.636 0 011.166.061 4.86 4.86 0 011.034.228c.591.164 1.055.394 1.393.689.337.295.664.776.979 1.443.175.617.278 1.058.31 1.322.032.265-.003.672-.105 1.222-.254 1.239-.643 2.327-1.168 3.263-.526.936-1.282 1.765-2.269 2.488a3.553 3.553 0 01-.896.511 5.6 5.6 0 01-3.008.11 3.542 3.542 0 01-1.577-.968l-.395-.356-.102.415a26.666 26.666 0 00-.495 2.578 9.995 9.995 0 00.002 2.115c.048.397.127.774.237 1.13.143.352.313.65.511.895.156.183.389.306.699.37.339.026.69.017 1.054-.027l.695-.084c.261-.064.501-.16.721-.288.539-.266.96-.535 1.263-.806.336-.276.67-.568 1.002-.876l.187-.123-.05.006c.373-.247.697-.487.971-.722l.461-.357c.132-.016.254-.115.367-.296.249-.164.586-.155 1.011.03.458.18.709.451.752.815-.013.17-.13.452-.351.848a8.033 8.033 0 01-.78 1.051c-.262.334-.49.529-.685.586-.029.037-.137.117-.323.24-.191.09-.315.172-.374.247l.05-.006c-.25.433-.524.667-.822.703l-.397.048c-.105.247-.503.564-1.195.95a6.267 6.267 0 01-2.087.653zm.92-11.19c.596-.072 1.089-.299 1.479-.681.42-.42.769-.865 1.048-1.335.555-.973.832-1.88.831-2.719.029-.876-.142-1.46-.512-1.751a1.246 1.246 0 00-.564-.083c-.137-.017-.412.066-.826.25-.29.102-.674.4-1.152.894a20.978 20.978 0 00-1.415 1.63 14.86 14.86 0 00-.981 1.478l-.52 1.12a2.14 2.14 0 01.727-.238c.261-.065.412-.066.453-.004.036.298.119.573.25.826.161.216.331.38.513.492.214.109.437.15.669.121zm15.785 8.475c-.94.281-1.823.337-2.649.168a4.247 4.247 0 01-2.109-1.207c-.547-.639-.884-1.488-1.012-2.547-.218-.981-.24-2.137-.064-3.467a21.43 21.43 0 01.962-4.145c.502-1.403 1.076-2.63 1.722-3.682a33.148 33.148 0 011.723-2.423c.582-.742 1.124-1.26 1.626-1.555a4.218 4.218 0 011.249-.503 7.257 7.257 0 011.03-.225c.546.069 1.138.25 1.778.542.668.255 1.027.581 1.074.978l.118.137.16.082c.199-.024.39.171.575.585.217.41.376.895.477 1.454.096.525.067.982-.087 1.37a4.348 4.348 0 01-.498 1.722c-.276.503-.546.77-.81.802a1.63 1.63 0 00-.391.098c-.1.012-.139.1-.12.266.02.165-.071.243-.273.234-.17-.013-.364-.09-.582-.232a1.936 1.936 0 01-.531-.641c-.02-.166.013-.455.097-.868.085-.413.156-.942.212-1.587.087-.95-.001-1.544-.264-1.78-.268-.27-.717-.234-1.347.11-.771.564-1.488 1.305-2.15 2.224-.628.915-1.177 2.072-1.647 3.471-.473 1.367-.841 3.056-1.102 5.068-.107.785-.11 1.457-.01 2.016.134.554.253.842.356.863.479.077 1.112.034 1.898-.127.783-.195 1.344-.414 1.684-.656a18.683 18.683 0 001.662-1.258 101.34 101.34 0 001.588-1.45 3.32 3.32 0 00.536-.568c.204-.26.43-.471.679-.635.217-.43.421-.689.611-.779.191-.09.485-.159.882-.207.273.035.533.104.78.209.248.104.413.219.495.343.115.12.079.242-.107.365-.133.016-.209.076-.23.18l.012.098c.082.125-.033.424-.346.898a15.48 15.48 0 01-1.129 1.496 16.75 16.75 0 01-1.384 1.475c-.423.387-.734.593-.933.616-.331.04-.484.16-.461.358.008.066-.22.261-.684.586-.432.32-.946.65-1.543.991-.564.337-1.072.582-1.523.737zm-195.627-.066a1.5 1.5 0 01.361 2.979l-.361-2.979zM8.76 178.77a1.5 1.5 0 01-1.899-.945l-4.296-12.798a1.5 1.5 0 112.844-.954l3.819 11.376 11.376-3.819a1.5 1.5 0 11.954 2.844L8.76 178.769zm100.888-85.047c-30.755 3.724-55.737 24.659-73.119 44.89-8.672 10.092-15.404 19.955-19.969 27.295a196.296 196.296 0 00-5.184 8.818 126.641 126.641 0 00-1.644 3.081 39.52 39.52 0 00-.105.207v.002l-1.344-.668a100.279 100.279 0 01-1.342-.67s0-.002.002-.003a.408.408 0 01.006-.012l.022-.046.088-.173a127.15 127.15 0 011.69-3.166 199.776 199.776 0 015.264-8.955c4.623-7.434 11.444-17.428 20.24-27.666 17.555-20.43 43.165-42.053 75.034-45.913l.361 2.979z" fill="#00E8AD"/></svg>