<svg width="1360" height="481" fill="none" xmlns="http://www.w3.org/2000/svg"><path d="M1 40c0-7.018 0-12.22.337-16.34.336-4.106 1-7.047 2.279-9.557A24 24 0 0114.104 3.615c2.51-1.279 5.45-1.943 9.558-2.279C27.78 1 32.981 1 40 1h1280c7.02 0 12.22 0 16.34.337 4.11.336 7.05 1 9.56 2.279a24.007 24.007 0 0110.48 10.488c1.28 2.51 1.95 5.45 2.28 9.558.34 4.118.34 9.32.34 16.338v401c0 7.017 0 12.22-.34 16.339-.33 4.107-1 7.047-2.28 9.557a24.005 24.005 0 01-10.48 10.488c-2.51 1.279-5.45 1.943-9.56 2.279-4.12.336-9.32.337-16.34.337H40c-7.017 0-12.22-.001-16.338-.337-4.107-.336-7.048-1-9.558-2.279a23.999 23.999 0 01-10.488-10.488c-1.279-2.51-1.943-5.45-2.279-9.557C1.001 453.22 1 448.017 1 441V40z" fill="#201D54"/><path d="M1 40c0-7.018 0-12.22.337-16.34.336-4.106 1-7.047 2.279-9.557A24 24 0 0114.104 3.615c2.51-1.279 5.45-1.943 9.558-2.279C27.78 1 32.981 1 40 1h1280c7.02 0 12.22 0 16.34.337 4.11.336 7.05 1 9.56 2.279a24.007 24.007 0 0110.48 10.488c1.28 2.51 1.95 5.45 2.28 9.558.34 4.118.34 9.32.34 16.338v401c0 7.017 0 12.22-.34 16.339-.33 4.107-1 7.047-2.28 9.557a24.005 24.005 0 01-10.48 10.488c-2.51 1.279-5.45 1.943-9.56 2.279-4.12.336-9.32.337-16.34.337H40c-7.017 0-12.22-.001-16.338-.337-4.107-.336-7.048-1-9.558-2.279a23.999 23.999 0 01-10.488-10.488c-1.279-2.51-1.943-5.45-2.279-9.557C1.001 453.22 1 448.017 1 441V40z" fill="url(#paint0_radial_168_313)" fill-opacity=".4"/><path d="M1 40c0-7.018 0-12.22.337-16.34.336-4.106 1-7.047 2.279-9.557A24 24 0 0114.104 3.615c2.51-1.279 5.45-1.943 9.558-2.279C27.78 1 32.981 1 40 1h1280c7.02 0 12.22 0 16.34.337 4.11.336 7.05 1 9.56 2.279a24.007 24.007 0 0110.48 10.488c1.28 2.51 1.95 5.45 2.28 9.558.34 4.118.34 9.32.34 16.338v401c0 7.017 0 12.22-.34 16.339-.33 4.107-1 7.047-2.28 9.557a24.005 24.005 0 01-10.48 10.488c-2.51 1.279-5.45 1.943-9.56 2.279-4.12.336-9.32.337-16.34.337H40c-7.017 0-12.22-.001-16.338-.337-4.107-.336-7.048-1-9.558-2.279a23.999 23.999 0 01-10.488-10.488c-1.279-2.51-1.943-5.45-2.279-9.557C1.001 453.22 1 448.017 1 441V40z" stroke="url(#paint1_linear_168_313)" stroke-width="2"/><defs><radialGradient id="paint0_radial_168_313" cx="0" cy="0" r="1" gradientUnits="userSpaceOnUse" gradientTransform="matrix(0 240.5 -674.221 0 680 240.499)"><stop stop-color="#2F2B72"/><stop offset="1" stop-color="#302C74" stop-opacity="0"/></radialGradient><linearGradient id="paint1_linear_168_313" x1="680" y1="-.001" x2="680" y2="480.999" gradientUnits="userSpaceOnUse"><stop stop-color="#00E8AD"/><stop offset="1" stop-color="#00E8AD" stop-opacity="0"/></linearGradient></defs></svg>