<svg width="134" height="45" fill="none" xmlns="http://www.w3.org/2000/svg"><path d="M2.353.812v26.212H7.81v-10.85h1.07c2.781 0 3.958 2.216 4.814 5.172.499 1.867.963 3.89 1.747 5.678h5.92c-1.07-2.605-1.89-5.445-2.71-8.284-.999-3.189-2.354-5.522-5.492-6.3L21.539.812h-6.633l-6.704 10.89H7.81V.811H2.353zm29.755 22.401c-2.246 0-3.459-2.411-3.459-5.756 0-2.722.927-5.64 3.46-5.64 2.424 0 3.387 2.879 3.387 5.601 0 3.54-1.32 5.795-3.352 5.795h-.036zm-.071 4.278c4.6 0 9.13-3.228 9.13-10.229 0-5.755-3.531-9.683-8.845-9.683-5.741 0-9.414 3.889-9.414 9.995 0 6.378 3.994 9.917 9.093 9.917h.036zM44.522 8.006v19.018h5.492v-7.506h5.385v7.506h5.527V8.006H55.4v6.923h-5.385V8.006h-5.492zm19.046 0v4.55h4.993v14.468h5.563V12.557h4.992v-4.55H63.568zm27.421 12.096c0 .427.07.66-.036 1.01-.357 1.168-1.462 2.14-2.817 2.14-1.213 0-2.104-.7-2.104-2.217 0-2.178 2.14-2.995 4.957-2.995v2.062zm5.313-4.279c0-4.589-1.819-8.244-7.596-8.244-3.316 0-5.706.894-6.954 1.633l1.141 3.85c1.07-.739 2.925-1.36 4.815-1.36 2.639 0 3.138 1.4 3.138 2.41v.156c-6.17 0-10.235 2.372-10.235 7.273 0 3.033 2.14 5.95 5.635 5.95 2.068 0 3.887-.856 4.92-2.334h.144l.392 1.867h4.957c-.214-1.089-.357-2.761-.357-4.667v-6.534zm4.324-7.817v19.018h5.492v-7.467h.535c1.64 0 2.781 1.089 3.566 3.228.713 2.14 1.105 3.461 1.569 4.24h5.67c-.856-1.829-1.426-4.045-1.997-5.64-1.07-2.84-2.354-4.823-4.422-5.25l6.455-8.129h-6.491l-4.35 7.506h-.535V8.006h-5.492zm17.374 0v4.55h4.993v14.468h5.563V12.557h4.993v-4.55H118zM.924 33.946v10.29H3.08V35.87h3.584v-1.923H.924zm9.032 1.816c.168-.06.463-.106.869-.106 1.064 0 1.652.58 1.652 1.48 0 1.023-.715 1.65-1.835 1.65-.307 0-.503-.016-.686-.077v-2.947zm-2.128 8.474h2.128v-3.71c.197.061.463.092.729.092 1.231 0 2.338-.382 3.051-1.1.574-.58.868-1.404.868-2.458 0-.992-.405-1.847-1.035-2.412-.589-.52-1.54-.779-2.857-.779-1.33 0-2.24.077-2.884.214v10.153zm7.267-10.306l3.206 7.13c.042.199.07.352.042.52-.196.412-.644.9-1.26.9a2.6 2.6 0 01-.756-.091l-.126 1.893c.238.122.546.214 1.036.214 1.134 0 1.918-.55 2.562-1.405.672-.962 1.274-2.504 1.848-4.107l1.764-5.054h-2.296l-1.036 3.665c-.21.855-.35 1.572-.476 1.984h-.056c-.196-.626-.406-1.236-.644-1.954l-1.358-3.695h-2.45zm9.181.016v10.29h2.156V35.87h3.304v8.367h2.17v-10.29h-7.63zm9.502 0v10.29h2.156V35.87h3.304v8.367h2.17v-10.29h-7.63zm14.388 7.664l.7 2.626h2.366l-2.94-10.29h-2.814l-2.898 10.29h2.24l.658-2.626h2.688zm-2.38-1.725l.574-2.168c.14-.611.252-1.405.42-2.016h.014l.462 1.985.602 2.199h-2.072zm10.372-5.939v10.29H58.3v-4.26h.42c1.092 0 1.554.87 1.89 2.031.196.733.378 1.527.686 2.23h2.324c-.42-1.024-.742-2.138-1.064-3.253-.392-1.252-.924-2.168-2.156-2.473l3.29-4.566h-2.604l-2.632 4.276H58.3v-4.275h-2.142zm12.662 8.58c-1.429 0-2.268-1.496-2.268-3.45 0-1.878.797-3.405 2.253-3.405s2.254 1.557 2.254 3.39c0 1.984-.825 3.465-2.225 3.465h-.014zm-.112 1.893c2.772 0 4.62-2.091 4.62-5.435 0-2.84-1.54-5.222-4.453-5.222-2.8 0-4.606 2.336-4.606 5.36 0 2.961 1.61 5.297 4.424 5.297h.014zm14.22-.183H85l-.532-10.29h-2.814l-.966 3.358c-.336 1.16-.644 2.52-.896 3.71h-.042c-.252-1.22-.518-2.519-.812-3.679l-.896-3.39H75.13l-.574 10.291h2.016l.168-3.893c.056-1.283.084-2.84.14-4.245h.042c.238 1.344.504 2.855.826 4l1.022 4h1.666l1.134-4.03c.364-1.176.742-2.657 1.05-3.97h.056c-.028 1.527.028 2.962.084 4.214l.168 3.924zm3.719-10.29v10.29h2.156V35.87h3.304v8.367h2.17v-10.29h-7.63zm14.388 7.664l.7 2.626h2.366l-2.94-10.29h-2.814l-2.898 10.29h2.24l.658-2.626h2.688zm-2.38-1.725l.574-2.168c.14-.611.252-1.405.42-2.016h.014l.462 1.985.602 2.199h-2.072zm6.723-5.939v10.29h2.142v-4.29h3.472v4.29h2.156v-10.29h-2.156v3.97h-3.472v-3.97h-2.142zm9.638 0v10.29h2.436l1.918-3.649a38.929 38.929 0 001.61-3.68l.042.016c-.14 1.328-.182 2.748-.182 4.336v2.977h2.002v-10.29h-2.254l-1.988 4c-.546 1.099-1.12 2.504-1.666 3.695l-.056-.016c.112-1.358.14-3.023.14-4.672v-3.008h-2.002zm11.5-1.588c.112 1.267.812 1.893 2.044 1.893 1.246 0 2.03-.565 2.142-1.893h-1.47c-.056.61-.224.946-.616.946-.476 0-.602-.366-.644-.946h-1.456zm-1.82 2.382v9.496h2.436l1.918-3.374a31.734 31.734 0 001.61-3.39l.042.016c-.14 1.206-.182 2.519-.182 4v2.748h2.002V34.74h-2.254l-1.988 3.68c-.546 1.022-1.12 2.32-1.666 3.42l-.056-.016c.112-1.252.14-2.794.14-4.306V34.74h-2.002z" fill="#fff"/></svg>