<svg width="780" height="360" fill="none" xmlns="http://www.w3.org/2000/svg"><path d="M0 40c0-14.001 0-21.002 2.725-26.35A25 25 0 0113.65 2.725C18.998 0 26 0 40 0h481.667c12.122 0 18.182 0 24.065.193a358.998 358.998 0 01214.319 79.942c4.572 3.707 9.152 7.676 18.313 15.614.456.396.684.593.798.716 1.667 1.807.572 4.743-1.871 5.016-.166.019-.468.019-1.072.019h-56.917c-31.156 0-56.413 25.257-56.413 56.413 0 111.61-90.478 202.087-202.087 202.087H40c-14.001 0-21.002 0-26.35-2.725A25 25 0 012.725 346.35C0 341.002 0 334.001 0 320V40z" fill="url(#paint0_linear_168_464)"/><path d="M0 40c0-14.001 0-21.002 2.725-26.35A25 25 0 0113.65 2.725C18.998 0 26 0 40 0h481.667c12.122 0 18.182 0 24.065.193a358.998 358.998 0 01214.319 79.942c4.572 3.707 9.152 7.676 18.313 15.614.456.396.684.593.798.716 1.667 1.807.572 4.743-1.871 5.016-.166.019-.468.019-1.072.019h-56.917c-31.156 0-56.413 25.257-56.413 56.413 0 111.61-90.478 202.087-202.087 202.087H40c-14.001 0-21.002 0-26.35-2.725A25 25 0 012.725 346.35C0 341.002 0 334.001 0 320V40z" fill="url(#paint1_radial_168_464)" fill-opacity=".4"/><defs><radialGradient id="paint1_radial_168_464" cx="0" cy="0" r="1" gradientUnits="userSpaceOnUse" gradientTransform="matrix(0 180 -389.165 0 392.5 180)"><stop stop-color="#2F2B72"/><stop offset="1" stop-color="#302C74" stop-opacity="0"/></radialGradient><linearGradient id="paint0_linear_168_464" x1="225" y1="-41.5" x2="539.5" y2="360" gradientUnits="userSpaceOnUse"><stop stop-color="#5F5AA6"/><stop offset="1" stop-color="#1E1A5F"/></linearGradient></defs></svg>