<svg width="340" height="233" fill="none" xmlns="http://www.w3.org/2000/svg"><path d="M0 19.2C0 12.48 0 9.12 1.308 6.552a12 12 0 015.244-5.244C9.12 0 12.48 0 19.2 0h301.6c6.721 0 10.081 0 12.648 1.308a11.997 11.997 0 015.244 5.244C340 9.12 340 12.48 340 19.2v145.6c0 6.721 0 10.081-1.308 12.648a11.994 11.994 0 01-5.244 5.244C330.881 184 327.521 184 320.8 184H129.85c-21.946 0-35.841 23.55-25.23 42.76 1.678 3.039-1.529 6.443-4.662 4.947l-37.11-17.712c-22.788-10.876-34.182-16.314-42.519-24.609a69.004 69.004 0 01-16.433-26.052C0 152.237 0 139.612 0 114.361V19.2z" fill="url(#paint0_linear_168_783)"/><path d="M0 19.2C0 12.48 0 9.12 1.308 6.552a12 12 0 015.244-5.244C9.12 0 12.48 0 19.2 0h301.6c6.721 0 10.081 0 12.648 1.308a11.997 11.997 0 015.244 5.244C340 9.12 340 12.48 340 19.2v145.6c0 6.721 0 10.081-1.308 12.648a11.994 11.994 0 01-5.244 5.244C330.881 184 327.521 184 320.8 184H129.85c-21.946 0-35.841 23.55-25.23 42.76 1.678 3.039-1.529 6.443-4.662 4.947l-37.11-17.712c-22.788-10.876-34.182-16.314-42.519-24.609a69.004 69.004 0 01-16.433-26.052C0 152.237 0 139.612 0 114.361V19.2z" fill="url(#paint1_radial_168_783)" fill-opacity=".4"/><defs><radialGradient id="paint1_radial_168_783" cx="0" cy="0" r="1" gradientUnits="userSpaceOnUse" gradientTransform="matrix(0 92.0001 -195.457 0 197.132 92)"><stop stop-color="#2F2B72"/><stop offset="1" stop-color="#302C74" stop-opacity="0"/></radialGradient><linearGradient id="paint0_linear_168_783" x1="189.162" y1="23.5" x2="220.675" y2="200.313" gradientUnits="userSpaceOnUse"><stop stop-color="#504C92"/><stop offset="1" stop-color="#1F1B62"/></linearGradient></defs></svg>