<svg width="1170" height="442" fill="none" xmlns="http://www.w3.org/2000/svg"><path d="M40 1h1090c7.02 0 12.22 0 16.34.337 4.11.336 7.05 1 9.56 2.279a24.007 24.007 0 0110.48 10.488c1.28 2.51 1.95 5.45 2.28 9.558.34 4.118.34 9.32.34 16.338v362c0 7.017 0 12.22-.34 16.339-.33 4.106-1 7.047-2.28 9.557a24.005 24.005 0 01-10.48 10.488c-2.51 1.279-5.45 1.943-9.56 2.279-4.12.336-9.32.337-16.34.337H40c-7.017 0-12.22-.001-16.338-.337-4.107-.336-7.048-1-9.558-2.279a23.999 23.999 0 01-10.488-10.488c-1.279-2.51-1.943-5.451-2.279-9.557C1.001 414.22 1 409.017 1 402V40c0-7.017 0-12.22.337-16.338.336-4.107 1-7.048 2.279-9.558A24 24 0 0114.104 3.616c2.51-1.279 5.45-1.943 9.558-2.279C27.78 1.001 32.981 1 40 1z" fill="#201D54"/><path d="M40 1h1090c7.02 0 12.22 0 16.34.337 4.11.336 7.05 1 9.56 2.279a24.007 24.007 0 0110.48 10.488c1.28 2.51 1.95 5.45 2.28 9.558.34 4.118.34 9.32.34 16.338v362c0 7.017 0 12.22-.34 16.339-.33 4.106-1 7.047-2.28 9.557a24.005 24.005 0 01-10.48 10.488c-2.51 1.279-5.45 1.943-9.56 2.279-4.12.336-9.32.337-16.34.337H40c-7.017 0-12.22-.001-16.338-.337-4.107-.336-7.048-1-9.558-2.279a23.999 23.999 0 01-10.488-10.488c-1.279-2.51-1.943-5.451-2.279-9.557C1.001 414.22 1 409.017 1 402V40c0-7.017 0-12.22.337-16.338.336-4.107 1-7.048 2.279-9.558A24 24 0 0114.104 3.616c2.51-1.279 5.45-1.943 9.558-2.279C27.78 1.001 32.981 1 40 1z" fill="url(#paint0_linear_168_234)" fill-opacity=".4"/><path d="M40 1h1090c7.02 0 12.22 0 16.34.337 4.11.336 7.05 1 9.56 2.279a24.007 24.007 0 0110.48 10.488c1.28 2.51 1.95 5.45 2.28 9.558.34 4.118.34 9.32.34 16.338v362c0 7.017 0 12.22-.34 16.339-.33 4.106-1 7.047-2.28 9.557a24.005 24.005 0 01-10.48 10.488c-2.51 1.279-5.45 1.943-9.56 2.279-4.12.336-9.32.337-16.34.337H40c-7.017 0-12.22-.001-16.338-.337-4.107-.336-7.048-1-9.558-2.279a23.999 23.999 0 01-10.488-10.488c-1.279-2.51-1.943-5.451-2.279-9.557C1.001 414.22 1 409.017 1 402V40c0-7.017 0-12.22.337-16.338.336-4.107 1-7.048 2.279-9.558A24 24 0 0114.104 3.616c2.51-1.279 5.45-1.943 9.558-2.279C27.78 1.001 32.981 1 40 1z" stroke="url(#paint1_linear_168_234)" stroke-width="2"/><defs><linearGradient id="paint0_linear_168_234" x1="841.5" y1="0" x2="565.775" y2="429.663" gradientUnits="userSpaceOnUse"><stop offset=".044" stop-color="#302C74" stop-opacity="0"/><stop offset=".641" stop-color="#45409C"/><stop offset="1" stop-color="#302C74" stop-opacity="0"/></linearGradient><linearGradient id="paint1_linear_168_234" x1="585" y1="0" x2="585" y2="442" gradientUnits="userSpaceOnUse"><stop stop-color="#00E8AD"/><stop offset="1" stop-color="#00E8AD" stop-opacity="0"/></linearGradient></defs></svg>