<svg width="340" height="297" fill="none" xmlns="http://www.w3.org/2000/svg"><g filter="url(#filter0_i_168_682)"><path d="M0 19.2C0 12.48 0 9.12 1.308 6.552a12 12 0 015.244-5.244C9.12 0 12.48 0 19.2 0h301.6c6.721 0 10.081 0 12.648 1.308a11.997 11.997 0 015.244 5.244C340 9.12 340 12.48 340 19.2v258.6c0 6.721 0 10.081-1.308 12.648a11.994 11.994 0 01-5.244 5.244C330.881 297 327.521 297 320.8 297H19.2c-6.72 0-10.08 0-12.648-1.308a11.997 11.997 0 01-5.244-5.244C0 287.881 0 284.521 0 277.8V19.2z" fill="#201D54"/><path d="M0 19.2C0 12.48 0 9.12 1.308 6.552a12 12 0 015.244-5.244C9.12 0 12.48 0 19.2 0h301.6c6.721 0 10.081 0 12.648 1.308a11.997 11.997 0 015.244 5.244C340 9.12 340 12.48 340 19.2v258.6c0 6.721 0 10.081-1.308 12.648a11.994 11.994 0 01-5.244 5.244C330.881 297 327.521 297 320.8 297H19.2c-6.72 0-10.08 0-12.648-1.308a11.997 11.997 0 01-5.244-5.244C0 287.881 0 284.521 0 277.8V19.2z" fill="url(#paint0_linear_168_682)" fill-opacity=".4"/><path d="M0 19.2C0 12.48 0 9.12 1.308 6.552a12 12 0 015.244-5.244C9.12 0 12.48 0 19.2 0h301.6c6.721 0 10.081 0 12.648 1.308a11.997 11.997 0 015.244 5.244C340 9.12 340 12.48 340 19.2v258.6c0 6.721 0 10.081-1.308 12.648a11.994 11.994 0 01-5.244 5.244C330.881 297 327.521 297 320.8 297H19.2c-6.72 0-10.08 0-12.648-1.308a11.997 11.997 0 01-5.244-5.244C0 287.881 0 284.521 0 277.8V19.2z" fill="url(#paint1_linear_168_682)"/></g><path d="M.5 19.2c0-3.369 0-5.865.162-7.84.16-1.971.48-3.38 1.091-4.58A11.5 11.5 0 016.78 1.752c1.2-.611 2.61-.929 4.58-1.09C13.335.5 15.831.5 19.2.5h301.6c3.369 0 5.865 0 7.841.162 1.97.16 3.379.48 4.58 1.091a11.502 11.502 0 015.026 5.026c.612 1.201.93 2.61 1.091 4.58.162 1.976.162 4.472.162 7.841v258.6c0 3.369 0 5.865-.162 7.841-.161 1.97-.479 3.379-1.091 4.58a11.505 11.505 0 01-5.026 5.026c-1.201.612-2.61.93-4.58 1.091-1.976.162-4.472.162-7.841.162H19.2c-3.369 0-5.865 0-7.84-.162-1.971-.161-3.38-.479-4.58-1.091a11.502 11.502 0 01-5.027-5.026c-.612-1.201-.93-2.61-1.091-4.58C.5 283.665.5 281.169.5 277.8V19.2z" stroke="url(#paint2_linear_168_682)"/><defs><linearGradient id="paint0_linear_168_682" x1="369.876" y1="-.104" x2="256.975" y2="208.353" gradientUnits="userSpaceOnUse"><stop offset=".144" stop-color="#302C74" stop-opacity="0"/><stop offset=".562" stop-color="#534F8E"/><stop offset=".917" stop-color="#9D9AD3" stop-opacity="0"/></linearGradient><linearGradient id="paint1_linear_168_682" x1="572.277" y1="93.731" x2="3.589" y2="21.263" gradientUnits="userSpaceOnUse"><stop stop-color="#3F3A94"/><stop offset=".419" stop-color="#3F3A94" stop-opacity="0"/></linearGradient><linearGradient id="paint2_linear_168_682" x1="286.139" y1="0" x2="286.139" y2="224.148" gradientUnits="userSpaceOnUse"><stop stop-color="#00E8AD"/><stop offset="1" stop-color="#00E8AD" stop-opacity="0"/></linearGradient><filter id="filter0_i_168_682" x="0" y="0" width="340" height="303.5" filterUnits="userSpaceOnUse" color-interpolation-filters="sRGB"><feFlood flood-opacity="0" result="BackgroundImageFix"/><feBlend in="SourceGraphic" in2="BackgroundImageFix" result="shape"/><feColorMatrix in="SourceAlpha" values="0 0 0 0 0 0 0 0 0 0 0 0 0 0 0 0 0 0 127 0" result="hardAlpha"/><feOffset dy="6.5"/><feGaussianBlur stdDeviation="5"/><feComposite in2="hardAlpha" operator="arithmetic" k2="-1" k3="1"/><feColorMatrix values="0 0 0 0 1 0 0 0 0 1 0 0 0 0 1 0 0 0 0.25 0"/><feBlend in2="shape" result="effect1_innerShadow_168_682"/></filter></defs></svg>