<svg width="1360" height="468" fill="none" xmlns="http://www.w3.org/2000/svg"><g filter="url(#filter0_i_168_365)"><path d="M0 40.216c0-14.001 0-21.002 2.725-26.35A25 25 0 0113.65 2.942C18.998.216 26 .216 40 .216h1086.5c128.96 0 233.5 104.542 233.5 233.5 0 128.959-104.54 233.5-233.5 233.5H40c-14.001 0-21.002 0-26.35-2.725a24.995 24.995 0 01-10.925-10.925C0 448.218 0 441.218 0 427.216v-387z" fill="#201D54"/><path d="M0 40.216c0-14.001 0-21.002 2.725-26.35A25 25 0 0113.65 2.942C18.998.216 26 .216 40 .216h1086.5c128.96 0 233.5 104.542 233.5 233.5 0 128.959-104.54 233.5-233.5 233.5H40c-14.001 0-21.002 0-26.35-2.725a24.995 24.995 0 01-10.925-10.925C0 448.218 0 441.218 0 427.216v-387z" fill="url(#paint0_linear_168_365)" fill-opacity=".4"/><path d="M0 40.216c0-14.001 0-21.002 2.725-26.35A25 25 0 0113.65 2.942C18.998.216 26 .216 40 .216h1086.5c128.96 0 233.5 104.542 233.5 233.5 0 128.959-104.54 233.5-233.5 233.5H40c-14.001 0-21.002 0-26.35-2.725a24.995 24.995 0 01-10.925-10.925C0 448.218 0 441.218 0 427.216v-387z" fill="url(#paint1_linear_168_365)"/></g><path d="M1 40.216c0-7.017 0-12.22.337-16.338.336-4.107 1-7.048 2.279-9.558A24 24 0 0114.104 3.832c2.51-1.278 5.45-1.943 9.558-2.278 4.118-.337 9.32-.338 16.338-.338h1086.5c128.41 0 232.5 104.094 232.5 232.5 0 128.407-104.09 232.5-232.5 232.5H40c-7.017 0-12.22 0-16.338-.337-4.107-.336-7.048-1-9.558-2.279a23.999 23.999 0 01-10.488-10.488c-1.279-2.509-1.943-5.45-2.279-9.557-.336-4.119-.337-9.322-.337-16.339v-387z" stroke="url(#paint2_linear_168_365)" stroke-width="2"/><defs><linearGradient id="paint0_linear_168_365" x1="879" y1="0" x2="661.358" y2="458.364" gradientUnits="userSpaceOnUse"><stop offset=".144" stop-color="#302C74" stop-opacity="0"/><stop offset=".562" stop-color="#534F8E"/><stop offset=".917" stop-color="#9D9AD3" stop-opacity="0"/></linearGradient><linearGradient id="paint1_linear_168_365" x1="1360" y1="195.5" x2="15" y2="0" gradientUnits="userSpaceOnUse"><stop stop-color="#3F3A94"/><stop offset=".419" stop-color="#3F3A94" stop-opacity="0"/></linearGradient><linearGradient id="paint2_linear_168_365" x1="680" y1=".216" x2="680" y2="467.216" gradientUnits="userSpaceOnUse"><stop stop-color="#00E8AD"/><stop offset="1" stop-color="#00E8AD" stop-opacity="0"/></linearGradient><filter id="filter0_i_168_365" x="0" y=".216" width="1360" height="480" filterUnits="userSpaceOnUse" color-interpolation-filters="sRGB"><feFlood flood-opacity="0" result="BackgroundImageFix"/><feBlend in="SourceGraphic" in2="BackgroundImageFix" result="shape"/><feColorMatrix in="SourceAlpha" values="0 0 0 0 0 0 0 0 0 0 0 0 0 0 0 0 0 0 127 0" result="hardAlpha"/><feOffset dy="13"/><feGaussianBlur stdDeviation="10"/><feComposite in2="hardAlpha" operator="arithmetic" k2="-1" k3="1"/><feColorMatrix values="0 0 0 0 1 0 0 0 0 1 0 0 0 0 1 0 0 0 0.25 0"/><feBlend in2="shape" result="effect1_innerShadow_168_365"/></filter></defs></svg>