<?xml version="1.0" encoding="utf-8"?><svg xmlns="http://www.w3.org/2000/svg" xmlns:xlink="http://www.w3.org/1999/xlink"><symbol viewBox="0 0 36 36" id="telegram" xmlns="http://www.w3.org/2000/svg"><g clip-path="url(#aclip0_168_504)"><path d="M18 0C8.059 0 0 8.059 0 18s8.059 18 18 18 18-8.059 18-18S27.941 0 18 0z"/><path d="M26.759 10.354l-3.216 16.21s-.45 1.124-1.686.584l-7.419-5.688-2.697-1.304-4.542-1.528s-.697-.248-.764-.787c-.068-.54.787-.832.787-.832l18.052-7.082s1.484-.652 1.484.427"/><path d="M13.868 26.382s-.216-.02-.486-.875c-.27-.854-1.641-5.35-1.641-5.35l10.903-6.925s.63-.382.607 0c0 0 .113.067-.225.382-.337.315-8.565 7.711-8.565 7.711"/><path d="M17.283 23.641l-2.935 2.676s-.23.174-.48.065l.562-4.97"/></g><defs><clipPath id="aclip0_168_504"><path d="M0 0h36v36H0z"/></clipPath></defs></symbol><symbol viewBox="0 0 36 36" id="whatsapp" xmlns="http://www.w3.org/2000/svg"><g clip-path="url(#bclip0_168_500)"><path d="M8.126 33.188l.677.337C11.625 35.213 14.784 36 17.944 36 27.874 36 36 27.9 36 18c0-4.725-1.919-9.337-5.304-12.713C27.311 1.912 22.796 0 17.944 0 8.014 0-.112 8.1.001 18.113c0 3.375 1.016 6.637 2.708 9.45l.452.675-1.806 6.637 6.771-1.688z"/><path d="M26.78 21.816l-1.08-.485s-1.569-.679-2.55-1.163c-.098 0-.196-.097-.294-.097-.294 0-.49.097-.687.194 0 0-.098.096-1.471 1.648a.54.54 0 01-.49.29h-.099c-.098 0-.294-.096-.392-.193l-.49-.194c-1.08-.485-2.06-1.067-2.845-1.842-.196-.194-.49-.388-.687-.582-.687-.679-1.373-1.454-1.864-2.327l-.098-.194c-.098-.097-.098-.194-.196-.388 0-.194 0-.388.098-.485 0 0 .393-.484.687-.775.196-.194.294-.485.49-.679.196-.29.295-.679.196-.97-.098-.484-1.275-3.102-1.569-3.684-.196-.29-.392-.388-.687-.485h-1.079c-.196 0-.392.097-.588.097l-.099.097c-.196.097-.392.291-.588.388-.196.194-.294.388-.49.582-.687.872-1.08 1.939-1.08 3.005 0 .776.197 1.552.491 2.23l.098.291a16.157 16.157 0 003.63 4.945l.392.388c.294.29.588.485.785.776 2.06 1.745 4.414 3.005 7.063 3.684.294.097.686.097.98.194h.981c.49 0 1.08-.194 1.472-.388.294-.194.49-.194.686-.388l.197-.194c.196-.193.392-.29.588-.484.196-.194.393-.388.49-.582.197-.388.295-.873.393-1.357v-.68s-.098-.096-.294-.193z"/></g><defs><clipPath id="bclip0_168_500"><path d="M0 0h36v36H0z"/></clipPath></defs></symbol></svg>