<svg width="529" height="142" viewBox="0 0 529 142" fill="none" xmlns="http://www.w3.org/2000/svg">
<path d="M107.166 97.3946C107.166 97.3946 107.112 97.3684 107.004 97.3159C106.9 97.2965 106.764 97.2816 106.594 97.2712C106.458 97.2563 106.29 97.2624 106.092 97.2896C105.546 97.23 105.125 96.9848 104.83 96.5542C104.54 96.1566 104.425 95.6845 104.485 95.138C104.599 94.9878 104.659 94.6935 104.667 94.2551C104.674 93.8168 104.659 93.4655 104.623 93.2013C104.719 92.919 104.777 92.726 104.796 92.6224C104.811 92.4858 104.848 92.1442 104.908 91.5977C104.93 91.0227 104.989 90.224 105.084 89.2016C105.208 88.1416 105.339 87.0133 105.478 85.8167C105.649 84.6156 105.811 83.4662 105.964 82.3687C106.116 81.2712 106.258 80.3433 106.389 79.585C106.554 78.8223 106.679 78.3846 106.765 78.2719C106.765 78.2719 106.758 78.2224 106.744 78.1233C106.726 77.9912 106.708 77.8591 106.69 77.727C106.69 77.727 106.686 77.5761 106.678 77.2744C106.699 76.9351 106.814 76.5492 107.024 76.1167C107.106 75.7353 107.168 75.3231 107.208 74.8802C107.248 74.4373 107.259 74.1498 107.241 74.0177C107.35 73.8345 107.478 73.4133 107.623 72.7541C107.796 72.0574 107.956 71.3795 108.101 70.7203C108.227 70.1648 108.364 69.5739 108.514 68.9478C108.697 68.3171 108.841 67.7758 108.947 67.3238C109.087 66.8673 109.156 66.6391 109.156 66.6391C109.138 66.507 109.129 66.441 109.129 66.441C109.125 66.4079 109.122 66.3914 109.122 66.3914C109.236 66.2412 109.459 65.5377 109.792 64.2809C110.153 62.9865 110.647 61.3205 111.276 59.2828C111.372 59.0005 111.497 58.6807 111.65 58.3233C111.802 57.9658 111.87 57.7211 111.852 57.589C111.981 57.3021 112.196 57.1549 112.498 57.1471C112.795 57.1064 113.106 57.1647 113.43 57.3221C113.787 57.4749 114.074 57.7217 114.289 58.0623L114.893 58.7869L113.598 62.5981C113.197 63.5953 112.866 64.4985 112.607 65.3079C112.381 66.1127 112.277 66.5812 112.295 66.7133C112.295 66.7133 112.233 66.9911 112.107 67.5466C111.981 68.1022 111.836 68.7614 111.672 69.5241C111.507 70.2869 111.366 70.9791 111.25 71.6007C111.027 72.6743 110.796 73.5639 110.556 74.2697C110.349 74.9709 110.255 75.3876 110.273 75.5197C110.264 75.4537 110.621 75.3543 111.343 75.2216C112.065 75.089 112.987 74.9457 114.11 74.7917C115.233 74.6377 116.372 74.4815 117.528 74.323C118.712 74.1269 119.75 73.9678 120.642 73.8455C121.562 73.6856 122.183 73.5501 122.504 73.4387L125.046 72.8378L126.03 67.5046C126.168 66.5437 126.36 65.3733 126.609 63.9935C126.857 62.6136 127.083 61.4387 127.286 60.4688C127.606 58.8772 127.89 57.8794 128.137 57.4753C128.385 57.0713 128.706 56.8421 129.103 56.7878C129.202 56.7742 129.338 56.7891 129.513 56.8325C129.715 56.8384 129.908 56.896 130.092 57.0055C130.303 57.0774 130.456 57.2079 130.549 57.397C130.995 57.7059 131.233 58.0938 131.264 58.5606C131.327 59.023 131.147 59.6702 130.722 60.5022C130.316 61.4663 130.004 62.5017 129.786 63.6082C129.596 64.6773 129.414 65.5602 129.241 66.2569C129.295 66.6532 129.291 66.9902 129.228 67.268C129.16 67.5127 129.07 67.7102 128.956 67.8604C128.899 67.9355 128.801 68.2013 128.661 68.6578C128.522 69.1143 128.399 69.5685 128.293 70.0205C128.187 70.4725 128.141 70.748 128.154 70.847C128.186 71.0782 128.175 71.3657 128.121 71.7095C128.067 72.0534 127.983 72.3004 127.869 72.4506C127.83 72.6578 127.75 73.1736 127.627 73.9978C127.505 74.8221 127.37 75.7995 127.222 76.9301C127.07 78.0276 126.899 79.1109 126.709 80.18C126.514 81.216 126.33 82.0823 126.157 82.7791C126.188 83.0102 126.147 83.3188 126.031 83.7047C125.911 84.0576 125.87 84.3661 125.906 84.6303C125.828 85.0447 125.731 85.5627 125.614 86.1843C125.498 86.8059 125.451 87.1993 125.473 87.3644C125.412 88.1466 125.337 88.9476 125.248 89.7673C125.191 90.5826 125.135 91.2799 125.08 91.8595C125.063 92.4675 125.061 92.821 125.074 92.9201C124.96 93.0703 124.765 93.114 124.487 93.0512C124.209 92.9883 123.879 92.9158 123.498 92.8335C122.821 92.5563 122.387 92.2121 122.196 91.8009C122.042 91.4181 122.095 90.8221 122.354 90.0127C122.483 89.7259 122.593 89.0548 122.684 87.9993C122.803 86.9063 122.925 85.8298 123.048 84.7698C123.179 84.2473 123.303 83.5574 123.421 82.7001C123.534 81.8097 123.647 80.9194 123.761 80.0291C123.87 79.1057 123.966 78.3355 124.05 77.7184C124.129 77.0683 124.197 76.7057 124.254 76.6306C124.236 76.4985 124.22 76.3829 124.206 76.2838C124.193 76.1848 124.186 76.1352 124.186 76.1352C124.111 76.0782 123.691 76.0853 122.927 76.1564C122.158 76.1946 121.215 76.3071 120.097 76.4941C118.974 76.6481 117.806 76.8419 116.593 77.0755C115.409 77.2715 114.347 77.5013 113.407 77.7647C113.044 77.8145 112.631 77.8711 112.169 77.9345C111.706 77.998 111.343 78.0478 111.079 78.084C110.716 78.1338 110.402 78.1768 110.138 78.2131C109.907 78.2448 109.791 78.2606 109.791 78.2606C109.772 78.3642 109.704 78.7268 109.587 79.3484C109.47 79.97 109.339 80.7283 109.192 81.6231C109.041 82.485 108.878 83.3821 108.703 84.3145C108.557 85.2094 108.435 86.0337 108.336 86.7874C108.266 87.5035 108.218 88.0147 108.193 88.321C108.142 88.9336 108.063 89.7015 107.954 90.6249C107.878 91.5437 107.771 92.4836 107.634 93.4445C107.534 94.4339 107.433 95.2889 107.33 96.0096C107.26 96.7258 107.205 97.1874 107.166 97.3946ZM141.558 86.7232C140.946 87.4127 140.184 87.8704 139.273 88.0963C138.395 88.3177 137.502 88.3056 136.594 88.06C135.681 87.7815 134.889 87.2844 134.219 86.5688C133.558 85.9193 133.081 85.1435 132.79 84.2415C132.493 83.3064 132.307 82.0703 132.231 80.533C132.153 79.2315 132.389 77.8869 132.939 76.4994C133.484 75.0788 134.199 73.7864 135.082 72.6222C135.999 71.4536 136.941 70.6009 137.911 70.0642C138.361 69.666 138.753 69.4608 139.088 69.4486C139.451 69.3987 140.001 69.357 140.736 69.3235C141.51 69.3184 142.091 69.39 142.482 69.5383C142.905 69.6821 143.255 69.9033 143.532 70.2018C144.095 70.6293 144.493 71.0794 144.726 71.5521C144.955 71.9918 145.101 72.4428 145.164 72.9051C145.132 73.6498 144.759 74.6094 144.045 75.7839C143.36 76.9209 142.385 77.9124 141.122 78.7586C140.427 79.0894 139.648 79.2971 138.785 79.3819C137.922 79.4666 137.182 79.3493 136.567 79.03C135.903 78.8518 135.497 78.958 135.348 79.3484C135.196 79.7058 135.127 80.5564 135.143 81.9C135.183 83.173 135.409 84.0841 135.821 84.6333C136.228 85.1494 136.719 85.4185 137.294 85.4406C137.973 85.4821 138.498 85.511 138.871 85.5272C139.271 85.5059 139.73 85.2916 140.246 84.8844C140.729 84.4817 141.034 84.2548 141.162 84.2036C141.285 84.1195 141.375 84.0398 141.432 83.9647C141.518 83.8521 141.703 83.608 141.988 83.2324C142.187 82.9696 142.346 82.7795 142.465 82.6623C142.579 82.5121 142.718 82.4257 142.883 82.4031C143.048 82.3804 143.208 82.4426 143.363 82.5896C143.513 82.7036 143.659 82.7845 143.8 82.8325C144.13 82.7872 144.224 82.9763 144.08 83.3997C143.969 83.8187 143.688 84.3451 143.237 84.979C142.781 85.5798 142.221 86.1612 141.558 86.7232ZM140.068 76.2283C140.409 76.0133 140.757 75.7301 141.113 75.3785C141.464 74.9939 141.746 74.6019 141.961 74.2024C142.204 73.7653 142.307 73.4147 142.271 73.1505C142.207 72.6882 141.94 72.3378 141.47 72.0995C140.996 71.8281 140.345 71.8669 139.518 72.2158C139.168 72.3647 138.79 72.669 138.382 73.1287C137.969 73.5553 137.58 74.0293 137.214 74.5505C136.881 75.0672 136.607 75.5253 136.393 75.9248C136.212 76.3197 136.159 76.5457 136.234 76.6027C136.355 76.7542 136.654 76.8479 137.13 76.8835C137.602 76.8862 138.116 76.8325 138.673 76.7225C139.262 76.6079 139.728 76.4432 140.068 76.2283ZM150.439 84.7988C150.044 84.6174 149.673 84.3655 149.326 84.043C148.974 83.6875 148.758 83.2125 148.676 82.618C148.631 82.2878 148.62 81.7173 148.643 80.9066C148.667 80.0959 148.726 79.1794 148.821 78.157C148.917 77.1345 149.021 76.1781 149.134 75.2878C149.383 74.6481 149.582 74.0152 149.732 73.389C149.882 72.7629 149.947 72.3838 149.929 72.2517C149.941 71.8463 149.96 71.3727 149.987 70.8307C150.046 70.2842 150.113 69.7872 150.186 69.3398C150.259 68.8923 150.324 68.6311 150.381 68.556C150.524 68.3682 150.708 68.242 150.935 68.1772C151.157 68.0795 151.393 68.0808 151.642 68.1812C151.92 68.2441 152.147 68.4315 152.325 68.7437C152.742 69.0901 152.99 69.5441 153.067 70.1055C153.139 70.6339 153.066 71.4514 152.848 72.558C152.641 73.2592 152.45 74.076 152.276 75.0085C152.101 75.9409 151.95 76.8027 151.823 77.594C151.724 78.3477 151.676 78.8589 151.68 79.1276L150.73 79.5607C151.219 78.9553 151.672 78.3379 152.091 77.7086C152.505 77.0462 152.804 76.5341 152.99 76.1721C153.448 75.3356 153.84 74.6425 154.169 74.0928C154.526 73.5055 154.984 72.8033 155.545 71.9862C156.102 71.1361 156.682 70.5854 157.287 70.3343C157.92 70.0455 158.419 69.8763 158.782 69.8265C159.526 69.8589 160.157 70.1594 160.672 70.728C161.216 71.2591 161.635 72.11 161.93 73.2807C161.994 73.7431 162.019 74.2948 162.006 74.9358C162.026 75.5723 162.036 75.8906 162.036 75.8906C162.036 75.8906 162.253 75.5076 162.686 74.7416C163.152 73.9711 163.791 73.1097 164.602 72.1573C165.167 71.6089 165.741 71.2609 166.327 71.1133C166.907 70.9327 167.463 71.0584 167.993 71.4904C168.915 71.835 169.574 72.468 169.97 73.3895C170.361 74.2779 170.59 75.4578 170.657 76.9289C170.676 77.8012 170.747 78.4474 170.872 78.8677C170.993 79.2549 171.146 79.6376 171.333 80.0158C171.615 80.1116 171.703 80.3856 171.597 80.8375C171.486 81.2564 171.315 81.4818 171.084 81.5135C170.753 81.5588 170.365 81.5448 169.917 81.4716C169.503 81.3938 169.11 81.229 168.739 80.977C168.397 80.6875 168.187 80.2621 168.11 79.7007L167.689 76.6294C167.589 75.9029 167.475 75.313 167.345 74.8597C167.249 74.4019 167.128 74.1325 166.982 74.0516C166.591 73.9032 166.093 74.1903 165.485 74.9129C164.878 75.6355 164.25 76.5795 163.602 77.745C162.955 78.9104 162.361 80.1021 161.822 81.32C161.334 82.4298 161.02 83.0786 160.877 83.2664C160.763 83.4166 160.509 83.401 160.114 83.2197C159.356 83.0881 158.85 82.8378 158.598 82.4687C158.374 82.062 158.292 81.5854 158.351 81.0389C158.439 80.4549 158.533 79.6681 158.633 78.6787C158.766 77.6848 158.887 76.7262 158.996 75.8028C159.1 74.8464 159.158 74.1656 159.17 73.7602C159.002 73.5141 158.759 73.4633 158.442 73.6076C158.154 73.7144 157.861 73.9061 157.562 74.1825C157.202 74.5011 156.791 75.0621 156.33 75.8656C155.868 76.6691 155.405 77.5905 154.942 78.6297C154.632 79.3115 154.305 79.9956 153.962 80.6819C153.614 81.3352 153.29 81.918 152.991 82.4301C152.691 82.9423 152.424 83.3321 152.192 83.5995C151.829 84.3894 151.57 84.8287 151.414 84.9174C151.258 85.0061 150.933 84.9666 150.439 84.7988ZM172.549 88.2267C172.219 88.2719 171.999 88.2684 171.891 88.2159C171.821 88.1919 171.704 88.0734 171.54 87.8604C171.508 87.6292 171.53 87.4243 171.607 87.2455C171.716 87.0623 171.871 86.8393 172.07 86.5764C172.355 86.2009 172.678 85.736 173.04 85.1817C173.406 84.6605 173.736 84.1273 174.032 83.5821C174.36 83.0324 174.586 82.5977 174.711 82.2778C174.793 81.8964 174.85 81.4512 174.881 80.9423C174.945 80.4288 175.002 79.8658 175.053 79.2532C175.017 78.9891 174.985 78.7579 174.958 78.5597C174.959 78.324 175.017 78.1311 175.131 77.9809C175.33 77.718 175.515 77.5918 175.684 77.6021C175.887 77.608 176.079 77.7835 176.261 78.1286C176.476 78.4693 176.667 78.9983 176.832 79.7158C177.064 80.4242 177.155 81.0847 177.104 81.6972C177.053 82.3098 176.905 83.0703 176.66 83.9787C176.625 84.219 176.458 84.5952 176.159 85.1073C175.859 85.6195 175.554 86.0986 175.245 86.5447C174.936 86.9908 174.732 87.2207 174.633 87.2343C174.501 87.2524 174.39 87.3012 174.3 87.3809C174.215 87.4935 174.115 87.625 174.001 87.7752C173.887 87.9254 173.698 88.0186 173.434 88.0548C173.207 88.1196 172.912 88.1768 172.549 88.2267ZM196.3 80.9322C195.313 81.1011 194.56 81.0026 194.038 80.6367C193.513 80.2377 193.245 79.6352 193.235 78.829C193.435 78.5662 193.646 78.3858 193.868 78.2881C194.09 78.1903 194.427 78.1946 194.879 78.3008C195.26 78.3831 195.633 78.3994 195.996 78.3495C196.359 78.2997 196.713 78.1839 197.058 78.0019C197.21 77.8802 197.387 77.8223 197.59 77.8281C197.821 77.7964 198.048 77.7317 198.27 77.634C198.709 77.4054 199.237 77.0808 199.852 76.66C200.5 76.2346 201.142 75.7597 201.776 75.2353C202.406 74.6779 202.902 74.122 203.264 73.5678C203.321 73.4927 203.392 73.281 203.479 72.9326C203.562 72.5512 203.577 72.2967 203.526 72.1692C203.196 72.2145 202.676 72.353 201.968 72.5847C201.288 72.7789 200.787 72.9316 200.466 73.043C199.786 73.2371 199.247 73.227 198.847 73.0127C198.448 72.7983 198.073 72.3955 197.723 71.8042C197.587 71.5536 197.591 71.3345 197.733 71.1467C197.871 70.9259 198 70.6391 198.12 70.2862C198.347 70.2215 198.559 70.1755 198.757 70.1483C198.984 70.0836 199.205 70.1037 199.422 70.2086C199.638 70.3136 199.803 70.2909 199.917 70.1407C200.064 69.986 200.243 69.9445 200.455 70.0164C200.662 70.0553 200.929 70.0356 201.254 69.9573C201.58 69.879 202.283 69.7321 203.364 69.5166C203.529 69.4939 203.676 69.457 203.803 69.4059C203.959 69.3172 204.057 69.1693 204.096 68.9621C204.178 68.5807 204.192 68.1918 204.137 67.7955C204.079 67.3662 203.959 66.7433 203.78 65.9267C203.505 65.3925 203.274 65.0542 203.086 64.9117C202.894 64.7362 202.654 64.584 202.367 64.4551C201.33 64.4964 200.528 64.6569 199.96 64.9366C199.388 65.1832 199.024 65.4687 198.866 65.7931C198.392 66.2618 197.879 66.5677 197.327 66.7108C196.808 66.8493 196.494 66.7745 196.388 66.4863C196.365 66.3212 196.279 66.0638 196.13 65.7141C196.015 65.3599 195.936 65.0342 195.895 64.737C195.85 64.4067 195.91 64.2303 196.075 64.2076C196.461 63.5828 196.732 63.1082 196.889 62.7838C197.042 62.4264 197.494 62.1626 198.244 61.9924C199.175 61.6629 199.991 61.4836 200.694 61.4546C201.392 61.3925 202.073 61.4505 202.737 61.6287C203.113 61.6779 203.595 61.881 204.183 62.2379C204.77 62.5947 205.157 62.9622 205.343 63.3404C205.527 63.4499 205.768 63.7364 206.067 64.2001C206.394 64.6262 206.779 65.4651 207.219 66.7168C207.222 67.9614 207.157 69.0806 207.024 70.0745C206.924 71.0639 206.735 72.0151 206.456 72.9281C206.182 73.8741 205.91 74.5844 205.638 75.059C205.362 75.5006 205.025 75.9842 204.626 76.51C203.357 77.5588 202.438 78.3409 201.869 78.8563C201.301 79.3716 200.844 79.7203 200.498 79.9022C200.153 80.0841 199.667 80.2181 199.04 80.3041C198.637 80.5611 198.189 80.7236 197.693 80.7916C197.226 80.8219 196.762 80.8688 196.3 80.9322ZM212.698 76.261C212.303 76.0797 211.932 75.8277 211.585 75.5052C211.233 75.1497 211.017 74.6747 210.935 74.0803C210.89 73.75 210.879 73.1796 210.902 72.3689C210.926 71.5582 210.985 70.6416 211.08 69.6192C211.176 68.5967 211.28 67.6404 211.394 66.75C211.642 66.1103 211.841 65.4774 211.991 64.8512C212.141 64.2251 212.206 63.846 212.188 63.7139C212.2 63.3085 212.219 62.8349 212.246 62.2929C212.305 61.7464 212.372 61.2494 212.445 60.802C212.518 60.3546 212.583 60.0933 212.64 60.0182C212.783 59.8304 212.968 59.7042 213.194 59.6395C213.416 59.5417 213.652 59.543 213.901 59.6434C214.179 59.7063 214.407 59.8938 214.584 60.2059C215.002 60.5524 215.249 61.0063 215.326 61.5677C215.398 62.0961 215.325 62.9136 215.107 64.0202C214.9 64.7214 214.71 65.5383 214.535 66.4707C214.36 67.4031 214.209 68.2649 214.082 69.0562C213.983 69.8099 213.936 70.3211 213.939 70.5898L212.989 71.0229C213.478 70.4175 213.931 69.8002 214.35 69.1708C214.764 68.5085 215.064 67.9963 215.249 67.6344C215.707 66.7978 216.099 66.1047 216.428 65.555C216.785 64.9677 217.244 64.2655 217.804 63.4484C218.361 62.5983 218.941 62.0476 219.546 61.7965C220.179 61.5078 220.678 61.3385 221.041 61.2887C221.786 61.3211 222.416 61.6217 222.931 62.1903C223.475 62.7213 223.894 63.5722 224.189 64.7429C224.253 65.2053 224.278 65.757 224.265 66.398C224.285 67.0345 224.295 67.3528 224.295 67.3528C224.295 67.3528 224.512 66.9698 224.945 66.2038C225.411 65.4333 226.05 64.5719 226.862 63.6195C227.426 63.0711 228 62.7231 228.586 62.5756C229.167 62.395 229.722 62.5207 230.252 62.9526C231.174 63.2972 231.833 63.9302 232.229 64.8517C232.62 65.7402 232.849 66.92 232.916 68.3912C232.935 69.2634 233.006 69.9096 233.131 70.3299C233.252 70.7171 233.405 71.0998 233.592 71.478C233.874 71.5739 233.962 71.8478 233.856 72.2997C233.745 72.7187 233.574 72.944 233.343 72.9757C233.013 73.021 232.624 73.007 232.176 72.9338C231.762 72.856 231.369 72.6912 230.998 72.4393C230.656 72.1498 230.446 71.7243 230.369 71.1629L229.948 68.0917C229.848 67.3651 229.734 66.7752 229.604 66.3219C229.508 65.8641 229.387 65.5947 229.241 65.5138C228.851 65.3654 228.352 65.6526 227.744 66.3751C227.137 67.0977 226.509 68.0417 225.861 69.2072C225.214 70.3726 224.62 71.5643 224.081 72.7823C223.594 73.8921 223.279 74.5408 223.136 74.7286C223.022 74.8788 222.768 74.8632 222.373 74.6819C221.615 74.5504 221.109 74.3 220.857 73.9309C220.633 73.5242 220.551 73.0476 220.61 72.5011C220.698 71.9171 220.792 71.1304 220.892 70.141C221.025 69.147 221.146 68.1884 221.255 67.265C221.359 66.3086 221.417 65.6278 221.429 65.2224C221.261 64.9763 221.018 64.9255 220.702 65.0698C220.413 65.1767 220.12 65.3683 219.821 65.6447C219.461 65.9633 219.05 66.5243 218.589 67.3278C218.127 68.1314 217.664 69.0527 217.201 70.0919C216.891 70.7738 216.564 71.4578 216.221 72.1442C215.873 72.7975 215.549 73.3802 215.25 73.8924C214.95 74.4045 214.684 74.7943 214.451 75.0617C214.088 75.8516 213.829 76.2909 213.673 76.3796C213.517 76.4683 213.192 76.4288 212.698 76.261ZM240.933 74.105C240.503 74.1639 240.145 74.1289 239.858 74C239.605 73.8665 239.276 73.6761 238.872 73.4287C238.154 72.8543 237.622 72.288 237.276 71.7298C236.926 71.1385 236.762 70.5554 236.784 69.9804C236.847 69.7026 236.846 69.4504 236.781 69.2238C236.745 68.9596 236.727 68.8275 236.727 68.8275C236.539 68.685 236.476 68.5927 236.537 68.5507C236.594 68.4755 236.647 68.3674 236.695 68.2263C236.893 68.1991 236.934 68.0084 236.818 67.6542C236.716 67.3991 236.769 66.803 236.977 65.8661C237.185 64.9291 237.482 64.0304 237.869 63.1699C238.021 62.8125 238.26 62.3424 238.584 61.7597C238.903 61.1439 239.258 60.5401 239.647 59.9483C240.066 59.319 240.45 58.812 240.801 58.4275C241.532 57.6207 242.188 57.0092 242.77 56.5929C243.353 56.1766 243.996 55.8361 244.7 55.5714C245.403 55.3066 245.888 55.1561 246.152 55.1199C246.449 55.0791 246.881 55.289 247.449 55.7494C248.254 55.9755 248.853 56.2971 249.247 56.7141C249.674 57.1267 249.998 57.772 250.219 58.65C250.454 59.6272 250.528 60.7778 250.44 62.102C250.381 63.3886 249.82 65.0637 248.757 67.1272C248.095 68.4293 247.457 69.4251 246.845 70.1147C246.229 70.7712 245.48 71.4458 244.6 72.1386C243.969 72.696 243.389 73.1288 242.86 73.437C242.326 73.7121 241.683 73.9348 240.933 74.105ZM244.968 68.202C245.638 67.2017 246.15 66.2735 246.504 65.4175C246.891 64.557 247.215 63.4864 247.477 62.2056C247.559 61.8242 247.58 61.367 247.541 60.8341C247.497 60.2682 247.41 59.7586 247.281 59.3053C247.18 58.8145 247.026 58.5496 246.819 58.5107C246.391 58.3339 245.903 58.3335 245.355 58.5096C244.802 58.6526 244.235 59.0501 243.651 59.7021C242.745 60.7011 242.001 61.8967 241.418 63.2888C240.83 64.6479 240.284 66.1863 239.78 67.9042C239.447 69.161 239.463 70.1345 239.827 70.8248C240.219 71.4776 240.864 71.6415 241.762 71.3165C242.688 70.954 243.756 69.9159 244.968 68.202ZM279.089 69.0743C278.882 69.0355 278.677 69.0131 278.474 69.0072C278.267 68.9684 278.06 68.9295 277.853 68.8906C277.679 68.8472 277.474 68.8248 277.238 68.8235C276.844 68.4065 276.635 67.8632 276.611 67.1936C276.582 66.4911 276.633 65.7607 276.765 65.0024C276.929 64.2397 277.079 63.4957 277.215 62.7705C277.385 62.0407 277.452 61.4259 277.417 60.926C277.366 60.7984 277.312 60.7722 277.255 60.8473C277.193 60.8894 277.167 60.9435 277.176 61.0095C276.981 61.3054 276.676 61.5323 276.26 61.6903C275.844 61.8482 275.459 61.9851 275.105 62.101C274.491 62.2861 273.879 62.4877 273.27 62.7059C272.661 62.924 272.07 63.1564 271.498 63.4031C271.39 63.3506 271.263 63.2839 271.118 63.2029C271.005 63.1174 270.895 63.0485 270.787 62.996C270.555 63.0277 270.387 63.2695 270.28 63.7215C270.174 64.1734 270.098 64.7222 270.052 65.3678C270.001 65.9803 269.949 66.5764 269.893 67.1559C269.867 67.6979 269.82 68.0912 269.752 68.336C269.233 68.4745 268.856 68.5431 268.62 68.5418C268.417 68.5359 268.024 68.4889 267.44 68.4008C267.126 68.0738 266.93 67.7474 266.851 67.4217C266.806 67.0914 266.806 66.7214 266.85 66.3115C266.911 65.5293 266.96 64.9002 266.995 64.4243C267.064 63.9439 267.197 63.32 267.395 62.5527C267.51 62.1668 267.611 61.7996 267.698 61.4513C267.813 61.0654 267.842 60.6578 267.783 60.2284C268.002 59.862 268.133 59.4738 268.178 59.0639C268.223 58.654 268.284 58.2419 268.362 57.8275C268.705 56.401 268.975 55.3042 269.172 54.5369C269.398 53.732 269.548 53.1059 269.621 52.6585C269.694 52.211 269.723 51.8034 269.706 51.4356C269.676 50.9688 269.925 50.6991 270.453 50.6266C270.783 50.5813 271.148 50.6659 271.548 50.8803C271.942 51.0616 272.264 51.3203 272.512 51.6564C272.76 51.9925 272.828 52.3701 272.718 52.789C272.655 53.0668 272.549 53.5187 272.399 54.1449C272.278 54.7334 272.133 55.3926 271.964 56.1224C271.823 56.8145 271.678 57.4737 271.528 58.0998C271.407 58.6884 271.299 59.1239 271.203 59.4062C271.188 59.5428 271.138 59.6674 271.052 59.7801C270.962 59.8597 270.928 59.9821 270.951 60.1472C271.205 60.2807 271.594 60.2946 272.118 60.1891C272.67 60.0461 273.053 59.8927 273.266 59.7289C273.761 59.661 274.24 59.5953 274.702 59.5319C275.198 59.464 275.693 59.396 276.188 59.3281C276.724 59.5574 277.165 59.9511 277.511 60.5093C277.656 59.8502 277.857 58.9815 278.113 57.9035C278.364 56.7923 278.601 55.7 278.824 54.6264C279.047 53.5529 279.155 52.7473 279.149 52.2099C279.174 51.9036 279.27 51.6213 279.436 51.363C279.603 51.1046 279.792 50.8936 280.005 50.7298C280.5 50.8975 280.973 51.0345 281.424 51.1408C281.905 51.2095 282.254 51.5485 282.472 52.1578C282.48 52.4596 282.455 52.7659 282.397 53.0767C282.334 53.3545 282.271 53.6322 282.208 53.91C282.009 54.913 281.741 56.0264 281.404 57.2502C281.063 58.4409 280.759 59.6602 280.493 60.9079C280.255 62.1181 280.124 63.2464 280.099 64.2928C280.113 64.3919 280.075 64.7334 279.987 65.3175C279.932 65.897 279.858 66.4623 279.766 67.0133C279.706 67.5598 279.662 67.8519 279.633 67.8894C279.665 68.1206 279.628 68.3443 279.524 68.5606C279.414 68.7438 279.269 68.9151 279.089 69.0743ZM291.735 68.0467C290.282 68.246 289.019 67.8641 287.945 66.9011C286.866 65.9051 286.23 64.5792 286.036 62.9235C285.939 61.7255 285.996 60.4224 286.207 59.014C286.446 57.5682 286.826 56.1702 287.348 54.8202C287.865 53.4371 288.47 52.2101 289.164 51.1392C289.859 50.0683 290.624 49.2735 291.462 48.755C291.769 48.5446 292.098 48.3649 292.448 48.216C292.83 48.0626 293.22 47.9587 293.616 47.9044C293.979 47.8546 294.368 47.8685 294.783 47.9463C295.193 47.991 295.539 48.0613 295.821 48.1572C296.414 48.3114 296.882 48.5332 297.224 48.8227C297.567 49.1122 297.901 49.5878 298.228 50.2496C298.413 50.8635 298.523 51.3025 298.56 51.5667C298.596 51.8309 298.568 52.2385 298.475 52.7896C298.242 54.0328 297.87 55.1267 297.36 56.0714C296.851 57.0161 296.108 57.8581 295.133 58.5975C294.891 58.7988 294.596 58.9739 294.246 59.1228C293.925 59.2342 293.583 59.3147 293.22 59.3645C292.559 59.4551 291.899 59.4278 291.24 59.2827C290.609 59.1 290.078 58.7859 289.647 58.3404L289.246 57.9916L289.152 58.4083C288.944 59.3453 288.793 60.2071 288.699 60.9938C288.638 61.776 288.651 62.4809 288.737 63.1083C288.791 63.5046 288.876 63.8799 288.992 64.2341C289.141 64.5838 289.316 64.8794 289.517 65.1209C289.677 65.3009 289.912 65.4201 290.222 65.4784C290.562 65.4992 290.913 65.4847 291.276 65.4349C291.507 65.4032 291.739 65.3715 291.97 65.3398C292.229 65.2705 292.468 65.1705 292.686 65.0397C293.22 64.7646 293.636 64.4888 293.935 64.2123C294.266 63.9313 294.596 63.6338 294.923 63.3198L295.107 63.1936L295.058 63.2004C295.427 62.9479 295.746 62.7022 296.016 62.4633C296.32 62.2199 296.471 62.0981 296.471 62.0981C296.603 62.08 296.724 61.9793 296.833 61.7961C297.079 61.6278 297.416 61.632 297.844 61.8089C298.305 61.9812 298.561 62.2489 298.611 62.6122C298.6 62.7819 298.488 63.0664 298.274 63.4659C298.055 63.8324 297.8 64.1869 297.511 64.5294C297.255 64.8674 297.03 65.0665 296.836 65.1266C296.807 65.1642 296.701 65.2461 296.516 65.3723C296.327 65.4656 296.204 65.5497 296.147 65.6248L296.197 65.618C295.954 66.0551 295.684 66.294 295.387 66.3348L294.99 66.3891C294.89 66.6384 294.497 66.9615 293.811 67.3583C293.121 67.7221 292.429 67.9516 291.735 68.0467ZM292.47 56.843C293.064 56.7615 293.554 56.5262 293.938 56.1371C294.35 55.7104 294.692 55.2597 294.964 54.7851C295.502 53.8029 295.764 52.8922 295.75 52.053C295.764 51.1763 295.583 50.5954 295.208 50.3105C294.996 50.2386 294.808 50.2139 294.643 50.2366C294.506 50.2217 294.232 50.3097 293.821 50.5007C293.533 50.6075 293.154 50.9118 292.684 51.4135C292.215 51.9153 291.752 52.4666 291.296 53.0675C290.873 53.6638 290.555 54.1617 290.34 54.5612L289.839 55.6898C290.09 55.5545 290.33 55.471 290.562 55.4393C290.821 55.37 290.972 55.3661 291.014 55.4277C291.055 55.7249 291.143 55.9988 291.278 56.2494C291.442 56.4625 291.616 56.6237 291.799 56.7332C292.015 56.8381 292.239 56.8747 292.47 56.843ZM317.913 62.6401C317.525 62.7605 317.087 62.7533 316.598 62.6186C316.108 62.4838 315.657 62.2597 315.244 61.9463C314.864 61.6283 314.597 61.2779 314.443 60.8952C314.216 60.2198 314.181 59.3499 314.338 58.2854C314.523 57.1833 314.834 56.0136 315.27 54.7762C315.734 53.5013 316.271 52.2669 316.882 51.0729C317.525 49.8744 318.205 48.8223 318.922 47.9165C319.667 46.9731 320.383 46.303 321.068 45.9062C321.4 45.6252 321.66 45.4381 321.849 45.3449C322.067 45.2141 322.296 45.1659 322.536 45.2002C322.809 45.23 323.212 45.3431 323.743 45.5393C324.224 45.608 324.591 45.7091 324.845 45.8425C325.099 45.9759 325.441 46.2654 325.872 46.711C326.204 47.1701 326.47 47.6383 326.671 48.1155C326.871 48.5928 327.063 49.1384 327.248 49.7522C327.626 50.5416 327.799 51.0729 327.77 51.3462C327.735 51.5864 327.661 51.7816 327.547 51.9318C327.328 52.2983 327.285 52.4725 327.417 52.4544C327.417 52.4544 327.409 52.5227 327.395 52.6593C327.408 52.7584 327.365 52.9326 327.264 53.1818C327.133 53.9401 327.055 54.7245 327.032 55.5352C327.037 56.3084 327.14 56.9336 327.34 57.4108C327.703 58.1011 328.241 58.4648 328.953 58.5018C329.664 58.5388 330.334 58.1442 330.961 57.318C331.288 57.004 331.603 56.7253 331.906 56.4819C332.204 56.2054 332.372 56.1993 332.408 56.4635C332.408 56.4635 332.464 56.5062 332.577 56.5917C332.685 56.6442 332.805 56.6613 332.937 56.6432C333.102 56.6206 333.21 56.673 333.262 56.8006C333.346 56.9236 333.371 57.1053 333.336 57.3455C333.33 57.5482 333.263 57.7929 333.134 58.0798C332.707 58.6431 332.504 59.0073 332.527 59.1724C332.527 59.1724 332.47 59.2475 332.356 59.3977C332.271 59.5104 332.112 59.7004 331.879 59.9678C331.334 60.4126 330.6 60.6984 329.675 60.8252C328.783 60.9475 328.065 60.8609 327.52 60.5656C326.975 60.2703 326.444 59.8383 325.929 59.2697C325.447 58.6966 325.108 58.1879 324.912 57.7437L324.597 57.2823L323.289 58.4205C322.976 58.8336 322.627 59.2347 322.243 59.6238C321.892 60.0084 321.659 60.2758 321.545 60.426C321.465 60.5717 321.365 60.7031 321.246 60.8203C321.161 60.9329 321.052 60.9983 320.92 61.0164C320.788 61.0346 320.672 61.0504 320.573 61.064C320.474 61.0776 320.425 61.0844 320.425 61.0844C320.443 61.2165 320.3 61.4042 319.997 61.6477C319.727 61.8866 319.386 62.1015 318.975 62.2925C318.597 62.4789 318.243 62.5948 317.913 62.6401ZM317.05 60.033C317.249 60.0059 317.575 59.8097 318.03 59.4446C318.513 59.0419 319.039 58.5828 319.607 58.0675C320.209 57.5476 320.728 57.039 321.164 56.5418C321.634 56.04 321.952 55.6599 322.118 55.4016C322.232 55.2514 322.417 55.0073 322.674 54.6693C322.926 54.2983 323.151 53.9814 323.351 53.7185C323.993 52.7557 324.392 51.7421 324.549 50.6775C324.701 49.58 324.555 48.7589 324.11 48.2143C323.928 47.8692 323.736 47.6937 323.533 47.6878C323.331 47.682 322.934 47.8541 322.342 48.2044C321.978 48.4899 321.544 49.0037 321.04 49.7457C320.564 50.4501 320.055 51.2769 319.513 52.2261C318.998 53.1378 318.522 54.0779 318.083 55.0466C317.643 56.0152 317.294 56.9042 317.035 57.7136C316.776 58.523 316.676 59.1423 316.735 59.5716C316.753 59.7037 316.802 59.8148 316.881 59.9048C316.994 59.9903 317.05 60.033 317.05 60.033ZM335.581 60.7724C335.219 60.5865 334.941 60.4058 334.749 60.2303C334.557 60.0548 334.452 59.7831 334.436 59.4154C334.434 58.9109 334.463 58.3855 334.522 57.839C334.577 57.2594 334.668 56.6919 334.793 56.1363C334.811 55.5283 334.845 54.918 334.896 54.3055C334.979 53.6884 335.166 53.0907 335.457 52.5125C335.801 50.8504 336.102 49.2446 336.361 47.6951C336.648 46.108 337.064 44.2341 337.609 42.0734C337.724 41.6875 337.837 41.4029 337.946 41.2197C338.084 40.9989 338.205 40.7804 338.31 40.5641C338.325 40.4275 338.415 40.3479 338.58 40.3252C338.774 40.265 338.993 40.2686 339.238 40.336C339.478 40.3703 339.676 40.461 339.83 40.608C339.958 40.5569 340.169 40.7466 340.464 41.1773C340.791 41.6034 340.94 41.9531 340.91 42.2263C340.928 42.3584 340.92 42.5446 340.886 42.7848C340.852 43.025 340.782 43.2533 340.677 43.4695C340.563 43.6197 340.458 43.836 340.362 44.1183C340.262 44.3676 340.107 44.7085 339.897 45.141C339.693 46.111 339.519 46.9255 339.374 47.5847C339.229 48.2439 339.046 48.9924 338.824 49.8303C338.638 50.1922 338.518 50.6629 338.462 51.2425C338.407 51.822 338.35 52.385 338.29 52.9315C338.141 53.5576 338.001 54.132 337.871 54.6545C337.773 55.1725 337.734 55.4976 337.752 55.6297C337.62 56.3879 337.538 57.1394 337.506 57.884C337.469 58.5956 337.338 59.236 337.113 59.8052C337.148 60.3051 337.045 60.6557 336.803 60.857C336.595 61.0538 336.187 61.0256 335.581 60.7724ZM347.528 59.9414C346.991 59.9478 346.581 59.9031 346.299 59.8072C346.012 59.6783 345.469 59.3995 344.67 58.9708C344.219 58.6288 343.591 58.0926 342.784 57.3621C341.977 56.6316 341.164 55.8515 340.343 55.022C339.519 54.1594 338.83 53.4295 338.277 52.8324L339.934 49.8294C340.436 50.2989 340.851 50.7467 341.178 51.1729C341.506 51.599 341.763 51.8833 341.951 52.0257C342.865 53.0444 343.584 53.8711 344.108 54.5057C344.666 55.1358 345.155 55.6406 345.578 56.0201C346 56.3996 346.432 56.7273 346.873 57.0032C347.348 57.2746 347.924 57.5489 348.601 57.8261C348.709 57.8785 348.822 57.964 348.939 58.0825C349.056 58.2011 349.116 58.3947 349.12 58.6634C349.037 59.0448 348.92 59.2963 348.769 59.418C348.646 59.5022 348.232 59.6767 347.528 59.9414ZM338.053 52.3079C337.778 51.7737 337.767 51.2032 338.021 50.5965C338.302 49.9523 338.642 49.4851 339.04 49.1951C339.14 48.9458 339.252 48.7791 339.375 48.6949C339.526 48.5732 339.61 48.444 339.624 48.3074C339.672 48.1662 339.813 47.9619 340.045 47.6945C340.311 47.4226 340.545 47.1717 340.749 46.9419C341.233 46.5392 341.773 46.0614 342.37 45.5085C342.995 44.918 343.588 44.3321 344.147 43.7506C344.707 43.1692 345.176 42.6675 345.556 42.2453C345.968 41.8186 346.217 41.549 346.303 41.4363C346.384 41.2906 346.505 41.19 346.665 41.1343C346.854 41.0411 347.107 41.0401 347.422 41.1315C347.832 41.1762 348.119 41.3051 348.282 41.5182C348.442 41.6982 348.562 42.0854 348.644 42.6799C348.792 43.0295 348.698 43.4462 348.361 43.9299C348.052 44.376 347.552 44.8988 346.86 45.4983C346.618 45.6997 346.289 45.9972 345.872 46.3908C345.488 46.7799 345.151 47.1457 344.862 47.4882C344.649 47.652 344.334 47.9308 343.917 48.3244C343.528 48.6805 343.189 49.0298 342.9 49.3723C342.658 49.5736 342.352 49.9184 341.982 50.4066C341.607 50.8618 341.218 51.2179 340.816 51.4749C339.895 52.6105 339.274 53.234 338.953 53.3454C338.632 53.4567 338.332 53.1109 338.053 52.3079ZM352.058 54.98C352.05 54.6783 352.097 54.2849 352.199 53.7999C352.301 53.3149 352.405 52.8465 352.511 52.3945C352.617 51.9425 352.694 51.646 352.742 51.5048C353.034 50.6909 353.291 49.865 353.513 49.0272C353.763 48.1517 353.947 47.2854 354.065 46.4281C354.104 46.2209 354.172 45.8583 354.269 45.3403C354.399 44.8177 354.513 44.2974 354.61 43.7794C354.736 43.2239 354.783 42.8305 354.751 42.5993C354.754 42.1279 354.862 41.6925 355.076 41.293C355.324 40.889 355.653 40.5915 356.064 40.4005C356.437 40.4167 356.766 40.4893 357.053 40.6182C357.34 40.7471 357.61 40.8782 357.864 41.0117C358.089 41.1826 358.199 41.4873 358.191 41.9257C358.184 42.3641 358.127 42.9271 358.019 43.6147C357.951 44.0952 357.801 44.7213 357.57 45.4931C357.373 46.2604 357.159 47.03 356.928 47.8018C356.726 48.5361 356.572 49.1292 356.465 49.5812C356.253 50.4851 356.026 51.5256 355.783 52.7028C355.574 53.8754 355.394 54.7748 355.245 55.401C355.167 55.8154 355.377 56.123 355.876 56.3237C356.465 56.4449 357.101 56.4249 357.786 56.2638C358.465 56.0696 359.106 55.8304 359.706 55.5462C360.335 55.2245 360.848 54.9186 361.245 54.6285C361.643 54.3385 361.837 54.1604 361.828 54.0944C361.83 53.8587 361.841 53.5712 361.861 53.2319C361.915 52.8881 362.022 52.3183 362.182 51.5225C362.375 50.7222 362.632 49.5262 362.952 47.9346C362.952 47.9346 362.991 47.7274 363.068 47.313C363.146 46.8986 363.25 46.4301 363.38 45.9076C363.506 45.352 363.608 44.8671 363.686 44.4527C363.759 44.0052 363.795 43.7815 363.795 43.7815C363.678 42.9229 363.755 42.1384 364.028 41.4281C364.296 40.6848 364.648 40.1824 365.083 39.9208C365.343 39.8515 365.59 39.8176 365.826 39.8189C366.062 39.8202 366.273 39.8921 366.461 40.0346C366.757 40.2295 367.036 40.4268 367.299 40.6262C367.562 40.8257 367.739 41.1378 367.831 41.5626C367.731 41.8119 367.67 42.1062 367.65 42.4455C367.624 42.7518 367.531 43.0506 367.369 43.3419C367.24 43.6288 367.116 43.9486 366.996 44.3015C366.904 44.6169 366.893 44.9044 366.963 45.164L366.116 48.5605C365.971 49.2197 365.79 49.9847 365.573 50.8556C365.389 51.722 365.266 52.294 365.203 52.5718L366.81 52.1495C367.24 52.0906 367.655 52.0505 368.055 52.0292C368.452 51.9749 368.92 52.0788 369.461 52.3412C369.56 52.3276 369.658 52.4318 369.756 52.6539C369.882 52.8385 369.999 53.0749 370.106 53.363C370.246 53.6467 370.364 53.8995 370.462 54.1216C370.426 54.5976 370.281 55.2567 370.027 56.0991C369.772 56.9415 369.501 57.7862 369.213 58.6331C368.926 59.48 368.682 60.1528 368.481 60.6514C368.38 60.9007 368.261 61.1357 368.123 61.3565C367.99 61.6103 367.856 61.8641 367.723 62.1179C367.441 62.7622 367.067 63.0995 366.6 63.1299C366.133 63.1602 365.677 62.9031 365.233 62.3585C365.183 61.9952 365.195 61.472 365.27 60.7889C365.382 60.1343 365.455 59.6868 365.489 59.4466C365.509 59.343 365.612 58.9924 365.799 58.3947C365.991 57.8301 366.181 57.249 366.368 56.6514C366.555 56.0537 366.635 55.6558 366.608 55.4577C366.618 55.288 366.567 55.1605 366.454 55.075C366.342 54.9895 366.224 54.9888 366.101 55.073C366.002 55.0866 365.735 55.2241 365.3 55.4857C364.897 55.7427 364.495 55.9997 364.093 56.2567C363.686 56.4807 363.401 56.6041 363.235 56.6267C362.497 57.1317 361.892 57.5007 361.419 57.7337C360.975 57.9292 360.341 58.218 359.519 58.5999C357.806 58.8684 356.596 59.0007 355.889 58.9967C355.178 58.9597 354.568 58.8078 354.06 58.541C353.44 58.1887 352.978 57.7641 352.675 57.2675C352.404 56.7662 352.239 56.301 352.18 55.8717C352.117 55.4093 352.076 55.1121 352.058 54.98ZM385.861 54.8867C385.485 54.6017 385.094 54.2012 384.687 53.685C384.275 53.1359 383.918 52.4951 383.616 51.7627C383.513 51.5076 383.43 51.1489 383.367 50.6865C383.337 50.2196 383.291 49.8894 383.231 49.6958C383.164 49.9405 383.033 50.2109 382.838 50.5068C382.671 50.7651 382.5 50.9904 382.325 51.1827C382.211 51.3329 381.95 51.6379 381.542 52.0976C381.129 52.5242 380.708 52.8849 380.277 53.1794C379.282 54.0224 378.426 54.5267 377.709 54.6924C377.024 54.8535 376.314 54.5809 375.578 53.8743C374.991 53.5175 374.545 53.0907 374.242 52.594C373.971 52.0928 373.871 51.3663 373.943 50.4144C373.85 49.2495 373.861 48.104 373.976 46.978C374.086 45.8189 374.427 44.2581 374.999 42.2955C375.507 40.8464 375.9 39.7833 376.177 39.106C376.45 38.3957 376.626 37.9677 376.707 37.822C377.18 37.589 377.595 37.5489 377.953 37.7017C378.306 37.8216 378.547 38.1081 378.676 38.5614C378.92 38.8645 378.964 39.4304 378.808 40.2592C378.686 41.0835 378.406 42.1143 377.97 43.3517C377.662 44.5379 377.387 45.7196 377.144 46.8968C376.935 48.0694 376.852 49.0566 376.894 49.8582C376.937 50.6598 377.201 51.1115 377.686 51.2132C378.006 51.3376 378.511 51.2179 379.201 50.8541C379.924 50.4857 380.676 49.7097 381.456 48.5261C382.269 47.338 382.974 45.6096 383.571 43.3407C383.744 42.644 383.863 42.0389 383.928 41.5254C383.987 40.9789 383.99 40.3897 383.937 39.7577C383.817 39.3704 383.786 39.0214 383.844 38.7106C383.931 38.3623 384.157 38.0453 384.521 37.7598C384.631 37.5766 384.792 37.4031 385.005 37.2393C385.214 37.0424 385.362 37.0221 385.451 37.1781L386.237 37.0199C386.364 36.9688 386.458 37.04 386.518 37.2336C386.607 37.3897 386.743 37.5224 386.926 37.6319C387.33 37.8793 387.518 38.5097 387.489 39.523C387.459 40.5364 387.187 41.9868 386.672 43.8743C386.23 45.3144 385.941 46.397 385.805 47.1222C385.702 47.8429 385.68 48.5357 385.737 49.2007C385.819 49.7952 386.011 50.3407 386.315 50.8374C386.618 51.3341 387.047 51.7631 387.602 52.1245C387.997 52.3059 388.231 52.5429 388.305 52.8356C388.412 53.1238 388.476 53.4682 388.497 53.8691C388.472 54.1753 388.307 54.4502 388.004 54.6936C387.73 54.8995 387.394 55.0296 386.998 55.084C386.602 55.1383 386.223 55.0725 385.861 54.8867ZM400.521 35.5153C400.576 35.6759 400.61 36.0414 400.621 36.6119C400.66 37.1448 400.666 37.6823 400.64 38.2242C400.642 38.7287 400.621 39.068 400.578 39.2421C400.395 39.8728 400.281 40.5109 400.234 41.1565C400.221 41.7976 400.112 42.4687 399.905 43.1699C399.426 42.8656 398.833 42.5935 398.128 42.3539C397.455 42.1097 396.848 41.8564 396.308 41.5941C395.941 41.3752 395.657 41.145 395.456 40.9034C395.283 40.6243 395.176 40.3361 395.135 40.0389C395.1 39.539 395.183 39.0398 395.384 38.5412C395.585 38.0427 395.859 37.5846 396.205 37.167C396.547 36.7163 396.903 36.3648 397.272 36.1123C397.612 35.8973 398.132 35.7588 398.83 35.6967C399.561 35.6301 400.124 35.5697 400.521 35.5153ZM401.187 52.8859C401.528 52.6709 401.788 52.4838 401.968 52.3246C402.143 52.1323 402.214 51.7862 402.179 51.2863C402.171 50.9845 402.196 50.6783 402.255 50.3675C402.341 50.0191 402.331 49.7008 402.225 49.4127C402.374 48.7865 402.53 47.8399 402.693 46.5727C402.889 45.301 403.052 43.9159 403.183 42.4176C403.347 40.9147 403.459 39.52 403.518 38.2333C403.572 36.9137 403.557 35.9401 403.471 35.3127C403.38 34.6522 403.161 34.1607 402.814 33.8382C402.467 33.5157 401.995 33.2608 401.397 33.0736C400.968 33.1325 400.555 33.1891 400.159 33.2434C399.762 33.2978 399.347 33.3379 398.913 33.3637C398.343 33.3747 397.737 33.4915 397.094 33.7141C396.447 33.9038 395.848 34.0701 395.295 34.2132C395.229 34.2222 395.166 34.2478 395.104 34.2899C395.042 34.332 394.983 34.3906 394.926 34.4657C394.439 34.8353 394.06 35.1396 393.79 35.3785C393.52 35.6174 393.299 35.8495 393.128 36.0749C392.872 36.4128 392.705 36.789 392.627 37.2034C392.582 37.6133 392.47 38.2679 392.291 39.1673C392.208 39.5487 392.19 39.9045 392.235 40.2348C392.313 40.5605 392.427 40.8982 392.576 41.2479C392.949 42.0042 393.309 42.5436 393.656 42.8662C393.998 43.1556 394.423 43.4338 394.931 43.7006C395.209 43.7635 395.489 43.8428 395.771 43.9387C396.049 44.0016 396.31 44.0667 396.555 44.134C396.076 44.5698 395.463 45.1249 394.714 45.7996C393.961 46.4412 393.234 47.0287 392.533 47.5622C391.833 48.0957 391.277 48.4579 390.866 48.6489C390.516 48.7977 390.206 48.9916 389.936 49.2305C389.699 49.4649 389.487 49.7631 389.302 50.125C389.473 50.6398 389.706 51.1125 390.001 51.5432C390.324 51.9363 390.785 52.1086 391.384 52.0601C391.45 52.051 391.724 51.8451 392.208 51.4424C392.724 51.0352 393.299 50.5694 393.934 50.045C394.564 49.4875 395.135 48.9887 395.646 48.5484C396.186 48.0706 396.532 47.7708 396.684 47.6491C396.802 47.5319 397.086 47.2743 397.537 46.8761C397.982 46.4449 398.404 46.0843 398.801 45.7942C399.014 45.6304 399.201 45.5207 399.362 45.465C399.522 45.4094 399.626 45.4288 399.673 45.5233C399.582 46.5788 399.462 47.6718 399.315 48.8024C399.195 49.8954 399.244 50.9822 399.459 52.063C399.746 52.1919 400.035 52.3373 400.326 52.4992C400.613 52.6281 400.9 52.757 401.187 52.8859ZM405.912 56.2249C405.581 56.2702 405.362 56.2666 405.254 56.2142C405.184 56.1902 405.066 56.0717 404.903 55.8586C404.871 55.6274 404.893 55.4225 404.97 55.2438C405.079 55.0606 405.234 54.8375 405.433 54.5746C405.718 54.1991 406.041 53.7342 406.403 53.18C406.768 52.6588 407.099 52.1256 407.394 51.5804C407.723 51.0307 407.949 50.5959 408.073 50.276C408.156 49.8947 408.212 49.4495 408.244 48.9405C408.308 48.4271 408.365 47.8641 408.416 47.2515C408.38 46.9873 408.348 46.7561 408.321 46.558C408.322 46.3223 408.38 46.1293 408.494 45.9791C408.693 45.7163 408.878 45.59 409.047 45.6004C409.25 45.6062 409.442 45.7817 409.624 46.1269C409.839 46.4675 410.029 46.9966 410.195 47.714C410.427 48.4225 410.517 49.083 410.467 49.6955C410.416 50.3081 410.268 51.0686 410.023 51.977C409.988 52.2172 409.821 52.5934 409.521 53.1056C409.221 53.6177 408.917 54.0969 408.608 54.543C408.299 54.9891 408.095 55.2189 407.996 55.2325C407.864 55.2506 407.753 55.2995 407.663 55.3791C407.578 55.4918 407.478 55.6232 407.364 55.7734C407.25 55.9237 407.061 56.0169 406.797 56.0531C406.57 56.1178 406.275 56.1751 405.912 56.2249ZM159.039 129.444C158.053 129.613 157.299 129.515 156.778 129.149C156.252 128.75 155.985 128.147 155.975 127.341C156.174 127.078 156.385 126.898 156.607 126.8C156.829 126.702 157.166 126.707 157.618 126.813C158 126.895 158.372 126.911 158.735 126.862C159.099 126.812 159.453 126.696 159.798 126.514C159.95 126.392 160.127 126.334 160.329 126.34C160.56 126.309 160.787 126.244 161.009 126.146C161.449 125.918 161.976 125.593 162.592 125.172C163.24 124.747 163.881 124.272 164.516 123.747C165.146 123.19 165.642 122.634 166.003 122.08C166.06 122.005 166.132 121.793 166.219 121.445C166.301 121.063 166.317 120.809 166.266 120.681C165.935 120.727 165.416 120.865 164.708 121.097C164.028 121.291 163.527 121.444 163.206 121.555C162.526 121.749 161.986 121.739 161.587 121.525C161.187 121.31 160.812 120.908 160.462 120.316C160.327 120.066 160.33 119.847 160.473 119.659C160.611 119.438 160.74 119.151 160.86 118.798C161.086 118.734 161.299 118.688 161.497 118.66C161.723 118.596 161.945 118.616 162.161 118.721C162.377 118.826 162.542 118.803 162.656 118.653C162.803 118.498 162.983 118.457 163.195 118.529C163.402 118.567 163.668 118.548 163.994 118.469C164.32 118.391 165.023 118.244 166.104 118.029C166.269 118.006 166.415 117.969 166.543 117.918C166.699 117.829 166.796 117.681 166.835 117.474C166.917 117.093 166.931 116.704 166.877 116.308C166.818 115.878 166.699 115.255 166.52 114.439C166.245 113.905 166.013 113.566 165.825 113.424C165.633 113.248 165.394 113.096 165.107 112.967C164.069 113.008 163.267 113.169 162.7 113.449C162.128 113.695 161.763 113.981 161.606 114.305C161.132 114.774 160.619 115.08 160.066 115.223C159.547 115.361 159.234 115.287 159.127 114.998C159.105 114.833 159.019 114.576 158.87 114.226C158.754 113.872 158.676 113.546 158.635 113.249C158.59 112.919 158.65 112.742 158.815 112.72C159.2 112.095 159.471 111.62 159.629 111.296C159.782 110.938 160.233 110.675 160.984 110.504C161.914 110.175 162.731 109.996 163.434 109.967C164.132 109.905 164.812 109.963 165.476 110.141C165.853 110.19 166.335 110.393 166.922 110.75C167.51 111.107 167.896 111.474 168.083 111.852C168.266 111.962 168.507 112.248 168.806 112.712C169.134 113.138 169.518 113.977 169.959 115.229C169.961 116.473 169.896 117.593 169.763 118.587C169.664 119.576 169.474 120.527 169.196 121.44C168.922 122.386 168.649 123.096 168.378 123.571C168.102 124.013 167.764 124.496 167.365 125.022C166.096 126.071 165.177 126.853 164.609 127.368C164.04 127.884 163.583 128.232 163.238 128.414C162.893 128.596 162.407 128.73 161.779 128.816C161.377 129.073 160.928 129.236 160.433 129.304C159.966 129.334 159.501 129.381 159.039 129.444ZM175.437 124.773C175.042 124.592 174.671 124.34 174.324 124.017C173.973 123.662 173.756 123.187 173.675 122.592C173.629 122.262 173.618 121.692 173.642 120.881C173.665 120.07 173.725 119.154 173.82 118.131C173.915 117.109 174.02 116.152 174.133 115.262C174.382 114.622 174.581 113.989 174.731 113.363C174.88 112.737 174.946 112.358 174.928 112.226C174.94 111.821 174.959 111.347 174.985 110.805C175.045 110.258 175.111 109.761 175.185 109.314C175.258 108.867 175.323 108.605 175.38 108.53C175.523 108.342 175.707 108.216 175.934 108.152C176.156 108.054 176.392 108.055 176.641 108.155C176.919 108.218 177.146 108.406 177.324 108.718C177.741 109.064 177.988 109.518 178.065 110.08C178.138 110.608 178.065 111.426 177.847 112.532C177.64 113.233 177.449 114.05 177.274 114.983C177.099 115.915 176.948 116.777 176.821 117.568C176.723 118.322 176.675 118.833 176.678 119.102L175.728 119.535C176.217 118.93 176.671 118.312 177.089 117.683C177.503 117.021 177.803 116.508 177.989 116.146C178.446 115.31 178.839 114.617 179.167 114.067C179.524 113.48 179.983 112.778 180.544 111.96C181.1 111.11 181.681 110.56 182.286 110.309C182.919 110.02 183.417 109.851 183.781 109.801C184.525 109.833 185.155 110.134 185.671 110.702C186.214 111.233 186.634 112.084 186.929 113.255C186.992 113.717 187.018 114.269 187.005 114.91C187.025 115.547 187.035 115.865 187.035 115.865C187.035 115.865 187.251 115.482 187.685 114.716C188.151 113.945 188.79 113.084 189.601 112.132C190.165 111.583 190.74 111.235 191.325 111.088C191.906 110.907 192.462 111.033 192.992 111.465C193.914 111.809 194.573 112.442 194.968 113.364C195.359 114.252 195.588 115.432 195.656 116.903C195.674 117.775 195.746 118.422 195.871 118.842C195.991 119.229 196.145 119.612 196.331 119.99C196.614 120.086 196.702 120.36 196.595 120.812C196.485 121.231 196.314 121.456 196.082 121.488C195.752 121.533 195.363 121.519 194.916 121.446C194.502 121.368 194.109 121.203 193.738 120.951C193.395 120.662 193.186 120.236 193.109 119.675L192.687 116.604C192.588 115.877 192.473 115.287 192.344 114.834C192.247 114.376 192.126 114.107 191.981 114.026C191.59 113.878 191.091 114.165 190.484 114.887C189.876 115.61 189.249 116.554 188.601 117.719C187.953 118.885 187.36 120.076 186.82 121.294C186.333 122.404 186.018 123.053 185.876 123.241C185.762 123.391 185.507 123.375 185.113 123.194C184.354 123.062 183.849 122.812 183.596 122.443C183.372 122.036 183.29 121.56 183.35 121.013C183.438 120.429 183.532 119.642 183.632 118.653C183.765 117.659 183.886 116.7 183.994 115.777C184.099 114.821 184.157 114.14 184.169 113.734C184 113.488 183.758 113.438 183.441 113.582C183.153 113.689 182.86 113.88 182.561 114.157C182.201 114.475 181.79 115.036 181.328 115.84C180.867 116.643 180.404 117.565 179.941 118.604C179.631 119.286 179.304 119.97 178.961 120.656C178.613 121.31 178.289 121.892 177.989 122.404C177.689 122.917 177.423 123.306 177.191 123.574C176.828 124.364 176.569 124.803 176.413 124.892C176.256 124.98 175.931 124.941 175.437 124.773ZM203.672 122.617C203.243 122.676 202.885 122.641 202.598 122.512C202.344 122.379 202.015 122.188 201.611 121.941C200.893 121.366 200.361 120.8 200.016 120.242C199.665 119.651 199.501 119.067 199.523 118.492C199.586 118.215 199.585 117.962 199.521 117.736C199.484 117.472 199.466 117.34 199.466 117.34C199.278 117.197 199.215 117.105 199.277 117.063C199.334 116.988 199.386 116.879 199.434 116.738C199.632 116.711 199.674 116.52 199.558 116.166C199.455 115.911 199.508 115.315 199.716 114.378C199.924 113.441 200.221 112.542 200.608 111.682C200.761 111.325 200.999 110.854 201.323 110.272C201.643 109.656 201.997 109.052 202.387 108.46C202.805 107.831 203.19 107.324 203.541 106.94C204.272 106.133 204.928 105.521 205.51 105.105C206.092 104.689 206.735 104.348 207.439 104.083C208.143 103.819 208.627 103.668 208.891 103.632C209.189 103.591 209.621 103.801 210.189 104.262C210.994 104.488 211.593 104.809 211.987 105.226C212.413 105.639 212.737 106.284 212.959 107.162C213.194 108.139 213.267 109.29 213.18 110.614C213.121 111.901 212.56 113.576 211.497 115.639C210.834 116.941 210.197 117.937 209.585 118.627C208.968 119.283 208.22 119.958 207.339 120.651C206.709 121.208 206.129 121.641 205.599 121.949C205.065 122.224 204.423 122.447 203.672 122.617ZM207.708 116.714C208.378 115.714 208.89 114.786 209.244 113.93C209.63 113.069 209.954 111.998 210.216 110.718C210.299 110.336 210.32 109.879 210.281 109.346C210.237 108.78 210.15 108.271 210.02 107.817C209.919 107.327 209.765 107.062 209.558 107.023C209.13 106.846 208.642 106.846 208.094 107.022C207.542 107.165 206.974 107.562 206.391 108.214C205.485 109.213 204.74 110.409 204.157 111.801C203.57 113.16 203.024 114.698 202.519 116.416C202.187 117.673 202.203 118.647 202.566 119.337C202.959 119.99 203.604 120.154 204.501 119.829C205.427 119.466 206.496 118.428 207.708 116.714ZM242.247 116.217C241.804 116.177 241.399 116.047 241.033 115.828C240.662 115.576 240.381 115.245 240.19 114.834C239.999 114.422 239.94 113.993 240.013 113.546C240.101 112.962 240.175 112.396 240.235 111.85C240.323 111.266 240.364 110.705 240.357 110.168C240.35 109.866 240.406 109.421 240.527 108.832C240.677 108.206 240.82 107.53 240.956 106.805C241.092 106.08 241.119 105.42 241.038 104.826C240.984 104.429 240.886 104.089 240.747 103.806C240.602 103.489 240.37 103.268 240.05 103.144C239.368 102.834 238.691 102.675 238.016 102.666C237.375 102.653 236.699 102.628 235.987 102.591C235.917 102.567 235.686 102.599 235.294 102.686C234.935 102.769 234.621 102.812 234.353 102.815C234.303 103.192 234.254 103.569 234.205 103.946C234.156 104.323 234.123 104.697 234.107 105.069C234.029 105.484 233.944 105.967 233.851 106.518C233.758 107.069 233.68 107.601 233.616 108.114C233.531 108.967 233.466 109.599 233.421 110.008C233.377 110.418 233.315 110.83 233.238 111.245C233.193 111.655 233.095 112.291 232.944 113.152C232.89 113.496 232.851 113.821 232.825 114.128C232.8 114.434 232.725 114.747 232.601 115.067C232.553 115.208 232.536 115.328 232.549 115.427C232.559 115.493 232.574 115.609 232.597 115.774C232.629 116.005 232.592 116.229 232.487 116.445C232.411 116.624 232.299 116.79 232.152 116.945C232.034 117.062 231.88 117.168 231.691 117.261C231.502 117.354 231.331 117.461 231.18 117.583C230.813 117.364 230.548 117.148 230.384 116.935C230.221 116.722 229.984 116.469 229.674 116.175C229.759 115.322 229.832 114.504 229.893 113.722C229.987 112.935 230.064 112.269 230.124 111.722C230.212 111.138 230.296 110.773 230.377 110.628C230.515 110.407 230.562 110.014 230.518 109.448C230.507 108.877 230.581 108.312 230.74 107.752C230.657 107.393 230.661 107.056 230.753 106.741C230.839 106.392 230.926 106.044 231.013 105.696C231.163 105.069 231.211 104.44 231.158 103.808C231.134 103.139 231.144 102.481 231.19 101.836C231.517 101.522 231.778 101.335 231.971 101.274C232.16 101.181 232.467 101.089 232.892 100.997C232.912 100.893 232.931 100.79 232.95 100.686C232.965 100.549 232.983 100.429 233.002 100.326C233.481 99.8899 234.149 99.6131 235.008 99.4954C235.866 99.3776 236.592 99.3959 237.185 99.55C237.289 99.5695 237.374 99.5747 237.44 99.5656C237.506 99.5565 237.607 99.5595 237.744 99.5744C238.079 99.5621 238.491 99.6234 238.98 99.7581C239.465 99.8598 239.941 100.013 240.406 100.219C240.872 100.424 241.236 100.626 241.499 100.826C242.278 101.358 242.838 102.005 243.178 102.766C243.551 103.522 243.794 104.313 243.907 105.139C244.032 106.299 243.991 107.466 243.781 108.638C243.567 109.778 243.409 110.708 243.306 111.429C243.266 111.872 243.25 112.244 243.257 112.546C243.298 112.843 243.403 113.114 243.571 113.361C243.739 113.607 243.962 113.879 244.238 114.177C244.228 114.347 244.13 114.613 243.944 114.975C243.786 115.299 243.576 115.48 243.311 115.516C243.08 115.547 242.893 115.657 242.751 115.845C242.637 115.995 242.469 116.119 242.247 116.217ZM255.319 114.374C254.644 114.601 254.205 114.712 254.002 114.706C253.828 114.662 253.537 114.5 253.128 114.22C252.564 114.028 252.073 113.759 251.655 113.413C251.27 113.062 250.966 112.683 250.742 112.276C250.547 111.832 250.445 111.459 250.437 111.157C250.378 109.988 250.489 108.711 250.77 107.327C251.051 105.942 251.438 104.594 251.931 103.281C252.424 101.969 252.991 100.831 253.633 99.8684C254.303 98.868 254.984 98.1859 255.674 97.8221C256.298 97.4674 256.912 97.2822 257.516 97.2668C258.119 97.2513 258.591 97.5062 258.933 98.0313C259.559 98.9211 259.528 99.5479 258.837 99.9117C258.738 99.9253 258.629 99.9907 258.511 100.108C258.388 100.192 258.335 100.3 258.353 100.432C258.495 100.48 258.86 100.447 259.45 100.332C260.035 100.185 260.616 100.004 261.193 99.7906C261.797 99.5394 262.188 99.3177 262.363 99.1254C262.548 98.9992 262.689 98.9293 262.789 98.9157C262.888 98.9021 263.14 98.9011 263.545 98.9128C264.129 99.001 264.437 99.1606 264.469 99.3918C264.487 99.5239 264.555 99.6492 264.672 99.7677C264.784 99.8532 264.907 99.8869 265.039 99.8688C265.275 99.8701 265.262 100.023 265.001 100.328C264.773 100.629 264.36 101.055 263.763 101.608C263.19 102.091 262.83 102.409 262.683 102.564C262.565 102.681 262.58 102.914 262.729 103.264C263.079 103.855 263.195 104.58 263.077 105.437C262.959 106.294 262.662 107.193 262.185 108.133C261.709 109.073 261.093 109.982 260.339 110.859C259.613 111.699 258.807 112.449 257.922 113.108C257.065 113.731 256.198 114.152 255.319 114.374ZM254.178 112.31C254.311 112.292 254.533 112.194 254.845 112.016C255.152 111.806 255.398 111.638 255.583 111.511C255.697 111.361 255.842 111.19 256.017 110.998C256.221 110.768 256.387 110.627 256.515 110.576C256.647 110.558 256.805 110.486 256.99 110.36C257.17 110.2 257.416 109.914 257.73 109.501C258.039 109.055 258.438 108.411 258.929 107.57C259.489 106.753 259.911 106.023 260.193 105.378C260.47 104.701 260.49 104.11 260.252 103.604C260.201 103.476 260.09 103.407 259.921 103.397C259.784 103.382 259.591 103.324 259.342 103.224C259.012 103.269 258.687 103.23 258.367 103.105C258.075 102.943 257.728 102.739 257.324 102.491L256.395 101.609L255.669 102.567C255.213 103.168 254.76 104.037 254.31 105.176C253.889 106.276 253.555 107.399 253.309 108.543C253.057 109.654 252.942 110.528 252.962 111.164C252.996 111.664 253.124 111.983 253.345 112.121C253.566 112.259 253.844 112.322 254.178 112.31ZM274.796 112.308C274.394 112.565 273.91 112.716 273.344 112.76C272.778 112.804 271.994 112.726 270.991 112.527C270.925 112.537 270.767 112.491 270.518 112.39C270.302 112.286 270.064 112.15 269.806 111.983C269.576 111.779 269.377 111.554 269.209 111.308C268.576 110.621 268.208 109.528 268.103 108.028C267.998 106.528 268.216 104.682 268.756 102.488C268.919 101.961 269.18 101.286 269.538 100.463C269.93 99.6355 270.313 98.8763 270.69 98.1855C271.094 97.457 271.389 97.0297 271.574 96.9035C271.574 96.9035 271.746 96.8125 272.091 96.6306C272.436 96.4487 272.869 96.1706 273.39 95.7964C273.546 95.7077 273.719 95.6168 273.908 95.5235C274.13 95.4258 274.354 95.3446 274.581 95.2798C274.808 95.2151 275.006 95.1879 275.175 95.1983C275.84 95.1408 276.551 95.2956 277.308 95.6628C278.094 95.9925 278.758 96.4229 279.302 96.9539C279.841 97.4519 280.058 97.9269 279.952 98.3789C279.961 98.4449 279.88 98.5906 279.709 98.8159C279.566 99.0037 279.393 99.2125 279.189 99.4423C279.014 99.6346 278.871 99.8224 278.762 100.006C278.624 100.226 278.404 100.341 278.102 100.348C277.833 100.352 277.568 100.253 277.305 100.054C277.07 99.817 276.91 99.5026 276.822 99.1109C276.72 98.8557 276.438 98.642 275.977 98.4697C275.549 98.2929 275.335 98.2045 275.335 98.2045C275.071 98.2407 274.725 98.5405 274.298 99.1038C273.899 99.6295 273.513 100.254 273.142 100.978C272.629 101.654 272.214 102.434 271.898 103.319C271.578 104.17 271.335 104.977 271.17 105.74C271.034 106.465 270.937 106.983 270.879 107.294C270.792 107.643 270.839 108.107 271.02 108.688C271.2 109.269 271.365 109.616 271.516 109.73C271.657 109.778 271.989 109.749 272.513 109.644C273.07 109.534 273.722 109.377 274.468 109.174C275.209 108.938 275.932 108.687 276.636 108.423C277.339 108.158 277.909 107.895 278.344 107.633C278.917 107.151 279.43 106.845 279.884 106.715C280.337 106.586 280.684 106.538 280.924 106.573C281.305 106.655 281.545 106.807 281.643 107.029C281.74 107.251 281.694 107.527 281.504 107.856C281.309 108.152 280.951 108.487 280.43 108.861C279.938 109.198 279.5 109.561 279.116 109.95C278.76 110.301 278.594 110.56 278.617 110.725C278.485 110.743 278.343 110.813 278.191 110.934C278.068 111.019 277.955 111.051 277.851 111.032C277.785 111.041 277.528 111.126 277.079 111.289C276.63 111.451 276.167 111.633 275.69 111.833C275.246 112.028 274.948 112.187 274.796 112.308ZM287.571 109.396C287.177 109.214 286.806 108.963 286.458 108.64C286.107 108.284 285.89 107.809 285.809 107.215C285.764 106.885 285.753 106.314 285.776 105.504C285.799 104.693 285.859 103.776 285.954 102.754C286.049 101.732 286.154 100.775 286.267 99.8848C286.516 99.2451 286.715 98.6122 286.865 97.986C287.014 97.3599 287.08 96.9808 287.062 96.8487C287.074 96.4433 287.093 95.9697 287.12 95.4277C287.179 94.8812 287.246 94.3842 287.319 93.9368C287.392 93.4893 287.457 93.2281 287.514 93.153C287.657 92.9652 287.841 92.839 288.068 92.7742C288.29 92.6765 288.526 92.6778 288.775 92.7782C289.053 92.8411 289.28 93.0285 289.458 93.3407C289.875 93.6871 290.123 94.1411 290.2 94.7025C290.272 95.2309 290.199 96.0484 289.981 97.155C289.774 97.8562 289.583 98.673 289.408 99.6055C289.233 100.538 289.082 101.4 288.955 102.191C288.857 102.945 288.809 103.456 288.812 103.725L287.863 104.158C288.351 103.552 288.805 102.935 289.224 102.306C289.637 101.643 289.937 101.131 290.123 100.769C290.58 99.9326 290.973 99.2395 291.302 98.6898C291.658 98.1025 292.117 97.4003 292.678 96.5832C293.234 95.7331 293.815 95.1824 294.42 94.9313C295.053 94.6425 295.551 94.4733 295.915 94.4234C296.659 94.4559 297.289 94.7564 297.805 95.325C298.349 95.8561 298.768 96.707 299.063 97.8777C299.127 98.3401 299.152 98.8918 299.139 99.5328C299.159 100.169 299.169 100.488 299.169 100.488C299.169 100.488 299.385 100.105 299.819 99.3386C300.285 98.5681 300.924 97.7067 301.735 96.7543C302.299 96.2059 302.874 95.8579 303.459 95.7103C304.04 95.5297 304.596 95.6554 305.126 96.0874C306.048 96.432 306.707 97.065 307.102 97.9865C307.493 98.8749 307.723 100.055 307.79 101.526C307.808 102.398 307.88 103.044 308.005 103.465C308.126 103.852 308.279 104.235 308.465 104.613C308.748 104.709 308.836 104.983 308.729 105.435C308.619 105.853 308.448 106.079 308.217 106.11C307.886 106.156 307.497 106.142 307.05 106.069C306.636 105.991 306.243 105.826 305.872 105.574C305.529 105.285 305.32 104.859 305.243 104.298L304.822 101.226C304.722 100.5 304.607 99.91 304.478 99.4567C304.381 98.9989 304.26 98.7295 304.115 98.6486C303.724 98.5002 303.225 98.7873 302.618 99.5099C302.01 100.232 301.383 101.176 300.735 102.342C300.088 103.507 299.494 104.699 298.954 105.917C298.467 107.027 298.153 107.676 298.01 107.863C297.896 108.014 297.642 107.998 297.247 107.817C296.488 107.685 295.983 107.435 295.731 107.066C295.507 106.659 295.424 106.182 295.484 105.636C295.572 105.052 295.666 104.265 295.766 103.276C295.899 102.282 296.02 101.323 296.129 100.4C296.233 99.4434 296.291 98.7626 296.303 98.3572C296.134 98.1111 295.892 98.0603 295.575 98.2046C295.287 98.3114 294.994 98.5031 294.695 98.7795C294.335 99.0981 293.924 99.6591 293.462 100.463C293.001 101.266 292.538 102.188 292.075 103.227C291.765 103.909 291.438 104.593 291.095 105.279C290.747 105.932 290.423 106.515 290.123 107.027C289.823 107.539 289.557 107.929 289.325 108.196C288.962 108.986 288.703 109.426 288.547 109.514C288.391 109.603 288.066 109.564 287.571 109.396ZM316.485 107.601C316.06 107.693 315.709 107.707 315.431 107.644C315.149 107.549 314.794 107.412 314.366 107.235C313.562 106.774 312.94 106.287 312.5 105.775C312.088 105.226 311.861 104.669 311.817 104.103C311.842 103.796 311.806 103.532 311.708 103.31C311.643 103.084 311.611 102.97 311.611 102.97C311.39 102.832 311.31 102.742 311.372 102.7C311.429 102.625 311.465 102.519 311.48 102.383C311.735 102.28 311.743 102.094 311.504 101.824C311.369 101.573 311.337 100.972 311.408 100.02C311.508 99.031 311.683 98.0986 311.933 97.2231C312.048 96.8372 312.214 96.3267 312.43 95.6915C312.678 95.0517 312.96 94.4075 313.275 93.7587C313.585 93.0769 313.88 92.5317 314.161 92.1232C314.774 91.1979 315.334 90.4987 315.841 90.0254C316.377 89.5146 316.99 89.0772 317.68 88.7134C318.304 88.3586 318.763 88.1444 319.056 88.0706C319.348 87.9968 319.788 88.1383 320.376 88.4952C321.2 88.6177 321.84 88.8664 322.295 89.2414C322.778 89.5788 323.195 90.161 323.544 90.9879C323.939 91.9094 324.178 93.0374 324.26 94.3719C324.371 95.6689 324.038 97.4137 323.262 99.6061C322.811 100.98 322.317 102.04 321.78 102.787C321.276 103.529 320.645 104.322 319.886 105.166C319.331 105.781 318.81 106.273 318.322 106.642C317.834 107.012 317.222 107.332 316.485 107.601ZM319.64 101.163C320.164 100.081 320.552 99.103 320.802 98.2275C321.08 97.3146 321.247 96.1982 321.301 94.8786C321.318 94.5063 321.273 94.0582 321.167 93.5343C321.057 92.9774 320.905 92.4769 320.709 92.0327C320.547 91.5839 320.364 91.3566 320.161 91.3508C319.71 91.2445 319.231 91.3102 318.725 91.5478C318.215 91.7523 317.691 92.2279 317.154 92.9744C316.683 93.7119 316.273 94.5251 315.924 95.4141C315.608 96.2986 315.336 97.2611 315.109 98.3016C314.882 99.3422 314.68 100.447 314.503 101.615C314.345 102.915 314.493 103.87 314.947 104.481C315.434 105.087 316.101 105.164 316.947 104.711C317.789 104.226 318.686 103.043 319.64 101.163ZM329.745 105.833C329.349 105.887 328.995 105.885 328.684 105.827C328.402 105.731 328.165 105.596 327.972 105.42C327.809 105.207 327.645 104.994 327.481 104.781C327.313 104.535 327.159 104.27 327.019 103.986C327.049 103.713 327.161 103.428 327.356 103.133C327.551 102.837 327.862 102.777 328.29 102.954C328.356 102.945 328.427 102.969 328.502 103.026C328.577 103.083 328.669 103.138 328.777 103.19C329.922 102.461 330.813 101.599 331.45 100.603C332.116 99.5695 332.735 98.4416 333.308 97.2191C332.724 97.131 332.126 96.9438 331.515 96.6575C330.936 96.3667 330.505 96.039 330.219 95.6744C329.816 95.1913 329.516 94.5933 329.317 93.8803C329.118 93.1674 328.981 92.7824 328.906 92.7254C329.113 92.0242 329.218 91.4379 329.22 90.9665C329.256 90.4905 329.327 90.0266 329.433 89.5746C329.535 89.0896 329.776 88.5182 330.157 87.8604C330.457 87.3482 330.844 86.8578 331.318 86.389C331.787 85.8873 332.252 85.4703 332.711 85.1382C333.17 84.8061 333.515 84.6241 333.746 84.5924C334.128 84.6747 334.472 84.6107 334.78 84.4003C335.087 84.1898 335.415 84.128 335.764 84.2149C335.9 84.2298 336.018 84.2304 336.117 84.2168C336.245 84.1657 336.344 84.1521 336.414 84.1761C337.263 84.228 338.021 84.3595 338.689 84.5707C339.357 84.7819 339.845 85.2702 340.152 86.0356C340.082 86.7517 339.995 87.4701 339.892 88.1908C339.818 88.874 339.644 89.5707 339.371 90.281C339.127 90.9537 338.887 91.6595 338.652 92.3983C338.446 93.0995 338.152 93.7791 337.771 94.4369L337.911 94.7205C338.283 94.7368 338.74 94.7582 339.282 94.7848C339.853 94.7739 340.155 94.7661 340.188 94.7616C340.564 94.8109 340.901 94.933 341.197 95.1279C341.521 95.2853 341.866 95.4734 342.233 95.6923C342.284 95.8199 342.302 95.952 342.287 96.0886C342.272 96.2253 342.227 96.3829 342.15 96.5616C341.887 97.338 341.609 98.1331 341.317 98.947C341.02 99.7279 340.742 100.523 340.483 101.332C340.396 101.681 340.337 102.109 340.306 102.618C340.275 103.127 340.197 103.542 340.073 103.862C339.816 104.2 339.643 104.408 339.553 104.488C339.492 104.53 339.423 104.523 339.348 104.466C339.273 104.409 339.087 104.401 338.79 104.441C338.314 104.406 337.966 104.201 337.747 103.827C337.649 103.605 337.52 103.404 337.361 103.224C337.235 103.04 337.187 102.811 337.216 102.537C337.255 102.33 337.296 102.139 337.34 101.965C337.379 101.758 337.436 101.565 337.513 101.386C337.705 100.822 337.863 100.262 337.989 99.7062C338.115 99.1506 338.259 98.6093 338.422 98.0822C338.536 97.932 338.577 97.7413 338.546 97.5102L338.199 97.5577C337.996 97.5519 337.761 97.5505 337.492 97.5537C337.252 97.5194 336.981 97.5061 336.679 97.5138C336.532 97.6686 336.354 97.8443 336.146 98.0412C335.933 98.205 335.785 98.4775 335.703 98.8589C335.394 99.305 335.108 99.7984 334.846 100.339C334.612 100.842 334.31 101.338 333.939 101.826C333.569 102.314 333.198 102.802 332.828 103.291C332.491 103.774 332.104 104.265 331.667 104.762C331.013 105.39 330.372 105.747 329.745 105.833ZM334.276 94.7143C334.437 94.6586 334.641 94.4288 334.888 94.0247C335.164 93.5832 335.436 93.1086 335.702 92.6009C335.998 92.0558 336.25 91.5669 336.46 91.1344C336.665 90.6688 336.778 90.3843 336.797 90.2807C336.806 90.3467 336.852 90.189 336.934 89.8077C337.017 89.4263 337.106 88.9766 337.204 88.4586C337.334 87.936 337.452 87.4488 337.558 86.9968C337.664 86.5449 337.715 86.3024 337.711 86.2694C337.241 86.031 336.874 85.93 336.609 85.9662C336.345 86.0024 336.041 86.1115 335.695 86.2934C334.519 86.7912 333.589 87.4907 332.905 88.392C332.216 89.2603 331.774 90.3302 331.578 91.602C331.468 92.761 331.663 93.6931 332.164 94.3984C332.693 95.066 333.397 95.1713 334.276 94.7143ZM358.994 101.519C358.787 101.48 358.582 101.458 358.379 101.452C358.172 101.413 357.965 101.374 357.758 101.335C357.583 101.292 357.379 101.27 357.143 101.268C356.749 100.851 356.54 100.308 356.516 99.6385C356.487 98.9359 356.538 98.2055 356.669 97.4473C356.834 96.6845 356.984 95.9405 357.12 95.2153C357.289 94.4856 357.356 93.8708 357.322 93.3709C357.27 93.2433 357.216 93.2171 357.159 93.2922C357.098 93.3343 357.072 93.3883 357.081 93.4544C356.886 93.7503 356.58 93.9772 356.165 94.1351C355.749 94.2931 355.364 94.43 355.01 94.5458C354.396 94.731 353.784 94.9326 353.175 95.1507C352.566 95.3689 351.975 95.6013 351.403 95.8479C351.295 95.7954 351.168 95.7287 351.022 95.6478C350.91 95.5623 350.799 95.4933 350.691 95.4409C350.46 95.4726 350.291 95.7144 350.185 96.1663C350.079 96.6183 350.003 97.1671 349.957 97.8126C349.906 98.4252 349.853 99.0212 349.798 99.6008C349.772 100.143 349.725 100.536 349.657 100.781C349.138 100.919 348.76 100.988 348.525 100.987C348.322 100.981 347.929 100.934 347.345 100.846C347.031 100.519 346.834 100.192 346.756 99.8665C346.711 99.5363 346.71 99.1662 346.755 98.7564C346.816 97.9742 346.865 97.3451 346.9 96.8692C346.969 96.3887 347.102 95.7648 347.3 94.9975C347.415 94.6116 347.516 94.2445 347.603 93.8961C347.718 93.5102 347.746 93.1026 347.687 92.6733C347.906 92.3068 348.038 91.9187 348.083 91.5088C348.128 91.0989 348.189 90.6868 348.267 90.2724C348.609 88.8459 348.879 87.749 349.077 86.9817C349.303 86.1769 349.453 85.5508 349.526 85.1033C349.599 84.6559 349.627 84.2483 349.611 83.8805C349.58 83.4136 349.829 83.1439 350.358 83.0715C350.688 83.0262 351.053 83.1107 351.452 83.3251C351.847 83.5065 352.169 83.7652 352.417 84.1013C352.665 84.4374 352.733 84.8149 352.622 85.2338C352.56 85.5116 352.453 85.9636 352.304 86.5897C352.183 87.1783 352.037 87.8375 351.868 88.5672C351.728 89.2594 351.583 89.9186 351.433 90.5447C351.312 91.1333 351.203 91.5687 351.107 91.851C351.093 91.9877 351.042 92.1123 350.957 92.225C350.867 92.3046 350.833 92.427 350.856 92.5921C351.11 92.7255 351.498 92.7395 352.022 92.634C352.575 92.491 352.957 92.3375 353.17 92.1737C353.666 92.1058 354.145 92.0401 354.607 91.9767C355.102 91.9088 355.598 91.8409 356.093 91.773C356.629 92.0022 357.07 92.396 357.416 92.9542C357.561 92.295 357.761 91.4264 358.017 90.3483C358.269 89.2372 358.506 88.1448 358.729 87.0713C358.952 85.9977 359.06 85.1922 359.053 84.6548C359.079 84.3485 359.175 84.0662 359.341 83.8078C359.507 83.5495 359.697 83.3384 359.91 83.1746C360.404 83.3424 360.877 83.4794 361.329 83.5856C361.81 83.6543 362.159 83.9934 362.377 84.6027C362.385 84.9045 362.36 85.2107 362.301 85.5215C362.238 85.7993 362.176 86.0771 362.113 86.3549C361.914 87.3579 361.646 88.4712 361.309 89.695C360.968 90.8858 360.664 92.105 360.398 93.3528C360.16 94.563 360.029 95.6913 360.004 96.7377C360.017 96.8367 359.98 97.1783 359.892 97.7624C359.837 98.3419 359.763 98.9072 359.67 99.4582C359.611 100.005 359.567 100.297 359.538 100.334C359.57 100.565 359.533 100.789 359.428 101.005C359.319 101.189 359.174 101.36 358.994 101.519ZM369.284 99.5025C369.044 99.4682 368.721 99.4451 368.315 99.4334C367.91 99.4217 367.531 99.356 367.178 99.2361C366.854 99.0787 366.671 98.8514 366.63 98.5542C366.594 98.29 366.579 98.0566 366.585 97.8539C366.619 97.6137 366.724 97.3974 366.9 97.2051C366.924 97.1345 366.933 97.0827 366.929 97.0497C366.924 97.0167 366.936 96.9814 366.965 96.9439C366.942 96.7787 366.889 96.6347 366.805 96.5116C366.72 96.3886 366.698 96.2235 366.737 96.0163C366.819 95.6349 366.877 95.3241 366.912 95.0838C366.974 94.8061 366.979 94.469 366.924 94.0727C366.915 94.0067 366.906 93.9406 366.897 93.8746C366.884 93.7755 366.889 93.6907 366.913 93.6201C367.077 92.8573 367.19 92.0849 367.251 91.3027C367.312 90.5205 367.46 89.76 367.695 89.0212C367.974 88.1082 368.332 86.9152 368.769 85.4421C369.202 83.936 369.551 82.5591 369.817 81.3114C369.9 80.93 370.017 80.6784 370.168 80.5567C370.348 80.3974 370.556 80.3185 370.792 80.3198C371.192 80.2985 371.62 80.4753 372.076 80.8503C372.526 81.1922 372.871 81.4982 373.11 81.7682C372.866 82.441 372.571 83.2384 372.227 84.1604C371.911 85.0449 371.609 85.9106 371.321 86.7575C371.062 87.5669 370.884 88.2306 370.787 88.7486C371.254 88.7182 371.799 88.6435 372.421 88.5244C373.073 88.3678 373.717 88.2795 374.353 88.2595C375.089 88.2259 375.733 88.1376 376.285 87.9946C376.838 87.8515 377.454 87.6829 378.134 87.4888C378.231 86.9707 378.319 86.3867 378.398 85.7366C378.51 85.082 378.62 84.4108 378.728 83.7231C378.868 83.031 379.065 82.3815 379.318 81.7748C379.572 81.1681 379.926 80.6822 380.38 80.317C380.635 80.2148 380.833 80.1876 380.975 80.2355C381.111 80.2504 381.306 80.3246 381.56 80.458C382.035 80.7294 382.385 80.9506 382.61 81.1215C382.864 81.255 382.974 81.4418 382.939 81.682C382.905 81.9222 382.742 82.3315 382.452 82.9097C382.27 83.3046 382.164 83.7566 382.133 84.2655C382.097 84.7415 381.97 85.1627 381.751 85.5291C381.694 85.6042 381.603 85.9196 381.477 86.4751C381.351 87.0307 381.208 87.7064 381.048 88.5022C380.888 89.2979 380.728 90.0937 380.568 90.8895C380.408 91.6853 380.268 92.3775 380.147 92.9661C380.058 93.5501 380.021 93.8917 380.035 93.9908C380.061 94.4246 380.056 94.8795 380.02 95.3554C379.98 95.7983 379.991 96.2509 380.055 96.7133C380.091 96.9775 380.036 97.1869 379.889 97.3417C379.77 97.4589 379.595 97.5333 379.364 97.565C379.034 97.6103 378.659 97.5776 378.24 97.4668C377.821 97.356 377.504 97.2482 377.288 97.1432C377.142 97.0623 377.004 96.913 376.873 96.6954C376.775 96.4733 376.698 96.282 376.643 96.1214C376.728 95.2686 376.852 94.4608 377.017 93.6981C377.21 92.8977 377.368 92.0854 377.49 91.2612C377.538 91.12 377.553 90.9834 377.535 90.8513C377.517 90.7192 377.466 90.5916 377.382 90.4686C376.269 90.4529 375.158 90.5716 374.049 90.8246C372.94 91.0777 371.845 91.312 370.764 91.5275C370.622 91.7152 370.478 92.1387 370.333 92.7978C370.216 93.4194 370.12 94.0718 370.046 94.7549C369.967 95.4051 369.9 95.902 369.847 96.2458C369.911 96.4725 369.924 96.8073 369.883 97.2502C369.843 97.6931 369.77 98.1405 369.664 98.5925C369.553 99.0114 369.426 99.3147 369.284 99.5025ZM391.389 96.1684C391.134 96.2706 390.792 96.3512 390.362 96.4101C389.928 96.4359 389.542 96.4385 389.203 96.4177C388.892 96.3594 388.73 96.2807 388.716 96.1816C388.693 96.0165 388.599 95.9453 388.434 95.9679C388.434 95.9679 388.343 95.9132 388.159 95.8037C388.009 95.6898 387.776 95.5871 387.461 95.4958C387.101 95.0742 386.884 94.5992 386.812 94.0708C386.735 93.5094 386.763 92.6139 386.897 91.3842C386.883 90.545 387.066 89.5443 387.445 88.3821C387.852 87.1822 388.373 85.9501 389.007 84.6855C389.641 83.421 390.324 82.2675 391.056 81.2251C391.82 80.1781 392.537 79.3902 393.204 78.8612C393.603 78.3355 394.131 78.0108 394.787 77.8872C395.443 77.7636 396.091 77.8262 396.73 78.0749C397.083 78.1947 397.45 78.4136 397.83 78.7316C398.21 79.0496 398.578 79.4029 398.934 79.7914C399.29 80.18 399.597 80.5753 399.854 80.9775C400.002 81.3272 400.097 81.6506 400.138 81.9478C400.207 82.2075 400.253 82.5377 400.274 82.9386C400.328 83.3349 400.36 83.9361 400.37 84.7423C400.286 85.3593 400.237 86.1062 400.223 86.983C400.242 87.8552 400.294 88.605 400.38 89.2325C400.4 89.869 400.527 90.3058 400.762 90.5428C401.029 90.7753 401.361 90.7465 401.759 90.4565C402.128 90.204 402.497 90.0694 402.864 90.0526C403.228 90.0028 403.522 90.0633 403.747 90.2343C404.006 90.4007 404.162 90.6821 404.216 91.0784C404.271 91.4747 404.129 91.9147 403.792 92.3983C403.483 92.8444 403.068 93.2546 402.547 93.6288C402.055 93.9655 401.561 94.1678 401.066 94.2357C400.703 94.2855 400.327 94.1184 399.938 93.7344C399.544 93.3173 399.172 92.8132 398.822 92.2219C398.5 91.5932 398.199 90.9951 397.92 90.4279L397.466 89.3293L395.615 91.6524C395.249 92.1736 394.878 92.6618 394.503 93.1169C394.157 93.5346 393.945 93.8327 393.869 94.0114C393.745 94.3313 393.472 94.6715 393.05 95.0321C392.661 95.3882 392.108 95.767 391.389 96.1684ZM391.137 93.2253C391.653 92.8181 392.231 92.2509 392.872 91.5238C393.508 90.7637 394.12 89.9563 394.71 89.1017C395.294 88.214 395.773 87.4082 396.145 86.6843C396.602 85.8478 396.934 85.0789 397.14 84.3776C397.347 83.6764 397.476 83.0195 397.526 82.4069C397.344 82.0618 397.078 81.7114 396.726 81.3559C396.37 80.9674 396.074 80.7724 395.838 80.7711C395.112 80.8707 394.399 81.4395 393.7 82.4774C393.03 83.4777 392.388 84.5584 391.773 85.7193C391.663 85.9025 391.518 86.1916 391.337 86.5866C391.155 86.9816 390.972 87.36 390.786 87.722C390.628 88.0464 390.524 88.2626 390.471 88.3708C390.39 88.5164 390.244 88.9234 390.033 89.5916C389.85 90.2223 389.67 90.8695 389.492 91.5332C389.309 92.1638 389.231 92.5782 389.258 92.7764C389.286 92.9745 389.331 93.1869 389.396 93.4135C389.494 93.6357 389.679 93.7616 389.953 93.7914C390.226 93.8213 390.621 93.6326 391.137 93.2253ZM418.112 75.2437C418.573 75.416 418.886 75.6086 419.049 75.8217C419.209 76.0017 419.525 76.3453 419.998 76.8523C419.973 77.1586 419.935 77.618 419.884 78.2306C419.862 78.8056 419.822 79.3663 419.762 79.9128C419.702 80.4593 419.625 80.8738 419.529 81.1561C419.658 81.6093 419.635 82.3022 419.46 83.2346C419.314 84.1295 419.158 85.0761 418.992 86.0746C418.821 87.04 418.698 87.9822 418.622 88.901C418.547 89.8198 418.62 90.6004 418.843 91.2428C418.753 91.3224 418.665 91.4186 418.579 91.5312C418.527 91.6394 418.439 91.7355 418.316 91.8197C417.947 92.0722 417.553 92.143 417.134 92.0322C416.715 91.9215 416.363 91.6838 416.077 91.3192C415.787 90.9216 415.66 90.4848 415.696 90.0089C415.736 89.566 415.813 88.8994 415.926 88.009C416.035 87.0857 416.149 86.0775 416.269 84.9845C416.388 83.8915 416.495 82.8338 416.59 81.8113C416.681 80.7559 416.759 79.8536 416.825 79.1044C416.89 78.3552 416.907 77.865 416.876 77.6339C416.835 77.3366 416.581 77.2032 416.114 77.2336C415.676 77.2264 415.199 77.3086 414.684 77.4801C414.198 77.6141 413.877 77.7254 413.721 77.8141C413.068 78.2065 412.547 78.6985 412.157 79.2903C411.767 79.8821 411.469 80.5286 411.262 81.2299C411.055 81.9311 410.867 82.6466 410.698 83.3763C410.759 83.57 410.8 83.7493 410.823 83.9144C410.841 84.0465 410.927 84.1861 411.082 84.3331C411.279 84.5416 411.549 84.6728 411.893 84.7266C412.237 84.7803 412.595 84.8154 412.967 84.8316C413.339 84.8478 413.667 84.9039 413.949 84.9997C414.053 85.0192 414.138 85.0244 414.204 85.0153C414.265 84.9732 414.329 84.9477 414.395 84.9386C414.494 84.925 414.586 84.9797 414.67 85.1028C414.955 85.4674 415.166 85.775 415.301 86.0256C415.436 86.2762 415.371 86.6553 415.104 87.1629C414.355 87.8376 413.621 88.4934 412.901 89.1305C412.18 89.7676 411.486 90.4684 410.817 91.2331C410.617 91.496 410.362 91.7161 410.05 91.8935C409.766 92.0333 409.527 92.2512 409.332 92.5471C409.165 92.8054 408.964 93.0518 408.726 93.2861C408.518 93.4829 408.314 93.7128 408.114 93.9757C408.001 94.1259 407.884 94.2596 407.766 94.3768C407.643 94.4609 407.49 94.4483 407.306 94.3388C406.806 94.3737 406.414 94.2089 406.128 93.8443C405.843 93.4797 405.595 93.0258 405.386 92.4825C405.686 91.9703 406.177 91.3815 406.86 90.7159C407.538 90.0173 408.299 89.3074 409.142 88.5861C410.013 87.8273 410.83 87.1602 411.593 86.5846C410.725 86.6363 410.039 86.5452 409.536 86.3114C409.029 86.0446 408.571 85.7709 408.162 85.4905C407.693 85.0165 407.428 84.4304 407.366 83.7324C407.337 83.0298 407.426 82.3279 407.632 81.6267C407.834 80.8924 408.052 80.2737 408.286 79.7706C408.343 79.6955 408.367 79.6249 408.358 79.5589C408.382 79.4883 408.408 79.4343 408.437 79.3967C408.762 78.5783 409.05 77.9836 409.302 77.6126C409.587 77.237 410.061 76.7683 410.725 76.2063C410.966 76.005 411.231 75.8509 411.519 75.7441C411.803 75.6042 412.091 75.4974 412.384 75.4236C412.705 75.3123 413.146 75.2181 413.707 75.1412C414.269 75.0642 414.835 75.0202 415.405 75.0093C415.971 74.9653 416.412 74.989 416.727 75.0803C416.967 75.1147 417.193 75.1678 417.405 75.2397C417.65 75.3071 417.886 75.3084 418.112 75.2437ZM434.817 87.0335C434.809 86.7317 434.856 86.3384 434.958 85.8534C435.06 85.3684 435.164 84.8999 435.27 84.448C435.376 83.996 435.453 83.6994 435.501 83.5583C435.793 82.7444 436.05 81.9185 436.272 81.0806C436.522 80.2052 436.706 79.3388 436.824 78.4815C436.863 78.2743 436.931 77.9117 437.028 77.3937C437.158 76.8712 437.272 76.3509 437.369 75.8329C437.495 75.2773 437.542 74.884 437.51 74.6528C437.513 74.1814 437.621 73.746 437.835 73.3465C438.083 72.9424 438.412 72.6449 438.823 72.454C439.196 72.4702 439.525 72.5428 439.812 72.6717C440.099 72.8005 440.369 72.9317 440.623 73.0651C440.848 73.2361 440.957 73.5408 440.95 73.9791C440.943 74.4175 440.886 74.9805 440.778 75.6682C440.709 76.1486 440.56 76.7748 440.329 77.5466C440.132 78.3139 439.917 79.0835 439.687 79.8553C439.485 80.5895 439.331 81.1827 439.224 81.6346C439.012 82.5385 438.784 83.5791 438.542 84.7562C438.333 85.9289 438.153 86.8283 438.004 87.4544C437.926 87.8688 438.136 88.1764 438.635 88.3772C439.223 88.4984 439.86 88.4784 440.544 88.3172C441.224 88.123 441.864 87.8839 442.465 87.5997C443.094 87.2779 443.607 86.972 444.004 86.682C444.402 86.3919 444.596 86.2139 444.587 86.1478C444.589 85.9121 444.6 85.6246 444.62 85.2853C444.674 84.9415 444.781 84.3717 444.941 83.5759C445.134 82.7756 445.391 81.5797 445.711 79.9881C445.711 79.9881 445.75 79.7809 445.827 79.3665C445.905 78.9521 446.009 78.4836 446.139 77.9611C446.265 77.4055 446.367 76.9205 446.445 76.5061C446.518 76.0587 446.554 75.835 446.554 75.835C446.437 74.9763 446.514 74.1919 446.787 73.4816C447.055 72.7382 447.407 72.2358 447.842 71.9743C448.101 71.905 448.349 71.871 448.585 71.8724C448.82 71.8737 449.032 71.9456 449.22 72.0881C449.516 72.283 449.795 72.4802 450.058 72.6797C450.321 72.8791 450.498 73.1913 450.59 73.6161C450.49 73.8653 450.429 74.1596 450.409 74.4989C450.383 74.8052 450.29 75.104 450.128 75.3954C449.999 75.6822 449.874 76.0021 449.755 76.355C449.663 76.6703 449.652 76.9578 449.722 77.2175L448.875 80.614C448.73 81.2731 448.549 82.0382 448.332 82.9091C448.148 83.7754 448.024 84.3475 447.962 84.6253L449.569 84.203C449.998 84.1441 450.414 84.104 450.814 84.0827C451.211 84.0283 451.679 84.1323 452.22 84.3946C452.319 84.381 452.417 84.4853 452.515 84.7074C452.641 84.892 452.758 85.1283 452.865 85.4165C453.004 85.7001 453.123 85.953 453.221 86.1751C453.185 86.651 453.04 87.3102 452.786 88.1526C452.531 88.995 452.26 89.8397 451.972 90.6866C451.685 91.5335 451.441 92.2063 451.24 92.7048C451.139 92.9541 451.02 93.1891 450.882 93.4099C450.749 93.6637 450.615 93.9176 450.482 94.1714C450.2 94.8156 449.826 95.1529 449.359 95.1833C448.892 95.2137 448.436 94.9566 447.992 94.412C447.942 94.0487 447.954 93.5255 448.029 92.8424C448.141 92.1877 448.214 91.7403 448.248 91.5001C448.268 91.3965 448.371 91.0458 448.558 90.4482C448.75 89.8836 448.939 89.3025 449.127 88.7048C449.314 88.1072 449.394 87.7093 449.367 87.5111C449.377 87.3415 449.326 87.2139 449.213 87.1284C449.101 87.0429 448.983 87.0423 448.86 87.1264C448.761 87.14 448.494 87.2776 448.058 87.5391C447.656 87.7962 447.254 88.0532 446.852 88.3102C446.445 88.5342 446.159 88.6575 445.994 88.6802C445.256 89.1851 444.651 89.5542 444.178 89.7872C443.734 89.9827 443.1 90.2714 442.278 90.6534C440.565 90.9219 439.355 91.0542 438.648 91.0502C437.937 91.0132 437.327 90.8613 436.819 90.5944C436.199 90.2421 435.737 89.8176 435.433 89.3209C435.163 88.8197 434.998 88.3544 434.939 87.9251C434.876 87.4628 434.835 87.1656 434.817 87.0335ZM465.275 85.7334C464.663 86.4229 463.901 86.8806 462.99 87.1065C462.112 87.3278 461.219 87.3158 460.31 87.0702C459.397 86.7917 458.606 86.2946 457.936 85.579C457.275 84.9295 456.798 84.1537 456.506 83.2517C456.21 82.3166 456.023 81.0805 455.947 79.5432C455.87 78.2417 456.106 76.8971 456.656 75.5096C457.201 74.089 457.915 72.7966 458.799 71.6324C459.715 70.4638 460.658 69.6111 461.628 69.0744C462.078 68.6762 462.47 68.471 462.805 68.4588C463.168 68.4089 463.718 68.3672 464.453 68.3337C465.226 68.3286 465.808 68.4002 466.198 68.5485C466.622 68.6923 466.972 68.9135 467.248 69.212C467.812 69.6395 468.21 70.0895 468.443 70.5623C468.671 71.002 468.817 71.453 468.881 71.9153C468.848 72.66 468.475 73.6196 467.762 74.7941C467.076 75.9311 466.102 76.9226 464.839 77.7688C464.144 78.0996 463.365 78.3073 462.502 78.3921C461.638 78.4768 460.899 78.3595 460.283 78.0402C459.619 77.862 459.213 77.9682 459.065 78.3586C458.912 78.716 458.844 79.5666 458.86 80.9102C458.9 82.1832 459.126 83.0943 459.538 83.6435C459.945 84.1596 460.436 84.4287 461.011 84.4508C461.689 84.4923 462.215 84.5212 462.587 84.5374C462.988 84.5161 463.447 84.3018 463.963 83.8946C464.446 83.4919 464.751 83.265 464.879 83.2138C465.002 83.1296 465.092 83.05 465.149 82.9749C465.234 82.8623 465.419 82.6182 465.704 82.2426C465.904 81.9798 466.063 81.7897 466.181 81.6725C466.295 81.5223 466.435 81.4359 466.6 81.4133C466.765 81.3906 466.925 81.4528 467.08 81.5998C467.23 81.7138 467.376 81.7947 467.517 81.8427C467.847 81.7974 467.94 81.9865 467.797 82.4099C467.686 82.8289 467.405 83.3553 466.953 83.9891C466.497 84.59 465.938 85.1714 465.275 85.7334ZM463.785 75.2385C464.126 75.0235 464.474 74.7403 464.829 74.3887C465.18 74.0041 465.463 73.6121 465.677 73.2126C465.92 72.7755 466.024 72.4249 465.987 72.1607C465.924 71.6984 465.657 71.348 465.187 71.1097C464.712 70.8383 464.062 70.8771 463.235 71.226C462.885 71.3749 462.506 71.6792 462.098 72.1389C461.686 72.5655 461.297 73.0395 460.931 73.5607C460.598 74.0774 460.324 74.5355 460.11 74.935C459.928 75.3299 459.875 75.5559 459.95 75.6129C460.072 75.7644 460.371 75.858 460.847 75.8937C461.318 75.8964 461.832 75.8427 462.389 75.7327C462.979 75.6181 463.444 75.4534 463.785 75.2385ZM484.915 84.2512C484.708 84.2124 484.503 84.19 484.3 84.1842C484.093 84.1453 483.886 84.1064 483.679 84.0675C483.505 84.0241 483.3 84.0018 483.064 84.0004C482.67 83.5834 482.461 83.0401 482.437 82.3705C482.408 81.668 482.459 80.9376 482.59 80.1793C482.755 79.4166 482.905 78.6726 483.041 77.9474C483.21 77.2176 483.278 76.6028 483.243 76.1029C483.192 75.9754 483.137 75.9491 483.08 76.0242C483.019 76.0663 482.993 76.1204 483.002 76.1864C482.807 76.4823 482.501 76.7092 482.086 76.8672C481.67 77.0251 481.285 77.162 480.931 77.2779C480.317 77.463 479.705 77.6647 479.096 77.8828C478.487 78.1009 477.896 78.3333 477.324 78.58C477.216 78.5275 477.089 78.4608 476.944 78.3798C476.831 78.2944 476.721 78.2254 476.612 78.1729C476.381 78.2046 476.213 78.4464 476.106 78.8984C476 79.3504 475.924 79.8991 475.878 80.5447C475.827 81.1573 475.774 81.7533 475.719 82.3328C475.693 82.8748 475.646 83.2682 475.578 83.5129C475.059 83.6514 474.681 83.72 474.446 83.7187C474.243 83.7128 473.85 83.6659 473.266 83.5777C472.952 83.2507 472.755 82.9243 472.677 82.5986C472.632 82.2684 472.632 81.8983 472.676 81.4884C472.737 80.7062 472.786 80.0771 472.821 79.6012C472.89 79.1208 473.023 78.4969 473.221 77.7296C473.336 77.3437 473.437 76.9766 473.524 76.6282C473.639 76.2423 473.667 75.8347 473.609 75.4054C473.827 75.0389 473.959 74.6507 474.004 74.2408C474.049 73.831 474.11 73.4188 474.188 73.0044C474.53 71.578 474.801 70.4811 474.998 69.7138C475.224 68.9089 475.374 68.2828 475.447 67.8354C475.52 67.3879 475.549 66.9803 475.532 66.6125C475.501 66.1457 475.75 65.876 476.279 65.8036C476.609 65.7583 476.974 65.8428 477.373 66.0572C477.768 66.2385 478.09 66.4973 478.338 66.8334C478.586 67.1695 478.654 67.547 478.544 67.9659C478.481 68.2437 478.374 68.6956 478.225 69.3218C478.104 69.9104 477.959 70.5695 477.789 71.2993C477.649 71.9915 477.504 72.6506 477.354 73.2768C477.233 73.8653 477.124 74.3008 477.029 74.5831C477.014 74.7197 476.963 74.8444 476.878 74.957C476.788 75.0367 476.754 75.159 476.777 75.3242C477.031 75.4576 477.42 75.4715 477.943 75.3661C478.496 75.223 478.878 75.0696 479.092 74.9058C479.587 74.8379 480.066 74.7722 480.528 74.7088C481.023 74.6409 481.519 74.5729 482.014 74.505C482.55 74.7343 482.991 75.128 483.337 75.6863C483.482 75.0271 483.683 74.1585 483.938 73.0804C484.19 71.9692 484.427 70.8769 484.65 69.8033C484.873 68.7298 484.981 67.9243 484.975 67.3868C485 67.0805 485.096 66.7982 485.262 66.5399C485.429 66.2815 485.618 66.0705 485.831 65.9067C486.325 66.0744 486.798 66.2115 487.25 66.3177C487.731 66.3864 488.08 66.7254 488.298 67.3348C488.306 67.6365 488.281 67.9428 488.222 68.2536C488.16 68.5314 488.097 68.8092 488.034 69.0869C487.835 70.0899 487.567 71.2033 487.23 72.4271C486.889 73.6178 486.585 74.8371 486.319 76.0848C486.081 77.295 485.95 78.4233 485.925 79.4697C485.939 79.5688 485.901 79.9104 485.813 80.4944C485.758 81.0739 485.684 81.6392 485.591 82.1903C485.532 82.7368 485.488 83.0288 485.459 83.0663C485.491 83.2975 485.454 83.5212 485.349 83.7375C485.24 83.9207 485.095 84.092 484.915 84.2512ZM496.799 81.7132C496.544 81.8154 496.202 81.896 495.772 81.9549C495.338 81.9807 494.952 81.9833 494.613 81.9625C494.302 81.9042 494.14 81.8255 494.126 81.7264C494.103 81.5613 494.009 81.4901 493.844 81.5127C493.844 81.5127 493.753 81.458 493.569 81.3486C493.419 81.2346 493.186 81.1319 492.871 81.0406C492.51 80.619 492.294 80.144 492.221 79.6156C492.145 79.0542 492.173 78.1587 492.307 76.9291C492.293 76.0899 492.476 75.0891 492.854 73.9269C493.262 72.7271 493.783 71.4949 494.417 70.2303C495.051 68.9658 495.734 67.8123 496.466 66.7699C497.23 65.7229 497.947 64.935 498.614 64.406C499.013 63.8803 499.541 63.5556 500.197 63.432C500.853 63.3084 501.501 63.371 502.14 63.6197C502.493 63.7396 502.86 63.9585 503.24 64.2764C503.62 64.5944 503.988 64.9477 504.344 65.3363C504.7 65.7248 505.007 66.1202 505.264 66.5223C505.412 66.872 505.507 67.1954 505.548 67.4927C505.617 67.7523 505.663 68.0826 505.684 68.4834C505.738 68.8797 505.77 69.4809 505.78 70.2871C505.696 70.9041 505.647 71.6511 505.633 72.5278C505.652 73.4 505.704 74.1499 505.79 74.7773C505.81 75.4138 505.937 75.8506 506.172 76.0876C506.439 76.3201 506.771 76.2914 507.169 76.0013C507.538 75.7488 507.907 75.6142 508.274 75.5974C508.638 75.5476 508.932 75.6081 509.157 75.7791C509.416 75.9456 509.572 76.2269 509.626 76.6232C509.681 77.0195 509.539 77.4595 509.202 77.9432C508.893 78.3893 508.478 78.7994 507.957 79.1736C507.465 79.5103 506.971 79.7126 506.476 79.7805C506.113 79.8303 505.737 79.6632 505.347 79.2792C504.954 78.8621 504.582 78.358 504.232 77.7668C503.91 77.138 503.609 76.5399 503.33 75.9727L502.876 74.8741L501.025 77.1972C500.659 77.7184 500.288 78.2066 499.913 78.6618C499.567 79.0794 499.355 79.3775 499.279 79.5562C499.154 79.8761 498.882 80.2163 498.46 80.577C498.071 80.9331 497.518 81.3118 496.799 81.7132ZM496.547 78.7701C497.063 78.3629 497.641 77.7958 498.282 77.0687C498.918 76.3085 499.53 75.5012 500.12 74.6465C500.704 73.7588 501.183 72.953 501.554 72.2291C502.012 71.3926 502.344 70.6237 502.55 69.9224C502.757 69.2212 502.886 68.5643 502.936 67.9518C502.754 67.6066 502.488 67.2563 502.136 66.9007C501.78 66.5122 501.484 66.3172 501.248 66.3159C500.522 66.4155 499.809 66.9843 499.11 68.0222C498.44 69.0225 497.797 70.1032 497.183 71.2641C497.073 71.4474 496.928 71.7365 496.747 72.1314C496.565 72.5264 496.382 72.9049 496.196 73.2668C496.038 73.5912 495.933 73.8074 495.881 73.9156C495.8 74.0613 495.654 74.4682 495.443 75.1364C495.26 75.7671 495.08 76.4143 494.902 77.078C494.719 77.7086 494.641 78.123 494.668 78.3212C494.695 78.5193 494.741 78.7317 494.806 78.9584C494.904 79.1805 495.089 79.3064 495.363 79.3363C495.636 79.3661 496.031 79.1774 496.547 78.7701ZM516.318 71.9205C515.416 72.2124 514.744 71.8504 514.302 70.8344C513.859 69.8183 513.743 68.354 513.951 66.4412C514.095 66.0177 514.208 65.6153 514.291 65.2339C514.368 64.8195 514.391 64.4967 514.36 64.2656C514.433 63.8181 514.53 63.3001 514.651 62.7115C514.801 62.0854 514.957 61.5088 515.121 60.9817C515.279 60.4217 515.397 60.0523 515.473 59.8735C515.605 59.8554 515.722 59.7217 515.822 59.4724C515.955 59.2186 516.006 58.9761 515.975 58.745C515.938 58.4808 515.947 58.1768 516.001 57.8329C516.088 57.4846 516.188 57.2353 516.302 57.0851C516.279 56.92 516.321 56.7293 516.426 56.513C516.53 56.2967 516.574 56.1226 516.556 55.9905C516.538 55.8584 516.555 55.7383 516.607 55.6301C516.693 55.5175 516.726 55.3951 516.708 55.263C516.933 54.6939 517.206 53.8657 517.528 52.7785C517.879 51.6538 518.206 50.4819 518.51 49.2626C518.847 48.0388 519.119 46.9585 519.327 46.0215C519.535 45.0846 519.625 44.517 519.598 44.3189C519.628 44.0456 519.7 43.8339 519.814 43.6837C519.928 43.5335 520.122 43.4733 520.395 43.5031C520.513 43.3859 520.639 43.3183 520.771 43.3002C520.898 43.249 521.028 43.2144 521.16 43.1963C521.16 43.1963 521.219 43.2555 521.336 43.374C521.486 43.488 521.695 43.6613 521.962 43.8938C522.258 44.0887 522.443 44.3325 522.517 44.6252C522.591 44.9179 522.655 45.2624 522.709 45.6587C522.762 46.2907 522.628 47.0324 522.308 47.8838C521.987 48.7353 521.628 49.6761 521.231 50.7063C520.987 51.379 520.738 52.0187 520.485 52.6254C520.265 53.2276 520.164 53.5947 520.182 53.7268C520.2 53.8589 520.161 54.0661 520.065 54.3485C519.969 54.6308 519.866 54.9814 519.755 55.4003C519.602 55.7577 519.442 56.1835 519.274 56.6775C519.107 57.1715 518.951 57.6303 518.807 58.0538C518.692 58.4397 518.641 58.6822 518.654 58.7812C518.639 58.9179 518.608 59.0567 518.56 59.1979C518.545 59.3345 518.481 59.4779 518.367 59.6282C518.235 59.6463 518.166 59.7567 518.16 59.9593C518.182 60.1245 518.194 60.207 518.194 60.207C518.212 60.3391 518.172 60.6642 518.075 61.1822C518.006 61.6626 517.852 62.2557 517.613 62.9615C517.225 64.7979 516.972 66.2625 516.853 67.3555C516.729 68.4155 516.684 69.3133 516.717 70.0489C516.76 70.8505 516.757 71.3219 516.709 71.4631C516.694 71.5997 516.564 71.7522 516.318 71.9205ZM514.73 80.2132C514.134 80.5304 513.621 80.7184 513.192 80.7773C512.791 80.7986 512.318 80.6616 511.773 80.3663C511.064 79.8579 510.768 79.2929 510.885 78.6713C511.03 78.0121 511.491 77.3264 512.268 76.6142C512.813 76.1695 513.215 75.9124 513.474 75.8432C513.767 75.7694 514.229 75.8239 514.859 76.0065C515.936 76.4981 516.461 77.1328 516.433 77.9104C516.438 78.6836 515.87 79.4512 514.73 80.2132Z" fill="#00E8AD"/>
<path d="M171.662 37.5953C172.361 38.0408 172.566 38.9681 172.12 39.6666C171.675 40.365 170.748 40.5701 170.049 40.1247L171.662 37.5953ZM3.33967 54.4912C2.51599 54.4026 1.92005 53.6631 2.00859 52.8394L3.45147 39.4168C3.54002 38.5931 4.27953 37.9971 5.10321 38.0857C5.92689 38.1742 6.52283 38.9137 6.43429 39.7374L5.15173 51.6687L17.083 52.9512C17.9067 53.0398 18.5026 53.7793 18.4141 54.603C18.3255 55.4266 17.586 56.0226 16.7623 55.9341L3.33967 54.4912ZM170.049 40.1247C128.729 13.7725 87.3907 17.244 56.281 27.3561C40.722 32.4135 27.7466 39.1264 18.6607 44.5766C14.1195 47.3007 10.5544 49.7066 8.12918 51.4279C6.91667 52.2884 5.98941 52.9776 5.36785 53.4496C5.05708 53.6856 4.82277 53.8673 4.66748 53.9889C4.58982 54.0497 4.53193 54.0954 4.49411 54.1255C4.47521 54.1405 4.46132 54.1516 4.45248 54.1587C4.44806 54.1622 4.44492 54.1647 4.44304 54.1662C4.4421 54.167 4.44165 54.1674 4.44118 54.1677C4.44104 54.1678 4.44122 54.1677 3.5 52.9998C2.55877 51.8318 2.5596 51.8311 2.56073 51.8302C2.56153 51.8296 2.56299 51.8284 2.56461 51.8271C2.56782 51.8245 2.57232 51.8209 2.57808 51.8163C2.58962 51.8071 2.60624 51.7938 2.62789 51.7766C2.6712 51.7422 2.73466 51.692 2.81799 51.6268C2.98464 51.4963 3.23068 51.3056 3.55357 51.0604C4.19933 50.57 5.15257 49.8617 6.39283 48.9814C8.87311 47.2211 12.5026 44.7722 17.1175 42.004C26.344 36.4695 39.5273 29.6473 55.3536 24.503C87.0148 14.2116 129.354 10.6132 171.662 37.5953L170.049 40.1247Z" fill="#00E8AD"/>
</svg>
