<svg width="300" height="86" viewBox="0 0 300 86" fill="none" xmlns="http://www.w3.org/2000/svg">
<path d="M47.1859 58.8453C47.1859 58.8453 47.1534 58.8296 47.0886 58.7981C47.0264 58.7864 46.9444 58.7775 46.8426 58.7713C46.7607 58.7624 46.6603 58.7661 46.5414 58.7824C46.2135 58.7467 45.9612 58.5996 45.7845 58.3413C45.6105 58.1027 45.5415 57.8195 45.5773 57.4915C45.6457 57.4014 45.6821 57.2248 45.6864 56.9618C45.6908 56.6987 45.6821 56.488 45.6604 56.3294C45.7179 56.16 45.7525 56.0442 45.7642 55.9821C45.7732 55.9001 45.7956 55.6951 45.8314 55.3672C45.8447 55.0222 45.88 54.5429 45.9373 53.9295C46.0117 53.2934 46.0906 52.6164 46.1739 51.8984C46.2771 51.1776 46.3744 50.488 46.4659 49.8294C46.5574 49.1709 46.6426 48.6141 46.7216 48.1591C46.8204 47.7014 46.8955 47.4388 46.9468 47.3712C46.9468 47.3712 46.9427 47.3414 46.9346 47.282C46.9237 47.2027 46.9129 47.1235 46.902 47.0442C46.902 47.0442 46.8997 46.9537 46.8951 46.7726C46.9076 46.569 46.9768 46.3375 47.1028 46.0779C47.1522 45.8491 47.189 45.6018 47.2131 45.336C47.2373 45.0702 47.2439 44.8977 47.2331 44.8185C47.2988 44.7085 47.3752 44.4558 47.4623 44.0602C47.5666 43.6422 47.6623 43.2354 47.7494 42.8398C47.8249 42.5065 47.9075 42.1519 47.9974 41.7762C48.107 41.3978 48.1938 41.073 48.2576 40.8018C48.3412 40.5278 48.383 40.3909 48.383 40.3909C48.3721 40.3116 48.3667 40.272 48.3667 40.272C48.364 40.2522 48.3626 40.2423 48.3626 40.2423C48.431 40.1521 48.565 39.73 48.7645 38.9758C48.9811 38.1991 49.2782 37.1994 49.6558 35.9767C49.7133 35.8073 49.788 35.6153 49.8797 35.4009C49.9715 35.1864 50.0119 35.0395 50.0011 34.9603C50.0784 34.7881 50.2076 34.6997 50.3887 34.6951C50.567 34.6706 50.7535 34.7055 50.9481 34.8C51.1625 34.8916 51.3342 35.0397 51.4631 35.244L51.8254 35.6788L51.0486 37.9657C50.8075 38.5641 50.6092 39.1061 50.4537 39.5918C50.318 40.0747 50.2555 40.3558 50.2664 40.4351C50.2664 40.4351 50.2286 40.6018 50.1532 40.9351C50.0777 41.2685 49.9906 41.664 49.8918 42.1217C49.793 42.5794 49.7085 42.9948 49.6385 43.3678C49.5047 44.012 49.3658 44.5458 49.2219 44.9693C49.0979 45.3901 49.0413 45.6401 49.0521 45.7194C49.0467 45.6798 49.2606 45.6201 49.6938 45.5404C50.127 45.4608 50.6804 45.3747 51.3541 45.2822C52.0278 45.1897 52.7114 45.0958 53.4049 45.0006C54.1155 44.8828 54.7382 44.7872 55.2732 44.7137C55.8253 44.6177 56.1977 44.5363 56.3904 44.4695L57.9156 44.1086L58.5068 40.9085C58.5893 40.3319 58.7051 39.6296 58.8542 38.8016C59.0032 37.9736 59.1388 37.2686 59.261 36.6866C59.4531 35.7316 59.6235 35.1329 59.772 34.8904C59.9204 34.6479 60.1136 34.5104 60.3513 34.4777C60.4108 34.4696 60.4927 34.4785 60.5972 34.5045C60.7188 34.508 60.8346 34.5426 60.9445 34.6083C61.0715 34.6514 61.163 34.7297 61.2189 34.8431C61.4865 35.0284 61.6294 35.2612 61.6476 35.5413C61.6856 35.8187 61.5773 36.207 61.3227 36.7063C61.0789 37.2849 60.8915 37.9061 60.7604 38.5701C60.6464 39.2116 60.5372 39.7414 60.433 40.1595C60.4656 40.3972 60.463 40.5995 60.4252 40.7662C60.3848 40.913 60.3304 41.0315 60.262 41.1217C60.2278 41.1667 60.1689 41.3262 60.0853 41.6002C60.0017 41.8741 59.928 42.1466 59.8642 42.4178C59.8004 42.689 59.7725 42.8544 59.7807 42.9138C59.7997 43.0525 59.793 43.225 59.7607 43.4313C59.7284 43.6376 59.6781 43.7859 59.6097 43.876C59.5863 44.0003 59.5379 44.3098 59.4643 44.8044C59.3907 45.299 59.3095 45.8855 59.2208 46.5639C59.1293 47.2225 59.0265 47.8725 58.9125 48.514C58.7958 49.1356 58.6853 49.6555 58.5811 50.0736C58.6001 50.2123 58.5749 50.3974 58.5057 50.629C58.4338 50.8407 58.4087 51.0259 58.4304 51.1844C58.3837 51.433 58.3253 51.7439 58.2553 52.1169C58.1853 52.4899 58.157 52.7259 58.1706 52.825C58.1339 53.2943 58.0887 53.7749 58.035 54.2668C58.001 54.756 57.9675 55.1745 57.9344 55.5222C57.9238 55.887 57.9225 56.0992 57.9307 56.1586C57.8623 56.2488 57.7448 56.275 57.5781 56.2373C57.4115 56.1996 57.2137 56.1561 56.9849 56.1068C56.5786 55.9405 56.3182 55.734 56.2036 55.4873C56.1116 55.2577 56.1434 54.9 56.2989 54.4144C56.3763 54.2423 56.4423 53.8395 56.4968 53.2062C56.5685 52.5504 56.6415 51.9044 56.7159 51.2684C56.7941 50.9548 56.8686 50.5409 56.9395 50.0264C57.0076 49.4922 57.0758 48.958 57.1439 48.4237C57.2093 47.8697 57.2672 47.4075 57.3174 47.0372C57.3649 46.6472 57.4058 46.4296 57.44 46.3845C57.4291 46.3052 57.4196 46.2359 57.4115 46.1764C57.4033 46.117 57.3993 46.0873 57.3993 46.0873C57.3542 46.0531 57.1025 46.0574 56.644 46.1001C56.1829 46.1231 55.6168 46.1907 54.9458 46.303C54.2722 46.3955 53.5715 46.5119 52.8438 46.6522C52.1332 46.77 51.496 46.908 50.9323 47.0661C50.7143 47.0961 50.4666 47.1301 50.1892 47.1682C49.9118 47.2063 49.6939 47.2362 49.5354 47.258C49.3174 47.2879 49.1292 47.3137 48.9707 47.3355C48.832 47.3545 48.7626 47.3641 48.7626 47.3641C48.751 47.4262 48.7101 47.6438 48.6401 48.0168C48.57 48.3898 48.491 48.8448 48.4031 49.3817C48.3124 49.8989 48.2145 50.4372 48.1095 50.9967C48.0215 51.5336 47.9479 52.0283 47.8888 52.4805C47.8467 52.9102 47.818 53.217 47.8028 53.4008C47.7724 53.7683 47.7245 54.2291 47.6591 54.7832C47.6135 55.3345 47.5494 55.8985 47.4669 56.475C47.4069 57.0687 47.3459 57.5818 47.284 58.0142C47.2419 58.4439 47.2092 58.721 47.1859 58.8453ZM67.821 52.4386C67.4537 52.8524 66.9968 53.1271 66.4501 53.2627C65.9233 53.3956 65.3874 53.3885 64.8424 53.2412C64.2946 53.0742 63.8198 52.776 63.4178 52.3467C63.0213 51.957 62.7355 51.4916 62.5604 50.9504C62.3827 50.3893 62.271 49.6476 62.2254 48.7253C62.179 47.9443 62.3209 47.1375 62.6509 46.3049C62.9783 45.4524 63.407 44.6769 63.9371 43.9783C64.4871 43.2769 65.0529 42.7652 65.6345 42.4431C65.9046 42.2041 66.1401 42.0809 66.3409 42.0735C66.5589 42.0436 66.8885 42.0185 67.3299 41.9983C67.7937 41.9952 68.1428 42.0381 68.377 42.127C68.6311 42.2133 68.841 42.346 69.0069 42.5251C69.3448 42.7815 69.5836 43.0515 69.7234 43.3351C69.8605 43.5989 69.948 43.8695 69.986 44.1469C69.9664 44.5938 69.7425 45.1696 69.3142 45.8744C68.9029 46.5567 68.3183 47.1518 67.5602 47.6596C67.1432 47.8582 66.6758 47.9829 66.158 48.0338C65.6401 48.0848 65.1964 48.0145 64.827 47.8229C64.4289 47.7161 64.1853 47.7798 64.0962 48.0141C64.0045 48.2286 63.9633 48.739 63.9728 49.5452C63.9967 50.309 64.1321 50.8557 64.3791 51.1851C64.6234 51.4948 64.918 51.6562 65.263 51.6694C65.6701 51.6942 65.9854 51.7115 66.2088 51.7212C66.4492 51.7084 66.7243 51.5798 67.034 51.3354C67.3239 51.0937 67.5071 50.9575 67.5837 50.9268C67.6575 50.8763 67.7115 50.8285 67.7457 50.7834C67.797 50.7158 67.9082 50.5693 68.0792 50.344C68.1989 50.1862 68.2943 50.0722 68.3654 50.0018C68.4338 49.9117 68.5175 49.8598 68.6166 49.8462C68.7157 49.8326 68.8116 49.8699 68.9045 49.9581C68.9946 50.0265 69.082 50.075 69.1666 50.1038C69.3648 50.0766 69.4207 50.19 69.3344 50.4441C69.2679 50.6955 69.0992 51.0114 68.8283 51.3918C68.5547 51.7524 68.2189 52.1013 67.821 52.4386ZM66.9283 46.1415C67.1327 46.0124 67.3416 45.8425 67.5549 45.6315C67.7656 45.4007 67.9352 45.1654 68.0639 44.9257C68.2096 44.6634 68.2717 44.453 68.2499 44.2945C68.212 44.0171 68.052 43.8069 67.7699 43.6639C67.4852 43.5011 67.0948 43.5245 66.5986 43.7339C66.3888 43.8233 66.1615 44.0059 65.9166 44.2818C65.6691 44.5378 65.4355 44.8223 65.2159 45.135C65.0162 45.4451 64.8519 45.72 64.7233 45.9597C64.6144 46.1967 64.5825 46.3323 64.6276 46.3665C64.7006 46.4574 64.8799 46.5136 65.1654 46.5349C65.4482 46.5365 65.7567 46.5042 66.0908 46.4381C66.4448 46.3694 66.7239 46.2705 66.9283 46.1415ZM73.1493 51.2829C72.9124 51.1742 72.6898 51.023 72.4816 50.8296C72.2708 50.6163 72.1409 50.3313 72.092 49.9746C72.0649 49.7765 72.0584 49.4342 72.0725 48.9477C72.0867 48.4613 72.1224 47.9113 72.1796 47.2978C72.2369 46.6843 72.2996 46.1105 72.3678 45.5762C72.5171 45.1923 72.6367 44.8125 72.7265 44.4368C72.8164 44.0611 72.8559 43.8336 72.845 43.7544C72.8521 43.5111 72.8636 43.2269 72.8796 42.9017C72.9155 42.5738 72.9554 42.2756 72.9994 42.0071C73.0433 41.7386 73.0824 41.5819 73.1166 41.5368C73.2021 41.4241 73.3129 41.3483 73.4489 41.3095C73.5821 41.2508 73.7235 41.2516 73.8731 41.3118C74.0398 41.3495 74.1763 41.4619 74.2827 41.6492C74.5332 41.8571 74.6815 42.1294 74.7276 42.4663C74.7711 42.7833 74.7272 43.2738 74.5961 43.9378C74.472 44.3586 74.3575 44.8488 74.2524 45.4083C74.1474 45.9678 74.0567 46.4849 73.9804 46.9597C73.9212 47.412 73.8926 47.7187 73.8945 47.8799L73.3245 48.1399C73.6179 47.7766 73.8902 47.4061 74.1412 47.0285C74.3896 46.631 74.5696 46.3236 74.6811 46.1064C74.9556 45.6044 75.1913 45.1885 75.3884 44.8586C75.6025 44.5062 75.8779 44.0848 76.2145 43.5945C76.5483 43.0843 76.8967 42.7539 77.2596 42.6031C77.6396 42.4298 77.9386 42.3282 78.1566 42.2982C78.6033 42.3176 78.9813 42.4979 79.2904 42.839C79.6167 43.1576 79.8683 43.6681 80.0452 44.3706C80.0832 44.648 80.0983 44.979 80.0904 45.3637C80.1023 45.7456 80.1083 45.9366 80.1083 45.9366C80.1083 45.9366 80.2383 45.7067 80.4983 45.2471C80.7782 44.7847 81.1616 44.2678 81.6485 43.6962C81.987 43.3671 82.3319 43.1582 82.6831 43.0696C83.0316 42.9612 83.3649 43.0366 83.683 43.2957C84.2362 43.5024 84.6313 43.8821 84.8686 44.435C85.1031 44.9681 85.2404 45.676 85.2805 46.5587C85.2916 47.0821 85.3346 47.4698 85.4095 47.722C85.4817 47.9543 85.5737 48.1839 85.6856 48.4108C85.8549 48.4683 85.9077 48.6327 85.8439 48.9039C85.7774 49.1553 85.6748 49.2905 85.5361 49.3095C85.338 49.3367 85.1047 49.3284 84.8363 49.2845C84.5876 49.2379 84.352 49.139 84.1295 48.9879C83.924 48.8142 83.7982 48.559 83.7521 48.2221L83.4997 46.3793C83.44 45.9434 83.3713 45.5894 83.2937 45.3175C83.2359 45.0428 83.1633 44.8811 83.0759 44.8326C82.8417 44.7436 82.5423 44.9159 82.1778 45.3496C81.8132 45.7832 81.4366 46.3497 81.0479 47.0491C80.6592 47.7485 80.3029 48.4636 79.9791 49.1944C79.6868 49.8604 79.4978 50.2497 79.4123 50.3624C79.3439 50.4525 79.1913 50.4432 78.9543 50.3344C78.4994 50.2556 78.1962 50.1054 78.0448 49.884C77.9104 49.64 77.8612 49.354 77.897 49.0261C77.95 48.6756 78.0064 48.2036 78.0664 47.6099C78.1462 47.0135 78.2189 46.4383 78.2843 45.8842C78.347 45.3103 78.3819 44.9018 78.389 44.6586C78.288 44.5109 78.1425 44.4804 77.9525 44.5671C77.7796 44.6312 77.6036 44.7462 77.4245 44.9121C77.2084 45.1033 76.9618 45.44 76.6847 45.9222C76.4075 46.4044 76.13 46.9573 75.852 47.5809C75.6658 47.99 75.4697 48.4005 75.2637 48.8123C75.0549 49.2044 74.8606 49.5541 74.6806 49.8614C74.5007 50.1688 74.3409 50.4027 74.2014 50.5631C73.9837 51.0372 73.828 51.3008 73.7344 51.354C73.6407 51.4073 73.4457 51.3836 73.1493 51.2829ZM86.4144 53.3375C86.2163 53.3647 86.0848 53.3626 86.0199 53.3311C85.9776 53.3167 85.9073 53.2456 85.809 53.1178C85.79 52.9791 85.8035 52.8561 85.8494 52.7489C85.915 52.6389 86.0077 52.5051 86.1274 52.3473C86.2984 52.122 86.4924 51.843 86.7093 51.5104C86.9289 51.1976 87.1273 50.8776 87.3045 50.5505C87.5016 50.2206 87.6374 49.9597 87.7121 49.7678C87.7615 49.5389 87.7956 49.2718 87.8143 48.9664C87.8529 48.6583 87.8873 48.3205 87.9177 47.9529C87.896 47.7944 87.877 47.6557 87.8608 47.5368C87.8616 47.3954 87.8962 47.2796 87.9646 47.1894C88.0843 47.0317 88.195 46.9559 88.2968 46.9621C88.4184 46.9656 88.5338 47.0709 88.6429 47.278C88.7718 47.4823 88.8859 47.7998 88.9853 48.2303C89.1242 48.6553 89.1785 49.0516 89.1481 49.4192C89.1177 49.7867 89.0288 50.2431 88.8814 50.7882C88.8607 50.9323 88.7604 51.1581 88.5805 51.4654C88.4005 51.7727 88.2178 52.0603 88.0324 52.328C87.847 52.5957 87.7246 52.7336 87.6652 52.7418C87.5859 52.7527 87.5193 52.782 87.4653 52.8298C87.414 52.8974 87.3541 52.9763 87.2857 53.0664C87.2173 53.1566 87.1039 53.2125 86.9454 53.2343C86.8094 53.2732 86.6324 53.3075 86.4144 53.3375ZM100.665 48.9581C100.073 49.0596 99.621 49.0005 99.3083 48.781C98.993 48.5417 98.8324 48.1802 98.8267 47.6965C98.9464 47.5387 99.0729 47.4305 99.2062 47.3718C99.3395 47.3132 99.5417 47.3157 99.8128 47.3794C100.042 47.4287 100.265 47.4384 100.483 47.4085C100.701 47.3786 100.913 47.309 101.121 47.1998C101.211 47.1268 101.318 47.092 101.439 47.0955C101.578 47.0764 101.714 47.0376 101.847 46.9789C102.111 46.8417 102.428 46.6469 102.797 46.3943C103.186 46.139 103.571 45.854 103.951 45.5393C104.33 45.2047 104.627 44.8711 104.844 44.5385C104.878 44.4935 104.921 44.3664 104.973 44.1574C105.023 43.9285 105.032 43.7758 105.001 43.6993C104.803 43.7265 104.492 43.8097 104.067 43.9488C103.659 44.0654 103.358 44.1571 103.166 44.2239C102.758 44.3405 102.434 44.3345 102.194 44.2059C101.955 44.0773 101.73 43.8357 101.52 43.4809C101.439 43.3306 101.441 43.1991 101.526 43.0864C101.609 42.9539 101.686 42.7818 101.758 42.57C101.894 42.5312 102.022 42.5036 102.141 42.4872C102.277 42.4484 102.409 42.4604 102.539 42.5233C102.669 42.5863 102.768 42.5727 102.836 42.4825C102.925 42.3897 103.032 42.3648 103.159 42.4079C103.284 42.4312 103.443 42.4194 103.639 42.3723C103.834 42.3253 104.256 42.2371 104.905 42.1077C105.004 42.0941 105.092 42.0719 105.168 42.0412C105.262 41.988 105.32 41.8992 105.344 41.7749C105.393 41.546 105.401 41.3127 105.369 41.0749C105.334 40.8173 105.262 40.4436 105.155 39.9536C104.99 39.6331 104.851 39.4301 104.738 39.3446C104.623 39.2394 104.479 39.1481 104.307 39.0707C103.685 39.0956 103.203 39.192 102.863 39.3599C102.52 39.5079 102.301 39.6793 102.207 39.874C101.922 40.1553 101.614 40.3389 101.283 40.4248C100.971 40.5079 100.783 40.463 100.719 40.2902C100.706 40.1911 100.654 40.0366 100.565 39.8268C100.496 39.6143 100.449 39.4189 100.424 39.2405C100.397 39.0424 100.433 38.9365 100.532 38.9229C100.763 38.548 100.926 38.2632 101.021 38.0685C101.112 37.854 101.383 37.6957 101.834 37.5935C102.392 37.3957 102.882 37.288 103.303 37.2705C103.722 37.2332 104.131 37.268 104.529 37.3748C104.755 37.4043 105.044 37.5261 105.397 37.7402C105.749 37.9542 105.981 38.1747 106.093 38.4016C106.203 38.4673 106.347 38.6392 106.527 38.9174C106.723 39.173 106.954 39.6763 107.218 40.4273C107.219 41.1741 107.18 41.8457 107.1 42.4421C107.04 43.0358 106.927 43.6065 106.759 44.1544C106.595 44.722 106.431 45.1483 106.268 45.4331C106.103 45.6981 105.9 45.9883 105.661 46.3038C104.899 46.9333 104.348 47.4026 104.007 47.7119C103.666 48.0212 103.391 48.2305 103.184 48.3397C102.977 48.4488 102.685 48.5293 102.309 48.581C102.068 48.7352 101.798 48.8328 101.501 48.8736C101.221 48.8919 100.942 48.92 100.665 48.9581ZM110.504 46.1536C110.267 46.0448 110.044 45.8937 109.836 45.7002C109.625 45.4869 109.495 45.2019 109.447 44.8452C109.419 44.6471 109.413 44.3048 109.427 43.8184C109.441 43.3319 109.477 42.7819 109.534 42.1684C109.591 41.5549 109.654 40.9811 109.722 40.4468C109.872 40.063 109.991 39.6832 110.081 39.3075C110.171 38.9317 110.21 38.7042 110.2 38.625C110.207 38.3818 110.218 38.0976 110.234 37.7724C110.27 37.4444 110.31 37.1462 110.354 36.8777C110.398 36.6093 110.437 36.4525 110.471 36.4074C110.557 36.2947 110.667 36.219 110.803 36.1801C110.937 36.1214 111.078 36.1222 111.228 36.1824C111.394 36.2201 111.531 36.3326 111.637 36.5198C111.888 36.7277 112.036 37 112.082 37.3369C112.126 37.6539 112.082 38.1445 111.951 38.8085C111.827 39.2293 111.712 39.7194 111.607 40.2789C111.502 40.8384 111.411 41.3555 111.335 41.8303C111.276 42.2826 111.247 42.5893 111.249 42.7506L110.679 43.0105C110.972 42.6472 111.245 42.2768 111.496 41.8991C111.744 41.5016 111.924 41.1943 112.036 40.9771C112.31 40.4751 112.546 40.0591 112.743 39.7293C112.957 39.3768 113.232 38.9555 113.569 38.4651C113.903 37.955 114.251 37.6245 114.614 37.4737C114.994 37.3004 115.293 37.1988 115.511 37.1689C115.958 37.1883 116.336 37.3685 116.645 37.7097C116.971 38.0282 117.223 38.5387 117.4 39.2412C117.438 39.5186 117.453 39.8496 117.445 40.2343C117.457 40.6162 117.463 40.8072 117.463 40.8072C117.463 40.8072 117.593 40.5774 117.853 40.1177C118.133 39.6553 118.516 39.1384 119.003 38.5668C119.342 38.2377 119.686 38.0289 120.038 37.9403C120.386 37.8318 120.719 37.9072 121.038 38.1663C121.591 38.373 121.986 38.7528 122.223 39.3056C122.458 39.8387 122.595 40.5466 122.635 41.4293C122.646 41.9527 122.689 42.3405 122.764 42.5926C122.836 42.8249 122.928 43.0546 123.04 43.2815C123.209 43.339 123.262 43.5033 123.198 43.7745C123.132 44.0259 123.029 44.1611 122.891 44.1801C122.693 44.2074 122.459 44.199 122.191 44.1551C121.942 44.1085 121.707 44.0096 121.484 43.8585C121.279 43.6849 121.153 43.4296 121.107 43.0927L120.854 41.2499C120.795 40.814 120.726 40.4601 120.648 40.1881C120.59 39.9134 120.518 39.7518 120.43 39.7032C120.196 39.6142 119.897 39.7866 119.532 40.2202C119.168 40.6538 118.791 41.2203 118.402 41.9197C118.014 42.6191 117.657 43.3342 117.334 44.065C117.041 44.731 116.852 45.1203 116.767 45.233C116.698 45.3231 116.546 45.3138 116.309 45.2051C115.854 45.1262 115.551 44.9761 115.399 44.7546C115.265 44.5106 115.216 44.2247 115.252 43.8967C115.305 43.5463 115.361 43.0742 115.421 42.4805C115.501 41.8841 115.573 41.3089 115.639 40.7548C115.702 40.181 115.736 39.7724 115.744 39.5292C115.643 39.3816 115.497 39.3511 115.307 39.4377C115.134 39.5018 114.958 39.6169 114.779 39.7828C114.563 39.9739 114.316 40.3106 114.039 40.7928C113.762 41.275 113.485 41.8279 113.207 42.4515C113.02 42.8606 112.824 43.2711 112.618 43.683C112.409 44.075 112.215 44.4247 112.035 44.732C111.855 45.0394 111.695 45.2733 111.556 45.4338C111.338 45.9078 111.183 46.1714 111.089 46.2246C110.995 46.2779 110.8 46.2542 110.504 46.1536ZM127.444 44.857C127.187 44.8923 126.972 44.8714 126.8 44.7941C126.647 44.714 126.45 44.5998 126.208 44.4514C125.777 44.1068 125.458 43.7671 125.251 43.4321C125.041 43.0774 124.942 42.7276 124.955 42.3825C124.993 42.2159 124.993 42.0645 124.954 41.9285C124.932 41.77 124.921 41.6908 124.921 41.6908C124.809 41.6053 124.771 41.5499 124.808 41.5247C124.842 41.4796 124.873 41.4147 124.902 41.33C125.021 41.3137 125.046 41.1993 124.976 40.9867C124.915 40.8337 124.947 40.476 125.072 39.9138C125.196 39.3516 125.375 38.8123 125.607 38.2959C125.699 38.0814 125.842 37.7994 126.036 37.4497C126.228 37.0802 126.441 36.7178 126.675 36.3627C126.926 35.985 127.157 35.6808 127.367 35.45C127.806 34.9659 128.199 34.5989 128.549 34.349C128.898 34.0992 129.284 33.8948 129.706 33.7359C130.129 33.5769 130.419 33.4866 130.577 33.4648C130.756 33.4403 131.015 33.5662 131.356 33.8424C131.839 33.978 132.198 34.1709 132.434 34.4211C132.69 34.6686 132.885 35.0557 133.017 35.5826C133.158 36.1689 133.202 36.8593 133.15 37.6538C133.114 38.4259 132.777 39.431 132.139 40.6693C131.742 41.4507 131.359 42.0483 130.992 42.4621C130.622 42.8561 130.173 43.2609 129.644 43.6767C129.266 44.0112 128.918 44.271 128.601 44.4559C128.28 44.6211 127.895 44.7548 127.444 44.857ZM129.866 41.3146C130.268 40.7143 130.576 40.1573 130.788 39.6437C131.02 39.1273 131.214 38.4848 131.372 37.7163C131.421 37.4875 131.434 37.2131 131.41 36.8934C131.384 36.5538 131.332 36.248 131.254 35.9761C131.194 35.6816 131.102 35.5227 130.977 35.4994C130.72 35.3933 130.428 35.3931 130.099 35.4988C129.768 35.5847 129.427 35.8233 129.077 36.2146C128.533 36.8141 128.086 37.5315 127.736 38.3669C127.384 39.1825 127.056 40.1056 126.753 41.1364C126.553 41.8906 126.563 42.4747 126.781 42.8889C127.016 43.2805 127.403 43.3788 127.942 43.1837C128.497 42.9661 129.139 42.3431 129.866 41.3146ZM150.338 41.8345C150.213 41.8112 150.09 41.7978 149.969 41.7943C149.844 41.771 149.72 41.7477 149.596 41.7244C149.491 41.6983 149.368 41.6849 149.227 41.6842C148.991 41.434 148.865 41.108 148.851 40.7063C148.833 40.2847 148.864 39.8464 148.943 39.3915C149.042 38.9338 149.132 38.4873 149.214 38.0522C149.316 37.6143 149.356 37.2454 149.335 36.9454C149.304 36.8689 149.272 36.8531 149.238 36.8982C149.201 36.9235 149.185 36.9559 149.19 36.9955C149.073 37.1731 148.89 37.3093 148.641 37.4041C148.391 37.4989 148.16 37.5811 147.948 37.6507C147.58 37.7618 147.213 37.8829 146.847 38.0138C146.481 38.1448 146.127 38.2843 145.784 38.4323C145.719 38.4009 145.643 38.3608 145.556 38.3123C145.488 38.261 145.422 38.2196 145.357 38.1882C145.218 38.2072 145.117 38.3523 145.053 38.6235C144.989 38.8947 144.944 39.224 144.916 39.6114C144.885 39.9789 144.854 40.3366 144.821 40.6843C144.805 41.0095 144.776 41.2456 144.736 41.3924C144.424 41.4756 144.198 41.5168 144.056 41.516C143.935 41.5125 143.699 41.4844 143.348 41.4315C143.16 41.2353 143.042 41.0395 142.995 40.8441C142.968 40.646 142.968 40.4239 142.995 40.178C143.032 39.7086 143.061 39.3312 143.082 39.0456C143.123 38.7573 143.203 38.3829 143.322 37.9225C143.391 37.6909 143.452 37.4706 143.504 37.2616C143.573 37.03 143.59 36.7855 143.555 36.5279C143.686 36.3079 143.765 36.075 143.792 35.8291C143.819 35.5831 143.856 35.3358 143.903 35.0872C144.108 34.2312 144.271 33.573 144.389 33.1126C144.525 32.6297 144.615 32.2539 144.659 31.9855C144.703 31.717 144.72 31.4724 144.71 31.2517C144.692 30.9716 144.841 30.8097 145.158 30.7662C145.356 30.739 145.575 30.7897 145.815 30.9183C146.052 31.0271 146.244 31.1823 146.393 31.3839C146.542 31.5856 146.583 31.8121 146.517 32.0635C146.479 32.2301 146.415 32.5013 146.325 32.8771C146.252 33.2302 146.165 33.6258 146.064 34.0637C145.979 34.479 145.892 34.8745 145.802 35.2502C145.73 35.6034 145.664 35.8647 145.607 36.0341C145.598 36.1161 145.568 36.1909 145.516 36.2585C145.462 36.3063 145.442 36.3797 145.456 36.4788C145.608 36.5588 145.841 36.5672 146.156 36.5038C146.487 36.4179 146.717 36.3258 146.845 36.2275C147.142 36.1867 147.429 36.1473 147.706 36.1092C148.004 36.0684 148.301 36.0276 148.598 35.9868C148.92 36.1243 149.184 36.3605 149.392 36.6954C149.479 36.2999 149.599 35.7786 149.753 35.1317C149.904 34.465 150.046 33.8095 150.18 33.1653C150.314 32.5211 150.379 32.0378 150.375 31.7153C150.39 31.5315 150.448 31.3621 150.548 31.2071C150.648 31.0521 150.761 30.9254 150.889 30.8271C151.186 30.9277 151.469 31.0099 151.741 31.0736C152.029 31.1148 152.238 31.3181 152.369 31.6837C152.374 31.8648 152.359 32.0486 152.324 32.2351C152.286 32.4018 152.248 32.5684 152.21 32.7351C152.091 33.337 151.93 34.0051 151.728 34.7394C151.523 35.4539 151.34 36.1855 151.181 36.9342C151.038 37.6604 150.959 38.3374 150.944 38.9653C150.952 39.0248 150.93 39.2297 150.877 39.5802C150.844 39.9279 150.799 40.2671 150.744 40.5978C150.708 40.9257 150.681 41.1009 150.664 41.1234C150.683 41.2621 150.661 41.3964 150.598 41.5262C150.533 41.6361 150.446 41.7389 150.338 41.8345ZM157.925 41.2166C157.053 41.3363 156.295 41.1073 155.651 40.5296C155.004 39.932 154.622 39.1365 154.506 38.1431C154.448 37.4243 154.482 36.6423 154.609 35.7973C154.753 34.9297 154.981 34.0908 155.294 33.2807C155.604 32.4508 155.968 31.7145 156.384 31.0718C156.801 30.4292 157.26 29.9522 157.763 29.641C157.947 29.5147 158.145 29.4069 158.354 29.3175C158.584 29.2254 158.818 29.163 159.056 29.1304C159.273 29.1005 159.507 29.1088 159.755 29.1554C160.001 29.1822 160.209 29.2244 160.378 29.2819C160.734 29.3743 161.015 29.5074 161.22 29.681C161.426 29.8547 161.626 30.1401 161.822 30.5371C161.933 30.9054 161.999 31.1689 162.021 31.3274C162.043 31.4859 162.026 31.7305 161.97 32.0611C161.83 32.8071 161.607 33.4636 161.301 34.0305C160.995 34.5973 160.55 35.1027 159.964 35.5464C159.82 35.6672 159.642 35.7723 159.432 35.8617C159.24 35.9285 159.034 35.9769 158.816 36.0069C158.42 36.0613 158.024 36.045 157.629 35.958C157.25 35.8484 156.932 35.66 156.673 35.3927L156.433 35.1835L156.376 35.4335C156.251 35.9957 156.16 36.5129 156.104 36.9849C156.067 37.4543 156.075 37.8772 156.126 38.2537C156.159 38.4915 156.21 38.7166 156.279 38.9292C156.369 39.139 156.474 39.3163 156.595 39.4612C156.69 39.5692 156.831 39.6407 157.018 39.6757C157.221 39.6881 157.432 39.6793 157.65 39.6494C157.789 39.6304 157.927 39.6113 158.066 39.5923C158.222 39.5507 158.365 39.4907 158.495 39.4122C158.816 39.247 159.066 39.0815 159.245 38.9156C159.444 38.747 159.642 38.5684 159.838 38.38L159.949 38.3042L159.919 38.3083C160.14 38.1567 160.332 38.0093 160.494 37.8659C160.676 37.7198 160.767 37.6468 160.767 37.6468C160.846 37.6359 160.919 37.5755 160.984 37.4655C161.132 37.3645 161.334 37.367 161.591 37.473C161.868 37.5764 162.021 37.737 162.051 37.955C162.044 38.0568 161.977 38.2275 161.848 38.4673C161.717 38.6872 161.564 38.8999 161.391 39.1055C161.237 39.3083 161.102 39.4278 160.985 39.4639C160.968 39.4864 160.904 39.5356 160.794 39.6114C160.68 39.6673 160.606 39.7178 160.572 39.7629L160.602 39.7588C160.456 40.0211 160.294 40.1645 160.116 40.189L159.878 40.2216C159.818 40.3712 159.582 40.5651 159.17 40.8033C158.756 41.0217 158.341 41.1594 157.925 41.2166ZM158.367 34.4939C158.724 34.445 159.017 34.3037 159.248 34.0702C159.495 33.8141 159.7 33.5437 159.863 33.2589C160.186 32.6695 160.343 32.123 160.335 31.6195C160.344 31.0934 160.236 30.7449 160.01 30.5739C159.883 30.5308 159.77 30.5161 159.671 30.5297C159.589 30.5207 159.425 30.5736 159.178 30.6882C159.005 30.7523 158.778 30.935 158.496 31.2361C158.214 31.5372 157.937 31.8681 157.663 32.2286C157.409 32.5865 157.218 32.8853 157.089 33.125L156.788 33.8022C156.939 33.721 157.083 33.6709 157.222 33.6519C157.378 33.6103 157.468 33.6079 157.494 33.6448C157.518 33.8232 157.571 33.9875 157.652 34.1379C157.75 34.2657 157.854 34.3624 157.964 34.4281C158.094 34.491 158.228 34.513 158.367 34.4939ZM173.631 37.9697C173.399 38.042 173.136 38.0377 172.842 37.9569C172.548 37.8761 172.278 37.7417 172.03 37.5537C171.802 37.3629 171.642 37.1527 171.55 36.9231C171.414 36.5179 171.393 35.9959 171.487 35.3571C171.598 34.6958 171.785 33.994 172.046 33.2515C172.325 32.4864 172.648 31.7457 173.014 31.0292C173.4 30.31 173.808 29.6786 174.238 29.135C174.685 28.5689 175.115 28.1667 175.526 27.9286C175.725 27.7599 175.881 27.6476 175.995 27.5917C176.125 27.5132 176.263 27.4842 176.407 27.5048C176.571 27.5227 176.812 27.5905 177.131 27.7082C177.419 27.7493 177.64 27.8099 177.792 27.89C177.944 27.97 178.15 28.1437 178.408 28.411C178.608 28.6864 178.767 28.9673 178.887 29.2537C179.007 29.54 179.123 29.8673 179.234 30.2357C179.46 30.7093 179.564 31.0281 179.546 31.192C179.526 31.3362 179.481 31.4533 179.413 31.5435C179.281 31.7634 179.255 31.8679 179.335 31.857C179.335 31.857 179.33 31.898 179.321 31.98C179.329 32.0394 179.303 32.1439 179.243 32.2935C179.164 32.7485 179.117 33.2192 179.103 33.7057C179.106 34.1696 179.168 34.5447 179.288 34.831C179.506 35.2452 179.828 35.4633 180.255 35.4855C180.682 35.5076 181.084 35.2708 181.46 34.775C181.656 34.5865 181.845 34.4192 182.027 34.2732C182.206 34.1072 182.307 34.1035 182.329 34.2621C182.329 34.2621 182.362 34.2877 182.43 34.339C182.495 34.3705 182.567 34.3807 182.646 34.3699C182.745 34.3563 182.81 34.3877 182.841 34.4643C182.891 34.5381 182.906 34.6471 182.885 34.7912C182.882 34.9128 182.842 35.0597 182.764 35.2318C182.508 35.5699 182.386 35.7884 182.4 35.8875C182.4 35.8875 182.366 35.9326 182.297 36.0227C182.246 36.0903 182.15 36.2043 182.011 36.3648C181.684 36.6318 181.243 36.8033 180.689 36.8795C180.154 36.953 179.723 36.9011 179.395 36.724C179.068 36.5468 178.75 36.2877 178.441 35.9466C178.152 35.6027 177.949 35.2975 177.831 35.031L177.642 34.7542L176.857 35.4373C176.669 35.6852 176.46 35.9259 176.23 36.1594C176.019 36.3902 175.879 36.5507 175.811 36.6408C175.762 36.7282 175.703 36.8071 175.631 36.8774C175.58 36.945 175.515 36.9843 175.436 36.9952C175.356 37.0061 175.287 37.0156 175.228 37.0237C175.168 37.0319 175.138 37.036 175.138 37.036C175.149 37.1152 175.064 37.2279 174.882 37.374C174.72 37.5174 174.515 37.6464 174.269 37.761C174.042 37.8729 173.829 37.9425 173.631 37.9697ZM173.114 36.4055C173.233 36.3892 173.429 36.2714 173.702 36.0523C173.992 35.8106 174.307 35.5351 174.648 35.2258C175.009 34.9138 175.321 34.6086 175.583 34.3102C175.864 34.0091 176.055 33.781 176.155 33.626C176.224 33.5358 176.335 33.3893 176.489 33.1865C176.64 32.9639 176.775 32.7737 176.895 32.6159C177.28 32.0382 177.52 31.4299 177.614 30.7912C177.705 30.1326 177.618 29.6399 177.351 29.3132C177.242 29.1061 177.127 29.0008 177.005 28.9973C176.883 28.9938 176.645 29.0972 176.29 29.3074C176.072 29.4788 175.811 29.7871 175.509 30.2324C175.223 30.6551 174.918 31.1513 174.592 31.7209C174.284 32.268 173.997 32.8321 173.734 33.4134C173.47 33.9946 173.261 34.5281 173.105 35.0138C172.95 35.4995 172.89 35.8711 172.925 36.1287C172.936 36.2079 172.965 36.2746 173.013 36.3286C173.08 36.3799 173.114 36.4055 173.114 36.4055ZM184.232 36.8472C184.014 36.7357 183.848 36.6273 183.733 36.522C183.617 36.4167 183.555 36.2538 183.545 36.0331C183.544 35.7304 183.561 35.4151 183.597 35.0872C183.63 34.7394 183.684 34.3989 183.76 34.0655C183.77 33.7007 183.791 33.3345 183.821 32.9669C183.872 32.5967 183.984 32.2381 184.158 31.8911C184.365 30.8937 184.546 29.9301 184.701 29.0004C184.874 28.0481 185.123 26.9236 185.45 25.6271C185.52 25.3955 185.587 25.2247 185.653 25.1148C185.736 24.9823 185.808 24.8512 185.871 24.7214C185.88 24.6394 185.934 24.5916 186.034 24.578C186.15 24.5419 186.281 24.544 186.428 24.5844C186.572 24.605 186.691 24.6594 186.783 24.7476C186.86 24.7169 186.987 24.8307 187.163 25.0891C187.36 25.3447 187.449 25.5545 187.431 25.7185C187.442 25.7977 187.437 25.9094 187.417 26.0536C187.396 26.1977 187.354 26.3347 187.291 26.4645C187.223 26.5546 187.16 26.6844 187.102 26.8538C187.042 27.0034 186.949 27.2079 186.823 27.4675C186.701 28.0495 186.596 28.5383 186.509 28.9338C186.422 29.3294 186.312 29.7785 186.179 30.2813C186.067 30.4985 185.995 30.7809 185.962 31.1287C185.929 31.4764 185.894 31.8143 185.858 32.1422C185.768 32.5179 185.684 32.8625 185.606 33.1761C185.548 33.4869 185.524 33.682 185.535 33.7612C185.456 34.2162 185.407 34.6671 185.387 35.1139C185.365 35.5409 185.286 35.9252 185.151 36.2667C185.172 36.5666 185.11 36.777 184.965 36.8979C184.84 37.016 184.596 36.9991 184.232 36.8472ZM191.4 36.3474C191.078 36.3513 190.832 36.3245 190.662 36.267C190.49 36.1897 190.165 36.0224 189.685 35.7652C189.415 35.5601 189.038 35.2384 188.554 34.8002C188.07 34.3619 187.582 33.894 187.09 33.3963C186.595 32.8788 186.182 32.4409 185.85 32.0827L186.845 30.2807C187.146 30.5623 187.395 30.831 187.591 31.0866C187.788 31.3423 187.942 31.5128 188.055 31.5983C188.603 32.2094 189.034 32.7054 189.349 33.0861C189.683 33.4642 189.977 33.767 190.23 33.9947C190.483 34.2223 190.742 34.4189 191.007 34.5844C191.292 34.7472 191.637 34.9117 192.044 35.078C192.109 35.1095 192.176 35.1607 192.247 35.2318C192.317 35.3029 192.353 35.4191 192.355 35.5804C192.305 35.8092 192.235 35.9601 192.144 36.0332C192.07 36.0837 191.822 36.1884 191.4 36.3474ZM185.716 31.768C185.551 31.4475 185.545 31.1052 185.697 30.7411C185.866 30.3545 186.07 30.0742 186.308 29.9001C186.368 29.7505 186.435 29.6505 186.509 29.6C186.6 29.5269 186.65 29.4494 186.659 29.3674C186.688 29.2827 186.772 29.1601 186.912 28.9997C187.071 28.8365 187.212 28.6859 187.334 28.548C187.624 28.3063 187.948 28.0195 188.306 27.6877C188.682 27.3333 189.037 26.9817 189.373 26.6328C189.709 26.2839 189.991 25.9827 190.218 25.7294C190.466 25.4733 190.615 25.3115 190.667 25.2439C190.715 25.1565 190.788 25.0961 190.884 25.0626C190.998 25.0067 191.149 25.0061 191.338 25.0609C191.584 25.0877 191.756 25.165 191.854 25.2928C191.95 25.4008 192.022 25.6331 192.071 25.9898C192.16 26.1996 192.104 26.4496 191.901 26.7399C191.716 27.0076 191.416 27.3214 191 27.6812C190.856 27.802 190.658 27.9805 190.408 28.2168C190.177 28.4503 189.975 28.6698 189.801 28.8754C189.674 28.9737 189.485 29.141 189.234 29.3772C189.001 29.5909 188.798 29.8005 188.624 30.0061C188.479 30.1269 188.295 30.3338 188.073 30.6268C187.848 30.8999 187.615 31.1136 187.374 31.2679C186.821 31.9494 186.448 32.3236 186.256 32.3904C186.063 32.4573 185.883 32.2498 185.716 31.768ZM194.118 33.3699C194.114 33.1889 194.142 32.9528 194.203 32.6618C194.264 32.3708 194.326 32.0897 194.39 31.8185C194.454 31.5473 194.5 31.3693 194.529 31.2846C194.704 30.7962 194.859 30.3007 194.992 29.7979C195.142 29.2726 195.252 28.7527 195.323 28.2383C195.346 28.114 195.387 27.8964 195.446 27.5855C195.524 27.272 195.592 26.9598 195.65 26.649C195.726 26.3156 195.754 26.0796 195.735 25.9409C195.737 25.658 195.802 25.3967 195.931 25.157C196.079 24.9145 196.277 24.736 196.523 24.6214C196.747 24.6311 196.945 24.6746 197.117 24.7519C197.289 24.8292 197.451 24.9079 197.603 24.9879C197.738 25.0905 197.804 25.2733 197.799 25.5363C197.795 25.7993 197.761 26.1372 197.696 26.5498C197.655 26.8381 197.565 27.2138 197.426 27.6769C197.308 28.1374 197.179 28.5991 197.041 29.0623C196.919 29.5029 196.827 29.8588 196.763 30.13C196.635 30.6724 196.499 31.2968 196.353 32.0031C196.228 32.7068 196.12 33.2464 196.03 33.6222C195.983 33.8708 196.11 34.0554 196.409 34.1758C196.762 34.2484 197.144 34.2364 197.554 34.1396C197.962 34.023 198.346 33.8794 198.707 33.7089C199.084 33.5157 199.392 33.3321 199.63 33.1581C199.869 32.984 199.986 32.8771 199.98 32.8375C199.981 32.6961 199.988 32.5236 200 32.32C200.032 32.1137 200.097 31.7717 200.193 31.2942C200.309 30.814 200.463 30.0964 200.655 29.1413C200.655 29.1413 200.678 29.017 200.725 28.7684C200.772 28.5197 200.834 28.2386 200.912 27.925C200.988 27.5917 201.049 27.3007 201.096 27.052C201.139 26.7835 201.161 26.6493 201.161 26.6493C201.091 26.1341 201.137 25.6634 201.301 25.2371C201.462 24.7911 201.673 24.4896 201.934 24.3326C202.09 24.291 202.239 24.2706 202.38 24.2714C202.522 24.2722 202.649 24.3153 202.761 24.4007C202.939 24.5177 203.106 24.636 203.264 24.7556C203.422 24.8753 203.528 25.0626 203.583 25.3174C203.523 25.467 203.487 25.6436 203.474 25.8472C203.459 26.031 203.403 26.2103 203.305 26.3851C203.228 26.5573 203.153 26.7492 203.082 26.961C203.027 27.1502 203.02 27.3227 203.062 27.4785L202.553 29.5166C202.466 29.9121 202.358 30.3712 202.227 30.8937C202.117 31.4136 202.043 31.7569 202.005 31.9236L202.969 31.67C203.227 31.6346 203.476 31.6105 203.717 31.5977C203.954 31.565 204.235 31.6274 204.56 31.7847C204.619 31.7766 204.678 31.8391 204.737 31.9724C204.813 32.0831 204.882 32.2249 204.946 32.3978C205.03 32.568 205.102 32.7197 205.16 32.853C205.139 33.1385 205.052 33.5341 204.899 34.0396C204.746 34.545 204.583 35.0519 204.411 35.5601C204.238 36.0683 204.091 36.472 203.971 36.7712C203.911 36.9208 203.839 37.0618 203.756 37.1943C203.676 37.3466 203.596 37.4989 203.516 37.6512C203.347 38.0378 203.122 38.2403 202.842 38.2586C202.562 38.2768 202.289 38.1226 202.022 37.7959C201.992 37.5779 201.999 37.264 202.044 36.854C202.112 36.4612 202.156 36.1928 202.176 36.0486C202.188 35.9864 202.25 35.776 202.362 35.4174C202.477 35.0786 202.591 34.7299 202.703 34.3713C202.816 34.0127 202.864 33.7739 202.848 33.655C202.854 33.5532 202.823 33.4767 202.756 33.4254C202.688 33.3741 202.617 33.3737 202.544 33.4242C202.484 33.4324 202.324 33.515 202.063 33.672C201.821 33.8262 201.58 33.9805 201.339 34.1347C201.095 34.2692 200.923 34.3432 200.824 34.3568C200.381 34.6599 200.018 34.8814 199.734 35.0213C199.468 35.1386 199.088 35.3119 198.594 35.5412C197.567 35.7025 196.841 35.782 196.416 35.7797C195.989 35.7575 195.624 35.6664 195.319 35.5064C194.947 35.295 194.67 35.0404 194.488 34.7424C194.326 34.4417 194.227 34.1625 194.191 33.9049C194.154 33.6275 194.129 33.4492 194.118 33.3699ZM214.399 33.3104C214.174 33.1394 213.939 32.8992 213.695 32.5895C213.448 32.26 213.233 31.8756 213.052 31.4362C212.991 31.2831 212.941 31.0679 212.903 30.7904C212.885 30.5103 212.858 30.3122 212.822 30.196C212.781 30.3429 212.703 30.5051 212.586 30.6826C212.486 30.8377 212.383 30.9729 212.278 31.0883C212.209 31.1784 212.053 31.3614 211.808 31.6373C211.56 31.8934 211.307 32.1098 211.049 32.2866C210.452 32.7925 209.938 33.0952 209.508 33.1947C209.097 33.2914 208.671 33.1279 208.23 32.704C207.877 32.49 207.61 32.2339 207.428 31.9359C207.266 31.6352 207.206 31.1993 207.249 30.6281C207.193 29.9292 207.2 29.2419 207.269 28.5662C207.335 27.8707 207.54 26.9341 207.884 25.7565C208.189 24.8869 208.424 24.2489 208.591 23.8425C208.754 23.4163 208.86 23.1595 208.909 23.0721C209.193 22.9322 209.442 22.9081 209.656 22.9998C209.868 23.0716 210.012 23.2435 210.09 23.5155C210.236 23.6973 210.262 24.0369 210.169 24.5342C210.095 25.0288 209.928 25.6474 209.666 26.3899C209.481 27.1017 209.316 27.8108 209.17 28.5171C209.044 29.2208 208.994 29.8131 209.02 30.2941C209.045 30.7751 209.204 31.0461 209.495 31.1071C209.686 31.1817 209.99 31.1098 210.404 30.8914C210.838 30.6703 211.289 30.2046 211.757 29.4944C212.244 28.7814 212.668 27.7442 213.026 26.3827C213.13 25.9647 213.202 25.6016 213.24 25.2935C213.276 24.9655 213.278 24.612 213.247 24.2328C213.174 24.0004 213.156 23.791 213.191 23.6045C213.243 23.3955 213.378 23.2053 213.597 23.0339C213.663 22.924 213.76 22.8198 213.887 22.7215C214.013 22.6034 214.102 22.5912 214.155 22.6848L214.626 22.5898C214.703 22.5591 214.759 22.6018 214.795 22.718C214.849 22.8116 214.93 22.8913 215.04 22.9569C215.282 23.1053 215.395 23.4836 215.377 24.0916C215.359 24.6997 215.196 25.57 214.887 26.7026C214.622 27.5667 214.448 28.2163 214.366 28.6515C214.305 29.0839 214.291 29.4997 214.325 29.8987C214.374 30.2554 214.49 30.5827 214.672 30.8807C214.854 31.1787 215.111 31.4361 215.444 31.6529C215.681 31.7616 215.821 31.9038 215.865 32.0794C215.929 32.2523 215.968 32.459 215.981 32.6995C215.965 32.8833 215.867 33.0482 215.685 33.1943C215.52 33.3179 215.319 33.396 215.081 33.4287C214.843 33.4613 214.616 33.4219 214.399 33.3104ZM223.196 21.6855C223.23 21.7819 223.25 22.0012 223.256 22.3435C223.28 22.6632 223.284 22.9857 223.268 23.3109C223.269 23.6136 223.256 23.8172 223.23 23.9217C223.121 24.3001 223.052 24.683 223.024 25.0704C223.016 25.4551 222.95 25.8578 222.826 26.2786C222.539 26.096 222.183 25.9328 221.76 25.7891C221.356 25.6426 220.992 25.4907 220.668 25.3334C220.448 25.2021 220.278 25.064 220.157 24.919C220.053 24.7516 219.989 24.5787 219.965 24.4004C219.944 24.1004 219.994 23.8009 220.114 23.5017C220.235 23.2025 220.399 22.9276 220.607 22.677C220.812 22.4066 221.026 22.1956 221.247 22.044C221.451 21.915 221.763 21.8319 222.182 21.7945C222.62 21.7545 222.959 21.7182 223.196 21.6855ZM223.594 32.1083C223.799 31.9793 223.955 31.867 224.063 31.7714C224.168 31.656 224.21 31.4483 224.19 31.1484C224.185 30.9673 224.2 30.7835 224.235 30.597C224.287 30.388 224.281 30.197 224.217 30.0241C224.307 29.6484 224.401 29.0804 224.499 28.32C224.616 27.5569 224.714 26.7259 224.793 25.8268C224.892 24.925 224.959 24.0881 224.994 23.3161C225.027 22.5243 225.018 21.9401 224.966 21.5636C224.912 21.1673 224.781 20.8724 224.573 20.6789C224.364 20.4855 224.081 20.3326 223.723 20.2203C223.465 20.2557 223.217 20.2897 222.979 20.3223C222.742 20.355 222.493 20.3791 222.232 20.3947C221.89 20.4013 221.526 20.4714 221.141 20.6051C220.753 20.719 220.393 20.8188 220.062 20.9047C220.022 20.9102 219.984 20.9255 219.947 20.9508C219.91 20.976 219.874 21.0112 219.84 21.0563C219.547 21.2781 219.32 21.4608 219.158 21.6041C218.996 21.7475 218.864 21.8868 218.761 22.022C218.607 22.2248 218.507 22.4506 218.46 22.6992C218.433 22.9452 218.366 23.338 218.258 23.8777C218.209 24.1065 218.198 24.32 218.225 24.5182C218.272 24.7136 218.34 24.9162 218.429 25.126C218.653 25.5798 218.869 25.9035 219.077 26.0969C219.282 26.2706 219.537 26.4375 219.842 26.5975C220.009 26.6352 220.177 26.6828 220.346 26.7403C220.513 26.778 220.669 26.817 220.816 26.8574C220.529 27.1189 220.161 27.4521 219.712 27.857C219.26 28.242 218.823 28.5946 218.403 28.9148C217.983 29.235 217.649 29.4524 217.402 29.567C217.192 29.6564 217.007 29.7728 216.844 29.9161C216.702 30.0568 216.575 30.2357 216.464 30.4529C216.567 30.7618 216.706 31.0454 216.883 31.3038C217.077 31.5396 217.353 31.6429 217.713 31.6138C217.752 31.6083 217.917 31.4848 218.207 31.2431C218.517 30.9987 218.862 30.7191 219.243 30.4044C219.621 30.0699 219.964 29.7705 220.271 29.5063C220.595 29.2195 220.802 29.0396 220.893 28.9665C220.964 28.8962 221.135 28.7416 221.405 28.5026C221.672 28.2438 221.925 28.0274 222.164 27.8533C222.292 27.755 222.404 27.6892 222.5 27.6557C222.596 27.6223 222.659 27.634 222.687 27.6907C222.632 28.324 222.56 28.9799 222.472 29.6582C222.4 30.3141 222.429 30.9662 222.558 31.6147C222.73 31.692 222.903 31.7792 223.078 31.8763C223.25 31.9537 223.422 32.031 223.594 32.1083ZM226.429 34.1113C226.231 34.1385 226.099 34.1364 226.034 34.1049C225.992 34.0905 225.922 34.0194 225.823 33.8916C225.804 33.7529 225.818 33.6299 225.864 33.5227C225.929 33.4128 226.022 33.2789 226.142 33.1211C226.313 32.8958 226.507 32.6168 226.724 32.2842C226.943 31.9714 227.142 31.6515 227.319 31.3243C227.516 30.9944 227.652 30.7335 227.726 30.5416C227.776 30.3127 227.81 30.0456 227.829 29.7402C227.867 29.4321 227.902 29.0943 227.932 28.7267C227.91 28.5682 227.891 28.4295 227.875 28.3106C227.876 28.1692 227.91 28.0534 227.979 27.9633C228.099 27.8055 228.209 27.7298 228.311 27.736C228.433 27.7395 228.548 27.8447 228.657 28.0518C228.786 28.2562 228.9 28.5736 229 29.0041C229.138 29.4291 229.193 29.8254 229.162 30.193C229.132 30.5606 229.043 31.0169 228.896 31.562C228.875 31.7062 228.775 31.9319 228.595 32.2392C228.415 32.5466 228.232 32.8341 228.047 33.1018C227.861 33.3695 227.739 33.5075 227.679 33.5156C227.6 33.5265 227.534 33.5558 227.48 33.6036C227.428 33.6712 227.368 33.7501 227.3 33.8403C227.232 33.9304 227.118 33.9864 226.96 34.0081C226.824 34.047 226.647 34.0814 226.429 34.1113ZM78.3319 78.2688C77.7401 78.3702 77.288 78.3112 76.9753 78.0917C76.6599 77.8524 76.4994 77.4909 76.4937 77.0071C76.6134 76.8494 76.7399 76.7412 76.8731 76.6825C77.0064 76.6238 77.2086 76.6263 77.4798 76.69C77.7086 76.7394 77.932 76.7491 78.1499 76.7191C78.3679 76.6892 78.5804 76.6197 78.7875 76.5105C78.8784 76.4374 78.9847 76.4026 79.1063 76.4061C79.245 76.3871 79.381 76.3482 79.5142 76.2895C79.7781 76.1524 80.0946 75.9575 80.4637 75.7049C80.8527 75.4497 81.2375 75.1646 81.6184 74.8499C81.9965 74.5154 82.294 74.1818 82.5108 73.8492C82.545 73.8041 82.5882 73.6771 82.6403 73.468C82.6897 73.2392 82.6991 73.0865 82.6684 73.01C82.4703 73.0372 82.1587 73.1203 81.7336 73.2595C81.3257 73.376 81.0253 73.4677 80.8326 73.5346C80.4247 73.6512 80.1009 73.6452 79.8612 73.5166C79.6215 73.388 79.3967 73.1463 79.1866 72.7916C79.1054 72.6412 79.1076 72.5097 79.1931 72.397C79.2759 72.2645 79.3533 72.0924 79.4252 71.8807C79.5612 71.8418 79.6886 71.8142 79.8075 71.7979C79.9435 71.759 80.0763 71.7711 80.2061 71.834C80.3358 71.8969 80.4349 71.8833 80.5033 71.7932C80.5915 71.7003 80.6991 71.6755 80.8262 71.7186C80.9505 71.7419 81.1103 71.73 81.3058 71.683C81.5012 71.636 81.9231 71.5478 82.5716 71.4183C82.6706 71.4047 82.7584 71.3826 82.835 71.3519C82.9286 71.2987 82.9871 71.2099 83.0105 71.0855C83.0599 70.8567 83.0683 70.6234 83.0357 70.3856C83.0005 70.128 82.9291 69.7542 82.8216 69.2643C82.6566 68.9438 82.5178 68.7408 82.4051 68.6553C82.2898 68.55 82.1461 68.4587 81.974 68.3814C81.3516 68.4063 80.8702 68.5027 80.5299 68.6705C80.1868 68.8186 79.968 68.99 79.8735 69.1846C79.5891 69.4659 79.2811 69.6495 78.9497 69.7354C78.6381 69.8186 78.4503 69.7737 78.3863 69.6008C78.3727 69.5017 78.3213 69.3473 78.232 69.1375C78.1625 68.925 78.1155 68.7295 78.0911 68.5512C78.064 68.3531 78.0999 68.2472 78.199 68.2336C78.4303 67.8586 78.5931 67.5738 78.6876 67.3792C78.7793 67.1647 79.0504 67.0063 79.5007 66.9041C80.059 66.7063 80.5489 66.5987 80.9704 66.5812C81.3892 66.5439 81.7977 66.5786 82.1959 66.6854C82.422 66.715 82.7112 66.8368 83.0635 67.0508C83.4158 67.2649 83.6479 67.4854 83.7597 67.7123C83.8696 67.7779 84.0143 67.9498 84.1937 68.228C84.3902 68.4837 84.6206 68.987 84.885 69.738C84.8863 70.4848 84.8471 71.1564 84.7672 71.7528C84.7072 72.3464 84.5936 72.9172 84.4264 73.465C84.2619 74.0327 84.0982 74.4589 83.9354 74.7437C83.7698 75.0087 83.5673 75.299 83.3279 75.6145C82.5663 76.2439 82.0149 76.7133 81.6737 77.0226C81.3325 77.3319 81.0583 77.5411 80.8512 77.6503C80.6441 77.7595 80.3524 77.8399 79.9759 77.8916C79.7346 78.0459 79.4653 78.1434 79.1681 78.1842C78.888 78.2025 78.6093 78.2307 78.3319 78.2688ZM88.1708 75.4642C87.9339 75.3555 87.7113 75.2043 87.5031 75.0109C87.2922 74.7976 87.1624 74.5126 87.1135 74.1559C87.0864 73.9578 87.0799 73.6155 87.094 73.129C87.1081 72.6426 87.1438 72.0926 87.2011 71.4791C87.2584 70.8656 87.3211 70.2917 87.3893 69.7575C87.5386 69.3736 87.6582 68.9938 87.748 68.6181C87.8379 68.2424 87.8774 68.0149 87.8665 67.9356C87.8736 67.6924 87.8851 67.4082 87.9011 67.083C87.937 66.7551 87.9769 66.4569 88.0209 66.1884C88.0648 65.9199 88.1039 65.7632 88.1381 65.7181C88.2236 65.6054 88.3344 65.5296 88.4704 65.4908C88.6036 65.4321 88.745 65.4329 88.8946 65.4931C89.0612 65.5308 89.1978 65.6432 89.3042 65.8305C89.5547 66.0383 89.703 66.3107 89.7491 66.6476C89.7926 66.9646 89.7487 67.4551 89.6176 68.1191C89.4935 68.5399 89.379 69.0301 89.2739 69.5896C89.1689 70.1491 89.0782 70.6662 89.0019 71.141C88.9427 71.5932 88.9141 71.9 88.916 72.0612L88.346 72.3212C88.6394 71.9579 88.9117 71.5874 89.1627 71.2097C89.4111 70.8123 89.5911 70.5049 89.7026 70.2877C89.977 69.7857 90.2128 69.3698 90.4099 69.0399C90.624 68.6875 90.8994 68.2661 91.236 67.7758C91.5698 67.2656 91.9182 66.9352 92.2811 66.7844C92.6611 66.6111 92.9601 66.5095 93.1781 66.4795C93.6248 66.4989 94.0028 66.6792 94.3119 67.0203C94.6382 67.3389 94.8898 67.8494 95.0667 68.5519C95.1047 68.8293 95.1197 69.1603 95.1119 69.545C95.1238 69.9269 95.1298 70.1178 95.1298 70.1178C95.1298 70.1178 95.2598 69.888 95.5198 69.4284C95.7997 68.966 96.1831 68.449 96.67 67.8775C97.0085 67.5484 97.3533 67.3395 97.7046 67.2509C98.0531 67.1425 98.3864 67.2179 98.7045 67.477C99.2577 67.6837 99.6528 68.0634 99.89 68.6163C100.125 69.1494 100.262 69.8573 100.302 70.74C100.313 71.2634 100.356 71.6511 100.431 71.9033C100.503 72.1356 100.595 72.3652 100.707 72.5921C100.876 72.6496 100.929 72.814 100.865 73.0852C100.799 73.3365 100.696 73.4718 100.558 73.4908C100.359 73.518 100.126 73.5097 99.8577 73.4658C99.6091 73.4192 99.3735 73.3203 99.151 73.1692C98.9455 72.9955 98.8197 72.7402 98.7736 72.4034L98.5212 70.5606C98.4615 70.1247 98.3928 69.7707 98.3152 69.4987C98.2574 69.2241 98.1848 69.0624 98.0974 69.0139C97.8632 68.9249 97.5638 69.0972 97.1993 69.5309C96.8347 69.9645 96.4581 70.531 96.0694 71.2304C95.6807 71.9297 95.3244 72.6449 95.0006 73.3757C94.7083 74.0417 94.5193 74.431 94.4338 74.5437C94.3654 74.6338 94.2128 74.6245 93.9758 74.5157C93.5209 74.4369 93.2177 74.2867 93.0663 74.0653C92.9319 73.8213 92.8827 73.5353 92.9185 73.2074C92.9714 72.8569 93.0279 72.3849 93.0879 71.7912C93.1677 71.1948 93.2404 70.6195 93.3058 70.0655C93.3685 69.4916 93.4034 69.0831 93.4105 68.8399C93.3095 68.6922 93.164 68.6617 92.974 68.7484C92.8011 68.8125 92.6251 68.9275 92.4459 69.0934C92.2299 69.2846 91.9833 69.6213 91.7061 70.1035C91.429 70.5856 91.1515 71.1385 90.8735 71.7621C90.6873 72.1713 90.4912 72.5818 90.2852 72.9936C90.0764 73.3857 89.8821 73.7354 89.7021 74.0427C89.5221 74.35 89.3624 74.584 89.2229 74.7444C89.0052 75.2184 88.8495 75.4821 88.7559 75.5353C88.6622 75.5885 88.4672 75.5649 88.1708 75.4642ZM105.111 74.1676C104.854 74.203 104.639 74.182 104.467 74.1047C104.314 74.0247 104.117 73.9105 103.875 73.7621C103.444 73.4175 103.125 73.0777 102.918 72.7428C102.707 72.3881 102.609 72.0382 102.622 71.6932C102.66 71.5265 102.66 71.3752 102.621 71.2392C102.599 71.0807 102.588 71.0014 102.588 71.0014C102.476 70.9159 102.438 70.8606 102.475 70.8353C102.509 70.7903 102.54 70.7254 102.569 70.6407C102.688 70.6243 102.713 70.5099 102.643 70.2974C102.582 70.1443 102.614 69.7867 102.739 69.2245C102.863 68.6622 103.042 68.1229 103.274 67.6066C103.366 67.3921 103.509 67.11 103.703 66.7603C103.895 66.3908 104.108 66.0285 104.342 65.6734C104.593 65.2957 104.823 64.9915 105.034 64.7607C105.472 64.2765 105.866 63.9095 106.216 63.6597C106.565 63.4098 106.951 63.2055 107.373 63.0465C107.795 62.8876 108.086 62.7972 108.244 62.7755C108.423 62.751 108.682 62.8769 109.023 63.1531C109.506 63.2887 109.865 63.4816 110.101 63.7318C110.357 63.9792 110.552 64.3664 110.684 64.8932C110.825 65.4795 110.869 66.17 110.817 66.9645C110.781 67.7365 110.444 68.7417 109.806 69.98C109.409 70.7613 109.026 71.3589 108.659 71.7727C108.289 72.1667 107.84 72.5716 107.311 72.9873C106.933 73.3219 106.585 73.5816 106.267 73.7666C105.947 73.9317 105.561 74.0654 105.111 74.1676ZM107.533 70.6252C107.935 70.0249 108.242 69.468 108.455 68.9543C108.687 68.4379 108.881 67.7955 109.039 67.027C109.088 66.7981 109.101 66.5238 109.077 66.204C109.051 65.8645 108.999 65.5587 108.921 65.2867C108.861 64.9922 108.768 64.8333 108.644 64.81C108.387 64.704 108.095 64.7038 107.766 64.8095C107.435 64.8954 107.094 65.1339 106.744 65.5252C106.2 66.1247 105.753 66.8422 105.403 67.6776C105.051 68.4931 104.723 69.4163 104.42 70.4471C104.22 71.2012 104.23 71.7854 104.448 72.1996C104.683 72.5912 105.07 72.6895 105.609 72.4944C106.164 72.2768 106.806 71.6537 107.533 70.6252ZM128.255 70.3234C127.99 70.2993 127.747 70.2216 127.527 70.0903C127.304 69.9392 127.136 69.7402 127.021 69.4935C126.907 69.2468 126.872 68.9892 126.916 68.7207C126.968 68.3703 127.013 68.0311 127.049 67.7032C127.102 67.3527 127.126 67.0162 127.122 66.6938C127.118 66.5127 127.152 66.2456 127.225 65.8924C127.315 65.5167 127.4 65.1112 127.482 64.6761C127.564 64.2409 127.58 63.845 127.531 63.4883C127.499 63.2506 127.441 63.0466 127.357 62.8764C127.27 62.6864 127.131 62.5541 126.939 62.4795C126.53 62.2935 126.123 62.1979 125.719 62.1929C125.334 62.1851 124.928 62.1702 124.501 62.1481C124.459 62.1337 124.32 62.1527 124.085 62.2052C123.87 62.2549 123.682 62.2808 123.521 62.2827C123.491 62.5089 123.461 62.735 123.432 62.9611C123.402 63.1872 123.383 63.412 123.373 63.6354C123.326 63.8841 123.275 64.1737 123.219 64.5044C123.164 64.835 123.117 65.1544 123.078 65.4625C123.027 65.9742 122.988 66.353 122.961 66.599C122.934 66.8449 122.897 67.0922 122.851 67.3409C122.824 67.5868 122.765 67.9684 122.674 68.4855C122.642 68.6918 122.618 68.8869 122.603 69.0707C122.588 69.2544 122.543 69.4423 122.468 69.6342C122.44 69.7189 122.429 69.791 122.437 69.8504C122.443 69.8901 122.452 69.9594 122.466 70.0585C122.485 70.1972 122.463 70.3315 122.4 70.4612C122.354 70.5685 122.287 70.6685 122.199 70.7614C122.128 70.8317 122.035 70.8948 121.922 70.9508C121.808 71.0068 121.706 71.0713 121.615 71.1443C121.396 71.013 121.236 70.8834 121.138 70.7556C121.04 70.6278 120.898 70.4757 120.712 70.2993C120.763 69.7876 120.807 69.2971 120.844 68.8277C120.9 68.3556 120.947 67.9557 120.982 67.6277C121.035 67.2773 121.086 67.0583 121.135 66.9709C121.217 66.8384 121.246 66.6024 121.219 66.2628C121.213 65.9205 121.257 65.5813 121.353 65.2452C121.303 65.03 121.305 64.8277 121.36 64.6385C121.412 64.4295 121.465 64.2205 121.517 64.0114C121.606 63.6357 121.636 63.2582 121.604 62.879C121.589 62.4773 121.596 62.0827 121.623 61.6954C121.82 61.5069 121.976 61.3946 122.092 61.3585C122.205 61.3025 122.39 61.247 122.644 61.1918C122.656 61.1296 122.668 61.0674 122.68 61.0053C122.688 60.9233 122.699 60.8512 122.71 60.7891C122.998 60.5276 123.399 60.3614 123.914 60.2907C124.429 60.22 124.865 60.2308 125.22 60.3233C125.283 60.3349 125.334 60.338 125.373 60.3326C125.413 60.3271 125.474 60.3289 125.556 60.3378C125.756 60.3304 126.004 60.3671 126.297 60.4479C126.588 60.5089 126.873 60.601 127.153 60.7241C127.432 60.8473 127.651 60.9687 127.808 61.0884C128.276 61.4077 128.612 61.7956 128.815 62.2521C129.039 62.7059 129.185 63.1805 129.253 63.6759C129.328 64.3722 129.303 65.0721 129.177 65.7757C129.048 66.4596 128.953 67.0177 128.891 67.4501C128.867 67.7159 128.857 67.9393 128.862 68.1204C128.887 68.2987 128.949 68.4617 129.05 68.6093C129.151 68.757 129.285 68.9203 129.45 69.0994C129.444 69.2012 129.385 69.3607 129.274 69.5779C129.179 69.7726 129.053 69.8808 128.894 69.9026C128.756 69.9216 128.643 69.9875 128.558 70.1001C128.49 70.1903 128.389 70.2647 128.255 70.3234ZM136.099 69.2161C135.694 69.3525 135.43 69.4189 135.309 69.4154C135.204 69.3894 135.029 69.2923 134.784 69.124C134.445 69.0091 134.151 68.8476 133.9 68.6398C133.67 68.4292 133.487 68.2019 133.353 67.9579C133.236 67.6914 133.175 67.4676 133.17 67.2866C133.134 66.5849 133.201 65.8187 133.37 64.988C133.539 64.1573 133.771 63.3482 134.067 62.5606C134.363 61.773 134.703 61.0904 135.089 60.5126C135.491 59.9123 135.899 59.5029 136.313 59.2846C136.688 59.0716 137.056 58.9605 137.418 58.9511C137.78 58.9418 138.064 59.0947 138.268 59.4098C138.644 59.9436 138.625 60.3197 138.211 60.5381C138.151 60.5462 138.086 60.5855 138.015 60.6558C137.941 60.7063 137.91 60.7712 137.921 60.8505C138.005 60.8792 138.225 60.8592 138.579 60.7904C138.93 60.7018 139.278 60.5934 139.624 60.4651C139.987 60.3144 140.221 60.1813 140.326 60.0659C140.437 59.9901 140.522 59.9481 140.582 59.94C140.641 59.9318 140.792 59.9312 141.036 59.9382C141.386 59.991 141.571 60.0868 141.59 60.2255C141.601 60.3048 141.641 60.3799 141.711 60.451C141.779 60.5023 141.852 60.5225 141.932 60.5116C142.073 60.5124 142.066 60.6043 141.909 60.7873C141.772 60.9676 141.525 61.2236 141.166 61.5555C140.822 61.8449 140.606 62.0361 140.518 62.129C140.447 62.1993 140.456 62.3394 140.545 62.5492C140.755 62.9039 140.825 63.3385 140.754 63.8529C140.683 64.3673 140.505 64.9066 140.219 65.4708C139.933 66.0349 139.563 66.5803 139.111 67.1067C138.675 67.6107 138.191 68.0606 137.66 68.4566C137.146 68.83 136.626 69.0832 136.099 69.2161ZM135.414 67.9776C135.494 67.9668 135.627 67.9081 135.814 67.8016C135.999 67.6753 136.147 67.5743 136.257 67.4985C136.326 67.4084 136.413 67.3056 136.518 67.1902C136.64 67.0523 136.74 66.968 136.816 66.9373C136.896 66.9264 136.991 66.8831 137.101 66.8073C137.209 66.7117 137.357 66.54 137.545 66.2921C137.731 66.0244 137.971 65.6382 138.265 65.1334C138.602 64.6431 138.854 64.2046 139.023 63.818C139.19 63.4116 139.202 63.0567 139.059 62.7532C139.029 62.6767 138.962 62.6353 138.861 62.6291C138.779 62.6202 138.663 62.5856 138.513 62.5254C138.315 62.5526 138.12 62.5289 137.928 62.4543C137.754 62.3572 137.545 62.2344 137.303 62.086L136.746 61.5569L136.31 62.1315C136.036 62.4921 135.764 63.0139 135.494 63.697C135.242 64.3575 135.041 65.031 134.893 65.7176C134.742 66.3843 134.673 66.9086 134.685 67.2906C134.705 67.5905 134.782 67.7819 134.915 67.8646C135.047 67.9474 135.214 67.985 135.414 67.9776ZM147.785 67.9748C147.543 68.1291 147.253 68.2194 146.913 68.2458C146.574 68.2723 146.103 68.2259 145.501 68.1066C145.462 68.1121 145.367 68.0847 145.218 68.0245C145.088 67.9615 144.946 67.8801 144.791 67.7803C144.653 67.6579 144.533 67.5229 144.432 67.3753C144.053 66.9631 143.832 66.307 143.769 65.4072C143.706 64.5073 143.837 63.3992 144.162 62.0829C144.26 61.7666 144.416 61.3616 144.631 60.8677C144.866 60.3712 145.096 59.9156 145.322 59.501C145.565 59.0639 145.742 58.8075 145.853 58.7317C145.853 58.7317 145.956 58.6771 146.163 58.5679C146.37 58.4587 146.63 58.2918 146.943 58.0672C147.036 58.014 147.14 57.9594 147.253 57.9035C147.387 57.8448 147.521 57.796 147.657 57.7572C147.793 57.7183 147.912 57.702 148.014 57.7082C148.413 57.6736 148.839 57.7664 149.293 57.9867C149.765 58.1844 150.163 58.4426 150.49 58.7612C150.813 59.0599 150.943 59.3449 150.879 59.6161C150.885 59.6557 150.836 59.7432 150.733 59.8784C150.648 59.9911 150.544 60.1164 150.422 60.2543C150.316 60.3697 150.231 60.4824 150.165 60.5923C150.082 60.7248 149.95 60.7934 149.769 60.7981C149.608 60.8 149.449 60.7412 149.291 60.6215C149.15 60.4793 149.054 60.2907 149.001 60.0556C148.94 59.9026 148.771 59.7744 148.495 59.671C148.238 59.565 148.109 59.5119 148.109 59.5119C147.951 59.5337 147.743 59.7136 147.487 60.0516C147.247 60.3671 147.016 60.7421 146.793 61.1765C146.485 61.5821 146.237 62.0503 146.047 62.5811C145.854 63.092 145.709 63.5763 145.61 64.034C145.528 64.4692 145.47 64.78 145.435 64.9665C145.383 65.1755 145.411 65.4543 145.519 65.8028C145.627 66.1513 145.727 66.3598 145.817 66.4281C145.901 66.4569 146.101 66.4396 146.415 66.3762C146.749 66.3102 147.14 66.2161 147.588 66.0941C148.033 65.9523 148.466 65.8019 148.888 65.6429C149.311 65.484 149.653 65.3261 149.914 65.1691C150.258 64.8796 150.566 64.696 150.837 64.6183C151.109 64.5406 151.318 64.512 151.462 64.5326C151.69 64.5819 151.834 64.6732 151.893 64.8065C151.951 64.9397 151.924 65.1051 151.809 65.3024C151.692 65.48 151.478 65.6811 151.165 65.9057C150.87 66.1077 150.607 66.3255 150.377 66.559C150.163 66.77 150.063 66.925 150.077 67.0241C149.998 67.035 149.913 67.077 149.822 67.15C149.748 67.2005 149.68 67.22 149.618 67.2083C149.578 67.2138 149.424 67.2652 149.154 67.3628C148.885 67.4603 148.607 67.5691 148.321 67.6892C148.054 67.8065 147.876 67.9017 147.785 67.9748ZM155.45 66.2258C155.213 66.117 154.99 65.9659 154.782 65.7724C154.571 65.5591 154.441 65.2741 154.392 64.9175C154.365 64.7193 154.359 64.377 154.373 63.8906C154.387 63.4041 154.423 62.8542 154.48 62.2407C154.537 61.6272 154.6 61.0533 154.668 60.5191C154.817 60.1352 154.937 59.7554 155.027 59.3797C155.117 59.004 155.156 58.7765 155.145 58.6972C155.152 58.454 155.164 58.1698 155.18 57.8446C155.216 57.5166 155.256 57.2184 155.3 56.95C155.344 56.6815 155.383 56.5247 155.417 56.4796C155.502 56.367 155.613 56.2912 155.749 56.2523C155.882 56.1936 156.024 56.1944 156.173 56.2546C156.34 56.2923 156.477 56.4048 156.583 56.5921C156.834 56.7999 156.982 57.0723 157.028 57.4091C157.071 57.7262 157.028 58.2167 156.896 58.8807C156.772 59.3015 156.658 59.7916 156.553 60.3511C156.448 60.9106 156.357 61.4277 156.281 61.9025C156.222 62.3548 156.193 62.6615 156.195 62.8228L155.625 63.0827C155.918 62.7194 156.19 62.349 156.442 61.9713C156.69 61.5738 156.87 61.2665 156.981 61.0493C157.256 60.5473 157.492 60.1313 157.689 59.8015C157.903 59.4491 158.178 59.0277 158.515 58.5373C158.849 58.0272 159.197 57.6967 159.56 57.5459C159.94 57.3726 160.239 57.271 160.457 57.2411C160.904 57.2605 161.282 57.4407 161.591 57.7819C161.917 58.1004 162.169 58.611 162.346 59.3134C162.384 59.5908 162.399 59.9219 162.391 60.3065C162.403 60.6884 162.409 60.8794 162.409 60.8794C162.409 60.8794 162.539 60.6496 162.799 60.1899C163.079 59.7276 163.462 59.2106 163.949 58.639C164.287 58.3099 164.632 58.1011 164.983 58.0125C165.332 57.9041 165.665 57.9794 165.983 58.2385C166.536 58.4452 166.932 58.825 167.169 59.3779C167.403 59.9109 167.541 60.6188 167.581 61.5016C167.592 62.0249 167.635 62.4127 167.71 62.6648C167.782 62.8972 167.874 63.1268 167.986 63.3537C168.155 63.4112 168.208 63.5755 168.144 63.8467C168.078 64.0981 167.975 64.2333 167.836 64.2524C167.638 64.2796 167.405 64.2712 167.137 64.2273C166.888 64.1807 166.652 64.0819 166.43 63.9307C166.224 63.7571 166.099 63.5018 166.052 63.1649L165.8 61.3221C165.74 60.8862 165.672 60.5323 165.594 60.2603C165.536 59.9856 165.464 59.824 165.376 59.7754C165.142 59.6865 164.843 59.8588 164.478 60.2924C164.114 60.726 163.737 61.2925 163.348 61.9919C162.96 62.6913 162.603 63.4064 162.279 64.1373C161.987 64.8032 161.798 65.1925 161.713 65.3052C161.644 65.3954 161.492 65.386 161.255 65.2773C160.8 65.1984 160.497 65.0483 160.345 64.8268C160.211 64.5828 160.162 64.2969 160.197 63.9689C160.25 63.6185 160.307 63.1464 160.367 62.5527C160.447 61.9563 160.519 61.3811 160.585 60.827C160.647 60.2532 160.682 59.8446 160.689 59.6014C160.588 59.4538 160.443 59.4233 160.253 59.5099C160.08 59.5741 159.904 59.6891 159.725 59.855C159.509 60.0462 159.262 60.3828 158.985 60.865C158.708 61.3472 158.43 61.9001 158.152 62.5237C157.966 62.9328 157.77 63.3433 157.564 63.7552C157.355 64.1472 157.161 64.4969 156.981 64.8043C156.801 65.1116 156.641 65.3455 156.502 65.506C156.284 65.98 156.128 66.2436 156.035 66.2969C155.941 66.3501 155.746 66.3264 155.45 66.2258ZM172.797 65.1458C172.542 65.201 172.332 65.2097 172.165 65.1721C171.996 65.1146 171.783 65.0328 171.526 64.9267C171.044 64.6497 170.671 64.3578 170.407 64.0509C170.16 63.7214 170.023 63.3869 169.997 63.0473C170.012 62.8635 169.99 62.705 169.931 62.5717C169.893 62.4357 169.873 62.3678 169.873 62.3678C169.741 62.285 169.693 62.231 169.73 62.2057C169.764 62.1607 169.786 62.0971 169.795 62.0152C169.948 61.9538 169.953 61.8421 169.809 61.6801C169.728 61.5297 169.709 61.1689 169.752 60.5978C169.812 60.0041 169.917 59.4446 170.067 58.9193C170.136 58.6877 170.236 58.3814 170.365 58.0002C170.514 57.6163 170.684 57.2297 170.873 56.8404C171.059 56.4313 171.236 56.1041 171.404 55.859C171.772 55.3037 172.109 54.8841 172.413 54.6001C172.734 54.2935 173.102 54.031 173.516 53.8126C173.891 53.5997 174.166 53.4711 174.341 53.4268C174.517 53.3825 174.781 53.4674 175.133 53.6814C175.628 53.7548 176.012 53.904 176.285 54.129C176.575 54.3314 176.825 54.6806 177.034 55.1768C177.271 55.7297 177.414 56.4065 177.463 57.2072C177.529 57.9855 177.33 59.0324 176.864 60.348C176.593 61.1725 176.297 61.8087 175.975 62.2567C175.672 62.702 175.293 63.1779 174.838 63.6846C174.505 64.0534 174.192 64.3487 173.899 64.5705C173.607 64.7924 173.239 64.9842 172.797 65.1458ZM174.691 61.2823C175.005 60.6335 175.238 60.0464 175.388 59.5211C175.555 58.9732 175.655 58.3034 175.688 57.5116C175.698 57.2881 175.671 57.0193 175.608 56.705C175.542 56.3708 175.45 56.0705 175.333 55.804C175.236 55.5347 175.126 55.3984 175.005 55.3949C174.733 55.3312 174.446 55.3706 174.143 55.5132C173.837 55.636 173.522 55.9214 173.2 56.3694C172.918 56.812 172.672 57.3 172.462 57.8334C172.272 58.3642 172.109 58.9417 171.973 59.5661C171.836 60.1905 171.715 60.8532 171.609 61.5541C171.514 62.3343 171.602 62.9075 171.875 63.2739C172.167 63.6376 172.567 63.6836 173.075 63.412C173.58 63.1205 174.118 62.4107 174.691 61.2823ZM180.753 64.0837C180.515 64.1163 180.303 64.1151 180.116 64.0802C179.947 64.0227 179.805 63.9413 179.689 63.836C179.591 63.7082 179.493 63.5804 179.395 63.4526C179.294 63.3049 179.201 63.146 179.117 62.9758C179.135 62.8119 179.203 62.6411 179.32 62.4635C179.437 62.286 179.624 62.2502 179.88 62.3563C179.92 62.3508 179.962 62.3652 180.007 62.3994C180.052 62.4336 180.107 62.4664 180.172 62.4979C180.859 62.0604 181.394 61.5428 181.776 60.9452C182.176 60.3251 182.548 59.6483 182.891 58.9147C182.541 58.8619 182.182 58.7496 181.816 58.5779C181.469 58.4035 181.21 58.2069 181.038 57.9881C180.797 57.6983 180.617 57.3395 180.497 56.9117C180.378 56.484 180.296 56.253 180.251 56.2188C180.375 55.798 180.438 55.4462 180.44 55.1633C180.461 54.8778 180.504 54.5994 180.567 54.3282C180.629 54.0372 180.773 53.6943 181.002 53.2995C181.182 52.9922 181.414 52.6978 181.699 52.4165C181.98 52.1154 182.259 51.8652 182.534 51.6658C182.81 51.4665 183.017 51.3573 183.156 51.3383C183.385 51.3876 183.591 51.3491 183.776 51.2229C183.96 51.0966 184.157 51.0595 184.366 51.1115C184.448 51.1204 184.519 51.1208 184.578 51.1127C184.655 51.082 184.714 51.0738 184.757 51.0882C185.266 51.1192 185.72 51.1981 186.121 51.3247C186.522 51.4514 186.815 51.7443 186.999 52.2035C186.957 52.6333 186.905 53.0643 186.843 53.4968C186.798 53.9067 186.694 54.3247 186.53 54.751C186.383 55.1547 186.24 55.5782 186.098 56.0215C185.974 56.4423 185.798 56.8501 185.569 57.2448L185.653 57.415C185.877 57.4247 186.151 57.4375 186.476 57.4534C186.818 57.4468 186.999 57.4421 187.019 57.4394C187.245 57.4689 187.447 57.5421 187.625 57.6591C187.819 57.7535 188.027 57.8663 188.246 57.9977C188.277 58.0742 188.288 58.1535 188.279 58.2354C188.27 58.3174 188.243 58.412 188.197 58.5193C188.038 58.9851 187.872 59.4623 187.696 59.9507C187.518 60.4192 187.351 60.8964 187.196 61.382C187.144 61.5911 187.108 61.8483 187.09 62.1537C187.071 62.4591 187.024 62.7077 186.95 62.8997C186.796 63.1025 186.692 63.2278 186.638 63.2756C186.601 63.3008 186.56 63.2964 186.515 63.2622C186.47 63.228 186.358 63.2231 186.18 63.2476C185.894 63.2263 185.685 63.1035 185.554 62.8793C185.495 62.7461 185.418 62.6254 185.323 62.5174C185.247 62.4067 185.218 62.2694 185.236 62.1054C185.259 61.9811 185.284 61.8666 185.31 61.7621C185.333 61.6378 185.368 61.522 185.414 61.4148C185.529 61.076 185.624 60.7399 185.7 60.4065C185.775 60.0731 185.862 59.7483 185.96 59.4321C186.028 59.3419 186.053 59.2275 186.034 59.0888L185.826 59.1173C185.704 59.1139 185.563 59.1131 185.402 59.115C185.258 59.0945 185.095 59.0865 184.914 59.0912C184.826 59.184 184.719 59.2895 184.594 59.4076C184.466 59.506 184.377 59.6695 184.328 59.8984C184.143 60.1661 183.971 60.4622 183.814 60.7866C183.673 61.0885 183.492 61.3859 183.27 61.6789C183.048 61.9719 182.825 62.2648 182.603 62.5578C182.4 62.848 182.168 63.1424 181.906 63.4408C181.514 63.8177 181.129 64.032 180.753 64.0837ZM183.473 57.4116C183.569 57.3782 183.691 57.2403 183.84 56.9978C184.006 56.7328 184.168 56.448 184.329 56.1434C184.506 55.8162 184.657 55.5229 184.783 55.2633C184.907 54.984 184.974 54.8132 184.986 54.7511C184.991 54.7907 185.019 54.6961 185.068 54.4672C185.117 54.2384 185.171 53.9685 185.23 53.6577C185.308 53.3442 185.379 53.0518 185.443 52.7806C185.506 52.5094 185.537 52.3639 185.534 52.3441C185.252 52.2011 185.032 52.1405 184.873 52.1623C184.715 52.184 184.532 52.2495 184.325 52.3587C183.619 52.6575 183.061 53.0774 182.65 53.6182C182.237 54.1393 181.972 54.7813 181.854 55.5444C181.788 56.2399 181.905 56.7992 182.205 57.2223C182.523 57.6228 182.945 57.6859 183.473 57.4116ZM198.302 61.4922C198.178 61.4689 198.055 61.4555 197.933 61.452C197.809 61.4287 197.684 61.4054 197.56 61.3821C197.456 61.3561 197.333 61.3427 197.191 61.3419C196.955 61.0917 196.83 60.7657 196.815 60.364C196.798 59.9424 196.829 59.5041 196.908 59.0492C197.006 58.5915 197.097 58.145 197.178 57.7099C197.28 57.272 197.32 56.9031 197.299 56.6031C197.269 56.5266 197.236 56.5109 197.202 56.5559C197.165 56.5812 197.149 56.6136 197.155 56.6533C197.038 56.8308 196.855 56.967 196.605 57.0618C196.356 57.1567 196.125 57.2388 195.912 57.3084C195.544 57.4195 195.177 57.5406 194.811 57.6715C194.446 57.8025 194.091 57.942 193.748 58.0901C193.683 58.0586 193.607 58.0186 193.52 57.97C193.452 57.9187 193.386 57.8773 193.321 57.8459C193.182 57.8649 193.081 58.01 193.017 58.2812C192.954 58.5524 192.908 58.8817 192.88 59.2691C192.85 59.6367 192.818 59.9943 192.785 60.342C192.769 60.6672 192.741 60.9033 192.7 61.0501C192.389 61.1333 192.162 61.1745 192.021 61.1737C191.899 61.1702 191.663 61.1421 191.313 61.0893C191.124 60.8931 191.007 60.6973 190.96 60.5018C190.933 60.3037 190.932 60.0816 190.959 59.8357C190.996 59.3663 191.025 58.9889 191.046 58.7033C191.088 58.415 191.168 58.0407 191.286 57.5802C191.356 57.3487 191.416 57.1284 191.468 56.9193C191.538 56.6878 191.554 56.4432 191.519 56.1856C191.651 55.9657 191.73 55.7327 191.757 55.4868C191.783 55.2408 191.82 54.9935 191.867 54.7449C192.073 53.8889 192.235 53.2307 192.354 52.7703C192.489 52.2874 192.579 51.9117 192.623 51.6432C192.667 51.3747 192.684 51.1301 192.674 50.9094C192.656 50.6293 192.805 50.4675 193.122 50.4239C193.32 50.3967 193.539 50.4474 193.779 50.576C194.016 50.6848 194.209 50.84 194.358 51.0416C194.506 51.2433 194.547 51.4698 194.481 51.7212C194.443 51.8879 194.379 52.1591 194.289 52.5348C194.217 52.888 194.13 53.2835 194.028 53.7214C193.944 54.1367 193.856 54.5322 193.767 54.908C193.694 55.2611 193.629 55.5224 193.571 55.6918C193.562 55.7738 193.532 55.8486 193.481 55.9162C193.427 55.964 193.407 56.0374 193.42 56.1365C193.572 56.2166 193.806 56.2249 194.12 56.1615C194.451 56.0757 194.681 55.9836 194.809 55.8853C195.106 55.8445 195.393 55.805 195.671 55.7669C195.968 55.7261 196.265 55.6853 196.562 55.6445C196.884 55.782 197.149 56.0182 197.356 56.3531C197.443 55.9576 197.563 55.4364 197.717 54.7894C197.868 54.1227 198.01 53.4673 198.144 52.8231C198.278 52.1789 198.343 51.6955 198.339 51.373C198.355 51.1893 198.412 51.0199 198.512 50.8648C198.612 50.7098 198.726 50.5831 198.854 50.4848C199.15 50.5854 199.434 50.6676 199.705 50.7313C199.993 50.7725 200.203 50.9759 200.333 51.3415C200.338 51.5225 200.323 51.7063 200.288 51.8928C200.25 52.0595 200.212 52.2262 200.175 52.3928C200.055 52.9947 199.894 53.6628 199.692 54.3971C199.487 55.1116 199.305 55.8433 199.145 56.592C199.002 57.3181 198.923 57.9952 198.908 58.623C198.916 58.6825 198.894 58.8874 198.841 59.2379C198.808 59.5856 198.764 59.9248 198.708 60.2555C198.672 60.5834 198.646 60.7586 198.629 60.7812C198.647 60.9199 198.626 61.0541 198.563 61.1839C198.497 61.2938 198.41 61.3966 198.302 61.4922ZM204.476 60.2811C204.332 60.2605 204.138 60.2467 203.895 60.2397C203.652 60.2327 203.424 60.1933 203.212 60.1214C203.018 60.027 202.908 59.8907 202.884 59.7123C202.862 59.5538 202.853 59.4137 202.857 59.2921C202.877 59.148 202.94 59.0182 203.046 58.9028C203.06 58.8605 203.066 58.8294 203.063 58.8096C203.06 58.7897 203.067 58.7686 203.085 58.746C203.071 58.647 203.039 58.5605 202.989 58.4867C202.938 58.4129 202.924 58.3138 202.948 58.1895C202.997 57.9606 203.032 57.7741 203.053 57.63C203.091 57.4633 203.093 57.2611 203.061 57.0233C203.055 56.9837 203.05 56.944 203.044 56.9044C203.036 56.8449 203.039 56.7941 203.054 56.7517C203.153 56.294 203.22 55.8305 203.257 55.3611C203.294 54.8918 203.382 54.4354 203.524 53.9921C203.691 53.4443 203.906 52.7284 204.168 51.8445C204.428 50.9407 204.638 50.1145 204.798 49.3658C204.847 49.1369 204.917 48.986 205.008 48.9129C205.116 48.8174 205.241 48.7699 205.382 48.7707C205.623 48.7579 205.88 48.8639 206.153 49.0889C206.423 49.294 206.63 49.4776 206.773 49.6396C206.627 50.0433 206.45 50.5218 206.243 51.0751C206.053 51.6058 205.872 52.1253 205.699 52.6335C205.544 53.1192 205.437 53.5174 205.379 53.8283C205.659 53.81 205.986 53.7651 206.359 53.6936C206.75 53.5995 207.137 53.5465 207.518 53.5344C207.96 53.5142 208.346 53.4611 208.678 53.3752C209.009 53.2894 209.379 53.1881 209.787 53.0715C209.845 52.7607 209.898 52.4103 209.945 52.0202C210.013 51.6274 210.079 51.2246 210.143 50.812C210.228 50.3967 210.346 50.007 210.498 49.6429C210.65 49.2788 210.862 48.9872 211.135 48.7681C211.288 48.7067 211.407 48.6904 211.492 48.7191C211.574 48.728 211.691 48.7725 211.843 48.8525C212.128 49.0153 212.338 49.148 212.473 49.2506C212.625 49.3306 212.691 49.4427 212.67 49.5868C212.65 49.731 212.552 49.9765 212.378 50.3235C212.269 50.5605 212.205 50.8317 212.186 51.1371C212.165 51.4227 212.088 51.6754 211.957 51.8953C211.923 51.9404 211.868 52.1296 211.793 52.463C211.717 52.7964 211.631 53.2018 211.535 53.6793C211.439 54.1568 211.343 54.6343 211.247 55.1118C211.151 55.5894 211.066 56.0047 210.994 56.3579C210.941 56.7083 210.918 56.9133 210.927 56.9727C210.942 57.2331 210.939 57.506 210.918 57.7916C210.893 58.0573 210.9 58.3289 210.938 58.6063C210.96 58.7649 210.927 58.8905 210.839 58.9834C210.767 59.0537 210.662 59.0984 210.524 59.1175C210.326 59.1447 210.101 59.1251 209.85 59.0586C209.598 58.9922 209.408 58.9275 209.278 58.8646C209.191 58.816 209.108 58.7265 209.029 58.5959C208.971 58.4627 208.925 58.3479 208.891 58.2515C208.942 57.7398 209.017 57.2551 209.116 56.7974C209.232 56.3172 209.327 55.8298 209.4 55.3352C209.429 55.2505 209.438 55.1685 209.427 55.0892C209.416 55.01 209.386 54.9334 209.335 54.8596C208.668 54.8503 208.001 54.9216 207.336 55.0736C206.67 55.2255 206.013 55.3662 205.365 55.4956C205.279 55.6083 205.193 55.8624 205.106 56.258C205.036 56.631 204.978 57.0224 204.933 57.4323C204.886 57.8224 204.846 58.1206 204.814 58.3269C204.853 58.4629 204.86 58.6638 204.836 58.9295C204.812 59.1953 204.768 59.4638 204.704 59.735C204.637 59.9863 204.561 60.1684 204.476 60.2811ZM217.739 58.2782C217.585 58.3396 217.38 58.388 217.123 58.4233C216.862 58.4389 216.63 58.4405 216.427 58.428C216.24 58.3931 216.143 58.3459 216.135 58.2864C216.121 58.1874 216.065 58.1446 215.966 58.1582C215.966 58.1582 215.911 58.1254 215.801 58.0597C215.711 57.9914 215.571 57.9298 215.382 57.875C215.166 57.6221 215.036 57.3371 214.992 57.0201C214.946 56.6832 214.964 56.1459 215.044 55.408C215.036 54.9045 215.145 54.304 215.373 53.6066C215.617 52.8866 215.93 52.1472 216.31 51.3884C216.691 50.6296 217.101 49.9374 217.54 49.3118C217.999 48.6835 218.429 48.2107 218.83 47.8932C219.069 47.5777 219.385 47.3828 219.779 47.3086C220.173 47.2344 220.561 47.2719 220.945 47.421C221.157 47.4929 221.377 47.6242 221.605 47.815C221.833 48.0057 222.053 48.2177 222.267 48.4508C222.481 48.6839 222.664 48.9211 222.819 49.1623C222.908 49.3721 222.965 49.5662 222.989 49.7446C223.031 49.9004 223.058 50.0985 223.071 50.339C223.103 50.5768 223.122 50.9375 223.128 51.4213C223.078 51.7915 223.048 52.2397 223.04 52.7658C223.051 53.2891 223.082 53.7391 223.134 54.1155C223.146 54.4975 223.222 54.7595 223.362 54.9017C223.523 55.0412 223.722 55.0239 223.961 54.8498C224.182 54.6983 224.403 54.6175 224.624 54.6073C224.842 54.5774 225.019 54.6137 225.154 54.7163C225.309 54.8161 225.403 54.985 225.435 55.2227C225.468 55.4605 225.383 55.7245 225.18 56.0148C224.995 56.2825 224.746 56.5286 224.434 56.7532C224.138 56.9553 223.842 57.0767 223.545 57.1175C223.327 57.1474 223.101 57.0472 222.868 56.8168C222.632 56.5666 222.408 56.2642 222.198 55.9094C222.005 55.5322 221.825 55.1734 221.657 54.833L221.385 54.1739L220.274 55.568C220.055 55.8808 219.832 56.1738 219.607 56.4469C219.399 56.6975 219.273 56.8765 219.227 56.9837C219.152 57.1756 218.988 57.3798 218.735 57.5963C218.502 57.81 218.17 58.0373 217.739 58.2782ZM217.588 56.5123C217.897 56.2679 218.244 55.9275 218.629 55.4912C219.01 55.035 219.378 54.5505 219.732 54.0376C220.083 53.5049 220.37 53.0214 220.593 52.587C220.867 52.085 221.066 51.6236 221.19 51.2028C221.314 50.782 221.392 50.3879 221.422 50.0203C221.313 49.8132 221.153 49.603 220.942 49.3897C220.729 49.1566 220.551 49.0397 220.41 49.0389C219.974 49.0988 219.546 49.4401 219.127 50.063C218.724 50.6633 218.339 51.3118 217.97 52.0084C217.904 52.1184 217.817 52.2919 217.708 52.5289C217.599 52.7659 217.489 52.993 217.378 53.2102C217.283 53.4048 217.22 53.5346 217.189 53.5995C217.14 53.6869 217.052 53.9311 216.926 54.3321C216.816 54.7105 216.708 55.0989 216.601 55.4971C216.491 55.8756 216.444 56.1242 216.461 56.2431C216.477 56.362 216.504 56.4894 216.543 56.6254C216.602 56.7587 216.713 56.8343 216.877 56.8521C217.041 56.87 217.278 56.7567 217.588 56.5123ZM233.774 45.72C234.05 45.8233 234.238 45.9389 234.336 46.0667C234.432 46.1747 234.621 46.3808 234.905 46.6851C234.89 46.8688 234.867 47.1445 234.837 47.512C234.824 47.8571 234.799 48.1935 234.763 48.5215C234.727 48.8494 234.681 49.098 234.623 49.2675C234.701 49.5394 234.687 49.9552 234.582 50.5146C234.494 51.0516 234.4 51.6196 234.301 52.2188C234.198 52.7981 234.124 53.3634 234.079 53.9147C234.033 54.4661 234.077 54.9344 234.21 55.3199C234.156 55.3676 234.104 55.4253 234.052 55.493C234.021 55.5578 233.968 55.6155 233.895 55.6661C233.673 55.8176 233.437 55.8601 233.185 55.7937C232.934 55.7273 232.723 55.5847 232.551 55.366C232.377 55.1274 232.301 54.8654 232.323 54.5798C232.347 54.314 232.393 53.914 232.461 53.3798C232.526 52.8258 232.595 52.2208 232.667 51.565C232.738 50.9091 232.803 50.2744 232.86 49.6609C232.915 49.0276 232.962 48.4862 233.001 48.0367C233.04 47.5871 233.051 47.293 233.032 47.1543C233.007 46.976 232.855 46.8959 232.575 46.9142C232.312 46.91 232.026 46.9593 231.717 47.0623C231.425 47.1427 231.232 47.2096 231.139 47.2628C230.747 47.4983 230.434 47.7936 230.2 48.1487C229.966 48.5038 229.787 48.8918 229.663 49.3126C229.539 49.7334 229.426 50.1627 229.325 50.6006C229.361 50.7168 229.386 50.8244 229.399 50.9235C229.41 51.0027 229.462 51.0865 229.555 51.1746C229.673 51.2997 229.835 51.3784 230.041 51.4107C230.248 51.4429 230.463 51.4639 230.686 51.4736C230.909 51.4833 231.106 51.5169 231.275 51.5744C231.337 51.586 231.388 51.5891 231.428 51.5837C231.465 51.5584 231.503 51.5431 231.543 51.5376C231.602 51.5295 231.657 51.5623 231.707 51.6361C231.879 51.8548 232.005 52.0394 232.086 52.1897C232.167 52.3401 232.128 52.5676 231.968 52.8722C231.518 53.2771 231.078 53.6707 230.646 54.053C230.213 54.4354 229.797 54.856 229.395 55.3149C229.276 55.4726 229.122 55.6047 228.935 55.7112C228.765 55.7951 228.621 55.9259 228.504 56.1034C228.404 56.2585 228.283 56.4063 228.141 56.547C228.016 56.6651 227.893 56.803 227.774 56.9608C227.705 57.0509 227.635 57.1312 227.564 57.2015C227.49 57.252 227.399 57.2444 227.289 57.1788C226.989 57.1998 226.753 57.1009 226.582 56.8822C226.411 56.6634 226.262 56.3911 226.137 56.0651C226.317 55.7578 226.612 55.4044 227.021 55.0049C227.428 54.5857 227.885 54.1596 228.39 53.7268C228.914 53.2714 229.404 52.871 229.861 52.5256C229.34 52.5567 228.929 52.5021 228.627 52.3619C228.323 52.2018 228.048 52.0377 227.803 51.8694C227.522 51.585 227.363 51.2334 227.325 50.8146C227.308 50.393 227.361 49.9719 227.486 49.5511C227.607 49.1105 227.738 48.7392 227.878 48.4373C227.912 48.3923 227.927 48.3499 227.921 48.3103C227.936 48.2679 227.951 48.2355 227.968 48.2129C228.164 47.7218 228.337 47.3649 228.488 47.1423C228.659 46.917 228.943 46.6356 229.341 46.2984C229.486 46.1775 229.645 46.085 229.818 46.0209C229.988 45.937 230.161 45.8729 230.337 45.8286C230.53 45.7617 230.794 45.7052 231.131 45.6589C231.468 45.6127 231.808 45.5863 232.15 45.5796C232.489 45.5532 232.754 45.5674 232.943 45.6221C233.087 45.6427 233.223 45.6746 233.35 45.7177C233.496 45.7581 233.638 45.7589 233.774 45.72ZM243.795 52.7925C243.79 52.6114 243.819 52.3754 243.88 52.0844C243.941 51.7934 244.003 51.5123 244.067 51.2411C244.131 50.9699 244.177 50.7919 244.206 50.7072C244.381 50.2188 244.535 49.7232 244.668 49.2205C244.819 48.6951 244.929 48.1753 245 47.6609C245.023 47.5365 245.064 47.319 245.122 47.0081C245.201 46.6946 245.269 46.3824 245.327 46.0716C245.403 45.7382 245.431 45.5022 245.412 45.3634C245.414 45.0806 245.479 44.8193 245.607 44.5796C245.756 44.3371 245.953 44.1586 246.2 44.0439C246.424 44.0536 246.621 44.0972 246.793 44.1745C246.965 44.2518 247.128 44.3304 247.28 44.4105C247.415 44.513 247.481 44.6958 247.476 44.9589C247.472 45.2219 247.437 45.5597 247.373 45.9724C247.331 46.2607 247.242 46.6364 247.103 47.0995C246.985 47.5599 246.856 48.0217 246.718 48.4849C246.596 48.9255 246.504 49.2814 246.44 49.5526C246.312 50.095 246.176 50.7193 246.03 51.4257C245.905 52.1293 245.797 52.669 245.707 53.0447C245.66 53.2934 245.786 53.4779 246.086 53.5984C246.439 53.671 246.821 53.6589 247.231 53.5622C247.639 53.4456 248.023 53.302 248.383 53.1314C248.761 52.9383 249.069 52.7547 249.307 52.5806C249.546 52.4066 249.662 52.2997 249.657 52.2601C249.658 52.1186 249.664 51.9461 249.677 51.7425C249.709 51.5362 249.773 51.1943 249.87 50.7168C249.985 50.2366 250.14 49.5189 250.332 48.5639C250.332 48.5639 250.355 48.4396 250.402 48.1909C250.448 47.9423 250.511 47.6612 250.589 47.3476C250.665 47.0142 250.726 46.7232 250.772 46.4746C250.816 46.2061 250.838 46.0718 250.838 46.0718C250.768 45.5567 250.814 45.0859 250.978 44.6597C251.139 44.2137 251.35 43.9122 251.611 43.7552C251.767 43.7136 251.915 43.6932 252.057 43.694C252.198 43.6947 252.325 43.7378 252.438 43.8233C252.615 43.9403 252.783 44.0586 252.941 44.1782C253.098 44.2979 253.205 44.4851 253.26 44.74C253.2 44.8896 253.163 45.0662 253.151 45.2698C253.136 45.4536 253.079 45.6329 252.982 45.8077C252.905 45.9798 252.83 46.1718 252.758 46.3835C252.703 46.5728 252.697 46.7453 252.738 46.9011L252.23 48.9391C252.143 49.3347 252.034 49.7937 251.904 50.3163C251.794 50.8362 251.719 51.1795 251.682 51.3461L252.646 51.0926C252.904 51.0572 253.153 51.0331 253.393 51.0203C253.631 50.9876 253.912 51.05 254.236 51.2073C254.296 51.1991 254.355 51.2617 254.414 51.3949C254.489 51.5057 254.559 51.6475 254.623 51.8204C254.707 51.9906 254.778 52.1423 254.837 52.2755C254.816 52.5611 254.728 52.9566 254.576 53.4621C254.423 53.9676 254.26 54.4745 254.087 54.9827C253.915 55.4909 253.768 55.8946 253.648 56.1938C253.587 56.3433 253.516 56.4844 253.433 56.6169C253.353 56.7692 253.273 56.9215 253.193 57.0738C253.024 57.4604 252.799 57.6628 252.519 57.6811C252.239 57.6994 251.965 57.5452 251.699 57.2184C251.669 57.0005 251.676 56.6865 251.721 56.2766C251.788 55.8838 251.832 55.6153 251.853 55.4712C251.865 55.409 251.927 55.1986 252.039 54.84C252.154 54.5012 252.268 54.1525 252.38 53.7939C252.493 53.4352 252.541 53.1965 252.524 53.0776C252.531 52.9758 252.5 52.8993 252.432 52.848C252.365 52.7967 252.294 52.7963 252.22 52.8468C252.161 52.855 252.001 52.9375 251.739 53.0945C251.498 53.2488 251.257 53.4031 251.016 53.5573C250.772 53.6918 250.6 53.7658 250.501 53.7794C250.058 54.0825 249.695 54.3039 249.411 54.4438C249.144 54.5612 248.764 54.7345 248.271 54.9638C247.243 55.125 246.517 55.2045 246.093 55.2022C245.666 55.1801 245.301 55.089 244.996 54.929C244.624 54.7176 244.347 54.4629 244.165 54.165C244.002 53.8642 243.904 53.5851 243.868 53.3275C243.83 53.0501 243.806 52.8717 243.795 52.7925ZM262.069 52.0092C261.702 52.423 261.245 52.6978 260.698 52.8334C260.171 52.9663 259.635 52.9591 259.09 52.8119C258.543 52.6449 258.068 52.3467 257.666 51.9174C257.269 51.5277 256.983 51.0623 256.808 50.521C256.631 49.96 256.519 49.2183 256.473 48.2959C256.427 47.515 256.569 46.7082 256.899 45.8755C257.226 45.0231 257.655 44.2475 258.185 43.5489C258.735 42.8476 259.301 42.3359 259.882 42.0138C260.153 41.7748 260.388 41.6516 260.589 41.6442C260.807 41.6143 261.136 41.5892 261.578 41.569C262.042 41.5659 262.391 41.6088 262.625 41.6977C262.879 41.784 263.089 41.9166 263.255 42.0957C263.593 42.3522 263.832 42.6222 263.971 42.9058C264.108 43.1696 264.196 43.4402 264.234 43.7176C264.214 44.1644 263.99 44.7403 263.562 45.4451C263.151 46.1274 262.566 46.7224 261.808 47.2303C261.391 47.4289 260.924 47.5536 260.406 47.6045C259.888 47.6554 259.444 47.5851 259.075 47.3936C258.677 47.2868 258.433 47.3505 258.344 47.5848C258.252 47.7993 258.211 48.3096 258.221 49.1158C258.245 49.8797 258.38 50.4264 258.627 50.7558C258.871 51.0655 259.166 51.2269 259.511 51.2401C259.918 51.2649 260.233 51.2822 260.457 51.2919C260.697 51.2791 260.972 51.1504 261.282 50.906C261.572 50.6644 261.755 50.5282 261.832 50.4975C261.905 50.4469 261.959 50.3992 261.994 50.3541C262.045 50.2865 262.156 50.14 262.327 49.9146C262.447 49.7569 262.542 49.6428 262.613 49.5725C262.682 49.4824 262.765 49.4305 262.865 49.4169C262.964 49.4033 263.06 49.4406 263.152 49.5288C263.242 49.5972 263.33 49.6457 263.415 49.6745C263.613 49.6473 263.669 49.7607 263.582 50.0148C263.516 50.2662 263.347 50.5821 263.076 50.9625C262.803 51.323 262.467 51.672 262.069 52.0092ZM261.176 45.7121C261.381 45.5831 261.589 45.4131 261.803 45.2021C262.013 44.9713 262.183 44.7361 262.312 44.4963C262.458 44.2341 262.52 44.0237 262.498 43.8652C262.46 43.5878 262.3 43.3776 262.018 43.2346C261.733 43.0718 261.343 43.0952 260.847 43.3046C260.637 43.394 260.409 43.5766 260.165 43.8525C259.917 44.1085 259.683 44.3929 259.464 44.7057C259.264 45.0158 259.1 45.2907 258.971 45.5304C258.862 45.7674 258.83 45.903 258.875 45.9372C258.948 46.0281 259.128 46.0843 259.413 46.1056C259.696 46.1072 260.005 46.0749 260.339 46.0088C260.693 45.94 260.972 45.8411 261.176 45.7121ZM273.853 51.1179C273.728 51.0946 273.606 51.0812 273.484 51.0777C273.36 51.0544 273.235 51.0311 273.111 51.0078C273.006 50.9817 272.884 50.9683 272.742 50.9676C272.506 50.7174 272.381 50.3914 272.366 49.9897C272.349 49.5681 272.379 49.1298 272.458 48.6749C272.557 48.2172 272.647 47.7707 272.729 47.3356C272.831 46.8977 272.871 46.5288 272.85 46.2288C272.819 46.1523 272.787 46.1365 272.753 46.1816C272.716 46.2069 272.7 46.2393 272.706 46.2789C272.589 46.4565 272.405 46.5927 272.156 46.6875C271.907 46.7823 271.676 46.8645 271.463 46.9341C271.095 47.0452 270.728 47.1663 270.362 47.2972C269.996 47.4282 269.642 47.5677 269.299 47.7157C269.234 47.6843 269.158 47.6442 269.071 47.5957C269.003 47.5444 268.937 47.503 268.872 47.4716C268.733 47.4906 268.632 47.6357 268.568 47.9069C268.504 48.1781 268.459 48.5074 268.431 48.8948C268.401 49.2623 268.369 49.62 268.336 49.9677C268.32 50.2929 268.291 50.529 268.251 50.6758C267.939 50.759 267.713 50.8002 267.571 50.7994C267.45 50.7959 267.214 50.7678 266.863 50.7149C266.675 50.5187 266.557 50.3229 266.511 50.1275C266.483 49.9294 266.483 49.7073 266.51 49.4614C266.547 48.992 266.576 48.6146 266.597 48.329C266.639 48.0407 266.718 47.6663 266.837 47.2059C266.906 46.9743 266.967 46.754 267.019 46.545C267.088 46.3134 267.105 46.0689 267.07 45.8113C267.201 45.5913 267.281 45.3584 267.307 45.1125C267.334 44.8665 267.371 44.6192 267.418 44.3706C267.624 43.5146 267.786 42.8564 267.904 42.396C268.04 41.9131 268.13 41.5373 268.174 41.2689C268.218 41.0004 268.235 40.7558 268.225 40.5351C268.207 40.255 268.356 40.0932 268.673 40.0496C268.871 40.0224 269.09 40.0731 269.33 40.2017C269.567 40.3105 269.76 40.4657 269.908 40.6673C270.057 40.869 270.098 41.0955 270.032 41.3469C269.994 41.5135 269.93 41.7847 269.84 42.1605C269.768 42.5136 269.68 42.9092 269.579 43.3471C269.494 43.7624 269.407 44.1579 269.317 44.5336C269.245 44.8868 269.18 45.1481 269.122 45.3175C269.113 45.3995 269.083 45.4743 269.032 45.5419C268.978 45.5897 268.957 45.6631 268.971 45.7622C269.123 45.8422 269.357 45.8506 269.671 45.7872C270.002 45.7013 270.232 45.6093 270.36 45.5109C270.657 45.4701 270.944 45.4307 271.222 45.3926C271.519 45.3518 271.816 45.311 272.113 45.2702C272.435 45.4077 272.699 45.6439 272.907 45.9788C272.994 45.5833 273.114 45.062 273.268 44.4151C273.419 43.7484 273.561 43.0929 273.695 42.4487C273.829 41.8045 273.894 41.3212 273.89 40.9987C273.905 40.8149 273.963 40.6455 274.063 40.4905C274.163 40.3355 274.277 40.2088 274.404 40.1105C274.701 40.2111 274.985 40.2933 275.256 40.357C275.544 40.3982 275.753 40.6015 275.884 40.9671C275.889 41.1482 275.874 41.332 275.839 41.5185C275.801 41.6852 275.763 41.8518 275.725 42.0185C275.606 42.6204 275.445 43.2885 275.243 44.0228C275.038 44.7373 274.856 45.4689 274.696 46.2176C274.553 46.9438 274.474 47.6208 274.459 48.2487C274.467 48.3082 274.445 48.5131 274.392 48.8636C274.359 49.2113 274.314 49.5505 274.259 49.8812C274.223 50.2091 274.196 50.3843 274.179 50.4068C274.198 50.5455 274.176 50.6798 274.113 50.8096C274.048 50.9195 273.961 51.0223 273.853 51.1179ZM280.983 49.5937C280.83 49.6551 280.625 49.7035 280.367 49.7389C280.107 49.7544 279.875 49.756 279.671 49.7436C279.485 49.7086 279.387 49.6614 279.379 49.602C279.366 49.5029 279.309 49.4602 279.21 49.4738C279.21 49.4738 279.155 49.4409 279.045 49.3753C278.955 49.3069 278.816 49.2453 278.626 49.1906C278.41 48.9376 278.28 48.6526 278.237 48.3356C278.191 47.9988 278.208 47.4614 278.289 46.7236C278.28 46.22 278.39 45.6196 278.617 44.9221C278.862 44.2022 279.174 43.4628 279.555 42.7039C279.935 41.9451 280.345 41.2529 280.785 40.6274C281.244 39.9991 281.673 39.5262 282.074 39.2088C282.313 38.8933 282.63 38.6984 283.023 38.6242C283.417 38.5499 283.806 38.5874 284.189 38.7366C284.401 38.8084 284.621 38.9398 284.849 39.1305C285.077 39.3213 285.298 39.5332 285.511 39.7663C285.725 39.9994 285.909 40.2366 286.063 40.4779C286.152 40.6877 286.209 40.8818 286.234 41.0601C286.275 41.2159 286.302 41.414 286.315 41.6545C286.348 41.8923 286.367 42.2531 286.372 42.7368C286.322 43.1071 286.293 43.5552 286.284 44.0813C286.295 44.6047 286.326 45.0546 286.378 45.4311C286.39 45.813 286.466 46.0751 286.607 46.2173C286.767 46.3567 286.967 46.3394 287.205 46.1654C287.427 46.0138 287.648 45.933 287.869 45.9229C288.086 45.893 288.263 45.9293 288.398 46.0318C288.553 46.1317 288.647 46.3005 288.68 46.5383C288.712 46.7761 288.627 47.0401 288.425 47.3303C288.239 47.598 287.99 47.8442 287.678 48.0688C287.383 48.2708 287.086 48.3923 286.789 48.4331C286.571 48.463 286.346 48.3628 286.112 48.1324C285.876 47.8822 285.653 47.5797 285.443 47.225C285.25 46.8477 285.069 46.4889 284.902 46.1486L284.63 45.4895L283.519 46.8836C283.299 47.1964 283.077 47.4893 282.852 47.7625C282.644 48.0131 282.517 48.192 282.471 48.2992C282.396 48.4912 282.233 48.6954 281.98 48.9118C281.746 49.1255 281.414 49.3528 280.983 49.5937ZM280.832 47.8279C281.142 47.5834 281.489 47.2431 281.873 46.8067C282.255 46.3506 282.622 45.8661 282.976 45.3532C283.327 44.8205 283.614 44.3369 283.837 43.9025C284.112 43.4005 284.311 42.9391 284.435 42.5184C284.559 42.0976 284.636 41.7034 284.667 41.3358C284.557 41.1288 284.397 40.9186 284.187 40.7053C283.973 40.4722 283.795 40.3552 283.654 40.3545C283.218 40.4143 282.79 40.7557 282.371 41.3785C281.969 41.9788 281.583 42.6273 281.214 43.324C281.149 43.4339 281.061 43.6074 280.953 43.8444C280.844 44.0814 280.734 44.3085 280.622 44.5257C280.527 44.7204 280.465 44.8502 280.433 44.915C280.384 45.0025 280.297 45.2467 280.17 45.6476C280.06 46.0261 279.952 46.4144 279.845 46.8127C279.735 47.1911 279.689 47.4398 279.705 47.5587C279.721 47.6775 279.749 47.805 279.788 47.941C279.846 48.0742 279.958 48.1498 280.121 48.1677C280.285 48.1855 280.522 48.0723 280.832 47.8279ZM292.695 43.7158C292.153 43.8911 291.75 43.6739 291.485 43.0643C291.22 42.4547 291.15 41.5761 291.276 40.4283C291.362 40.1742 291.43 39.9327 291.479 39.7039C291.526 39.4552 291.54 39.2615 291.521 39.1228C291.565 38.8544 291.623 38.5435 291.696 38.1903C291.786 37.8146 291.88 37.4686 291.978 37.1524C292.073 36.8163 292.143 36.5946 292.189 36.4874C292.269 36.4765 292.338 36.3963 292.399 36.2467C292.479 36.0944 292.509 35.9489 292.49 35.8102C292.468 35.6516 292.474 35.4692 292.506 35.2629C292.558 35.0539 292.618 34.9043 292.687 34.8141C292.673 34.7151 292.698 34.6006 292.761 34.4709C292.824 34.3411 292.85 34.2366 292.839 34.1573C292.828 34.0781 292.839 34.006 292.87 33.9411C292.921 33.8735 292.942 33.8001 292.931 33.7208C293.066 33.3793 293.23 32.8823 293.423 32.23C293.633 31.5551 293.83 30.8518 294.012 30.1202C294.214 29.3859 294.378 28.7376 294.503 28.1754C294.628 27.6132 294.682 27.2726 294.666 27.1537C294.684 26.9898 294.727 26.8627 294.795 26.7726C294.864 26.6824 294.98 26.6463 295.144 26.6641C295.215 26.5938 295.29 26.5532 295.369 26.5423C295.446 26.5116 295.524 26.4908 295.603 26.4799C295.603 26.4799 295.638 26.5155 295.708 26.5866C295.799 26.655 295.924 26.7589 296.084 26.8984C296.262 27.0153 296.373 27.1616 296.417 27.3372C296.461 27.5128 296.499 27.7195 296.532 27.9573C296.564 28.3365 296.483 28.7816 296.291 29.2925C296.099 29.8034 295.883 30.368 295.645 30.9862C295.498 31.3898 295.349 31.7737 295.197 32.1378C295.065 32.4991 295.004 32.7194 295.015 32.7987C295.026 32.878 295.002 33.0023 294.945 33.1717C294.887 33.3411 294.825 33.5515 294.759 33.8029C294.667 34.0173 294.571 34.2728 294.47 34.5693C294.369 34.8657 294.276 35.141 294.19 35.3951C294.12 35.6267 294.09 35.7722 294.098 35.8316C294.089 35.9136 294.07 35.997 294.041 36.0817C294.032 36.1636 293.994 36.2497 293.925 36.3398C293.846 36.3507 293.805 36.417 293.801 36.5386C293.815 36.6377 293.821 36.6872 293.821 36.6872C293.832 36.7665 293.809 36.9615 293.75 37.2723C293.709 37.5606 293.616 37.9165 293.473 38.34C293.24 39.4419 293.088 40.3208 293.016 40.9766C292.942 41.6127 292.914 42.1514 292.935 42.5928C292.96 43.0738 292.958 43.3566 292.93 43.4413C292.921 43.5233 292.842 43.6148 292.695 43.7158ZM291.741 48.6918C291.384 48.8822 291.076 48.9951 290.818 49.0305C290.578 49.0433 290.294 48.9611 289.967 48.784C289.542 48.479 289.364 48.14 289.434 47.767C289.521 47.3715 289.798 46.96 290.264 46.5326C290.591 46.2657 290.833 46.1114 290.988 46.0698C291.164 46.0255 291.441 46.0582 291.819 46.1677C292.465 46.4626 292.78 46.8433 292.763 47.3099C292.766 47.7738 292.425 48.2345 291.741 48.6918Z" fill="#00E8AD"/>
<path d="M41.0495 75.0412C41.5381 74.9503 41.8603 74.4804 41.7692 73.9917C41.6781 73.503 41.2082 73.1805 40.7196 73.2714L41.0495 75.0412ZM18.3235 15.137C18.123 14.6821 17.5917 14.4757 17.137 14.676L9.72579 17.9409C9.27101 18.1412 9.06487 18.6724 9.26537 19.1274C9.46588 19.5823 9.99709 19.7887 10.4519 19.5883L17.0396 16.6862L19.9439 23.276C20.1444 23.7309 20.6756 23.9373 21.1304 23.737C21.5852 23.5366 21.7914 23.0054 21.5908 22.5505L18.3235 15.137ZM40.7196 73.2714C26.6483 75.8899 17.5393 75.5856 11.938 73.2986C9.16475 72.1663 7.26507 70.5538 6.02471 68.5677C4.77828 66.5719 4.15775 64.1344 4.05714 61.2965C3.85477 55.5879 5.75955 48.4596 8.58193 40.578C11.4049 32.6948 15.0679 24.2551 18.339 15.8257L16.661 15.1738C13.4321 23.4945 9.71503 32.0744 6.88742 39.9705C4.05919 47.8683 2.04283 55.2791 2.2584 61.3596C2.36676 64.4164 3.03997 67.1859 4.49825 69.5209C5.96261 71.8657 8.17861 73.7078 11.2583 74.9652C17.3627 77.4575 26.9081 77.6727 41.0495 75.0412L40.7196 73.2714Z" fill="#00E8AD"/>
</svg>
