<svg width="1360" height="395" viewBox="0 0 1360 395" fill="none" xmlns="http://www.w3.org/2000/svg">
<g filter="url(#filter0_i_168_437)">
<path d="M0 40C0 25.9987 0 18.998 2.72484 13.6502C5.12167 8.94619 8.94619 5.12167 13.6502 2.72484C18.998 0 25.9987 0 40 0H1320C1334 0 1341 0 1346.35 2.72484C1351.05 5.12167 1354.88 8.94619 1357.28 13.6502C1360 18.998 1360 25.9987 1360 40V355C1360 369.001 1360 376.002 1357.28 381.35C1354.88 386.054 1351.05 389.878 1346.35 392.275C1341 395 1334 395 1320 395H40C25.9987 395 18.998 395 13.6502 392.275C8.94619 389.878 5.12167 386.054 2.72484 381.35C0 376.002 0 369.001 0 355V40Z" fill="#201D54"/>
<path d="M0 40C0 25.9987 0 18.998 2.72484 13.6502C5.12167 8.94619 8.94619 5.12167 13.6502 2.72484C18.998 0 25.9987 0 40 0H1320C1334 0 1341 0 1346.35 2.72484C1351.05 5.12167 1354.88 8.94619 1357.28 13.6502C1360 18.998 1360 25.9987 1360 40V355C1360 369.001 1360 376.002 1357.28 381.35C1354.88 386.054 1351.05 389.878 1346.35 392.275C1341 395 1334 395 1320 395H40C25.9987 395 18.998 395 13.6502 392.275C8.94619 389.878 5.12167 386.054 2.72484 381.35C0 376.002 0 369.001 0 355V40Z" fill="url(#paint0_radial_168_437)" fill-opacity="0.4"/>
</g>
<path d="M1 40C1 32.9828 1.00078 27.7801 1.33728 23.6615C1.67284 19.5545 2.33723 16.6137 3.61584 14.1042C5.9168 9.58834 9.58834 5.9168 14.1042 3.61584C16.6137 2.33723 19.5545 1.67284 23.6615 1.33728C27.7801 1.00078 32.9828 1 40 1H1320C1327.02 1 1332.22 1.00078 1336.34 1.33728C1340.45 1.67284 1343.39 2.33723 1345.9 3.61584C1350.41 5.9168 1354.08 9.58833 1356.38 14.1042C1357.66 16.6137 1358.33 19.5545 1358.66 23.6615C1359 27.7801 1359 32.9828 1359 40V355C1359 362.017 1359 367.22 1358.66 371.339C1358.33 375.445 1357.66 378.386 1356.38 380.896C1354.08 385.412 1350.41 389.083 1345.9 391.384C1343.39 392.663 1340.45 393.327 1336.34 393.663C1332.22 393.999 1327.02 394 1320 394H40C32.9829 394 27.7801 393.999 23.6615 393.663C19.5545 393.327 16.6137 392.663 14.1042 391.384C9.58834 389.083 5.9168 385.412 3.61584 380.896C2.33723 378.386 1.67284 375.445 1.33728 371.339C1.00078 367.22 1 362.017 1 355V40Z" stroke="url(#paint1_linear_168_437)" stroke-width="2"/>
<defs>
<filter id="filter0_i_168_437" x="0" y="0" width="1360" height="410" filterUnits="userSpaceOnUse" color-interpolation-filters="sRGB">
<feFlood flood-opacity="0" result="BackgroundImageFix"/>
<feBlend mode="normal" in="SourceGraphic" in2="BackgroundImageFix" result="shape"/>
<feColorMatrix in="SourceAlpha" type="matrix" values="0 0 0 0 0 0 0 0 0 0 0 0 0 0 0 0 0 0 127 0" result="hardAlpha"/>
<feOffset dy="15"/>
<feGaussianBlur stdDeviation="19"/>
<feComposite in2="hardAlpha" operator="arithmetic" k2="-1" k3="1"/>
<feColorMatrix type="matrix" values="0 0 0 0 1 0 0 0 0 1 0 0 0 0 1 0 0 0 0.25 0"/>
<feBlend mode="normal" in2="shape" result="effect1_innerShadow_168_437"/>
</filter>
<radialGradient id="paint0_radial_168_437" cx="0" cy="0" r="1" gradientUnits="userSpaceOnUse" gradientTransform="translate(680 197.5) rotate(90) scale(197.5 674.221)">
<stop stop-color="#2F2B72"/>
<stop offset="1" stop-color="#302C74" stop-opacity="0"/>
</radialGradient>
<linearGradient id="paint1_linear_168_437" x1="680" y1="0" x2="680" y2="395" gradientUnits="userSpaceOnUse">
<stop stop-color="#00E8AD"/>
<stop offset="1" stop-color="white" stop-opacity="0"/>
</linearGradient>
</defs>
</svg>
