<svg width="340" height="415" viewBox="0 0 340 415" fill="none" xmlns="http://www.w3.org/2000/svg">
<g filter="url(#filter0_i_168_731)">
<path d="M0 20C0 12.9993 0 9.49902 1.36242 6.82512C2.56084 4.47309 4.47309 2.56084 6.82512 1.36242C9.49902 0 12.9993 0 20 0H320C327.001 0 330.501 0 333.175 1.36242C335.527 2.56084 337.439 4.47309 338.638 6.82512C340 9.49902 340 12.9993 340 20V395C340 402.001 340 405.501 338.638 408.175C337.439 410.527 335.527 412.439 333.175 413.638C330.501 415 327.001 415 320 415H20C12.9993 415 9.49902 415 6.82512 413.638C4.47309 412.439 2.56084 410.527 1.36242 408.175C0 405.501 0 402.001 0 395V20Z" fill="#201D54"/>
<path d="M0 20C0 12.9993 0 9.49902 1.36242 6.82512C2.56084 4.47309 4.47309 2.56084 6.82512 1.36242C9.49902 0 12.9993 0 20 0H320C327.001 0 330.501 0 333.175 1.36242C335.527 2.56084 337.439 4.47309 338.638 6.82512C340 9.49902 340 12.9993 340 20V395C340 402.001 340 405.501 338.638 408.175C337.439 410.527 335.527 412.439 333.175 413.638C330.501 415 327.001 415 320 415H20C12.9993 415 9.49902 415 6.82512 413.638C4.47309 412.439 2.56084 410.527 1.36242 408.175C0 405.501 0 402.001 0 395V20Z" fill="url(#paint0_radial_168_731)" fill-opacity="0.4"/>
</g>
<path d="M20 1H320C323.517 1 326.094 1.00078 328.129 1.16698C330.151 1.33223 331.548 1.65602 332.721 2.25343C334.885 3.35597 336.644 5.11525 337.747 7.27911C338.344 8.45159 338.668 9.8489 338.833 11.8715C338.999 13.9057 339 16.4832 339 20V395C339 398.517 338.999 401.094 338.833 403.129C338.668 405.151 338.344 406.548 337.747 407.721C336.644 409.885 334.885 411.644 332.721 412.747C331.548 413.344 330.151 413.668 328.129 413.833C326.094 413.999 323.517 414 320 414H20C16.4832 414 13.9057 413.999 11.8715 413.833C9.8489 413.668 8.45159 413.344 7.27911 412.747C5.11525 411.644 3.35597 409.885 2.25343 407.721C1.65602 406.548 1.33223 405.151 1.16698 403.129C1.00078 401.094 1 398.517 1 395V20C1 16.4832 1.00078 13.9057 1.16698 11.8715C1.33223 9.8489 1.65602 8.45159 2.25343 7.27911C3.35597 5.11525 5.11525 3.35597 7.27911 2.25343C8.45159 1.65602 9.8489 1.33223 11.8715 1.16698C13.9057 1.00078 16.4832 1 20 1Z" stroke="url(#paint1_linear_168_731)" stroke-width="2"/>
<defs>
<filter id="filter0_i_168_731" x="0" y="0" width="340" height="430" filterUnits="userSpaceOnUse" color-interpolation-filters="sRGB">
<feFlood flood-opacity="0" result="BackgroundImageFix"/>
<feBlend mode="normal" in="SourceGraphic" in2="BackgroundImageFix" result="shape"/>
<feColorMatrix in="SourceAlpha" type="matrix" values="0 0 0 0 0 0 0 0 0 0 0 0 0 0 0 0 0 0 127 0" result="hardAlpha"/>
<feOffset dy="15"/>
<feGaussianBlur stdDeviation="19"/>
<feComposite in2="hardAlpha" operator="arithmetic" k2="-1" k3="1"/>
<feColorMatrix type="matrix" values="0 0 0 0 1 0 0 0 0 1 0 0 0 0 1 0 0 0 0.25 0"/>
<feBlend mode="normal" in2="shape" result="effect1_innerShadow_168_731"/>
</filter>
<radialGradient id="paint0_radial_168_731" cx="0" cy="0" r="1" gradientUnits="userSpaceOnUse" gradientTransform="translate(170 207.5) rotate(90) scale(207.5 168.555)">
<stop stop-color="#2F2B72"/>
<stop offset="1" stop-color="#302C74" stop-opacity="0"/>
</radialGradient>
<linearGradient id="paint1_linear_168_731" x1="170" y1="0" x2="170" y2="415" gradientUnits="userSpaceOnUse">
<stop stop-color="#00E8AD"/>
<stop offset="1" stop-color="white" stop-opacity="0"/>
</linearGradient>
</defs>
</svg>
