<svg width="397" height="182" viewBox="0 0 397 182" fill="none" xmlns="http://www.w3.org/2000/svg">
<path d="M130.346 70.0617C129.01 69.2824 128.146 68.6644 127.756 68.2078C127.361 67.7181 127.087 67.1132 126.933 66.3931C126.795 65.8053 126.698 64.9945 126.64 63.9606C126.616 62.9227 126.611 61.8994 126.624 60.8907C126.636 59.8819 126.663 59.1233 126.702 58.615C126.848 58.4296 126.888 58.2065 126.823 57.9457C126.787 57.6479 126.769 57.4989 126.769 57.4989C126.716 57.3374 126.781 56.8933 126.962 56.1664C127.139 55.4065 127.276 54.45 127.372 53.2969C127.795 51.2316 128.225 49.5012 128.661 48.1058C129.127 46.6732 129.6 45.4413 130.08 44.4098C130.56 43.3784 131.05 42.4298 131.55 41.5638C132.74 40.0106 133.707 38.8367 134.451 38.0422C135.19 37.2146 136.045 36.5074 137.015 35.9207C137.63 35.4439 138.204 35.0558 138.739 34.7565C139.273 34.4571 139.733 34.3683 140.117 34.49C142.018 34.6642 143.499 35.2581 144.561 36.2719C145.619 37.2525 146.503 38.8753 147.212 41.1401C147.619 42.5684 147.91 43.8763 148.087 45.0637C148.292 46.2141 148.349 47.3824 148.257 48.5685C148.16 49.7216 147.879 51.0144 147.414 52.447C146.981 53.8755 146.329 55.5656 145.455 57.5172C144.572 59.9401 143.503 62.083 142.25 63.946C141.03 65.8051 139.717 67.306 138.31 68.4489C136.94 69.6209 135.552 70.3587 134.145 70.6623C132.77 70.9619 131.504 70.7617 130.346 70.0617ZM133.349 68.2399C134.099 68.049 134.799 67.7298 135.45 67.2821C136.101 66.8345 136.766 66.2174 137.443 65.4308C138.117 64.6112 138.868 63.5975 139.696 62.39C140.437 61.2936 141.033 60.3826 141.483 59.657C141.962 58.8944 142.341 58.1436 142.622 57.4048C142.935 56.6621 143.198 55.7744 143.409 54.7417C143.654 53.7051 143.912 52.3646 144.184 50.7203C144.33 49.6956 144.429 48.8444 144.482 48.1666C144.534 47.4887 144.543 46.8665 144.509 46.2999C144.47 45.7003 144.389 45.0218 144.264 44.2646C144.172 43.5034 144.055 42.5271 143.912 41.3357C143.811 40.7771 143.625 40.2119 143.355 39.6401C143.081 39.0352 142.793 38.5997 142.493 38.3337C142.118 38.0095 141.625 37.817 141.013 37.7563C140.398 37.6625 139.746 37.8248 139.058 38.2434C138.68 38.4566 138.213 38.8989 137.656 39.5703C137.095 40.2085 136.513 40.9501 135.909 41.7949C135.306 42.6396 134.737 43.497 134.204 44.3669C133.704 45.2329 133.293 46.0041 132.972 46.6807C132.679 47.3202 132.547 47.7558 132.575 47.9874C132.575 47.9874 132.568 48.0722 132.555 48.2416C132.575 48.4071 132.529 48.5805 132.416 48.7619C132.042 49.277 131.662 50.1621 131.275 51.4172C130.922 52.6683 130.606 54.083 130.325 55.6611C130.041 57.2061 129.823 58.7431 129.671 60.2722C129.549 61.7642 129.52 63.0602 129.585 64.1603C129.627 65.0618 129.667 65.6781 129.707 66.009C129.747 66.34 129.845 66.5967 130.001 66.7794C130.153 66.9289 130.408 67.234 130.766 67.6946C131.004 68.0017 131.365 68.21 131.848 68.3198C132.365 68.4255 132.865 68.3989 133.349 68.2399ZM153.396 63.8139C153.004 63.626 152.637 63.368 152.295 63.0398C151.95 62.6785 151.741 62.1999 151.669 61.6042C151.63 61.2733 151.628 60.7027 151.665 59.8925C151.702 59.0823 151.776 58.1669 151.888 57.1462C152.001 56.1254 152.121 55.1709 152.249 54.2826C152.508 53.6471 152.718 53.0175 152.878 52.394C153.038 51.7704 153.11 51.3924 153.094 51.26C153.112 50.8549 153.139 50.3816 153.175 49.8402C153.244 49.2947 153.318 48.7989 153.399 48.3528C153.48 47.9066 153.549 47.6465 153.607 47.5723C153.753 47.3869 153.939 47.2638 154.167 47.2028C154.391 47.1088 154.626 47.114 154.874 47.2185C155.151 47.2859 155.375 47.4771 155.547 47.7922C155.959 48.1455 156.199 48.6035 156.267 49.1661C156.33 49.6956 156.244 50.5118 156.007 51.6146C155.789 52.3123 155.585 53.1259 155.394 54.0553C155.204 54.9847 155.039 55.8439 154.899 56.6329C154.788 57.3849 154.732 57.8953 154.73 58.164L153.773 58.5813C154.272 57.9841 154.736 57.3743 155.165 56.752C155.59 56.0966 155.898 55.5895 156.09 55.2306C156.561 54.4018 156.965 53.7152 157.302 53.171C157.669 52.5898 158.139 51.8953 158.714 51.0876C159.284 50.2468 159.874 49.7058 160.482 49.4647C161.12 49.1865 161.621 49.0255 161.986 48.9817C162.73 49.0265 163.354 49.3374 163.86 49.9144C164.395 50.4544 164.801 51.3121 165.076 52.4876C165.132 52.9509 165.148 53.503 165.125 54.1437C165.134 54.7805 165.139 55.0989 165.139 55.0989C165.139 55.0989 165.362 54.7195 165.808 53.9608C166.287 53.1981 166.94 52.3474 167.767 51.4085C168.34 50.8696 168.92 50.5312 169.508 50.3933C170.092 50.2224 170.645 50.3572 171.168 50.7979C172.084 51.1577 172.733 51.8016 173.113 52.7295C173.489 53.6243 173.699 54.8077 173.741 56.2798C173.746 57.1522 173.807 57.7995 173.925 58.2218C174.039 58.611 174.186 58.9962 174.366 59.3774C174.647 59.4779 174.73 59.7532 174.616 60.2034C174.499 60.6204 174.324 60.8429 174.092 60.8708C173.761 60.9106 173.373 60.8902 172.927 60.8095C172.514 60.7249 172.124 60.5536 171.757 60.2956C171.419 60.0005 171.216 59.5716 171.149 59.009L170.779 55.9312C170.691 55.2031 170.586 54.6114 170.464 54.156C170.375 53.6967 170.259 53.4253 170.115 53.342C169.727 53.1872 169.223 53.466 168.604 54.1784C167.984 54.8908 167.341 55.8243 166.674 56.9789C166.007 58.1335 165.394 59.3152 164.835 60.524C164.329 61.6256 164.004 62.2691 163.858 62.4545C163.742 62.6028 163.487 62.583 163.096 62.3951C162.34 62.2511 161.838 61.9924 161.592 61.6191C161.375 61.2088 161.301 60.7309 161.369 60.1855C161.467 59.603 161.574 58.8179 161.69 57.8303C161.84 56.8387 161.976 55.8822 162.1 54.9608C162.221 54.0062 162.29 53.3264 162.308 52.9213C162.144 52.6725 161.903 52.6176 161.584 52.7567C161.294 52.8588 160.997 53.0455 160.694 53.317C160.329 53.6295 159.909 54.1837 159.434 54.9794C158.959 55.7752 158.481 56.6888 158.001 57.7202C157.679 58.3968 157.341 59.0753 156.987 59.7559C156.628 60.4034 156.295 60.9807 155.986 61.4878C155.678 61.9949 155.405 62.3802 155.169 62.6437C154.793 63.4276 154.526 63.8625 154.369 63.9486C154.211 64.0347 153.887 63.9898 153.396 63.8139ZM177.923 63.079C177.646 63.0116 177.341 62.8469 177.007 62.5848C176.67 62.2897 176.376 61.939 176.125 61.5327C175.875 61.1263 175.728 60.7411 175.684 60.3771C175.806 59.9931 175.945 59.3385 176.103 58.413C176.256 57.4545 176.459 56.3557 176.713 55.1165C176.934 54.7206 177.081 54.2665 177.154 53.7542C177.259 53.2378 177.355 52.7731 177.439 52.3601C177.64 51.7987 177.873 51.0824 178.137 50.2113C178.398 49.307 178.642 48.4048 178.869 47.5045C179.126 46.5671 179.351 45.7847 179.544 45.1571C179.804 44.2529 179.956 43.6975 179.998 43.4909C180.036 43.2513 180.064 43.0633 180.081 42.927C180.049 42.6622 180.09 42.4391 180.202 42.2577C180.311 42.0432 180.431 41.928 180.564 41.9121C180.68 41.7638 180.821 41.6797 180.986 41.6598C181.181 41.6028 181.345 41.5663 181.477 41.5504C181.841 41.5066 182.185 41.717 182.51 42.1816C182.83 42.613 183.014 43.0273 183.062 43.4245C183.11 43.8216 183.029 44.4021 182.818 45.1661C182.637 45.8929 182.41 46.6588 182.138 47.4638C181.899 48.2648 181.697 48.9605 181.533 49.551C181.369 50.1415 181.343 50.4804 181.454 50.5677C181.454 50.5677 181.673 50.4406 182.113 50.1863C182.548 49.8989 183.007 49.5247 183.489 49.0639C183.829 48.8215 184.196 48.5255 184.591 48.1759C184.985 47.8263 185.365 47.4953 185.73 47.1827C186.091 46.8371 186.4 46.6153 186.657 46.5172C187.023 46.2047 187.406 45.9067 187.809 45.6233C188.207 45.3068 188.464 45.0744 188.581 44.926C189.112 44.5936 189.515 44.4611 189.792 44.5285C190.102 44.592 190.43 44.8044 190.775 45.1657C191.191 45.5521 191.303 45.9247 191.111 46.2835C190.915 46.6093 190.419 47.0886 189.622 47.7217C188.979 48.2355 188.197 48.85 187.276 49.5652C186.388 50.2763 185.591 50.9094 184.885 51.4643C184.213 52.0152 183.833 52.3462 183.746 52.4575C183.746 52.4575 183.908 52.6898 184.233 53.1543C184.557 53.6189 184.876 54.0338 185.188 54.3991C185.517 54.8968 185.858 55.3594 186.211 55.7868C186.594 56.1773 186.795 56.4552 186.815 56.6207C187.163 57.2838 187.564 57.8232 188.017 58.2387C188.466 58.6212 188.947 58.8487 189.459 58.9214C190 58.957 190.522 58.8271 191.024 58.5317C191.654 58.1873 192.123 58.0469 192.433 58.1103C192.776 58.1698 193.038 58.3901 193.218 58.7713C193.382 59.0202 193.439 59.2147 193.389 59.3551C193.368 59.4584 193.182 59.7324 192.833 60.1774C192.28 60.8818 191.682 61.3566 191.04 61.6017C190.431 61.8428 189.846 61.8628 189.285 61.6618C188.954 61.7016 188.557 61.615 188.095 61.402C187.629 61.1559 187.042 60.7397 186.334 60.1535C185.658 59.5633 184.802 58.7262 183.765 57.6423C183.749 57.5099 183.661 57.3358 183.501 57.1201C183.37 56.8673 183.224 56.633 183.064 56.4173C182.9 56.1684 182.7 55.907 182.466 55.6331C182.228 55.326 182.108 55.1725 182.108 55.1725C182.097 55.0732 182.053 54.9944 181.979 54.9362C181.934 54.8409 181.854 54.7331 181.739 54.6126C181.657 54.4882 181.556 54.3492 181.437 54.1957C180.888 54.0939 180.519 54.239 180.331 54.6309C180.143 55.0228 179.941 55.4333 179.724 55.8623C179.61 56.3124 179.469 56.9505 179.299 57.7767C179.159 58.5657 179.05 59.3342 178.972 60.0822C178.928 60.8262 178.954 61.3266 179.052 61.5834C179.116 62.1129 179.077 62.4869 178.935 62.7054C178.79 62.8908 178.452 63.0153 177.923 63.079ZM194.636 72.5506C194.392 72.4792 194.124 72.3436 193.831 72.1438C193.539 71.944 193.292 71.7051 193.09 71.4272C192.893 71.1823 192.782 70.9606 192.758 70.762C192.735 70.5635 192.754 70.024 192.816 69.1436C192.882 68.2964 192.973 67.2445 193.091 65.9882C193.245 64.7609 193.412 63.4986 193.592 62.2012C193.809 60.9329 194.041 59.797 194.29 58.7934C194.336 58.62 194.486 58.0481 194.738 57.0776C195.02 56.0701 195.261 54.866 195.462 53.4653C195.623 52.573 195.853 51.5549 196.152 50.411C196.451 49.2671 196.766 48.1213 197.098 46.9734C197.426 45.7924 197.687 44.7538 197.882 43.8575C198.076 42.9612 198.241 42.2364 198.375 41.683C198.539 41.0925 198.63 40.7291 198.647 40.5927C198.689 40.3862 198.769 40.2088 198.885 40.0604C199.031 39.8751 199.18 39.7228 199.334 39.6036C199.483 39.4513 199.606 39.3526 199.701 39.3076C200.277 39.0705 200.82 39.257 201.33 39.8671C201.531 40.145 201.606 40.4886 201.554 40.8976C201.503 41.3067 201.381 41.825 201.187 42.4526L200.959 43.4872L202.699 42.8751C202.997 42.8393 203.363 42.812 203.797 42.7934C204.26 42.7376 204.707 42.6839 205.137 42.6321C205.567 42.5804 205.886 42.5756 206.092 42.6179C206.891 42.5555 207.455 42.6387 207.784 42.8676C208.147 43.0926 208.47 43.4062 208.754 43.8086C208.939 43.9542 209.165 44.1619 209.433 44.4319C209.696 44.6688 209.861 44.9176 209.926 45.1784C210.126 45.7251 210.199 46.3373 210.147 47.0152C210.123 47.6559 210 48.3086 209.778 48.9732C209.589 49.6339 209.294 50.2568 208.895 50.8421C208.524 51.3903 208.111 51.8597 207.654 52.2504C207.339 52.4225 207.059 52.6073 206.814 52.8046C206.565 52.9689 206.441 53.051 206.441 53.051C206.428 53.2204 206.096 53.529 205.444 53.9766C204.789 54.3912 204.033 54.8011 203.175 55.2065C202.317 55.6118 201.563 55.904 200.914 56.0829C200.686 56.1439 200.359 56.2168 199.933 56.3016C199.506 56.3865 199.169 56.3766 198.922 56.2721C198.55 56.2497 198.298 56.2465 198.165 56.2624C198.033 56.2784 197.975 56.3525 197.991 56.4849C197.966 56.5551 197.817 57.2779 197.546 58.6535C197.275 60.029 197.014 61.6217 196.762 63.4314C196.364 65.4266 196.034 67.0106 195.772 68.1836C195.514 69.3897 195.303 70.288 195.139 70.8785C195.009 71.465 194.905 71.8635 194.83 72.074C194.759 72.3176 194.694 72.4765 194.636 72.5506ZM198.637 53.4862C198.76 53.6728 199.083 53.7012 199.604 53.5713C200.155 53.4043 200.793 53.1261 201.518 52.7367C202.273 52.3102 203.007 51.8526 203.72 51.3639C204.429 50.8421 205.006 50.3362 205.451 49.8463C206.08 48.9313 206.584 48.0985 206.964 47.3477C207.339 46.5639 207.348 46.0761 206.989 45.8842C206.561 45.3985 205.853 45.2319 204.864 45.3845C203.875 45.537 202.7 46.098 201.34 47.0674C200.801 47.3337 200.403 47.6502 200.145 48.017C199.916 48.3467 199.73 48.7551 199.587 49.2424C199.444 49.7296 199.264 50.322 199.045 51.0198C198.835 51.7837 198.702 52.3536 198.647 52.7296C198.591 53.1056 198.588 53.3578 198.637 53.4862ZM222.909 57.2642C221.819 57.6974 221.043 57.9419 220.58 57.9977C220.116 58.0534 219.592 57.8815 219.007 57.4818C218.821 57.3363 218.702 57.1827 218.649 57.0212C218.592 56.8267 218.495 56.7208 218.359 56.7036C218.298 56.4759 218.293 56.2919 218.343 56.1516C218.422 55.9742 218.62 55.7993 218.935 55.6272C219.467 55.8653 220.106 55.8724 220.851 55.6484C221.596 55.4245 222.307 55.0536 222.983 54.5358C223.689 53.9809 224.219 53.3631 224.573 52.6826C225.14 51.8087 225.563 51.0023 225.843 50.2636C226.12 49.4917 226.241 48.8224 226.206 48.2558C226.166 47.9249 226.089 47.6992 225.974 47.5788C225.888 47.4213 225.692 47.193 225.388 46.8939C224.816 47.1641 224.298 47.4615 223.833 47.7859C223.402 48.1064 223.055 48.4335 222.793 48.7672C221.9 49.714 221.203 50.486 220.705 51.0832C220.239 51.6764 219.839 52.2617 219.506 52.839C219.205 53.4123 218.828 54.1796 218.372 55.1408C218.148 55.5036 217.929 55.7817 217.717 55.975C217.539 56.1644 217.334 56.273 217.102 56.3009C217.281 56.9508 217.097 57.3758 216.55 57.5759C215.802 57.498 215.247 57.3466 214.884 57.1217C214.517 56.8636 214.35 56.3129 214.383 55.4697C214.46 54.9904 214.527 54.4284 214.583 53.7837C214.636 53.1059 214.719 52.5419 214.833 52.0918C215.372 49.8781 215.84 47.9081 216.237 46.1817C216.667 44.4513 217.072 43.2108 217.451 42.4601L218.203 39.4991C218.77 39.4645 219.214 39.5286 219.535 39.6913C219.853 39.8209 220.251 40.1928 220.727 40.8069C220.747 40.9724 220.639 41.4722 220.404 42.3063C220.198 43.1033 219.939 44.0241 219.628 45.0687C219.351 46.1093 219.082 47.0818 218.821 47.986C218.59 48.8532 218.428 49.4602 218.335 49.8071C218.247 50.1871 218.338 50.1089 218.609 49.5727C218.913 49.0325 219.467 48.328 220.269 47.4594C220.647 46.9774 221.129 46.5165 221.714 46.0768C222.295 45.6041 222.788 45.2425 223.195 44.9922C223.634 44.7379 224.001 44.5762 224.295 44.5073C224.589 44.4384 224.8 44.3794 224.928 44.3304C225.756 44.2309 226.443 44.3663 226.992 44.7369C227.536 45.0743 227.939 45.4958 228.201 46.0014C228.497 46.5031 228.664 46.9194 228.704 47.2503C228.867 47.7679 228.995 48.2729 229.088 48.7653C229.21 49.2207 229.236 49.7211 229.168 50.2665C229.1 50.5432 228.962 50.9292 228.753 51.4244C228.544 51.9195 228.287 52.4372 227.983 52.9774C227.708 53.4806 227.356 53.9089 226.929 54.2625C226.667 54.5962 226.308 54.9584 225.851 55.3491C225.394 55.7397 224.903 56.1178 224.376 56.4834C223.878 56.8118 223.389 57.0721 222.909 57.2642ZM233.33 56.8163C232.726 56.8218 232.208 56.6995 231.775 56.4494C231.371 56.1622 231.048 55.7142 230.807 55.1053C230.74 54.5427 230.744 54.0218 230.821 53.5425C230.926 53.0262 231.001 52.5304 231.045 52.0551C231.119 51.2741 231.259 50.485 231.465 49.688C231.671 48.891 231.844 48.098 231.984 47.3089C232.127 46.8217 232.239 46.355 232.32 45.9088C232.4 45.4627 232.481 45.0165 232.562 44.5704C232.663 44.021 232.767 43.4881 232.873 42.9718C232.979 42.4554 233.084 41.9391 233.19 41.4228C233.271 40.9766 233.316 40.5179 233.327 40.0466C233.37 39.5713 233.397 39.0981 233.408 38.6268C233.724 38.1858 234.101 37.9726 234.539 37.987C235.011 37.9975 235.619 38.3104 236.365 38.9257C236.578 39.303 236.704 39.657 236.744 39.988C236.78 40.2858 236.735 40.6102 236.609 40.9611C236.513 41.2748 236.385 41.7435 236.225 42.3671C236.098 42.9867 235.954 43.6083 235.794 44.2318C235.663 44.8183 235.566 45.2665 235.503 45.5763C235.48 45.9483 235.37 46.5659 235.172 47.4291C235.006 48.2883 234.829 49.1826 234.638 50.112C234.444 51.0083 234.312 51.7292 234.244 52.2746C234.105 52.7949 234.014 53.2927 233.97 53.768C233.927 54.2432 233.897 54.8343 233.881 55.5413C233.983 55.8312 233.964 56.0853 233.822 56.3038C233.71 56.4852 233.545 56.656 233.33 56.8163ZM241.772 53.1819C241.38 52.994 241.013 52.736 240.672 52.4078C240.326 52.0465 240.117 51.568 240.046 50.9723C240.006 50.6413 240.004 50.0708 240.041 49.2606C240.078 48.4504 240.153 47.5349 240.265 46.5142C240.377 45.4935 240.497 44.539 240.625 43.6506C240.885 43.0151 241.094 42.3856 241.254 41.762C241.414 41.1384 241.486 40.7604 241.47 40.6281C241.489 40.223 241.516 39.7497 241.551 39.2082C241.62 38.6628 241.695 38.167 241.775 37.7208C241.856 37.2747 241.925 37.0145 241.984 36.9404C242.129 36.755 242.316 36.6318 242.544 36.5708C242.767 36.4768 243.003 36.482 243.25 36.5865C243.527 36.6539 243.752 36.8452 243.924 37.1602C244.336 37.5135 244.575 37.9715 244.643 38.5341C244.707 39.0636 244.62 39.8798 244.384 40.9826C244.165 41.6804 243.961 42.4939 243.771 43.4233C243.58 44.3527 243.415 45.2119 243.275 46.001C243.164 46.7529 243.108 47.2633 243.107 47.532L242.15 47.9493C242.649 47.3521 243.112 46.7424 243.541 46.12C243.966 45.4646 244.274 44.9575 244.466 44.5987C244.937 43.7698 245.341 43.0833 245.679 42.5391C246.045 41.9578 246.516 41.2633 247.09 40.4556C247.66 39.6148 248.25 39.0738 248.859 38.8327C249.497 38.5545 249.998 38.3935 250.362 38.3497C251.106 38.3945 251.731 38.7054 252.237 39.2825C252.772 39.8224 253.177 40.6802 253.453 41.8556C253.509 42.319 253.525 42.871 253.501 43.5117C253.51 44.1485 253.515 44.4669 253.515 44.4669C253.515 44.4669 253.738 44.0875 254.184 43.3289C254.663 42.5662 255.316 41.7154 256.143 40.7766C256.716 40.2376 257.297 39.8992 257.884 39.7613C258.468 39.5904 259.022 39.7252 259.545 40.1659C260.461 40.5257 261.109 41.1696 261.489 42.0975C261.865 42.9923 262.075 44.1757 262.118 45.6478C262.122 46.5202 262.183 47.1676 262.301 47.5898C262.415 47.979 262.562 48.3642 262.742 48.7454C263.023 48.8459 263.106 49.1213 262.993 49.5714C262.875 49.9885 262.7 50.2109 262.469 50.2388C262.138 50.2786 261.749 50.2582 261.303 50.1776C260.89 50.093 260.5 49.9217 260.133 49.6636C259.796 49.3685 259.593 48.9396 259.525 48.377L259.155 45.2992C259.067 44.5711 258.963 43.9794 258.841 43.5241C258.752 43.0647 258.635 42.7934 258.491 42.71C258.103 42.5552 257.599 42.834 256.98 43.5464C256.361 44.2589 255.718 45.1924 255.051 46.3469C254.384 47.5015 253.771 48.6832 253.211 49.8921C252.706 50.9936 252.38 51.6371 252.235 51.8225C252.118 51.9708 251.864 51.951 251.472 51.7632C250.716 51.6191 250.215 51.3604 249.969 50.9872C249.751 50.5769 249.677 50.099 249.746 49.5535C249.844 48.971 249.951 48.1859 250.067 47.1983C250.216 46.2067 250.353 45.2502 250.477 44.3288C250.597 43.3743 250.666 42.6945 250.685 42.2894C250.521 42.0405 250.279 41.9857 249.96 42.1248C249.67 42.2268 249.374 42.4135 249.071 42.685C248.705 42.9975 248.285 43.5517 247.81 44.3475C247.335 45.1432 246.857 46.0568 246.377 47.0882C246.056 47.7648 245.718 48.4434 245.363 49.1239C245.004 49.7714 244.671 50.3487 244.363 50.8558C244.054 51.3629 243.782 51.7482 243.545 52.0118C243.169 52.7956 242.903 53.2305 242.745 53.3166C242.588 53.4027 242.263 53.3578 241.772 53.1819ZM270.039 51.4936C269.609 51.5453 269.251 51.5044 268.966 51.3708C268.715 51.2332 268.389 51.0374 267.989 50.7833C267.281 50.197 266.758 49.622 266.422 49.0581C266.082 48.4612 265.927 47.8754 265.959 47.3009C266.026 47.0242 266.029 46.772 265.968 46.5443C265.937 46.2796 265.921 46.1472 265.921 46.1472C265.735 46.0016 265.674 45.9083 265.736 45.8672C265.794 45.7931 265.848 45.6858 265.899 45.5455C266.097 45.5216 266.142 45.3316 266.032 44.9756C265.934 44.7188 265.996 44.1237 266.22 43.1903C266.443 42.2569 266.755 41.3632 267.156 40.5093C267.315 40.1544 267.561 39.6884 267.894 39.1111C268.224 38.5007 268.588 37.9029 268.988 37.3176C269.417 36.6953 269.81 36.1947 270.167 35.816C270.911 35.0215 271.577 34.4209 272.166 34.0143C272.755 33.6077 273.404 33.2779 274.112 33.0249C274.82 32.7718 275.307 32.6293 275.571 32.5975C275.869 32.5616 276.298 32.7786 276.858 33.2484C277.659 33.4878 278.253 33.8192 278.64 34.2428C279.06 34.6623 279.373 35.3129 279.58 36.1945C279.798 37.1754 279.853 38.3271 279.744 39.6496C279.663 40.9351 279.075 42.6007 277.978 44.6463C277.294 45.9373 276.64 46.9224 276.017 47.6017C275.389 48.2479 274.63 48.9101 273.738 49.5881C273.098 50.1351 272.511 50.5582 271.977 50.8576C271.438 51.1238 270.792 51.3358 270.039 51.4936ZM274.171 45.6582C274.858 44.6691 275.385 43.7495 275.753 42.8995C276.154 42.0455 276.496 40.9804 276.779 39.7041C276.867 39.3242 276.896 38.8674 276.866 38.3339C276.831 37.7673 276.753 37.2564 276.631 36.801C276.538 36.3086 276.389 36.0412 276.182 35.9989C275.757 35.815 275.269 35.8065 274.719 35.9735C274.164 36.1074 273.589 36.4954 272.995 37.1377C272.073 38.1216 271.309 39.3046 270.703 40.6869C270.093 42.0361 269.521 43.5653 268.988 45.2745C268.635 46.5256 268.635 47.4993 268.987 48.1956C269.369 48.8547 270.011 49.0293 270.914 48.7192C271.846 48.3721 272.931 47.3518 274.171 45.6582ZM296.635 41.1931C296.605 40.6596 296.624 39.9858 296.694 39.1716C296.764 38.3574 296.821 37.5783 296.866 36.8343C296.944 36.0863 296.932 35.5674 296.83 35.2775C296.678 35.1279 296.511 34.9969 296.329 34.8845C296.148 34.772 295.967 34.6595 295.785 34.547C295.808 34.175 295.834 33.8361 295.864 33.5303C295.928 33.2205 296.146 32.9425 296.519 32.6961L296.885 32.8032C296.98 32.7582 297.075 32.7132 297.171 32.6681C297.262 32.59 297.339 32.5304 297.401 32.4893C297.66 31.8538 297.881 31.1726 298.062 30.4458C298.239 29.6859 298.389 28.9795 298.512 28.3269C298.61 27.7443 298.78 27.0691 299.024 26.3012C299.267 25.5333 299.526 24.8978 299.801 24.3947C299.968 24.106 300.104 23.8379 300.208 23.5903C300.309 23.3096 300.409 23.029 300.51 22.7483C300.736 22.1167 301.072 21.4216 301.518 20.6629C301.96 19.8711 302.457 19.123 303.011 18.4186C303.593 17.6771 304.145 17.107 304.668 16.7084C305.187 16.2766 305.643 16.0203 306.036 15.9395C306.425 15.8255 306.932 15.7141 307.557 15.6054C307.912 15.7642 308.349 16.0473 308.868 16.4549C309.42 16.8585 309.72 17.2589 309.768 17.656C309.808 17.987 309.851 18.351 309.899 18.7481C309.943 19.1122 309.9 19.4531 309.77 19.7708C309.831 19.9985 309.845 20.2487 309.81 20.5215C309.772 20.7611 309.719 21.0192 309.652 21.2959C309.635 21.4323 309.603 21.5872 309.557 21.7606C309.543 21.9301 309.53 22.0995 309.517 22.269C309.044 23.6353 308.596 24.7971 308.174 25.7544C307.781 26.6746 307.326 27.5015 306.81 28.235C306.323 28.9315 305.724 29.675 305.014 30.4656C304.332 31.219 303.499 32.1082 302.515 33.1332C303.097 33.231 303.627 33.4525 304.105 33.7979C304.579 34.1102 304.873 34.5953 304.985 35.2532C305.005 35.4187 305.011 35.6027 305.002 35.8052C305.025 36.0038 305.066 36.2004 305.123 36.395C305.241 36.8173 305.324 37.227 305.371 37.6241C305.448 37.9841 305.527 38.3608 305.608 38.7539C305.722 39.1431 305.78 39.623 305.781 40.1935C305.783 40.7641 305.774 41.2519 305.756 41.657C305.739 41.7934 305.699 41.8821 305.637 41.9232C305.604 41.9271 305.597 42.0119 305.617 42.1773C305.681 42.7069 305.621 43.1841 305.437 43.6091C305.253 44.0341 305.058 44.5108 304.853 45.039C304.774 45.2165 304.66 45.3813 304.51 45.5336C304.356 45.6528 304.223 45.8031 304.111 45.9845C303.628 46.7141 303.095 47.1643 302.511 47.3353C301.96 47.5022 301.316 47.7308 300.579 48.0209L300.492 48.1322C300.129 47.9072 299.861 47.7716 299.687 47.7253C299.547 47.6751 299.287 47.6056 298.907 47.5171C298.752 47.0657 298.464 46.6302 298.045 46.2107C297.658 45.7872 297.402 45.3312 297.276 44.8427C297.215 44.6151 297.172 44.4019 297.148 44.2034C297.154 43.9677 297.062 43.7606 296.872 43.5819C297.084 43.3886 297.093 43.186 296.9 42.9743C296.706 42.7625 296.697 42.5454 296.872 42.3229C296.864 42.2567 296.856 42.1906 296.848 42.1244C296.873 42.0542 296.884 42.0026 296.88 41.9695C296.839 41.9073 296.794 41.812 296.745 41.6836C296.692 41.5221 296.655 41.3586 296.635 41.1931ZM301.307 44.8614C302.009 44.0047 302.445 43.1632 302.615 42.3371C302.78 41.4779 302.811 40.618 302.707 39.7576C302.633 38.86 302.536 37.9149 302.416 36.922C302.397 36.7565 302.344 36.5951 302.257 36.4375C302.204 36.276 302.203 36.1251 302.253 35.9848C302.077 35.6367 301.897 35.2555 301.713 34.8412C301.525 34.3938 301.229 34.0265 300.825 33.7393C300.576 33.9036 300.379 34.0784 300.233 34.2637C300.088 34.4491 299.906 34.7563 299.689 35.1853C299.564 35.5362 299.472 36.1683 299.414 37.0818C299.389 37.9913 299.409 38.996 299.474 40.0961C299.536 41.1631 299.655 42.156 299.833 43.0747C300.044 43.9894 300.32 44.6108 300.661 44.939L301.307 44.8614ZM304.638 20.6402C303.66 22 302.834 23.5094 302.161 25.1684C301.487 26.8274 300.998 28.481 300.693 30.1293L301.275 30.3614L303.512 28.0275C303.603 27.9494 303.776 27.7104 304.03 27.3105C304.284 26.9106 304.52 26.4962 304.737 26.0672C304.983 25.6011 305.116 25.3165 305.137 25.2132C305.407 24.9457 305.653 24.4796 305.876 23.815C306.131 23.1464 306.345 22.4156 306.518 21.6225C306.688 20.7964 306.797 20.0279 306.845 19.317C306.923 18.569 306.907 18.017 306.797 17.6609L306.468 17.8516C306.188 18.3217 305.893 18.7937 305.58 19.2677C305.264 19.7086 304.95 20.1661 304.638 20.6402ZM315.311 46.9536C313.855 47.1288 312.598 46.7261 311.54 45.7455C310.478 44.7317 309.864 43.3955 309.698 41.7368C309.621 40.5374 309.699 39.2354 309.933 37.8307C310.196 36.389 310.599 34.9975 311.143 33.6563C311.683 32.282 312.309 31.0652 313.021 30.0059C313.732 28.9466 314.511 28.1647 315.357 27.6601C315.668 27.4548 316 27.2806 316.352 27.1375C316.737 26.9904 317.128 26.893 317.525 26.8452C317.889 26.8014 318.278 26.8219 318.691 26.9065C319.1 26.958 319.445 27.034 319.726 27.1345C320.316 27.2985 320.78 27.528 321.118 27.8231C321.455 28.1183 321.782 28.5994 322.097 29.2665C322.272 29.8834 322.376 30.3242 322.407 30.5889C322.439 30.8537 322.404 31.2608 322.303 31.8102C322.049 33.0494 321.659 34.137 321.134 35.0731C320.609 36.0092 319.852 36.8388 318.865 37.562C318.62 37.7593 318.322 37.9295 317.969 38.0726C317.646 38.1786 317.303 38.2535 316.939 38.2973C316.277 38.3769 315.618 38.3387 314.961 38.1827C314.334 37.9896 313.808 37.6667 313.384 37.2141L312.989 36.8588L312.888 37.2738C312.664 38.2072 312.499 39.0664 312.392 39.8515C312.318 40.6326 312.319 41.3375 312.395 41.9663C312.442 42.3634 312.521 42.7401 312.631 43.0961C312.774 43.4482 312.945 43.7467 313.142 43.9916C313.298 44.1742 313.531 44.2972 313.841 44.3607C314.18 44.3871 314.531 44.3784 314.895 44.3346C315.127 44.3067 315.359 44.2788 315.59 44.251C315.851 44.186 316.091 44.09 316.311 43.9628C316.85 43.6966 317.271 43.4277 317.574 43.1562C317.91 42.8808 318.244 42.5887 318.576 42.2802L318.763 42.157L318.713 42.163C319.087 41.9166 319.41 41.6763 319.684 41.4419C319.991 41.2035 320.145 41.0843 320.145 41.0843C320.277 41.0684 320.4 40.9697 320.512 40.7883C320.761 40.6241 321.098 40.6339 321.523 40.8178C321.981 40.9977 322.232 41.2697 322.276 41.6337C322.262 41.8032 322.145 42.0858 321.924 42.4817C321.699 42.8445 321.439 43.1948 321.144 43.5324C320.882 43.8661 320.654 44.0615 320.459 44.1184C320.43 44.1555 320.322 44.2356 320.136 44.3588C319.945 44.4489 319.821 44.531 319.763 44.6052L319.812 44.5992C319.562 45.0322 319.288 45.2666 318.99 45.3024L318.593 45.3502C318.489 45.5978 318.09 45.9143 317.398 46.2997C316.702 46.6521 316.006 46.87 315.311 46.9536ZM316.231 35.7637C316.827 35.692 317.32 35.4648 317.71 35.0821C318.13 34.6623 318.479 34.2174 318.759 33.7474C319.313 32.7742 319.59 31.8679 319.59 31.0286C319.619 30.1522 319.448 29.5685 319.077 29.2773C318.866 29.2019 318.678 29.1742 318.513 29.1941C318.377 29.1769 318.101 29.2604 317.687 29.4445C317.397 29.5466 317.013 29.8445 316.535 30.3385C316.058 30.8324 315.586 31.376 315.12 31.9692C314.687 32.5584 314.361 33.051 314.14 33.4469L313.62 34.567C313.872 34.4359 314.115 34.3564 314.346 34.3285C314.607 34.2636 314.758 34.2622 314.799 34.3244C314.835 34.6223 314.918 34.8976 315.05 35.1504C315.21 35.3661 315.381 35.5302 315.562 35.6427C315.777 35.7512 316 35.7915 316.231 35.7637ZM330.061 44.726C329.92 44.6758 329.769 44.6771 329.608 44.7301C329.475 44.7461 329.324 44.7474 329.155 44.7342C327.872 44.1164 326.968 43.3018 326.444 42.2906C325.952 41.2753 325.732 40.1435 325.783 38.8951C325.835 37.6467 326.02 36.399 326.34 35.1518C326.504 34.5613 326.668 33.9709 326.832 33.3804C327.025 32.7528 327.311 32.1981 327.69 31.7161C327.858 31.1587 328.187 30.5483 328.678 29.8849C329.169 29.2215 329.715 28.6018 330.318 28.0258C330.953 27.4457 331.521 27.008 332.023 26.7127C332.301 26.5114 332.599 26.3412 332.918 26.2021C333.233 26.0299 333.53 25.8431 333.808 25.6418C334.238 25.59 334.606 25.5793 334.912 25.6097C335.218 25.6401 335.48 25.726 335.698 25.8676C335.913 25.9761 336.106 26.1879 336.278 26.5029C336.447 26.7848 336.594 27.17 336.72 27.6585C336.529 27.7485 336.278 27.8962 335.967 28.1015C335.689 28.3028 335.424 28.469 335.171 28.6002C333.24 29.5711 331.808 30.7842 330.875 32.2394C329.975 33.6905 329.206 35.3946 328.569 37.3514C328.393 37.8426 328.304 38.3569 328.301 38.8944C328.328 39.3948 328.322 39.8992 328.282 40.4075C328.283 40.9781 328.49 41.4401 328.902 41.7934C329.132 42.0343 329.461 42.1123 329.887 42.0274C330.342 41.9055 330.773 41.7194 331.179 41.469C331.619 41.2147 331.895 40.9969 332.007 40.8155C332.128 40.7003 332.232 40.5871 332.319 40.4758C332.439 40.3606 332.558 40.2289 332.674 40.0806C333.752 38.7087 334.556 36.8829 335.087 34.6031C335.652 32.3193 336.089 29.9502 336.398 27.4957C336.424 27.1568 336.464 26.6484 336.517 25.9706C336.598 25.2557 336.649 24.5614 336.669 23.8875C336.688 23.2137 336.649 22.7484 336.551 22.4916C336.494 22.297 336.406 22.1229 336.287 21.9694C336.164 21.7828 336.175 21.5968 336.321 21.4114C336.168 21.2618 335.978 20.9323 335.748 20.4227C335.519 19.9131 335.358 19.5464 335.264 19.3227C334.846 18.3657 334.244 17.6828 333.456 17.2739C332.668 16.8651 331.805 16.6668 330.866 16.679C329.928 16.6912 329.011 16.8854 328.116 17.2616C327.926 17.3517 327.733 17.4252 327.538 17.4822C327.34 17.5061 327.145 17.5631 326.955 17.6532C326.504 17.5395 326.158 17.3125 325.916 16.9724C325.674 16.6322 325.505 16.3503 325.411 16.1266C325.371 15.7956 325.389 15.5249 325.465 15.3144C325.573 15.0999 325.719 14.9145 325.901 14.7583C326.117 14.598 326.353 14.4689 326.61 14.3708C326.991 14.1907 327.379 14.0602 327.772 13.9793C328.194 13.8613 328.496 13.7242 328.679 13.568C329.158 13.6446 329.63 13.6551 330.093 13.5993C330.589 13.5396 331.065 13.5831 331.519 13.73C332.216 13.9482 332.857 14.1062 333.439 14.204C334.051 14.2647 334.63 14.6147 335.177 15.2539C335.493 15.6523 335.854 15.9951 336.257 16.2822C336.694 16.5654 337.055 16.9082 337.338 17.3105C337.543 17.6216 337.831 18.057 338.2 18.6169C338.603 19.1728 338.81 19.6347 338.82 20.0028C339.612 21.284 340.011 22.6461 340.017 24.0891C340.019 25.499 339.855 26.9288 339.526 28.3784C339.196 29.8281 338.911 31.2222 338.669 32.5607C338.664 32.7963 338.576 33.0419 338.405 33.2975C338.234 33.553 338.182 33.8112 338.247 34.072C337.823 35.298 337.383 36.526 336.927 37.756C336.5 38.9489 335.945 40.0564 335.262 41.0786C334.579 42.1008 333.645 42.9854 332.459 43.7324C332.243 43.8927 331.851 44.1245 331.284 44.4278C330.745 44.694 330.337 44.7935 330.061 44.726ZM351.439 40.6936C350.816 41.3729 350.047 41.818 349.132 42.0287C348.251 42.2355 347.358 42.2086 346.453 41.9481C345.545 41.6545 344.762 41.1444 344.104 40.4178C343.454 39.7574 342.99 38.9738 342.713 38.0671C342.432 37.1273 342.266 35.8882 342.216 34.3499C342.16 33.0473 342.418 31.7068 342.991 30.3285C343.56 28.9171 344.295 27.6368 345.198 26.4874C346.133 25.3341 347.09 24.4971 348.068 23.9766C348.525 23.5859 348.921 23.3872 349.256 23.3805C349.62 23.3367 350.17 23.3041 350.906 23.2827C351.679 23.2904 352.26 23.3716 352.647 23.5264C353.069 23.6772 353.415 23.9041 353.686 24.2072C354.242 24.6439 354.633 25.1005 354.858 25.577C355.079 26.0205 355.218 26.4738 355.274 26.9372C355.229 27.6812 354.84 28.6344 354.107 29.797C353.403 30.9225 352.412 31.8978 351.135 32.7229C350.435 33.0422 349.653 33.237 348.788 33.3074C347.924 33.3778 347.186 33.2483 346.576 32.9189C345.915 32.7298 345.508 32.8292 345.353 33.2171C345.194 33.5719 345.112 34.4212 345.105 35.7649C345.124 37.0384 345.335 37.9531 345.738 38.509C346.136 39.0318 346.623 39.309 347.197 39.3406C347.875 39.3934 348.4 39.4309 348.772 39.4533C349.173 39.4386 349.635 39.232 350.158 38.8334C350.648 38.4387 350.957 38.2169 351.085 38.1678C351.21 38.0857 351.301 38.0076 351.359 37.9334C351.446 37.8222 351.636 37.5812 351.927 37.2105C352.131 36.9509 352.293 36.7636 352.413 36.6484C352.53 36.5 352.671 36.4159 352.836 36.396C353.001 36.3761 353.16 36.4409 353.313 36.5905C353.461 36.7069 353.605 36.7903 353.746 36.8406C354.077 36.8008 354.167 36.9914 354.016 37.4124C353.898 37.8294 353.608 38.3511 353.147 38.9774C352.681 39.5706 352.112 40.1427 351.439 40.6936ZM350.124 30.1755C350.468 29.9662 350.82 29.6888 351.182 29.3431C351.539 28.9644 351.828 28.5771 352.049 28.1812C352.299 27.7482 352.408 27.3994 352.377 27.1346C352.321 26.6713 352.06 26.3166 351.594 26.0705C351.124 25.7913 350.472 25.8193 349.64 26.1545C349.288 26.2975 348.904 26.5955 348.488 27.0484C348.069 27.4682 347.672 27.9356 347.297 28.4507C346.956 28.9618 346.675 29.4153 346.454 29.8112C346.266 30.2031 346.209 30.4282 346.283 30.4864C346.402 30.6399 346.7 30.7385 347.175 30.782C347.646 30.7925 348.161 30.7473 348.72 30.6465C349.312 30.5418 349.779 30.3847 350.124 30.1755ZM348.266 20.1758C348.006 19.972 347.774 19.7146 347.569 19.4035C347.393 19.0554 347.313 18.8132 347.33 18.6768C347.376 18.5034 347.454 18.175 347.564 17.6918C347.703 17.1715 347.876 16.7981 348.084 16.5717C348.175 16.4936 348.263 16.3823 348.346 16.238C348.459 16.0566 348.579 15.9414 348.707 15.8924C349.073 15.5798 349.433 15.5029 349.788 15.6617C350.172 15.7834 350.478 16.099 350.707 16.6086C351.061 17.0361 351.21 17.4379 351.154 17.8139C351.095 18.1567 350.884 18.6354 350.521 19.2497C350.105 19.9714 349.702 20.3891 349.313 20.5031C348.923 20.6171 348.574 20.508 348.266 20.1758ZM354.62 19.4113C354.361 19.2076 354.128 18.9501 353.923 18.6391C353.747 18.291 353.667 18.0487 353.684 17.9124C353.731 17.7389 353.809 17.4106 353.918 16.9274C354.057 16.4071 354.231 16.0337 354.438 15.8073C354.53 15.7291 354.617 15.6179 354.7 15.4736C354.813 15.2922 354.933 15.177 355.062 15.1279C355.427 14.8154 355.787 14.7385 356.142 14.8973C356.526 15.019 356.832 15.3346 357.062 15.8442C357.415 16.2717 357.564 16.6734 357.509 17.0494C357.449 17.3923 357.238 17.8709 356.876 18.4853C356.459 19.2069 356.056 19.6247 355.667 19.7387C355.278 19.8527 354.929 19.7435 354.62 19.4113ZM378.794 39.0143C378.443 38.8886 378.175 38.753 377.99 38.6074C377.801 38.4288 377.493 38.2475 377.068 38.0636C376.88 37.6162 376.676 37.1708 376.454 36.7274C376.262 36.2469 376.155 35.773 376.132 35.3057C376.134 35.0369 376.05 34.7616 375.882 34.4797C375.743 34.1607 375.725 33.8774 375.83 33.6298C375.7 33.1082 375.635 32.4278 375.635 31.5885C375.631 30.7161 375.665 29.8893 375.739 29.1083C375.809 28.2941 375.857 27.7175 375.884 27.3786C375.769 27.2582 375.659 27.1874 375.556 27.1662C375.486 27.1411 375.393 27.2027 375.276 27.351C374.985 27.7218 374.71 28.0905 374.452 28.4573C374.194 28.8241 373.922 29.2094 373.635 29.6133C373.518 29.7616 373.385 29.9119 373.236 30.0641C373.082 30.1833 373.019 30.3588 373.047 30.5904L371.547 33.1882C371.446 33.4689 371.24 33.8463 370.927 34.3203C370.644 34.7573 370.437 35.269 370.306 35.8555C370.268 36.0951 370.176 36.3076 370.03 36.493C369.881 36.6453 369.731 36.7976 369.582 36.9498C369.132 36.8361 368.836 36.7541 368.696 36.7039C368.556 36.6536 368.284 36.4849 367.88 36.1978C367.509 35.9066 367.242 35.6366 367.077 35.3878C366.909 35.1059 366.84 34.812 366.871 34.5062C366.811 34.0098 366.727 33.3148 366.62 32.4212C366.541 31.4906 366.436 30.6136 366.303 29.7902C366.2 28.9297 366.062 28.342 365.89 28.027C365.53 28.1039 365.287 28.1834 365.163 28.2655C365.038 28.3476 364.897 28.5661 364.738 28.9209C364.767 28.8838 364.646 29.1334 364.375 29.6696C364.133 30.1688 363.793 30.8308 363.355 31.6557C362.946 32.4435 362.539 33.2479 362.134 34.0688C361.726 34.8566 361.388 35.5351 361.12 36.1045C360.882 36.6367 360.778 36.8843 360.807 36.8472C360.607 37.1399 360.442 37.445 360.313 37.7628C360.216 38.0766 360.121 38.4069 360.029 38.7538C359.911 39.1708 359.761 39.4575 359.578 39.6137C359.392 39.7369 359.206 39.7257 359.02 39.5802C358.736 39.4465 358.434 39.3149 358.117 39.1853C357.832 39.0516 357.582 38.9306 357.368 38.8221C357.208 38.6064 357.064 38.3886 356.937 38.1689C356.839 37.9121 356.753 37.6202 356.68 37.2933C356.925 37.0959 357.095 36.9748 357.191 36.9297C357.282 36.8516 357.351 36.7258 357.397 36.5524C357.994 35.3727 358.511 34.3704 358.949 33.5455C359.383 32.6875 359.752 31.9884 360.056 31.4482C360.361 30.908 360.596 30.4935 360.763 30.2049C360.926 29.8832 361.018 29.6706 361.039 29.5674C361.165 29.2165 361.325 28.8782 361.521 28.5525C361.75 28.2228 361.96 27.8786 362.152 27.5197C362.173 27.4165 362.311 27.1649 362.565 26.765C362.815 26.3321 363.082 25.8971 363.365 25.4601C363.648 25.0232 363.852 24.7637 363.976 24.6815C364.13 24.5624 364.23 24.416 364.276 24.2426C364.351 24.0321 364.427 23.8216 364.502 23.6111C364.533 23.3053 364.656 23.0722 364.871 22.912C365.087 22.7517 365.431 22.6768 365.902 22.6873C366.195 22.8871 366.522 23.0995 366.885 23.3244C367.244 23.5163 367.621 23.7227 368.017 23.9436C368.024 24.2786 368.049 24.628 368.093 24.9921C368.17 25.3521 368.37 25.8988 368.693 26.6321C368.642 27.0412 368.708 27.4529 368.892 27.8672C369.076 28.2815 369.124 28.6787 369.035 29.0586C369.087 29.4889 369.224 29.7913 369.447 29.966C369.698 30.1036 370.026 29.8963 370.429 29.3442C370.879 28.6186 371.423 27.8314 372.059 26.9826C372.692 26.1007 373.314 25.2705 373.925 24.4919C374.565 23.6762 375.104 22.9903 375.541 22.4342C376.007 21.841 376.281 21.4722 376.364 21.3279C376.411 21.1544 376.517 21.0578 376.682 21.0379C376.877 20.9809 377.063 20.9921 377.24 21.0715C377.839 21.3016 378.245 21.471 378.459 21.5794C378.674 21.6879 378.985 21.9023 379.393 22.2226C379.78 22.6461 379.879 23.0538 379.691 23.4457C379.599 23.7926 379.482 24.3605 379.342 25.1496C379.231 25.9015 379.114 26.7382 378.99 27.6597C378.898 28.5771 378.818 29.4429 378.748 30.2571C378.707 31.0342 378.696 31.6399 378.715 32.0741C378.761 32.74 378.812 33.4389 378.866 34.171C378.917 34.87 379.054 35.5921 379.278 36.3373C379.666 37.3314 379.812 37.9853 379.716 38.2991C379.648 38.5758 379.341 38.8142 378.794 39.0143ZM136.714 110.44C135.986 110.528 135.436 110.56 135.064 110.538C134.692 110.516 134.399 110.45 134.184 110.342C133.97 110.233 133.716 110.079 133.424 109.879C133.259 109.63 133.06 109.369 132.826 109.095C132.591 108.821 132.4 108.626 132.251 108.509C132.059 108.029 131.916 107.391 131.82 106.597C131.758 105.799 131.753 104.927 131.807 103.98C131.894 103.029 132.056 102.137 132.291 101.303C132.392 101.022 132.476 100.744 132.543 100.467C132.61 100.19 132.644 100.052 132.644 100.052C132.624 99.8864 132.775 99.4654 133.097 98.7888C133.451 98.1083 133.835 97.3906 134.248 96.6359C134.694 95.8772 135.064 95.329 135.359 94.9914C135.559 94.6987 135.873 94.3756 136.3 94.022C136.761 93.6645 137.165 93.3976 137.513 93.2214C137.861 93.0453 138.211 92.8856 138.563 92.7425C138.949 92.5955 139.389 92.4921 139.886 92.4324C140.349 92.3766 140.791 92.4242 141.212 92.5749C141.633 92.7257 142.056 93.0274 142.48 93.4801C143.147 94.0041 143.55 94.56 143.687 95.1477C143.854 95.6984 143.908 96.2796 143.847 96.8912C143.761 97.573 143.608 98.1118 143.387 98.5077C143.162 98.8705 142.882 99.0553 142.547 99.062C142.212 99.0687 141.801 98.8663 141.315 98.4547C141.151 98.2059 141.059 97.9988 141.039 97.8333C141.015 97.6347 141.048 97.3454 141.136 96.9655C141.213 96.4862 141.155 96.0063 140.963 95.5259C140.771 95.0454 140.526 94.823 140.228 94.8589C139.798 94.9106 139.342 95.1669 138.86 95.6278C138.408 96.0515 137.95 96.5766 137.489 97.2029C137.289 97.4955 137.008 97.949 136.645 98.5634C136.312 99.1407 135.986 99.7841 135.669 100.494C135.347 101.17 135.09 101.822 134.897 102.45C134.664 103.586 134.472 104.499 134.32 105.189C134.201 105.874 134.141 106.217 134.141 106.217C134.157 106.35 134.206 106.478 134.288 106.602C134.4 106.69 134.463 106.8 134.479 106.932C134.527 107.329 134.796 107.616 135.288 107.792C135.679 107.979 136.126 108.06 136.626 108.033C137.122 107.974 137.715 107.735 138.403 107.316C138.901 106.988 139.355 106.58 139.767 106.094C140.212 105.604 140.679 105.162 141.168 104.767C141.505 104.492 141.762 104.26 141.941 104.07C142.152 103.877 142.266 103.846 142.282 103.979C142.298 104.111 142.356 104.171 142.455 104.159C142.554 104.148 142.662 104.067 142.779 103.919C142.945 103.63 143.141 103.439 143.364 103.345C143.584 103.218 143.779 103.161 143.948 103.174C144.147 103.15 144.252 103.188 144.264 103.287C144.233 103.593 144.329 103.833 144.552 104.008C144.568 104.14 144.54 104.328 144.469 104.572C144.426 104.778 144.347 104.956 144.231 105.104C144.093 105.356 143.877 105.65 143.581 105.988C143.319 106.322 143.07 106.62 142.833 106.884C142.592 107.114 142.472 107.229 142.472 107.229C142.335 107.212 142.207 107.261 142.087 107.376C141.999 107.488 141.897 107.617 141.781 107.766C141.544 108.029 141.318 108.241 141.102 108.401C140.882 108.529 140.706 108.6 140.574 108.616C140.358 108.776 140.186 108.881 140.058 108.93C139.962 108.975 139.923 109.064 139.939 109.196C139.647 109.567 139.262 109.848 138.781 110.04C138.33 110.195 137.641 110.329 136.714 110.44ZM152.993 92.7189C153.361 91.8688 153.659 90.9937 153.886 90.0934C154.147 89.1892 154.477 88.31 154.878 87.456C155.174 86.8496 155.456 86.2618 155.724 85.6924C156.024 85.1191 156.289 84.5333 156.519 83.9348C156.544 83.8646 156.555 83.813 156.551 83.7799C156.576 83.7097 156.603 83.6561 156.632 83.619C157.007 83.104 157.435 82.616 157.917 82.1552C158.394 81.6612 158.823 81.1733 159.201 80.6913C159.376 80.4688 159.588 80.2755 159.836 80.1112C160.081 79.9139 160.33 79.7497 160.583 79.6186C160.74 79.5325 160.91 79.5456 161.091 79.6581C161.306 79.7666 161.425 79.9201 161.449 80.1187C161.54 80.8799 161.41 81.7517 161.058 82.7341C160.707 83.7165 160.3 84.5208 159.838 85.1471C159.551 85.551 159.282 85.9694 159.032 86.4024C158.815 86.8313 158.563 87.2478 158.276 87.6516C157.964 88.1256 157.481 88.7209 156.829 89.4372C156.176 90.1536 155.501 90.8224 154.804 91.4435C154.106 92.0645 153.503 92.4897 152.993 92.7189ZM154.654 95.6414C154.665 96.0094 154.775 96.3655 154.984 96.7096C155.193 97.0538 155.423 97.429 155.674 97.8353C155.924 98.2417 156.114 98.7056 156.244 99.2272C156.407 99.7448 156.433 100.38 156.322 101.131C156.241 101.578 156.132 102.061 155.993 102.581C155.854 103.102 155.709 103.572 155.558 103.993C155.508 104.134 155.37 104.385 155.145 104.748C154.95 105.074 154.737 105.401 154.508 105.731C154.312 106.057 154.171 106.275 154.084 106.386C153.967 106.535 153.785 106.557 153.537 106.452C153.29 106.348 153.125 106.233 153.043 106.109C152.834 105.765 152.632 105.201 152.437 104.419C152.238 103.604 152.131 102.995 152.116 102.594C152.114 102.292 152.106 101.807 152.092 101.137C152.079 100.467 152.094 99.7599 152.139 99.0159C152.184 98.2719 152.257 97.6252 152.359 97.0758C152.49 96.4893 152.696 96.1119 152.978 95.9437C153.289 95.7384 153.619 95.5477 153.967 95.3715C154.311 95.1623 154.643 94.9881 154.962 94.849C155.504 94.6158 155.998 94.2543 156.443 93.7643C156.921 93.2704 157.408 92.8592 157.906 92.5307C158.222 92.0898 158.58 91.7111 158.978 91.3946C159.405 91.041 159.761 90.6457 160.044 90.2087C160.215 89.9532 160.373 89.7327 160.518 89.5473C160.697 89.358 160.89 89.1501 161.098 88.9236C161.31 88.7303 161.449 88.4953 161.517 88.2186C161.617 87.9379 161.808 87.7134 162.09 87.5452C162.129 87.3056 162.225 87.1262 162.378 87.007C162.528 86.8547 162.624 86.6753 162.666 86.4688C162.809 85.9816 163.007 85.538 163.261 85.1381C163.544 84.7012 163.741 84.2411 163.851 83.7579C163.982 83.1714 164.152 82.4962 164.362 81.7323C164.606 80.9644 164.53 80.3356 164.135 79.8459C163.622 79.2026 163.026 78.7203 162.35 78.3988C161.702 78.0402 161.282 77.755 161.089 77.5433C161.014 77.4851 160.944 77.4599 160.878 77.4679C160.808 77.4428 160.738 77.4176 160.668 77.3925C160.609 77.4667 160.512 77.4951 160.376 77.478C160.272 77.4568 160.173 77.4688 160.078 77.5138C159.569 77.4742 159.037 77.6558 158.481 78.0584C157.955 78.4239 157.509 78.763 157.143 79.0755C155.707 80.2555 154.489 81.7114 153.489 83.4432C152.485 85.142 151.66 86.9367 151.014 88.8274C150.402 90.714 149.918 92.5516 149.562 94.3403C149.339 94.4343 149.113 94.5118 148.885 94.5728C148.691 94.6298 148.48 94.6887 148.252 94.7497C148.235 94.8861 148.203 95.041 148.157 95.2144C148.11 95.3878 148.064 95.5613 148.018 95.7347C148.215 95.9796 148.396 96.2264 148.56 96.4752C148.757 96.7201 148.998 96.9093 149.283 97.043C149.086 97.6374 148.959 98.3914 148.901 99.3048C148.876 100.214 148.9 101.118 148.975 102.015C149.049 102.913 149.126 103.693 149.206 104.355C149.226 104.52 149.277 104.665 149.359 104.789C149.474 104.91 149.525 105.055 149.512 105.224C149.498 105.662 149.642 106.165 149.945 106.733C150.282 107.297 150.66 107.789 151.08 108.208C151.533 108.624 151.908 108.814 152.206 108.778C152.603 108.73 153.051 108.827 153.55 109.069C154.082 109.308 154.55 109.285 154.952 109.001C155.201 108.837 155.439 108.725 155.667 108.664C155.924 108.566 156.16 108.436 156.376 108.276C156.712 108.001 157.076 107.537 157.467 106.886C157.892 106.23 158.198 105.707 158.386 105.315C158.683 104.708 158.876 104.081 158.966 103.432C159.051 102.75 159.156 102.083 159.279 101.43C159.392 100.98 159.384 100.494 159.255 99.9729C159.158 99.4474 159.132 99.0979 159.179 98.9245C159.114 98.6637 159.034 98.4215 158.94 98.1978C158.842 97.941 158.746 97.7007 158.652 97.477C158.513 97.158 158.291 96.849 157.987 96.5499C157.711 96.2137 157.473 95.9066 157.271 95.6287C156.933 95.6023 156.594 95.5759 156.255 95.5496C155.945 95.4861 155.623 95.4577 155.288 95.4645C155.192 95.5095 155.08 95.5565 154.952 95.6056C154.853 95.6175 154.753 95.6294 154.654 95.6414ZM167.504 107.139C167.074 107.191 166.716 107.15 166.432 107.016C166.18 106.879 165.854 106.683 165.454 106.429C164.746 105.842 164.223 105.267 163.887 104.703C163.547 104.107 163.392 103.521 163.424 102.946C163.491 102.67 163.495 102.417 163.434 102.19C163.402 101.925 163.386 101.793 163.386 101.793C163.2 101.647 163.139 101.554 163.201 101.513C163.259 101.438 163.313 101.331 163.364 101.191C163.562 101.167 163.607 100.977 163.497 100.621C163.399 100.364 163.461 99.769 163.685 98.8356C163.908 97.9023 164.22 97.0086 164.621 96.1546C164.78 95.7997 165.026 95.3337 165.36 94.7564C165.689 94.146 166.053 93.5482 166.453 92.9629C166.882 92.3406 167.275 91.8401 167.632 91.4613C168.376 90.6668 169.042 90.0663 169.631 89.6597C170.22 89.2531 170.869 88.9232 171.577 88.6702C172.285 88.4171 172.772 88.2747 173.036 88.2428C173.334 88.207 173.763 88.424 174.323 88.8938C175.124 89.1331 175.718 89.4646 176.105 89.8881C176.525 90.3076 176.838 90.9582 177.045 91.8398C177.264 92.8207 177.318 93.9724 177.209 95.295C177.128 96.5804 176.54 98.246 175.443 100.292C174.759 101.583 174.105 102.568 173.482 103.247C172.854 103.893 172.095 104.555 171.203 105.233C170.563 105.78 169.976 106.204 169.442 106.503C168.903 106.769 168.257 106.981 167.504 107.139ZM171.636 101.304C172.323 100.314 172.85 99.3949 173.218 98.5448C173.619 97.6909 173.961 96.6257 174.244 95.3495C174.333 94.9695 174.362 94.5128 174.331 93.9793C174.296 93.4127 174.218 92.9017 174.096 92.4463C174.003 91.9539 173.854 91.6865 173.647 91.6442C173.222 91.4603 172.734 91.4519 172.184 91.6188C171.629 91.7527 171.055 92.1408 170.46 92.783C169.538 93.7669 168.774 94.95 168.168 96.3322C167.558 97.6814 166.987 99.2106 166.454 100.92C166.1 102.171 166.1 103.145 166.452 103.841C166.834 104.5 167.476 104.675 168.379 104.365C169.311 104.017 170.397 102.997 171.636 101.304ZM193.037 104.722C192.821 104.882 192.501 104.87 192.076 104.686C191.684 104.499 191.278 104.195 190.858 103.775C190.579 103.406 190.361 102.996 190.206 102.544C190.084 102.089 189.974 101.448 189.874 100.62C189.828 99.9544 189.743 99.5282 189.62 99.3416C189.529 99.1509 189.351 99.2059 189.085 99.5065C188.815 99.774 188.36 100.316 187.72 101.131C186.992 102.058 186.275 102.799 185.57 103.354C184.897 103.905 184.328 104.192 183.86 104.214C183.629 104.242 183.35 104.158 183.024 103.962C182.728 103.729 182.442 103.445 182.166 103.109C181.887 102.74 181.64 102.366 181.427 101.989C181.141 101.285 180.996 100.362 180.993 99.221C181.019 98.0428 181.139 96.803 181.352 95.5016C181.564 94.2002 181.835 92.959 182.163 91.7781C182.524 90.5931 182.911 89.6233 183.324 88.8686C183.769 88.1099 184.191 87.7067 184.588 87.6589C184.853 87.627 185.1 87.7315 185.331 87.9724C185.594 88.2093 185.876 88.5951 186.175 89.1298C186.335 89.3456 186.409 89.5382 186.396 89.7076C186.416 89.8731 186.307 90.0876 186.07 90.3511C185.82 90.7841 185.544 91.4216 185.243 92.2636C184.974 93.1017 184.714 94.006 184.461 94.9764C184.242 95.9429 184.051 96.8723 183.89 97.7646C183.729 98.6569 183.632 99.3903 183.601 99.9649C183.565 100.506 183.614 100.769 183.746 100.753C184.209 100.697 184.734 100.45 185.319 100.01C185.933 99.5333 186.504 98.9778 187.032 98.3435C187.643 97.5649 188.164 96.7301 188.594 95.839C189.057 94.9439 189.514 93.9992 189.965 93.0049C190.316 92.2913 190.675 91.5094 191.043 90.6594C191.444 89.8054 191.69 89.205 191.783 88.8581C192.143 87.9419 192.42 87.3209 192.616 86.9952C192.808 86.6364 193.064 86.3874 193.383 86.2484C193.548 86.2284 193.697 86.2105 193.829 86.1946C193.995 86.1747 194.078 86.1647 194.078 86.1647C194.28 86.1739 194.53 86.295 194.826 86.5279C195.107 86.6284 195.272 86.7429 195.321 86.8713C195.366 86.9666 195.398 87.097 195.418 87.2625C195.326 87.6093 195.17 88.1316 194.952 88.8294C194.763 89.49 194.62 89.9772 194.524 90.291C194.066 91.7897 193.606 93.2719 193.145 94.7375C192.712 96.1661 192.449 97.6078 192.356 99.0627C192.345 99.534 192.394 100.082 192.503 100.707C192.641 101.295 192.792 101.713 192.956 101.962C193.08 102.148 193.223 102.366 193.387 102.615C193.581 102.827 193.787 103.003 194.005 103.145C194.327 103.308 194.402 103.517 194.232 103.772C194.094 104.024 193.886 104.25 193.608 104.452C193.327 104.62 193.136 104.71 193.037 104.722ZM189.913 84.1981C188.903 84.4539 188.007 84.2596 187.224 83.6151C186.441 82.9706 185.782 81.9587 185.247 80.5795C185.149 80.3227 185.088 80.095 185.064 79.8964C185.07 79.6608 185.112 79.4542 185.191 79.2768C185.242 79.1365 185.362 79.0213 185.553 78.9312C185.739 78.808 185.903 78.7716 186.043 78.8218C186.526 78.9316 186.883 79.1069 187.113 79.3477C187.373 79.5515 187.558 79.8315 187.668 80.1876C187.754 80.3451 187.807 80.5066 187.827 80.672C187.88 80.8335 187.904 80.8977 187.9 80.8646C188.129 81.3742 188.388 81.7124 188.677 81.8791C188.966 82.0458 189.361 81.9815 189.862 81.6861C190.397 81.3868 190.911 81.0563 191.405 80.6948C191.932 80.3293 192.384 79.9055 192.763 79.4235C193.083 79.0157 193.391 78.6429 193.686 78.3052C194.014 77.9636 194.324 77.6074 194.615 77.2366L194.659 77.181C194.779 77.0658 194.941 77.0128 195.143 77.022C195.346 77.0312 195.468 77.0669 195.509 77.1291C195.768 77.3329 195.912 77.5507 195.94 77.7823C195.968 78.014 195.997 78.2622 196.029 78.5269L195.992 78.6322C196.082 78.8228 195.962 79.2233 195.633 79.8337C195.336 80.4401 194.947 80.9737 194.465 81.4346C194.046 81.8543 193.589 82.245 193.096 82.6066C192.602 82.9681 192.09 83.3151 191.559 83.6476C191.343 83.8078 191.105 83.9204 190.844 83.9854C190.612 84.0132 190.302 84.0841 189.913 84.1981ZM217.253 101.658C217.005 101.553 216.741 101.451 216.461 101.35C216.213 101.245 215.965 101.141 215.718 101.036C215.503 100.928 215.305 100.817 215.124 100.705C214.353 100.16 213.808 99.5371 213.489 98.8369C213.199 98.0996 213.045 97.3795 213.028 96.6765C213.01 95.9736 213.038 95.3659 213.111 94.8536C213.179 94.3082 213.202 93.9362 213.178 93.7376C213.113 93.4768 213.133 93.2226 213.237 92.975C213.338 92.6944 213.438 92.4137 213.539 92.133C213.995 90.903 214.422 89.8445 214.819 88.9574C215.245 88.0332 215.886 86.9488 216.744 85.7041C216.922 85.5148 217.087 85.344 217.236 85.1917C217.415 85.0023 217.599 84.8626 217.79 84.7725L219.033 85.4791C219.182 85.5955 219.284 85.751 219.341 85.9456C219.394 86.1071 219.389 86.3428 219.326 86.6526C219.287 86.8922 219.232 87.1338 219.161 87.3774C219.119 87.5839 219.041 87.7779 218.929 87.9593C218.43 88.5565 218.055 89.206 217.803 89.9077C217.548 90.5763 217.278 91.2634 216.994 91.9691C217.03 92.267 216.944 92.5291 216.736 92.7556C216.524 92.9489 216.422 93.213 216.428 93.548C216.456 93.7796 216.451 94.0153 216.413 94.2549C216.374 94.4945 216.338 94.7507 216.304 95.0234C216.136 95.5808 216.098 96.1057 216.191 96.5982C216.284 97.0906 216.362 97.6016 216.426 98.1311C216.707 98.2316 216.948 98.2865 217.151 98.2957C217.349 98.2718 217.594 98.0745 217.885 97.7037C218.479 97.0615 218.883 96.5093 219.096 96.0472C219.342 95.5812 219.522 95.1231 219.636 94.6729C219.749 94.2228 219.921 93.6985 220.152 93.1001C220.415 92.4976 220.611 91.7523 220.739 90.8639C220.867 89.9756 220.935 89.1449 220.942 88.3717C220.946 87.5655 220.883 87.036 220.751 86.7832C220.698 86.6217 220.691 86.4211 220.729 86.1815C220.768 85.9419 220.641 85.7222 220.348 85.5224C220.464 85.3741 220.501 85.1179 220.457 84.7538C220.413 84.3898 220.334 84.0132 220.22 83.624C220.106 83.2348 219.973 82.9655 219.821 82.8159C219.595 81.5001 219.412 80.3974 219.272 79.5078C219.16 78.5812 219.081 77.7849 219.035 77.119C219.017 76.4161 219.022 75.7608 219.05 75.1531C219.071 75.0499 219.23 74.695 219.526 74.0886C219.852 73.4452 220.16 72.938 220.451 72.5673C220.954 72.0032 221.67 71.531 222.597 71.1508C223.554 70.7335 224.384 70.5161 225.087 70.4987C225.058 70.5358 225.259 70.5285 225.689 70.4767C226.152 70.421 226.663 70.3427 227.222 70.2419C227.781 70.1411 228.19 70.0583 228.451 69.9933C228.708 69.8953 228.965 69.7973 229.221 69.6992C229.478 69.6012 229.899 69.3323 230.484 68.8926C230.729 68.6953 230.938 68.6198 231.112 68.6661L232.589 69.6466C232.668 70.5772 232.52 71.3001 232.145 71.8152C231.767 72.2971 230.973 72.678 229.765 72.9577C229.566 72.9816 229.351 73.0074 229.119 73.0353C228.884 73.0301 228.654 73.0745 228.43 73.1686C228.24 73.2586 228.058 73.2805 227.884 73.2343C227.744 73.184 227.541 73.1748 227.276 73.2066C226.912 73.2504 226.538 73.3459 226.153 73.4929C225.763 73.6069 225.348 73.6401 224.906 73.5926C223.754 74.0669 222.881 74.6251 222.287 75.2674C221.693 75.9096 221.473 76.8761 221.628 78.1667C221.908 79.3753 222.205 80.4475 222.519 81.3834C222.866 82.3153 223.109 83.3604 223.249 84.5187C223.351 84.8086 223.463 85.0468 223.587 85.2335C223.71 85.4201 223.686 85.6412 223.515 85.8967C223.772 86.638 223.945 87.3727 224.032 88.1008C224.116 88.7957 224.08 89.3372 223.925 89.7251C223.887 89.9648 223.889 90.401 223.932 91.0337C224.003 91.6295 223.914 92.2782 223.662 92.9799C223.088 94.6269 222.478 96.1104 221.831 97.4305C221.18 98.7174 220.292 99.8483 219.167 100.823C218.951 100.983 218.682 101.116 218.359 101.222C218.069 101.324 217.7 101.469 217.253 101.658ZM241.03 98.9481C240.66 98.657 240.275 98.25 239.876 97.7272C239.474 97.1713 239.127 96.5247 238.837 95.7875C238.739 95.5307 238.662 95.1706 238.607 94.7073C238.584 94.24 238.544 93.909 238.487 93.7144C238.416 93.958 238.28 94.2262 238.08 94.5188C237.91 94.7743 237.735 94.9968 237.556 95.1862C237.44 95.3345 237.174 95.635 236.758 96.0879C236.339 96.5077 235.911 96.8613 235.476 97.1487C234.467 97.9751 233.603 98.4652 232.883 98.6189C232.196 98.7687 231.49 98.4843 230.766 97.7657C230.184 97.3992 229.746 96.9651 229.451 96.4634C229.188 95.9578 229.101 95.2297 229.188 94.2792C229.115 93.1129 229.145 91.9678 229.278 90.8438C229.408 89.6867 229.775 88.1318 230.379 86.1789C230.911 84.7384 231.321 83.6819 231.609 83.0093C231.894 82.3036 232.077 81.8786 232.161 81.7343C232.637 81.5091 233.053 81.4759 233.408 81.6346C233.759 81.7603 233.995 82.0508 234.117 82.5062C234.355 82.8132 234.39 83.3798 234.221 84.2059C234.085 85.0281 233.788 86.0541 233.332 87.2841C233.004 88.4651 232.709 89.6421 232.448 90.815C232.219 91.9841 232.119 92.9697 232.149 93.7719C232.178 94.5742 232.434 95.0301 232.917 95.1399C233.235 95.2695 233.742 95.1582 234.438 94.8058C235.168 94.4495 235.932 93.6861 236.731 92.5156C237.564 91.3411 238.297 89.6245 238.932 87.3658C239.117 86.6721 239.246 86.0691 239.319 85.5567C239.387 85.0113 239.4 84.4222 239.358 83.7894C239.244 83.4002 239.219 83.0507 239.282 82.7409C239.375 82.394 239.606 82.0809 239.975 81.8014C240.087 81.62 240.251 81.4492 240.467 81.289C240.679 81.0956 240.828 81.0777 240.914 81.2352L241.702 81.09C241.831 81.041 241.923 81.1138 241.98 81.3084C242.066 81.4659 242.2 81.6009 242.382 81.7134C242.781 81.9674 242.958 82.6008 242.912 83.6136C242.866 84.6263 242.57 86.072 242.024 87.9507C241.558 89.3832 241.252 90.4609 241.104 91.1838C240.989 91.9027 240.954 92.5951 241.001 93.2609C241.073 93.8566 241.256 94.4053 241.551 94.907C241.847 95.4086 242.269 95.8447 242.817 96.2152C243.209 96.4031 243.439 96.6439 243.508 96.9378C243.61 97.2277 243.668 97.5732 243.683 97.9743C243.653 98.2801 243.484 98.5522 243.177 98.7906C242.899 98.9919 242.561 99.1164 242.164 99.1642C241.767 99.212 241.389 99.14 241.03 98.9481ZM248.105 111.241C247.821 111.107 247.513 111.061 247.182 111.1C246.851 111.14 246.545 111.11 246.264 111.009C245.773 110.833 245.204 110.566 244.556 110.208C243.942 109.845 243.522 109.425 243.297 108.949C243.256 108.887 243.229 108.806 243.218 108.707C243.21 108.641 243.187 108.593 243.15 108.564C243.105 108.468 243.027 108.377 242.916 108.29C242.808 108.236 242.732 108.161 242.687 108.066C242.597 107.875 242.538 107.664 242.51 107.432C242.453 107.238 242.413 107.041 242.389 106.842C242.332 106.648 242.242 106.457 242.119 106.271C242.223 106.023 242.311 105.777 242.383 105.534C242.421 105.294 242.492 105.051 242.597 104.803C242.758 104.75 242.92 104.697 243.081 104.644C243.214 104.628 243.344 104.596 243.472 104.547C243.866 104.466 244.129 104.703 244.263 105.257C244.43 105.808 244.636 106.404 244.881 107.046C245.073 107.527 245.342 107.948 245.688 108.309C246.066 108.666 246.622 108.818 247.354 108.763C248.185 108.697 248.865 108.346 249.393 107.712C249.958 107.107 250.406 106.365 250.737 105.486C251.067 104.606 251.301 103.756 251.437 102.934C251.487 102.793 251.521 102.655 251.538 102.519C251.555 102.382 251.572 102.246 251.589 102.11C251.644 102.002 251.679 101.881 251.697 101.744C251.661 101.446 251.685 101.091 251.77 100.678C251.891 100.294 251.949 99.9344 251.942 99.5995C251.937 98.9958 251.96 98.355 252.013 97.6772C252.066 96.9994 251.941 96.3766 251.637 95.8087C251.637 95.8087 251.605 95.6784 251.54 95.4176C251.475 95.1568 251.408 94.8795 251.339 94.5856C251.27 94.2917 251.234 94.1283 251.23 94.0952C250.962 93.8252 250.726 93.5347 250.52 93.2236C250.344 92.8755 250.106 92.5685 249.805 92.3024C249.777 92.0708 249.735 91.8577 249.678 91.6631C249.654 91.4645 249.628 91.2494 249.6 91.0177C249.692 90.9396 249.764 90.8469 249.819 90.7397C249.873 90.6324 249.964 90.5543 250.093 90.5053C251.042 90.0218 251.927 89.4284 252.749 88.7252C253.567 87.9889 254.257 87.1673 254.82 86.2603C255.382 85.3533 255.75 84.3689 255.925 83.3071C255.98 82.9312 256.003 82.5591 255.992 82.1911C255.981 81.8231 255.904 81.463 255.761 81.1109C255.473 80.9442 255.185 80.9284 254.899 81.0635C253.686 81.5789 252.8 82.1722 252.243 82.8436C251.719 83.5109 251.286 84.2346 250.943 85.0144C250.596 85.7611 250.103 86.5423 249.462 87.358C249.203 87.1542 248.959 87.0828 248.731 87.1438C248.533 87.1677 248.308 87.1108 248.056 86.9732C247.945 86.8859 247.813 86.7674 247.661 86.6179C247.538 86.4313 247.374 86.1824 247.168 85.8714C247.426 85.5046 247.581 85.1167 247.633 84.7076C247.713 84.2614 247.851 83.8755 248.047 83.5498C248.501 82.8573 248.911 82.2204 249.278 81.6391C249.644 81.0578 250.164 80.4917 250.836 79.9408C251.538 79.3528 252.288 78.8932 253.088 78.562C253.92 78.2269 254.76 78.0922 255.607 78.1582C256.455 78.2241 257.224 78.6184 257.915 79.341C258.599 79.9974 258.998 80.8055 259.113 81.7652C259.258 82.6879 259.206 83.651 258.957 84.6546C258.709 85.6581 258.32 86.6114 257.791 87.5144C257.232 88.4545 256.571 89.2391 255.808 89.8681C255.077 90.4932 254.321 91.1884 253.54 91.9538C253.88 92.8195 254.221 93.7017 254.564 94.6005C254.903 95.4662 255.097 96.3829 255.147 97.3506C255.187 98.5209 255.173 99.664 255.106 100.78C255.072 101.892 254.93 102.95 254.682 103.953C254.437 104.99 254.069 105.974 253.577 106.907C253.084 107.839 252.402 108.727 251.53 109.57C251.052 110.064 250.493 110.433 249.851 110.679C249.242 110.92 248.66 111.107 248.105 111.241ZM265.315 94.9691C265.075 94.9308 264.753 94.9024 264.347 94.884C263.942 94.8656 263.564 94.7935 263.214 94.6679C262.892 94.5051 262.713 94.2749 262.677 93.977C262.645 93.7122 262.634 93.4786 262.643 93.276C262.682 93.0364 262.79 92.8219 262.969 92.6326C262.994 92.5624 263.004 92.5108 263 92.4777C262.996 92.4446 263.009 92.4095 263.038 92.3724C263.018 92.2069 262.967 92.062 262.885 91.9376C262.803 91.8132 262.783 91.6477 262.825 91.4411C262.914 91.0612 262.977 90.7514 263.016 90.5118C263.083 90.2351 263.093 89.8981 263.045 89.501C263.037 89.4348 263.029 89.3686 263.021 89.3024C263.009 89.2031 263.016 89.1184 263.041 89.0482C263.218 88.2883 263.344 87.5178 263.418 86.7367C263.492 85.9556 263.652 85.1977 263.9 84.4629C264.193 83.5546 264.571 82.3677 265.032 80.9021C265.49 79.4034 265.862 78.0324 266.149 76.7893C266.238 76.4093 266.359 76.1597 266.512 76.0405C266.695 75.8843 266.904 75.8087 267.14 75.814C267.541 75.7993 267.966 75.9832 268.415 76.3656C268.86 76.715 269.199 77.0266 269.434 77.3006C269.178 77.9692 268.871 78.7616 268.511 79.6778C268.18 80.557 267.864 81.4175 267.563 82.2596C267.29 83.0646 267.101 83.7252 266.995 84.2415C267.463 84.2189 268.009 84.1532 268.633 84.0445C269.287 83.8986 269.933 83.821 270.569 83.8116C271.306 83.7901 271.951 83.7125 272.506 83.5786C273.06 83.4448 273.679 83.2864 274.362 83.1035C274.468 82.5872 274.566 82.0046 274.655 81.3559C274.778 80.7032 274.899 80.034 275.018 79.3482C275.17 78.6585 275.378 78.0124 275.641 77.41C275.904 76.8075 276.266 76.3275 276.727 75.97C276.984 75.8719 277.182 75.848 277.323 75.8983C277.459 75.9155 277.653 75.9928 277.905 76.1304C278.375 76.4096 278.721 76.6366 278.943 76.8113C279.195 76.9489 279.301 77.1375 279.263 77.3771C279.225 77.6167 279.056 78.0232 278.755 78.5965C278.567 78.9884 278.454 79.4386 278.414 79.9469C278.37 80.4222 278.236 80.8412 278.011 81.204C277.953 81.2782 277.857 81.5919 277.722 82.1454C277.587 82.6988 277.433 83.372 277.26 84.165C277.086 84.958 276.913 85.7511 276.74 86.5441C276.567 87.3371 276.415 88.0269 276.284 88.6134C276.186 89.1959 276.143 89.5368 276.155 89.6361C276.174 90.0703 276.161 90.525 276.118 91.0003C276.07 91.4425 276.074 91.8952 276.13 92.3586C276.162 92.6233 276.103 92.8318 275.954 92.9841C275.833 93.0993 275.657 93.1709 275.425 93.1987C275.095 93.2386 274.721 93.1996 274.303 93.0819C273.886 92.9642 273.571 92.8511 273.356 92.7426C273.212 92.6593 273.076 92.5077 272.949 92.288C272.855 92.0643 272.781 91.8717 272.728 91.7102C272.827 90.859 272.965 90.0534 273.143 89.2934C273.349 88.4964 273.52 87.6869 273.656 86.8647C273.707 86.7244 273.724 86.588 273.708 86.4556C273.692 86.3233 273.643 86.1949 273.561 86.0704C272.449 86.0364 271.336 86.1366 270.223 86.3713C269.109 86.6059 268.011 86.8221 266.927 87.0196C266.781 87.205 266.63 87.626 266.474 88.2827C266.347 88.9023 266.241 89.553 266.155 90.2348C266.065 90.8835 265.991 91.3793 265.931 91.7222C265.992 91.9499 265.999 92.2848 265.951 92.727C265.904 93.1692 265.823 93.6153 265.709 94.0655C265.592 94.4825 265.46 94.7837 265.315 94.9691ZM288.209 93.5242C286.753 93.6994 285.496 93.2966 284.438 92.316C283.376 91.3022 282.762 89.966 282.596 88.3073C282.519 87.1079 282.597 85.8059 282.831 84.4013C283.094 82.9595 283.497 81.568 284.041 80.2268C284.581 78.8525 285.206 77.6357 285.918 76.5765C286.63 75.5172 287.409 74.7352 288.255 74.2306C288.566 74.0253 288.897 73.8511 289.25 73.708C289.635 73.561 290.026 73.4636 290.423 73.4158C290.787 73.372 291.176 73.3924 291.589 73.477C291.998 73.5285 292.343 73.6045 292.623 73.705C293.214 73.869 293.678 74.0986 294.016 74.3937C294.353 74.6888 294.68 75.1699 294.995 75.837C295.17 76.4539 295.273 76.8947 295.305 77.1595C295.337 77.4242 295.302 77.8313 295.2 78.3807C294.946 79.6199 294.557 80.7076 294.032 81.6437C293.506 82.5798 292.75 83.4094 291.763 84.1325C291.518 84.3298 291.219 84.5 290.867 84.6431C290.544 84.7491 290.201 84.824 289.837 84.8678C289.175 84.9474 288.516 84.9092 287.859 84.7532C287.231 84.5601 286.706 84.2373 286.282 83.7846L285.887 83.4293L285.785 83.8444C285.562 84.7777 285.397 85.6369 285.29 86.422C285.216 87.2031 285.217 87.908 285.292 88.5368C285.34 88.934 285.419 89.3106 285.529 89.6667C285.672 90.0188 285.842 90.3172 286.04 90.5621C286.196 90.7447 286.429 90.8678 286.739 90.9312C287.078 90.9576 287.429 90.9489 287.793 90.9051C288.025 90.8772 288.256 90.8494 288.488 90.8215C288.749 90.7565 288.989 90.6605 289.209 90.5333C289.748 90.2671 290.169 89.9982 290.472 89.7267C290.808 89.4513 291.142 89.1593 291.474 88.8507L291.661 88.7276L291.611 88.7335C291.984 88.4872 292.308 88.2468 292.582 88.0124C292.889 87.774 293.043 87.6548 293.043 87.6548C293.175 87.6389 293.297 87.5403 293.41 87.3589C293.659 87.1946 293.996 87.2044 294.421 87.3883C294.879 87.5682 295.13 87.8402 295.173 88.2043C295.16 88.3737 295.043 88.6564 294.822 89.0523C294.597 89.4151 294.337 89.7653 294.042 90.103C293.78 90.4367 293.552 90.632 293.357 90.689C293.328 90.7261 293.22 90.8062 293.034 90.9293C292.843 91.0194 292.719 91.1015 292.66 91.1757L292.71 91.1697C292.46 91.6027 292.186 91.8371 291.888 91.8729L291.491 91.9207C291.386 92.1683 290.988 92.4848 290.296 92.8702C289.6 93.2226 288.904 93.4406 288.209 93.5242ZM289.129 82.3342C289.725 82.2625 290.218 82.0353 290.608 81.6526C291.028 81.2329 291.377 80.7879 291.656 80.3179C292.211 79.3447 292.488 78.4385 292.487 77.5991C292.516 76.7228 292.345 76.139 291.975 75.8479C291.764 75.7725 291.576 75.7447 291.411 75.7646C291.274 75.7475 290.999 75.8309 290.585 76.0151C290.295 76.1171 289.911 76.4151 289.433 76.909C288.955 77.403 288.484 77.9465 288.018 78.5397C287.585 79.129 287.258 79.6215 287.037 80.0174L286.517 81.1376C286.77 81.0064 287.012 80.9269 287.244 80.8991C287.505 80.8341 287.656 80.8327 287.697 80.8949C287.733 81.1928 287.816 81.4681 287.947 81.7209C288.108 81.9367 288.278 82.1008 288.46 82.2133C288.674 82.3217 288.897 82.3621 289.129 82.3342ZM304.914 90.8095C303.974 91.0904 303.091 91.1463 302.265 90.9771C301.435 90.7748 300.732 90.3725 300.156 89.7703C299.609 89.1311 299.272 88.282 299.144 87.2229C298.926 86.242 298.904 85.0863 299.08 83.7558C299.252 82.3922 299.572 81.0107 300.042 79.6113C300.544 78.2078 301.118 76.9805 301.764 75.9292C302.331 75.0553 302.905 74.2476 303.487 73.506C304.069 72.7645 304.611 72.2461 305.113 71.9507C305.552 71.6964 305.969 71.5288 306.362 71.4479C306.784 71.33 307.128 71.2551 307.392 71.2232C307.938 71.2919 308.53 71.4724 309.17 71.7648C309.838 72.0201 310.197 72.3463 310.244 72.7435C310.244 72.7435 310.283 72.7891 310.362 72.8804C310.469 72.9347 310.522 72.9618 310.522 72.9618C310.721 72.9379 310.912 73.1331 311.097 73.5474C311.314 73.9578 311.473 74.4422 311.574 75.0009C311.67 75.5264 311.641 75.9831 311.487 76.3711C311.43 77.0158 311.264 77.5897 310.989 78.0929C310.713 78.596 310.443 78.8635 310.179 78.8953C310.046 78.9113 309.916 78.9437 309.788 78.9928C309.688 79.0047 309.649 79.0934 309.668 79.2589C309.688 79.4244 309.597 79.5025 309.395 79.4933C309.225 79.4801 309.031 79.4027 308.813 79.2611C308.59 79.0865 308.413 78.8727 308.282 78.6199C308.262 78.4544 308.295 78.1652 308.379 77.7521C308.464 77.339 308.535 76.8101 308.591 76.1654C308.678 75.2149 308.59 74.6212 308.327 74.3843C308.059 74.1143 307.61 74.1515 306.98 74.4959C306.209 75.0587 305.492 75.7996 304.83 76.7186C304.202 77.6335 303.653 78.7907 303.183 80.1902C302.71 81.5565 302.342 83.2458 302.081 85.2581C301.974 86.0432 301.971 86.7151 302.071 87.2737C302.205 87.8283 302.324 88.1162 302.427 88.1374C302.906 88.214 303.539 88.1715 304.325 88.0097C305.108 87.8149 305.669 87.5963 306.009 87.3539C306.507 87.0255 307.061 86.6063 307.671 86.0964C308.277 85.5535 308.806 85.0701 309.259 84.6464C309.413 84.5272 309.591 84.3378 309.795 84.0783C309.999 83.8187 310.225 83.6069 310.474 83.4426C310.691 83.0137 310.895 82.7541 311.085 82.664C311.276 82.574 311.57 82.505 311.967 82.4573C312.24 82.4916 312.5 82.561 312.747 82.6655C312.995 82.77 313.16 82.8845 313.242 83.0089C313.357 83.1294 313.321 83.2512 313.135 83.3743C313.002 83.3903 312.926 83.4498 312.905 83.5531C312.913 83.6193 312.917 83.6524 312.917 83.6524C312.999 83.7768 312.884 84.076 312.571 84.5501C312.288 84.987 311.912 85.4855 311.442 86.0457C310.972 86.6058 310.511 87.0977 310.058 87.5215C309.635 87.9082 309.324 88.1135 309.125 88.1374C308.794 88.1772 308.641 88.2964 308.664 88.4949C308.672 88.5611 308.444 88.7565 307.98 89.0809C307.548 89.4014 307.034 89.7319 306.437 90.0723C305.873 90.4087 305.365 90.6544 304.914 90.8095Z" fill="#00E8AD"/>
<path d="M109.287 90.7433C110.109 90.6437 110.857 91.2296 110.956 92.052C111.056 92.8745 110.47 93.6219 109.648 93.7215L109.287 90.7433ZM8.76034 178.769C7.97498 179.033 7.12461 178.61 6.86099 177.824L2.56491 165.026C2.30128 164.241 2.72423 163.391 3.50958 163.127C4.29494 162.863 5.14532 163.286 5.40895 164.072L9.22768 175.448L20.6039 171.629C21.3892 171.365 22.2396 171.788 22.5032 172.574C22.7668 173.359 22.3439 174.209 21.5585 174.473L8.76034 178.769ZM109.648 93.7215C78.8934 97.4463 53.9112 118.381 36.5291 138.612C27.8573 148.704 21.1247 158.567 16.5604 165.907C14.2791 169.575 12.5414 172.611 11.3759 174.725C10.7932 175.782 10.3536 176.609 10.0608 177.169C9.91435 177.449 9.80461 177.663 9.73201 177.806C9.69571 177.877 9.66869 177.93 9.65102 177.965C9.64218 177.983 9.63567 177.996 9.6315 178.004C9.62943 178.008 9.62794 178.011 9.62702 178.013C9.62657 178.014 9.62633 178.015 9.6261 178.015C9.626 178.015 9.62605 178.015 8.283 177.347C6.93996 176.679 6.9403 176.678 6.94079 176.677C6.94115 176.677 6.94179 176.675 6.94251 176.674C6.94396 176.671 6.94598 176.667 6.94861 176.662C6.95385 176.651 6.96144 176.636 6.97137 176.616C6.99124 176.577 7.02049 176.519 7.05905 176.443C7.1362 176.292 7.25064 176.069 7.40194 175.78C7.70452 175.201 8.15457 174.354 8.74857 173.277C9.93649 171.122 11.7006 168.041 14.0128 164.322C18.6357 156.888 25.4574 146.894 34.2537 136.656C51.8079 116.226 77.4179 94.6031 109.287 90.7433L109.648 93.7215Z" fill="#00E8AD"/>
</svg>
