<svg width="1360" height="481" viewBox="0 0 1360 481" fill="none" xmlns="http://www.w3.org/2000/svg">
<path d="M1 39.9991C1 32.9819 1.00078 27.7792 1.33728 23.6606C1.67284 19.5536 2.33723 16.6128 3.61584 14.1033C5.9168 9.58744 9.58834 5.9159 14.1042 3.61494C16.6137 2.33633 19.5545 1.67194 23.6615 1.33638C27.7801 0.999877 32.9828 0.9991 40 0.9991H1320C1327.02 0.9991 1332.22 0.999877 1336.34 1.33638C1340.45 1.67194 1343.39 2.33633 1345.9 3.61494C1350.41 5.9159 1354.08 9.58743 1356.38 14.1033C1357.66 16.6128 1358.33 19.5536 1358.66 23.6606C1359 27.7792 1359 32.9819 1359 39.9991V440.999C1359 448.016 1359 453.219 1358.66 457.338C1358.33 461.445 1357.66 464.385 1356.38 466.895C1354.08 471.411 1350.41 475.082 1345.9 477.383C1343.39 478.662 1340.45 479.326 1336.34 479.662C1332.22 479.998 1327.02 479.999 1320 479.999H40C32.9829 479.999 27.7801 479.998 23.6615 479.662C19.5545 479.326 16.6137 478.662 14.1042 477.383C9.58834 475.082 5.9168 471.411 3.61584 466.895C2.33723 464.385 1.67284 461.445 1.33728 457.338C1.00078 453.219 1 448.016 1 440.999V39.9991Z" fill="#201D54"/>
<path d="M1 39.9991C1 32.9819 1.00078 27.7792 1.33728 23.6606C1.67284 19.5536 2.33723 16.6128 3.61584 14.1033C5.9168 9.58744 9.58834 5.9159 14.1042 3.61494C16.6137 2.33633 19.5545 1.67194 23.6615 1.33638C27.7801 0.999877 32.9828 0.9991 40 0.9991H1320C1327.02 0.9991 1332.22 0.999877 1336.34 1.33638C1340.45 1.67194 1343.39 2.33633 1345.9 3.61494C1350.41 5.9159 1354.08 9.58743 1356.38 14.1033C1357.66 16.6128 1358.33 19.5536 1358.66 23.6606C1359 27.7792 1359 32.9819 1359 39.9991V440.999C1359 448.016 1359 453.219 1358.66 457.338C1358.33 461.445 1357.66 464.385 1356.38 466.895C1354.08 471.411 1350.41 475.082 1345.9 477.383C1343.39 478.662 1340.45 479.326 1336.34 479.662C1332.22 479.998 1327.02 479.999 1320 479.999H40C32.9829 479.999 27.7801 479.998 23.6615 479.662C19.5545 479.326 16.6137 478.662 14.1042 477.383C9.58834 475.082 5.9168 471.411 3.61584 466.895C2.33723 464.385 1.67284 461.445 1.33728 457.338C1.00078 453.219 1 448.016 1 440.999V39.9991Z" fill="url(#paint0_radial_168_313)" fill-opacity="0.4"/>
<path d="M1 39.9991C1 32.9819 1.00078 27.7792 1.33728 23.6606C1.67284 19.5536 2.33723 16.6128 3.61584 14.1033C5.9168 9.58744 9.58834 5.9159 14.1042 3.61494C16.6137 2.33633 19.5545 1.67194 23.6615 1.33638C27.7801 0.999877 32.9828 0.9991 40 0.9991H1320C1327.02 0.9991 1332.22 0.999877 1336.34 1.33638C1340.45 1.67194 1343.39 2.33633 1345.9 3.61494C1350.41 5.9159 1354.08 9.58743 1356.38 14.1033C1357.66 16.6128 1358.33 19.5536 1358.66 23.6606C1359 27.7792 1359 32.9819 1359 39.9991V440.999C1359 448.016 1359 453.219 1358.66 457.338C1358.33 461.445 1357.66 464.385 1356.38 466.895C1354.08 471.411 1350.41 475.082 1345.9 477.383C1343.39 478.662 1340.45 479.326 1336.34 479.662C1332.22 479.998 1327.02 479.999 1320 479.999H40C32.9829 479.999 27.7801 479.998 23.6615 479.662C19.5545 479.326 16.6137 478.662 14.1042 477.383C9.58834 475.082 5.9168 471.411 3.61584 466.895C2.33723 464.385 1.67284 461.445 1.33728 457.338C1.00078 453.219 1 448.016 1 440.999V39.9991Z" stroke="url(#paint1_linear_168_313)" stroke-width="2"/>
<defs>
<radialGradient id="paint0_radial_168_313" cx="0" cy="0" r="1" gradientUnits="userSpaceOnUse" gradientTransform="translate(680 240.499) rotate(90) scale(240.5 674.221)">
<stop stop-color="#2F2B72"/>
<stop offset="1" stop-color="#302C74" stop-opacity="0"/>
</radialGradient>
<linearGradient id="paint1_linear_168_313" x1="680" y1="-0.000900269" x2="680" y2="480.999" gradientUnits="userSpaceOnUse">
<stop stop-color="#00E8AD"/>
<stop offset="1" stop-color="#00E8AD" stop-opacity="0"/>
</linearGradient>
</defs>
</svg>
