<svg width="134" height="45" viewBox="0 0 134 45" fill="none" xmlns="http://www.w3.org/2000/svg">
<path d="M2.35347 0.811523V27.0242H7.80965V16.1736H8.87949C11.6611 16.1736 12.8379 18.3904 13.6938 21.3461C14.193 23.2129 14.6566 25.2352 15.4412 27.0242H21.3609C20.2911 24.4185 19.4709 21.5794 18.6507 18.7404C17.6522 15.5513 16.297 13.2178 13.1588 12.44L21.5392 0.811523H14.9062L8.20193 11.7011H7.80965V0.811523H2.35347Z" fill="white"/>
<path d="M32.1084 23.2129C29.8617 23.2129 28.6492 20.8016 28.6492 17.457C28.6492 14.7346 29.5764 11.8177 32.1084 11.8177C34.5333 11.8177 35.4962 14.6957 35.4962 17.4181C35.4962 20.9572 34.1767 23.2129 32.144 23.2129H32.1084ZM32.037 27.4909C36.6373 27.4909 41.1663 24.2629 41.1663 17.2625C41.1663 11.5066 37.6359 7.5786 32.3223 7.5786C26.5809 7.5786 22.9078 11.4677 22.9078 17.5736C22.9078 23.9518 26.9018 27.4909 32.0014 27.4909H32.037Z" fill="white"/>
<path d="M44.5221 8.0064V27.0242H50.014V19.5182H55.3988V27.0242H60.9263V8.0064H55.3988V14.929H50.014V8.0064H44.5221Z" fill="white"/>
<path d="M63.568 8.0064V12.5567H68.5606V27.0242H74.1238V12.5567H79.1164V8.0064H63.568Z" fill="white"/>
<path d="M90.9885 20.1016C90.9885 20.5294 91.0598 20.7627 90.9528 21.1127C90.5962 22.2795 89.4907 23.2518 88.1356 23.2518C86.9231 23.2518 86.0316 22.5517 86.0316 21.035C86.0316 18.8571 88.1713 18.0403 90.9885 18.0403V20.1016ZM96.302 15.8235C96.302 11.2344 94.4833 7.5786 88.7062 7.5786C85.3897 7.5786 83.0004 8.4731 81.7522 9.21203L82.8934 13.0623C83.9632 12.3233 85.8176 11.7011 87.7077 11.7011C90.3466 11.7011 90.8459 13.1012 90.8459 14.1123V14.2679C84.6765 14.2679 80.6111 16.6403 80.6111 21.5405C80.6111 24.5741 82.7507 27.4909 86.2456 27.4909C88.3139 27.4909 90.1326 26.6353 91.1668 25.1574H91.3095L91.7017 27.0242H96.6586C96.4447 25.9353 96.302 24.2629 96.302 22.3573V15.8235Z" fill="white"/>
<path d="M100.626 8.0064V27.0242H106.118V19.5571H106.653C108.293 19.5571 109.434 20.646 110.219 22.7851C110.932 24.9241 111.324 26.2464 111.788 27.0242H117.458C116.602 25.1963 116.032 22.9795 115.461 21.385C114.391 18.5459 113.107 16.5625 111.039 16.1347L117.494 8.0064H111.003L106.653 15.5124H106.118V8.0064H100.626Z" fill="white"/>
<path d="M118 8.0064V12.5567H122.993V27.0242H128.556V12.5567H133.549V8.0064H118Z" fill="white"/>
<path d="M0.923828 33.9455V44.2362H3.07983V35.8693H6.66383V33.9455H0.923828Z" fill="white"/>
<path d="M9.95645 35.7624C10.1245 35.7014 10.4185 35.6555 10.8245 35.6555C11.8885 35.6555 12.4765 36.2357 12.4765 37.1365C12.4765 38.1595 11.7625 38.7855 10.6425 38.7855C10.3345 38.7855 10.1385 38.7702 9.95645 38.7092V35.7624ZM7.82845 44.2362H9.95645V40.526C10.1525 40.5871 10.4185 40.6177 10.6845 40.6177C11.9165 40.6177 13.0225 40.236 13.7365 39.5184C14.3105 38.9382 14.6045 38.1137 14.6045 37.0602C14.6045 36.0678 14.1985 35.2128 13.5685 34.6479C12.9805 34.1287 12.0285 33.8692 10.7125 33.8692C9.38245 33.8692 8.47245 33.9455 7.82845 34.0829V44.2362Z" fill="white"/>
<path d="M15.0946 33.9303L18.3006 41.0604C18.3426 41.2589 18.3706 41.4116 18.3426 41.5795C18.1466 41.9918 17.6986 42.4804 17.0826 42.4804C16.7466 42.4804 16.5506 42.4498 16.3266 42.3887L16.2006 44.282C16.4386 44.4041 16.7466 44.4957 17.2366 44.4957C18.3706 44.4957 19.1546 43.9461 19.7986 43.0911C20.4706 42.1292 21.0726 40.5871 21.6466 38.984L23.4106 33.9303H21.1146L20.0786 37.5946C19.8686 38.4496 19.7286 39.1672 19.6026 39.5794H19.5466C19.3506 38.9534 19.1406 38.3427 18.9026 37.6251L17.5446 33.9303H15.0946Z" fill="white"/>
<path d="M24.2757 33.9455V44.2362H26.4317V35.8693H29.7357V44.2362H31.9057V33.9455H24.2757Z" fill="white"/>
<path d="M33.7777 33.9455V44.2362H35.9337V35.8693H39.2377V44.2362H41.4077V33.9455H33.7777Z" fill="white"/>
<path d="M48.1656 41.6101L48.8656 44.2362H51.2316L48.2916 33.9455H45.4776L42.5796 44.2362H44.8196L45.4776 41.6101H48.1656ZM45.7856 39.8848L46.3596 37.7167C46.4996 37.106 46.6116 36.3121 46.7796 35.7014H46.7936L47.2556 37.6862L47.8576 39.8848H45.7856Z" fill="white"/>
<path d="M56.1582 33.9455V44.2362H58.3002V39.9764H58.7202C59.8122 39.9764 60.2742 40.8467 60.6102 42.007C60.8062 42.7399 60.9882 43.5338 61.2962 44.2362H63.6202C63.2002 43.2132 62.8782 42.0987 62.5562 40.9841C62.1642 39.7321 61.6322 38.816 60.4002 38.5107L63.6902 33.9455H61.0862L58.4542 38.2206H58.3002V33.9455H56.1582Z" fill="white"/>
<path d="M68.8195 42.5262C67.3914 42.5262 66.5515 41.0299 66.5515 39.0756C66.5515 37.1976 67.3494 35.6708 68.8055 35.6708C70.2615 35.6708 71.0595 37.2282 71.0595 39.0603C71.0595 41.0452 70.2335 42.5262 68.8335 42.5262H68.8195ZM68.7075 44.4194C71.4795 44.4194 73.3275 42.3277 73.3275 38.984C73.3275 36.1441 71.7875 33.7623 68.8755 33.7623C66.0754 33.7623 64.2695 36.0983 64.2695 39.1214C64.2695 42.0834 65.8794 44.4194 68.6935 44.4194H68.7075Z" fill="white"/>
<path d="M82.9276 44.2362H84.9996L84.4676 33.9455H81.6536L80.6876 37.3045C80.3516 38.4649 80.0436 39.8237 79.7916 41.0146H79.7496C79.4976 39.7932 79.2316 38.4954 78.9376 37.335L78.0416 33.9455H75.1296L74.5556 44.2362H76.5716L76.7396 40.3428C76.7956 39.0603 76.8236 37.503 76.8796 36.0983H76.9216C77.1596 37.4419 77.4256 38.9534 77.7476 40.0985L78.7696 44.0988H80.4356L81.5696 40.068C81.9336 38.8924 82.3116 37.4114 82.6196 36.0983H82.6756C82.6476 37.6251 82.7036 39.0603 82.7596 40.3123L82.9276 44.2362Z" fill="white"/>
<path d="M86.6468 33.9455V44.2362H88.8028V35.8693H92.1068V44.2362H94.2768V33.9455H86.6468Z" fill="white"/>
<path d="M101.035 41.6101L101.735 44.2362H104.101L101.161 33.9455H98.3468L95.4488 44.2362H97.6888L98.3468 41.6101H101.035ZM98.6548 39.8848L99.2288 37.7167C99.3688 37.106 99.4808 36.3121 99.6488 35.7014H99.6628L100.125 37.6862L100.727 39.8848H98.6548Z" fill="white"/>
<path d="M105.378 33.9455V44.2362H107.52V39.9459H110.992V44.2362H113.148V33.9455H110.992V37.9152H107.52V33.9455H105.378Z" fill="white"/>
<path d="M115.016 33.9455V44.2362H117.452L119.37 40.5871C119.916 39.5031 120.518 38.1442 120.98 36.9075L121.022 36.9228C120.882 38.2511 120.84 39.671 120.84 41.2589V44.2362H122.842V33.9455H120.588L118.6 37.9458C118.054 39.045 117.48 40.4497 116.934 41.6406L116.878 41.6253C116.99 40.2665 117.018 38.6023 117.018 36.9533V33.9455H115.016Z" fill="white"/>
<path d="M126.516 32.3577C126.628 33.6249 127.328 34.2509 128.56 34.2509C129.806 34.2509 130.59 33.686 130.702 32.3577H129.232C129.176 32.9684 129.008 33.3043 128.616 33.3043C128.14 33.3043 128.014 32.9378 127.972 32.3577H126.516ZM124.696 34.7395V44.2362H127.132L129.05 40.8619C129.596 39.8695 130.198 38.6328 130.66 37.4724L130.702 37.4877C130.562 38.6939 130.52 40.0069 130.52 41.4879V44.2362H132.522V34.7395H130.268L128.28 38.4191C127.734 39.442 127.16 40.7398 126.614 41.8391L126.558 41.8238C126.67 40.5718 126.698 39.0298 126.698 37.5182V34.7395H124.696Z" fill="white"/>
</svg>
