<svg width="780" height="360" viewBox="0 0 780 360" fill="none" xmlns="http://www.w3.org/2000/svg">
<path d="M0 40C0 25.9987 0 18.998 2.72484 13.6502C5.12167 8.94619 8.94619 5.12167 13.6502 2.72484C18.998 0 25.9987 0 40 0H521.667C533.789 0 539.849 0 545.732 0.192919C623.977 2.75911 699.239 30.8322 760.051 80.1353C764.623 83.8417 769.203 87.8109 778.364 95.7492C778.82 96.1447 779.048 96.3424 779.162 96.4654C780.829 98.2724 779.734 101.208 777.291 101.481C777.125 101.5 776.823 101.5 776.219 101.5H719.302C688.146 101.5 662.889 126.757 662.889 157.913C662.889 269.523 572.411 360 460.802 360H40C25.9987 360 18.998 360 13.6502 357.275C8.94619 354.878 5.12167 351.054 2.72484 346.35C0 341.002 0 334.001 0 320V40Z" fill="url(#paint0_linear_168_464)"/>
<path d="M0 40C0 25.9987 0 18.998 2.72484 13.6502C5.12167 8.94619 8.94619 5.12167 13.6502 2.72484C18.998 0 25.9987 0 40 0H521.667C533.789 0 539.849 0 545.732 0.192919C623.977 2.75911 699.239 30.8322 760.051 80.1353C764.623 83.8417 769.203 87.8109 778.364 95.7492C778.82 96.1447 779.048 96.3424 779.162 96.4654C780.829 98.2724 779.734 101.208 777.291 101.481C777.125 101.5 776.823 101.5 776.219 101.5H719.302C688.146 101.5 662.889 126.757 662.889 157.913C662.889 269.523 572.411 360 460.802 360H40C25.9987 360 18.998 360 13.6502 357.275C8.94619 354.878 5.12167 351.054 2.72484 346.35C0 341.002 0 334.001 0 320V40Z" fill="url(#paint1_radial_168_464)" fill-opacity="0.4"/>
<defs>
<linearGradient id="paint0_linear_168_464" x1="225" y1="-41.5" x2="539.5" y2="360" gradientUnits="userSpaceOnUse">
<stop stop-color="#5F5AA6"/>
<stop offset="1" stop-color="#1E1A5F"/>
</linearGradient>
<radialGradient id="paint1_radial_168_464" cx="0" cy="0" r="1" gradientUnits="userSpaceOnUse" gradientTransform="translate(392.5 180) rotate(90) scale(180 389.165)">
<stop stop-color="#2F2B72"/>
<stop offset="1" stop-color="#302C74" stop-opacity="0"/>
</radialGradient>
</defs>
</svg>
