<svg width="340" height="233" viewBox="0 0 340 233" fill="none" xmlns="http://www.w3.org/2000/svg">
<path d="M0 19.2C0 12.4794 0 9.11905 1.30792 6.55211C2.4584 4.29417 4.29417 2.4584 6.55211 1.30792C9.11905 0 12.4794 0 19.2 0H320.8C327.521 0 330.881 0 333.448 1.30792C335.706 2.4584 337.542 4.29417 338.692 6.55211C340 9.11905 340 12.4794 340 19.2V164.8C340 171.521 340 174.881 338.692 177.448C337.542 179.706 335.706 181.542 333.448 182.692C330.881 184 327.521 184 320.8 184H129.85C107.904 184 94.0085 207.55 104.62 226.76C106.298 229.799 103.091 233.203 99.9584 231.707L62.8475 213.995C40.0596 203.119 28.6657 197.681 20.3292 189.386C12.9584 182.051 7.34071 173.145 3.896 163.334C0 152.237 0 139.612 0 114.361V19.2Z" fill="url(#paint0_linear_168_783)"/>
<path d="M0 19.2C0 12.4794 0 9.11905 1.30792 6.55211C2.4584 4.29417 4.29417 2.4584 6.55211 1.30792C9.11905 0 12.4794 0 19.2 0H320.8C327.521 0 330.881 0 333.448 1.30792C335.706 2.4584 337.542 4.29417 338.692 6.55211C340 9.11905 340 12.4794 340 19.2V164.8C340 171.521 340 174.881 338.692 177.448C337.542 179.706 335.706 181.542 333.448 182.692C330.881 184 327.521 184 320.8 184H129.85C107.904 184 94.0085 207.55 104.62 226.76C106.298 229.799 103.091 233.203 99.9584 231.707L62.8475 213.995C40.0596 203.119 28.6657 197.681 20.3292 189.386C12.9584 182.051 7.34071 173.145 3.896 163.334C0 152.237 0 139.612 0 114.361V19.2Z" fill="url(#paint1_radial_168_783)" fill-opacity="0.4"/>
<defs>
<linearGradient id="paint0_linear_168_783" x1="189.162" y1="23.5" x2="220.675" y2="200.313" gradientUnits="userSpaceOnUse">
<stop stop-color="#504C92"/>
<stop offset="1" stop-color="#1F1B62"/>
</linearGradient>
<radialGradient id="paint1_radial_168_783" cx="0" cy="0" r="1" gradientUnits="userSpaceOnUse" gradientTransform="translate(197.132 92.0001) rotate(90) scale(92.0001 195.457)">
<stop stop-color="#2F2B72"/>
<stop offset="1" stop-color="#302C74" stop-opacity="0"/>
</radialGradient>
</defs>
</svg>
