<svg width="1360" height="468" viewBox="0 0 1360 468" fill="none" xmlns="http://www.w3.org/2000/svg">
<g filter="url(#filter0_i_168_365)">
<path d="M0 40.2163C0 26.215 0 19.2143 2.72484 13.8665C5.12167 9.16249 8.94619 5.33798 13.6502 2.94115C18.998 0.216309 25.9987 0.216309 40 0.216309H1126.5C1255.46 0.216309 1360 104.758 1360 233.716C1360 362.675 1255.46 467.216 1126.5 467.216H40C25.9987 467.216 18.998 467.216 13.6502 464.491C8.94619 462.095 5.12167 458.27 2.72484 453.566C0 448.218 0 441.218 0 427.216V40.2163Z" fill="#201D54"/>
<path d="M0 40.2163C0 26.215 0 19.2143 2.72484 13.8665C5.12167 9.16249 8.94619 5.33798 13.6502 2.94115C18.998 0.216309 25.9987 0.216309 40 0.216309H1126.5C1255.46 0.216309 1360 104.758 1360 233.716C1360 362.675 1255.46 467.216 1126.5 467.216H40C25.9987 467.216 18.998 467.216 13.6502 464.491C8.94619 462.095 5.12167 458.27 2.72484 453.566C0 448.218 0 441.218 0 427.216V40.2163Z" fill="url(#paint0_linear_168_365)" fill-opacity="0.4"/>
<path d="M0 40.2163C0 26.215 0 19.2143 2.72484 13.8665C5.12167 9.16249 8.94619 5.33798 13.6502 2.94115C18.998 0.216309 25.9987 0.216309 40 0.216309H1126.5C1255.46 0.216309 1360 104.758 1360 233.716C1360 362.675 1255.46 467.216 1126.5 467.216H40C25.9987 467.216 18.998 467.216 13.6502 464.491C8.94619 462.095 5.12167 458.27 2.72484 453.566C0 448.218 0 441.218 0 427.216V40.2163Z" fill="url(#paint1_linear_168_365)"/>
</g>
<path d="M1 40.2163C1 33.1992 1.00078 27.9964 1.33728 23.8778C1.67284 19.7708 2.33723 16.83 3.61584 14.3205C5.9168 9.80465 9.58834 6.13311 14.1042 3.83215C16.6137 2.55353 19.5545 1.88914 23.6615 1.55359C27.7801 1.21709 32.9828 1.21631 40 1.21631H1126.5C1254.91 1.21631 1359 105.31 1359 233.716C1359 362.123 1254.91 466.216 1126.5 466.216H40C32.9829 466.216 27.7801 466.216 23.6615 465.879C19.5545 465.543 16.6137 464.879 14.1042 463.6C9.58834 461.299 5.9168 457.628 3.61584 453.112C2.33723 450.603 1.67284 447.662 1.33728 443.555C1.00078 439.436 1 434.233 1 427.216V40.2163Z" stroke="url(#paint2_linear_168_365)" stroke-width="2"/>
<defs>
<filter id="filter0_i_168_365" x="0" y="0.216309" width="1360" height="480" filterUnits="userSpaceOnUse" color-interpolation-filters="sRGB">
<feFlood flood-opacity="0" result="BackgroundImageFix"/>
<feBlend mode="normal" in="SourceGraphic" in2="BackgroundImageFix" result="shape"/>
<feColorMatrix in="SourceAlpha" type="matrix" values="0 0 0 0 0 0 0 0 0 0 0 0 0 0 0 0 0 0 127 0" result="hardAlpha"/>
<feOffset dy="13"/>
<feGaussianBlur stdDeviation="10"/>
<feComposite in2="hardAlpha" operator="arithmetic" k2="-1" k3="1"/>
<feColorMatrix type="matrix" values="0 0 0 0 1 0 0 0 0 1 0 0 0 0 1 0 0 0 0.25 0"/>
<feBlend mode="normal" in2="shape" result="effect1_innerShadow_168_365"/>
</filter>
<linearGradient id="paint0_linear_168_365" x1="879" y1="-2.18829e-05" x2="661.358" y2="458.364" gradientUnits="userSpaceOnUse">
<stop offset="0.143975" stop-color="#302C74" stop-opacity="0"/>
<stop offset="0.562032" stop-color="#534F8E"/>
<stop offset="0.916541" stop-color="#9D9AD3" stop-opacity="0"/>
</linearGradient>
<linearGradient id="paint1_linear_168_365" x1="1360" y1="195.5" x2="15.0001" y2="-2.65867e-05" gradientUnits="userSpaceOnUse">
<stop stop-color="#3F3A94"/>
<stop offset="0.418912" stop-color="#3F3A94" stop-opacity="0"/>
</linearGradient>
<linearGradient id="paint2_linear_168_365" x1="680" y1="0.216309" x2="680" y2="467.216" gradientUnits="userSpaceOnUse">
<stop stop-color="#00E8AD"/>
<stop offset="1" stop-color="#00E8AD" stop-opacity="0"/>
</linearGradient>
</defs>
</svg>
