<svg width="340" height="297" viewBox="0 0 340 297" fill="none" xmlns="http://www.w3.org/2000/svg">
<g filter="url(#filter0_i_168_682)">
<path d="M0 19.2C0 12.4794 0 9.11905 1.30792 6.55211C2.4584 4.29417 4.29417 2.4584 6.55211 1.30792C9.11905 0 12.4794 0 19.2 0H320.8C327.521 0 330.881 0 333.448 1.30792C335.706 2.4584 337.542 4.29417 338.692 6.55211C340 9.11905 340 12.4794 340 19.2V277.8C340 284.521 340 287.881 338.692 290.448C337.542 292.706 335.706 294.542 333.448 295.692C330.881 297 327.521 297 320.8 297H19.2C12.4794 297 9.11905 297 6.55211 295.692C4.29417 294.542 2.4584 292.706 1.30792 290.448C0 287.881 0 284.521 0 277.8V19.2Z" fill="#201D54"/>
<path d="M0 19.2C0 12.4794 0 9.11905 1.30792 6.55211C2.4584 4.29417 4.29417 2.4584 6.55211 1.30792C9.11905 0 12.4794 0 19.2 0H320.8C327.521 0 330.881 0 333.448 1.30792C335.706 2.4584 337.542 4.29417 338.692 6.55211C340 9.11905 340 12.4794 340 19.2V277.8C340 284.521 340 287.881 338.692 290.448C337.542 292.706 335.706 294.542 333.448 295.692C330.881 297 327.521 297 320.8 297H19.2C12.4794 297 9.11905 297 6.55211 295.692C4.29417 294.542 2.4584 292.706 1.30792 290.448C0 287.881 0 284.521 0 277.8V19.2Z" fill="url(#paint0_linear_168_682)" fill-opacity="0.4"/>
<path d="M0 19.2C0 12.4794 0 9.11905 1.30792 6.55211C2.4584 4.29417 4.29417 2.4584 6.55211 1.30792C9.11905 0 12.4794 0 19.2 0H320.8C327.521 0 330.881 0 333.448 1.30792C335.706 2.4584 337.542 4.29417 338.692 6.55211C340 9.11905 340 12.4794 340 19.2V277.8C340 284.521 340 287.881 338.692 290.448C337.542 292.706 335.706 294.542 333.448 295.692C330.881 297 327.521 297 320.8 297H19.2C12.4794 297 9.11905 297 6.55211 295.692C4.29417 294.542 2.4584 292.706 1.30792 290.448C0 287.881 0 284.521 0 277.8V19.2Z" fill="url(#paint1_linear_168_682)"/>
</g>
<path d="M0.5 19.2C0.5 15.8314 0.500389 13.3351 0.66183 11.3591C0.822794 9.38904 1.14136 7.98035 1.75343 6.77911C2.85597 4.61525 4.61525 2.85597 6.77911 1.75343C7.98035 1.14136 9.38904 0.822794 11.3591 0.66183C13.3351 0.500389 15.8314 0.5 19.2 0.5H320.8C324.169 0.5 326.665 0.500389 328.641 0.66183C330.611 0.822794 332.02 1.14136 333.221 1.75343C335.385 2.85597 337.144 4.61524 338.247 6.77911C338.859 7.98035 339.177 9.38904 339.338 11.3591C339.5 13.3351 339.5 15.8314 339.5 19.2V277.8C339.5 281.169 339.5 283.665 339.338 285.641C339.177 287.611 338.859 289.02 338.247 290.221C337.144 292.385 335.385 294.144 333.221 295.247C332.02 295.859 330.611 296.177 328.641 296.338C326.665 296.5 324.169 296.5 320.8 296.5H19.2C15.8314 296.5 13.3351 296.5 11.3591 296.338C9.38904 296.177 7.98035 295.859 6.77911 295.247C4.61524 294.144 2.85597 292.385 1.75342 290.221C1.14136 289.02 0.822794 287.611 0.66183 285.641C0.500389 283.665 0.5 281.169 0.5 277.8V19.2Z" stroke="url(#paint2_linear_168_682)"/>
<defs>
<filter id="filter0_i_168_682" x="0" y="0" width="340" height="303.5" filterUnits="userSpaceOnUse" color-interpolation-filters="sRGB">
<feFlood flood-opacity="0" result="BackgroundImageFix"/>
<feBlend mode="normal" in="SourceGraphic" in2="BackgroundImageFix" result="shape"/>
<feColorMatrix in="SourceAlpha" type="matrix" values="0 0 0 0 0 0 0 0 0 0 0 0 0 0 0 0 0 0 127 0" result="hardAlpha"/>
<feOffset dy="6.5"/>
<feGaussianBlur stdDeviation="5"/>
<feComposite in2="hardAlpha" operator="arithmetic" k2="-1" k3="1"/>
<feColorMatrix type="matrix" values="0 0 0 0 1 0 0 0 0 1 0 0 0 0 1 0 0 0 0.25 0"/>
<feBlend mode="normal" in2="shape" result="effect1_innerShadow_168_682"/>
</filter>
<linearGradient id="paint0_linear_168_682" x1="369.876" y1="-0.103826" x2="256.975" y2="208.353" gradientUnits="userSpaceOnUse">
<stop offset="0.143975" stop-color="#302C74" stop-opacity="0"/>
<stop offset="0.562032" stop-color="#534F8E"/>
<stop offset="0.916541" stop-color="#9D9AD3" stop-opacity="0"/>
</linearGradient>
<linearGradient id="paint1_linear_168_682" x1="572.277" y1="93.7311" x2="3.58916" y2="21.2627" gradientUnits="userSpaceOnUse">
<stop stop-color="#3F3A94"/>
<stop offset="0.418912" stop-color="#3F3A94" stop-opacity="0"/>
</linearGradient>
<linearGradient id="paint2_linear_168_682" x1="286.139" y1="0" x2="286.139" y2="224.148" gradientUnits="userSpaceOnUse">
<stop stop-color="#00E8AD"/>
<stop offset="1" stop-color="#00E8AD" stop-opacity="0"/>
</linearGradient>
</defs>
</svg>
