<svg width="1170" height="442" viewBox="0 0 1170 442" fill="none" xmlns="http://www.w3.org/2000/svg">
<path d="M1 40C1 32.9828 1.00078 27.7801 1.33728 23.6615C1.67284 19.5545 2.33723 16.6137 3.61584 14.1042C5.9168 9.58834 9.58834 5.9168 14.1042 3.61584C16.6137 2.33723 19.5545 1.67284 23.6615 1.33728C27.7801 1.00078 32.9828 1 40 1H1130C1137.02 1 1142.22 1.00078 1146.34 1.33728C1150.45 1.67284 1153.39 2.33723 1155.9 3.61584C1160.41 5.9168 1164.08 9.58833 1166.38 14.1042C1167.66 16.6137 1168.33 19.5545 1168.66 23.6615C1169 27.7801 1169 32.9828 1169 40V402C1169 409.017 1169 414.22 1168.66 418.339C1168.33 422.445 1167.66 425.386 1166.38 427.896C1164.08 432.412 1160.41 436.083 1155.9 438.384C1153.39 439.663 1150.45 440.327 1146.34 440.663C1142.22 440.999 1137.02 441 1130 441H40C32.9828 441 27.7801 440.999 23.6615 440.663C19.5545 440.327 16.6137 439.663 14.1042 438.384C9.58834 436.083 5.9168 432.412 3.61584 427.896C2.33723 425.386 1.67284 422.445 1.33728 418.339C1.00078 414.22 1 409.017 1 402V40Z" fill="#201D54"/>
<path d="M1 40C1 32.9828 1.00078 27.7801 1.33728 23.6615C1.67284 19.5545 2.33723 16.6137 3.61584 14.1042C5.9168 9.58834 9.58834 5.9168 14.1042 3.61584C16.6137 2.33723 19.5545 1.67284 23.6615 1.33728C27.7801 1.00078 32.9828 1 40 1H1130C1137.02 1 1142.22 1.00078 1146.34 1.33728C1150.45 1.67284 1153.39 2.33723 1155.9 3.61584C1160.41 5.9168 1164.08 9.58833 1166.38 14.1042C1167.66 16.6137 1168.33 19.5545 1168.66 23.6615C1169 27.7801 1169 32.9828 1169 40V402C1169 409.017 1169 414.22 1168.66 418.339C1168.33 422.445 1167.66 425.386 1166.38 427.896C1164.08 432.412 1160.41 436.083 1155.9 438.384C1153.39 439.663 1150.45 440.327 1146.34 440.663C1142.22 440.999 1137.02 441 1130 441H40C32.9828 441 27.7801 440.999 23.6615 440.663C19.5545 440.327 16.6137 439.663 14.1042 438.384C9.58834 436.083 5.9168 432.412 3.61584 427.896C2.33723 425.386 1.67284 422.445 1.33728 418.339C1.00078 414.22 1 409.017 1 402V40Z" fill="url(#paint0_linear_168_234)" fill-opacity="0.4"/>
<path d="M1 40C1 32.9828 1.00078 27.7801 1.33728 23.6615C1.67284 19.5545 2.33723 16.6137 3.61584 14.1042C5.9168 9.58834 9.58834 5.9168 14.1042 3.61584C16.6137 2.33723 19.5545 1.67284 23.6615 1.33728C27.7801 1.00078 32.9828 1 40 1H1130C1137.02 1 1142.22 1.00078 1146.34 1.33728C1150.45 1.67284 1153.39 2.33723 1155.9 3.61584C1160.41 5.9168 1164.08 9.58833 1166.38 14.1042C1167.66 16.6137 1168.33 19.5545 1168.66 23.6615C1169 27.7801 1169 32.9828 1169 40V402C1169 409.017 1169 414.22 1168.66 418.339C1168.33 422.445 1167.66 425.386 1166.38 427.896C1164.08 432.412 1160.41 436.083 1155.9 438.384C1153.39 439.663 1150.45 440.327 1146.34 440.663C1142.22 440.999 1137.02 441 1130 441H40C32.9828 441 27.7801 440.999 23.6615 440.663C19.5545 440.327 16.6137 439.663 14.1042 438.384C9.58834 436.083 5.9168 432.412 3.61584 427.896C2.33723 425.386 1.67284 422.445 1.33728 418.339C1.00078 414.22 1 409.017 1 402V40Z" stroke="url(#paint1_linear_168_234)" stroke-width="2"/>
<defs>
<linearGradient id="paint0_linear_168_234" x1="841.5" y1="-3.46414e-05" x2="565.775" y2="429.663" gradientUnits="userSpaceOnUse">
<stop offset="0.044184" stop-color="#302C74" stop-opacity="0"/>
<stop offset="0.641101" stop-color="#45409C"/>
<stop offset="1" stop-color="#302C74" stop-opacity="0"/>
</linearGradient>
<linearGradient id="paint1_linear_168_234" x1="585" y1="0" x2="585" y2="442" gradientUnits="userSpaceOnUse">
<stop stop-color="#00E8AD"/>
<stop offset="1" stop-color="#00E8AD" stop-opacity="0"/>
</linearGradient>
</defs>
</svg>
