<svg width="36" height="36" viewBox="0 0 36 36" fill="none" xmlns="http://www.w3.org/2000/svg">
<g clip-path="url(#clip0_168_500)">
<path d="M8.12626 33.1875L8.8033 33.525C11.6247 35.2125 14.7844 36 17.9442 36C27.8749 36 36 27.9 36 18C36 13.2751 34.0815 8.66253 30.6961 5.28748C27.3106 1.91243 22.7965 0 17.9442 0C8.0135 0 -0.111758 8.09999 0.00116293 18.1126C0.00116293 21.4875 1.0168 24.7501 2.70948 27.5625L3.16083 28.2376L1.3554 34.8751L8.12626 33.1875Z" fill="#56D162"/>
<path d="M26.7797 21.816L25.7007 21.3311C25.7007 21.3311 24.1313 20.6524 23.1503 20.1676C23.0521 20.1676 22.9541 20.0706 22.856 20.0706C22.5616 20.0706 22.3655 20.1676 22.1693 20.2646C22.1693 20.2646 22.0713 20.3615 20.6979 21.9128C20.5998 22.1067 20.4036 22.2038 20.2074 22.2038H20.1093C20.0113 22.2038 19.8151 22.1067 19.7169 22.0099L19.2264 21.816C18.1474 21.3311 17.1666 20.7493 16.3817 19.9737C16.1856 19.7798 15.8912 19.5859 15.6951 19.392C15.0084 18.7133 14.3217 17.9376 13.8314 17.0649L13.7332 16.871C13.6352 16.774 13.6352 16.6771 13.537 16.4832C13.537 16.2893 13.537 16.0954 13.6352 15.9984C13.6352 15.9984 14.0275 15.5136 14.3217 15.2228C14.518 15.0288 14.6161 14.738 14.8122 14.5441C15.0084 14.2532 15.1066 13.8654 15.0084 13.5745C14.9104 13.0896 13.7332 10.4718 13.439 9.89009C13.2427 9.59917 13.0467 9.50229 12.7524 9.40527H11.6733C11.477 9.40527 11.281 9.50229 11.0847 9.50229L10.9865 9.59917C10.7903 9.69619 10.5942 9.89009 10.398 9.98697C10.2018 10.181 10.1037 10.3748 9.90751 10.5688C9.22084 11.4414 8.82849 12.5079 8.82849 13.5745C8.82849 14.3501 9.02466 15.1258 9.31899 15.8045L9.41715 16.0954C10.3 17.9376 11.477 19.5859 13.0467 21.0402L13.439 21.428C13.7332 21.7189 14.0275 21.9128 14.2237 22.2036C16.2837 23.949 18.6379 25.2094 21.2865 25.8881C21.5808 25.985 21.9731 25.985 22.2675 26.082H23.2483C23.7388 26.082 24.3273 25.8881 24.7198 25.6942C25.014 25.5003 25.2102 25.5003 25.4063 25.3064L25.6027 25.1124C25.7988 24.9185 25.995 24.8216 26.1912 24.6277C26.3874 24.4338 26.5835 24.2399 26.6817 24.0459C26.8778 23.6581 26.9759 23.1733 27.074 22.6886V22.0099C27.074 22.0099 26.9759 21.9128 26.7797 21.816Z" fill="white"/>
</g>
<defs>
<clipPath id="clip0_168_500">
<rect width="36" height="36" fill="white"/>
</clipPath>
</defs>
</svg>
